<svg xmlns="http://www.w3.org/2000/svg" xmlns:xlink="http://www.w3.org/1999/xlink" viewBox="0 0 325.98 138.96"><defs><style>.cls-1{isolation:isolate;}.cls-18,.cls-2,.cls-20{stroke:#00255b;stroke-miterlimit:10;stroke-width:0.19px;}.cls-2{fill:url(#radial-gradient);}.cls-3,.cls-4{fill:url(#radial-gradient-2);}.cls-4{opacity:0.34;}.cls-5{fill:url(#radial-gradient-4);}.cls-6{fill:url(#radial-gradient-5);}.cls-7{fill:url(#radial-gradient-6);}.cls-8{fill:#3517ca;}.cls-17,.cls-9{mix-blend-mode:overlay;}.cls-10{fill:url(#linear-gradient);}.cls-11{fill:url(#Безымянный_градиент_170);}.cls-12{fill:#fff;}.cls-13{fill:#1c103f;}.cls-14,.cls-19{mix-blend-mode:multiply;}.cls-15,.cls-19{fill:#f5c8bd;}.cls-16{fill:#005456;}.cls-17{fill:url(#linear-gradient-2);}.cls-18{fill:url(#radial-gradient-7);}.cls-20{fill:url(#radial-gradient-8);}.cls-21{fill:url(#radial-gradient-9);}.cls-22{fill:url(#radial-gradient-10);}.cls-23{fill:url(#radial-gradient-11);}.cls-24{fill:url(#radial-gradient-12);}.cls-25{fill:url(#Безымянный_градиент_166);}.cls-26{fill:#7adfff;}.cls-27{fill:url(#Безымянный_градиент_166-2);}.cls-28{fill:url(#Безымянный_градиент_166-3);}.cls-29{fill:url(#Безымянный_градиент_166-4);}.cls-30{fill:url(#Безымянный_градиент_166-5);}.cls-31{fill:url(#Безымянный_градиент_166-6);}</style><radialGradient id="radial-gradient" cx="395.53" cy="213.86" r="98.03" gradientUnits="userSpaceOnUse"><stop offset="0" stop-color="#00cbff"/><stop offset="0.13" stop-color="#00b7f3"/><stop offset="0.41" stop-color="#0083d5"/><stop offset="0.59" stop-color="#005cbf"/><stop offset="1" stop-color="#002479"/></radialGradient><radialGradient id="radial-gradient-2" cx="284.53" cy="39.83" r="21.4" xlink:href="#radial-gradient"/><radialGradient id="radial-gradient-4" cx="310.29" cy="15.56" r="15.63" xlink:href="#radial-gradient"/><radialGradient id="radial-gradient-5" cx="305.86" cy="9.58" r="4.81" xlink:href="#radial-gradient"/><radialGradient id="radial-gradient-6" cx="545.77" cy="172.3" r="13.55" xlink:href="#radial-gradient"/><linearGradient id="linear-gradient" x1="436.53" y1="209.53" x2="526.34" y2="209.53" gradientUnits="userSpaceOnUse"><stop offset="0" stop-color="#fff" stop-opacity="0"/><stop offset="1" stop-color="#00c9f1"/></linearGradient><linearGradient id="Безымянный_градиент_170" x1="117.88" y1="72.53" x2="207.49" y2="72.53" gradientUnits="userSpaceOnUse"><stop offset="0" stop-color="#00f2a0"/><stop offset="1" stop-color="#168c62"/></linearGradient><linearGradient id="linear-gradient-2" x1="241.31" y1="247.33" x2="558.84" y2="247.33" xlink:href="#linear-gradient"/><radialGradient id="radial-gradient-7" cx="163.6" cy="114.81" r="105.95" xlink:href="#radial-gradient"/><radialGradient id="radial-gradient-8" cx="398.8" cy="267.36" r="97.42" xlink:href="#radial-gradient"/><radialGradient id="radial-gradient-9" cx="41.45" cy="39.83" r="21.4" xlink:href="#radial-gradient"/><radialGradient id="radial-gradient-10" cx="15.7" cy="15.56" r="15.63" xlink:href="#radial-gradient"/><radialGradient id="radial-gradient-11" cx="20.12" cy="9.58" r="4.81" xlink:href="#radial-gradient"/><radialGradient id="radial-gradient-12" cx="250.71" cy="171.39" r="13.98" xlink:href="#radial-gradient"/><linearGradient id="Безымянный_градиент_166" x1="23.95" y1="94.79" x2="33.51" y2="94.79" gradientUnits="userSpaceOnUse"><stop offset="0" stop-color="#ff7a25"/><stop offset="0.29" stop-color="#da562c"/><stop offset="0.77" stop-color="#a42235"/><stop offset="1" stop-color="#8f0d39"/></linearGradient><linearGradient id="Безымянный_градиент_166-2" x1="306.24" y1="238.02" x2="315.8" y2="238.02" xlink:href="#Безымянный_градиент_166"/><linearGradient id="Безымянный_градиент_166-3" x1="527.7" y1="247.33" x2="537.27" y2="247.33" xlink:href="#Безымянный_градиент_166"/><linearGradient id="Безымянный_градиент_166-4" x1="480.61" y1="238.02" x2="490.18" y2="238.02" xlink:href="#Безымянный_градиент_166"/><linearGradient id="Безымянный_градиент_166-5" x1="362.9" y1="234.02" x2="372.46" y2="234.02" xlink:href="#Безымянный_градиент_166"/><linearGradient id="Безымянный_градиент_166-6" x1="425.61" y1="234.02" x2="435.18" y2="234.02" xlink:href="#Безымянный_градиент_166"/></defs><title>тарелка синяя</title><g class="cls-1"><g id="Слой_1" data-name="Слой 1"><path class="cls-2" d="M264.89,239.43s28.44-72,133.26-72,128,75.85,128,75.85l-128,16.94Z" transform="translate(-235.21 -152.54)"/><polygon class="cls-3" points="263.2 56.66 299.42 18.36 305.86 24.85 269.64 61.31 263.2 56.66"/><polygon class="cls-4" points="263.2 56.66 299.42 18.36 305.86 24.85 269.64 61.31 263.2 56.66"/><ellipse class="cls-5" cx="310.29" cy="15.56" rx="15.7" ry="15.56"/><ellipse class="cls-6" cx="305.86" cy="9.58" rx="4.83" ry="4.79"/><path class="cls-7" d="M561.19,168.1a15.42,15.42,0,0,0-1.77-7.16c-2.34,1.47-3.68,4.27-5.39,6.54a18.16,18.16,0,0,1-23.68,4.64,15.7,15.7,0,0,0,30.84-4Z" transform="translate(-235.21 -152.54)"/><path class="cls-8" d="M436.37,171.26c13.2,10.82,22.35,26.62,24,43.56.9,9.31-.55,19.4-6.75,26.45q21.06,4,42.43,6l30.16-4S508.81,186.62,436.37,171.26Z" transform="translate(-235.21 -152.54)"/><g class="cls-9"><path class="cls-10" d="M436.53,171.51c13.2,10.82,22.36,26.62,24,43.56.89,9.31-.55,19.4-6.76,26.45q21.06,4,42.43,6l30.16-4S509,186.87,436.53,171.51Z" transform="translate(-235.21 -152.54)"/></g><ellipse class="cls-11" cx="162.68" cy="72.53" rx="44.8" ry="44.42"/><ellipse class="cls-12" cx="147.6" cy="52.03" rx="12.3" ry="12.19"/><ellipse class="cls-13" cx="152.6" cy="52.03" rx="5" ry="4.96"/><ellipse class="cls-12" cx="177.77" cy="52.03" rx="12.3" ry="12.19"/><g class="cls-14"><path class="cls-15" d="M410.75,182.52a26.81,26.81,0,0,1,4.73,12.19c1.28,11-4.53,22.31-13.85,28.4-4.13,2.7-9,4.55-12.14,8.31q24.63,3.18,49.48,4c.82,0,1.65.05,2.48,0a44.29,44.29,0,0,0-30.7-52.94Z" transform="translate(-235.21 -152.54)"/></g><path class="cls-13" d="M413,204.57a5,5,0,1,1-5-5A5,5,0,0,1,413,204.57Z" transform="translate(-235.21 -152.54)"/><path class="cls-16" d="M359.24,211.82A6.08,6.08,0,0,0,361,199.89a44.18,44.18,0,0,0-5.44,10.67A6.09,6.09,0,0,0,359.24,211.82Z" transform="translate(-235.21 -152.54)"/><path class="cls-16" d="M386.93,186.58a2.94,2.94,0,1,0,2.94-2.91A2.93,2.93,0,0,0,386.93,186.58Z" transform="translate(-235.21 -152.54)"/><path class="cls-16" d="M435.56,219.78a5.13,5.13,0,1,0-5.17-5.12A5.14,5.14,0,0,0,435.56,219.78Z" transform="translate(-235.21 -152.54)"/><path class="cls-16" d="M371.57,218.51a3.89,3.89,0,1,0-3.89,3.86A3.87,3.87,0,0,0,371.57,218.51Z" transform="translate(-235.21 -152.54)"/><ellipse class="cls-16" cx="160.78" cy="73.35" rx="7.45" ry="7.38"/><path class="cls-16" d="M421.29,216.77a2,2,0,1,0,2,1.95A2,2,0,0,0,421.29,216.77Z" transform="translate(-235.21 -152.54)"/><path class="cls-16" d="M412.08,186.19a5.59,5.59,0,0,0,10.79,2,44.82,44.82,0,0,0-9.91-5A5.47,5.47,0,0,0,412.08,186.19Z" transform="translate(-235.21 -152.54)"/><path class="cls-8" d="M251.54,269.59l-10.3-21.48s19.89-23,162.68-23,154.86,26.85,154.86,26.85l-12.72,17.67Z" transform="translate(-235.21 -152.54)"/><path class="cls-17" d="M251.61,269.59l-10.3-21.48s19.89-23,162.68-23,154.85,26.85,154.85,26.85l-12.71,17.67Z" transform="translate(-235.21 -152.54)"/><path class="cls-12" d="M288.55,258.22l1.05-.19-4.47-24.87-1.19.21,4.47,24.87Z" transform="translate(-235.21 -152.54)"/><path class="cls-12" d="M343.84,251.82l1.07-.06-1.48-25-1.2.08,1.47,25Z" transform="translate(-235.21 -152.54)"/><path class="cls-12" d="M455.16,251.74,458,226.6l-1.21-.08L453.91,252l1.2.14Z" transform="translate(-235.21 -152.54)"/><path class="cls-12" d="M511,232.66l-2.95,25.67,1.21.14,0-.42,2.89-25.17Z" transform="translate(-235.21 -152.54)"/><path class="cls-12" d="M399,249.59l1.07,0-.69-24.48h-1.21l.69,24.5Z" transform="translate(-235.21 -152.54)"/><ellipse class="cls-18" cx="163.6" cy="114.81" rx="147.9" ry="24.05"/><ellipse class="cls-19" cx="162.97" cy="114.81" rx="147.9" ry="24.05"/><path class="cls-20" d="M398.8,284.22c-36.13,0-70.78-2.15-97.59-6.05-21.25-3.1-32.27-6.49-37.88-8.9a2.08,2.08,0,0,1,0-3.83c5.6-2.41,16.63-5.8,37.88-8.9,26.81-3.9,61.46-6.05,97.59-6.05s70.79,2.15,97.59,6.05c21.26,3.1,32.28,6.49,37.88,8.9a2.08,2.08,0,0,1,0,3.83c-5.6,2.41-16.62,5.8-37.88,8.9C469.59,282.07,434.93,284.22,398.8,284.22Z" transform="translate(-235.21 -152.54)"/><polygon class="cls-21" points="62.78 56.66 26.56 18.36 20.12 24.85 56.34 61.31 62.78 56.66"/><ellipse class="cls-22" cx="15.7" cy="15.56" rx="15.7" ry="15.56"/><ellipse class="cls-23" cx="20.12" cy="9.58" rx="4.83" ry="4.79"/><path class="cls-24" d="M266.22,171.46a9.67,9.67,0,0,0-4-.34c-3,.35-5.75,1.63-8.71,2a14.28,14.28,0,0,1-14.63-8.87,13.12,13.12,0,0,1-.78-5.11,15.34,15.34,0,0,0-2.89,9,15.7,15.7,0,0,0,31,3.36Z" transform="translate(-235.21 -152.54)"/><ellipse class="cls-19" cx="164.2" cy="117.7" rx="62.78" ry="9.99"/><ellipse class="cls-12" cx="162.68" cy="120.57" rx="36.16" ry="5.75"/><ellipse class="cls-25" cx="28.73" cy="94.79" rx="4.78" ry="4.74"/><path class="cls-26" d="M266.79,246.74a3.45,3.45,0,1,1-3.45-3.42A3.43,3.43,0,0,1,266.79,246.74Z" transform="translate(-235.21 -152.54)"/><ellipse class="cls-12" cx="26.12" cy="93.04" rx="1.17" ry="1.16"/><path class="cls-27" d="M315.8,238a4.78,4.78,0,1,1-4.78-4.74A4.76,4.76,0,0,1,315.8,238Z" transform="translate(-235.21 -152.54)"/><path class="cls-26" d="M313.88,237.43a3.45,3.45,0,1,1-3.45-3.41A3.44,3.44,0,0,1,313.88,237.43Z" transform="translate(-235.21 -152.54)"/><path class="cls-12" d="M309.58,236.28a1.17,1.17,0,0,1-2.34,0,1.17,1.17,0,0,1,2.34,0Z" transform="translate(-235.21 -152.54)"/><path class="cls-28" d="M527.7,247.33a4.79,4.79,0,1,0,4.78-4.74A4.76,4.76,0,0,0,527.7,247.33Z" transform="translate(-235.21 -152.54)"/><path class="cls-26" d="M529.63,246.74a3.45,3.45,0,1,0,3.44-3.42A3.43,3.43,0,0,0,529.63,246.74Z" transform="translate(-235.21 -152.54)"/><path class="cls-12" d="M533.92,245.58a1.17,1.17,0,1,0,1.17-1.15A1.17,1.17,0,0,0,533.92,245.58Z" transform="translate(-235.21 -152.54)"/><path class="cls-29" d="M480.61,238a4.79,4.79,0,1,0,4.79-4.74A4.76,4.76,0,0,0,480.61,238Z" transform="translate(-235.21 -152.54)"/><path class="cls-26" d="M482.54,237.43A3.45,3.45,0,1,0,486,234,3.43,3.43,0,0,0,482.54,237.43Z" transform="translate(-235.21 -152.54)"/><path class="cls-12" d="M486.84,236.28a1.17,1.17,0,1,0,1.16-1.16A1.15,1.15,0,0,0,486.84,236.28Z" transform="translate(-235.21 -152.54)"/><path class="cls-30" d="M372.46,234a4.78,4.78,0,1,1-4.78-4.75A4.77,4.77,0,0,1,372.46,234Z" transform="translate(-235.21 -152.54)"/><path class="cls-26" d="M370.54,233.43a3.45,3.45,0,1,1-3.45-3.42A3.44,3.44,0,0,1,370.54,233.43Z" transform="translate(-235.21 -152.54)"/><path class="cls-12" d="M366.24,232.27a1.17,1.17,0,1,1-1.17-1.16A1.16,1.16,0,0,1,366.24,232.27Z" transform="translate(-235.21 -152.54)"/><path class="cls-31" d="M435.18,234a4.79,4.79,0,1,1-4.79-4.75A4.77,4.77,0,0,1,435.18,234Z" transform="translate(-235.21 -152.54)"/><path class="cls-26" d="M433.25,233.43A3.45,3.45,0,1,1,429.8,230,3.43,3.43,0,0,1,433.25,233.43Z" transform="translate(-235.21 -152.54)"/><path class="cls-12" d="M429,232.27a1.17,1.17,0,1,1-1.16-1.16A1.16,1.16,0,0,1,429,232.27Z" transform="translate(-235.21 -152.54)"/><path class="cls-19" d="M294.56,213.13a101,101,0,0,1,39.6-24.71c2.16-.73,5.06-1.15,6.28.77.89,1.4.28,3.23-.43,4.73a53,53,0,0,1-36.61,28.81c-3.85.81-8.94.54-10.34-3.11-1.16-3,1.18-6.23,3.47-8.56" transform="translate(-235.21 -152.54)"/></g></g></svg>