<svg xmlns="http://www.w3.org/2000/svg" xmlns:xlink="http://www.w3.org/1999/xlink" viewBox="0 0 144.85 69.01"><defs><style>.cls-1{fill:none;}.cls-2{isolation:isolate;}.cls-3{fill:#102769;}.cls-4{fill:#0a1239;}.cls-15,.cls-5,.cls-7,.cls-8,.cls-9{stroke:#00255b;stroke-miterlimit:10;stroke-width:0.19px;}.cls-5{fill:url(#radial-gradient);}.cls-50,.cls-6{fill:#fff;}.cls-6{opacity:0.3;mix-blend-mode:overlay;}.cls-7{fill:url(#radial-gradient-2);}.cls-8{fill:url(#radial-gradient-3);}.cls-9{fill:url(#radial-gradient-4);}.cls-10{fill:#003479;}.cls-11{fill:#afb1bc;}.cls-12{fill:#a2a5b2;}.cls-13{fill:#2d417b;}.cls-14{fill:#080e2e;}.cls-15{fill:url(#radial-gradient-5);}.cls-16{fill:#8b95a2;}.cls-17{fill:#0c1e54;}.cls-18{fill:#002861;}.cls-19{fill:#171a49;}.cls-20{fill:#001238;}.cls-21{fill:#0c1035;}.cls-22{fill:#1d215a;}.cls-23{fill:#3b4e84;}.cls-24{fill:#263a77;}.cls-25{fill:#386197;}.cls-26{fill:#0f4181;}.cls-27{fill:#091037;}.cls-28{fill:#90d4e8;}.cls-29{fill:#5dd4e8;}.cls-30{fill:#aedfee;}.cls-31{fill:#3517ca;}.cls-32{fill:#8bd4e8;}.cls-33{fill:#00b1d0;}.cls-34{fill:#c0c2cd;}.cls-35{fill:#000e2d;}.cls-36{fill:#2c3b6a;}.cls-37{fill:#1d2c5f;}.cls-38{fill:#11143b;}.cls-39{fill:#161948;}.cls-40{fill:#0d0f30;}.cls-41{fill:#000b24;}.cls-42{fill:#091744;}.cls-43{fill:#262a46;}.cls-44{fill:#020720;}.cls-45{fill:#2c2e34;}.cls-46{fill:#5b5d69;}.cls-47{fill:#25272c;}.cls-48{fill:#82848d;}.cls-49{fill:#a0a1a8;}.cls-51{fill:#454750;}.cls-52{fill:#3c3e46;}.cls-53{fill:#31333a;}.cls-54{fill:#52545f;}.cls-55{fill:#090c2a;}.cls-56{fill:#0c1014;}.cls-57{clip-path:url(#clip-path);}</style><radialGradient id="radial-gradient" cx="391.19" cy="217.68" r="50.44" gradientUnits="userSpaceOnUse"><stop offset="0" stop-color="#00cbff"/><stop offset="0.13" stop-color="#00b7f3"/><stop offset="0.41" stop-color="#0083d5"/><stop offset="0.59" stop-color="#005cbf"/><stop offset="1" stop-color="#002479"/></radialGradient><radialGradient id="radial-gradient-2" cx="344.75" cy="219.53" r="14.38" xlink:href="#radial-gradient"/><radialGradient id="radial-gradient-3" cx="449.07" cy="194.79" r="6.68" xlink:href="#radial-gradient"/><radialGradient id="radial-gradient-4" cx="445.76" cy="203.72" r="7.77" xlink:href="#radial-gradient"/><radialGradient id="radial-gradient-5" cx="402.54" cy="231.21" r="34.05" xlink:href="#radial-gradient"/><clipPath id="clip-path" transform="translate(-325.85 -188.75)"><path class="cls-1" d="M437.54,245.33a3.2,3.2,0,0,1,.1.42h0a2.37,2.37,0,0,0-.09-.36l0-.07Z"/></clipPath></defs><title>самолет синий</title><g class="cls-2"><g id="Слой_1" data-name="Слой 1"><path class="cls-3" d="M451.11,219.15s4,.34,4.55,1.58,1,5.69-1.6,10.33-2,6.8-6.26,4.77,3.31-16.68,3.31-16.68Z" transform="translate(-325.85 -188.75)"/><path class="cls-4" d="M447.8,235.87c4.22,2,3.63-.12,6.27-4.77a15.44,15.44,0,0,0,1.63-4.19,27.89,27.89,0,0,1-7.54-.95c-1.51,4.13-2.61,8.82-.36,9.91Z" transform="translate(-325.85 -188.75)"/><path class="cls-5" d="M433.6,206.73c1.79-2,13-13.49,15.15-15.69s7.56-4.58,7.68,2.85a137,137,0,0,1-1.32,15.68c-.65,5.14-1.29,9.57-1.13,10.32.33,1.56,1.65,5.81-.05,8,0,0-2.88,2.5-3.19,4.24s-.26,4.58-3.32,5.07a26.08,26.08,0,0,1-5.11,0,28.64,28.64,0,0,0-6.85.26c-4.17.84-21.62,7.51-32.77,8.38s-26.66,1.24-41-1.44-22.69-6.11-28.45-8.89-8-6.35-7.14-9.7,8.69-5.75,11.69-7.76A91.93,91.93,0,0,0,350,208.91c4.06-3.85,8.32-5.79,16-6.73,8.61-1.06,47.65,8.11,52.49,9,5.53,1.07,6.48.95,8.68.22,3.24-1.08,6.41-4.71,6.41-4.71Z" transform="translate(-325.85 -188.75)"/><path class="cls-6" d="M381.47,212.06c-4,.33-6.65,1.16-7.19,2.68-1.63,4.59-2,10.08-14.08,11.53s-9.21,7,.65,7.88a58.86,58.86,0,0,0,9.64.24c4.43-.37,7.15-1.72,7.32-4.78.21-4,3.1-5.07,10.85-5.77a3.23,3.23,0,0,1,.81-6.26h.23l.22,0a3.23,3.23,0,0,1,1.82,6.06l3.12-.21,3.05-.19a3.18,3.18,0,0,1-1-2,3.23,3.23,0,0,1,3-3.49h.22l.23,0a3.24,3.24,0,0,1,2.78,5.26l4.22-.26a3.06,3.06,0,0,1-.25-1,3.23,3.23,0,0,1,2.95-3.49h.22l.23,0a3.24,3.24,0,0,1,3.49,3,3.19,3.19,0,0,1-.11,1.12l2.25-.18,1.45-.12a3.23,3.23,0,0,1,2.83-2.32h.23l.22,0A3.25,3.25,0,0,1,424,221.2c7.19-.95,10.53-2.26,2.4-4.13-13-3-33.92-5.93-44.91-5Z" transform="translate(-325.85 -188.75)"/><path class="cls-7" d="M343.18,214.44c-2.05,1.47-4.11,2.8-5.54,3.75-2.81,1.88-9.59,4.3-11.18,7.33a61.25,61.25,0,0,0,7.85,2.19c15.95,3.76,25.34-8.88,28.74-12.72-4.35-1.59-9.86-2.58-14.7-4.34C346.69,212.08,344.84,213.25,343.18,214.44Z" transform="translate(-325.85 -188.75)"/><path class="cls-8" d="M456.43,193.89c-.21-7.32-5.45-5.08-7.61-2.87-1,1-4,4.12-7.12,7.31l14.35,2.37A61.81,61.81,0,0,0,456.43,193.89Z" transform="translate(-325.85 -188.75)"/><path class="cls-9" d="M455.92,202.07l-15.38-2.54c-1.84,1.9-3.62,3.74-4.94,5.12l19.68,3.25C455.51,206,455.73,204,455.92,202.07Z" transform="translate(-325.85 -188.75)"/><path class="cls-6" d="M454.81,211.81l-22.52-3.73a14.69,14.69,0,0,1-5,3.31c-2.38.75-3.15.85-8.68-.22-4.85-.93-43.86-9.88-52.49-9-10.63,1-15.17,6-15.17,6,5.69,14,12.16-1.1,39.29,1.23,26.71,2.29,58.6,9.58,61.25,10.19.54.13,1.38.29,2.53.45l0-.12A80.45,80.45,0,0,1,454.81,211.81Z" transform="translate(-325.85 -188.75)"/><path class="cls-3" d="M442.36,234.72c-3.88-.45-8.81.34-16.4,1.35a298.09,298.09,0,0,1-31.74,2.66c-34.85,1.11-51-6.33-57.5-10.91a43.31,43.31,0,0,1-6.6-5.74c-2,1.12-3.58,2.37-3.94,3.79-.87,3.35,1.38,6.91,7.14,9.7s14.13,6.21,28.45,8.89,29.81,2.31,41,1.44,28.61-7.54,32.78-8.38a28.58,28.58,0,0,1,6.84-.26,26.17,26.17,0,0,0,5.12,0,3.28,3.28,0,0,0,2.79-2.34,40.08,40.08,0,0,1-7.9-.17Z" transform="translate(-325.85 -188.75)"/><path class="cls-10" d="M335.44,219.41c-3.56,1.74-8.58,3.79-9.27,6.44-.86,3.36,1.39,6.92,7.15,9.7l.44.21a16.54,16.54,0,0,0,3-10,17.45,17.45,0,0,0-1.31-6.31Z" transform="translate(-325.85 -188.75)"/><path class="cls-3" d="M448.75,191c-2.16,2.2-13.35,13.72-15.15,15.69,0,0-3.17,3.63-6.41,4.71a10,10,0,0,1-5.05.37c5.92,1,6.28,1.32,11.39,2.4.61.13,1,.24,1.29.31-1.07-.4-3.88-1.84-1.66-4.66,4-5,11.87-12.91,15.76-17s7-4.15,7.39-.14C455.73,186.71,450.8,189,448.75,191Z" transform="translate(-325.85 -188.75)"/><path class="cls-11" d="M389.52,223.77l-.86.07A3.21,3.21,0,0,0,390,224l.22,0h.23a3.23,3.23,0,0,0,1.28-.38l-2.22.17Z" transform="translate(-325.85 -188.75)"/><path class="cls-12" d="M389.92,217.54l-.22,0h-.23a3.23,3.23,0,0,0-.81,6.26l.86-.07,2.22-.17a3.23,3.23,0,0,0-1.82-6.06Z" transform="translate(-325.85 -188.75)"/><path class="cls-11" d="M397.91,223.2a3.22,3.22,0,0,0,2.54.92l.22,0h.22a3.26,3.26,0,0,0,2.25-1.19l-5.23.3Z" transform="translate(-325.85 -188.75)"/><path class="cls-12" d="M400.36,217.64l-.23,0h-.22a3.23,3.23,0,0,0-3,3.49,3.18,3.18,0,0,0,1,2l5.23-.3a3.24,3.24,0,0,0-2.78-5.26Z" transform="translate(-325.85 -188.75)"/><path class="cls-11" d="M407.36,222.64a3.22,3.22,0,0,0,3.24,2l.22,0H411a3.22,3.22,0,0,0,2.85-2.36c-2.17.17-4.38.32-6.53.45Z" transform="translate(-325.85 -188.75)"/><path class="cls-12" d="M410.51,218.11l-.23,0h-.22a3.23,3.23,0,0,0-2.95,3.49,3.06,3.06,0,0,0,.25,1c2.15-.13,4.36-.28,6.53-.45a3.19,3.19,0,0,0,.11-1.12,3.24,3.24,0,0,0-3.49-3Z" transform="translate(-325.85 -188.75)"/><path class="cls-11" d="M424,221.2c-1.91.26-4.08.48-6.39.69A3.22,3.22,0,0,0,421,226l.22,0,.23,0a3.22,3.22,0,0,0,2.95-3.48,3.28,3.28,0,0,0-.38-1.29Z" transform="translate(-325.85 -188.75)"/><path class="cls-12" d="M420.87,219.53l-.22,0h-.23a3.23,3.23,0,0,0-2.83,2.32c2.31-.21,4.48-.43,6.39-.69a3.25,3.25,0,0,0-3.11-1.67Z" transform="translate(-325.85 -188.75)"/><path class="cls-13" d="M427.19,211.44a10,10,0,0,1-5.05.37c5.92,1,6.28,1.32,11.39,2.4.61.13,1,.24,1.29.31-1.07-.4-3.88-1.84-1.66-4.66.36-.45.75-.93,1.17-1.42l-2.07-.35A15.3,15.3,0,0,1,427.19,211.44Z" transform="translate(-325.85 -188.75)"/><path class="cls-13" d="M435.58,204.64l1.83.3c1.54-1.69,3.2-3.45,4.83-5.14l-1.73-.28C438.68,201.41,436.9,203.25,435.58,204.64Z" transform="translate(-325.85 -188.75)"/><path class="cls-13" d="M448.75,191l-7.08,7.27,1.73.29c2.12-2.19,4.09-4.2,5.52-5.69,3.89-4,7-4.15,7.39-.14C455.73,186.71,450.8,189,448.75,191Z" transform="translate(-325.85 -188.75)"/><path class="cls-14" d="M452.27,233.16a1.64,1.64,0,0,0-1.24,1.71h0l0,.13-.11,0-.48-.23a4.16,4.16,0,0,1-1,1.78,3,3,0,0,0,1,.12c1.14-.1,1.56-1.24,2.47-3.17l-.59-.3Z" transform="translate(-325.85 -188.75)"/><path class="cls-15" d="M381,230.16a66.53,66.53,0,0,0,1.84,7.75c-11.46-.62-20.59-1.48-27.88-2.46,9.1,2.25,21.63,3.8,38.67,3.3-1.33-.91-2.43-1.69-3.34-2.37-1.75-.87-3.34-1.69-4.67-2.43a19.17,19.17,0,0,1-3.63-2.38,4.28,4.28,0,0,1-1-1.41Zm50.4-6.59c-.24,1.7,1.21,6.44,2.85,9.86-2.72.35-5.6.68-8.66,1l2,1.44c3.6-.48,6.57-.9,9.11-1.11a28.94,28.94,0,0,1,5.66,0,39.54,39.54,0,0,0,7.61.19l.12-.36c-2.64-1.23-6.55-3-10.11-4.79h0l-.12-.06,0,0h0c-1.65-.84-3.22-1.69-4.54-2.52a15.78,15.78,0,0,1-3.11-2.35,2.71,2.71,0,0,1-.74-1.24Z" transform="translate(-325.85 -188.75)"/><path class="cls-16" d="M448,237.12l-.52.11c-.24,0-.48.07-.73.09l-.3,0,.43,0a5.49,5.49,0,0,0,1.12-.19Zm-6.13.12,1.46.07-1-.05-.49,0Zm-3.91,0c.88,0,2.5,0,3.73,0-1.22,0-2.48-.08-3.73,0Zm12.14-2.67-.12.36.25,0h0a3.58,3.58,0,0,1-1,1.57l.17,0a4.16,4.16,0,0,0,1-1.78l-.09,0-.28-.14Zm-123.76-9.16a3,3,0,0,0-.16.44,5.59,5.59,0,0,0-.16,1.86,5.72,5.72,0,0,1,.16-1.84,3.66,3.66,0,0,1,.15-.43v0Z" transform="translate(-325.85 -188.75)"/><path class="cls-17" d="M436.7,234.74c-2.54.21-5.51.63-9.11,1.11l1.47,1.11h0c.76.58,1.5,1.15,2.2,1.71,1.88-.59,3.36-1,4.24-1.21.58-.11,1.18-.19,1.78-.25H438c1.25-.07,2.51,0,3.73,0h.18l.49,0,1,.05c1,0,2.17.08,3.12,0l.3,0c.25,0,.49,0,.73-.09l.52-.11h0l.28-.13a3.17,3.17,0,0,0,.94-.54h0a3.58,3.58,0,0,0,1-1.57h0l-.25,0a39.54,39.54,0,0,1-7.61-.19,28.94,28.94,0,0,0-5.66,0Zm-100.82-3.16a15.43,15.43,0,0,1-2.11,4.17c5.75,2.74,14.05,6.06,28,8.68A141.93,141.93,0,0,0,389,246.5c.05-.44.12-.86.2-1.25a6.05,6.05,0,0,1,1.29-2.78,2.48,2.48,0,0,1,.8-.59l.18-.11c2.09-2.15,5.29-1,2.69-2.72l-.44-.3c-17,.5-29.57-1.05-38.67-3.3a117.32,117.32,0,0,1-19.12-3.87Z" transform="translate(-325.85 -188.75)"/><path class="cls-18" d="M326.32,225.42a3.66,3.66,0,0,0-.15.43,5.72,5.72,0,0,0-.16,1.84c.24,2.78,2.6,5.57,7.31,7.84l.45.22a15.43,15.43,0,0,0,2.11-4.17c-9.57-3-9.58-5.86-9.56-6.16Z" transform="translate(-325.85 -188.75)"/><path class="cls-19" d="M441.13,227.47c-9.62-4.48-6.78-5.84-5.39-5.93-2.09,0-4.24.48-4.26,1.81,0,1.59,3.9,4,8.41,6.29,0,0-.32-1.79,1.24-2.17Z" transform="translate(-325.85 -188.75)"/><path class="cls-20" d="M441.13,227.47l0-.07a30.1,30.1,0,0,1-5.38-3,5.74,5.74,0,0,1-1.11-1,1.44,1.44,0,0,1-.35-.75.6.6,0,0,1,.1-.42,1.16,1.16,0,0,1,.55-.4,2.49,2.49,0,0,1,.73-.17h.05v-.14c-.32,0-.64,0-1,.05a6.9,6.9,0,0,0-2.32.52,2,2,0,0,0-.75.54,1.12,1.12,0,0,0-.29.77v.1a2.49,2.49,0,0,0,.76,1.36,15.78,15.78,0,0,0,3.11,2.35c1.33.83,2.91,1.69,4.57,2.54l.12.06,0-.14a.79.79,0,0,1,0-.14,2.27,2.27,0,0,1,.13-1,1.45,1.45,0,0,1,1.08-.92l.18-.05-.17-.08,0,.07,0-.07a1.61,1.61,0,0,0-1.17,1,2.6,2.6,0,0,0-.14,1.09c0,.09,0,.15,0,.16h.07l0-.06a50.82,50.82,0,0,1-5.8-3.35,12,12,0,0,1-1.84-1.51,2.4,2.4,0,0,1-.73-1.28v-.09a1,1,0,0,1,.26-.69A2.56,2.56,0,0,1,433,222a8.39,8.39,0,0,1,1.79-.33c.32,0,.63,0,.95,0v-.14h-.05a2.38,2.38,0,0,0-1,.29,1.1,1.1,0,0,0-.37.34.77.77,0,0,0-.13.5,1.61,1.61,0,0,0,.38.82c.72.94,2.58,2.25,6.54,4.1l0-.06,0-.07,0,.07Z" transform="translate(-325.85 -188.75)"/><path class="cls-21" d="M470.3,236.76c0,.6-.54,1-2.06,1.14-4.84.38-10.27-1.93-16-4.8a1.69,1.69,0,0,0-1.29,1.79c5.82,2.69,13.27,5.21,18.35,4.09C470.77,238.66,470.9,237.82,470.3,236.76Z" transform="translate(-325.85 -188.75)"/><path class="cls-20" d="M470.3,236.76h-.06a.82.82,0,0,1-.09.38,1.14,1.14,0,0,1-.59.44,4.43,4.43,0,0,1-1.28.25h0c-4.82.37-10.25-1.93-15.95-4.8h-.05a1.77,1.77,0,0,0-1.2,1,1.75,1.75,0,0,0-.14.84v.06l0,0c5.27,2.43,11.87,4.73,16.87,4.31a10.3,10.3,0,0,0,1.52-.22,2.06,2.06,0,0,0,1.08-.52,1,1,0,0,0,.29-.84,2.53,2.53,0,0,0-.34-1l-.12,0h.06l-.06,0a2.41,2.41,0,0,1,.33.91,1,1,0,0,1-.25.74,2.07,2.07,0,0,1-1,.48,12.2,12.2,0,0,1-1.51.22c-4.95.41-11.55-1.87-16.8-4.31l0,.06H451a1.82,1.82,0,0,1,.13-.77,1.64,1.64,0,0,1,1.11-.94v-.06l0,.06c5.71,2.87,11.15,5.19,16,4.81h.05a3.72,3.72,0,0,0,1.59-.41,1,1,0,0,0,.37-.36.85.85,0,0,0,.11-.44h-.07l-.06,0Z" transform="translate(-325.85 -188.75)"/><path class="cls-22" d="M452.26,233.1c-3.62-1.82-7.34-3.87-11.08-5.61l-.05,0c-1.56.38-1.24,2.15-1.24,2.17,3.72,1.89,7.84,3.73,10.51,5l.57.26a1.69,1.69,0,0,1,1.29-1.79Z" transform="translate(-325.85 -188.75)"/><path class="cls-20" d="M452.26,233.1l0-.06c-3.61-1.82-7.33-3.87-11.09-5.61l0,0h-.05a1.61,1.61,0,0,0-1.17,1,2.6,2.6,0,0,0-.14,1.09c0,.1,0,.15,0,.16v0l0,0c3.72,1.89,7.85,3.73,10.51,5l.57.27.11,0,0-.13h0a1.67,1.67,0,0,1,.13-.77,1.64,1.64,0,0,1,1.11-.94l.17,0-.15-.07,0,.06,0-.07a1.77,1.77,0,0,0-1.2,1,1.75,1.75,0,0,0-.14.84v0H451l0-.06-.57-.26c-2.67-1.26-6.79-3.1-10.51-5l0,.06.06,0h0a.94.94,0,0,1,0-.14,2.27,2.27,0,0,1,.13-1,1.45,1.45,0,0,1,1.08-.92l0-.06,0,.06,0,0c3.74,1.74,7.46,3.79,11.08,5.61l0-.06,0-.07,0,.07Z" transform="translate(-325.85 -188.75)"/><path class="cls-23" d="M465.47,232c-5.27-.53-13.2,1.09-13.2,1.1,5.69,2.86,11.11,5.16,15.94,4.78,1.52-.11,2.08-.54,2.07-1.14a20.38,20.38,0,0,0-4.81-4.74Z" transform="translate(-325.85 -188.75)"/><path class="cls-23" d="M465.47,232v-.07a33,33,0,0,0-5.78.05,73.1,73.1,0,0,0-7.45,1.05l-.18,0,.17.09c5.7,2.87,11.12,5.17,16,4.79h0a3.58,3.58,0,0,0,1.59-.41,1,1,0,0,0,.37-.36.77.77,0,0,0,.11-.45h0v0c-.79-1.41-2.83-3.2-4.82-4.76h0V232l0,0c2,1.54,4,3.34,4.79,4.72l.06,0h-.07a.82.82,0,0,1-.09.38,1.14,1.14,0,0,1-.59.44,4.42,4.42,0,0,1-1.27.25h-.05c-4.81.37-10.22-1.92-15.91-4.78l0,.06v.06a72.17,72.17,0,0,1,7.43-1.05,33.62,33.62,0,0,1,5.75,0V232l0,0,0,0Z" transform="translate(-325.85 -188.75)"/><path class="cls-3" d="M459.13,227.45h0c-2-1.43-4.38-3.2-5.78-3.55a35.56,35.56,0,0,0-4.59-.72c-2.18-.28-8-1.05-10.1-1.45a15.77,15.77,0,0,0-3-.22c-1.39.09-4.24,1.45,5.44,6,0,0,10.75-1.09,18,0Z" transform="translate(-325.85 -188.75)"/><path class="cls-3" d="M459.13,227.45v.07h.21l-.15-.11c-1-.72-2.07-1.52-3.1-2.18a10.43,10.43,0,0,0-2.7-1.38,34.56,34.56,0,0,0-4.6-.73c-2.18-.27-7.95-1-10.1-1.45a15.88,15.88,0,0,0-3-.22h0a2.38,2.38,0,0,0-1,.29,1.1,1.1,0,0,0-.37.34.83.83,0,0,0-.13.5,1.67,1.67,0,0,0,.38.83c.73.93,2.6,2.25,6.59,4.11h0l.27,0,.75-.07c2.85-.24,11.07-.79,16.95.09h0v-.14c-5.9-.88-14.12-.32-17-.08l-1,.09v.07l0-.06a31.75,31.75,0,0,1-5.41-3,5.85,5.85,0,0,1-1.12-1.05,1.49,1.49,0,0,1-.35-.75.62.62,0,0,1,.1-.41,1.12,1.12,0,0,1,.55-.41,2.56,2.56,0,0,1,.73-.17h.05v0a14.87,14.87,0,0,1,3,.22c2.15.4,7.92,1.17,10.1,1.45a33.31,33.31,0,0,1,4.58.72,10.15,10.15,0,0,1,2.67,1.36c1,.66,2.11,1.46,3.09,2.17l0-.05v-.07h0v.07Z" transform="translate(-325.85 -188.75)"/><path class="cls-24" d="M465.47,232c-2-1.56-4-2.87-4.53-3.26s-1.12-.79-1.78-1.28h0c-7.23-1.08-18,0-18,0,3.76,1.75,7.49,3.8,11.12,5.63,0,0,7.93-1.63,13.2-1.1Z" transform="translate(-325.85 -188.75)"/><path class="cls-24" d="M465.47,232l0-.06c-2-1.56-4-2.87-4.54-3.26s-1.11-.78-1.77-1.27l0,0h-.05v0c-5.9-.88-14.12-.32-17-.08l-1,.09-.24,0,.22.11c3.76,1.75,7.49,3.8,11.12,5.63h0a72.17,72.17,0,0,1,7.43-1.05,33.62,33.62,0,0,1,5.75,0l.24,0-.19-.15,0,.06v-.07a33,33,0,0,0-5.78.05,73.1,73.1,0,0,0-7.45,1.05l0,.07,0-.06c-3.62-1.83-7.36-3.88-11.13-5.63l0,.06v.06l.27,0,.75-.07c2.85-.24,11.07-.79,16.95.09h0v-.07l0,.05c.66.49,1.28.95,1.78,1.28s2.53,1.7,4.53,3.26l0,0v0Z" transform="translate(-325.85 -188.75)"/><path class="cls-25" d="M336.28,222a16.11,16.11,0,0,0-.84-2.6c-3.34,1.63-8,3.54-9.09,6C326.58,225.09,328.83,222.56,336.28,222Z" transform="translate(-325.85 -188.75)"/><path class="cls-26" d="M336.62,223.92a34,34,0,0,0-10.28,1.5h0c.15.13,2.87,2.43,10.29,2.81a18.55,18.55,0,0,0,.12-2.49A18.32,18.32,0,0,0,336.62,223.92Z" transform="translate(-325.85 -188.75)"/><path class="cls-21" d="M392.16,219.91a3.23,3.23,0,1,1-3.49-2.95A3.24,3.24,0,0,1,392.16,219.91Z" transform="translate(-325.85 -188.75)"/><path class="cls-3" d="M392.6,219.87a3.23,3.23,0,1,1-3.48-3A3.22,3.22,0,0,1,392.6,219.87Z" transform="translate(-325.85 -188.75)"/><path class="cls-27" d="M391.92,219.93a2.54,2.54,0,1,1-2.75-2.33A2.54,2.54,0,0,1,391.92,219.93Z" transform="translate(-325.85 -188.75)"/><path class="cls-28" d="M391.66,220a2.28,2.28,0,1,1-2.46-2.08A2.28,2.28,0,0,1,391.66,220Z" transform="translate(-325.85 -188.75)"/><path class="cls-29" d="M391,220a1.74,1.74,0,1,1-1.87-1.58A1.74,1.74,0,0,1,391,220Z" transform="translate(-325.85 -188.75)"/><path class="cls-21" d="M402.59,220a3.23,3.23,0,1,1-3.49-2.95A3.23,3.23,0,0,1,402.59,220Z" transform="translate(-325.85 -188.75)"/><path class="cls-3" d="M403,220a3.23,3.23,0,1,1-3.49-3A3.22,3.22,0,0,1,403,220Z" transform="translate(-325.85 -188.75)"/><path class="cls-27" d="M402.36,220a2.55,2.55,0,1,1-2.75-2.32A2.55,2.55,0,0,1,402.36,220Z" transform="translate(-325.85 -188.75)"/><path class="cls-28" d="M402.09,220.06a2.28,2.28,0,1,1-2.46-2.09A2.29,2.29,0,0,1,402.09,220.06Z" transform="translate(-325.85 -188.75)"/><path class="cls-29" d="M401.55,220.1a1.74,1.74,0,1,1-1.87-1.58A1.74,1.74,0,0,1,401.55,220.1Z" transform="translate(-325.85 -188.75)"/><path class="cls-21" d="M412.74,220.48a3.23,3.23,0,1,1-3.49-2.95A3.23,3.23,0,0,1,412.74,220.48Z" transform="translate(-325.85 -188.75)"/><path class="cls-3" d="M413.19,220.45a3.23,3.23,0,1,1-3.49-3A3.22,3.22,0,0,1,413.19,220.45Z" transform="translate(-325.85 -188.75)"/><path class="cls-27" d="M412.51,220.5a2.55,2.55,0,1,1-2.75-2.32A2.56,2.56,0,0,1,412.51,220.5Z" transform="translate(-325.85 -188.75)"/><path class="cls-28" d="M412.24,220.52a2.28,2.28,0,1,1-2.46-2.08A2.28,2.28,0,0,1,412.24,220.52Z" transform="translate(-325.85 -188.75)"/><path class="cls-29" d="M411.73,220.64a1.76,1.76,0,1,1-1.9-1.61A1.77,1.77,0,0,1,411.73,220.64Z" transform="translate(-325.85 -188.75)"/><path class="cls-21" d="M423.11,221.91a3.24,3.24,0,1,1-3.49-3A3.23,3.23,0,0,1,423.11,221.91Z" transform="translate(-325.85 -188.75)"/><path class="cls-3" d="M423.55,221.87a3.23,3.23,0,1,1-3.48-3A3.23,3.23,0,0,1,423.55,221.87Z" transform="translate(-325.85 -188.75)"/><path class="cls-27" d="M422.87,221.92a2.54,2.54,0,1,1-2.75-2.32A2.53,2.53,0,0,1,422.87,221.92Z" transform="translate(-325.85 -188.75)"/><path class="cls-28" d="M422.6,222a2.28,2.28,0,1,1-2.46-2.08A2.28,2.28,0,0,1,422.6,222Z" transform="translate(-325.85 -188.75)"/><path class="cls-29" d="M422.1,222a1.77,1.77,0,1,1-1.91-1.62A1.78,1.78,0,0,1,422.1,222Z" transform="translate(-325.85 -188.75)"/><path class="cls-30" d="M397.54,220.2l2.7,2.29a2.33,2.33,0,0,0,1-.44l-3.4-2.88A2.14,2.14,0,0,0,397.54,220.2Z" transform="translate(-325.85 -188.75)"/><path class="cls-30" d="M402.08,220.06a.78.78,0,0,0,0-.14l-2.3-1.94h-.14a2.18,2.18,0,0,0-.95.31l3.27,2.76A2.17,2.17,0,0,0,402.08,220.06Z" transform="translate(-325.85 -188.75)"/><path class="cls-30" d="M407.69,220.67l2.7,2.29a2.27,2.27,0,0,0,1-.44l-3.4-2.88A2.14,2.14,0,0,0,407.69,220.67Z" transform="translate(-325.85 -188.75)"/><path class="cls-30" d="M412.23,220.53c0-.05,0-.09,0-.14l-2.3-1.94h-.15a2.36,2.36,0,0,0-.95.3l3.27,2.77A2.17,2.17,0,0,0,412.23,220.53Z" transform="translate(-325.85 -188.75)"/><path class="cls-30" d="M418.05,222.09l2.71,2.29a2.26,2.26,0,0,0,1-.44l-3.41-2.88A2.39,2.39,0,0,0,418.05,222.09Z" transform="translate(-325.85 -188.75)"/><path class="cls-30" d="M422.6,222s0-.09,0-.14l-2.3-1.94h-.14a2.26,2.26,0,0,0-1,.31l3.28,2.77A2.38,2.38,0,0,0,422.6,222Z" transform="translate(-325.85 -188.75)"/><path class="cls-30" d="M387.11,220.09l2.7,2.29a2.27,2.27,0,0,0,1-.44l-3.4-2.88A2.25,2.25,0,0,0,387.11,220.09Z" transform="translate(-325.85 -188.75)"/><path class="cls-30" d="M391.66,220a.59.59,0,0,1,0-.14l-2.3-1.94h-.14a2.35,2.35,0,0,0-1,.3l3.27,2.77A2.32,2.32,0,0,0,391.66,220Z" transform="translate(-325.85 -188.75)"/><path class="cls-31" d="M362.93,207.45c1,.17,11.23,2.47,9.22,2.94s1.19,1.22,0,4.13-3.57,9.93-9.57,9.6-6-2.38-9,0-9.33-3.92-9.33-3.92S354.49,206,362.93,207.45Z" transform="translate(-325.85 -188.75)"/><path class="cls-3" d="M357,204.32s-1.16.87,1.57,2c2.14.89,9.57,3.5,11.92,4.18s2.19,3.51.86,5.93-3,6.7-6.95,7.6-22.49-4.5-21.18-9.6c0,0,3.16-2.28,5.17-4.05S352.12,206.32,357,204.32Z" transform="translate(-325.85 -188.75)"/><path class="cls-29" d="M345.72,218.06a42.08,42.08,0,0,0,10.21,4.11c3.39,1,7.62,2.23,10.66-.3a14.27,14.27,0,0,0,3.1-3.77,26.14,26.14,0,0,0,1.23-2.49c1.41-3.09.26-4.47-1.31-5s-7.35-2.49-10.74-3.78-2.92-2.07-1.76-2.6a19.8,19.8,0,0,0-7.2,4.65,72.8,72.8,0,0,1-6.73,5.53C343.15,216,344.29,217.18,345.72,218.06Z" transform="translate(-325.85 -188.75)"/><path class="cls-32" d="M350.28,217.63c10.7,4.9,14,2,15.91-1,3.1-4.95-2.63-5.67-9.63-7.75a6.17,6.17,0,0,1-3.7-2.38,25.78,25.78,0,0,0-2.51,2.13,59.68,59.68,0,0,1-5.23,4.35C345.59,214.48,347,216.1,350.28,217.63Z" transform="translate(-325.85 -188.75)"/><path class="cls-30" d="M353.46,206.16a23.84,23.84,0,0,0-3.37,2.73c-.41.39-.83.77-1.26,1.15a23.7,23.7,0,0,0-.09,9.61c1.38.62,2.82,1.16,4.26,1.64C351.22,216.12,352.11,210.5,353.46,206.16Z" transform="translate(-325.85 -188.75)"/><path class="cls-30" d="M363.75,208.65l-3.35-1.2c-1.28,4.74-1.84,10.68.81,15.88a8.2,8.2,0,0,0,3.66-.43C362.56,218.27,362.77,213.07,363.75,208.65Z" transform="translate(-325.85 -188.75)"/><path class="cls-33" d="M362.89,223.45a19.85,19.85,0,0,1-6.81-1.1l-.18,0a43.32,43.32,0,0,1-10.25-4.13c-3.28-2-2.47-3.73-2.47-3.73,0,1.32.92,2.47,2.61,3.5A41.58,41.58,0,0,0,356,222l.18.05c3.31.94,7.43,2.12,10.35-.32a14,14,0,0,0,3.07-3.74,23.61,23.61,0,0,0,1.18-2.36l.05-.12a4.27,4.27,0,0,0,.42-3.45,2.49,2.49,0,0,0-1.65-1.33c-1.65-.53-7.45-2.53-10.75-3.79-1.65-.63-2.53-1.19-2.67-1.72s.79-.93.79-.93-.68.34-.54.86c.09.3.59.81,2.52,1.54,3.29,1.26,9.09,3.26,10.73,3.78a2.78,2.78,0,0,1,1.81,1.48,4.57,4.57,0,0,1-.41,3.67l-.06.13a24,24,0,0,1-1.19,2.38,14.27,14.27,0,0,1-3.13,3.8A6.5,6.5,0,0,1,362.89,223.45Z" transform="translate(-325.85 -188.75)"/><path class="cls-34" d="M456,225.14h0l.11.07c1,.66,2.11,1.45,3.08,2.16h0l0,0h0l.15.11h0c.61.45,1.17.85,1.62,1.16s2.52,1.69,4.53,3.25h0l.19.15h0l.4.32h0l-.65-.51c-2-1.56-4-2.87-4.53-3.26s-1.11-.79-1.78-1.28c-1-.72-2.11-1.54-3.15-2.21Z" transform="translate(-325.85 -188.75)"/><path class="cls-17" d="M455,224.52v0c.32.18.66.39,1,.61h0c-.35-.23-.69-.44-1-.62Z" transform="translate(-325.85 -188.75)"/><path class="cls-11" d="M435.66,221.42a2.5,2.5,0,0,0-.44.07h.17l.27,0h0a15.88,15.88,0,0,1,3,.22c2.15.41,7.92,1.18,10.1,1.45a34.56,34.56,0,0,1,4.6.73,5.48,5.48,0,0,1,1.17.47h0a5.41,5.41,0,0,0-1.2-.5,35.56,35.56,0,0,0-4.59-.72c-2.18-.27-7.95-1-10.1-1.45a15.77,15.77,0,0,0-3-.22Z" transform="translate(-325.85 -188.75)"/><path class="cls-16" d="M454.57,224.3h0l.42.23v0l-.42-.22Z" transform="translate(-325.85 -188.75)"/><path class="cls-35" d="M435.22,221.49l-.26.08h.11l.32-.08Z" transform="translate(-325.85 -188.75)"/><path class="cls-36" d="M465.15,232l.52.2-.23-.17-.29,0Z" transform="translate(-325.85 -188.75)"/><path class="cls-36" d="M465.15,232h0l.29,0,.23.17.43.18-.4-.32-.24,0-.31,0Zm.35-.1h0Z" transform="translate(-325.85 -188.75)"/><path class="cls-17" d="M435.67,221.58a2.56,2.56,0,0,0-.73.17,1.12,1.12,0,0,0-.55.41.62.62,0,0,0-.1.41,1.49,1.49,0,0,0,.35.75,5.85,5.85,0,0,0,1.12,1.05,26.78,26.78,0,0,0,4.26,2.47c1.16.09,2.4.2,3.72.34a80.94,80.94,0,0,1,15.16.17c-.92-.67-1.93-1.41-2.87-2a10.15,10.15,0,0,0-2.67-1.36,33.31,33.31,0,0,0-4.58-.72c-2.18-.28-7.95-1.05-10.1-1.45a14.83,14.83,0,0,0-3-.22Z" transform="translate(-325.85 -188.75)"/><path class="cls-17" d="M459.2,227.4l.15.11h0l-.15-.11Zm-23.53-6h0l-.27,0-.32.08.67,0h0c-1.34.11-3.83,1.36,4.11,5.29H440a26.78,26.78,0,0,1-4.26-2.47,5.85,5.85,0,0,1-1.12-1.05,1.49,1.49,0,0,1-.35-.75.62.62,0,0,1,.1-.41,1.12,1.12,0,0,1,.55-.41,2.56,2.56,0,0,1,.73-.17h.05a14.83,14.83,0,0,1,3,.22c2.15.4,7.92,1.17,10.1,1.45a33.31,33.31,0,0,1,4.58.72,10.15,10.15,0,0,1,2.67,1.36c.94.61,2,1.35,2.87,2l.24,0h0c-1-.71-2.06-1.5-3.08-2.16l-.11-.07c-.34-.22-.68-.43-1-.61l-.42-.23a5.48,5.48,0,0,0-1.17-.47,34.56,34.56,0,0,0-4.6-.73c-2.18-.27-7.95-1-10.1-1.45a15.88,15.88,0,0,0-3-.22h0Z" transform="translate(-325.85 -188.75)"/><path class="cls-37" d="M444.5,227.26a86.64,86.64,0,0,1,20.21,4.6l.54,0c-1.94-1.5-3.8-2.74-4.35-3.12s-1.1-.78-1.76-1.26h0a78,78,0,0,0-14.62-.26Z" transform="translate(-325.85 -188.75)"/><path class="cls-37" d="M465.47,232v0Zm0-.07Zm-21.74-4.74.76.08a78,78,0,0,1,14.62.26h0c.66.48,1.26.93,1.76,1.26s2.41,1.62,4.35,3.12l-.54,0,.44.16.31,0,.24,0h0l-.19-.15h0c-2-1.56-4-2.86-4.53-3.25s-1-.71-1.62-1.16l-.15-.11h0l0,0h0l-.24,0a80.94,80.94,0,0,0-15.16-.17Z" transform="translate(-325.85 -188.75)"/><path class="cls-38" d="M434.75,221.66A7.57,7.57,0,0,0,433,222a2.56,2.56,0,0,0-1.19.68,1,1,0,0,0-.26.69v.09a2.4,2.4,0,0,0,.73,1.28,12,12,0,0,0,1.84,1.51,50.61,50.61,0,0,0,5.69,3.29v0a2.6,2.6,0,0,1,.14-1.09,1.58,1.58,0,0,1,1-1c-1.28-.6-2.33-1.14-3.19-1.63-4.38-2.46-4-3.69-3-4.16Z" transform="translate(-325.85 -188.75)"/><path class="cls-35" d="M437.75,225.82c.86.49,1.91,1,3.19,1.63h0l-.06,0h0l-1.24-.59h0c-.72-.36-1.35-.69-1.9-1Zm-3-4.24c-1.75.15-3.3.64-3.31,1.77,0,1.58,3.86,4,8.33,6.24v-.07a50.61,50.61,0,0,1-5.69-3.29,12,12,0,0,1-1.84-1.51,2.4,2.4,0,0,1-.73-1.28v-.09a1,1,0,0,1,.26-.69A2.56,2.56,0,0,1,433,222a7.57,7.57,0,0,1,1.75-.32l.21-.09Z" transform="translate(-325.85 -188.75)"/><path class="cls-39" d="M441.12,227.54a1.43,1.43,0,0,0-1.05.91,2.27,2.27,0,0,0-.13,1c0,.05,0,.09,0,.11,2.9,1.48,6.05,2.92,8.56,4.08a11.72,11.72,0,0,1-1.31-3.11c-2-1-4-2.07-6.05-3Z" transform="translate(-325.85 -188.75)"/><path class="cls-35" d="M441,227.44h0a1.58,1.58,0,0,0-1,1,2.6,2.6,0,0,0-.14,1.09v.1l.08,0c2.94,1.51,6.15,3,8.67,4.14l-.05-.1c-2.51-1.16-5.66-2.6-8.56-4.08,0,0,0-.06,0-.11a2.27,2.27,0,0,1,.13-1,1.43,1.43,0,0,1,1.05-.91h0c2,.94,4.05,2,6.05,3v0c-2-1-4-2.08-6.07-3h0l-.16-.08Z" transform="translate(-325.85 -188.75)"/><path class="cls-17" d="M439.66,226.82l1.24.59H441c-.43-.19-.83-.39-1.2-.57Z" transform="translate(-325.85 -188.75)"/><path class="cls-37" d="M441,227.4h-.11l.06,0,.16.08h0c2,.94,4.07,2,6.07,3v-.07c-2-1-4-2.05-6-3l0,0-.12-.06Z" transform="translate(-325.85 -188.75)"/><path class="cls-40" d="M434.79,221.65h0c-1,.47-1.38,1.7,3,4.16a13.26,13.26,0,0,1-2.92-2.07l-.3-.34a1.67,1.67,0,0,1-.38-.83.83.83,0,0,1,.13-.5,1.1,1.1,0,0,1,.37-.34l.18-.09Z" transform="translate(-325.85 -188.75)"/><path class="cls-41" d="M434.83,223.75a13.26,13.26,0,0,0,2.92,2.07c.55.31,1.18.64,1.9,1h0a19.17,19.17,0,0,1-4.83-3.07Zm.13-2.18-.21.09h.08l.24-.09Z" transform="translate(-325.85 -188.75)"/><path class="cls-42" d="M435.07,221.56l-.24.09-.18.09a1.1,1.1,0,0,0-.37.34.83.83,0,0,0-.13.5,1.67,1.67,0,0,0,.38.83l.3.34a19.17,19.17,0,0,0,4.83,3.07h.15c-7.94-3.93-5.45-5.18-4.11-5.29h0l-.67,0Z" transform="translate(-325.85 -188.75)"/><path class="cls-43" d="M390.33,236.38c.91.68,2,1.46,3.34,2.37l.55,0,.87,0-2.95-1.45-.12,0h0l-1.69-.83Z" transform="translate(-325.85 -188.75)"/><path class="cls-44" d="M393.67,238.75l.44.3c2.6,1.74-.6.57-2.69,2.72a2,2,0,0,1,.71-.25h.11a2,2,0,0,1,.42,0h0c.69,0,1.54,0,2.48-.06,0-.05,0-.1,0-.16a4.65,4.65,0,0,0,.17-1.86,5.57,5.57,0,0,0-.08-.63l-.21-.1-.87,0-.55,0Z" transform="translate(-325.85 -188.75)"/><path class="cls-19" d="M390.89,254.61a2.44,2.44,0,0,0,2.38,1.94c.4,0,.67,1.1.67,1.1a101.43,101.43,0,0,0,16.16-3.27c7-2.06,9.3-3.76,6.91-8.74s-6.71-4.76-9.24-4.73-11.25.65-15.09.68c0,0-2.48,10.7-1.79,13Z" transform="translate(-325.85 -188.75)"/><path class="cls-20" d="M390.89,254.61h-.07a2.51,2.51,0,0,0,.42.95,2.54,2.54,0,0,0,2,1,.34.34,0,0,1,.11.05,1,1,0,0,1,.2.23,2.75,2.75,0,0,1,.21.51,1.3,1.3,0,0,1,.06.19.24.24,0,0,1,0,.08l0,.05H394a103.06,103.06,0,0,0,16.17-3.28,22.25,22.25,0,0,0,6.05-2.46,4.35,4.35,0,0,0,1.44-1.54,3.37,3.37,0,0,0,.36-1.94,8.5,8.5,0,0,0-.9-2.89,7.7,7.7,0,0,0-4.61-4.28,14,14,0,0,0-4.69-.48c-1.28,0-4.09.17-7.06.34s-6.12.32-8,.33h-.06v0s-.54,2.33-1,5c-.26,1.36-.5,2.82-.66,4.13a17.06,17.06,0,0,0-.19,3.29,3.12,3.12,0,0,0,.1.6l.07,0h0l.06,0a2.66,2.66,0,0,1-.1-.58,17.58,17.58,0,0,1,.19-3.25c.25-2,.67-4.26,1-6.06.18-.89.35-1.67.47-2.22.06-.27.11-.49.14-.64l.05-.24h-.06v.07c1.92,0,5.06-.18,8-.34s5.79-.32,7.06-.34a13.64,13.64,0,0,1,4.65.48,7.56,7.56,0,0,1,4.53,4.21,8.36,8.36,0,0,1,.89,2.84,3.3,3.3,0,0,1-.35,1.87,5.37,5.37,0,0,1-2.5,2.13,30.6,30.6,0,0,1-4.91,1.81,102.29,102.29,0,0,1-16.15,3.26v.07l.06,0a3.51,3.51,0,0,0-.18-.55,1.64,1.64,0,0,0-.22-.39.4.4,0,0,0-.15-.14.28.28,0,0,0-.17-.07,2.38,2.38,0,0,1-1.93-1,2.45,2.45,0,0,1-.32-.62,1.36,1.36,0,0,1-.06-.2.11.11,0,0,1,0,0v0h0l-.06,0Z" transform="translate(-325.85 -188.75)"/><path class="cls-21" d="M392.19,249.3c-.29-.29-.68-.74-1.12-1.26-.65,2.91.7,4.45,1,5.55,0,0-1.21,1.94.89,2.07.4,0,1.73,1.93,1.73,1.93a93.45,93.45,0,0,0,15.4-3.09c5.36-1.59,8-2.95,7.81-5.77-3.12,1.66-9.78,2.57-15.25,3.45-7.81,1.27-8.27-.6-10.48-2.88Z" transform="translate(-325.85 -188.75)"/><path class="cls-20" d="M392.19,249.3l0-.05c-.28-.29-.67-.73-1.11-1.25l-.08-.1,0,.13a6.45,6.45,0,0,0-.16,2,6.75,6.75,0,0,0,.55,2.1c.25.58.51,1.05.63,1.44l.06,0,0,0a2.48,2.48,0,0,0-.2.4,2,2,0,0,0-.16.84.91.91,0,0,0,.31.62,1.62,1.62,0,0,0,1,.31.38.38,0,0,1,.16.08,3.56,3.56,0,0,1,.45.44c.25.28.52.63.72.9s.19.26.25.35a1,1,0,0,1,.1.13l0,0h0a92.36,92.36,0,0,0,15.42-3.1,22.47,22.47,0,0,0,6-2.43,4.57,4.57,0,0,0,1.45-1.5,3.35,3.35,0,0,0,.41-1.9v-.1l-.1,0a26.37,26.37,0,0,1-6.73,2c-2.73.55-5.77,1-8.5,1.44-1,.16-1.88.27-2.66.33-2.64.22-4.1-.08-5.13-.69a13.12,13.12,0,0,1-2.64-2.51l0,.05-.05,0a12.9,12.9,0,0,0,2.66,2.54c1.07.62,2.56.93,5.21.71.78-.07,1.67-.18,2.67-.34,2.73-.44,5.77-.89,8.51-1.43a27,27,0,0,0,6.77-2l0-.06h-.06a3.22,3.22,0,0,1-.39,1.82,5.62,5.62,0,0,1-2.52,2.1,30.82,30.82,0,0,1-4.86,1.78,93,93,0,0,1-15.39,3.08v.07l.05,0s-.33-.48-.71-1c-.2-.24-.4-.48-.59-.67a2.51,2.51,0,0,0-.25-.23.39.39,0,0,0-.23-.1,1.58,1.58,0,0,1-.9-.28.73.73,0,0,1-.26-.53A1.56,1.56,0,0,1,392,254a2.57,2.57,0,0,1,.12-.27l0-.08,0,0h0l0,0v0c-.13-.41-.39-.88-.63-1.45a6.37,6.37,0,0,1-.55-2.06,6.51,6.51,0,0,1,.16-2l-.07,0-.05.05c.44.52.83,1,1.12,1.25l.05,0Z" transform="translate(-325.85 -188.75)"/><path class="cls-45" d="M397.11,249.09c.62,4.44-.6,8.27-2.72,8.57s-4.35-3.06-5-7.5.6-8.27,2.72-8.57,4.35,3.06,5,7.5Z" transform="translate(-325.85 -188.75)"/><path class="cls-45" d="M397.11,249.09H397c0,.31.08.63.1.94a12.44,12.44,0,0,1-.54,5.19,4.91,4.91,0,0,1-.94,1.64,2.12,2.12,0,0,1-1.28.72l-.11,0a2.31,2.31,0,0,1-1.51-.48,6.87,6.87,0,0,1-2-2.66,15.15,15.15,0,0,1-1.25-4.32c0-.31-.07-.63-.1-.94a12.61,12.61,0,0,1,.54-5.19,4.76,4.76,0,0,1,.95-1.64,2.07,2.07,0,0,1,1.28-.72h.1a2.25,2.25,0,0,1,1.51.47,6.78,6.78,0,0,1,2,2.66A14.84,14.84,0,0,1,397,249.1h.13a13.75,13.75,0,0,0-1.88-5.48,5.81,5.81,0,0,0-1.45-1.59,2.48,2.48,0,0,0-1.6-.5h-.11a2.3,2.3,0,0,0-1.36.77,6.09,6.09,0,0,0-1.3,2.8,14.08,14.08,0,0,0-.22,4.13c0,.32.06.63.1.95a13.86,13.86,0,0,0,1.89,5.49,5.6,5.6,0,0,0,1.45,1.58,2.4,2.4,0,0,0,1.6.5h.1a2.34,2.34,0,0,0,1.37-.76,6.23,6.23,0,0,0,1.29-2.81,14.06,14.06,0,0,0,.23-4.13c0-.32-.06-.63-.11-.95Z" transform="translate(-325.85 -188.75)"/><path class="cls-46" d="M396.7,249.2c.62,4.39-.59,8.19-2.69,8.48s-4.3-3-4.91-7.41.59-8.19,2.69-8.48,4.3,3,4.91,7.41Z" transform="translate(-325.85 -188.75)"/><path class="cls-47" d="M396.7,249.2h-.06c0,.32.07.63.1.93a12.36,12.36,0,0,1-.54,5.14,4.73,4.73,0,0,1-.93,1.62,2.17,2.17,0,0,1-1.27.72h-.1a2.29,2.29,0,0,1-1.49-.47,6.78,6.78,0,0,1-2-2.63,14.59,14.59,0,0,1-1.23-4.27c-.05-.32-.08-.63-.11-.93a12.51,12.51,0,0,1,.54-5.14,4.9,4.9,0,0,1,.93-1.62,2.15,2.15,0,0,1,1.27-.72h.1a2.29,2.29,0,0,1,1.49.47,6.7,6.7,0,0,1,2,2.63,14.9,14.9,0,0,1,1.24,4.27h.13a13.56,13.56,0,0,0-1.87-5.42,5.5,5.5,0,0,0-1.43-1.57,2.36,2.36,0,0,0-1.58-.49h-.11a2.28,2.28,0,0,0-1.34.75,6.05,6.05,0,0,0-1.29,2.78,13.81,13.81,0,0,0-.22,4.09c0,.3.06.62.1.94a13.56,13.56,0,0,0,1.87,5.42,5.65,5.65,0,0,0,1.43,1.57,2.36,2.36,0,0,0,1.58.49H394a2.26,2.26,0,0,0,1.35-.76,6.06,6.06,0,0,0,1.28-2.77,13.81,13.81,0,0,0,.22-4.09c0-.31-.06-.62-.1-.94Z" transform="translate(-325.85 -188.75)"/><path class="cls-48" d="M391.74,242.66l.18,0H392c1.85-.16,3.78,2.79,4.34,6.65s-.5,7.32-2.37,7.58h-.3c1.82-.15,3-3.77,2.43-7.53s-2.49-6.81-4.31-6.66Zm.34-.61H392c-1.88.26-2.92,3.91-2.33,8.14s2.53,7.35,4.38,7.19h.09c1.87-.26,2.92-3.9,2.32-8.13s-2.53-7.35-4.38-7.2Z" transform="translate(-325.85 -188.75)"/><path class="cls-49" d="M392,242.62h-.08l-.18,0h.05c1.82-.15,3.79,3,4.31,6.66s-.61,7.38-2.43,7.53h.3c1.87-.26,2.94-3.65,2.37-7.58s-2.49-6.81-4.34-6.65Z" transform="translate(-325.85 -188.75)"/><path class="cls-50" d="M393.09,243.51h-.22c-1.26.18-1.92,3-1.46,6.25s1.86,5.8,3.12,5.62a1.23,1.23,0,0,0,.83-.6,11.3,11.3,0,0,0,.38-5.4C395.35,246.6,394.28,244.32,393.09,243.51Z" transform="translate(-325.85 -188.75)"/><path d="M393.09,243.51v-.07h-.24a1.32,1.32,0,0,0-.81.53,4.75,4.75,0,0,0-.72,2,12.38,12.38,0,0,0-.08,3c0,.28.06.57.1.86a12.2,12.2,0,0,0,1.24,4.09,4.42,4.42,0,0,0,.9,1.2,1.38,1.38,0,0,0,1,.39h.06a1.26,1.26,0,0,0,.87-.62h0a10.57,10.57,0,0,0,.49-4.57c0-.29-.06-.57-.1-.87a13.74,13.74,0,0,0-1-3.69,5.42,5.42,0,0,0-1.65-2.23h0v.07l0,.05a5.48,5.48,0,0,1,1.6,2.17,13.89,13.89,0,0,1,1,3.66c0,.29.07.58.09.86a10.6,10.6,0,0,1-.47,4.51l.06,0-.06,0a1.14,1.14,0,0,1-.78.57h0a1.21,1.21,0,0,1-.89-.37,5.24,5.24,0,0,1-1.26-2,13.63,13.63,0,0,1-.84-3.21c0-.3-.07-.58-.1-.86a10.59,10.59,0,0,1,.26-3.7,3.42,3.42,0,0,1,.52-1.15,1.09,1.09,0,0,1,.72-.47h.21v-.06l0,.05Z" transform="translate(-325.85 -188.75)"/><path class="cls-45" d="M393.87,249.53a9.73,9.73,0,0,0,1.87-.15,13.73,13.73,0,0,0-.82-3.2s-.54,1.53-1.07,3.33Z" transform="translate(-325.85 -188.75)"/><path class="cls-45" d="M393.87,249.53v.07c.4,0,.8,0,1.16,0a6.46,6.46,0,0,0,.73-.1h.06v-.07a14.41,14.41,0,0,0-.83-3.22l-.07-.17-.06.18h0s-.54,1.54-1.06,3.33v0l0,0,0,0h0v-.07l.05,0,0,0,0,0,.06,0c.27-.9.53-1.73.74-2.34.1-.3.18-.55.24-.72l.07-.2a.43.43,0,0,1,0-.05v0l-.06,0-.07,0a14,14,0,0,1,.83,3.19h.06v-.06a5.94,5.94,0,0,1-.71.09c-.35,0-.75.05-1.15.05v.07l.05,0Z" transform="translate(-325.85 -188.75)"/><polygon class="cls-50" points="67.99 60.78 67.99 60.78 67.98 60.78 67.99 60.78"/><polygon points="67.99 60.78 68.05 60.81 68.05 60.8 68.08 60.71 67.99 60.71 67.91 60.71 67.92 60.8 68.05 60.81 67.99 60.78 68.05 60.77 68.05 60.76 67.98 60.78 67.98 60.84 67.99 60.84 67.99 60.78 67.92 60.76 67.92 60.77 67.99 60.78 68.05 60.77 67.99 60.78"/><polygon class="cls-50" points="67.99 60.78 68.01 60.77 68 60.75 67.99 60.78"/><polygon points="67.99 60.78 67.99 60.84 68.01 60.84 68.15 60.84 67.97 60.6 67.9 60.84 67.99 60.84 67.99 60.78 68.05 60.79 68.06 60.77 68 60.75 67.94 60.79 67.96 60.82 68.01 60.77 68.01 60.71 67.99 60.71 67.99 60.78 68.05 60.79 67.99 60.78"/><path class="cls-50" d="M393.83,249.48v.05h0v0Z" transform="translate(-325.85 -188.75)"/><path d="M393.83,249.48h-.07v.11h.11l0-.07v0l0-.05-.12.05h.07l-.05,0,0,0,.05,0-.06,0v0l.06,0v-.07h0v.07h.06v-.05h-.07l-.05,0Z" transform="translate(-325.85 -188.75)"/><path class="cls-45" d="M393.84,249.53h0c.34,2.05.67,4.23.81,5.81a1.27,1.27,0,0,0,.71-.57,8.66,8.66,0,0,0,.51-2.58c-.19-.27-1.07-1.44-2-2.67Z" transform="translate(-325.85 -188.75)"/><path class="cls-45" d="M393.84,249.53l-.06,0h0v0h0c.34,2,.67,4.23.81,5.81v.08l.08,0a1.36,1.36,0,0,0,.74-.6h0a8.63,8.63,0,0,0,.51-2.61v0c-.19-.27-1.07-1.44-2-2.67l0,0h-.11v0l.06,0v.07h0v-.07l-.06,0c.94,1.23,1.82,2.41,2,2.67l.06,0h-.07a8.61,8.61,0,0,1-.5,2.56l.06,0-.06,0a1.24,1.24,0,0,1-.67.55l0,.06h.06c-.14-1.59-.46-3.77-.8-5.82h-.07l.06,0h0l-.07,0v0Z" transform="translate(-325.85 -188.75)"/><path class="cls-45" d="M392.75,243.53h0c-.7.2-1.19,1.23-1.39,2.7,0,0,1.28,1.67,2.47,3.25C393.31,246.36,392.75,243.53,392.75,243.53Z" transform="translate(-325.85 -188.75)"/><path class="cls-45" d="M392.75,243.53v-.06a1.59,1.59,0,0,0-.93.9,6,6,0,0,0-.52,1.85v0l0,0,2.47,3.25.12-.05c-.52-3.13-1.08-5.95-1.08-5.95v-.07l-.07,0v.06l-.06,0,.09.49c.18.93.59,3.11,1,5.45h.07l.05,0-2.47-3.26-.05,0h.07a6,6,0,0,1,.5-1.81,1.5,1.5,0,0,1,.84-.83l0-.07-.06,0Z" transform="translate(-325.85 -188.75)"/><path class="cls-45" d="M393.84,249.53c-1.23,0-2.47-.07-2.47-.07s0,.2,0,.3a11.75,11.75,0,0,0,1.41,4.36,26.4,26.4,0,0,1,1-4.58Z" transform="translate(-325.85 -188.75)"/><path class="cls-45" d="M393.84,249.53v-.07c-.62,0-1.23,0-1.69,0l-.56,0h-.29v.08c0,.1,0,.2,0,.3a11.68,11.68,0,0,0,1.41,4.38l.11.18,0-.21a24.68,24.68,0,0,1,1-4.56v-.1h-.06v.07h0l-.06,0a25.61,25.61,0,0,0-1,4.6h.07l.06,0a11.47,11.47,0,0,1-1.4-4.32c0-.11,0-.21,0-.31h-.07v.06s1.24.09,2.47.08v-.07h0Z" transform="translate(-325.85 -188.75)"/><path class="cls-51" d="M393.83,249.48l0,0c.53-1.8,1.06-3.33,1.07-3.33a5.89,5.89,0,0,0-1.83-2.67h-.22l-.12,0S393.31,246.36,393.83,249.48Z" transform="translate(-325.85 -188.75)"/><path class="cls-47" d="M393.83,249.48l-.05,0,0,0,.08.11,0-.13c.27-.9.53-1.73.74-2.34.1-.3.18-.55.24-.72l.07-.2a.43.43,0,0,1,0-.05v-.07a5.92,5.92,0,0,0-1.85-2.7h-.27l-.12,0-.06,0v.06l.09.49c.18.93.59,3.11,1,5.45v0h0l.05,0h.07c-.52-3.13-1.08-5.95-1.08-5.95h-.07l0,.07.11,0h.21v-.06l0,.05a5.88,5.88,0,0,1,1.79,2.64l.07,0-.07,0h0s-.54,1.54-1.06,3.33l.06,0,0,0,0,0-.05,0h0Z" transform="translate(-325.85 -188.75)"/><path class="cls-51" d="M393.84,249.53v-.05c-1.19-1.58-2.46-3.24-2.47-3.25a13.42,13.42,0,0,0,0,3.23S392.61,249.54,393.84,249.53Z" transform="translate(-325.85 -188.75)"/><path class="cls-47" d="M393.84,249.53h.06v-.07h0l-2.47-3.26-.09-.12,0,.16a13.2,13.2,0,0,0,0,2.69c0,.18,0,.37.06.56v.05h.06s1.24.09,2.47.08h.08l0-.07h-.06v-.07c-.62,0-1.23,0-1.69,0l-.56,0h-.21v.07h.07l-.06-.55a12.18,12.18,0,0,1,.05-2.66h-.07l-.05,0,2.47,3.25.05,0h-.07v0h.07v0Z" transform="translate(-325.85 -188.75)"/><path class="cls-51" d="M393.87,249.53c.93,1.23,1.81,2.4,2,2.67a14.47,14.47,0,0,0-.13-2.82A9.73,9.73,0,0,1,393.87,249.53Z" transform="translate(-325.85 -188.75)"/><path class="cls-47" d="M393.87,249.53l-.06,0c.94,1.23,1.82,2.41,2,2.67l.11.16v-.2a13.09,13.09,0,0,0,0-2c0-.28,0-.57-.09-.86v-.07l-.07,0a5.94,5.94,0,0,1-.71.09c-.35,0-.75.05-1.15.05h-.14l.08.11.06,0v.07c.4,0,.8,0,1.16,0a6.46,6.46,0,0,0,.73-.1l0-.07h-.06c0,.29.07.57.09.85a13,13,0,0,1,0,2h.07l.05,0c-.19-.27-1.07-1.44-2-2.67l-.05,0v0Z" transform="translate(-325.85 -188.75)"/><path class="cls-51" d="M392.82,254.12c.53.86,1.13,1.34,1.71,1.26a.53.53,0,0,0,.12,0c-.14-1.58-.47-3.76-.81-5.81A26.4,26.4,0,0,0,392.82,254.12Z" transform="translate(-325.85 -188.75)"/><path class="cls-47" d="M392.82,254.12l-.06,0a3.68,3.68,0,0,0,.83,1,1.28,1.28,0,0,0,.89.31h.06l.13,0,.05,0v-.05c-.14-1.59-.46-3.77-.8-5.82h-.13a25.61,25.61,0,0,0-1,4.6v0h0l.06,0h.07a24.68,24.68,0,0,1,1-4.56l-.07,0h-.07c.34,2,.67,4.23.81,5.81h.07l0-.06-.11,0h0a1.18,1.18,0,0,1-.8-.29,3.4,3.4,0,0,1-.79-.95l-.06,0h0Z" transform="translate(-325.85 -188.75)"/><path class="cls-52" d="M394.53,255.38c-1.26.18-2.66-2.34-3.12-5.62s.2-6.07,1.46-6.25h.22a1.56,1.56,0,0,0-1.1-.32c-1.56.22-2.41,3.35-1.9,7s2.18,6.41,3.75,6.19c.64-.08,1.16-.67,1.52-1.58A1.23,1.23,0,0,1,394.53,255.38Z" transform="translate(-325.85 -188.75)"/><path class="cls-45" d="M394.53,255.38v-.07h0a1.21,1.21,0,0,1-.89-.37,5.24,5.24,0,0,1-1.26-2,13.63,13.63,0,0,1-.84-3.21c0-.3-.07-.58-.1-.86a10.59,10.59,0,0,1,.26-3.7,3.42,3.42,0,0,1,.52-1.15,1.09,1.09,0,0,1,.72-.47h.21l0-.12a1.65,1.65,0,0,0-1.07-.33H392a1.57,1.57,0,0,0-1,.6,5,5,0,0,0-.93,2.26,12.73,12.73,0,0,0-.14,3.33c0,.28.06.57.1.86a12.45,12.45,0,0,0,1.46,4.52,4.57,4.57,0,0,0,1.09,1.31,1.73,1.73,0,0,0,1.2.43h.08a1.55,1.55,0,0,0,.9-.5,3.37,3.37,0,0,0,.67-1.12l-.12-.07a1.14,1.14,0,0,1-.78.57v.13a1.26,1.26,0,0,0,.87-.62l-.05,0-.06,0a3.48,3.48,0,0,1-.64,1.07,1.39,1.39,0,0,1-.83.47h-.07a1.61,1.61,0,0,1-1.11-.4,5.79,5.79,0,0,1-1.52-2.19,13.74,13.74,0,0,1-1-3.56c0-.28-.07-.57-.09-.85a11,11,0,0,1,.36-4.18,3.74,3.74,0,0,1,.67-1.31,1.47,1.47,0,0,1,.91-.56h.07a1.5,1.5,0,0,1,1,.31l0-.05v-.07h-.24a1.32,1.32,0,0,0-.81.53,4.75,4.75,0,0,0-.72,2,12.38,12.38,0,0,0-.08,3c0,.28.06.57.1.86a12.2,12.2,0,0,0,1.24,4.09,4.42,4.42,0,0,0,.9,1.2,1.38,1.38,0,0,0,1,.39h.06Z" transform="translate(-325.85 -188.75)"/><path class="cls-53" d="M390.67,249.91c-.44-3.12.12-5.85,1.28-6.71-1.53.27-2.37,3.37-1.86,7s2.18,6.41,3.75,6.19a1.27,1.27,0,0,0,.62-.27h0C392.85,256.32,391.18,253.55,390.67,249.91Z" transform="translate(-325.85 -188.75)"/><path class="cls-47" d="M391.47,250.12l1.62-.13-.73,3.26A14.36,14.36,0,0,1,391.47,250.12Z" transform="translate(-325.85 -188.75)"/><path class="cls-47" d="M392.4,243.71l.69,3.9-1.65-1.85A3.53,3.53,0,0,1,392.4,243.71Z" transform="translate(-325.85 -188.75)"/><path class="cls-47" d="M395.24,246.86l-.93,2.24,1.41-.24A16.8,16.8,0,0,0,395.24,246.86Z" transform="translate(-325.85 -188.75)"/><path class="cls-47" d="M395.89,252.83l-1.44-2.1.63,4.38S395.59,255,395.89,252.83Z" transform="translate(-325.85 -188.75)"/><path class="cls-54" d="M393.31,244.39l.61,3.41.59-1.77A3.47,3.47,0,0,0,393.31,244.39Z" transform="translate(-325.85 -188.75)"/><path class="cls-54" d="M391.67,247.31l1.55,1.88-1.51-.16A1.86,1.86,0,0,1,391.67,247.31Z" transform="translate(-325.85 -188.75)"/><path class="cls-54" d="M393.73,251l-.48,2.93s.17.91.93.9Z" transform="translate(-325.85 -188.75)"/><path class="cls-54" d="M394.37,249.78h1.08s.47,1,.11,1.36Z" transform="translate(-325.85 -188.75)"/><path class="cls-38" d="M393.87,241.63a12.92,12.92,0,0,1,5.75,9.58c0,.44.05.86,0,1.27l.34,0c.78-.06,1.66-.17,2.66-.33,2.73-.45,5.77-.89,8.5-1.44a30.92,30.92,0,0,0,6-1.66,55,55,0,0,1-6.33-2.6h0l-.05,0-.06,0h0c-1.69-.81-3.68-1.79-5.81-2.83-.86.12-1.71.22-2.53.28-1.4.12-2.68.16-3.61.15a6.57,6.57,0,0,1-2-.28,2.19,2.19,0,0,1-.55-.3,6.3,6.3,0,0,1-.79-.61,1,1,0,0,1-.33-.65,1.72,1.72,0,0,1,.06-.53l-1.26,0Z" transform="translate(-325.85 -188.75)"/><path class="cls-35" d="M393.85,241.62h0l1.26,0h0l-1.28,0Z" transform="translate(-325.85 -188.75)"/><path class="cls-55" d="M417.35,249.09a31.42,31.42,0,0,1-6.16,1.73c-2.74.54-5.78,1-8.51,1.43-1,.16-1.89.27-2.67.34h0l-.36,0a9.45,9.45,0,0,1-1.22,4.42c2.3-.36,5-.88,7.71-1.54,1.27-.31,2.53-.64,3.73-1l.22-.06a30.82,30.82,0,0,0,4.86-1.78,5.62,5.62,0,0,0,2.52-2.1,3,3,0,0,0,.38-1.3l-.5-.17Z" transform="translate(-325.85 -188.75)"/><path class="cls-35" d="M406.14,255.49c-2.72.66-5.41,1.18-7.71,1.54l0,.05c2.35-.4,5.07-.94,7.74-1.59Zm11.71-6.23a3,3,0,0,1-.38,1.3,5.62,5.62,0,0,1-2.52,2.1,30.82,30.82,0,0,1-4.86,1.78l-.22.06.23-.07c5-1.46,7.58-2.75,7.81-5.16Zm-.69-.24a30.92,30.92,0,0,1-6,1.66c-2.73.55-5.77,1-8.5,1.44-1,.16-1.88.27-2.66.33l-.34,0a.57.57,0,0,1,0,.13l.36,0h0c.78-.07,1.67-.18,2.67-.34,2.73-.44,5.77-.89,8.51-1.43a31.42,31.42,0,0,0,6.16-1.73l-.19-.07Z" transform="translate(-325.85 -188.75)"/><path class="cls-56" d="M394.82,234.52c-2.71,1.12.49,4,.49,4a5.9,5.9,0,0,1,0,2.79c-.37,1.08,0,1.31,1,2s.69-5.35.69-5.35-.06-4.3-2.11-3.46Z" transform="translate(-325.85 -188.75)"/><path class="cls-20" d="M394.82,234.52l0-.06a1.86,1.86,0,0,0-.91.68,1.28,1.28,0,0,0-.21.86,3.61,3.61,0,0,0,.84,1.76,9.61,9.61,0,0,0,.76.83l0-.05h-.06a.42.42,0,0,0,0,.07,5.76,5.76,0,0,1,.12.82,4.65,4.65,0,0,1-.17,1.86,2.12,2.12,0,0,0-.14.82,1,1,0,0,0,.33.65,6.45,6.45,0,0,0,.8.62.44.44,0,0,0,.21.07.32.32,0,0,0,.18-.1,1,1,0,0,0,.21-.44,8,8,0,0,0,.19-1.34c.1-1.57,0-3.6,0-3.6h0s0-.21,0-.53a7.38,7.38,0,0,0-.39-2,2.42,2.42,0,0,0-.51-.84,1,1,0,0,0-.83-.3,1.57,1.57,0,0,0-.44.11l0,.06,0,.06a1.37,1.37,0,0,1,.4-.1.89.89,0,0,1,.72.27,2.81,2.81,0,0,1,.64,1.28,8.92,8.92,0,0,1,.23,1.43c0,.16,0,.29,0,.38V238h0s0,.08,0,.23c0,.51.06,1.78,0,2.94a11.29,11.29,0,0,1-.16,1.52,1.7,1.7,0,0,1-.15.48.41.41,0,0,1-.09.12.1.1,0,0,1-.08,0,.24.24,0,0,1-.12,0,5.8,5.8,0,0,1-.79-.61.85.85,0,0,1-.29-.56,2,2,0,0,1,.14-.76,5,5,0,0,0,.18-1.92,7.37,7.37,0,0,0-.14-.91v0h0l0,0a7.34,7.34,0,0,1-.8-.89,3.41,3.41,0,0,1-.74-1.59,1.2,1.2,0,0,1,.19-.78,1.92,1.92,0,0,1,.85-.63l0-.06Z" transform="translate(-325.85 -188.75)"/><path class="cls-21" d="M394.48,236.31c.6,1.25,1.43,2.49,1.38,4.11s-1.06,3.42,2.9,3.47,14-.79,13.58-4.71-19.06-5.41-17.86-2.87Z" transform="translate(-325.85 -188.75)"/><path class="cls-20" d="M394.48,236.31l-.06,0a10.27,10.27,0,0,1,1.36,3.58,4.17,4.17,0,0,1,0,.5c0,.64-.19,1.31-.14,1.9a1.53,1.53,0,0,0,.18.64,1.6,1.6,0,0,0,.91.72,6.57,6.57,0,0,0,2,.28c.93,0,2.21,0,3.61-.15a27.34,27.34,0,0,0,6.78-1.29,7.11,7.11,0,0,0,2.42-1.33,2.36,2.36,0,0,0,.84-2v0a1.8,1.8,0,0,0-.57-1.06,7.45,7.45,0,0,0-2.7-1.49,34.81,34.81,0,0,0-12.23-1.58,7.32,7.32,0,0,0-1.85.35,1.49,1.49,0,0,0-.52.31.51.51,0,0,0-.18.42.83.83,0,0,0,.06.21l.06,0,.07,0a.37.37,0,0,1-.05-.16.38.38,0,0,1,.13-.32,2,2,0,0,1,.83-.39,9.47,9.47,0,0,1,1.46-.22,35.7,35.7,0,0,1,9.4.79,18.18,18.18,0,0,1,4.13,1.35,5,5,0,0,1,1.29.88,1.63,1.63,0,0,1,.53,1v.05a2.22,2.22,0,0,1-.8,1.85,9.51,9.51,0,0,1-3.94,1.78,32.45,32.45,0,0,1-5.18.81c-1.39.12-2.67.15-3.6.14a4.64,4.64,0,0,1-2.35-.45,1.28,1.28,0,0,1-.46-.47,1.33,1.33,0,0,1-.16-.59,18.75,18.75,0,0,1,.14-1.88,4.43,4.43,0,0,0,0-.52,10.47,10.47,0,0,0-1.36-3.63l-.07,0Z" transform="translate(-325.85 -188.75)"/><path class="cls-22" d="M396.59,241.08s-.94,2.73,3.41,1.87C400,243,396.7,243.5,396.59,241.08Z" transform="translate(-325.85 -188.75)"/><path class="cls-50" d="M386.83,230.78a204.17,204.17,0,0,0,24.69,13.92c9.25,4.21,19,6.3,24.7,3.53,2.1-1,1.56-2.88.26-4.8-.6-.64-1.33-1.35-2.19-2.11-5.24-4.69-17.06-13-20.34-14.42s-10.86-1.45-14.7-1.67a54.4,54.4,0,0,0-12.85.45c-.21,0-5.22,1.41.43,5.1Z" transform="translate(-325.85 -188.75)"/><path d="M386.83,230.78l0,.05a202,202,0,0,0,24.69,13.93c7.06,3.22,14.41,5.2,20,4.73a13.27,13.27,0,0,0,4.72-1.2,2.78,2.78,0,0,0,1.17-1,2,2,0,0,0,.27-1.25,6,6,0,0,0-1.15-2.66h0c-.6-.65-1.33-1.35-2.19-2.12a134.84,134.84,0,0,0-10.92-8.44c-2-1.43-4-2.74-5.61-3.8a32.69,32.69,0,0,0-3.84-2.19,25.69,25.69,0,0,0-7.16-1.29c-2.79-.22-5.64-.28-7.56-.39a70,70,0,0,0-9.58,0,31.43,31.43,0,0,0-3.28.43h0a4.92,4.92,0,0,0-1.24.53,2.7,2.7,0,0,0-.77.66,1.44,1.44,0,0,0-.29,1,2.47,2.47,0,0,0,.66,1.35,9.28,9.28,0,0,0,2.05,1.69l0-.05,0-.06a9,9,0,0,1-2-1.67,2.3,2.3,0,0,1-.63-1.27,1.32,1.32,0,0,1,.27-.9,3.05,3.05,0,0,1,1.14-.85,4.77,4.77,0,0,1,.79-.28l0-.07v.07a30.88,30.88,0,0,1,3.28-.44,69.79,69.79,0,0,1,9.55,0c1.93.1,4.78.17,7.56.38a25.63,25.63,0,0,1,7.12,1.28,32.17,32.17,0,0,1,3.82,2.19,157,157,0,0,1,16.51,12.22c.86.77,1.59,1.46,2.19,2.11l0,0-.05,0a5.77,5.77,0,0,1,1.12,2.6,1.88,1.88,0,0,1-.25,1.17,2.45,2.45,0,0,1-1.11.93,12.94,12.94,0,0,1-4.67,1.18c-5.59.47-12.93-1.5-20-4.72a200.61,200.61,0,0,1-24.68-13.91l0,.06Z" transform="translate(-325.85 -188.75)"/><path class="cls-22" d="M411.28,244.61a181.83,181.83,0,0,1-18.42-10,2,2,0,0,0-.81,2.53c6.19,3,13.74,6.76,18.69,9.15h0a1.76,1.76,0,0,1,.54-1.69Z" transform="translate(-325.85 -188.75)"/><path class="cls-20" d="M411.28,244.61l0-.06a181.64,181.64,0,0,1-18.41-10l0,0,0,0a2,2,0,0,0-.87.94,1.91,1.91,0,0,0-.15.94,2.55,2.55,0,0,0,.11.53l.05.15s0,0,0,0h0v0h0c6.19,3,13.73,6.76,18.69,9.15l.11.06v-.12h0s0-.09,0-.18a2.31,2.31,0,0,1,.05-.71,1.19,1.19,0,0,1,.48-.72l.1-.07-.1,0,0,.06,0-.05a1.33,1.33,0,0,0-.54.8,2.27,2.27,0,0,0-.05.75c0,.13,0,.2,0,.21l.07,0h0l0-.06c-4.95-2.39-12.5-6.14-18.69-9.15l0,.06.06,0-.05,0,.06,0h0l-.05,0,.06,0h0a2.56,2.56,0,0,1-.16-.69,1.77,1.77,0,0,1,.13-.88,1.91,1.91,0,0,1,.82-.87l0-.06,0,.06a185.89,185.89,0,0,0,18.42,10l0-.07,0-.05,0,.05Z" transform="translate(-325.85 -188.75)"/><path class="cls-19" d="M392.86,234.62c-2.28-1.4-4.34-2.71-6.06-3.83-5.65-3.69-.64-5-.43-5.1-5.85,1.13-6.5,3.63-4.29,5.83,1.18,1.18,5.14,3.28,10,5.63a2,2,0,0,1,.81-2.53Z" transform="translate(-325.85 -188.75)"/><path class="cls-20" d="M392.86,234.62l0-.06c-2.29-1.4-4.35-2.7-6.06-3.82a9.27,9.27,0,0,1-2-1.68,2.3,2.3,0,0,1-.63-1.27,1.25,1.25,0,0,1,.27-.89,3.05,3.05,0,0,1,1.14-.85,5.34,5.34,0,0,1,.79-.29l0-.13a11,11,0,0,0-4.31,1.59,3.23,3.23,0,0,0-1,1.05,2,2,0,0,0-.24,1.15,3.59,3.59,0,0,0,1.18,2.15,19.17,19.17,0,0,0,3.63,2.38c1.75,1,3.95,2.08,6.36,3.26l.18.08-.08-.17h0a2.24,2.24,0,0,1-.16-.68,1.77,1.77,0,0,1,.13-.88,1.91,1.91,0,0,1,.82-.87l.09-.06-.09-.06,0,.06,0-.06a2,2,0,0,0-.87.94,1.91,1.91,0,0,0-.15.94,2.68,2.68,0,0,0,.18.74l.06,0,0-.06c-2.41-1.18-4.61-2.29-6.35-3.26a18.33,18.33,0,0,1-3.6-2.36,3.47,3.47,0,0,1-1.15-2.06,1.89,1.89,0,0,1,.23-1.08,3.79,3.79,0,0,1,1.67-1.46,13.12,13.12,0,0,1,3.5-1.11v-.07l0-.06a5.14,5.14,0,0,0-1.23.52,2.61,2.61,0,0,0-.77.67,1.43,1.43,0,0,0-.29,1,2.41,2.41,0,0,0,.66,1.35,9,9,0,0,0,2,1.7c1.71,1.12,3.77,2.43,6.06,3.83l0-.06,0-.06,0,.06Z" transform="translate(-325.85 -188.75)"/><path class="cls-21" d="M436.19,248.25c-5.71,2.77-15.45.68-24.7-3.54l-.21-.1a1.76,1.76,0,0,0-.54,1.69h0l.12.07c8.78,4.25,19.19,6.33,24.17,4.13,3.82-1.69,4-3.48,1.42-7.05,1.3,1.92,1.84,3.78-.26,4.8Z" transform="translate(-325.85 -188.75)"/><path class="cls-20" d="M436.19,248.25l0-.06a13.42,13.42,0,0,1-4.67,1.18c-5.6.46-12.93-1.51-20-4.72l-.21-.1h0l0,0a1.33,1.33,0,0,0-.54.8,2.27,2.27,0,0,0-.05.75c0,.13,0,.2,0,.21l.07,0h-.07v0h0l.12.06c7,3.41,15.11,5.43,20.62,5a11,11,0,0,0,3.6-.83,7.31,7.31,0,0,0,2.48-1.59,2.47,2.47,0,0,0,.69-1.95,8.09,8.09,0,0,0-1.71-3.61l-.11.08a5.9,5.9,0,0,1,1.12,2.59,1.91,1.91,0,0,1-.25,1.18,2.57,2.57,0,0,1-1.11.93l0,.06,0,.06a2.66,2.66,0,0,0,1.17-1,2,2,0,0,0,.28-1.26,6,6,0,0,0-1.15-2.66l-.06,0-.05,0a7.92,7.92,0,0,1,1.68,3.54,2.29,2.29,0,0,1-.65,1.85,7.22,7.22,0,0,1-2.43,1.56,11,11,0,0,1-3.56.82c-5.47.46-13.53-1.55-20.55-5l-.12-.06,0,.06h.06s0-.09,0-.18a2.31,2.31,0,0,1,.05-.71,1.19,1.19,0,0,1,.48-.72l0-.06,0,.07.21.09c7.06,3.22,14.41,5.2,20,4.73a13.16,13.16,0,0,0,4.71-1.19l0-.06Z" transform="translate(-325.85 -188.75)"/><path class="cls-24" d="M434.64,241.63l-.35-.31c-2.42-2.17-6.24-5.1-10-7.78-9.63-3.22-29.7.07-31.42,1.06a184.75,184.75,0,0,0,18.41,10s12.89-3.87,23.34-3Z" transform="translate(-325.85 -188.75)"/><path class="cls-24" d="M434.64,241.63l.05,0-.35-.31c-2.43-2.17-6.25-5.11-10-7.78h0c-4.81-1.61-12.18-1.6-18.6-1.07-3.24.27-6.24.68-8.54,1.08-1.15.2-2.12.4-2.86.58l-.93.25a3.65,3.65,0,0,0-.55.23l-.1,0,.1.06a183.65,183.65,0,0,0,18.41,10h.05a85.3,85.3,0,0,1,15.55-2.9,45.88,45.88,0,0,1,7.77-.06l.2,0-.15-.14-.05,0v-.06a46.11,46.11,0,0,0-7.79.06,85.74,85.74,0,0,0-15.58,2.9l0,.07,0-.06a181.46,181.46,0,0,1-18.4-10l0,.06,0,.06a2.43,2.43,0,0,1,.52-.21,38.17,38.17,0,0,1,4.67-1c2.15-.35,4.8-.69,7.64-.92,6.4-.53,13.76-.54,18.53,1.06l0-.07,0,.06c3.73,2.67,7.55,5.6,10,7.77l.35.31,0-.05v0Z" transform="translate(-325.85 -188.75)"/><path class="cls-3" d="M424.31,233.54A81.24,81.24,0,0,0,414,226.9c-3.29-1.41-10.86-1.46-14.7-1.67a54.4,54.4,0,0,0-12.85.45c-.21,0-5.22,1.41.43,5.1,1.72,1.11,3.78,2.42,6.06,3.82,1.72-1,21.79-4.28,31.42-1.06Z" transform="translate(-325.85 -188.75)"/><path class="cls-3" d="M424.31,233.54l0,0c-2.18-1.56-4.33-3-6.15-4.21a33.67,33.67,0,0,0-4.23-2.44,25.69,25.69,0,0,0-7.16-1.29c-2.79-.22-5.64-.28-7.56-.39a70,70,0,0,0-9.58,0,31.43,31.43,0,0,0-3.28.43h0a4.92,4.92,0,0,0-1.24.53,2.7,2.7,0,0,0-.77.66,1.44,1.44,0,0,0-.29,1,2.47,2.47,0,0,0,.66,1.35,9.28,9.28,0,0,0,2.05,1.69c1.71,1.12,3.77,2.43,6.06,3.83l0,0,0,0a2.43,2.43,0,0,1,.52-.21,38.17,38.17,0,0,1,4.67-1c2.15-.35,4.8-.69,7.64-.92,6.4-.53,13.76-.54,18.53,1.06l.06-.12,0,0,0-.06c-4.81-1.61-12.18-1.6-18.6-1.07-3.24.27-6.24.68-8.54,1.08-1.15.2-2.12.4-2.86.58l-.93.25a3.65,3.65,0,0,0-.55.23l0,0,0-.06c-2.29-1.39-4.35-2.7-6.06-3.82a9,9,0,0,1-2-1.67,2.3,2.3,0,0,1-.63-1.27,1.32,1.32,0,0,1,.27-.9,3.05,3.05,0,0,1,1.14-.85,4.77,4.77,0,0,1,.79-.28l0-.07v.07a30.88,30.88,0,0,1,3.28-.44,69.79,69.79,0,0,1,9.55,0c1.93.1,4.78.17,7.56.38a25.63,25.63,0,0,1,7.12,1.28,35.59,35.59,0,0,1,4.2,2.43c1.83,1.18,4,2.65,6.16,4.21l0-.06,0-.06,0,.06Z" transform="translate(-325.85 -188.75)"/><path class="cls-23" d="M434.64,241.63c-10.45-.9-23.3,3-23.34,3l.22.1c9.25,4.21,19,6.3,24.7,3.53,2.1-1,1.56-2.88.26-4.8-.51-.55-1.13-1.15-1.84-1.8Z" transform="translate(-325.85 -188.75)"/><path class="cls-23" d="M434.64,241.63v-.06a46.11,46.11,0,0,0-7.79.06,85.74,85.74,0,0,0-15.58,2.9l-.17.05.16.08.22.1c7.06,3.22,14.41,5.2,20,4.73a13.27,13.27,0,0,0,4.72-1.2,2.78,2.78,0,0,0,1.17-1,2,2,0,0,0,.27-1.25,6,6,0,0,0-1.15-2.66h0c-.51-.56-1.13-1.16-1.84-1.81h0v.06l0,.05c.71.65,1.32,1.25,1.84,1.8l0,0-.05,0a5.77,5.77,0,0,1,1.12,2.6,1.88,1.88,0,0,1-.25,1.17,2.45,2.45,0,0,1-1.11.93,12.94,12.94,0,0,1-4.67,1.18c-5.59.47-12.93-1.5-20-4.72l-.22-.09,0,.06,0,.06a85.3,85.3,0,0,1,15.55-2.9,45.88,45.88,0,0,1,7.77-.06v-.07l0,.05,0-.05Z" transform="translate(-325.85 -188.75)"/><g class="cls-57"><rect class="cls-55" x="437.56" y="245.33" width="0.09" height="0.44" transform="translate(-344.73 -151.58) rotate(-4.76)"/></g><path class="cls-35" d="M437.11,244.33a5.69,5.69,0,0,1,.43,1l0,.07a5.75,5.75,0,0,0-.46-1.07Z" transform="translate(-325.85 -188.75)"/><path class="cls-37" d="M405.77,232.55h0c-1.77.15-3.47.33-5,.54,8.4.76,20.23,2.83,30.34,8.34,1.14,0,2.27,0,3.37.12l-.2-.18c-2.42-2.16-6.23-5.1-10-7.77-4.5-1.5-11.3-1.58-17.43-1.14l-.18,0h-.06l-.84.07Z" transform="translate(-325.85 -188.75)"/><path class="cls-37" d="M406.85,232.46c6.13-.44,12.93-.36,17.43,1.14,3.74,2.67,7.55,5.61,10,7.77l.2.18.18,0-.26-.24c-2.42-2.17-6.26-5.11-10-7.8h0l0,.09c-4.5-1.51-11.31-1.59-17.44-1.15Zm-.24,0h0Zm-.84.07h0c-1.77.15-3.47.33-5,.54h0c1.55-.21,3.25-.39,5-.54Z" transform="translate(-325.85 -188.75)"/><path class="cls-17" d="M389.69,225.31a30.66,30.66,0,0,0-3.27.44,4.19,4.19,0,0,0-.79.28,3.05,3.05,0,0,0-1.14.85,1.32,1.32,0,0,0-.27.9,2.3,2.3,0,0,0,.63,1.27,9,9,0,0,0,2,1.67c.93.61,2,1.27,3.08,2a92.54,92.54,0,0,1,10.18.35c1.71-.24,3.61-.46,5.61-.63,6.24-.51,13.38-.54,18.19.94-2.06-1.47-4.08-2.85-5.81-4a35.59,35.59,0,0,0-4.2-2.43,25.63,25.63,0,0,0-7.12-1.28c-2.78-.21-5.63-.28-7.56-.38a69.79,69.79,0,0,0-9.55,0Z" transform="translate(-325.85 -188.75)"/><path class="cls-17" d="M389.62,225.21a31.09,31.09,0,0,0-3.29.44,4.08,4.08,0,0,0-.73.26l.77-.17h0c-.15,0-3.12.84-2,2.86a7.48,7.48,0,0,0,2.38,2.16c.92.6,1.93,1.25,3,1.94H390c-1.12-.7-2.15-1.36-3.08-2a9,9,0,0,1-2-1.67,2.3,2.3,0,0,1-.63-1.27,1.32,1.32,0,0,1,.27-.9,3.05,3.05,0,0,1,1.14-.85,4.19,4.19,0,0,1,.79-.28,30.66,30.66,0,0,1,3.27-.44,69.79,69.79,0,0,1,9.55,0c1.93.1,4.78.17,7.56.38a25.63,25.63,0,0,1,7.12,1.28,35.59,35.59,0,0,1,4.2,2.43c1.73,1.11,3.75,2.49,5.81,4-4.81-1.48-11.95-1.45-18.19-.94-2,.17-3.9.39-5.61.63l.61.05c1.55-.21,3.25-.39,5-.54h0l.84-.07h.06l.18,0c6.13-.44,12.94-.36,17.44,1.15l0-.09h0l0,0,0,0A81.88,81.88,0,0,0,414,226.87c-3.29-1.41-10.89-1.46-14.74-1.68a70.3,70.3,0,0,0-9.6,0Z" transform="translate(-325.85 -188.75)"/><path class="cls-36" d="M431.32,241.56a45.49,45.49,0,0,1,6.16,4.06,7.07,7.07,0,0,0-1.05-2.15c-.51-.54-1.11-1.13-1.81-1.77-1.08-.09-2.19-.14-3.3-.14Z" transform="translate(-325.85 -188.75)"/><path class="cls-36" d="M431.08,241.43l.24.13c1.11,0,2.22.05,3.3.14.7.64,1.3,1.23,1.81,1.77a7.07,7.07,0,0,1,1.05,2.15l.16.13a3.2,3.2,0,0,0-.1-.42,5.69,5.69,0,0,0-.43-1q-.24-.44-.54-.87c-.51-.56-1.13-1.16-1.84-1.81l-.08-.07v0l0,.05,0-.05v0h0l-.18,0c-1.1-.09-2.23-.13-3.37-.12Z" transform="translate(-325.85 -188.75)"/><path class="cls-39" d="M392.86,234.7a1.88,1.88,0,0,0-.78.85,1.77,1.77,0,0,0-.13.88h0a2.54,2.54,0,0,0,.14.59.08.08,0,0,0,0,0l3.51,1.72c2.26.61,4.67,1.16,7.13,1.59-3.52-1.91-6.9-3.88-9.89-5.71Z" transform="translate(-325.85 -188.75)"/><path class="cls-35" d="M392.11,237.1h0l.06.14,2.87,1.4.57.16-3.51-1.72Zm-.16-.64a2.54,2.54,0,0,0,.14.59,2.54,2.54,0,0,1-.14-.59Zm0,0Zm0,0Zm0,0h0Zm0,0Zm0,0Zm0,0Zm0,0h0Zm.94-1.75a2,2,0,0,0-.81.87,1.77,1.77,0,0,0-.13.88h0a1.77,1.77,0,0,1,.13-.88,1.88,1.88,0,0,1,.78-.85c3,1.83,6.37,3.8,9.89,5.71h.08c-3.54-1.91-6.94-3.9-9.94-5.74Z" transform="translate(-325.85 -188.75)"/><path class="cls-38" d="M385.49,226a11.48,11.48,0,0,0-2.61.92,3.79,3.79,0,0,0-1.67,1.46,1.89,1.89,0,0,0-.23,1.08,3.47,3.47,0,0,0,1.15,2.06,18.33,18.33,0,0,0,3.6,2.36c1.7.95,3.85,2,6.2,3.18a2.64,2.64,0,0,1-.12-.57,1.91,1.91,0,0,1,.15-.94,2.05,2.05,0,0,1,.78-.88c-2.26-1.38-4.28-2.67-6-3.77a9,9,0,0,1-2-1.7,2.41,2.41,0,0,1-.66-1.35,1.43,1.43,0,0,1,.29-1,2.61,2.61,0,0,1,.77-.67l.36-.19Z" transform="translate(-325.85 -188.75)"/><path class="cls-35" d="M385.57,225.91c-5.1,1.2-5.59,3.57-3.49,5.66,1.18,1.17,5.15,3.27,10,5.63l.12.06-.06-.14h0a.08.08,0,0,1,0,0,2.54,2.54,0,0,1-.14-.59h0a1.77,1.77,0,0,1,.13-.88,2,2,0,0,1,.81-.87h0c-2.29-1.4-4.35-2.71-6.06-3.83-.38-.25-.71-.48-1-.71a7.49,7.49,0,0,1-1.06-1,3,3,0,0,1-.59-1,1.62,1.62,0,0,1,.9-2l.09-.06a2.68,2.68,0,0,1,.33-.18l-.36.19a2.61,2.61,0,0,0-.77.67,1.43,1.43,0,0,0-.29,1,2.41,2.41,0,0,0,.66,1.35,9,9,0,0,0,2,1.7c1.69,1.1,3.71,2.39,6,3.77a2.05,2.05,0,0,0-.78.88,1.91,1.91,0,0,0-.15.94,2.64,2.64,0,0,0,.12.57c-2.35-1.14-4.5-2.23-6.2-3.18a18.33,18.33,0,0,1-3.6-2.36,3.47,3.47,0,0,1-1.15-2.06,1.89,1.89,0,0,1,.23-1.08,3.79,3.79,0,0,1,1.67-1.46,11.48,11.48,0,0,1,2.61-.92l.08,0Z" transform="translate(-325.85 -188.75)"/><path class="cls-17" d="M384.16,228.15a3,3,0,0,0,.59,1,7.49,7.49,0,0,0,1.06,1,5.37,5.37,0,0,1-1.43-1.53,2.31,2.31,0,0,1-.22-.45Zm1.44-2.24h0l-.08,0h0a2.68,2.68,0,0,0-.33.18l-.09.06a3.19,3.19,0,0,1,.54-.29Z" transform="translate(-325.85 -188.75)"/><path class="cls-41" d="M385.06,226.2a1.62,1.62,0,0,0-.9,2,1.75,1.75,0,0,1-.07-.36,1.44,1.44,0,0,1,.29-1,2.45,2.45,0,0,1,.68-.6Z" transform="translate(-325.85 -188.75)"/><path class="cls-42" d="M386.37,225.74l-.77.17a3.19,3.19,0,0,0-.54.29,2.45,2.45,0,0,0-.68.6,1.44,1.44,0,0,0-.29,1,1.75,1.75,0,0,0,.07.36,2.31,2.31,0,0,0,.22.45c-1.13-2,1.84-2.82,2-2.86Z" transform="translate(-325.85 -188.75)"/></g></g></svg>