<svg xmlns="http://www.w3.org/2000/svg" xmlns:xlink="http://www.w3.org/1999/xlink" viewBox="0 0 121.66 86.72"><defs><style>.cls-1{isolation:isolate;}.cls-2{fill:url(#radial-gradient);}.cls-3{fill:#00255b;}.cls-19,.cls-4,.cls-5,.cls-55,.cls-58,.cls-59,.cls-61,.cls-62,.cls-64,.cls-65{opacity:0.5;}.cls-14,.cls-4,.cls-46,.cls-47,.cls-52,.cls-53,.cls-56,.cls-58,.cls-61,.cls-64{mix-blend-mode:multiply;}.cls-19,.cls-5,.cls-50,.cls-55,.cls-59,.cls-6,.cls-62,.cls-65{mix-blend-mode:screen;}.cls-5{fill:url(#radial-gradient-3);}.cls-6{fill:#e9fbff;opacity:0.7;}.cls-7{fill:url(#Безымянный_градиент_167);}.cls-48,.cls-8{opacity:0.3;}.cls-48,.cls-49,.cls-8{mix-blend-mode:overlay;}.cls-48,.cls-49,.cls-9{fill:#fff;}.cls-10{fill:url(#Безымянный_градиент_167-2);}.cls-11{fill:url(#radial-gradient-4);}.cls-12{fill:url(#radial-gradient-5);}.cls-13{fill:#bc6600;}.cls-15{fill:url(#radial-gradient-6);}.cls-16{fill:url(#radial-gradient-7);}.cls-17{fill:url(#radial-gradient-8);}.cls-18{fill:url(#radial-gradient-9);}.cls-20{fill:url(#radial-gradient-10);}.cls-21{fill:url(#radial-gradient-11);}.cls-22{fill:url(#radial-gradient-12);}.cls-23{fill:url(#radial-gradient-13);}.cls-24{fill:url(#radial-gradient-14);}.cls-25{fill:url(#radial-gradient-15);}.cls-26{fill:url(#radial-gradient-16);}.cls-27{fill:url(#radial-gradient-17);}.cls-28{fill:url(#radial-gradient-18);}.cls-29{fill:url(#radial-gradient-19);}.cls-30{fill:url(#radial-gradient-20);}.cls-31{fill:url(#radial-gradient-21);}.cls-32{fill:url(#radial-gradient-22);}.cls-33{fill:url(#radial-gradient-23);}.cls-34{fill:url(#radial-gradient-24);}.cls-35{fill:url(#radial-gradient-25);}.cls-36{fill:url(#radial-gradient-26);}.cls-37{fill:url(#radial-gradient-27);}.cls-38{fill:url(#radial-gradient-28);}.cls-39{fill:url(#radial-gradient-29);}.cls-40{fill:url(#radial-gradient-30);}.cls-41{fill:url(#Безымянный_градиент_167-3);}.cls-42{fill:url(#Безымянный_градиент_167-4);}.cls-43{fill:url(#Безымянный_градиент_167-5);}.cls-44{fill:url(#radial-gradient-31);}.cls-45{fill:url(#Безымянный_градиент_167-6);}.cls-46,.cls-52,.cls-53{opacity:0.4;}.cls-46{fill:url(#radial-gradient-33);}.cls-47{fill:url(#radial-gradient-34);}.cls-49{opacity:0.1;}.cls-50{fill:#f9ffae;}.cls-51{fill:url(#Безымянный_градиент_167-7);}.cls-52{fill:url(#radial-gradient-35);}.cls-53{fill:url(#radial-gradient-36);}.cls-54{fill:url(#radial-gradient-37);}.cls-55{fill:url(#radial-gradient-38);}.cls-56{fill:url(#radial-gradient-39);}.cls-57,.cls-60,.cls-63{stroke:#00255b;stroke-miterlimit:10;stroke-width:0.19px;}.cls-57{fill:url(#radial-gradient-40);}.cls-58{fill:url(#radial-gradient-41);}.cls-59{fill:url(#radial-gradient-42);}.cls-60{fill:url(#radial-gradient-43);}.cls-61{fill:url(#radial-gradient-44);}.cls-62{fill:url(#radial-gradient-45);}.cls-63{fill:url(#radial-gradient-46);}.cls-64{fill:url(#radial-gradient-47);}.cls-65{fill:url(#radial-gradient-48);}</style><radialGradient id="radial-gradient" cx="1466.33" cy="197.6" r="29.71" gradientTransform="matrix(-1, 0, 0, 1, 1912.42, 0)" gradientUnits="userSpaceOnUse"><stop offset="0" stop-color="#00cbff"/><stop offset="0.09" stop-color="#00c3fa"/><stop offset="0.23" stop-color="#00aced"/><stop offset="0.4" stop-color="#0086d7"/><stop offset="0.57" stop-color="#005cbf"/><stop offset="1" stop-color="#002479"/></radialGradient><radialGradient id="radial-gradient-3" cx="1464.61" cy="154.61" r="24.76" gradientTransform="matrix(-1, 0.03, 0.03, 0.92, 1905.17, 12.16)" xlink:href="#radial-gradient"/><radialGradient id="Безымянный_градиент_167" cx="1523.99" cy="233.36" r="51.11" gradientTransform="matrix(-1, 0, 0, 1, 1912.42, 0)" gradientUnits="userSpaceOnUse"><stop offset="0" stop-color="#ffe45e"/><stop offset="1" stop-color="#f2710b"/></radialGradient><radialGradient id="Безымянный_градиент_167-2" cx="1530.69" cy="235.74" r="37.72" xlink:href="#Безымянный_градиент_167"/><radialGradient id="radial-gradient-4" cx="1509.45" cy="247.18" r="19.42" xlink:href="#radial-gradient"/><radialGradient id="radial-gradient-5" cx="1509.07" cy="247.28" r="18.83" gradientTransform="matrix(-1, 0, 0, 1, 1912.42, 0)" gradientUnits="userSpaceOnUse"><stop offset="0" stop-color="#edff6a"/><stop offset="0.11" stop-color="#effc62"/><stop offset="0.28" stop-color="#f4f54b"/><stop offset="0.49" stop-color="#fcea25"/><stop offset="0.57" stop-color="#ffe515"/><stop offset="1" stop-color="#ff9415"/></radialGradient><radialGradient id="radial-gradient-6" cx="1509.09" cy="248.57" r="16.23" gradientTransform="matrix(-1, 0, 0, 1, 1912.42, 0)" gradientUnits="userSpaceOnUse"><stop offset="0" stop-color="#edff6a"/><stop offset="0.11" stop-color="#effc62"/><stop offset="0.28" stop-color="#f4f54b"/><stop offset="0.49" stop-color="#fcea25"/><stop offset="0.57" stop-color="#ffe515"/><stop offset="1" stop-color="#ffa415"/></radialGradient><radialGradient id="radial-gradient-7" cx="1509.13" cy="256.53" r="6.54" xlink:href="#radial-gradient-6"/><radialGradient id="radial-gradient-8" cx="1510.62" cy="254.96" r="8.06" gradientTransform="matrix(-1, 0, 0, 1, 1912.42, 0)" gradientUnits="userSpaceOnUse"><stop offset="0" stop-color="#d5ffff"/><stop offset="0.17" stop-color="#cafaff"/><stop offset="0.46" stop-color="#acebff"/><stop offset="0.85" stop-color="#7dd3ff"/><stop offset="1" stop-color="#68c9ff"/></radialGradient><radialGradient id="radial-gradient-9" cx="1510.62" cy="255.36" r="7.64" xlink:href="#radial-gradient-8"/><radialGradient id="radial-gradient-10" cx="1508.53" cy="257.15" r="4.96" xlink:href="#radial-gradient-8"/><radialGradient id="radial-gradient-11" cx="1510.79" cy="254.83" r="6.57" xlink:href="#radial-gradient-8"/><radialGradient id="radial-gradient-12" cx="1512.05" cy="253.67" r="3.88" xlink:href="#radial-gradient-8"/><radialGradient id="radial-gradient-13" cx="1525.97" cy="249.23" r="19.43" xlink:href="#radial-gradient"/><radialGradient id="radial-gradient-14" cx="1525.6" cy="249.33" r="18.82" xlink:href="#radial-gradient-5"/><radialGradient id="radial-gradient-15" cx="1525.62" cy="250.62" r="16.23" xlink:href="#radial-gradient-6"/><radialGradient id="radial-gradient-16" cx="1525.66" cy="258.58" r="6.54" xlink:href="#radial-gradient-6"/><radialGradient id="radial-gradient-17" cx="1527.14" cy="257" r="8.06" xlink:href="#radial-gradient-8"/><radialGradient id="radial-gradient-18" cx="1527.15" cy="257.4" r="7.64" xlink:href="#radial-gradient-8"/><radialGradient id="radial-gradient-19" cx="1525.06" cy="259.2" r="4.96" xlink:href="#radial-gradient-8"/><radialGradient id="radial-gradient-20" cx="1527.32" cy="256.88" r="6.57" xlink:href="#radial-gradient-8"/><radialGradient id="radial-gradient-21" cx="1528.58" cy="255.72" r="3.88" xlink:href="#radial-gradient-8"/><radialGradient id="radial-gradient-22" cx="1541.81" cy="246.56" r="19.43" xlink:href="#radial-gradient"/><radialGradient id="radial-gradient-23" cx="1541.44" cy="246.66" r="18.82" xlink:href="#radial-gradient-5"/><radialGradient id="radial-gradient-24" cx="1541.46" cy="247.95" r="16.23" xlink:href="#radial-gradient-6"/><radialGradient id="radial-gradient-25" cx="1541.5" cy="255.91" r="6.54" xlink:href="#radial-gradient-6"/><radialGradient id="radial-gradient-26" cx="1542.99" cy="254.33" r="8.06" xlink:href="#radial-gradient-8"/><radialGradient id="radial-gradient-27" cx="1542.99" cy="254.73" r="7.64" xlink:href="#radial-gradient-8"/><radialGradient id="radial-gradient-28" cx="1540.9" cy="256.53" r="4.96" xlink:href="#radial-gradient-8"/><radialGradient id="radial-gradient-29" cx="1543.16" cy="254.21" r="6.57" xlink:href="#radial-gradient-8"/><radialGradient id="radial-gradient-30" cx="1544.42" cy="253.05" r="3.88" xlink:href="#radial-gradient-8"/><radialGradient id="Безымянный_градиент_167-3" cx="1517.87" cy="174.86" r="90.26" xlink:href="#Безымянный_градиент_167"/><radialGradient id="Безымянный_градиент_167-4" cx="1524.13" cy="192.74" r="66.57" xlink:href="#Безымянный_градиент_167"/><radialGradient id="Безымянный_градиент_167-5" cx="1520.8" cy="163.04" r="62.71" xlink:href="#Безымянный_градиент_167"/><radialGradient id="radial-gradient-31" cx="1584.01" cy="207.76" r="30.51" xlink:href="#radial-gradient"/><radialGradient id="Безымянный_градиент_167-6" cx="1580.77" cy="216.03" r="20.29" xlink:href="#Безымянный_градиент_167"/><radialGradient id="radial-gradient-33" cx="1571.87" cy="216.22" r="10.31" xlink:href="#radial-gradient"/><radialGradient id="radial-gradient-34" cx="1521.26" cy="198.81" r="34.73" xlink:href="#radial-gradient-6"/><radialGradient id="Безымянный_градиент_167-7" cx="1522.13" cy="198.05" r="70.78" xlink:href="#Безымянный_градиент_167"/><radialGradient id="radial-gradient-35" cx="1520.46" cy="202.59" r="34.3" xlink:href="#radial-gradient"/><radialGradient id="radial-gradient-36" cx="1520.01" cy="226.38" r="33.71" xlink:href="#radial-gradient"/><radialGradient id="radial-gradient-37" cx="1580.09" cy="207.76" r="30.32" xlink:href="#radial-gradient"/><radialGradient id="radial-gradient-38" cx="749.55" cy="732.27" r="9.99" gradientTransform="matrix(-0.39, -1.03, -2.03, -0.04, 2112.05, 1012.37)" xlink:href="#radial-gradient"/><radialGradient id="radial-gradient-39" cx="1520.51" cy="123.95" r="33.9" gradientTransform="translate(1912.42 353.94) rotate(180)" xlink:href="#radial-gradient-6"/><radialGradient id="radial-gradient-40" cx="1464.12" cy="211.3" r="16.68" xlink:href="#radial-gradient"/><radialGradient id="radial-gradient-41" cx="1464.12" cy="212.5" r="16.06" xlink:href="#radial-gradient"/><radialGradient id="radial-gradient-42" cx="1468.7" cy="212.69" r="10.42" xlink:href="#radial-gradient"/><radialGradient id="radial-gradient-43" cx="1470.37" cy="185.19" r="21.87" xlink:href="#radial-gradient"/><radialGradient id="radial-gradient-44" cx="1470.37" cy="185.61" r="21.57" xlink:href="#radial-gradient"/><radialGradient id="radial-gradient-45" cx="1538.17" cy="182.37" r="12.77" gradientTransform="matrix(-0.95, 0, 0, 1, 1902.58, -1.07)" xlink:href="#radial-gradient"/><radialGradient id="radial-gradient-46" cx="1472.1" cy="467.08" r="23.07" gradientTransform="translate(1912.42 713.42) rotate(180)" xlink:href="#radial-gradient"/><radialGradient id="radial-gradient-47" cx="1473.33" cy="224.74" r="22.28" xlink:href="#radial-gradient"/><radialGradient id="radial-gradient-48" cx="1446.99" cy="710.01" r="10.24" gradientTransform="matrix(-0.87, -0.39, -0.53, 1.07, 2077.13, 36.35)" xlink:href="#radial-gradient"/></defs><title>dirijabl jeltiy</title><g class="cls-1"><g id="Слой_1" data-name="Слой 1"><path class="cls-2" d="M437.2,227.4h9.7s2.71-2.39,2.71-11.42-2.71-11.42-2.71-11.42h-9.7Z" transform="translate(-332.45 -178.14)"/><path class="cls-3" d="M437.17,227.44c2.94,0,6.22.44,9.11,0,1.27-.19,1.55-1.06,2.06-2.36,2-4.89,1.88-11.22.62-16.25-.28-1.11-.87-3.74-2.07-4.31s-3.8,0-5.06,0h-4.61s-.12,0-.12,0v22.84c0,.05.19,0,.19,0V207.67c0-.7-.16-2.9.08-3.07.43-.3,2.27,0,2.76,0h4.23c1.45,0,2.3-.41,3.07.8,1.67,2.63,2,6.23,2.06,9.25.12,3.67,0,7.85-1.68,11.22-.92,1.87-1.35,1.5-3.41,1.5h-7.18C437.14,227.37,437,227.44,437.17,227.44Z" transform="translate(-332.45 -178.14)"/><g class="cls-4"><path class="cls-2" d="M439.57,204.56c2.61,6.75.59,15.81.23,18.44-.4,2.87,6.56,3.63,7.79-.34,2.88-9.3.24-16.06-.74-18.1h0s2.71,2.39,2.71,11.42-2.71,11.42-2.71,11.42h-9.7V204.56Z" transform="translate(-332.45 -178.14)"/></g><path class="cls-5" d="M447.64,208.7c-.86-3.51-2.21-4-4.38-3.77s-2.5.95-1.63,4.18,0,9.78-.39,12,5.42,2.8,6.26-1.55A26.07,26.07,0,0,0,447.64,208.7Z" transform="translate(-332.45 -178.14)"/><path class="cls-6" d="M445.2,205.62c-.69.28-.63,1.22-.21,2.25s1,1.75,1.7,1.48.63-1.22.21-2.25S445.89,205.35,445.2,205.62Z" transform="translate(-332.45 -178.14)"/><path class="cls-6" d="M446.62,210c-.55.06-.72.49-.67,1s.32.89.85.84.72-.49.67-1S447.16,209.93,446.62,210Z" transform="translate(-332.45 -178.14)"/><path class="cls-7" d="M364.35,260.07s3.92,4.79,23.25,4.79,23.24-4.79,23.24-4.79a29.32,29.32,0,0,0,5.67-14.44c.6-5.5-58.26-5.81-57.83,0A28.82,28.82,0,0,0,364.35,260.07Z" transform="translate(-332.45 -178.14)"/><g class="cls-8"><path class="cls-9" d="M411,243c3.52.67,5.66,1.54,5.54,2.61a29.32,29.32,0,0,1-5.67,14.44s-3.92,4.79-23.24,4.79c-16.5,0-21.77-3.49-23-4.51,18.71,5.28,34.32.5,40.47-7.22C407.52,250.09,413.27,244.82,411,243Z" transform="translate(-332.45 -178.14)"/></g><path class="cls-10" d="M362.75,257.72a28,28,0,0,1-4.07-12.09c-.3-4,27.67-5.1,44.82-3.58C397.13,249.75,384.66,259.36,362.75,257.72Z" transform="translate(-332.45 -178.14)"/><g class="cls-4"><path class="cls-11" d="M397.08,256.83a5.73,5.73,0,1,0,5.72-5.72A5.72,5.72,0,0,0,397.08,256.83Z" transform="translate(-332.45 -178.14)"/></g><path class="cls-12" d="M397.63,256.63a5.56,5.56,0,1,0,5.56-5.55A5.56,5.56,0,0,0,397.63,256.63Z" transform="translate(-332.45 -178.14)"/><path class="cls-13" d="M397.54,256.62c.39,7.17,11.26,7.35,11.29,0s-10.9-7.23-11.29,0c0,.05.19.07.19,0a5.68,5.68,0,0,1,3.24-5l1.09-.36,3.86.61a4.75,4.75,0,0,1,1.63,1.52,5.41,5.41,0,0,1,1.09,3.25,5.55,5.55,0,0,1-3,4.9,6.89,6.89,0,0,1-5.2-.11,4.81,4.81,0,0,1-1.31-1.07,5.71,5.71,0,0,1-1.42-3.7C397.73,256.58,397.54,256.57,397.54,256.62Z" transform="translate(-332.45 -178.14)"/><g class="cls-14"><path class="cls-15" d="M398.4,256.63a4.79,4.79,0,1,0,4.79-4.79A4.78,4.78,0,0,0,398.4,256.63Z" transform="translate(-332.45 -178.14)"/></g><g class="cls-14"><path class="cls-16" d="M397.63,256.63a5.56,5.56,0,1,0,5.56-5.55A5.56,5.56,0,0,0,397.63,256.63Zm.36,0a5.2,5.2,0,1,1,5.2,5.19A5.19,5.19,0,0,1,398,256.63Z" transform="translate(-332.45 -178.14)"/></g><path class="cls-17" d="M398.68,256.63a4.51,4.51,0,1,0,4.51-4.5A4.5,4.5,0,0,0,398.68,256.63Z" transform="translate(-332.45 -178.14)"/><path class="cls-13" d="M398.6,256.61c.31,5.8,9.15,6,9.18,0s-8.87-5.93-9.18,0c0,.06.17.1.17.06a4.65,4.65,0,0,1,2.22-3.88,4.42,4.42,0,1,1-2.22,3.87S398.6,256.55,398.6,256.61Z" transform="translate(-332.45 -178.14)"/><g class="cls-14"><path class="cls-18" d="M401,252.71a3.89,3.89,0,0,0-.6,2.08,3.93,3.93,0,0,0,7.31,2,4.5,4.5,0,1,1-6.71-4.09Z" transform="translate(-332.45 -178.14)"/></g><g class="cls-19"><path class="cls-20" d="M407.51,256.63a2.26,2.26,0,0,1,0,.26l-4.06,4.05h-.25a4.39,4.39,0,0,1-1.22-.17l5.36-5.37A4.14,4.14,0,0,1,407.51,256.63Z" transform="translate(-332.45 -178.14)"/></g><g class="cls-19"><path class="cls-21" d="M406.43,253.77l-6.1,6.1a4.22,4.22,0,0,1-1.24-1.88l5.46-5.46A4.31,4.31,0,0,1,406.43,253.77Z" transform="translate(-332.45 -178.14)"/></g><g class="cls-19"><path class="cls-22" d="M398.86,256.63a4.34,4.34,0,0,1,.14-1.09l3.1-3.1a4.34,4.34,0,0,1,1.09-.13h0l-4.34,4.33Z" transform="translate(-332.45 -178.14)"/></g><g class="cls-4"><path class="cls-23" d="M380.55,258.88a5.73,5.73,0,1,0,5.73-5.73A5.72,5.72,0,0,0,380.55,258.88Z" transform="translate(-332.45 -178.14)"/></g><path class="cls-24" d="M381.11,258.68a5.55,5.55,0,1,0,5.55-5.55A5.55,5.55,0,0,0,381.11,258.68Z" transform="translate(-332.45 -178.14)"/><path class="cls-13" d="M381,258.67c.39,7.19,11.27,7.32,11.3,0s-10.91-7.2-11.3,0c0,.05.19.07.19,0,.12-2.2,1.44-4.66,3.77-5.24l3.91.2,1,.57a5.4,5.4,0,0,1,1.35,1.43,5.64,5.64,0,0,1,.92,3,5.53,5.53,0,0,1-3.26,5c-4,1.78-7.46-1.28-7.66-5C381.2,258.63,381,258.62,381,258.67Z" transform="translate(-332.45 -178.14)"/><g class="cls-14"><path class="cls-25" d="M381.88,258.68a4.78,4.78,0,1,0,4.78-4.79A4.78,4.78,0,0,0,381.88,258.68Z" transform="translate(-332.45 -178.14)"/></g><g class="cls-14"><path class="cls-26" d="M381.11,258.68a5.55,5.55,0,1,0,5.55-5.55A5.55,5.55,0,0,0,381.11,258.68Zm.36,0a5.19,5.19,0,1,1,5.19,5.19A5.19,5.19,0,0,1,381.47,258.68Z" transform="translate(-332.45 -178.14)"/></g><path class="cls-27" d="M382.16,258.68a4.5,4.5,0,1,0,4.5-4.51A4.5,4.5,0,0,0,382.16,258.68Z" transform="translate(-332.45 -178.14)"/><path class="cls-13" d="M382.07,258.66c.31,5.81,9.18,6,9.18,0s-8.86-5.9-9.18,0c0,0,.17.08.18,0a4.58,4.58,0,0,1,2.62-4.09,4.43,4.43,0,0,1,4,7.9c-3,1.76-6.42-.61-6.59-3.81C382.24,258.64,382.07,258.62,382.07,258.66Z" transform="translate(-332.45 -178.14)"/><g class="cls-14"><path class="cls-28" d="M384.44,254.76a3.93,3.93,0,0,0,3.34,6,3.94,3.94,0,0,0,3.38-1.93,4.5,4.5,0,1,1-6.72-4.09Z" transform="translate(-332.45 -178.14)"/></g><g class="cls-19"><path class="cls-29" d="M391,258.68v.26L386.92,263h-.26a4.49,4.49,0,0,1-1.22-.17l5.37-5.37A4.44,4.44,0,0,1,391,258.68Z" transform="translate(-332.45 -178.14)"/></g><g class="cls-19"><path class="cls-30" d="M389.9,255.82l-6.1,6.1a4.37,4.37,0,0,1-1.24-1.88l5.46-5.46A4.17,4.17,0,0,1,389.9,255.82Z" transform="translate(-332.45 -178.14)"/></g><g class="cls-19"><path class="cls-31" d="M382.34,258.68a3.93,3.93,0,0,1,.14-1.09l3.1-3.1a4.26,4.26,0,0,1,1.08-.14h0l-4.34,4.33Z" transform="translate(-332.45 -178.14)"/></g><g class="cls-4"><path class="cls-32" d="M364.71,256.21a5.73,5.73,0,1,0,5.73-5.72A5.72,5.72,0,0,0,364.71,256.21Z" transform="translate(-332.45 -178.14)"/></g><path class="cls-33" d="M365.27,256a5.55,5.55,0,1,0,5.55-5.55A5.55,5.55,0,0,0,365.27,256Z" transform="translate(-332.45 -178.14)"/><path class="cls-13" d="M365.17,256c.39,7.2,11.27,7.32,11.3,0s-10.91-7.2-11.3,0c0,.06.19.07.19,0,.12-2.2,1.44-4.66,3.77-5.24l3.91.2,1,.57a5.4,5.4,0,0,1,1.35,1.43,5.64,5.64,0,0,1,.92,3,5.53,5.53,0,0,1-3.26,5c-4,1.78-7.46-1.28-7.66-5C365.36,256,365.17,256,365.17,256Z" transform="translate(-332.45 -178.14)"/><g class="cls-14"><path class="cls-34" d="M366,256a4.79,4.79,0,1,0,4.79-4.79A4.79,4.79,0,0,0,366,256Z" transform="translate(-332.45 -178.14)"/></g><g class="cls-14"><path class="cls-35" d="M365.27,256a5.55,5.55,0,1,0,5.55-5.55A5.55,5.55,0,0,0,365.27,256Zm.36,0a5.19,5.19,0,1,1,5.19,5.19A5.19,5.19,0,0,1,365.63,256Z" transform="translate(-332.45 -178.14)"/></g><path class="cls-36" d="M366.32,256a4.5,4.5,0,1,0,4.5-4.5A4.49,4.49,0,0,0,366.32,256Z" transform="translate(-332.45 -178.14)"/><path class="cls-13" d="M366.23,256c.31,5.8,9.15,6,9.18,0s-8.86-5.92-9.18,0c0,.06.17.1.17,0a4.65,4.65,0,0,1,2.23-3.88,4.46,4.46,0,0,1,6.58,3.84,4.39,4.39,0,0,1-2.62,4.06,4.46,4.46,0,0,1-6.19-4S366.23,255.93,366.23,256Z" transform="translate(-332.45 -178.14)"/><g class="cls-14"><path class="cls-37" d="M368.6,252.09a3.89,3.89,0,0,0-.6,2.08,3.93,3.93,0,0,0,7.32,2,4.5,4.5,0,1,1-6.72-4.09Z" transform="translate(-332.45 -178.14)"/></g><g class="cls-19"><path class="cls-38" d="M375.14,256a2.26,2.26,0,0,1,0,.26l-4.05,4.05h-.26a4.44,4.44,0,0,1-1.22-.17l5.37-5.37A4.49,4.49,0,0,1,375.14,256Z" transform="translate(-332.45 -178.14)"/></g><g class="cls-19"><path class="cls-39" d="M374.06,253.15l-6.1,6.1a4.31,4.31,0,0,1-1.24-1.88l5.46-5.46A4.31,4.31,0,0,1,374.06,253.15Z" transform="translate(-332.45 -178.14)"/></g><g class="cls-19"><path class="cls-40" d="M366.5,256a3.93,3.93,0,0,1,.14-1.09l3.09-3.1a4.34,4.34,0,0,1,1.09-.13h0L366.5,256Z" transform="translate(-332.45 -178.14)"/></g><path class="cls-41" d="M438.86,203.92s-12.51-25.78-49-25.78-57.3,24-57.3,39.05,22.5,34.33,57.35,34.33,48.19-25.39,48.19-25.39S442.3,215.28,438.86,203.92Z" transform="translate(-332.45 -178.14)"/><path class="cls-42" d="M439.53,220.7a33,33,0,0,1-1.44,5.43s-13.35,25.39-48.19,25.39c-23,0-40.95-8.16-50.3-18.81a16.45,16.45,0,0,0,5.69-8c9,4.6,24.08,10,45.07,10C418,234.64,433.54,225.32,439.53,220.7Z" transform="translate(-332.45 -178.14)"/><path class="cls-43" d="M343.76,203.72a12.5,12.5,0,0,0-3.76-4.23c9.06-11.22,26.14-21.35,49.85-21.35,36.5,0,49,25.78,49,25.78a32,32,0,0,1,.94,4.12c-6.3-4.38-23.88-14.46-52.63-14.46C365.94,193.58,351.86,199.08,343.76,203.72Z" transform="translate(-332.45 -178.14)"/><path class="cls-44" d="M338.81,201c.92.72,6,5.18,6,15.08a22.8,22.8,0,0,1-6.23,15.5c-3.72-4.24-6-9.71-6-14.41S334.7,206.61,338.81,201Z" transform="translate(-332.45 -178.14)"/><path class="cls-3" d="M338.74,201c8,6.44,7.3,19.83,2.06,27.65-.23.35-1.7,2.83-2.3,2.87s-3.23-4.84-3.38-5.12a23.34,23.34,0,0,1-1.88-4.84c-1.91-7.37,1.41-14.64,5.66-20.53,0-.05-.14-.12-.17-.08-3.32,4.61-6.16,10.05-6.27,15.85-.1,5.47,2.56,10.68,6,14.76,0,0,.14.08.17,0,7.7-7.42,9.08-23.48.24-30.62C338.85,201,338.66,201,338.74,201Z" transform="translate(-332.45 -178.14)"/><g class="cls-4"><path class="cls-44" d="M338.81,201c.92.72,6,5.18,6,15.08a22.8,22.8,0,0,1-6.23,15.5c-3.72-4.24-6-9.71-6-14.41S334.7,206.61,338.81,201Z" transform="translate(-332.45 -178.14)"/></g><path class="cls-45" d="M344.8,216.1c0-9.9-5.07-14.36-6-15.08.38-.51.78-1,1.19-1.53.09.06,6.65,4,6.65,16.38s-7,16.8-7,16.84c-.36-.36-.7-.73-1-1.11A22.8,22.8,0,0,0,344.8,216.1Z" transform="translate(-332.45 -178.14)"/><path class="cls-13" d="M439.47,206.64s-.33-.25-.94-.67a.09.09,0,0,1,0-.13.11.11,0,0,1,.14,0l.94.66a.1.1,0,0,1,0,.14.09.09,0,0,1-.07,0Zm-1.9-1.3-1-.61a.1.1,0,0,1,0-.14.1.1,0,0,1,.13,0l1,.62a.09.09,0,0,1,0,.13.1.1,0,0,1-.08.05Zm-1.95-1.21-1-.58a.1.1,0,1,1,.09-.17l1,.58a.1.1,0,0,1,0,.14.09.09,0,0,1-.08,0Zm-2-1.15c-.32-.18-.66-.37-1-.55a.1.1,0,0,1,0-.13.09.09,0,0,1,.13,0l1,.55a.1.1,0,0,1,0,.18Zm-90.57-.2a.08.08,0,0,1-.05-.08.09.09,0,0,1,0-.08,4.13,4.13,0,0,1,.43-.32.09.09,0,0,1,.13,0,.11.11,0,0,1,0,.14l-.43.31-.06,0Zm88.55-.89-1-.53a.09.09,0,0,1,0-.13.08.08,0,0,1,.12,0c.36.18.7.35,1,.53a.1.1,0,0,1-.05.18Zm-87.2-.1a.09.09,0,0,1,0-.13c.31-.2.64-.41,1-.61a.09.09,0,0,1,.13,0,.09.09,0,0,1,0,.13c-.34.2-.66.41-1,.61h-.05S344.42,201.82,344.41,201.79Zm85.15-.94-1-.5a.1.1,0,1,1,.08-.18l1,.5a.11.11,0,0,1,0,.13.1.1,0,0,1-.09.06Zm-83.19-.25a.1.1,0,0,1,0-.13c.32-.19.66-.38,1-.56a.08.08,0,0,1,.12,0,.1.1,0,0,1,0,.13c-.35.18-.68.37-1,.55h-.05A.09.09,0,0,1,346.37,200.6Zm81.12-.74-1.05-.48a.09.09,0,0,1-.05-.12.1.1,0,0,1,.13,0l1.05.48a.08.08,0,0,1,0,.12.08.08,0,0,1-.08.06Zm-79.1-.36a.09.09,0,0,1,.05-.12l1-.52a.09.09,0,0,1,.12,0,.09.09,0,0,1,0,.13l-1,.51h0A.1.1,0,0,1,348.39,199.5Zm77-.58-1.06-.45a.1.1,0,0,1-.05-.12.1.1,0,0,1,.13,0l1.06.45a.09.09,0,0,1,0,.12.1.1,0,0,1-.09.06Zm-74.93-.42a.1.1,0,0,1,.05-.13l1.05-.47a.1.1,0,0,1,.07.18l-1,.47h0A.1.1,0,0,1,350.46,198.5Zm72.81-.46-1.06-.43a.09.09,0,0,1-.06-.12.1.1,0,0,1,.13-.05l1.06.42a.09.09,0,0,1,0,.18Zm-70.71-.46a.11.11,0,0,1,.05-.13l1.07-.43a.09.09,0,0,1,.12,0,.09.09,0,0,1-.05.12l-1.06.44h0A.11.11,0,0,1,352.56,197.58Zm68.57-.38-1.07-.39a.1.1,0,0,1-.06-.13.09.09,0,0,1,.12-.05l1.08.39a.1.1,0,0,1,.06.13.1.1,0,0,1-.09.06Zm-66.43-.48a.09.09,0,0,1,.05-.12l1.08-.4a.09.09,0,0,1,.12.06.09.09,0,0,1-.05.12l-1.08.4h0A.09.09,0,0,1,354.7,196.72Zm64.28-.3-1.09-.37a.09.09,0,1,1,.06-.18l1.09.37a.1.1,0,0,1,.06.12.1.1,0,0,1-.09.07Zm-62.12-.48a.09.09,0,0,1,.06-.12l1.09-.37a.1.1,0,0,1,.12.06.1.1,0,0,1-.06.12L357,196h0A.09.09,0,0,1,356.86,195.94Zm59.94-.25-1.09-.35a.1.1,0,0,1-.07-.12.1.1,0,0,1,.12-.06l1.1.35a.09.09,0,0,1,.06.12.09.09,0,0,1-.09.06ZM359,195.22a.09.09,0,0,1,.06-.12l1.1-.33a.09.09,0,0,1,.06.18l-1.1.34h0A.1.1,0,0,1,359,195.22Zm55.57-.21-1.1-.32a.09.09,0,1,1,.05-.18l1.1.32a.1.1,0,0,1,.07.12.11.11,0,0,1-.1.07Zm-53.37-.44a.11.11,0,0,1,.07-.12l1.11-.3a.11.11,0,0,1,.12.07.09.09,0,0,1-.07.11l-1.11.31h0A.1.1,0,0,1,361.24,194.57Zm51.16-.18-1.11-.3a.09.09,0,0,1-.07-.11.1.1,0,0,1,.12-.07l1.11.29a.11.11,0,0,1,.07.12.1.1,0,0,1-.1.07ZM363.46,194a.11.11,0,0,1,.07-.12l1.12-.27a.09.09,0,0,1,.11.07.1.1,0,0,1-.07.12l-1.11.27h0A.1.1,0,0,1,363.46,194Zm46.72-.17-1.12-.26a.1.1,0,0,1-.07-.12.09.09,0,0,1,.11-.07l1.12.27a.09.09,0,0,1,.07.11.09.09,0,0,1-.09.08Zm-44.48-.36a.09.09,0,0,1,.07-.12l1.12-.24a.1.1,0,1,1,0,.19l-1.12.24h0A.1.1,0,0,1,365.7,193.45Zm42.24-.15c-.37-.09-.74-.17-1.12-.24a.09.09,0,0,1-.07-.12.09.09,0,0,1,.11-.07l1.12.24a.09.09,0,0,1,.07.11.08.08,0,0,1-.09.08Zm-40-.33a.1.1,0,0,1,.08-.11l1.13-.21a.09.09,0,0,1,.11.07.09.09,0,0,1-.08.11l-1.12.22h0A.1.1,0,0,1,367.94,193Zm37.75-.14-1.13-.21a.09.09,0,0,1-.07-.11.1.1,0,0,1,.11-.08l1.13.21a.11.11,0,0,1,.08.12.1.1,0,0,1-.1.07Zm-35.49-.27a.09.09,0,0,1,.08-.11l1.14-.19a.08.08,0,0,1,.1.08.09.09,0,0,1-.07.11l-1.14.18h0A.1.1,0,0,1,370.2,192.56Zm33.23-.14-1.13-.18a.1.1,0,1,1,0-.19l1.14.19s.08,0,.07.11a.09.09,0,0,1-.09.08Zm-31-.23a.1.1,0,0,1,.08-.11l1.14-.16a.11.11,0,0,1,.11.09.09.09,0,0,1-.08.1l-1.14.16h0A.1.1,0,0,1,372.47,192.19Zm28.7-.12-1.14-.15a.1.1,0,0,1-.08-.11.09.09,0,0,1,.1-.08l1.14.15a.11.11,0,0,1,.09.11.1.1,0,0,1-.1.08Zm-26.42-.19a.08.08,0,0,1,.08-.1l1.14-.14a.11.11,0,0,1,.11.09.09.09,0,0,1-.09.1l-1.14.14h0A.09.09,0,0,1,374.75,191.88Zm24.14-.1-1.14-.13a.08.08,0,0,1-.08-.1.09.09,0,0,1,.1-.09l1.14.13a.09.09,0,0,1,.09.1.11.11,0,0,1-.1.09ZM377,191.63a.09.09,0,0,1,.08-.11l1.15-.11a.1.1,0,0,1,.1.09.08.08,0,0,1-.08.1l-1.15.11h0A.1.1,0,0,1,377,191.63Zm19.58-.09-1.14-.1a.09.09,0,0,1-.09-.1.1.1,0,0,1,.1-.09l1.15.1a.08.08,0,0,1,.08.1.09.09,0,0,1-.09.09Zm-17.29-.12a.1.1,0,0,1,.08-.11l1.15-.08a.1.1,0,0,1,.1.09.09.09,0,0,1-.09.1l-1.14.09h0A.09.09,0,0,1,379.32,191.42Zm15-.06-1.14-.07a.09.09,0,0,1-.09-.1.1.1,0,0,1,.1-.09l1.14.07a.09.09,0,0,1,.09.1.09.09,0,0,1-.09.09Zm-12.71-.1a.09.09,0,0,1,.09-.1l1.15-.06s.09,0,.1.09a.1.1,0,0,1-.09.1l-1.15.06h0A.09.09,0,0,1,381.61,191.26Zm2.29-.11a.1.1,0,0,1,.09-.1l1.15,0h0a.09.09,0,0,1,.1.1.09.09,0,0,1-.09.09l-1.15,0h0A.1.1,0,0,1,383.9,191.15Zm8.13.09-1.15,0a.1.1,0,0,1,0-.2l1.15,0a.11.11,0,0,1,.09.1.1.1,0,0,1-.09.1Zm-5.83-.16a.09.09,0,0,1,.09-.09l1.15,0h0a.1.1,0,0,1,.1.1.09.09,0,0,1-.1.09l-1.14,0h0A.09.09,0,0,1,386.2,191.08Zm3.54.09h-1.15a.09.09,0,0,1-.09-.1.09.09,0,0,1,.09-.09h1.15a.09.09,0,0,1,.09.1.09.09,0,0,1-.09.09Z" transform="translate(-332.45 -178.14)"/><path class="cls-3" d="M337.19,229.7a8.45,8.45,0,0,0,.92-.68l.12.15a9.72,9.72,0,0,1-.94.69Zm1.76-1.44q.41-.4.78-.84l.15.13c-.26.29-.52.58-.79.84Zm1.49-1.73c.23-.31.44-.62.64-.95l.16.1c-.2.33-.42.65-.64,1Zm1.21-1.94c.17-.33.34-.68.49-1l.17.08c-.15.35-.32.7-.49,1Zm.9-2.09c.13-.36.24-.72.35-1.09l.18.05c-.1.37-.22.74-.35,1.1Zm.61-2.2c.08-.37.14-.75.2-1.12l.19,0c-.06.38-.12.77-.2,1.14Zm.33-2.26c0-.37.05-.76.06-1.14h.19c0,.38,0,.77-.06,1.15Zm0-3.42.19,0c0,.38,0,.77.05,1.15h-.19C343.54,215.37,343.52,215,343.5,214.62Zm-.29-2.27.18,0q.11.57.18,1.14l-.19,0C343.33,213.1,343.27,212.72,343.21,212.35Zm-.55-2.22.18,0c.11.36.22.73.31,1.11l-.19,0C342.87,210.86,342.77,210.49,342.66,210.13Zm-.83-2.13.18-.08c.16.35.31.71.45,1.07l-.18.07C342.14,208.7,342,208.35,341.83,208Zm-1.1-2,.16-.11c.2.32.41.66.59,1l-.17.1C341.13,206.65,340.93,206.32,340.73,206Zm-1.39-1.81.14-.13a10.58,10.58,0,0,1,.74.89l-.15.12C339.84,204.77,339.59,204.48,339.34,204.2Zm-1.67-1.54.1-.16a6.6,6.6,0,0,1,.9.74l-.13.14A8.68,8.68,0,0,0,337.67,202.66Z" transform="translate(-332.45 -178.14)"/><path class="cls-46" d="M337.44,230.33c.27-.16,6.79-4,6.79-14s-5.94-14-6.19-14.21l-.64,1,.32-.48-.32.48c.06,0,5.68,3.91,5.68,13.25a16.48,16.48,0,0,1-3.1,10,12.12,12.12,0,0,1-3.11,3Z" transform="translate(-332.45 -178.14)"/><path class="cls-47" d="M439.52,207.13a4,4,0,0,0,0-1.3,80.61,80.61,0,0,0-13.9-7.55,95.18,95.18,0,0,0-37.25-7.79c-15.84,0-27.38,3.18-34.27,5.85-7.49,2.91-11.18,5.78-11.33,5.9.26.31.35.45.71.91a46.92,46.92,0,0,1,11.09-5.76c6.79-2.62,18.16-5.75,33.8-5.75a94,94,0,0,1,36.8,7.7,75.14,75.14,0,0,1,14,7.68A.57.57,0,0,0,439.52,207.13Z" transform="translate(-332.45 -178.14)"/><path class="cls-48" d="M353.49,197.63c-2.27,13.68,14.66,27.87,37.81,31.7s43.75-4.15,46-17.84-14.67-27.87-37.81-31.7S355.75,183.94,353.49,197.63Z" transform="translate(-332.45 -178.14)"/><path class="cls-49" d="M373.31,191.37c-1.82,9,9,18.74,24.2,21.82s29-1.71,30.78-10.68-9-18.74-24.2-21.82S375.13,182.4,373.31,191.37Z" transform="translate(-332.45 -178.14)"/><path class="cls-50" d="M417.64,190.45c-.69,1.59.24,2.71,1.7,3.34s3,.46,3.62-1.07-.24-2.71-1.7-3.34S418.33,188.86,417.64,190.45Z" transform="translate(-332.45 -178.14)"/><path class="cls-50" d="M397.08,184.11c-.86,3.22,2.85,5.52,7.83,6.83s9.39,1,10.22-2.1-2.85-5.52-7.83-6.83S397.94,180.89,397.08,184.11Z" transform="translate(-332.45 -178.14)"/><path class="cls-51" d="M344.8,216.1c0-9.89-5.07-14.36-6-15.08a50.66,50.66,0,0,1,11.8-11.33,22.84,22.84,0,0,0-6.4,12.91,22.45,22.45,0,0,0,2.48,13,31.44,31.44,0,0,1-1.41,9,87,87,0,0,0,16.49,6.3,70.42,70.42,0,0,0,28,9.46c20.28,2.52,38.68-3.11,47.72-13.31-2.89,4.67-16.9,24.4-47.61,24.4-24.16,0-42.39-9.26-51.29-20A22.84,22.84,0,0,0,344.8,216.1Z" transform="translate(-332.45 -178.14)"/><path class="cls-3" d="M440.16,209.49l-1-.58a.1.1,0,0,1,0-.13.11.11,0,0,1,.13,0c.65.37,1,.59,1,.59a.09.09,0,0,1,0,.13.09.09,0,0,1-.08,0Zm-2-1.13-1-.53a.1.1,0,0,1,0-.13.09.09,0,0,1,.13,0l1,.53a.1.1,0,0,1,0,.13.11.11,0,0,1-.09.05Zm-2-1.05-1-.51a.1.1,0,0,1,.09-.17c.36.17.71.34,1,.51a.09.09,0,0,1,.05.12.1.1,0,0,1-.09.06Zm-2.07-1-1.05-.48a.09.09,0,0,1,0-.12.09.09,0,0,1,.12-.05l1.05.48a.1.1,0,0,1,0,.12.08.08,0,0,1-.08.06Zm-2.1-.94-1.05-.46a.09.09,0,1,1,.07-.17l1.06.45a.1.1,0,0,1,.05.13.11.11,0,0,1-.09.06Zm-87.82-.77a.1.1,0,0,1,.05-.13l.59-.24a.09.09,0,0,1,.07.17l-.59.25h0A.1.1,0,0,1,344.13,204.6Zm85.71-.13-1.07-.43a.1.1,0,0,1,0-.12.1.1,0,0,1,.12-.06l1.07.43a.1.1,0,0,1,0,.13.09.09,0,0,1-.09.06Zm-84.06-.55a.11.11,0,0,1,.05-.13l1.07-.42a.09.09,0,0,1,.12,0,.09.09,0,0,1,0,.13l-1.06.42h0A.11.11,0,0,1,345.78,203.92Zm81.93-.3-1.08-.41a.09.09,0,0,1-.05-.12.09.09,0,0,1,.12-.06l1.07.41a.1.1,0,0,1,.06.13.11.11,0,0,1-.09.06Zm-79.79-.54A.1.1,0,0,1,348,203l1.08-.4a.09.09,0,0,1,.12.06.09.09,0,0,1-.05.12l-1.08.4h0A.09.09,0,0,1,347.92,203.08Zm77.63-.26-1.08-.39a.09.09,0,0,1-.05-.12.09.09,0,0,1,.12-.06l1.08.39a.09.09,0,0,1,.06.12.1.1,0,0,1-.09.06Zm-75.48-.54a.1.1,0,0,1,.06-.12l1.09-.38a.09.09,0,0,1,.06.18l-1.08.38h0A.11.11,0,0,1,350.07,202.28Zm73.32-.23-1.09-.36a.09.09,0,0,1,.06-.18l1.09.36a.09.09,0,0,1,.06.12.1.1,0,0,1-.09.07Zm-71.14-.52a.1.1,0,0,1,.05-.12l1.1-.36a.1.1,0,0,1,.12.06.1.1,0,0,1-.06.12l-1.09.36h0A.09.09,0,0,1,352.25,201.53Zm69-.19-1.1-.35a.09.09,0,0,1-.06-.12.1.1,0,0,1,.12-.06l1.09.34a.1.1,0,0,1,.07.12.09.09,0,0,1-.09.07Zm-66.78-.52a.09.09,0,0,1,.06-.12l1.1-.33a.09.09,0,1,1,.06.18l-1.1.34h0A.09.09,0,0,1,354.43,200.82Zm64.58-.16-1.1-.32a.1.1,0,0,1-.07-.12.09.09,0,0,1,.12-.06l1.11.32a.09.09,0,0,1,.06.12.1.1,0,0,1-.09.07Zm-62.38-.5a.1.1,0,0,1,.06-.12l1.11-.31a.1.1,0,0,1,.12.07.11.11,0,0,1-.07.12l-1.1.31h0A.09.09,0,0,1,356.63,200.16ZM416.8,200l-1.1-.29a.1.1,0,0,1-.07-.12.1.1,0,0,1,.12-.07l1.1.3a.09.09,0,0,1,.07.12.1.1,0,0,1-.09.07Zm-58-.48a.1.1,0,0,1,.07-.12l1.11-.29a.1.1,0,0,1,.12.07.11.11,0,0,1-.07.12l-1.11.28h0A.1.1,0,0,1,358.84,199.55Zm55.74-.1-1.11-.28a.09.09,0,0,1-.07-.11.08.08,0,0,1,.11-.07l1.12.27a.11.11,0,0,1,.07.12.1.1,0,0,1-.09.07ZM361.07,199a.09.09,0,0,1,.07-.12l1.12-.26a.08.08,0,0,1,.11.07.09.09,0,0,1-.07.11l-1.12.27h0A.1.1,0,0,1,361.07,199Zm51.28-.07-1.12-.26a.09.09,0,0,1-.07-.11.09.09,0,0,1,.12-.07l1.12.25a.1.1,0,0,1,.07.12.1.1,0,0,1-.09.07Zm-49.05-.45a.1.1,0,0,1,.08-.12l1.12-.24a.09.09,0,0,1,.11.07.09.09,0,0,1-.07.11l-1.12.25h0A.1.1,0,0,1,363.3,198.46Zm46.81-.05-1.12-.23a.1.1,0,0,1-.08-.11A.1.1,0,0,1,409,198l1.12.23a.1.1,0,0,1,.08.12.1.1,0,0,1-.1.07ZM365.55,198a.1.1,0,0,1,.08-.11l1.13-.22a.09.09,0,0,1,.11.07.1.1,0,0,1-.08.12l-1.13.21h0A.1.1,0,0,1,365.55,198Zm42.31,0-1.13-.21a.09.09,0,0,1-.07-.11.09.09,0,0,1,.11-.08l1.13.21a.09.09,0,0,1,.07.11.09.09,0,0,1-.09.08Zm-40.05-.41a.09.09,0,0,1,.08-.11l1.13-.19a.09.09,0,0,1,.11.07.09.09,0,0,1-.08.11l-1.13.2h0A.09.09,0,0,1,367.81,197.55Zm37.79,0-1.13-.19a.09.09,0,0,1-.08-.11.11.11,0,0,1,.11-.08l1.14.19a.09.09,0,0,1,.07.11.09.09,0,0,1-.09.08Zm-35.52-.38a.09.09,0,0,1,.07-.11l1.14-.17a.1.1,0,1,1,0,.19l-1.14.17h0A.08.08,0,0,1,370.08,197.17Zm33.26,0L402.2,197a.1.1,0,0,1-.08-.11.09.09,0,0,1,.11-.08l1.13.16a.09.09,0,0,1,.08.11.08.08,0,0,1-.09.08Zm-31-.35a.1.1,0,0,1,.08-.11l1.14-.14a.08.08,0,0,1,.1.08.09.09,0,0,1-.08.11l-1.14.14h0A.09.09,0,0,1,372.35,196.84Zm28.71,0-1.14-.14a.08.08,0,0,1-.08-.1.1.1,0,0,1,.11-.09l1.14.14a.1.1,0,0,1,.08.11.1.1,0,0,1-.1.08Zm-26.43-.31a.09.09,0,0,1,.08-.11l1.14-.12a.09.09,0,0,1,.11.08.1.1,0,0,1-.09.11l-1.14.12h0A.08.08,0,0,1,374.63,196.56Zm24.15,0-1.14-.11a.1.1,0,0,1-.08-.11.08.08,0,0,1,.1-.08l1.14.11a.11.11,0,0,1,.09.11.1.1,0,0,1-.1.08Zm-21.87-.28a.1.1,0,0,1,.09-.1l1.14-.1a.1.1,0,1,1,0,.19l-1.15.1h0A.11.11,0,0,1,376.91,196.32Zm19.59.06-1.14-.09a.09.09,0,0,1-.09-.11.08.08,0,0,1,.1-.08l1.14.09a.09.09,0,0,1,.09.1.09.09,0,0,1-.09.09Zm-17.3-.24a.11.11,0,0,1,.09-.11l1.15-.07a.09.09,0,0,1,.1.09.1.1,0,0,1-.09.1l-1.15.07h0A.09.09,0,0,1,379.2,196.14Zm15,.06-1.14-.07a.09.09,0,0,1-.1-.1.11.11,0,0,1,.11-.09l1.14.07c.06,0,.1.05.09.1a.08.08,0,0,1-.09.09Zm-12.72-.2a.09.09,0,0,1,.1-.1l1.14-.05a.09.09,0,0,1,.1.09.09.09,0,0,1-.09.1l-1.15.05h0A.11.11,0,0,1,381.49,196Zm10.43.08-1.15-.05a.1.1,0,0,1-.09-.1.09.09,0,0,1,.1-.09l1.15,0a.11.11,0,0,1,.09.1.1.1,0,0,1-.1.1Zm-8.13-.17a.1.1,0,0,1,.09-.1l1.15,0c.05,0,.1,0,.1.1a.11.11,0,0,1-.1.1l-1.14,0h0A.09.09,0,0,1,383.79,195.91Zm5.84.08-1.15,0a.09.09,0,0,1-.1-.1.09.09,0,0,1,.1-.09l1.15,0a.1.1,0,0,1,.09.1.09.09,0,0,1-.09.09Zm-3.54-.12a.09.09,0,0,1,.09-.1h1.15a.1.1,0,0,1,.1.1.1.1,0,0,1-.1.09h-1.15A.09.09,0,0,1,386.09,195.87Z" transform="translate(-332.45 -178.14)"/><path class="cls-52" d="M439.91,209.9l0-1.36c-.11-.06-10.51-6.45-27.84-10.39a112.31,112.31,0,0,0-30.69-2.72A110.75,110.75,0,0,0,344,204l.45,1.06a109.47,109.47,0,0,1,37-8.51,111.29,111.29,0,0,1,30.38,2.69C428.92,203.17,439.8,209.83,439.91,209.9Z" transform="translate(-332.45 -178.14)"/><path class="cls-3" d="M390.23,233.07a.1.1,0,0,1,.1-.09h1.15a.09.09,0,0,1,.09.09.09.09,0,0,1-.09.1h-1.15A.11.11,0,0,1,390.23,233.07Zm-1.05.09-1.15,0a.09.09,0,0,1-.09-.1A.09.09,0,0,1,388,233l1.15,0a.1.1,0,0,1,.1.1.11.11,0,0,1-.1.09Zm3.35-.11a.1.1,0,0,1,.1-.1l1.14,0a.1.1,0,0,1,.1.09.09.09,0,0,1-.09.1l-1.15,0h0A.09.09,0,0,1,392.53,233.05Zm-5.65.06-1.15-.05a.09.09,0,0,1-.09-.1.09.09,0,0,1,.1-.09l1.15,0a.09.09,0,0,1,.09.09.09.09,0,0,1-.1.1Zm7.95-.13a.08.08,0,0,1,.09-.1l1.14-.06a.09.09,0,0,1,.1.09.08.08,0,0,1-.08.1l-1.15.06h0A.09.09,0,0,1,394.83,233Zm-10.25,0-1.14-.07a.09.09,0,0,1-.09-.1.1.1,0,0,1,.1-.09l1.14.07a.11.11,0,0,1,.1.1.1.1,0,0,1-.1.09Zm12.54-.15a.1.1,0,0,1,.09-.1l1.14-.08a.1.1,0,0,1,.11.08.11.11,0,0,1-.09.11l-1.15.08h0A.1.1,0,0,1,397.12,232.85Zm-14.83,0-1.15-.09a.09.09,0,0,1-.08-.11.08.08,0,0,1,.1-.08l1.14.09a.09.09,0,0,1,.09.1.09.09,0,0,1-.09.09Zm17.12-.18s0-.09.09-.1l1.14-.11a.09.09,0,0,1,.1.09.08.08,0,0,1-.08.1l-1.15.11h0A.11.11,0,0,1,399.41,232.67Zm-19.41,0-1.14-.12c-.06,0-.09-.05-.09-.11a.1.1,0,0,1,.11-.08l1.14.12a.1.1,0,0,1,0,.19Zm21.7-.21a.08.08,0,0,1,.08-.1l1.14-.14a.11.11,0,0,1,.11.09.09.09,0,0,1-.09.1l-1.14.14h0A.09.09,0,0,1,401.7,232.44Zm-24,0-1.14-.14a.11.11,0,0,1-.08-.11.1.1,0,0,1,.11-.08l1.14.14a.09.09,0,0,1,.08.11.11.11,0,0,1-.09.08Zm26.26-.24a.12.12,0,0,1,.09-.11l1.13-.16a.1.1,0,0,1,.11.08.09.09,0,0,1-.08.11l-1.14.16h0A.11.11,0,0,1,404,232.16Zm-28.54-.06-1.13-.17a.09.09,0,0,1-.08-.11.11.11,0,0,1,.11-.08l1.13.17a.1.1,0,0,1,.08.11.09.09,0,0,1-.09.08Zm30.82-.27a.09.09,0,0,1,.08-.11l1.13-.19a.1.1,0,0,1,0,.19l-1.13.19h0A.1.1,0,0,1,406.25,231.83Zm-33.09-.08-1.13-.19a.09.09,0,0,1-.08-.11.09.09,0,0,1,.11-.07l1.13.19c.06,0,.09.05.08.11a.11.11,0,0,1-.09.08Zm35.35-.31a.1.1,0,0,1,.08-.11l1.13-.22a.1.1,0,0,1,0,.19l-1.13.22h0A.1.1,0,0,1,408.51,231.44Zm-37.61-.08-1.13-.21a.1.1,0,1,1,0-.19l1.13.21a.1.1,0,0,1,.08.12.1.1,0,0,1-.1.07Zm39.87-.36a.09.09,0,0,1,.07-.11l1.12-.24a.1.1,0,0,1,.12.07.1.1,0,0,1-.07.11l-1.13.24h0A.1.1,0,0,1,410.77,231Zm-42.13-.08-1.13-.23a.1.1,0,0,1,0-.19l1.13.24a.09.09,0,0,1,.07.11.09.09,0,0,1-.09.08Zm44.37-.41a.1.1,0,0,1,.07-.12l1.12-.27a.09.09,0,0,1,.11.07.1.1,0,0,1-.07.12l-1.12.27h0A.1.1,0,0,1,413,230.51Zm-46.62-.07-1.12-.26a.09.09,0,0,1-.07-.11.09.09,0,0,1,.12-.07l1.11.26a.09.09,0,0,1,.08.11.1.1,0,0,1-.1.07Zm48.85-.48a.1.1,0,0,1,.07-.12l1.11-.29a.09.09,0,0,1,.12.06.1.1,0,0,1-.07.12l-1.11.3h0A.1.1,0,0,1,415.24,230Zm-51.09,0-1.11-.28a.11.11,0,0,1-.07-.12.1.1,0,0,1,.12-.07l1.11.28a.1.1,0,0,1,.07.12.1.1,0,0,1-.09.07Zm53.31-.56a.09.09,0,0,1,.06-.12l1.11-.32a.09.09,0,0,1,.12.06.1.1,0,0,1-.07.12l-1.1.32h0A.1.1,0,0,1,417.46,229.36Zm-55.53,0-1.11-.3a.1.1,0,1,1,.05-.19l1.11.3a.1.1,0,0,1,.07.12.11.11,0,0,1-.1.07Zm57.73-.65a.09.09,0,0,1,.06-.12l1.1-.34a.09.09,0,1,1,.06.18l-1.1.35h0A.09.09,0,0,1,419.66,228.7Zm-60,0-1.1-.32a.1.1,0,0,1-.07-.12.09.09,0,0,1,.12-.06l1.1.32a.1.1,0,0,1,.07.12.1.1,0,0,1-.09.07Zm-2.2-.65-1.1-.34a.09.09,0,0,1-.06-.12.09.09,0,0,1,.12-.06l1.09.34a.1.1,0,0,1,.07.12.1.1,0,0,1-.09.06Zm64.34-.08a.1.1,0,0,1,.06-.13c.36-.12.73-.24,1.08-.37a.09.09,0,0,1,.12.06.09.09,0,0,1-.06.12l-1.08.38h0A.09.09,0,0,1,421.85,228Zm-66.54-.61-1.09-.36a.11.11,0,0,1-.06-.13.1.1,0,0,1,.12-.06c.37.13.73.25,1.1.36a.13.13,0,0,1,.06.13.1.1,0,0,1-.09.06Zm68.7-.16a.1.1,0,0,1,.06-.12l1.08-.4a.09.09,0,0,1,.12,0,.1.1,0,0,1-.06.13l-1.07.4h0A.11.11,0,0,1,424,227.23Zm-70.87-.58-1.09-.38a.1.1,0,0,1-.06-.12.1.1,0,0,1,.13-.06l1.08.38a.1.1,0,0,1,.06.13.11.11,0,0,1-.09.06Zm73-.23a.1.1,0,0,1,.06-.13l1.06-.43a.1.1,0,0,1,.12,0,.1.1,0,0,1,0,.13l-1.06.43h0A.11.11,0,0,1,426.16,226.42ZM351,225.88l-1.08-.4a.09.09,0,0,1-.05-.12.1.1,0,0,1,.12-.06l1.08.4a.1.1,0,0,1,0,.19Zm77.32-.34a.09.09,0,0,1,0-.12l1.05-.46a.1.1,0,0,1,.13,0,.1.1,0,0,1,0,.13l-1.06.45h0A.09.09,0,0,1,428.29,225.54Zm-79.47-.47-1.07-.41a.09.09,0,0,1-.05-.13.09.09,0,0,1,.12-.05l1.07.42a.09.09,0,0,1,.05.12.09.09,0,0,1-.09.06Zm81.57-.45a.1.1,0,0,1,.05-.13l1-.49a.09.09,0,0,1,.12.05.08.08,0,0,1,0,.12l-1,.49h0A.11.11,0,0,1,430.39,224.62Zm-83.71-.39-1.06-.44a.09.09,0,0,1,.07-.17l1.06.43a.1.1,0,0,1,.06.13.11.11,0,0,1-.09.06Zm85.79-.6a.09.09,0,0,1,0-.13l1-.52a.11.11,0,0,1,.13,0,.09.09,0,0,1,0,.13l-1,.52h0A.09.09,0,0,1,432.47,223.63Zm2-1a.1.1,0,0,1,0-.13l1-.55a.09.09,0,0,1,.13,0,.1.1,0,0,1,0,.13l-1,.55h0A.11.11,0,0,1,434.51,222.58Zm2-1.12a.09.09,0,0,1,0-.13l1-.59a.1.1,0,0,1,.13,0,.09.09,0,0,1,0,.13c-.29.18-.62.38-1,.59h0A.1.1,0,0,1,436.52,221.46Zm2-1.19a.1.1,0,0,1,0-.14c.62-.4,1-.63,1-.64a.09.09,0,0,1,.13,0,.09.09,0,0,1,0,.13s-.33.24-1,.65h-.05A.09.09,0,0,1,438.49,220.27Z" transform="translate(-332.45 -178.14)"/><path class="cls-53" d="M390.4,233.65a100,100,0,0,0,23.31-2.72A91.21,91.21,0,0,0,433,224a33.71,33.71,0,0,0,6.54-4l-.34-.86a52.87,52.87,0,0,1-6.76,3.89,90.21,90.21,0,0,1-19,6.83,100.41,100.41,0,0,1-29.5,2.46,118.54,118.54,0,0,1-38.16-9.18l-.44,1.06a119.69,119.69,0,0,0,38.56,9.27C386,233.58,388.23,233.65,390.4,233.65Z" transform="translate(-332.45 -178.14)"/><g class="cls-4"><path class="cls-54" d="M342.61,212.7c0-3.81-1.19-8.76-3.93-11.5l.13-.18c.92.72,6,5.18,6,15.08a22.8,22.8,0,0,1-6.23,15.5,25.57,25.57,0,0,1-3.09-4.36C340.4,225.81,342.61,218.65,342.61,212.7Z" transform="translate(-332.45 -178.14)"/></g><path class="cls-55" d="M338.38,201.71c2.21,2.69,2.78,6.51,2.21,10.62-.71,5-3.07,9.07-7.22,10.58a18.47,18.47,0,0,1-.92-5.49C332.45,212.72,334.49,207.15,338.38,201.71Z" transform="translate(-332.45 -178.14)"/><path class="cls-13" d="M390.34,237.1a.1.1,0,0,1-.1-.1.11.11,0,0,1,.1-.09h1.15a.1.1,0,0,1,.1.1.1.1,0,0,1-.1.09h-1.15Zm2.2-.1a.1.1,0,0,1,.1-.1l1.14,0a.1.1,0,1,1,0,.19l-1.15,0h0A.1.1,0,0,1,392.54,237Zm-3.35.09-1.15,0a.1.1,0,0,1-.09-.1.09.09,0,0,1,.1-.09h0l1.15,0a.1.1,0,0,1,.09.1.1.1,0,0,1-.1.1Zm5.65-.15a.11.11,0,0,1,.09-.1l1.15-.05a.11.11,0,0,1,.1.09.11.11,0,0,1-.09.11l-1.15,0h0A.09.09,0,0,1,394.84,236.94Zm-7.95.08-1.15,0a.1.1,0,0,1-.09-.1s.05-.1.1-.09l1.15,0a.11.11,0,0,1,.09.1.09.09,0,0,1-.09.09Zm10.24-.19a.1.1,0,0,1,.09-.1l1.15-.08a.1.1,0,1,1,0,.19l-1.15.08h0A.11.11,0,0,1,397.13,236.83Zm-12.53.09-1.15-.07a.1.1,0,0,1-.09-.1.11.11,0,0,1,.1-.09l1.15.07a.1.1,0,0,1,.09.1.11.11,0,0,1-.1.09Zm-2.3-.15-1.14-.09a.1.1,0,0,1-.09-.1.09.09,0,0,1,.1-.09l1.15.09a.1.1,0,0,1,.09.1.11.11,0,0,1-.1.09Zm17.12-.11a.1.1,0,0,1,.09-.1l1.14-.11a.11.11,0,0,1,.11.09.1.1,0,0,1-.09.1l-1.14.11h0A.11.11,0,0,1,399.42,236.66ZM380,236.58l-1.14-.12a.1.1,0,0,1-.09-.1.11.11,0,0,1,.11-.09l1.14.12a.1.1,0,0,1,.09.1.11.11,0,0,1-.1.09Zm21.7-.14a.1.1,0,0,1,.08-.11l1.14-.13a.09.09,0,0,1,.11.08.1.1,0,0,1-.08.11l-1.15.13h0A.09.09,0,0,1,401.71,236.44Zm-24-.1-1.14-.14a.1.1,0,1,1,0-.19l1.14.14a.08.08,0,0,1,.08.1.1.1,0,0,1-.09.09Zm26.26-.18a.09.09,0,0,1,.08-.11l1.14-.17a.11.11,0,0,1,.11.08c0,.06,0,.11-.08.11l-1.14.17h0A.11.11,0,0,1,404,236.16Zm-28.55-.11-1.13-.16a.09.09,0,0,1-.08-.11c0-.06,0-.09.11-.08l1.13.16a.1.1,0,0,1,0,.19Zm30.82-.23a.09.09,0,0,1,.08-.11l1.13-.2a.1.1,0,0,1,.11.08.09.09,0,0,1-.08.11l-1.13.19h0A.11.11,0,0,1,406.26,235.82Zm-33.09-.11-1.13-.19a.09.09,0,0,1-.08-.11.1.1,0,0,1,.11-.08l1.13.19a.1.1,0,0,1,.08.11.1.1,0,0,1-.1.08Zm35.35-.29a.09.09,0,0,1,.08-.11l1.13-.23a.1.1,0,0,1,.11.08.09.09,0,0,1-.08.11l-1.12.22h0A.1.1,0,0,1,408.52,235.42Zm-37.62-.1-1.13-.21a.09.09,0,0,1-.07-.11.1.1,0,0,1,.11-.08c.37.08.75.15,1.13.21a.1.1,0,0,1,.07.12.08.08,0,0,1-.09.07Zm39.87-.36a.1.1,0,0,1,.08-.11l1.12-.26a.1.1,0,0,1,0,.19l-1.12.25h0A.11.11,0,0,1,410.77,235Zm-42.12-.07-1.13-.24a.1.1,0,0,1-.07-.12.09.09,0,0,1,.11-.07l1.13.24a.09.09,0,0,1,.07.11.09.09,0,0,1-.09.08Zm44.36-.45a.09.09,0,0,1,.07-.11l1.11-.28a.09.09,0,0,1,.12.07.09.09,0,0,1-.07.11l-1.11.28h0A.1.1,0,0,1,413,234.44Zm-46.61,0-1.12-.27a.09.09,0,0,1-.07-.11.1.1,0,0,1,.12-.07l1.11.26a.09.09,0,0,1,.07.11.09.09,0,0,1-.09.08Zm48.84-.53a.09.09,0,0,1,.06-.12l1.11-.31a.09.09,0,0,1,.12.06.1.1,0,0,1-.07.12l-1.11.31h0A.1.1,0,0,1,415.24,233.87Zm-51.07,0-1.12-.29a.09.09,0,0,1-.06-.12.08.08,0,0,1,.11-.06l1.11.29a.1.1,0,0,1,.07.12.1.1,0,0,1-.09.07S364.17,233.86,364.17,233.85Zm53.27-.62a.11.11,0,0,1,.07-.12l1.09-.34a.1.1,0,0,1,.12.06.09.09,0,0,1-.06.12l-1.1.35h0A.11.11,0,0,1,417.44,233.23Zm-55.49,0-1.11-.32a.09.09,0,0,1-.06-.12.09.09,0,0,1,.11-.07l1.11.32a.09.09,0,0,1,.06.12.1.1,0,0,1-.09.07Zm-2.21-.66-1.1-.34a.11.11,0,0,1-.06-.13.1.1,0,0,1,.12-.06l1.1.35a.1.1,0,0,1,.06.12.1.1,0,0,1-.09.07Zm59.89-.06a.1.1,0,0,1,.06-.12l1.09-.38a.1.1,0,0,1,.12.06.09.09,0,0,1-.06.12l-1.09.38h0A.1.1,0,0,1,419.63,232.54Zm-62.08-.65c-.37-.12-.73-.25-1.08-.38a.09.09,0,0,1-.06-.12.1.1,0,0,1,.12-.06l1.08.38a.09.09,0,0,1,.06.12.1.1,0,0,1-.09.07Zm64.25-.11a.09.09,0,0,1,.06-.12l1.07-.4a.1.1,0,0,1,.13.05.1.1,0,0,1-.06.13l-1.08.4h0A.1.1,0,0,1,421.8,231.78Zm-66.41-.66-1.08-.41a.09.09,0,0,1-.05-.12.09.09,0,0,1,.12-.06l1.07.41a.09.09,0,0,1,.06.12.11.11,0,0,1-.09.07ZM424,231a.09.09,0,0,1,.05-.12l1.07-.43a.09.09,0,0,1,.07.17l-1.06.44h0A.09.09,0,0,1,424,231Zm-70.71-.68-1.06-.44a.09.09,0,1,1,.08-.17l1.05.44a.09.09,0,0,1,.06.12.11.11,0,0,1-.09.06Zm72.83-.2a.1.1,0,0,1,.05-.12l1.05-.46a.1.1,0,0,1,.13,0,.1.1,0,0,1-.05.13l-1.05.46h0A.1.1,0,0,1,426.07,230.08Zm-74.94-.7-1.05-.48a.09.09,0,0,1-.05-.12.1.1,0,0,1,.13-.05l1,.48a.09.09,0,0,1,.05.12.08.08,0,0,1-.08.06Zm77-.24a.09.09,0,0,1,0-.12l1-.5a.1.1,0,0,1,.13,0,.09.09,0,0,1-.05.12l-1,.5h0A.1.1,0,0,1,428.17,229.14ZM349,228.4c-.37-.17-.71-.35-1-.51a.11.11,0,0,1,0-.13.09.09,0,0,1,.13,0l1,.51a.11.11,0,0,1,0,.13.1.1,0,0,1-.09.06Zm81.2-.26a.09.09,0,0,1,0-.13l1-.53a.11.11,0,0,1,.13,0,.11.11,0,0,1,0,.13c-.33.18-.67.35-1,.53h0A.09.09,0,0,1,430.24,228.14ZM347,227.35l-1-.57a.1.1,0,0,1,0-.13.1.1,0,0,1,.13,0l1,.57a.1.1,0,0,1,0,.18Zm85.27-.28a.09.09,0,0,1,0-.13l1-.56a.1.1,0,0,1,.13,0,.09.09,0,0,1,0,.13l-1,.57h0A.1.1,0,0,1,432.27,227.07ZM345,226.18l-.26-.18a.09.09,0,0,1,0-.13.09.09,0,0,1,.13,0l.26.17a.09.09,0,0,1,0,.13.09.09,0,0,1-.08,0Zm89.26-.25a.09.09,0,0,1,0-.13l1-.6a.09.09,0,0,1,.13,0,.09.09,0,0,1,0,.13c-.31.2-.64.4-1,.6l0,0A.09.09,0,0,1,434.27,225.93Zm2-1.21a.1.1,0,0,1,0-.14c.33-.21.65-.43.95-.64a.09.09,0,0,1,.13,0,.09.09,0,0,1,0,.13l-1,.64-.05,0A.12.12,0,0,1,436.22,224.72Zm1.9-1.31a.09.09,0,0,1,0-.13c.6-.44.91-.69.91-.7a.09.09,0,0,1,.13,0,.09.09,0,0,1,0,.13s-.32.27-.92.71h-.05S438.13,223.44,438.12,223.41Z" transform="translate(-332.45 -178.14)"/><path class="cls-56" d="M438.76,223.89A87.83,87.83,0,0,1,427.11,230a95.27,95.27,0,0,1-37.26,7.79c-15.84,0-27.38-3.18-34.26-5.85-7.5-2.91-10.83-5.52-11-5.64.27-.31,0-.72.36-1.17a47.15,47.15,0,0,0,11.1,5.76c6.78,2.62,18.16,5.75,33.79,5.75a94,94,0,0,0,36.8-7.7,83,83,0,0,0,12.56-6.67C439.11,222.66,438.92,223.42,438.76,223.89Z" transform="translate(-332.45 -178.14)"/><path class="cls-6" d="M337.8,205.26c1,.49.92,1.93.32,3.48s-1.52,2.59-2.5,2.11-.92-1.94-.31-3.48S336.79,204.76,337.8,205.26Z" transform="translate(-332.45 -178.14)"/><path class="cls-6" d="M335,211.83c.8.14,1.05.82,1,1.6s-.47,1.35-1.24,1.21-1.06-.82-1-1.59S334.19,211.69,335,211.83Z" transform="translate(-332.45 -178.14)"/><path class="cls-57" d="M445.59,213.65c-4-.23-9.86.1-11.49,1.73s5.27,4.46,11.2,5.32,11.16.51,7.52-2.74S446.44,213.7,445.59,213.65Z" transform="translate(-332.45 -178.14)"/><path class="cls-58" d="M434.1,215.38a4.21,4.21,0,0,1,1.54-.87c-.47,2.2,6.12,4.34,13.78,4.89,2.55.18,3.75-.13,4.14-.67,2,2.53-2.83,2.76-8.26,2C439.37,219.84,432.47,217,434.1,215.38Z" transform="translate(-332.45 -178.14)"/><path class="cls-59" d="M450.11,216.36c-1.86-1.17-3-2.18-4.5-2.43a33.06,33.06,0,0,0-7.69.39c-1.69.36,3.51,2.83,6.45,3.3S453.41,218.45,450.11,216.36Z" transform="translate(-332.45 -178.14)"/><path class="cls-60" d="M426.77,190s7.55,6,11.13,12.23c0,0,5.72-3.6,8.74-6.11C450.28,193.09,448.38,186.93,426.77,190Z" transform="translate(-332.45 -178.14)"/><path class="cls-61" d="M431,189.49c-1.32,4.68,4.67,8,9.81,7.45,6.19-.66,6.84-3.4,6.47-5.32,1.4,1.45.85,3.24-.66,4.5-3,2.51-8.74,6.11-8.74,6.11C434.32,196,426.77,190,426.77,190,428.28,189.79,429.7,189.62,431,189.49Z" transform="translate(-332.45 -178.14)"/><path class="cls-62" d="M432.84,191.58c-.18,1.95,2.68,3.36,6.34,3.66s6.73-.67,6.89-2.55-2.72-3-6.37-3.27S433,189.63,432.84,191.58Z" transform="translate(-332.45 -178.14)"/><path class="cls-6" d="M436.67,190.42c0,.61,1,.86,2.25.89s2.21-.22,2.19-.81-1-.86-2.25-.89S436.65,189.81,436.67,190.42Z" transform="translate(-332.45 -178.14)"/><path class="cls-6" d="M441.73,190.76c-.15.43.23.7.77.83s1.05,0,1.2-.37-.22-.7-.76-.82S441.89,190.33,441.73,190.76Z" transform="translate(-332.45 -178.14)"/><path class="cls-63" d="M423.69,241.39s9-6.34,12.61-12.57c0,0,3.89,2,9.26,5.35C450.09,237,443.32,244.82,423.69,241.39Z" transform="translate(-332.45 -178.14)"/><path class="cls-64" d="M436.3,228.82l1.3.69a8,8,0,0,0-4.45,7.16c.09,3.82,6.44,4.44,12.05,2.48-3,2.43-10.08,4.24-21.51,2.24C423.69,241.39,432.72,235.05,436.3,228.82Z" transform="translate(-332.45 -178.14)"/><path class="cls-65" d="M436.48,231.28c-.94,1.59-1.05,4.25,2.27,5.69,2.49,1.45,5.85,1.1,6.75-.43s-1.21-2.83-3.7-4.28S437.41,229.69,436.48,231.28Z" transform="translate(-332.45 -178.14)"/><path class="cls-6" d="M438.47,231.61c-.24.56.56,1.21,1.66,1.75s2.1.73,2.33.19-.56-1.21-1.66-1.75S438.71,231,438.47,231.61Z" transform="translate(-332.45 -178.14)"/><path class="cls-6" d="M442.82,234c-.26.37,0,.73.53,1s1,.31,1.26-.05,0-.73-.54-1S443.08,233.6,442.82,234Z" transform="translate(-332.45 -178.14)"/></g></g></svg>