<svg xmlns="http://www.w3.org/2000/svg" xmlns:xlink="http://www.w3.org/1999/xlink" viewBox="0 0 121.66 86.75"><defs><style>.cls-1{isolation:isolate;}.cls-2{fill:url(#radial-gradient);}.cls-3{fill:#00255b;}.cls-18,.cls-4,.cls-5,.cls-52,.cls-54,.cls-55,.cls-57,.cls-58,.cls-60,.cls-61{opacity:0.5;}.cls-13,.cls-4,.cls-43,.cls-44,.cls-48,.cls-49,.cls-50,.cls-54,.cls-57,.cls-60{mix-blend-mode:multiply;}.cls-18,.cls-40,.cls-47,.cls-5,.cls-52,.cls-55,.cls-58,.cls-6,.cls-61{mix-blend-mode:screen;}.cls-5{fill:url(#radial-gradient-3);}.cls-6{fill:#e9fbff;opacity:0.7;}.cls-7{fill:#c700cd;}.cls-40,.cls-45,.cls-8{opacity:0.3;}.cls-45,.cls-46,.cls-8{mix-blend-mode:overlay;}.cls-45,.cls-46,.cls-9{fill:#fff;}.cls-10{fill:url(#radial-gradient-4);}.cls-11{fill:url(#radial-gradient-5);}.cls-12{fill:#bc6600;}.cls-14{fill:url(#radial-gradient-6);}.cls-15{fill:url(#radial-gradient-7);}.cls-16{fill:url(#radial-gradient-8);}.cls-17{fill:url(#radial-gradient-9);}.cls-19{fill:url(#radial-gradient-10);}.cls-20{fill:url(#radial-gradient-11);}.cls-21{fill:url(#radial-gradient-12);}.cls-22{fill:url(#radial-gradient-13);}.cls-23{fill:url(#radial-gradient-14);}.cls-24{fill:url(#radial-gradient-15);}.cls-25{fill:url(#radial-gradient-16);}.cls-26{fill:url(#radial-gradient-17);}.cls-27{fill:url(#radial-gradient-18);}.cls-28{fill:url(#radial-gradient-19);}.cls-29{fill:url(#radial-gradient-20);}.cls-30{fill:url(#radial-gradient-21);}.cls-31{fill:url(#radial-gradient-22);}.cls-32{fill:url(#radial-gradient-23);}.cls-33{fill:url(#radial-gradient-24);}.cls-34{fill:url(#radial-gradient-25);}.cls-35{fill:url(#radial-gradient-26);}.cls-36{fill:url(#radial-gradient-27);}.cls-37{fill:url(#radial-gradient-28);}.cls-38{fill:url(#radial-gradient-29);}.cls-39{fill:url(#radial-gradient-30);}.cls-41{fill:#ffdb00;}.cls-42{fill:url(#radial-gradient-31);}.cls-43,.cls-48,.cls-49{opacity:0.4;}.cls-43{fill:url(#radial-gradient-33);}.cls-44{fill:url(#radial-gradient-34);}.cls-46{opacity:0.1;}.cls-47{fill:#f9ffae;}.cls-48{fill:url(#radial-gradient-35);}.cls-49{fill:url(#radial-gradient-36);}.cls-50{fill:url(#radial-gradient-37);}.cls-51{fill:url(#radial-gradient-38);}.cls-52{fill:url(#radial-gradient-39);}.cls-53,.cls-56,.cls-59{stroke:#00255b;stroke-miterlimit:10;stroke-width:0.19px;}.cls-53{fill:url(#radial-gradient-40);}.cls-54{fill:url(#radial-gradient-41);}.cls-55{fill:url(#radial-gradient-42);}.cls-56{fill:url(#radial-gradient-43);}.cls-57{fill:url(#radial-gradient-44);}.cls-58{fill:url(#radial-gradient-45);}.cls-59{fill:url(#radial-gradient-46);}.cls-60{fill:url(#radial-gradient-47);}.cls-61{fill:url(#radial-gradient-48);}</style><radialGradient id="radial-gradient" cx="1466" cy="198.04" r="29.71" gradientTransform="matrix(-1, 0, 0, 1, 1912.42, 0)" gradientUnits="userSpaceOnUse"><stop offset="0" stop-color="#00cbff"/><stop offset="0.09" stop-color="#00c3fa"/><stop offset="0.23" stop-color="#00aced"/><stop offset="0.4" stop-color="#0086d7"/><stop offset="0.57" stop-color="#005cbf"/><stop offset="1" stop-color="#002479"/></radialGradient><radialGradient id="radial-gradient-3" cx="1464.28" cy="155.09" r="24.76" gradientTransform="matrix(-1, 0.03, 0.03, 0.92, 1905.17, 12.16)" xlink:href="#radial-gradient"/><radialGradient id="radial-gradient-4" cx="1509.11" cy="247.62" r="19.42" xlink:href="#radial-gradient"/><radialGradient id="radial-gradient-5" cx="1508.73" cy="247.71" r="18.83" gradientTransform="matrix(-1, 0, 0, 1, 1912.42, 0)" gradientUnits="userSpaceOnUse"><stop offset="0" stop-color="#edff6a"/><stop offset="0.11" stop-color="#effc62"/><stop offset="0.28" stop-color="#f4f54b"/><stop offset="0.49" stop-color="#fcea25"/><stop offset="0.57" stop-color="#ffe515"/><stop offset="1" stop-color="#ff9415"/></radialGradient><radialGradient id="radial-gradient-6" cx="1508.75" cy="249" r="16.23" gradientTransform="matrix(-1, 0, 0, 1, 1912.42, 0)" gradientUnits="userSpaceOnUse"><stop offset="0" stop-color="#edff6a"/><stop offset="0.11" stop-color="#effc62"/><stop offset="0.28" stop-color="#f4f54b"/><stop offset="0.49" stop-color="#fcea25"/><stop offset="0.57" stop-color="#ffe515"/><stop offset="1" stop-color="#ffa415"/></radialGradient><radialGradient id="radial-gradient-7" cx="1508.8" cy="256.97" r="6.54" xlink:href="#radial-gradient-6"/><radialGradient id="radial-gradient-8" cx="1510.28" cy="255.39" r="8.06" gradientTransform="matrix(-1, 0, 0, 1, 1912.42, 0)" gradientUnits="userSpaceOnUse"><stop offset="0" stop-color="#d5ffff"/><stop offset="0.17" stop-color="#cafaff"/><stop offset="0.46" stop-color="#acebff"/><stop offset="0.85" stop-color="#7dd3ff"/><stop offset="1" stop-color="#68c9ff"/></radialGradient><radialGradient id="radial-gradient-9" cx="1510.28" cy="255.79" r="7.64" xlink:href="#radial-gradient-8"/><radialGradient id="radial-gradient-10" cx="1508.2" cy="257.58" r="4.96" xlink:href="#radial-gradient-8"/><radialGradient id="radial-gradient-11" cx="1510.45" cy="255.27" r="6.57" xlink:href="#radial-gradient-8"/><radialGradient id="radial-gradient-12" cx="1511.72" cy="254.1" r="3.88" xlink:href="#radial-gradient-8"/><radialGradient id="radial-gradient-13" cx="1525.64" cy="249.67" r="19.43" xlink:href="#radial-gradient"/><radialGradient id="radial-gradient-14" cx="1525.26" cy="249.76" r="18.82" xlink:href="#radial-gradient-5"/><radialGradient id="radial-gradient-15" cx="1525.28" cy="251.05" r="16.23" xlink:href="#radial-gradient-6"/><radialGradient id="radial-gradient-16" cx="1525.32" cy="259.02" r="6.54" xlink:href="#radial-gradient-6"/><radialGradient id="radial-gradient-17" cx="1526.81" cy="257.44" r="8.06" xlink:href="#radial-gradient-8"/><radialGradient id="radial-gradient-18" cx="1526.81" cy="257.84" r="7.64" xlink:href="#radial-gradient-8"/><radialGradient id="radial-gradient-19" cx="1524.72" cy="259.63" r="4.96" xlink:href="#radial-gradient-8"/><radialGradient id="radial-gradient-20" cx="1526.98" cy="257.32" r="6.57" xlink:href="#radial-gradient-8"/><radialGradient id="radial-gradient-21" cx="1528.24" cy="256.15" r="3.88" xlink:href="#radial-gradient-8"/><radialGradient id="radial-gradient-22" cx="1541.48" cy="247" r="19.43" xlink:href="#radial-gradient"/><radialGradient id="radial-gradient-23" cx="1541.1" cy="247.09" r="18.82" xlink:href="#radial-gradient-5"/><radialGradient id="radial-gradient-24" cx="1541.12" cy="248.38" r="16.23" xlink:href="#radial-gradient-6"/><radialGradient id="radial-gradient-25" cx="1541.16" cy="256.35" r="6.54" xlink:href="#radial-gradient-6"/><radialGradient id="radial-gradient-26" cx="1542.65" cy="254.77" r="8.06" xlink:href="#radial-gradient-8"/><radialGradient id="radial-gradient-27" cx="1542.65" cy="255.17" r="7.64" xlink:href="#radial-gradient-8"/><radialGradient id="radial-gradient-28" cx="1540.56" cy="256.97" r="4.96" xlink:href="#radial-gradient-8"/><radialGradient id="radial-gradient-29" cx="1542.82" cy="254.65" r="6.57" xlink:href="#radial-gradient-8"/><radialGradient id="radial-gradient-30" cx="1544.08" cy="253.48" r="3.88" xlink:href="#radial-gradient-8"/><radialGradient id="radial-gradient-31" cx="1583.67" cy="208.2" r="30.51" xlink:href="#radial-gradient"/><radialGradient id="radial-gradient-33" cx="1571.53" cy="216.65" r="10.31" xlink:href="#radial-gradient"/><radialGradient id="radial-gradient-34" cx="1520.92" cy="199.25" r="34.73" xlink:href="#radial-gradient-6"/><radialGradient id="radial-gradient-35" cx="1520.13" cy="203.03" r="34.3" xlink:href="#radial-gradient"/><radialGradient id="radial-gradient-36" cx="1519.67" cy="226.81" r="33.71" xlink:href="#radial-gradient"/><radialGradient id="radial-gradient-37" cx="1520.17" cy="123.52" r="33.9" gradientTransform="translate(1912.42 353.94) rotate(180)" xlink:href="#radial-gradient-6"/><radialGradient id="radial-gradient-38" cx="1579.75" cy="208.2" r="30.32" xlink:href="#radial-gradient"/><radialGradient id="radial-gradient-39" cx="749.13" cy="732.19" r="9.99" gradientTransform="matrix(-0.39, -1.03, -2.03, -0.04, 2112.05, 1012.37)" xlink:href="#radial-gradient"/><radialGradient id="radial-gradient-40" cx="1463.78" cy="211.73" r="16.68" xlink:href="#radial-gradient"/><radialGradient id="radial-gradient-41" cx="1463.78" cy="212.94" r="16.06" xlink:href="#radial-gradient"/><radialGradient id="radial-gradient-42" cx="1468.37" cy="213.13" r="10.42" xlink:href="#radial-gradient"/><radialGradient id="radial-gradient-43" cx="1470.03" cy="185.62" r="21.87" xlink:href="#radial-gradient"/><radialGradient id="radial-gradient-44" cx="1470.03" cy="186.05" r="21.57" xlink:href="#radial-gradient"/><radialGradient id="radial-gradient-45" cx="1537.81" cy="182.81" r="12.77" gradientTransform="matrix(-0.95, 0, 0, 1, 1902.58, -1.07)" xlink:href="#radial-gradient"/><radialGradient id="radial-gradient-46" cx="1471.77" cy="466.65" r="23.07" gradientTransform="translate(1912.42 713.42) rotate(180)" xlink:href="#radial-gradient"/><radialGradient id="radial-gradient-47" cx="1472.99" cy="225.17" r="22.28" xlink:href="#radial-gradient"/><radialGradient id="radial-gradient-48" cx="1446.47" cy="710.23" r="10.24" gradientTransform="matrix(-0.87, -0.39, -0.53, 1.07, 2077.13, 36.35)" xlink:href="#radial-gradient"/></defs><title>dirijabl rozoviy</title><g class="cls-1"><g id="Слой_1" data-name="Слой 1"><path class="cls-2" d="M437.53,227.84h9.7s2.71-2.39,2.71-11.42S447.23,205,447.23,205h-9.7Z" transform="translate(-332.79 -178.57)"/><path class="cls-3" d="M437.51,227.88c2.94,0,6.21.43,9.11,0,1.27-.19,1.54-1.06,2.06-2.37,1.94-4.89,1.87-11.22.61-16.25-.27-1.1-.86-3.74-2.07-4.3s-3.79,0-5.06,0h-4.61s-.11,0-.11,0v22.85c0,.05.19,0,.19,0V208.1c0-.7-.16-2.89.08-3.07.42-.3,2.27,0,2.76,0h4.23c1.45,0,2.3-.41,3.06.8,1.68,2.64,2,6.23,2.07,9.25.11,3.68,0,7.86-1.68,11.23-.92,1.86-1.36,1.49-3.41,1.49h-7.19C437.47,227.8,437.38,227.88,437.51,227.88Z" transform="translate(-332.79 -178.57)"/><g class="cls-4"><path class="cls-2" d="M439.9,205c2.61,6.75.6,15.82.23,18.45-.39,2.87,6.56,3.62,7.79-.35,2.89-9.29.25-16.06-.73-18.1h0s2.71,2.4,2.71,11.43-2.71,11.42-2.71,11.42h-9.7V205Z" transform="translate(-332.79 -178.57)"/></g><path class="cls-5" d="M448,209.13c-.86-3.51-2.21-4-4.38-3.77s-2.49,1-1.62,4.19,0,9.78-.39,12,5.42,2.81,6.25-1.55A25.9,25.9,0,0,0,448,209.13Z" transform="translate(-332.79 -178.57)"/><path class="cls-6" d="M445.53,206.06c-.69.28-.62,1.22-.21,2.25s1,1.74,1.71,1.48.62-1.22.21-2.25S446.23,205.78,445.53,206.06Z" transform="translate(-332.79 -178.57)"/><path class="cls-6" d="M447,210.42c-.54.05-.71.48-.67,1s.33.9.85.84.72-.48.67-1S447.5,210.36,447,210.42Z" transform="translate(-332.79 -178.57)"/><path class="cls-7" d="M364.69,260.51s3.92,4.79,23.24,4.79,23.25-4.79,23.25-4.79a29.38,29.38,0,0,0,5.67-14.44c.59-5.5-58.27-5.81-57.83,0A28.82,28.82,0,0,0,364.69,260.51Z" transform="translate(-332.79 -178.57)"/><g class="cls-8"><path class="cls-9" d="M364.69,260.54s3.92,4.78,23.24,4.78,23.25-4.78,23.25-4.78a29.38,29.38,0,0,0,5.67-14.44c.59-5.5-58.27-5.81-57.83,0A28.87,28.87,0,0,0,364.69,260.54Z" transform="translate(-332.79 -178.57)"/></g><g class="cls-8"><path class="cls-9" d="M363.08,258.15A28,28,0,0,1,359,246.07c-.3-4,27.67-5.11,44.81-3.59C397.46,250.18,385,259.79,363.08,258.15Z" transform="translate(-332.79 -178.57)"/></g><g class="cls-4"><path class="cls-10" d="M397.41,257.27a5.73,5.73,0,1,0,5.73-5.73A5.74,5.74,0,0,0,397.41,257.27Z" transform="translate(-332.79 -178.57)"/></g><path class="cls-11" d="M398,257.06a5.55,5.55,0,1,0,5.55-5.55A5.56,5.56,0,0,0,398,257.06Z" transform="translate(-332.79 -178.57)"/><path class="cls-12" d="M397.88,257.05c.38,7.17,11.26,7.35,11.29,0s-10.91-7.24-11.29,0c0,.06.18.08.19,0a5.65,5.65,0,0,1,3.24-5l1.09-.36,3.85.61a4.76,4.76,0,0,1,1.64,1.51,5.52,5.52,0,0,1,1.09,3.25,5.6,5.6,0,0,1-3,4.91,6.89,6.89,0,0,1-5.2-.12,4.88,4.88,0,0,1-1.3-1.06,5.75,5.75,0,0,1-1.42-3.7C398.06,257,397.87,257,397.88,257.05Z" transform="translate(-332.79 -178.57)"/><g class="cls-13"><path class="cls-14" d="M398.74,257.06a4.79,4.79,0,1,0,4.78-4.78A4.78,4.78,0,0,0,398.74,257.06Z" transform="translate(-332.79 -178.57)"/></g><g class="cls-13"><path class="cls-15" d="M398,257.06a5.55,5.55,0,1,0,5.55-5.55A5.56,5.56,0,0,0,398,257.06Zm.36,0a5.2,5.2,0,1,1,5.19,5.2A5.19,5.19,0,0,1,398.33,257.06Z" transform="translate(-332.79 -178.57)"/></g><path class="cls-16" d="M399,257.06a4.51,4.51,0,1,0,4.5-4.5A4.51,4.51,0,0,0,399,257.06Z" transform="translate(-332.79 -178.57)"/><path class="cls-12" d="M398.93,257.05c.32,5.79,9.16,6,9.18,0s-8.86-5.93-9.18,0c0,0,.17.09.18,0a4.61,4.61,0,0,1,2.22-3.88,4.43,4.43,0,1,1-2.22,3.87C399.1,257,398.93,257,398.93,257.05Z" transform="translate(-332.79 -178.57)"/><g class="cls-13"><path class="cls-17" d="M401.31,253.14a3.93,3.93,0,1,0,6.71,4.1,4.5,4.5,0,1,1-6.71-4.1Z" transform="translate(-332.79 -178.57)"/></g><g class="cls-18"><path class="cls-19" d="M407.85,257.06c0,.09,0,.18,0,.26l-4.06,4.06h-.26a4.5,4.5,0,0,1-1.22-.18l5.37-5.37A4.5,4.5,0,0,1,407.85,257.06Z" transform="translate(-332.79 -178.57)"/></g><g class="cls-18"><path class="cls-20" d="M406.77,254.21l-6.1,6.1a4.3,4.3,0,0,1-1.25-1.88l5.47-5.47A4.39,4.39,0,0,1,406.77,254.21Z" transform="translate(-332.79 -178.57)"/></g><g class="cls-18"><path class="cls-21" d="M399.2,257.06a4.26,4.26,0,0,1,.14-1.08l3.1-3.1a4.26,4.26,0,0,1,1.08-.14h0l-4.34,4.34Z" transform="translate(-332.79 -178.57)"/></g><g class="cls-4"><path class="cls-22" d="M380.88,259.32a5.73,5.73,0,1,0,5.73-5.73A5.74,5.74,0,0,0,380.88,259.32Z" transform="translate(-332.79 -178.57)"/></g><path class="cls-23" d="M381.45,259.11a5.55,5.55,0,1,0,5.55-5.55A5.54,5.54,0,0,0,381.45,259.11Z" transform="translate(-332.79 -178.57)"/><path class="cls-12" d="M381.35,259.1c.39,7.2,11.26,7.32,11.29,0s-10.9-7.2-11.29,0c0,.06.19.07.19,0,.12-2.21,1.44-4.66,3.77-5.24l3.91.2,1,.57a5.41,5.41,0,0,1,1.35,1.43,5.57,5.57,0,0,1,.91,3,5.49,5.49,0,0,1-3.25,5c-4,1.78-7.46-1.27-7.66-5C381.54,259.06,381.35,259.06,381.35,259.1Z" transform="translate(-332.79 -178.57)"/><g class="cls-13"><path class="cls-24" d="M382.21,259.11a4.79,4.79,0,1,0,4.79-4.78A4.78,4.78,0,0,0,382.21,259.11Z" transform="translate(-332.79 -178.57)"/></g><g class="cls-13"><path class="cls-25" d="M381.45,259.11a5.55,5.55,0,1,0,5.55-5.55A5.54,5.54,0,0,0,381.45,259.11Zm.35,0a5.2,5.2,0,1,1,5.2,5.19A5.2,5.2,0,0,1,381.8,259.11Z" transform="translate(-332.79 -178.57)"/></g><path class="cls-26" d="M382.49,259.11a4.51,4.51,0,1,0,4.51-4.5A4.5,4.5,0,0,0,382.49,259.11Z" transform="translate(-332.79 -178.57)"/><path class="cls-12" d="M382.41,259.09c.31,5.82,9.17,6,9.18,0s-8.87-5.9-9.18,0c0,.06.17.09.17,0a4.58,4.58,0,0,1,2.63-4.08,4.43,4.43,0,0,1,4,7.9c-3,1.75-6.43-.62-6.6-3.82C382.58,259.07,382.4,259.05,382.41,259.09Z" transform="translate(-332.79 -178.57)"/><g class="cls-13"><path class="cls-27" d="M384.78,255.19a3.93,3.93,0,1,0,6.71,4.09,4.5,4.5,0,1,1-6.71-4.09Z" transform="translate(-332.79 -178.57)"/></g><g class="cls-18"><path class="cls-28" d="M391.32,259.11a2.17,2.17,0,0,1,0,.26l-4.05,4.06H387a4.39,4.39,0,0,1-1.22-.17l5.36-5.37A4.14,4.14,0,0,1,391.32,259.11Z" transform="translate(-332.79 -178.57)"/></g><g class="cls-18"><path class="cls-29" d="M390.24,256.26l-6.1,6.1a4.28,4.28,0,0,1-1.24-1.88l5.46-5.47A4.3,4.3,0,0,1,390.24,256.26Z" transform="translate(-332.79 -178.57)"/></g><g class="cls-18"><path class="cls-30" d="M382.67,259.11a4.26,4.26,0,0,1,.14-1.08l3.1-3.1a4.34,4.34,0,0,1,1.09-.14h0l-4.33,4.34Z" transform="translate(-332.79 -178.57)"/></g><g class="cls-4"><path class="cls-31" d="M365,256.65a5.73,5.73,0,1,0,5.73-5.73A5.74,5.74,0,0,0,365,256.65Z" transform="translate(-332.79 -178.57)"/></g><path class="cls-32" d="M365.61,256.44a5.55,5.55,0,1,0,5.54-5.55A5.54,5.54,0,0,0,365.61,256.44Z" transform="translate(-332.79 -178.57)"/><path class="cls-12" d="M365.51,256.44c.39,7.19,11.26,7.31,11.29,0s-10.9-7.2-11.29,0c0,.05.19.06.19,0,.12-2.21,1.43-4.66,3.77-5.24l3.91.2,1,.57a5.51,5.51,0,0,1-1,9.47c-4,1.77-7.46-1.28-7.66-5C365.7,256.39,365.51,256.39,365.51,256.44Z" transform="translate(-332.79 -178.57)"/><g class="cls-13"><path class="cls-33" d="M366.37,256.44a4.79,4.79,0,1,0,4.78-4.78A4.78,4.78,0,0,0,366.37,256.44Z" transform="translate(-332.79 -178.57)"/></g><g class="cls-13"><path class="cls-34" d="M365.61,256.44a5.55,5.55,0,1,0,5.54-5.55A5.54,5.54,0,0,0,365.61,256.44Zm.35,0a5.2,5.2,0,1,1,5.19,5.19A5.2,5.2,0,0,1,366,256.44Z" transform="translate(-332.79 -178.57)"/></g><path class="cls-35" d="M366.65,256.44a4.51,4.51,0,1,0,4.5-4.5A4.51,4.51,0,0,0,366.65,256.44Z" transform="translate(-332.79 -178.57)"/><path class="cls-12" d="M366.57,256.43c.31,5.8,9.15,6,9.17,0s-8.86-5.91-9.17,0c0,.05.17.09.17.05a4.65,4.65,0,0,1,2.22-3.88,4.43,4.43,0,1,1-2.22,3.87S366.57,256.37,366.57,256.43Z" transform="translate(-332.79 -178.57)"/><g class="cls-13"><path class="cls-36" d="M368.94,252.52a3.93,3.93,0,1,0,6.71,4.09,4.5,4.5,0,1,1-6.71-4.09Z" transform="translate(-332.79 -178.57)"/></g><g class="cls-18"><path class="cls-37" d="M375.48,256.44a2.17,2.17,0,0,1,0,.26l-4.06,4.06h-.26a4.37,4.37,0,0,1-1.21-.18l5.36-5.37A4.14,4.14,0,0,1,375.48,256.44Z" transform="translate(-332.79 -178.57)"/></g><g class="cls-18"><path class="cls-38" d="M374.4,253.59l-6.1,6.1a4.28,4.28,0,0,1-1.24-1.88l5.46-5.47A4.39,4.39,0,0,1,374.4,253.59Z" transform="translate(-332.79 -178.57)"/></g><g class="cls-18"><path class="cls-39" d="M366.83,256.44a4.26,4.26,0,0,1,.14-1.08l3.1-3.1a4.32,4.32,0,0,1,1.08-.14h0l-4.34,4.34Z" transform="translate(-332.79 -178.57)"/></g><path class="cls-7" d="M439.19,204.36s-12.5-25.78-49-25.78-57.3,24-57.3,39S355.39,252,390.23,252s48.2-25.4,48.2-25.4S442.64,215.71,439.19,204.36Z" transform="translate(-332.79 -178.57)"/><path class="cls-7" d="M439.86,221.14a33.8,33.8,0,0,1-1.43,5.42S425.07,252,390.23,252c-23,0-41-8.17-50.29-18.82a16.46,16.46,0,0,0,5.69-8c9,4.61,24.07,10,45.07,10C418.36,235.08,433.88,225.75,439.86,221.14Z" transform="translate(-332.79 -178.57)"/><g class="cls-40"><path class="cls-41" d="M343.76,204.15a12.38,12.38,0,0,0-3.76-4.23c9.06-11.22,26.14-21.35,49.85-21.35,36.5,0,49,25.78,49,25.78a30.43,30.43,0,0,1,.94,4.12c-6.3-4.39-23.88-14.46-52.63-14.46C365.94,194,351.86,199.51,343.76,204.15Z" transform="translate(-332.79 -178.57)"/></g><path class="cls-42" d="M339.15,201.46c.91.72,6,5.18,6,15.07A22.76,22.76,0,0,1,338.9,232c-3.71-4.24-6-9.71-6-14.4S335,207,339.15,201.46Z" transform="translate(-332.79 -178.57)"/><path class="cls-3" d="M339.08,201.46c8,6.44,7.3,19.83,2.06,27.65-.24.35-1.7,2.84-2.31,2.87s-3.22-4.83-3.37-5.11a23.59,23.59,0,0,1-1.89-4.84c-1.9-7.38,1.42-14.64,5.67-20.54,0-.05-.15-.11-.18-.07-3.31,4.61-6.15,10.05-6.26,15.85-.1,5.47,2.56,10.68,6,14.76,0,0,.13.07.17,0,7.7-7.42,9.08-23.48.23-30.62C339.18,201.42,339,201.4,339.08,201.46Z" transform="translate(-332.79 -178.57)"/><g class="cls-4"><path class="cls-42" d="M339.15,201.46c.91.72,6,5.18,6,15.07A22.76,22.76,0,0,1,338.9,232c-3.71-4.24-6-9.71-6-14.4S335,207,339.15,201.46Z" transform="translate(-332.79 -178.57)"/></g><path class="cls-12" d="M439.81,207.07s-.33-.24-.95-.66a.09.09,0,0,1,0-.13.09.09,0,0,1,.13,0c.62.42.95.66.95.67a.09.09,0,0,1,0,.13.09.09,0,0,1-.08,0Zm-1.91-1.29c-.29-.19-.61-.4-1-.62a.11.11,0,0,1,0-.13.09.09,0,0,1,.13,0l1,.61a.11.11,0,0,1,0,.14.09.09,0,0,1-.08,0ZM436,204.56l-1-.58a.1.1,0,0,1,0-.13.09.09,0,0,1,.13,0l1,.58a.09.09,0,0,1,0,.13.09.09,0,0,1-.08.05Zm-2-1.15-1-.55a.09.09,0,0,1,0-.13.1.1,0,0,1,.13,0l1,.56a.1.1,0,0,1-.05.18Zm-90.56-.19a.16.16,0,0,1-.06-.08.15.15,0,0,1,0-.09l.43-.31a.1.1,0,0,1,.14,0,.09.09,0,0,1,0,.13l-.42.31a.07.07,0,0,1-.06,0Zm88.55-.9-1-.53a.09.09,0,0,1-.05-.12.1.1,0,0,1,.13,0l1,.53a.1.1,0,0,1,0,.18Zm-87.21-.1a.1.1,0,0,1,0-.13c.31-.2.64-.41,1-.61a.1.1,0,0,1,.13,0,.09.09,0,0,1,0,.13l-1,.61-.05,0A.1.1,0,0,1,344.74,202.22Zm85.16-.94-1-.5a.1.1,0,0,1,.09-.17l1,.5a.1.1,0,0,1,0,.13.12.12,0,0,1-.09,0ZM346.71,201a.09.09,0,0,1,0-.13l1-.56a.11.11,0,0,1,.13,0,.09.09,0,0,1,0,.13c-.34.19-.68.37-1,.56h0A.1.1,0,0,1,346.71,201Zm81.11-.74-1-.47a.1.1,0,1,1,.08-.18l1,.48a.1.1,0,0,1,.05.13.09.09,0,0,1-.09.05Zm-79.09-.35a.11.11,0,0,1,0-.13l1-.51a.11.11,0,0,1,.13,0,.1.1,0,0,1,0,.13l-1,.51h0A.11.11,0,0,1,348.73,199.94Zm77-.58-1.06-.45a.1.1,0,0,1,.08-.18l1.05.45a.1.1,0,0,1,.06.13.12.12,0,0,1-.09.05Zm-74.93-.42a.11.11,0,0,1,0-.13l1.05-.47a.1.1,0,0,1,.13,0,.09.09,0,0,1,0,.12l-1,.47h-.05A.09.09,0,0,1,350.8,198.94Zm72.81-.47-1.07-.42a.09.09,0,0,1-.05-.12.09.09,0,0,1,.12-.06l1.07.42a.1.1,0,0,1,.05.13.08.08,0,0,1-.08.06ZM352.9,198a.1.1,0,0,1,.05-.13l1.07-.43a.09.09,0,0,1,.12.05.1.1,0,0,1-.05.13c-.37.14-.72.29-1.06.43h0A.1.1,0,0,1,352.9,198Zm68.57-.37-1.08-.4a.09.09,0,0,1-.05-.12.09.09,0,0,1,.12-.06l1.08.4a.09.09,0,0,1,0,.12.08.08,0,0,1-.08.06ZM355,197.16a.11.11,0,0,1,.06-.13l1.08-.4a.1.1,0,0,1,.12.06.09.09,0,0,1-.06.12l-1.07.4h0A.1.1,0,0,1,355,197.16Zm64.28-.3-1.08-.38a.09.09,0,0,1-.06-.12.1.1,0,0,1,.12-.06l1.09.38a.09.09,0,0,1,.05.12.08.08,0,0,1-.08.06Zm-62.12-.49a.1.1,0,0,1,.06-.12l1.09-.36a.09.09,0,0,1,.12.06.09.09,0,0,1-.06.12l-1.08.36h0A.11.11,0,0,1,357.19,196.37Zm59.95-.25-1.1-.34a.09.09,0,0,1-.06-.12.09.09,0,0,1,.12-.06l1.1.34a.11.11,0,0,1,.06.12.11.11,0,0,1-.09.07Zm-57.76-.46a.09.09,0,0,1,.06-.12l1.1-.34a.11.11,0,0,1,.12.07.1.1,0,0,1-.07.12l-1.09.33h0A.09.09,0,0,1,359.38,195.66Zm55.56-.21-1.1-.32a.09.09,0,0,1-.06-.12.1.1,0,0,1,.12-.07l1.1.32a.09.09,0,0,1,.06.12.1.1,0,0,1-.09.07ZM361.58,195a.09.09,0,0,1,.06-.11l1.11-.31a.1.1,0,0,1,.12.07.09.09,0,0,1-.07.12l-1.1.3h0A.09.09,0,0,1,361.58,195Zm51.16-.18-1.11-.29a.1.1,0,0,1,0-.19l1.12.3a.08.08,0,0,1,.06.11.09.09,0,0,1-.09.07Zm-48.94-.41a.09.09,0,0,1,.07-.11c.36-.1.74-.19,1.11-.27a.09.09,0,0,1,.12.07.09.09,0,0,1-.07.11l-1.12.27s0,0,0,0A.09.09,0,0,1,363.8,194.41Zm46.71-.16L409.4,194a.09.09,0,1,1,0-.18l1.12.26a.1.1,0,0,1,.07.12.1.1,0,0,1-.09.07ZM366,193.88a.09.09,0,0,1,.08-.11l1.12-.25a.1.1,0,0,1,.11.08.09.09,0,0,1-.07.11l-1.12.24h0A.1.1,0,0,1,366,193.88Zm42.25-.15-1.13-.24a.09.09,0,0,1-.07-.11.1.1,0,0,1,.11-.08l1.13.24a.1.1,0,0,1,.07.12.1.1,0,0,1-.09.07Zm-40-.32a.09.09,0,0,1,.08-.11l1.13-.22a.1.1,0,0,1,0,.19l-1.13.21h0A.11.11,0,0,1,368.28,193.41Zm37.75-.14c-.37-.08-.75-.15-1.13-.21a.11.11,0,0,1-.08-.11.1.1,0,0,1,.12-.08l1.13.21a.09.09,0,0,1,.07.11.09.09,0,0,1-.09.08ZM370.54,193a.1.1,0,0,1,.08-.11l1.13-.19a.1.1,0,0,1,0,.19l-1.13.19h0A.09.09,0,0,1,370.54,193Zm33.23-.13c-.37-.06-.75-.13-1.13-.18a.1.1,0,0,1-.08-.11.09.09,0,0,1,.11-.08l1.13.18a.09.09,0,0,1,.08.11.09.09,0,0,1-.09.08Zm-31-.23a.09.09,0,0,1,.08-.11l1.14-.16a.08.08,0,0,1,.1.08.09.09,0,0,1-.08.11l-1.13.16h0A.09.09,0,0,1,372.81,192.63Zm28.69-.12-1.13-.16c-.06,0-.09,0-.09-.11a.11.11,0,0,1,.11-.08l1.14.16a.09.09,0,0,1,.08.11.1.1,0,0,1-.09.08Zm-26.42-.19a.11.11,0,0,1,.09-.11l1.14-.13a.08.08,0,0,1,.1.08.1.1,0,0,1-.08.11l-1.14.13h0A.1.1,0,0,1,375.08,192.32Zm24.15-.11-1.14-.12A.12.12,0,0,1,398,192a.11.11,0,0,1,.11-.09l1.14.13a.09.09,0,0,1,.08.11.08.08,0,0,1-.09.08Zm-21.86-.15a.08.08,0,0,1,.08-.1l1.15-.11a.08.08,0,0,1,.1.08.11.11,0,0,1-.09.11l-1.14.11h0A.09.09,0,0,1,377.37,192.06ZM397,192l-1.15-.09a.09.09,0,0,1-.08-.11.1.1,0,0,1,.1-.09l1.14.1a.1.1,0,0,1,0,.19Zm-17.3-.12a.1.1,0,0,1,.09-.1l1.15-.09a.1.1,0,0,1,.1.09.11.11,0,0,1-.09.11l-1.14.08h0A.11.11,0,0,1,379.65,191.85Zm15-.06-1.15-.07a.09.09,0,0,1-.09-.1.11.11,0,0,1,.1-.09l1.15.07a.11.11,0,0,1,.09.1.1.1,0,0,1-.1.09Zm-12.72-.1a.11.11,0,0,1,.1-.1l1.14-.06a.1.1,0,0,1,.1.09.09.09,0,0,1-.09.1l-1.14.06h0A.11.11,0,0,1,381.94,191.69Zm2.3-.11a.11.11,0,0,1,.09-.1l1.15,0h0a.1.1,0,0,1,0,.19l-1.15,0h0A.09.09,0,0,1,384.24,191.58Zm8.13.09-1.15,0a.09.09,0,0,1-.09-.1.1.1,0,0,1,.09-.09l1.16,0a.1.1,0,0,1,.09.1.11.11,0,0,1-.1.09Zm-5.84-.15a.11.11,0,0,1,.1-.1h1.15a.09.09,0,0,1,.09.09.1.1,0,0,1-.09.1h-1.15A.11.11,0,0,1,386.53,191.52Zm3.54.09h-1.14a.1.1,0,0,1,0-.2h1.15a.1.1,0,0,1,.09.1.1.1,0,0,1-.1.1Z" transform="translate(-332.79 -178.57)"/><path class="cls-3" d="M337.53,230.13c.15-.1.48-.32.91-.67l.13.14a8.2,8.2,0,0,1-.94.69Zm1.76-1.44c.27-.26.53-.54.78-.83l.14.12a10.59,10.59,0,0,1-.79.85Zm1.49-1.73c.22-.3.44-.62.64-.94l.16.1c-.2.33-.42.65-.65,1ZM342,225c.18-.34.34-.69.49-1l.18.07c-.15.35-.32.71-.5,1Zm.91-2.1c.13-.35.24-.72.34-1.09l.18.06c-.1.37-.21.74-.34,1.1Zm.61-2.19c.07-.37.14-.75.2-1.13l.18,0c-.05.38-.12.76-.19,1.13Zm.32-2.26c0-.38.05-.76.06-1.15h.2c0,.39,0,.77-.07,1.15Zm0-3.43H344c0,.37.05.76.06,1.15h-.19C343.88,215.81,343.86,215.42,343.83,215.05Zm-.29-2.27.19,0c.07.37.13.76.18,1.14l-.19,0C343.67,213.53,343.61,213.15,343.54,212.78Zm-.55-2.21.19-.06c.11.36.21.74.31,1.11l-.19,0C343.21,211.3,343.11,210.93,343,210.57Zm-.82-2.13.17-.08c.16.34.31.7.46,1.06l-.18.07Q342.41,209,342.17,208.44Zm-1.11-2,.16-.1q.31.48.6,1l-.17.09C341.47,207.09,341.27,206.76,341.06,206.44Zm-1.38-1.81.14-.13c.25.29.5.59.74.89l-.16.12C340.17,205.21,339.93,204.91,339.68,204.63ZM338,203.09l.11-.16a8.33,8.33,0,0,1,.9.75l-.13.14A7.87,7.87,0,0,0,338,203.09Z" transform="translate(-332.79 -178.57)"/><path class="cls-43" d="M337.78,230.77c.27-.16,6.78-4,6.78-14s-5.93-14-6.18-14.2l-.64,1,.32-.48-.32.48c.05,0,5.67,3.92,5.67,13.25a16.47,16.47,0,0,1-3.1,10,11.82,11.82,0,0,1-3.11,3Z" transform="translate(-332.79 -178.57)"/><path class="cls-44" d="M439.86,207.57a4.13,4.13,0,0,0,0-1.3,79.61,79.61,0,0,0-13.89-7.55,95,95,0,0,0-37.25-7.8c-15.85,0-27.38,3.19-34.27,5.86a47,47,0,0,0-11.34,5.9c.27.31.36.45.71.9a47.22,47.22,0,0,1,11.1-5.75c6.79-2.63,18.16-5.76,33.8-5.76a94,94,0,0,1,36.8,7.7,77,77,0,0,1,14,7.68A.54.54,0,0,0,439.86,207.57Z" transform="translate(-332.79 -178.57)"/><path class="cls-45" d="M353.83,198.06c-2.27,13.68,14.66,27.88,37.81,31.71s43.74-4.16,46-17.84S423,184.05,399.83,180.22,356.09,184.38,353.83,198.06Z" transform="translate(-332.79 -178.57)"/><path class="cls-46" d="M373.64,191.81c-1.81,9,9,18.74,24.21,21.81s29-1.7,30.78-10.68-9-18.74-24.2-21.81S375.46,182.83,373.64,191.81Z" transform="translate(-332.79 -178.57)"/><path class="cls-47" d="M418,190.88c-.69,1.59.23,2.71,1.7,3.34s2.95.47,3.62-1.07-.24-2.71-1.71-3.33S418.67,189.29,418,190.88Z" transform="translate(-332.79 -178.57)"/><path class="cls-47" d="M397.41,184.54c-.86,3.22,2.85,5.53,7.84,6.83s9.39,1,10.22-2.09-2.85-5.53-7.84-6.83S398.27,181.32,397.41,184.54Z" transform="translate(-332.79 -178.57)"/><path class="cls-7" d="M345.14,216.53c0-9.89-5.08-14.35-6-15.07A50.75,50.75,0,0,1,351,190.12a22.8,22.8,0,0,0-6.4,12.92,22.45,22.45,0,0,0,2.48,13,31.41,31.41,0,0,1-1.41,9,86.29,86.29,0,0,0,16.49,6.3,70.21,70.21,0,0,0,28,9.46c20.28,2.53,38.67-3.1,47.72-13.31C435,232.23,421,252,390.23,252c-24.15,0-42.38-9.27-51.28-20A22.81,22.81,0,0,0,345.14,216.53Z" transform="translate(-332.79 -178.57)"/><path class="cls-3" d="M440.5,209.92s-.35-.21-1-.57a.1.1,0,0,1,0-.13.09.09,0,0,1,.13,0l1,.58a.1.1,0,0,1,0,.13.1.1,0,0,1-.08.05Zm-2-1.13-1-.53a.09.09,0,0,1,0-.13.1.1,0,0,1,.13,0l1,.54a.11.11,0,0,1,0,.13.12.12,0,0,1-.09.05Zm-2-1-1-.5a.09.09,0,0,1,0-.13.09.09,0,0,1,.12-.05l1,.51a.1.1,0,0,1,0,.13.09.09,0,0,1-.08.05Zm-2.07-1-1-.48a.1.1,0,1,1,.08-.18l1,.48a.1.1,0,0,1,.05.13.11.11,0,0,1-.09.05Zm-2.09-.95-1.05-.45a.1.1,0,0,1-.06-.13.1.1,0,0,1,.13-.05l1.05.46a.08.08,0,0,1,.05.12.08.08,0,0,1-.08.06ZM344.47,205a.09.09,0,0,1,0-.12l.59-.25a.09.09,0,0,1,.12.05.1.1,0,0,1-.05.13l-.59.24h0A.08.08,0,0,1,344.47,205Zm85.7-.13-1.06-.43a.09.09,0,0,1,.07-.17l1.07.43a.09.09,0,0,1,.05.12.1.1,0,0,1-.09.06Zm-84.05-.55a.09.09,0,0,1,.05-.12l1.07-.43a.09.09,0,0,1,.12.06.09.09,0,0,1-.05.12l-1.07.42h0A.08.08,0,0,1,346.12,204.35Zm81.92-.3-1.07-.4a.1.1,0,0,1-.06-.13.09.09,0,0,1,.12-.05c.37.13.73.27,1.08.41a.09.09,0,0,1,.05.12.08.08,0,0,1-.08.06Zm-79.79-.54a.1.1,0,0,1,.06-.12l1.08-.4a.09.09,0,0,1,.12,0,.1.1,0,0,1-.06.13l-1.07.4h0A.11.11,0,0,1,348.25,203.51Zm77.64-.26-1.08-.39a.09.09,0,0,1-.06-.12.1.1,0,0,1,.12-.06l1.09.39a.1.1,0,0,1,.06.12.12.12,0,0,1-.1.07Zm-75.48-.53a.09.09,0,0,1,.06-.12l1.08-.39a.1.1,0,0,1,.12.06.1.1,0,0,1-.05.13l-1.09.38h0A.09.09,0,0,1,350.41,202.72Zm73.31-.23-1.08-.37a.1.1,0,0,1-.07-.12.11.11,0,0,1,.13-.06l1.09.37a.1.1,0,0,1,.06.12.1.1,0,0,1-.1.06ZM352.58,202a.1.1,0,0,1,.06-.12l1.09-.36a.09.09,0,0,1,.12.06.09.09,0,0,1-.06.12l-1.09.36h0A.09.09,0,0,1,352.58,202Zm69-.2-1.09-.34a.09.09,0,0,1-.06-.12.08.08,0,0,1,.11-.06l1.1.34a.09.09,0,0,1,.06.12.1.1,0,0,1-.09.07Zm-66.77-.51a.09.09,0,0,1,.06-.12l1.1-.34a.1.1,0,1,1,.05.19l-1.09.33h0A.1.1,0,0,1,354.77,201.26Zm64.58-.16-1.1-.32a.11.11,0,0,1-.07-.12.1.1,0,0,1,.12-.07l1.1.32a.11.11,0,0,1,.07.12.1.1,0,0,1-.09.07ZM357,200.6a.09.09,0,0,1,.06-.12l1.11-.31a.09.09,0,0,1,.12.06.1.1,0,0,1-.07.12l-1.11.31h0A.1.1,0,0,1,357,200.6Zm60.17-.13-1.11-.3a.1.1,0,0,1-.07-.12.11.11,0,0,1,.12-.07l1.11.3a.11.11,0,0,1,.07.12.1.1,0,0,1-.09.07Zm-58-.49a.11.11,0,0,1,.07-.12l1.11-.29a.09.09,0,0,1,.11.07.09.09,0,0,1-.06.12l-1.11.29h0A.1.1,0,0,1,359.18,200Zm55.74-.1-1.11-.27a.1.1,0,0,1-.07-.12.09.09,0,0,1,.11-.07l1.12.28a.09.09,0,0,1,.07.11.09.09,0,0,1-.09.08Zm-53.52-.47a.09.09,0,0,1,.07-.11l1.12-.27a.1.1,0,0,1,.12.07.11.11,0,0,1-.07.12l-1.12.26h0A.1.1,0,0,1,361.4,199.41Zm51.29-.07-1.12-.25a.1.1,0,0,1-.07-.12.09.09,0,0,1,.11-.07l1.12.25a.11.11,0,0,1,.08.12.1.1,0,0,1-.1.07Zm-49.05-.45a.09.09,0,0,1,.07-.11l1.13-.25a.1.1,0,0,1,0,.19l-1.13.24h0A.1.1,0,0,1,363.64,198.89Zm46.81,0-1.13-.23a.09.09,0,0,1-.07-.11.1.1,0,0,1,.11-.08l1.13.24a.09.09,0,0,1,.07.11.09.09,0,0,1-.09.08Zm-44.56-.43a.09.09,0,0,1,.07-.11l1.13-.22a.1.1,0,0,1,.11.08.09.09,0,0,1-.07.11l-1.13.22h0A.09.09,0,0,1,365.89,198.41Zm42.31,0-1.13-.21a.1.1,0,0,1-.08-.11.11.11,0,0,1,.11-.08l1.13.21a.1.1,0,0,1,0,.19Zm-40.05-.4a.1.1,0,0,1,.07-.12l1.14-.19a.1.1,0,0,1,0,.19l-1.13.19h0A.08.08,0,0,1,368.15,198Zm37.79,0-1.13-.19a.1.1,0,0,1-.08-.11.09.09,0,0,1,.11-.08l1.13.19a.09.09,0,0,1,.08.11.11.11,0,0,1-.09.08Zm-35.53-.38a.09.09,0,0,1,.08-.11l1.14-.17a.09.09,0,1,1,0,.18l-1.13.18h0A.11.11,0,0,1,370.41,197.61Zm33.26,0-1.13-.16a.1.1,0,0,1-.08-.11.08.08,0,0,1,.1-.08l1.14.16a.1.1,0,0,1,.08.11.09.09,0,0,1-.09.08Zm-31-.35a.09.09,0,0,1,.09-.1l1.13-.15a.09.09,0,0,1,.11.08.1.1,0,0,1-.08.11l-1.14.15h0A.11.11,0,0,1,372.68,197.27Zm28.72,0-1.14-.14a.1.1,0,0,1-.08-.11.08.08,0,0,1,.1-.08l1.14.14a.09.09,0,0,1,.09.1.11.11,0,0,1-.1.09ZM375,197a.12.12,0,0,1,.09-.11l1.14-.12a.12.12,0,0,1,.11.09.1.1,0,0,1-.09.1l-1.14.13h0A.11.11,0,0,1,375,197Zm24.16,0-1.14-.12a.1.1,0,0,1-.09-.1.1.1,0,0,1,.11-.09l1.14.12a.1.1,0,0,1,.09.1.11.11,0,0,1-.1.09Zm-21.87-.28a.09.09,0,0,1,.08-.11l1.15-.1a.1.1,0,0,1,.1.09.08.08,0,0,1-.08.1l-1.15.1h0A.08.08,0,0,1,377.25,196.76Zm19.58.05-1.14-.09a.1.1,0,0,1-.09-.1.11.11,0,0,1,.11-.09l1.14.09a.12.12,0,0,1,.09.11.09.09,0,0,1-.1.08Zm-17.29-.24a.09.09,0,0,1,.09-.1l1.14-.08a.09.09,0,0,1,.1.09.08.08,0,0,1-.09.1l-1.14.08h0A.09.09,0,0,1,379.54,196.57Zm15,.07-1.15-.07a.1.1,0,0,1-.09-.1.09.09,0,0,1,.1-.09l1.15.07a.1.1,0,1,1,0,.19Zm-12.72-.21a.1.1,0,0,1,.09-.1l1.15-.05a.1.1,0,0,1,.1.09.09.09,0,0,1-.09.1l-1.15.05h0A.1.1,0,0,1,381.83,196.43Zm10.42.08-1.14,0c-.06,0-.09,0-.09-.1a.09.09,0,0,1,.09-.09l1.15,0a.1.1,0,0,1,.1.1.11.11,0,0,1-.1.09Zm-8.12-.17c0-.05,0-.09.09-.1l1.15,0a.09.09,0,0,1,.09.09.09.09,0,0,1-.09.1l-1.15,0h0A.1.1,0,0,1,384.13,196.34Zm5.83.09-1.15,0a.1.1,0,0,1-.09-.1.09.09,0,0,1,.1-.1l1.15,0a.1.1,0,1,1,0,.19Zm-3.54-.13a.1.1,0,0,1,.1-.09h1.15a.1.1,0,0,1,0,.2h-1.15A.11.11,0,0,1,386.42,196.3Z" transform="translate(-332.79 -178.57)"/><path class="cls-48" d="M440.25,210.33l0-1.35c-.11-.07-10.51-6.45-27.84-10.4a112.74,112.74,0,0,0-30.69-2.72,110.48,110.48,0,0,0-37.35,8.61l.45,1.05a109.41,109.41,0,0,1,37-8.51,111.23,111.23,0,0,1,30.38,2.69C429.26,203.6,440.14,210.26,440.25,210.33Z" transform="translate(-332.79 -178.57)"/><path class="cls-3" d="M390.57,233.51a.09.09,0,0,1,.1-.1h1.14a.1.1,0,1,1,0,.2h-1.14A.09.09,0,0,1,390.57,233.51Zm-1.05.08-1.15,0a.09.09,0,0,1-.1-.09c0-.06,0-.09.1-.1l1.15,0a.1.1,0,0,1,.09.1.09.09,0,0,1-.09.09Zm3.35-.11a.09.09,0,0,1,.09-.09l1.15,0a.09.09,0,0,1,.1.09.11.11,0,0,1-.1.1l-1.14,0h0A.09.09,0,0,1,392.87,233.48Zm-5.65.06-1.15,0c-.05,0-.1-.05-.09-.1a.08.08,0,0,1,.1-.09l1.14,0a.1.1,0,0,1,.1.1.11.11,0,0,1-.1.09Zm7.94-.13a.1.1,0,0,1,.09-.1c.39,0,.77,0,1.15-.06a.1.1,0,0,1,.1.09.11.11,0,0,1-.09.11l-1.15.05h0A.1.1,0,0,1,395.16,233.41Zm-10.24,0-1.15-.07a.1.1,0,0,1-.09-.1.09.09,0,0,1,.11-.09l1.14.07a.1.1,0,0,1,.09.1.09.09,0,0,1-.09.09Zm12.54-.15a.09.09,0,0,1,.09-.11l1.14-.08a.09.09,0,0,1,.1.09.09.09,0,0,1-.09.1l-1.14.09h0A.09.09,0,0,1,397.46,233.29Zm-14.83,0-1.15-.1a.1.1,0,0,1-.09-.1.11.11,0,0,1,.11-.09l1.14.1a.1.1,0,1,1,0,.19Zm17.11-.18a.12.12,0,0,1,.09-.11l1.15-.1a.09.09,0,0,1,.1.08.11.11,0,0,1-.08.11l-1.15.11h0A.11.11,0,0,1,399.74,233.11Zm-19.4,0-1.15-.11a.1.1,0,0,1,0-.2c.38,0,.77.09,1.15.12a.1.1,0,0,1,.08.11.09.09,0,0,1-.1.08Zm21.69-.2a.11.11,0,0,1,.08-.11l1.15-.13a.08.08,0,0,1,.1.08.1.1,0,0,1-.08.11l-1.14.13h0A.1.1,0,0,1,402,232.88Zm-24,0-1.14-.14a.09.09,0,0,1-.08-.11.09.09,0,0,1,.11-.08l1.13.14a.11.11,0,0,1,.09.11.1.1,0,0,1-.1.08Zm26.26-.23a.1.1,0,0,1,.08-.11l1.14-.16a.1.1,0,0,1,0,.19l-1.14.16h0A.1.1,0,0,1,404.31,232.6Zm-28.54-.06-1.14-.17a.11.11,0,0,1-.08-.11.1.1,0,0,1,.11-.08l1.14.17a.08.08,0,0,1,.08.1.11.11,0,0,1-.1.09Zm30.82-.28a.09.09,0,0,1,.07-.11l1.14-.19a.1.1,0,0,1,0,.19l-1.14.19h0A.08.08,0,0,1,406.59,232.26Zm-33.09-.07-1.14-.19a.09.09,0,0,1-.07-.11.1.1,0,0,1,.11-.08l1.13.19a.1.1,0,0,1,.08.11.1.1,0,0,1-.1.08Zm35.35-.32a.09.09,0,0,1,.08-.11l1.12-.21a.09.09,0,0,1,.11.07.1.1,0,0,1-.07.12L409,232h0A.09.09,0,0,1,408.85,231.87Zm-37.62-.07-1.13-.22a.09.09,0,0,1,0-.18l1.13.21a.09.09,0,0,1,.07.11.08.08,0,0,1-.09.08Zm39.87-.37a.1.1,0,0,1,.08-.11l1.12-.24a.09.09,0,0,1,.11.07.11.11,0,0,1-.07.12l-1.12.24h0A.1.1,0,0,1,411.1,231.43ZM369,231.36l-1.13-.24a.09.09,0,0,1,0-.18l1.12.23a.09.09,0,0,1,.08.11.1.1,0,0,1-.1.08Zm44.37-.42a.09.09,0,0,1,.07-.11l1.11-.27a.1.1,0,0,1,.12.07.09.09,0,0,1-.07.11l-1.12.27h0A.1.1,0,0,1,413.35,230.94Zm-46.62-.06-1.12-.26a.09.09,0,0,1-.07-.12.09.09,0,0,1,.11-.07l1.12.26a.09.09,0,0,1,.07.11.09.09,0,0,1-.09.08Zm48.85-.49a.09.09,0,0,1,.07-.11l1.1-.3a.1.1,0,0,1,.12.07.09.09,0,0,1-.07.12l-1.11.29h0A.09.09,0,0,1,415.58,230.39Zm-51.09,0-1.11-.28a.09.09,0,0,1-.07-.12.09.09,0,0,1,.11-.07l1.11.28a.11.11,0,0,1,.08.12.1.1,0,0,1-.1.07Zm53.31-.56a.09.09,0,0,1,.06-.12l1.1-.32a.1.1,0,0,1,.12.07.09.09,0,0,1-.06.12l-1.11.32h0A.1.1,0,0,1,417.8,229.79Zm-55.54,0-1.11-.3a.09.09,0,0,1-.06-.12.09.09,0,0,1,.12-.06l1.1.29a.11.11,0,0,1,.07.12.09.09,0,0,1-.09.07Zm57.74-.64a.09.09,0,0,1,.06-.12l1.09-.35a.1.1,0,0,1,.13.06.1.1,0,0,1-.07.12l-1.09.35h0A.1.1,0,0,1,420,229.14Zm-59.95,0-1.11-.32a.09.09,0,0,1-.06-.12.11.11,0,0,1,.12-.07l1.1.32a.11.11,0,0,1,.07.12.12.12,0,0,1-.1.07Zm-2.21-.66-1.09-.34a.09.09,0,1,1,.05-.18l1.1.34a.09.09,0,0,1,.06.12.1.1,0,0,1-.09.07Zm64.34-.08a.1.1,0,0,1,.06-.12l1.09-.38a.1.1,0,0,1,.12.06.09.09,0,0,1-.06.12l-1.08.38h0A.11.11,0,0,1,422.18,228.43Zm-66.53-.61-1.09-.36a.09.09,0,1,1,.06-.18l1.09.36a.09.09,0,0,1,.06.12.1.1,0,0,1-.09.07Zm68.7-.15a.09.09,0,0,1,.06-.12l1.07-.41a.1.1,0,0,1,.13.06.1.1,0,0,1-.06.12c-.35.14-.71.27-1.08.4h0A.1.1,0,0,1,424.35,227.67Zm-70.88-.58-1.08-.38a.1.1,0,0,1-.06-.12.09.09,0,0,1,.12-.06l1.08.38a.1.1,0,0,1,.07.12.11.11,0,0,1-.1.06Zm73-.24a.09.09,0,0,1,.05-.12l1.07-.43a.09.09,0,0,1,.07.17l-1.07.44h0A.09.09,0,0,1,426.5,226.85Zm-75.19-.53-1.08-.4a.1.1,0,0,1-.06-.12.1.1,0,0,1,.13-.06l1.07.4a.09.09,0,0,1,.06.12.09.09,0,0,1-.09.06Zm77.31-.34a.1.1,0,0,1,.06-.13l1.05-.45a.08.08,0,0,1,.12,0,.11.11,0,0,1,0,.13l-1.06.46h0A.13.13,0,0,1,428.62,226Zm-79.46-.47-1.07-.42A.09.09,0,0,1,348,225a.1.1,0,0,1,.13-.06l1.06.42a.09.09,0,0,1,.06.12.1.1,0,0,1-.09.07Zm81.57-.46a.1.1,0,0,1,0-.13l1-.48a.09.09,0,0,1,.13,0,.11.11,0,0,1,0,.13l-1,.49h0A.08.08,0,0,1,430.73,225.05ZM347,224.66l-1.07-.43a.11.11,0,0,1-.05-.13.1.1,0,0,1,.13,0l1.06.44a.09.09,0,0,1,0,.18Zm85.78-.6a.11.11,0,0,1,0-.13l1-.51a.09.09,0,0,1,.13,0,.11.11,0,0,1,0,.13l-1,.52h0A.09.09,0,0,1,432.8,224.06Zm2.05-1.05a.09.09,0,0,1,0-.13l1-.55a.11.11,0,0,1,.14,0,.11.11,0,0,1,0,.13l-1,.55h-.05A.1.1,0,0,1,434.85,223Zm2-1.11a.09.09,0,0,1,0-.13l1-.59a.1.1,0,0,1,.13,0,.09.09,0,0,1,0,.13l-1,.59h-.05A.09.09,0,0,1,436.86,221.9Zm2-1.2a.11.11,0,0,1,0-.13c.63-.4.95-.64,1-.64a.09.09,0,0,1,.11.15s-.34.25-1,.65l0,0A.11.11,0,0,1,438.82,220.7Z" transform="translate(-332.79 -178.57)"/><path class="cls-49" d="M390.73,234.08A100.49,100.49,0,0,0,414,231.37a90.91,90.91,0,0,0,19.28-6.93,33.12,33.12,0,0,0,6.54-4l-.33-.86a53.89,53.89,0,0,1-6.76,3.9,90.21,90.21,0,0,1-19,6.82,100,100,0,0,1-29.5,2.47,118.75,118.75,0,0,1-38.15-9.18l-.44,1.06a119.89,119.89,0,0,0,38.56,9.27Q387.48,234.08,390.73,234.08Z" transform="translate(-332.79 -178.57)"/><path class="cls-12" d="M390.68,237.53a.09.09,0,0,1-.1-.09.09.09,0,0,1,.1-.1h1.15a.09.09,0,0,1,.09.09.09.09,0,0,1-.09.1h-1.15Zm2.2-.1a.09.09,0,0,1,.09-.09c.39,0,.77,0,1.15,0a.11.11,0,0,1,.1.1.1.1,0,0,1-.1.1l-1.14,0h0A.09.09,0,0,1,392.88,237.43Zm-3.35.09-1.15,0c-.06,0-.1-.05-.09-.1a.09.09,0,0,1,.09-.1h0l1.15,0a.1.1,0,0,1,.1.1.11.11,0,0,1-.1.09Zm5.65-.14a.09.09,0,0,1,.09-.1l1.14-.05a.1.1,0,0,1,0,.19l-1.14.05h0A.09.09,0,0,1,395.18,237.38Zm-7.95.08-1.15-.05a.09.09,0,0,1-.09-.1.09.09,0,0,1,.1-.09l1.15.05a.09.09,0,0,1,.09.1.1.1,0,0,1-.1.09Zm10.24-.19a.11.11,0,0,1,.09-.11l1.14-.07a.09.09,0,0,1,.11.08.11.11,0,0,1-.09.11l-1.15.08h0A.09.09,0,0,1,397.47,237.27Zm-12.54.08-1.14-.06a.09.09,0,0,1-.09-.11.08.08,0,0,1,.1-.08l1.14.06c.06,0,.1.05.09.1a.08.08,0,0,1-.09.09Zm-2.29-.14-1.15-.1a.08.08,0,0,1-.08-.1.1.1,0,0,1,.1-.09q.57.06,1.14.09a.1.1,0,0,1,.09.11.09.09,0,0,1-.09.09Zm17.12-.11a.11.11,0,0,1,.09-.11l1.14-.1a.1.1,0,0,1,.11.08.11.11,0,0,1-.09.11l-1.15.1h0A.1.1,0,0,1,399.76,237.1ZM380.35,237l-1.15-.11a.1.1,0,0,1-.08-.11.09.09,0,0,1,.11-.08l1.14.11a.09.09,0,0,1,.08.11.09.09,0,0,1-.09.08Zm21.7-.14a.08.08,0,0,1,.08-.1l1.14-.14a.1.1,0,0,1,.11.09.09.09,0,0,1-.09.1l-1.14.14h0A.09.09,0,0,1,402.05,236.87Zm-24-.1-1.14-.14a.08.08,0,0,1-.08-.1.09.09,0,0,1,.1-.09l1.14.14a.1.1,0,0,1,.09.11.1.1,0,0,1-.1.08Zm26.26-.18a.11.11,0,0,1,.09-.11l1.13-.16a.1.1,0,1,1,0,.19l-1.14.16h0A.1.1,0,0,1,404.32,236.59Zm-28.54-.11-1.14-.16a.11.11,0,0,1-.08-.11.1.1,0,0,1,.11-.08l1.14.16a.1.1,0,0,1,.08.11.1.1,0,0,1-.1.08Zm30.82-.23a.09.09,0,0,1,.08-.11l1.13-.19a.09.09,0,0,1,.11.08.1.1,0,0,1-.08.11l-1.13.19h0A.09.09,0,0,1,406.6,236.25Zm-33.09-.11-1.14-.18a.1.1,0,1,1,0-.19l1.14.19s.08,0,.08.11a.11.11,0,0,1-.1.08Zm35.35-.29a.09.09,0,0,1,.07-.11l1.13-.22a.09.09,0,0,1,.11.07.09.09,0,0,1-.07.12l-1.13.22h0A.09.09,0,0,1,408.86,235.85Zm-37.62-.09-1.13-.21a.11.11,0,0,1-.08-.12.1.1,0,0,1,.12-.07l1.12.21a.09.09,0,0,1,.08.11.09.09,0,0,1-.09.08Zm39.87-.37a.09.09,0,0,1,.07-.11l1.12-.25a.1.1,0,0,1,.12.07.11.11,0,0,1-.07.12l-1.13.25h0A.09.09,0,0,1,411.11,235.39ZM369,235.32l-1.12-.24a.09.09,0,1,1,0-.18l1.12.23a.09.09,0,0,1,.07.12.08.08,0,0,1-.09.07Zm44.37-.44a.11.11,0,0,1,.07-.12l1.11-.28a.1.1,0,1,1,.05.19l-1.12.28h0A.1.1,0,0,1,413.35,234.88Zm-46.61,0-1.12-.26a.1.1,0,0,1-.07-.12.09.09,0,0,1,.11-.07l1.12.26a.11.11,0,0,1,.07.12.1.1,0,0,1-.09.07Zm48.83-.53a.09.09,0,0,1,.07-.11l1.1-.32a.1.1,0,0,1,.12.07.09.09,0,0,1-.06.12l-1.11.31h0A.11.11,0,0,1,415.57,234.3Zm-51.07,0-1.11-.29a.11.11,0,0,1-.07-.12.1.1,0,0,1,.12-.07l1.11.29a.11.11,0,0,1,.07.12.1.1,0,0,1-.09.07Zm53.28-.62a.09.09,0,0,1,.06-.12l1.1-.34a.09.09,0,0,1,.12.06.1.1,0,0,1-.06.12l-1.1.34h0A.1.1,0,0,1,417.78,233.67Zm-55.5,0-1.1-.32a.09.09,0,0,1-.07-.12.09.09,0,0,1,.12-.06l1.1.32a.1.1,0,0,1,.07.12.1.1,0,0,1-.09.07Zm-2.2-.65-1.1-.35a.09.09,0,0,1,.06-.18l1.09.35a.09.09,0,0,1,.07.11.1.1,0,0,1-.09.07ZM420,233a.09.09,0,0,1,.06-.12l1.08-.37a.1.1,0,0,1,.13.06.09.09,0,0,1-.06.12l-1.09.37h0A.1.1,0,0,1,420,233Zm-62.08-.64L356.8,232a.1.1,0,0,1-.06-.12.1.1,0,0,1,.13-.06l1.08.38a.09.09,0,0,1,.06.12.09.09,0,0,1-.09.06Zm64.25-.11a.1.1,0,0,1,.06-.13l1.07-.4a.09.09,0,0,1,.12.06.09.09,0,0,1-.05.12l-1.08.4h0A.1.1,0,0,1,422.14,232.22Zm-66.42-.67c-.37-.13-.73-.27-1.07-.41a.09.09,0,0,1-.06-.12.1.1,0,0,1,.13-.05l1.07.4a.1.1,0,0,1,0,.13.08.08,0,0,1-.08.06Zm68.57-.15a.1.1,0,0,1,0-.13c.36-.14.72-.28,1.06-.43a.1.1,0,0,1,.08.18l-1.07.43h0A.09.09,0,0,1,424.29,231.4Zm-70.71-.68-1.06-.44a.1.1,0,0,1-.06-.13.1.1,0,0,1,.13-.05l1.06.44a.1.1,0,0,1,.05.13.1.1,0,0,1-.09.06Zm72.83-.2a.1.1,0,0,1,0-.13l1.05-.46a.1.1,0,0,1,.13,0,.09.09,0,0,1-.05.12l-1.06.47h0A.09.09,0,0,1,426.41,230.52Zm-75-.7-1-.48a.11.11,0,0,1,0-.13.1.1,0,0,1,.13-.05l1,.48a.1.1,0,0,1,0,.13.11.11,0,0,1-.09,0Zm77.05-.24a.09.09,0,0,1,0-.13l1-.49a.08.08,0,0,1,.12,0,.09.09,0,0,1,0,.13l-1,.49h0A.09.09,0,0,1,428.51,229.58Zm-79.13-.74-1-.52a.09.09,0,0,1,0-.13.11.11,0,0,1,.13,0l1,.52a.1.1,0,0,1,.05.13.12.12,0,0,1-.09,0Zm81.19-.27a.11.11,0,0,1,0-.13l1-.52a.09.09,0,0,1,.13,0,.09.09,0,0,1,0,.13l-1,.53h0A.1.1,0,0,1,430.57,228.57Zm-83.24-.79-1-.57a.1.1,0,0,1,0-.13.11.11,0,0,1,.14,0l1,.56a.09.09,0,0,1,0,.13.09.09,0,0,1-.08,0Zm85.28-.28a.1.1,0,0,1,0-.13l1-.56a.1.1,0,1,1,.1.17l-1,.56h-.05A.09.09,0,0,1,432.61,227.5Zm-87.27-.89-.26-.17a.09.09,0,0,1,0-.13.09.09,0,0,1,.13,0l.26.17a.11.11,0,0,1,0,.13.11.11,0,0,1-.09,0Zm89.26-.25a.09.09,0,0,1,0-.13c.34-.2.67-.4,1-.6a.11.11,0,0,1,.13,0,.11.11,0,0,1,0,.14l-1,.6h0A.11.11,0,0,1,434.6,226.36Zm2-1.21a.09.09,0,0,1,0-.13l1-.64a.09.09,0,0,1,.13,0,.11.11,0,0,1,0,.14l-1,.64h-.05S436.57,225.18,436.56,225.15Zm1.89-1.3a.09.09,0,0,1,0-.13c.6-.44.91-.7.92-.7a.09.09,0,0,1,.13,0,.1.1,0,0,1,0,.14s-.32.26-.92.7l-.06,0A.09.09,0,0,1,438.45,223.85Z" transform="translate(-332.79 -178.57)"/><path class="cls-50" d="M439.09,224.32a86.55,86.55,0,0,1-11.65,6.07,95,95,0,0,1-37.25,7.79c-15.84,0-27.38-3.18-34.27-5.85-7.49-2.91-10.83-5.51-11-5.64.27-.3,0-.71.36-1.16a46.71,46.71,0,0,0,11.09,5.75c6.79,2.63,18.17,5.76,33.8,5.76a94,94,0,0,0,36.8-7.7,84.09,84.09,0,0,0,12.56-6.67C439.45,223.09,439.26,223.85,439.09,224.32Z" transform="translate(-332.79 -178.57)"/><g class="cls-4"><path class="cls-51" d="M343,213.13c0-3.8-1.19-8.75-3.93-11.49l.13-.18c.91.72,6,5.18,6,15.07A22.76,22.76,0,0,1,338.9,232a26.31,26.31,0,0,1-3.09-4.36C340.74,226.24,343,219.08,343,213.13Z" transform="translate(-332.79 -178.57)"/></g><path class="cls-52" d="M338.72,202.14c2.21,2.7,2.78,6.51,2.2,10.63-.7,5-3.06,9.07-7.21,10.57a18.1,18.1,0,0,1-.92-5.49C332.79,213.15,334.82,207.58,338.72,202.14Z" transform="translate(-332.79 -178.57)"/><path class="cls-6" d="M338.14,205.69c1,.5.92,1.94.31,3.48s-1.51,2.59-2.49,2.12-.92-1.94-.32-3.49S337.12,205.19,338.14,205.69Z" transform="translate(-332.79 -178.57)"/><path class="cls-6" d="M335.33,212.27c.8.13,1.06.81,1,1.59s-.46,1.35-1.24,1.22-1.05-.82-1-1.6S334.53,212.13,335.33,212.27Z" transform="translate(-332.79 -178.57)"/><path class="cls-53" d="M445.92,214.09c-4-.23-9.85.09-11.48,1.72s5.26,4.47,11.2,5.33,11.15.51,7.52-2.74S446.78,214.14,445.92,214.09Z" transform="translate(-332.79 -178.57)"/><path class="cls-54" d="M434.44,215.81A4.12,4.12,0,0,1,436,215c-.48,2.2,6.12,4.33,13.77,4.88,2.56.18,3.75-.12,4.15-.67,2,2.54-2.83,2.77-8.26,2C439.7,220.28,432.81,217.44,434.44,215.81Z" transform="translate(-332.79 -178.57)"/><path class="cls-55" d="M450.45,216.8c-1.86-1.17-3-2.19-4.5-2.44a33.08,33.08,0,0,0-7.69.4c-1.69.36,3.51,2.82,6.44,3.29S453.75,218.88,450.45,216.8Z" transform="translate(-332.79 -178.57)"/><path class="cls-56" d="M427.11,190.44s7.55,6,11.12,12.23c0,0,5.72-3.61,8.75-6.12C450.61,193.53,448.71,187.37,427.11,190.44Z" transform="translate(-332.79 -178.57)"/><path class="cls-57" d="M431.36,189.92c-1.32,4.68,4.67,8,9.81,7.45,6.19-.66,6.84-3.4,6.47-5.31,1.4,1.45.84,3.24-.66,4.49-3,2.51-8.75,6.12-8.75,6.12-3.57-6.23-11.12-12.23-11.12-12.23C428.62,190.22,430,190.05,431.36,189.92Z" transform="translate(-332.79 -178.57)"/><path class="cls-58" d="M433.17,192c-.17,2,2.69,3.36,6.34,3.67s6.73-.67,6.9-2.56-2.72-3-6.38-3.26S433.35,190.06,433.17,192Z" transform="translate(-332.79 -178.57)"/><path class="cls-6" d="M437,190.85c0,.61,1,.87,2.24.89s2.21-.21,2.2-.8-1-.87-2.25-.89S437,190.24,437,190.85Z" transform="translate(-332.79 -178.57)"/><path class="cls-6" d="M442.07,191.2c-.16.42.22.69.77.82s1.05,0,1.2-.36-.22-.7-.77-.83S442.23,190.77,442.07,191.2Z" transform="translate(-332.79 -178.57)"/><path class="cls-59" d="M424,241.83s9-6.35,12.62-12.57c0,0,3.89,2,9.25,5.34C450.42,237.44,443.66,245.26,424,241.83Z" transform="translate(-332.79 -178.57)"/><path class="cls-60" d="M436.64,229.26l1.3.69a8,8,0,0,0-4.46,7.16c.1,3.81,6.45,4.44,12.06,2.48-3,2.42-10.09,4.23-21.52,2.24C424,241.83,433.06,235.48,436.64,229.26Z" transform="translate(-332.79 -178.57)"/><path class="cls-61" d="M436.81,231.72c-.93,1.59-1.05,4.25,2.27,5.68,2.5,1.45,5.86,1.1,6.76-.43s-1.21-2.83-3.7-4.28S437.75,230.13,436.81,231.72Z" transform="translate(-332.79 -178.57)"/><path class="cls-6" d="M438.81,232c-.24.56.56,1.22,1.66,1.75s2.1.74,2.33.19-.56-1.21-1.67-1.75S439.05,231.48,438.81,232Z" transform="translate(-332.79 -178.57)"/><path class="cls-6" d="M443.16,234.41c-.26.38,0,.73.53,1s1,.32,1.26-.05-.05-.73-.54-1S443.42,234,443.16,234.41Z" transform="translate(-332.79 -178.57)"/></g></g></svg>