<svg xmlns="http://www.w3.org/2000/svg" xmlns:xlink="http://www.w3.org/1999/xlink" viewBox="0 0 326.98 139.36"><defs><style>.cls-1{isolation:isolate;}.cls-10,.cls-2,.cls-3,.cls-4,.cls-7,.cls-8,.cls-9{stroke-miterlimit:10;}.cls-2{stroke:url(#Безымянный_градиент_166);}.cls-3{stroke:url(#Безымянный_градиент_166-2);}.cls-4{stroke:url(#Безымянный_градиент_166-3);}.cls-5{fill:url(#Безымянный_градиент_166-4);}.cls-6{fill:#1d1d1b;}.cls-7,.cls-8{stroke:url(#Безымянный_градиент_166-5);}.cls-8{opacity:0.34;}.cls-9{stroke:url(#Безымянный_градиент_166-7);}.cls-10{stroke:url(#Безымянный_градиент_166-8);}.cls-11{fill:url(#Безымянный_градиент_166-9);}.cls-12,.cls-20,.cls-21{mix-blend-mode:multiply;}.cls-13,.cls-21{fill:#d9b8b8;}.cls-14{fill:#85afaf;}.cls-15{fill:#fff;}.cls-16{fill:#1c103f;}.cls-17,.cls-20{fill:#f5c8bd;}.cls-18{fill:#005456;}.cls-19{fill:#3517ca;}.cls-22{fill:url(#Безымянный_градиент_166-10);}.cls-23{fill:#7adfff;}.cls-24{fill:url(#Безымянный_градиент_166-11);}.cls-25{fill:url(#Безымянный_градиент_166-12);}.cls-26{fill:url(#Безымянный_градиент_166-13);}.cls-27{fill:url(#Безымянный_градиент_166-14);}.cls-28{fill:url(#Безымянный_градиент_166-15);}</style><linearGradient id="Безымянный_градиент_166" x1="19.92" y1="40.3" x2="64.04" y2="40.3" gradientUnits="userSpaceOnUse"><stop offset="0" stop-color="#ff7a25"/><stop offset="0.29" stop-color="#da562c"/><stop offset="0.77" stop-color="#a42235"/><stop offset="1" stop-color="#8f0d39"/></linearGradient><linearGradient id="Безымянный_градиент_166-2" x1="0" y1="16.06" x2="32.39" y2="16.06" xlink:href="#Безымянный_градиент_166"/><linearGradient id="Безымянный_градиент_166-3" x1="15.29" y1="10.08" x2="25.95" y2="10.08" xlink:href="#Безымянный_градиент_166"/><linearGradient id="Безымянный_градиент_166-4" x1="234.55" y1="171.53" x2="265.83" y2="171.53" xlink:href="#Безымянный_градиент_166"/><linearGradient id="Безымянный_градиент_166-5" x1="262.95" y1="40.3" x2="307.07" y2="40.3" xlink:href="#Безымянный_градиент_166"/><linearGradient id="Безымянный_градиент_166-7" x1="294.59" y1="16.06" x2="326.98" y2="16.06" xlink:href="#Безымянный_градиент_166"/><linearGradient id="Безымянный_градиент_166-8" x1="301.03" y1="10.08" x2="311.69" y2="10.08" xlink:href="#Безымянный_градиент_166"/><linearGradient id="Безымянный_градиент_166-9" x1="529.61" y1="172.23" x2="560.78" y2="172.23" xlink:href="#Безымянный_градиент_166"/><linearGradient id="Безымянный_градиент_166-10" x1="24.45" y1="95.29" x2="34.01" y2="95.29" xlink:href="#Безымянный_градиент_166"/><linearGradient id="Безымянный_градиент_166-11" x1="305.7" y1="238.15" x2="315.27" y2="238.15" xlink:href="#Безымянный_градиент_166"/><linearGradient id="Безымянный_градиент_166-12" x1="527.16" y1="247.46" x2="536.73" y2="247.46" xlink:href="#Безымянный_градиент_166"/><linearGradient id="Безымянный_градиент_166-13" x1="480.08" y1="238.15" x2="489.64" y2="238.15" xlink:href="#Безымянный_градиент_166"/><linearGradient id="Безымянный_градиент_166-14" x1="362.36" y1="234.15" x2="371.93" y2="234.15" xlink:href="#Безымянный_градиент_166"/><linearGradient id="Безымянный_градиент_166-15" x1="425.08" y1="234.15" x2="434.64" y2="234.15" xlink:href="#Безымянный_градиент_166"/></defs><title>тарелка черная</title><g class="cls-1"><g id="Слой_1" data-name="Слой 1"><polygon class="cls-2" points="63.28 57.16 27.06 18.86 20.62 25.35 56.84 61.81 63.28 57.16"/><ellipse class="cls-3" cx="16.2" cy="16.06" rx="15.7" ry="15.56"/><ellipse class="cls-4" cx="20.62" cy="10.08" rx="4.83" ry="4.79"/><path class="cls-5" d="M265.79,171.23c-4.52-1-8.24,1.09-12.69,1.52a13.57,13.57,0,0,1-15.16-13.5.38.38,0,0,0-.7-.19c-5.38,8.37-2.75,19.59,6.62,23.75s19.63-1.56,22.19-11.12a.38.38,0,0,0-.73-.2c-2.33,8.72-11.3,14.14-20.06,11.07a15.45,15.45,0,0,1-9.34-9.26,14.59,14.59,0,0,1-.71-6.64c.11-1,1-6.37,2-5.68.07.05.58,3,.76,3.48a13.45,13.45,0,0,0,2.14,3.73,15,15,0,0,0,5.75,4.32c6.93,3,12.84-2.14,19.72-.56C266.06,172.06,266.26,171.34,265.79,171.23Z" transform="translate(-234.17 -152.17)"/><path class="cls-6" d="M264.35,238.28s28.45-72,133.26-72,128,75.85,128,75.85l-128,17Z" transform="translate(-234.17 -152.17)"/><polygon class="cls-7" points="263.7 57.16 299.92 18.86 306.36 25.35 270.14 61.81 263.7 57.16"/><polygon class="cls-8" points="263.7 57.16 299.92 18.86 306.36 25.35 270.14 61.81 263.7 57.16"/><ellipse class="cls-9" cx="310.79" cy="16.06" rx="15.7" ry="15.56"/><ellipse class="cls-10" cx="306.36" cy="10.08" rx="4.83" ry="4.79"/><path d="M560.66,168.23a15.31,15.31,0,0,0-1.78-7.16c-2.34,1.47-3.67,4.27-5.38,6.54a18.17,18.17,0,0,1-23.69,4.64,15.71,15.71,0,0,0,30.85-4Z" transform="translate(-234.17 -152.17)"/><path class="cls-11" d="M561,168.23a19,19,0,0,0-1.82-7.35.39.39,0,0,0-.52-.14c-3.55,2.74-5.18,7.07-8.75,9.83-5.9,4.58-13.44,4.79-19.94,1.35a.38.38,0,0,0-.55.43c5.51,17.36,30.8,14.11,31.58-4.12,0-.48-.73-.48-.75,0-.36,8.32-6.76,15.19-15.32,15.19a15.58,15.58,0,0,1-10.87-4.5c-.1-.09-4.12-4.9-3.5-5.47s1.92.49,2.63.72a18.52,18.52,0,0,0,14.56-1.23,19.07,19.07,0,0,0,6-5.07c.62-.79,1.12-1.64,1.7-2.45,3.22-4.54,4.64-.9,4.82,2.81C560.3,168.72,561.06,168.72,561,168.23Z" transform="translate(-234.17 -152.17)"/><path class="cls-6" d="M435.83,171.39c13.2,10.82,22.36,26.62,24,43.56.89,9.31-.56,19.4-6.76,26.45q21.06,4,42.43,6l30.16-4S508.28,186.75,435.83,171.39Z" transform="translate(-234.17 -152.17)"/><g class="cls-12"><path class="cls-13" d="M435,171.1c13.21,10.81,22.36,26.62,24,43.56.9,9.31-.55,19.4-6.75,26.45q21.06,4,42.42,6l30.17-4S507.48,186.45,435,171.1Z" transform="translate(-234.17 -152.17)"/></g><ellipse class="cls-14" cx="163.18" cy="73.03" rx="44.8" ry="44.42"/><ellipse class="cls-15" cx="148.1" cy="52.53" rx="12.3" ry="12.19"/><ellipse class="cls-16" cx="153.1" cy="52.53" rx="5" ry="4.96"/><ellipse class="cls-15" cx="178.27" cy="52.53" rx="12.3" ry="12.19"/><g class="cls-12"><path class="cls-17" d="M410.21,182.65A26.87,26.87,0,0,1,415,194.84c1.27,11-4.53,22.31-13.85,28.4-4.13,2.7-9,4.55-12.14,8.31q24.62,3.18,49.48,4c.82,0,1.65,0,2.47,0a44,44,0,0,0,1.25-10.39A44.48,44.48,0,0,0,410.21,182.65Z" transform="translate(-234.17 -152.17)"/></g><path class="cls-16" d="M412.44,204.7a5,5,0,1,1-5-5A5,5,0,0,1,412.44,204.7Z" transform="translate(-234.17 -152.17)"/><path class="cls-18" d="M358.71,212A6.08,6.08,0,0,0,360.45,200,44.18,44.18,0,0,0,355,210.69,6.12,6.12,0,0,0,358.71,212Z" transform="translate(-234.17 -152.17)"/><path class="cls-18" d="M386.4,186.71a2.94,2.94,0,1,0,2.93-2.91A2.93,2.93,0,0,0,386.4,186.71Z" transform="translate(-234.17 -152.17)"/><path class="cls-18" d="M435,219.91a5.13,5.13,0,1,0-5.17-5.12A5.15,5.15,0,0,0,435,219.91Z" transform="translate(-234.17 -152.17)"/><path class="cls-18" d="M371,218.64a3.9,3.9,0,1,0-3.89,3.86A3.87,3.87,0,0,0,371,218.64Z" transform="translate(-234.17 -152.17)"/><ellipse class="cls-18" cx="161.28" cy="73.85" rx="7.45" ry="7.38"/><path class="cls-18" d="M420.76,216.9a2,2,0,1,0,2,1.95A2,2,0,0,0,420.76,216.9Z" transform="translate(-234.17 -152.17)"/><path class="cls-18" d="M411.55,186.32a5.59,5.59,0,0,0,10.79,2,45,45,0,0,0-9.91-5A5.47,5.47,0,0,0,411.55,186.32Z" transform="translate(-234.17 -152.17)"/><path class="cls-19" d="M251,269.72l-10.29-21.48s19.89-23,162.67-23,154.86,26.85,154.86,26.85l-12.71,17.67Z" transform="translate(-234.17 -152.17)"/><path class="cls-6" d="M251.07,269.72l-10.29-21.48s19.89-23,162.67-23,154.86,26.85,154.86,26.85L545.6,269.72Z" transform="translate(-234.17 -152.17)"/><path class="cls-20" d="M251,269.88,240.71,248.4s19.89-23,162.67-23,154.86,26.85,154.86,26.85l-12.71,17.67Z" transform="translate(-234.17 -152.17)"/><path class="cls-15" d="M288,258.35l1.05-.19-4.47-24.87-1.18.21,4.46,24.87Z" transform="translate(-234.17 -152.17)"/><path class="cls-15" d="M343.31,252l1.06-.06-1.47-25-1.21.08,1.48,25Z" transform="translate(-234.17 -152.17)"/><path class="cls-15" d="M454.62,251.87l2.88-25.14-1.21-.08-2.92,25.5,1.2.14Z" transform="translate(-234.17 -152.17)"/><path class="cls-15" d="M510.47,232.79l-2.94,25.67,1.2.14,0-.42L511.66,233Z" transform="translate(-234.17 -152.17)"/><path class="cls-15" d="M398.48,249.72l1.06,0-.69-24.48h-1.21l.7,24.5Z" transform="translate(-234.17 -152.17)"/><ellipse class="cls-6" cx="164.1" cy="115.31" rx="147.9" ry="24.05"/><ellipse class="cls-21" cx="164.1" cy="115.31" rx="147.9" ry="24.05"/><path class="cls-6" d="M398.27,283.08c-36.13,0-70.79-2.15-97.59-6.06-21.26-3.09-32.28-6.48-37.88-8.89a2.09,2.09,0,0,1,0-3.84c5.6-2.41,16.62-5.8,37.88-8.89,26.8-3.91,61.46-6.06,97.59-6.06s70.78,2.15,97.59,6.06c21.25,3.09,32.27,6.48,37.88,8.89a2.09,2.09,0,0,1,0,3.84c-5.61,2.41-16.62,5.8-37.88,8.89C469.05,280.93,434.4,283.08,398.27,283.08Z" transform="translate(-234.17 -152.17)"/><ellipse class="cls-6" cx="164.7" cy="118.2" rx="62.78" ry="9.99"/><ellipse class="cls-21" cx="165.97" cy="119.24" rx="62.78" ry="9.99"/><ellipse class="cls-15" cx="163.18" cy="121.07" rx="36.16" ry="5.75"/><ellipse class="cls-22" cx="29.23" cy="95.29" rx="4.78" ry="4.74"/><path class="cls-23" d="M266.26,246.87a3.45,3.45,0,1,1-3.45-3.42A3.44,3.44,0,0,1,266.26,246.87Z" transform="translate(-234.17 -152.17)"/><ellipse class="cls-15" cx="26.62" cy="93.54" rx="1.17" ry="1.16"/><path class="cls-24" d="M315.27,238.15a4.79,4.79,0,1,1-4.78-4.74A4.76,4.76,0,0,1,315.27,238.15Z" transform="translate(-234.17 -152.17)"/><path class="cls-23" d="M313.34,237.56a3.45,3.45,0,1,1-3.44-3.41A3.43,3.43,0,0,1,313.34,237.56Z" transform="translate(-234.17 -152.17)"/><path class="cls-15" d="M309.05,236.41a1.17,1.17,0,1,1-1.17-1.16A1.16,1.16,0,0,1,309.05,236.41Z" transform="translate(-234.17 -152.17)"/><path class="cls-25" d="M527.16,247.46a4.79,4.79,0,1,0,4.79-4.74A4.77,4.77,0,0,0,527.16,247.46Z" transform="translate(-234.17 -152.17)"/><path class="cls-23" d="M529.09,246.87a3.45,3.45,0,1,0,3.45-3.42A3.43,3.43,0,0,0,529.09,246.87Z" transform="translate(-234.17 -152.17)"/><path class="cls-15" d="M533.39,245.71a1.17,1.17,0,1,0,1.17-1.15A1.16,1.16,0,0,0,533.39,245.71Z" transform="translate(-234.17 -152.17)"/><path class="cls-26" d="M480.08,238.15a4.78,4.78,0,1,0,4.78-4.74A4.76,4.76,0,0,0,480.08,238.15Z" transform="translate(-234.17 -152.17)"/><path class="cls-23" d="M482,237.56a3.45,3.45,0,1,0,3.45-3.41A3.44,3.44,0,0,0,482,237.56Z" transform="translate(-234.17 -152.17)"/><path class="cls-15" d="M486.3,236.41a1.17,1.17,0,0,0,2.34,0,1.17,1.17,0,0,0-2.34,0Z" transform="translate(-234.17 -152.17)"/><path class="cls-27" d="M371.93,234.15a4.79,4.79,0,1,1-4.78-4.75A4.76,4.76,0,0,1,371.93,234.15Z" transform="translate(-234.17 -152.17)"/><path class="cls-23" d="M370,233.56a3.45,3.45,0,1,1-3.45-3.42A3.43,3.43,0,0,1,370,233.56Z" transform="translate(-234.17 -152.17)"/><path class="cls-15" d="M365.71,232.4a1.17,1.17,0,1,1-1.17-1.16A1.17,1.17,0,0,1,365.71,232.4Z" transform="translate(-234.17 -152.17)"/><path class="cls-28" d="M434.64,234.15a4.78,4.78,0,1,1-4.78-4.75A4.76,4.76,0,0,1,434.64,234.15Z" transform="translate(-234.17 -152.17)"/><path class="cls-23" d="M432.72,233.56a3.45,3.45,0,1,1-3.45-3.42A3.44,3.44,0,0,1,432.72,233.56Z" transform="translate(-234.17 -152.17)"/><path class="cls-15" d="M428.42,232.4a1.17,1.17,0,1,1-1.17-1.16A1.16,1.16,0,0,1,428.42,232.4Z" transform="translate(-234.17 -152.17)"/><path class="cls-20" d="M294,213.26a101,101,0,0,1,39.6-24.71c2.17-.73,5.07-1.15,6.29.77.89,1.4.27,3.23-.44,4.74a53,53,0,0,1-36.61,28.8c-3.85.81-8.94.54-10.33-3.11-1.17-3,1.18-6.23,3.46-8.56" transform="translate(-234.17 -152.17)"/></g></g></svg>