<svg xmlns="http://www.w3.org/2000/svg" xmlns:xlink="http://www.w3.org/1999/xlink" viewBox="0 0 144.75 68.92"><defs><style>.cls-1{fill:none;}.cls-2{isolation:isolate;}.cls-3{fill:#102769;}.cls-4{fill:#1d1d1b;}.cls-5,.cls-50{fill:#d9b8b8;}.cls-49,.cls-5,.cls-53{mix-blend-mode:multiply;}.cls-6{fill:#003479;}.cls-7{fill:#afb1bc;}.cls-8{fill:#a2a5b2;}.cls-9{fill:#8b95a2;}.cls-10{fill:#002861;}.cls-11{fill:#171a49;}.cls-12{fill:#001238;}.cls-13{fill:#0c1035;}.cls-14{fill:#1d215a;}.cls-15{fill:url(#Безымянный_градиент_167);}.cls-16{fill:#263a77;}.cls-17{fill:#386197;}.cls-18{fill:#0f4181;}.cls-19{fill:#091037;}.cls-20{fill:#90d4e8;}.cls-21{fill:#5dd4e8;}.cls-22{fill:#aedfee;}.cls-23{fill:#8bd4e8;}.cls-24{fill:#00b1d0;}.cls-25{fill:#c0c2cd;}.cls-26{fill:#0c1e54;}.cls-27{fill:#000e2d;}.cls-28{fill:#2c3b6a;}.cls-29{fill:#11143b;}.cls-30{fill:#161948;}.cls-31{fill:#1d2c5f;}.cls-32{fill:#0d0f30;}.cls-33{fill:#000b24;}.cls-34{fill:#091744;}.cls-35{fill:#262a46;}.cls-36{fill:#020720;}.cls-37{fill:#2c2e34;}.cls-38{fill:#5b5d69;}.cls-39{fill:#25272c;}.cls-40{fill:#82848d;}.cls-41{fill:#a0a1a8;}.cls-42{fill:#fff;}.cls-43{fill:#454750;}.cls-44{fill:#3c3e46;}.cls-45{fill:#31333a;}.cls-46{fill:#52545f;}.cls-47{fill:#090c2a;}.cls-48{fill:#0c1014;}.cls-51{fill:#3b4e84;}.cls-52{clip-path:url(#clip-path);}.cls-53{fill:#f5c8bd;}</style><radialGradient id="Безымянный_градиент_167" cx="461.2" cy="234.75" r="6.71" gradientUnits="userSpaceOnUse"><stop offset="0" stop-color="#ffe45e"/><stop offset="1" stop-color="#f2710b"/></radialGradient><clipPath id="clip-path" transform="translate(-325.88 -188.7)"><path class="cls-1" d="M437.47,245.18a3.63,3.63,0,0,1,.1.42l0,0a2.49,2.49,0,0,0-.09-.37l0-.07Z"/></clipPath></defs><title>самолет черный</title><g class="cls-2"><g id="Слой_1" data-name="Слой 1"><path class="cls-3" d="M451,219s4,.34,4.55,1.57,1,5.69-1.6,10.34-2,6.8-6.26,4.77S451,219,451,219Z" transform="translate(-325.88 -188.7)"/><path class="cls-4" d="M447.73,235.72c4.22,2,3.62-.12,6.27-4.77a15.32,15.32,0,0,0,1.63-4.19,28.33,28.33,0,0,1-7.54-.94c-1.51,4.13-2.61,8.82-.36,9.9Z" transform="translate(-325.88 -188.7)"/><path class="cls-4" d="M433.53,206.58c1.79-2,13-13.48,15.15-15.69s7.56-4.58,7.68,2.85A139.31,139.31,0,0,1,455,209.42c-.65,5.15-1.29,9.57-1.13,10.32.33,1.56,1.65,5.81-.05,8,0,0-2.88,2.51-3.19,4.24s-.26,4.58-3.32,5.07a26.8,26.8,0,0,1-5.11,0,28.13,28.13,0,0,0-6.85.25c-4.17.84-21.62,7.51-32.77,8.39s-26.66,1.23-41-1.45-22.69-6.11-28.45-8.89-8-6.35-7.14-9.7,8.69-5.75,11.69-7.76a91.93,91.93,0,0,0,12.18-9.17c4.06-3.85,8.32-5.79,16-6.73,8.61-1.05,47.65,8.11,52.49,9,5.53,1.07,6.48,1,8.68.22,3.24-1.08,6.41-4.71,6.41-4.71Z" transform="translate(-325.88 -188.7)"/><path class="cls-5" d="M381.4,211.91c-4,.33-6.65,1.17-7.19,2.68-1.63,4.59-2,10.08-14.08,11.54s-9.21,7,.65,7.88a59.87,59.87,0,0,0,9.64.23c4.43-.37,7.15-1.71,7.32-4.78.21-4,3.1-5.06,10.85-5.76a3.23,3.23,0,0,1,.81-6.27h.23l.22,0a3.23,3.23,0,0,1,1.82,6.06l3.12-.21,3-.19a3.18,3.18,0,0,1-.95-2,3.23,3.23,0,0,1,2.95-3.49h.22l.23,0a3.23,3.23,0,0,1,2.78,5.25l4.22-.25a3.12,3.12,0,0,1-.25-1A3.23,3.23,0,0,1,410,218h.22l.23,0a3.23,3.23,0,0,1,3.49,2.95,3.19,3.19,0,0,1-.11,1.12l2.25-.17,1.45-.13a3.23,3.23,0,0,1,2.83-2.32h.23a.83.83,0,0,1,.22,0,3.23,3.23,0,0,1,3.11,1.67c7.19-.95,10.53-2.27,2.4-4.14-13-3-33.92-5.93-44.91-5Z" transform="translate(-325.88 -188.7)"/><path class="cls-5" d="M343.11,214.3c-2.05,1.46-4.11,2.79-5.54,3.75-2.81,1.87-9.59,4.3-11.18,7.33a63.26,63.26,0,0,0,7.85,2.18c15.95,3.77,25.34-8.88,28.74-12.72-4.35-1.59-9.86-2.58-14.7-4.33C346.62,211.93,344.77,213.1,343.11,214.3Z" transform="translate(-325.88 -188.7)"/><path class="cls-5" d="M455.85,201.93l-15.38-2.55c-1.84,1.9-3.62,3.74-4.94,5.13l19.68,3.25C455.44,205.84,455.66,203.85,455.85,201.93Z" transform="translate(-325.88 -188.7)"/><path class="cls-5" d="M454.74,211.66l-22.52-3.72a14.84,14.84,0,0,1-5,3.31c-2.38.75-3.15.84-8.68-.22-4.85-.94-43.86-9.89-52.49-9.05-10.63,1-15.17,6-15.17,6,5.69,14,12.16-1.1,39.29,1.23,26.71,2.29,58.6,9.58,61.25,10.19.54.13,1.38.29,2.53.45l0-.12C453.79,219,454.23,215.79,454.74,211.66Z" transform="translate(-325.88 -188.7)"/><path class="cls-6" d="M335.37,219.26c-3.56,1.74-8.58,3.79-9.27,6.44-.86,3.36,1.39,6.92,7.15,9.7l.44.21a16.54,16.54,0,0,0,3-10,17.54,17.54,0,0,0-1.31-6.31Z" transform="translate(-325.88 -188.7)"/><path class="cls-3" d="M448.68,190.89c-2.16,2.2-13.35,13.72-15.15,15.69,0,0-3.17,3.63-6.41,4.71a10,10,0,0,1-5.05.37c5.92,1,6.28,1.32,11.39,2.41.61.13,1,.23,1.29.3-1.07-.4-3.88-1.84-1.66-4.65,4-5,11.87-12.92,15.76-17s7-4.15,7.39-.14C455.66,186.57,450.73,188.81,448.68,190.89Z" transform="translate(-325.88 -188.7)"/><path class="cls-7" d="M389.45,223.62l-.86.08a3.2,3.2,0,0,0,1.35.17.78.78,0,0,0,.22,0h.23a3.24,3.24,0,0,0,1.28-.39l-2.22.17Z" transform="translate(-325.88 -188.7)"/><path class="cls-8" d="M389.85,217.39l-.22,0h-.23a3.23,3.23,0,0,0-.81,6.27l.86-.08,2.22-.17a3.23,3.23,0,0,0-1.82-6.06Z" transform="translate(-325.88 -188.7)"/><path class="cls-7" d="M397.84,223.05a3.22,3.22,0,0,0,2.54.93l.22,0h.22a3.26,3.26,0,0,0,2.25-1.19l-5.23.3Z" transform="translate(-325.88 -188.7)"/><path class="cls-8" d="M400.29,217.5l-.23,0h-.22a3.23,3.23,0,0,0-2.95,3.49,3.18,3.18,0,0,0,.95,2l5.23-.3a3.23,3.23,0,0,0-2.78-5.25Z" transform="translate(-325.88 -188.7)"/><path class="cls-7" d="M407.29,222.5a3.22,3.22,0,0,0,3.24,1.94l.22,0H411a3.25,3.25,0,0,0,2.85-2.37c-2.17.17-4.38.32-6.53.46Z" transform="translate(-325.88 -188.7)"/><path class="cls-8" d="M410.44,218l-.23,0H410a3.23,3.23,0,0,0-2.95,3.49,3.12,3.12,0,0,0,.25,1c2.15-.14,4.36-.29,6.53-.46a3.19,3.19,0,0,0,.11-1.12,3.23,3.23,0,0,0-3.49-2.95Z" transform="translate(-325.88 -188.7)"/><path class="cls-7" d="M423.91,221.06c-1.91.25-4.08.48-6.39.68a3.23,3.23,0,0,0,3.37,4.13l.22,0h.23a3.23,3.23,0,0,0,3-3.49,3.19,3.19,0,0,0-.38-1.28Z" transform="translate(-325.88 -188.7)"/><path class="cls-8" d="M420.8,219.39a.83.83,0,0,0-.22,0h-.23a3.23,3.23,0,0,0-2.83,2.32c2.31-.2,4.48-.43,6.39-.68a3.23,3.23,0,0,0-3.11-1.67Z" transform="translate(-325.88 -188.7)"/><path class="cls-4" d="M427.12,211.29a10,10,0,0,1-5.05.37c5.92,1,6.28,1.32,11.39,2.41.61.13,1,.23,1.29.3-1.07-.4-3.88-1.84-1.66-4.65.36-.46.75-.93,1.17-1.43l-2.07-.34A15.28,15.28,0,0,1,427.12,211.29Z" transform="translate(-325.88 -188.7)"/><path class="cls-4" d="M435.51,204.49l1.83.3c1.54-1.69,3.2-3.45,4.83-5.14l-1.73-.28C438.61,201.26,436.83,203.1,435.51,204.49Z" transform="translate(-325.88 -188.7)"/><path class="cls-4" d="M448.68,190.89c-1,1-4,4.1-7.08,7.28l1.73.28c2.12-2.19,4.09-4.2,5.52-5.69,3.89-4,7-4.15,7.39-.14C455.66,186.57,450.73,188.81,448.68,190.89Z" transform="translate(-325.88 -188.7)"/><path class="cls-5" d="M381,230a66.42,66.42,0,0,0,1.84,7.74c-11.46-.62-20.59-1.48-27.88-2.46,9.1,2.25,21.63,3.8,38.67,3.3-1.33-.9-2.43-1.69-3.34-2.37-1.75-.87-3.34-1.69-4.67-2.43a18.68,18.68,0,0,1-3.63-2.38,4.25,4.25,0,0,1-1-1.4Zm50.4-6.59c-.24,1.69,1.21,6.43,2.85,9.85-2.72.35-5.6.68-8.66,1l2,1.45c3.6-.49,6.57-.9,9.11-1.11a29,29,0,0,1,5.66,0,40.42,40.42,0,0,0,7.61.2l.12-.36c-2.64-1.24-6.55-3-10.11-4.8h0l-.12-.06h0c-1.65-.84-3.22-1.69-4.54-2.52a15.4,15.4,0,0,1-3.11-2.35,2.69,2.69,0,0,1-.74-1.23Z" transform="translate(-325.88 -188.7)"/><path class="cls-9" d="M447.92,237c-.17.05-.34.08-.52.12l-.73.08-.3,0a3,3,0,0,0,.43,0,4.39,4.39,0,0,0,1.12-.19Zm-6.13.12,1.46.07-1,0-.49,0Zm-3.91,0c.88,0,2.5,0,3.73,0a35.65,35.65,0,0,0-3.73,0ZM450,234.41l-.12.36.25,0h0a3.52,3.52,0,0,1-1,1.57l.17.05a4,4,0,0,0,1-1.78l-.09,0-.28-.13Zm-123.76-9.16a2.32,2.32,0,0,0-.16.44,5.51,5.51,0,0,0-.16,1.85,5.74,5.74,0,0,1,.16-1.84,3.66,3.66,0,0,1,.15-.43v0Z" transform="translate(-325.88 -188.7)"/><path class="cls-5" d="M436.63,234.46c-2.53.21-5.5.62-9.11,1.11l1.47,1.11h0c.77.58,1.5,1.16,2.2,1.71,1.88-.59,3.36-1,4.24-1.2a15.12,15.12,0,0,1,1.79-.25l.65,0a35.65,35.65,0,0,1,3.73,0h.18l.5,0,1,0c1,0,2.17.08,3.12,0l.3,0,.73-.08a4,4,0,0,0,.52-.12h0l.29-.13a3.12,3.12,0,0,0,.93-.54h0a3.52,3.52,0,0,0,1-1.57h0l-.25,0a40.46,40.46,0,0,1-7.61-.2,29,29,0,0,0-5.66,0Zm-100.81-3.17a15.42,15.42,0,0,1-2.11,4.17c5.74,2.75,14.05,6.07,28,8.68a141,141,0,0,0,27.18,2.07,11.63,11.63,0,0,1,.21-1.25,6,6,0,0,1,1.28-2.77,2.37,2.37,0,0,1,.8-.6l.18-.11c2.09-2.15,5.29-1,2.69-2.72l-.43-.3c-17.05.5-29.58-1.05-38.68-3.3a117.38,117.38,0,0,1-19.11-3.87Z" transform="translate(-325.88 -188.7)"/><path class="cls-10" d="M326.25,225.27a3.66,3.66,0,0,0-.15.43,5.74,5.74,0,0,0-.16,1.84c.24,2.78,2.6,5.57,7.31,7.84l.45.22a15.14,15.14,0,0,0,2.11-4.17c-9.57-3-9.58-5.86-9.56-6.16Z" transform="translate(-325.88 -188.7)"/><path class="cls-11" d="M441.06,227.32c-9.62-4.48-6.78-5.84-5.39-5.93-2.09,0-4.24.48-4.26,1.81,0,1.59,3.9,4,8.41,6.29,0,0-.32-1.79,1.24-2.17Z" transform="translate(-325.88 -188.7)"/><path class="cls-12" d="M441.06,227.32l0-.06a30.75,30.75,0,0,1-5.38-3,6.05,6.05,0,0,1-1.11-1.05,1.38,1.38,0,0,1-.35-.75.58.58,0,0,1,.1-.41,1.12,1.12,0,0,1,.55-.41,2.85,2.85,0,0,1,.73-.17h.05v-.14l-1,.05a6.9,6.9,0,0,0-2.32.52,2.16,2.16,0,0,0-.75.54,1.13,1.13,0,0,0-.29.77v.1a2.49,2.49,0,0,0,.76,1.36,15.4,15.4,0,0,0,3.11,2.35c1.33.83,2.91,1.69,4.57,2.54l.12.06,0-.13a1,1,0,0,1,0-.15,2.28,2.28,0,0,1,.13-1,1.47,1.47,0,0,1,1.08-.92l.18,0-.17-.08,0,.06,0-.07a1.61,1.61,0,0,0-1.17,1,2.6,2.6,0,0,0-.14,1.09c0,.1,0,.16,0,.16h.07l0-.06a52.43,52.43,0,0,1-5.8-3.34,11.43,11.43,0,0,1-1.84-1.52,2.37,2.37,0,0,1-.73-1.28v-.09a1,1,0,0,1,.26-.68,2.49,2.49,0,0,1,1.19-.69,7.83,7.83,0,0,1,1.79-.32c.32,0,.63,0,.95,0v-.14h-.05a2.38,2.38,0,0,0-1,.29,1.1,1.1,0,0,0-.37.34.78.78,0,0,0-.13.51,1.64,1.64,0,0,0,.38.82c.72.93,2.58,2.24,6.54,4.09l0-.06,0-.07,0,.07Z" transform="translate(-325.88 -188.7)"/><path class="cls-13" d="M470.23,236.61c0,.6-.54,1-2.06,1.15-4.84.37-10.27-1.93-16-4.81a1.69,1.69,0,0,0-1.29,1.8c5.82,2.69,13.27,5.21,18.35,4.09C470.7,238.52,470.83,237.68,470.23,236.61Z" transform="translate(-325.88 -188.7)"/><path class="cls-12" d="M470.23,236.61h-.06a.72.72,0,0,1-.1.38,1.07,1.07,0,0,1-.58.44,4.74,4.74,0,0,1-1.28.26h0c-4.82.37-10.25-1.92-15.95-4.8h-.05a1.78,1.78,0,0,0-1.2,1,1.7,1.7,0,0,0-.14.83v.06l0,0c5.27,2.43,11.87,4.73,16.87,4.32a11.8,11.8,0,0,0,1.52-.23,2,2,0,0,0,1.08-.52,1,1,0,0,0,.29-.84,2.59,2.59,0,0,0-.34-1l-.12,0h.06l-.06,0a2.32,2.32,0,0,1,.32.91.88.88,0,0,1-.24.74,2,2,0,0,1-1,.48,10.56,10.56,0,0,1-1.51.22c-5,.42-11.55-1.87-16.8-4.3l0,.06H451v0a1.82,1.82,0,0,1,.13-.77,1.69,1.69,0,0,1,1.11-.94V233l0,.06c5.71,2.88,11.15,5.19,16,4.81h.05a3.74,3.74,0,0,0,1.59-.4,1.07,1.07,0,0,0,.37-.36.88.88,0,0,0,.11-.45h-.07l-.06,0Z" transform="translate(-325.88 -188.7)"/><path class="cls-14" d="M452.19,233c-3.62-1.82-7.34-3.87-11.08-5.61l-.05,0c-1.56.38-1.25,2.16-1.24,2.17,3.72,1.9,7.84,3.73,10.51,5l.57.27a1.69,1.69,0,0,1,1.29-1.8Z" transform="translate(-325.88 -188.7)"/><path class="cls-12" d="M452.19,233l0-.06c-3.61-1.82-7.33-3.87-11.09-5.61l0,0h0a1.61,1.61,0,0,0-1.17,1,2.6,2.6,0,0,0-.14,1.09c0,.1,0,.16,0,.16v0l0,0c3.72,1.9,7.85,3.73,10.51,5l.57.27.11.05,0-.12v0a1.67,1.67,0,0,1,.13-.77,1.69,1.69,0,0,1,1.11-.94l.17,0-.15-.07,0,.06,0-.07a1.78,1.78,0,0,0-1.2,1,1.7,1.7,0,0,0-.14.83v0h.07l0-.06-.57-.27c-2.67-1.26-6.79-3.09-10.51-5l0,.06h.06a1.19,1.19,0,0,1,0-.15,2.28,2.28,0,0,1,.13-1,1.47,1.47,0,0,1,1.08-.92l0-.06,0,.06.05,0c3.74,1.74,7.46,3.79,11.08,5.61l0-.06,0-.07,0,.07Z" transform="translate(-325.88 -188.7)"/><path class="cls-15" d="M465.4,231.84c-5.27-.53-13.2,1.1-13.2,1.1,5.69,2.87,11.11,5.16,15.94,4.79,1.52-.12,2.08-.55,2.07-1.15-.79-1.4-2.82-3.19-4.81-4.74Z" transform="translate(-325.88 -188.7)"/><path class="cls-4" d="M465.4,231.84c-5.27-.53-13.2,1.1-13.2,1.1,5.69,2.87,11.11,5.16,15.94,4.79,1.52-.12,2.08-.55,2.07-1.15-.79-1.4-2.82-3.19-4.81-4.74Z" transform="translate(-325.88 -188.7)"/><path class="cls-3" d="M459.06,227.3v.07h.21l-.15-.11c-1-.71-2.07-1.51-3.1-2.18a10.43,10.43,0,0,0-2.7-1.38,32.65,32.65,0,0,0-4.6-.72c-2.18-.28-8-1.05-10.1-1.45a15.09,15.09,0,0,0-3-.22h-.05a2.53,2.53,0,0,0-1,.29,1.1,1.1,0,0,0-.37.34.85.85,0,0,0-.13.51,1.64,1.64,0,0,0,.38.82c.73.94,2.6,2.26,6.59,4.11h0l.27,0,.75-.07c2.85-.23,11.07-.79,16.95.09h0v-.13c-5.9-.89-14.12-.33-17-.09l-1,.09v.07l0-.06a30.41,30.41,0,0,1-5.41-3,5.55,5.55,0,0,1-1.12-1,1.44,1.44,0,0,1-.35-.76.58.58,0,0,1,.1-.41,1.12,1.12,0,0,1,.55-.41,2.56,2.56,0,0,1,.73-.17h0v0a15.66,15.66,0,0,1,3,.22c2.15.4,7.92,1.17,10.1,1.45a35,35,0,0,1,4.58.72,10.47,10.47,0,0,1,2.67,1.36c1,.66,2.11,1.46,3.09,2.18l0-.06v-.06h0v.06Z" transform="translate(-325.88 -188.7)"/><path class="cls-16" d="M465.4,231.84l0-.05c-2-1.57-4-2.88-4.54-3.26s-1.11-.79-1.77-1.28h-.07v0c-5.9-.89-14.12-.33-17-.09l-1,.09-.24,0,.22.1c3.76,1.75,7.49,3.8,11.12,5.63h0a70.63,70.63,0,0,1,7.43-1,31.69,31.69,0,0,1,5.75-.05l.24,0-.19-.14,0,.05v-.07a34,34,0,0,0-5.78,0,73.1,73.1,0,0,0-7.45,1.05l0,.07,0-.06c-3.62-1.82-7.36-3.88-11.13-5.63l0,.06v.07l.27,0,.75-.07c2.85-.23,11.07-.79,16.95.09h0v-.07l0,.06c.66.49,1.28.94,1.78,1.28s2.53,1.69,4.53,3.25l0,0v0Z" transform="translate(-325.88 -188.7)"/><path class="cls-17" d="M336.21,221.87a15.91,15.91,0,0,0-.84-2.61c-3.34,1.63-8,3.54-9.09,6C326.51,224.94,328.76,222.42,336.21,221.87Z" transform="translate(-325.88 -188.7)"/><path class="cls-18" d="M336.55,223.77a34,34,0,0,0-10.28,1.5h0c.15.13,2.87,2.43,10.29,2.81a18.55,18.55,0,0,0,.12-2.49A18.32,18.32,0,0,0,336.55,223.77Z" transform="translate(-325.88 -188.7)"/><path class="cls-13" d="M392.09,219.76a3.23,3.23,0,1,1-3.49-2.95A3.24,3.24,0,0,1,392.09,219.76Z" transform="translate(-325.88 -188.7)"/><path class="cls-3" d="M392.53,219.73a3.23,3.23,0,1,1-3.48-3A3.23,3.23,0,0,1,392.53,219.73Z" transform="translate(-325.88 -188.7)"/><path class="cls-19" d="M391.85,219.78a2.54,2.54,0,1,1-2.75-2.32A2.53,2.53,0,0,1,391.85,219.78Z" transform="translate(-325.88 -188.7)"/><path class="cls-20" d="M391.58,219.81a2.27,2.27,0,1,1-2.45-2.08A2.28,2.28,0,0,1,391.58,219.81Z" transform="translate(-325.88 -188.7)"/><path class="cls-21" d="M391,219.86a1.74,1.74,0,1,1-1.87-1.59A1.73,1.73,0,0,1,391,219.86Z" transform="translate(-325.88 -188.7)"/><path class="cls-13" d="M402.52,219.87a3.23,3.23,0,1,1-3.49-3A3.23,3.23,0,0,1,402.52,219.87Z" transform="translate(-325.88 -188.7)"/><path class="cls-3" d="M403,219.83a3.23,3.23,0,1,1-3.49-3A3.23,3.23,0,0,1,403,219.83Z" transform="translate(-325.88 -188.7)"/><path class="cls-19" d="M402.29,219.89a2.55,2.55,0,1,1-2.75-2.33A2.56,2.56,0,0,1,402.29,219.89Z" transform="translate(-325.88 -188.7)"/><path class="cls-20" d="M402,219.91a2.28,2.28,0,1,1-2.46-2.08A2.29,2.29,0,0,1,402,219.91Z" transform="translate(-325.88 -188.7)"/><path class="cls-21" d="M401.48,220a1.74,1.74,0,1,1-1.87-1.58A1.74,1.74,0,0,1,401.48,220Z" transform="translate(-325.88 -188.7)"/><path class="cls-13" d="M412.67,220.34a3.23,3.23,0,1,1-3.49-3A3.22,3.22,0,0,1,412.67,220.34Z" transform="translate(-325.88 -188.7)"/><path class="cls-3" d="M413.12,220.3a3.23,3.23,0,1,1-3.49-3A3.23,3.23,0,0,1,413.12,220.3Z" transform="translate(-325.88 -188.7)"/><path class="cls-19" d="M412.44,220.35a2.55,2.55,0,1,1-2.75-2.32A2.55,2.55,0,0,1,412.44,220.35Z" transform="translate(-325.88 -188.7)"/><path class="cls-20" d="M412.17,220.38a2.28,2.28,0,1,1-2.46-2.08A2.29,2.29,0,0,1,412.17,220.38Z" transform="translate(-325.88 -188.7)"/><path class="cls-21" d="M411.66,220.49a1.76,1.76,0,1,1-1.9-1.6A1.76,1.76,0,0,1,411.66,220.49Z" transform="translate(-325.88 -188.7)"/><path class="cls-13" d="M423,221.76a3.24,3.24,0,1,1-3.49-2.95A3.24,3.24,0,0,1,423,221.76Z" transform="translate(-325.88 -188.7)"/><path class="cls-3" d="M423.48,221.72a3.23,3.23,0,1,1-3.48-2.95A3.23,3.23,0,0,1,423.48,221.72Z" transform="translate(-325.88 -188.7)"/><path class="cls-19" d="M422.8,221.78a2.54,2.54,0,1,1-2.75-2.33A2.54,2.54,0,0,1,422.8,221.78Z" transform="translate(-325.88 -188.7)"/><path class="cls-20" d="M422.53,221.8a2.28,2.28,0,1,1-2.46-2.08A2.27,2.27,0,0,1,422.53,221.8Z" transform="translate(-325.88 -188.7)"/><path class="cls-21" d="M422,221.84a1.77,1.77,0,1,1-1.91-1.61A1.78,1.78,0,0,1,422,221.84Z" transform="translate(-325.88 -188.7)"/><path class="cls-22" d="M397.47,220.05l2.7,2.29a2.21,2.21,0,0,0,1-.44l-3.4-2.88A2.14,2.14,0,0,0,397.47,220.05Z" transform="translate(-325.88 -188.7)"/><path class="cls-22" d="M402,219.92a.59.59,0,0,0,0-.14l-2.3-1.95h-.14a2.18,2.18,0,0,0-.95.31l3.27,2.77A2.21,2.21,0,0,0,402,219.92Z" transform="translate(-325.88 -188.7)"/><path class="cls-22" d="M407.62,220.52l2.7,2.29a2.16,2.16,0,0,0,1-.44l-3.4-2.88A2.14,2.14,0,0,0,407.62,220.52Z" transform="translate(-325.88 -188.7)"/><path class="cls-22" d="M412.16,220.38a.78.78,0,0,0,0-.14l-2.29-1.94h-.15a2.18,2.18,0,0,0-.95.31l3.27,2.77A2.23,2.23,0,0,0,412.16,220.38Z" transform="translate(-325.88 -188.7)"/><path class="cls-22" d="M418,221.94l2.71,2.29a2.26,2.26,0,0,0,1-.44l-3.41-2.88A2.39,2.39,0,0,0,418,221.94Z" transform="translate(-325.88 -188.7)"/><path class="cls-22" d="M422.53,221.81c0-.05,0-.1,0-.14l-2.3-1.95h-.14a2.25,2.25,0,0,0-1,.3l3.28,2.77A2.34,2.34,0,0,0,422.53,221.81Z" transform="translate(-325.88 -188.7)"/><path class="cls-22" d="M387,219.94l2.7,2.29a2.16,2.16,0,0,0,1-.44l-3.4-2.88A2.25,2.25,0,0,0,387,219.94Z" transform="translate(-325.88 -188.7)"/><path class="cls-22" d="M391.58,219.81c0-.05,0-.1,0-.14l-2.3-1.95h-.14a2.09,2.09,0,0,0-1,.3l3.27,2.77A2.19,2.19,0,0,0,391.58,219.81Z" transform="translate(-325.88 -188.7)"/><path class="cls-3" d="M356.89,204.17s-1.16.87,1.57,2c2.14.9,9.57,3.51,11.92,4.19s2.19,3.5.86,5.92-3,6.71-6.95,7.6-22.49-4.5-21.18-9.59c0,0,3.16-2.29,5.17-4.06S352.05,206.17,356.89,204.17Z" transform="translate(-325.88 -188.7)"/><path class="cls-21" d="M345.65,217.91A41.29,41.29,0,0,0,355.86,222c3.39,1,7.62,2.23,10.66-.3a14.38,14.38,0,0,0,3.1-3.76,26.31,26.31,0,0,0,1.23-2.5c1.41-3.08.26-4.47-1.31-5s-7.35-2.49-10.74-3.78-2.92-2.07-1.76-2.6a19.82,19.82,0,0,0-7.2,4.66,74.59,74.59,0,0,1-6.73,5.53C343.08,215.89,344.22,217,345.65,217.91Z" transform="translate(-325.88 -188.7)"/><path class="cls-23" d="M350.21,217.48c10.7,4.9,14,2,15.91-1,3.1-4.94-2.63-5.67-9.63-7.75a6.17,6.17,0,0,1-3.7-2.38,25.78,25.78,0,0,0-2.51,2.13,59.68,59.68,0,0,1-5.23,4.35C345.52,214.33,346.88,216,350.21,217.48Z" transform="translate(-325.88 -188.7)"/><path class="cls-22" d="M353.39,206a23.76,23.76,0,0,0-3.37,2.72c-.41.39-.83.77-1.26,1.15a23.7,23.7,0,0,0-.09,9.61,43,43,0,0,0,4.26,1.64C351.15,216,352,210.35,353.39,206Z" transform="translate(-325.88 -188.7)"/><path class="cls-22" d="M363.68,208.5c-1.14-.4-2.3-.81-3.35-1.2-1.28,4.75-1.84,10.69.81,15.89a8.2,8.2,0,0,0,3.66-.44C362.49,218.12,362.7,212.92,363.68,208.5Z" transform="translate(-325.88 -188.7)"/><path class="cls-24" d="M362.82,223.31A19.85,19.85,0,0,1,356,222.2l-.18,0A42.9,42.9,0,0,1,345.58,218c-3.28-2-2.47-3.72-2.47-3.72,0,1.31.92,2.46,2.61,3.5a41.93,41.93,0,0,0,10.18,4.09l.18.05c3.31.95,7.43,2.12,10.35-.32a14.09,14.09,0,0,0,3.07-3.73,26,26,0,0,0,1.18-2.36l.05-.13a4.25,4.25,0,0,0,.42-3.44,2.53,2.53,0,0,0-1.65-1.34c-1.65-.52-7.45-2.53-10.75-3.78-1.65-.63-2.53-1.2-2.67-1.73s.79-.93.79-.93-.68.34-.54.86c.09.3.59.81,2.52,1.55,3.29,1.25,9.09,3.25,10.73,3.77a2.77,2.77,0,0,1,1.81,1.49,4.55,4.55,0,0,1-.41,3.66l-.06.13a24,24,0,0,1-1.19,2.38,14.48,14.48,0,0,1-3.13,3.81A6.64,6.64,0,0,1,362.82,223.31Z" transform="translate(-325.88 -188.7)"/><path class="cls-25" d="M455.93,225h0l.11.07c1,.66,2.11,1.45,3.08,2.17h0l.15.11h0c.61.45,1.17.86,1.62,1.17s2.52,1.69,4.53,3.25h0l.19.14h0l.4.32h0l-.65-.51c-2-1.56-4-2.86-4.53-3.25s-1.11-.79-1.78-1.28c-1-.73-2.11-1.55-3.15-2.22Z" transform="translate(-325.88 -188.7)"/><path class="cls-26" d="M454.92,224.38h0c.32.18.66.39,1,.61h0c-.35-.22-.69-.43-1-.61Z" transform="translate(-325.88 -188.7)"/><path class="cls-9" d="M454.5,224.15v0l.42.22h0l-.42-.23Z" transform="translate(-325.88 -188.7)"/><path class="cls-27" d="M435.15,221.34l-.26.08H435a1.65,1.65,0,0,1,.32-.07Z" transform="translate(-325.88 -188.7)"/><path class="cls-28" d="M465.08,231.88l.52.2-.23-.18-.29,0Z" transform="translate(-325.88 -188.7)"/><path class="cls-28" d="M465.08,231.88h0l.29,0,.23.18.43.17-.4-.32-.24,0-.31,0Zm.35-.1h0Z" transform="translate(-325.88 -188.7)"/><path class="cls-29" d="M434.68,221.51a8.14,8.14,0,0,0-1.75.32,2.49,2.49,0,0,0-1.19.69,1,1,0,0,0-.26.68v.09a2.37,2.37,0,0,0,.73,1.28,11.43,11.43,0,0,0,1.84,1.52,52.27,52.27,0,0,0,5.69,3.28v0a2.6,2.6,0,0,1,.14-1.09,1.6,1.6,0,0,1,1-.95c-1.28-.59-2.33-1.14-3.19-1.63-4.38-2.46-4-3.68-3-4.16Z" transform="translate(-325.88 -188.7)"/><path class="cls-27" d="M437.68,225.67c.86.49,1.91,1,3.19,1.63h0l-.06,0h0l-1.24-.6h0c-.72-.35-1.35-.69-1.9-1Zm-3-4.24c-1.75.15-3.3.64-3.31,1.77,0,1.58,3.86,4,8.33,6.25v-.08a52.27,52.27,0,0,1-5.69-3.28,11.43,11.43,0,0,1-1.84-1.52,2.37,2.37,0,0,1-.73-1.28v-.09a1,1,0,0,1,.26-.68,2.49,2.49,0,0,1,1.19-.69,8.14,8.14,0,0,1,1.75-.32l.21-.09Z" transform="translate(-325.88 -188.7)"/><path class="cls-30" d="M441.05,227.39a1.45,1.45,0,0,0-1.05.91,2.28,2.28,0,0,0-.13,1s0,.09,0,.12c2.9,1.47,6.05,2.91,8.56,4.07a11.72,11.72,0,0,1-1.31-3.11c-2-1-4-2.07-6.05-3Z" transform="translate(-325.88 -188.7)"/><path class="cls-27" d="M440.89,227.3h0a1.6,1.6,0,0,0-1,.95,2.6,2.6,0,0,0-.14,1.09v.11l.08,0c2.94,1.51,6.15,3,8.67,4.14l-.05-.1c-2.51-1.16-5.66-2.6-8.56-4.07,0,0,0-.07,0-.12a2.28,2.28,0,0,1,.13-1,1.45,1.45,0,0,1,1.05-.91h0c2,.94,4.05,2,6.05,3h0c-2-1.05-4-2.08-6.07-3h0l-.16-.07Z" transform="translate(-325.88 -188.7)"/><path class="cls-26" d="M439.59,226.67l1.24.6h.11c-.43-.2-.83-.39-1.2-.58Z" transform="translate(-325.88 -188.7)"/><path class="cls-31" d="M440.94,227.26h-.11l.06,0,.16.07h0c2,.95,4.07,2,6.07,3v-.08c-2-1-4-2-6-3l0,0-.12-.05Z" transform="translate(-325.88 -188.7)"/><path class="cls-32" d="M434.72,221.51h0c-1,.48-1.38,1.7,3,4.16a12.94,12.94,0,0,1-2.92-2.07l-.3-.34a1.64,1.64,0,0,1-.38-.82.85.85,0,0,1,.13-.51,1.1,1.1,0,0,1,.37-.34l.18-.09Z" transform="translate(-325.88 -188.7)"/><path class="cls-33" d="M434.76,223.6a12.94,12.94,0,0,0,2.92,2.07c.55.31,1.18.65,1.9,1h0a18.88,18.88,0,0,1-4.83-3.07Zm.13-2.18-.21.09h.08l.24-.09Z" transform="translate(-325.88 -188.7)"/><path class="cls-34" d="M435,221.41l-.24.09-.18.09a1.1,1.1,0,0,0-.37.34.85.85,0,0,0-.13.51,1.64,1.64,0,0,0,.38.82l.3.34a18.88,18.88,0,0,0,4.83,3.07h.15c-7.94-3.93-5.45-5.18-4.11-5.29h0l-.67,0Z" transform="translate(-325.88 -188.7)"/><path class="cls-35" d="M390.26,236.23c.91.68,2,1.47,3.34,2.37l.55,0,.87,0-2.95-1.44-.12-.06h0l-1.69-.83Z" transform="translate(-325.88 -188.7)"/><path class="cls-36" d="M393.6,238.6l.44.3c2.6,1.74-.6.57-2.69,2.72a1.81,1.81,0,0,1,.71-.24l.11,0h0a3,3,0,0,1,.42,0h0c.69,0,1.54,0,2.48-.06,0-.05,0-.1.05-.15a4.71,4.71,0,0,0,.17-1.87,6.26,6.26,0,0,0-.08-.63l-.21-.1-.87,0-.55,0Z" transform="translate(-325.88 -188.7)"/><path class="cls-11" d="M390.82,254.46a2.44,2.44,0,0,0,2.38,1.94c.4,0,.67,1.1.67,1.1A101.43,101.43,0,0,0,410,254.23c7-2.06,9.3-3.75,6.91-8.74s-6.71-4.75-9.24-4.72-11.25.65-15.09.67c0,0-2.48,10.7-1.79,13Z" transform="translate(-325.88 -188.7)"/><path class="cls-12" d="M390.82,254.46h-.07a2.51,2.51,0,0,0,.42.95,2.57,2.57,0,0,0,2,1.05.19.19,0,0,1,.11,0,.87.87,0,0,1,.2.24,2.66,2.66,0,0,1,.21.5,1.36,1.36,0,0,1,.06.2.17.17,0,0,1,0,.07l0,.06h.06a101.74,101.74,0,0,0,16.17-3.27,22.54,22.54,0,0,0,6.05-2.47,4.41,4.41,0,0,0,1.44-1.53,3.42,3.42,0,0,0,.36-2,8.56,8.56,0,0,0-.9-2.89,7.73,7.73,0,0,0-4.61-4.28,14,14,0,0,0-4.7-.48c-1.27,0-4.08.18-7.05.34s-6.12.32-8,.33h-.06v0s-.54,2.33-1,5c-.26,1.36-.5,2.82-.66,4.13a17.06,17.06,0,0,0-.19,3.29,3,3,0,0,0,.1.6l.07,0h0l.06,0a2.56,2.56,0,0,1-.1-.57,17.64,17.64,0,0,1,.19-3.26c.25-2,.67-4.26,1-6.05.18-.9.35-1.68.47-2.23.06-.27.11-.49.14-.64l.05-.23-.06,0v.07c1.92,0,5.06-.18,8-.34s5.79-.32,7.06-.34a14.16,14.16,0,0,1,4.65.48,7.59,7.59,0,0,1,4.53,4.21,8.36,8.36,0,0,1,.89,2.84,3.3,3.3,0,0,1-.35,1.87,5.38,5.38,0,0,1-2.5,2.14,29.75,29.75,0,0,1-4.91,1.8,102.47,102.47,0,0,1-16.15,3.27v.06h.06a3.44,3.44,0,0,0-.18-.56,1.87,1.87,0,0,0-.22-.39.67.67,0,0,0-.15-.14.36.36,0,0,0-.17-.07,2.41,2.41,0,0,1-1.93-1,2.83,2.83,0,0,1-.32-.62,1.89,1.89,0,0,1-.06-.21.11.11,0,0,1,0-.05h0l-.06,0Z" transform="translate(-325.88 -188.7)"/><path class="cls-13" d="M392.12,249.15c-.29-.29-.68-.74-1.12-1.26-.65,2.91.7,4.45,1,5.55,0,0-1.21,1.94.89,2.07.4,0,1.73,1.93,1.73,1.93a92.41,92.41,0,0,0,15.4-3.09c5.36-1.58,8-2.95,7.81-5.76-3.12,1.66-9.78,2.56-15.25,3.44-7.81,1.27-8.27-.59-10.48-2.88Z" transform="translate(-325.88 -188.7)"/><path class="cls-12" d="M392.12,249.15l0-.05c-.28-.29-.67-.73-1.11-1.25l-.08-.1,0,.13a6.47,6.47,0,0,0-.16,2,6.9,6.9,0,0,0,.55,2.11c.25.57.51,1,.63,1.43l.06,0,0,0a2.13,2.13,0,0,0-.2.39,2,2,0,0,0-.16.84.89.89,0,0,0,.31.62,1.62,1.62,0,0,0,1,.31.57.57,0,0,1,.16.08,3.56,3.56,0,0,1,.45.44c.25.29.52.63.72.91a3.54,3.54,0,0,1,.25.34l.1.14,0,0h0a93.22,93.22,0,0,0,15.42-3.09,23.16,23.16,0,0,0,6-2.43,4.66,4.66,0,0,0,1.45-1.5,3.39,3.39,0,0,0,.41-1.91v-.1l-.1.05a27.2,27.2,0,0,1-6.73,2c-2.73.54-5.77,1-8.5,1.43-1,.16-1.88.27-2.66.34-2.64.22-4.1-.09-5.13-.69a12.91,12.91,0,0,1-2.64-2.52l0,.05-.05,0a13.11,13.11,0,0,0,2.66,2.53c1.07.63,2.56.93,5.21.71.78-.07,1.67-.18,2.67-.34,2.73-.44,5.77-.89,8.51-1.43a27.51,27.51,0,0,0,6.77-2l0-.06h-.06a3.27,3.27,0,0,1-.39,1.83,5.67,5.67,0,0,1-2.52,2.09,30.82,30.82,0,0,1-4.86,1.78,92,92,0,0,1-15.39,3.08v.07l.05,0s-.33-.48-.71-1c-.2-.24-.4-.48-.59-.67a2.51,2.51,0,0,0-.25-.23.58.58,0,0,0-.23-.1,1.51,1.51,0,0,1-.9-.28.73.73,0,0,1-.26-.53,1.67,1.67,0,0,1,.14-.78l.13-.27a.59.59,0,0,0,0-.08l0,0h0l0,0v0c-.13-.41-.39-.88-.63-1.45a6.37,6.37,0,0,1-.55-2.06,6.53,6.53,0,0,1,.16-2l-.07,0-.05.05c.44.52.83,1,1.12,1.26l.05,0Z" transform="translate(-325.88 -188.7)"/><path class="cls-37" d="M397,248.94c.62,4.44-.6,8.28-2.72,8.57s-4.35-3.06-5-7.5.6-8.27,2.72-8.57,4.35,3.06,5,7.5Z" transform="translate(-325.88 -188.7)"/><path class="cls-37" d="M397,248.94H397c0,.32.08.63.1.94a12.42,12.42,0,0,1-.54,5.19,5.07,5.07,0,0,1-.94,1.65,2.23,2.23,0,0,1-1.28.72h-.11a2.31,2.31,0,0,1-1.51-.48,6.91,6.91,0,0,1-2-2.65,15.25,15.25,0,0,1-1.25-4.32c0-.32-.07-.63-.1-.95a12.61,12.61,0,0,1,.54-5.19,4.76,4.76,0,0,1,.95-1.64,2.07,2.07,0,0,1,1.28-.72h.1a2.3,2.3,0,0,1,1.51.47,6.78,6.78,0,0,1,2,2.66A14.93,14.93,0,0,1,397,249h.13a13.75,13.75,0,0,0-1.88-5.48,6,6,0,0,0-1.45-1.59,2.48,2.48,0,0,0-1.6-.5l-.11,0a2.29,2.29,0,0,0-1.36.76,6.08,6.08,0,0,0-1.3,2.81,14,14,0,0,0-.22,4.12c0,.32.06.64.1,1a13.81,13.81,0,0,0,1.89,5.48,5.6,5.6,0,0,0,1.45,1.58,2.34,2.34,0,0,0,1.6.5h.1a2.34,2.34,0,0,0,1.37-.76A6.23,6.23,0,0,0,397,254a14,14,0,0,0,.23-4.13c0-.31-.06-.63-.11-.95Z" transform="translate(-325.88 -188.7)"/><path class="cls-38" d="M396.63,249.05c.62,4.4-.59,8.19-2.69,8.49s-4.3-3-4.91-7.42.59-8.19,2.69-8.48,4.3,3,4.91,7.41Z" transform="translate(-325.88 -188.7)"/><path class="cls-39" d="M396.63,249.05h-.06c0,.32.07.63.1.94a12.32,12.32,0,0,1-.54,5.13,4.78,4.78,0,0,1-.93,1.63,2.16,2.16,0,0,1-1.27.71h-.1a2.23,2.23,0,0,1-1.49-.47,6.63,6.63,0,0,1-2-2.63,14.59,14.59,0,0,1-1.23-4.27c-.05-.32-.08-.63-.11-.93a12.53,12.53,0,0,1,.54-5.14,4.9,4.9,0,0,1,.93-1.62,2.2,2.2,0,0,1,1.27-.72h.1a2.29,2.29,0,0,1,1.49.47,6.78,6.78,0,0,1,2,2.63,14.9,14.9,0,0,1,1.24,4.27h.13a13.56,13.56,0,0,0-1.87-5.43,5.5,5.5,0,0,0-1.43-1.57,2.42,2.42,0,0,0-1.58-.49h-.11a2.24,2.24,0,0,0-1.34.76,6,6,0,0,0-1.29,2.77,13.81,13.81,0,0,0-.22,4.09c0,.31.06.62.1.94a13.56,13.56,0,0,0,1.87,5.42,5.65,5.65,0,0,0,1.43,1.57,2.36,2.36,0,0,0,1.58.49H394a2.25,2.25,0,0,0,1.35-.75,6.15,6.15,0,0,0,1.28-2.78,13.74,13.74,0,0,0,.22-4.08c0-.31-.06-.63-.1-.94Z" transform="translate(-325.88 -188.7)"/><path class="cls-40" d="M391.67,242.51l.18,0h.08c1.85-.16,3.78,2.79,4.34,6.66s-.5,7.31-2.37,7.57h-.09a1.22,1.22,0,0,1-.27,0h.06c1.82-.16,3-3.78,2.43-7.54s-2.49-6.81-4.31-6.66Zm.34-.61h-.08c-1.88.27-2.92,3.91-2.33,8.14s2.53,7.35,4.38,7.19h.09c1.87-.26,2.92-3.9,2.32-8.13s-2.53-7.35-4.38-7.2Z" transform="translate(-325.88 -188.7)"/><path class="cls-41" d="M391.93,242.47h-.08l-.18,0h.05c1.82-.15,3.79,3,4.31,6.66s-.61,7.38-2.43,7.54h-.06a1.22,1.22,0,0,0,.27,0h.09c1.87-.26,2.94-3.64,2.37-7.57s-2.49-6.82-4.34-6.66Z" transform="translate(-325.88 -188.7)"/><path class="cls-42" d="M393,243.36a.81.81,0,0,0-.22,0c-1.26.18-1.92,3-1.46,6.26s1.86,5.79,3.12,5.61a1.2,1.2,0,0,0,.83-.6,11.26,11.26,0,0,0,.38-5.39C395.28,246.45,394.21,244.18,393,243.36Z" transform="translate(-325.88 -188.7)"/><path d="M393,243.36v-.07h-.24a1.26,1.26,0,0,0-.81.52,4.75,4.75,0,0,0-.72,2,12.28,12.28,0,0,0-.08,2.95c0,.28.06.57.1.87a12.14,12.14,0,0,0,1.24,4.08,4.42,4.42,0,0,0,.9,1.2,1.34,1.34,0,0,0,1,.39h.06a1.3,1.3,0,0,0,.87-.63h0a10.57,10.57,0,0,0,.49-4.57c0-.28-.06-.57-.1-.86a13.71,13.71,0,0,0-1-3.7,5.49,5.49,0,0,0-1.65-2.23h0v.07l0,0a5.53,5.53,0,0,1,1.6,2.18,13.67,13.67,0,0,1,1,3.66c0,.29.07.57.09.85a10.6,10.6,0,0,1-.47,4.51l.06,0-.06,0a1.21,1.21,0,0,1-.78.57h-.05a1.24,1.24,0,0,1-.89-.36,5.51,5.51,0,0,1-1.27-2,13.52,13.52,0,0,1-.83-3.21c0-.29-.07-.58-.1-.86a10.59,10.59,0,0,1,.26-3.7,3.27,3.27,0,0,1,.52-1.14,1.07,1.07,0,0,1,.72-.48H393v-.06l0,0Z" transform="translate(-325.88 -188.7)"/><path class="cls-37" d="M393.8,249.38a10.73,10.73,0,0,0,1.87-.14,13.68,13.68,0,0,0-.82-3.21s-.54,1.53-1.07,3.33Z" transform="translate(-325.88 -188.7)"/><path class="cls-37" d="M393.8,249.38v.07c.4,0,.8,0,1.16,0a4.77,4.77,0,0,0,.73-.1h.06v-.06a14.27,14.27,0,0,0-.83-3.22l-.07-.18-.06.18.06,0-.06,0h0l.06,0-.06,0s-.54,1.54-1.06,3.33v0l0,0,0,0h0v-.07l.05,0,0,0-.05,0,.06,0c.27-.9.53-1.73.74-2.34l.24-.72.07-.2a.43.43,0,0,1,0-.05v0l-.06,0-.07,0a14.09,14.09,0,0,1,.83,3.2h.06v-.07c-.2,0-.44.07-.71.1s-.75,0-1.15,0v.06l.05,0Z" transform="translate(-325.88 -188.7)"/><polygon class="cls-42" points="67.89 60.69 67.89 60.68 67.89 60.68 67.89 60.69"/><polygon points="67.89 60.69 67.95 60.71 67.96 60.7 67.98 60.62 67.89 60.61 67.81 60.61 67.82 60.7 67.95 60.71 67.89 60.69 67.96 60.68 67.95 60.67 67.89 60.68 67.89 60.75 67.89 60.75 67.89 60.68 67.83 60.66 67.83 60.67 67.89 60.69 67.96 60.68 67.89 60.69"/><polygon class="cls-42" points="67.89 60.68 67.92 60.68 67.9 60.66 67.89 60.68"/><polygon points="67.89 60.68 67.89 60.75 67.92 60.75 68.05 60.75 67.87 60.51 67.8 60.75 67.89 60.75 67.89 60.68 67.96 60.7 67.97 60.68 67.9 60.66 67.85 60.7 67.86 60.72 67.92 60.68 67.92 60.61 67.89 60.61 67.89 60.68 67.96 60.7 67.89 60.68"/><path class="cls-42" d="M393.76,249.33v0h0v0Z" transform="translate(-325.88 -188.7)"/><path d="M393.76,249.33h-.07v.11h.11l0-.07v0l0-.05-.12.05h.07l-.05,0,0,0,0,0-.06,0v0l.06,0v-.07h0v.06h.06v-.05h-.07l-.05,0Z" transform="translate(-325.88 -188.7)"/><path class="cls-37" d="M393.77,249.38h0c.34,2.06.67,4.23.81,5.82a1.34,1.34,0,0,0,.71-.58,8.66,8.66,0,0,0,.51-2.58l-2-2.67Z" transform="translate(-325.88 -188.7)"/><path class="cls-37" d="M393.77,249.38l-.06,0h0v0h0c.34,2.06.67,4.23.81,5.81v.08l.08,0a1.36,1.36,0,0,0,.74-.6h0a8.56,8.56,0,0,0,.51-2.6v0c-.19-.27-1.07-1.44-2-2.68l0,0h-.11v0l.06,0v.07h0v-.07l-.06,0c.94,1.24,1.82,2.41,2,2.67l.06,0h-.07a8.61,8.61,0,0,1-.5,2.56l.06,0-.06,0a1.21,1.21,0,0,1-.67.54l0,.07h.06c-.14-1.59-.46-3.77-.8-5.82h-.07l.06,0h0l-.07,0v0Z" transform="translate(-325.88 -188.7)"/><path class="cls-37" d="M392.68,243.39h0c-.7.19-1.19,1.22-1.39,2.69l2.47,3.25C393.24,246.21,392.68,243.39,392.68,243.39Z" transform="translate(-325.88 -188.7)"/><path class="cls-37" d="M392.68,243.39v-.07a1.62,1.62,0,0,0-.93.9,6,6,0,0,0-.52,1.85v0l0,0,2.47,3.26.12-.06c-.52-3.12-1.08-5.95-1.08-5.95v-.07l-.07,0v.07h-.06l.09.49c.18.94.59,3.11,1,5.45h.07l.05,0c-1.19-1.58-2.46-3.24-2.47-3.25l0,0h.07a5.8,5.8,0,0,1,.5-1.8,1.49,1.49,0,0,1,.84-.84l0-.06h0Z" transform="translate(-325.88 -188.7)"/><path class="cls-37" d="M393.77,249.38c-1.23,0-2.47-.07-2.47-.07a2.91,2.91,0,0,1,0,.31,11.7,11.7,0,0,0,1.41,4.35,26.6,26.6,0,0,1,1-4.58Z" transform="translate(-325.88 -188.7)"/><path class="cls-37" d="M393.77,249.38v-.07c-.62,0-1.23,0-1.69,0l-.56,0-.21,0h-.08v.08c0,.1,0,.2,0,.31a11.81,11.81,0,0,0,1.41,4.38l.11.17,0-.2a24.76,24.76,0,0,1,1-4.57h0v-.08h-.06v.07h0l-.06,0a25.61,25.61,0,0,0-1,4.6h.07l.06,0a11.59,11.59,0,0,1-1.4-4.33c0-.1,0-.21,0-.31h-.07v.07s1.24.08,2.47.07v-.07h0Z" transform="translate(-325.88 -188.7)"/><path class="cls-43" d="M393.76,249.33l0,0c.53-1.8,1.06-3.33,1.07-3.33a6,6,0,0,0-1.83-2.67.81.81,0,0,0-.22,0l-.12,0S393.24,246.21,393.76,249.33Z" transform="translate(-325.88 -188.7)"/><path class="cls-39" d="M393.76,249.33l-.05,0,0,0,.08.11,0-.13c.27-.9.53-1.73.74-2.34l.24-.72.07-.2a.43.43,0,0,1,0-.05V246a6,6,0,0,0-1.85-2.71h-.27l-.12,0-.06,0v.06l.09.49c.18.94.59,3.11,1,5.45v0l.05,0h.07c-.52-3.12-1.08-5.95-1.08-5.95l-.07,0,0,.06.11,0H393v-.06l0,0a5.88,5.88,0,0,1,1.79,2.64l.07,0-.07,0,.06,0-.06,0h0l.06,0-.06,0s-.54,1.54-1.06,3.33l.06,0,.05,0,0,0-.05,0h0Z" transform="translate(-325.88 -188.7)"/><path class="cls-43" d="M393.77,249.38v0l-2.47-3.25a13.42,13.42,0,0,0,0,3.23S392.54,249.39,393.77,249.38Z" transform="translate(-325.88 -188.7)"/><path class="cls-39" d="M393.77,249.38h.06v-.05h0v0c-1.19-1.58-2.46-3.24-2.47-3.25l-.09-.13,0,.16a13.2,13.2,0,0,0,0,2.69c0,.19,0,.37.06.56v.05h.06s1.24.08,2.47.07h.08l0-.08h-.06v-.07c-.62,0-1.23,0-1.69,0l-.56,0-.21,0v.07h.07l-.06-.55a12.19,12.19,0,0,1,.05-2.66h-.07l-.05,0,2.47,3.26.05,0h-.07v0h.07v0Z" transform="translate(-325.88 -188.7)"/><path class="cls-43" d="M393.8,249.38l2,2.67a14.33,14.33,0,0,0-.13-2.81A10.73,10.73,0,0,1,393.8,249.38Z" transform="translate(-325.88 -188.7)"/><path class="cls-39" d="M393.8,249.38l-.06,0c.94,1.24,1.82,2.41,2,2.67l.11.16v-.19a13.22,13.22,0,0,0,0-2c0-.28-.05-.56-.09-.85v-.07h-.07c-.2,0-.44.07-.71.1s-.75,0-1.15,0h-.14l.08.1.06,0v.07c.4,0,.8,0,1.16,0a4.77,4.77,0,0,0,.73-.1l0-.06h-.06q.06.42.09.84a13,13,0,0,1,0,2h.07l.05,0c-.19-.27-1.07-1.44-2-2.68l-.05,0v0Z" transform="translate(-325.88 -188.7)"/><path class="cls-43" d="M392.75,254c.53.86,1.13,1.34,1.71,1.26l.12,0c-.14-1.59-.47-3.76-.81-5.82A26.6,26.6,0,0,0,392.75,254Z" transform="translate(-325.88 -188.7)"/><path class="cls-39" d="M392.75,254l-.06,0a3.78,3.78,0,0,0,.83,1,1.28,1.28,0,0,0,.89.31h.06l.13,0h0v-.06c-.14-1.59-.46-3.77-.8-5.82h-.13a25.61,25.61,0,0,0-1,4.6v0l.06,0h.07a24.76,24.76,0,0,1,1-4.57l-.07,0h-.07c.34,2.06.67,4.23.81,5.81h.07l0-.07-.11,0h-.05a1.17,1.17,0,0,1-.8-.29,3.49,3.49,0,0,1-.79-.94l-.06,0h0Z" transform="translate(-325.88 -188.7)"/><path class="cls-44" d="M394.46,255.23c-1.26.18-2.66-2.34-3.12-5.61s.2-6.08,1.46-6.26a.81.81,0,0,1,.22,0,1.5,1.5,0,0,0-1.1-.31c-1.56.21-2.41,3.34-1.9,7s2.18,6.41,3.75,6.19c.64-.09,1.16-.68,1.52-1.59A1.2,1.2,0,0,1,394.46,255.23Z" transform="translate(-325.88 -188.7)"/><path class="cls-37" d="M394.46,255.23v-.06h-.05a1.24,1.24,0,0,1-.89-.36,5.51,5.51,0,0,1-1.27-2,13.52,13.52,0,0,1-.83-3.21c0-.29-.07-.58-.1-.86a10.59,10.59,0,0,1,.26-3.7,3.27,3.27,0,0,1,.52-1.14,1.07,1.07,0,0,1,.72-.48H393l0-.12A1.65,1.65,0,0,0,392,243h-.08a1.58,1.58,0,0,0-1,.61,5,5,0,0,0-.93,2.25,12.73,12.73,0,0,0-.14,3.33c0,.28.06.57.1.87a12.4,12.4,0,0,0,1.46,4.51,4.49,4.49,0,0,0,1.09,1.32,1.72,1.72,0,0,0,1.2.42h.08a1.49,1.49,0,0,0,.9-.5,3.37,3.37,0,0,0,.67-1.12l-.12-.06a1.21,1.21,0,0,1-.78.57v.13a1.3,1.3,0,0,0,.87-.63l0,0-.06,0a3.67,3.67,0,0,1-.64,1.08,1.42,1.42,0,0,1-.83.46h-.07a1.61,1.61,0,0,1-1.11-.4,5.79,5.79,0,0,1-1.52-2.19,13.55,13.55,0,0,1-1-3.55c0-.29-.07-.58-.09-.86a11,11,0,0,1,.36-4.18,3.83,3.83,0,0,1,.67-1.31,1.47,1.47,0,0,1,.91-.56H392a1.62,1.62,0,0,1,1,.31l0,0v-.07h-.24a1.26,1.26,0,0,0-.81.52,4.75,4.75,0,0,0-.72,2,12.28,12.28,0,0,0-.08,2.95c0,.28.06.57.1.87a12.14,12.14,0,0,0,1.24,4.08,4.42,4.42,0,0,0,.9,1.2,1.34,1.34,0,0,0,1,.39h.06Z" transform="translate(-325.88 -188.7)"/><path class="cls-45" d="M390.6,249.77c-.44-3.12.12-5.86,1.28-6.72-1.53.28-2.37,3.37-1.86,7s2.18,6.41,3.75,6.19a1.35,1.35,0,0,0,.62-.26h-.05C392.78,256.17,391.1,253.4,390.6,249.77Z" transform="translate(-325.88 -188.7)"/><path class="cls-39" d="M391.4,250l1.62-.14-.73,3.27A14.36,14.36,0,0,1,391.4,250Z" transform="translate(-325.88 -188.7)"/><path class="cls-39" d="M392.33,243.57l.69,3.9-1.65-1.85A3.5,3.5,0,0,1,392.33,243.57Z" transform="translate(-325.88 -188.7)"/><path class="cls-39" d="M395.17,246.71l-.93,2.24,1.41-.24A16.8,16.8,0,0,0,395.17,246.71Z" transform="translate(-325.88 -188.7)"/><path class="cls-39" d="M395.82,252.68l-1.44-2.09L395,255S395.52,254.81,395.82,252.68Z" transform="translate(-325.88 -188.7)"/><path class="cls-46" d="M393.24,244.24l.61,3.42.59-1.78A3.47,3.47,0,0,0,393.24,244.24Z" transform="translate(-325.88 -188.7)"/><path class="cls-46" d="M391.6,247.16l1.55,1.88-1.51-.16A1.86,1.86,0,0,1,391.6,247.16Z" transform="translate(-325.88 -188.7)"/><path class="cls-46" d="M393.66,250.81l-.48,2.93s.17.91.93.9Z" transform="translate(-325.88 -188.7)"/><path class="cls-46" d="M394.3,249.63l1.08,0s.47,1,.11,1.35Z" transform="translate(-325.88 -188.7)"/><path class="cls-29" d="M393.8,241.49a12.88,12.88,0,0,1,5.75,9.58c0,.44.05.86,0,1.26l.34,0c.78-.07,1.66-.18,2.66-.34,2.73-.44,5.77-.89,8.5-1.43a32.42,32.42,0,0,0,6-1.66,56.88,56.88,0,0,1-6.33-2.6h0l-.05,0-.06,0h0l-5.81-2.84c-.86.12-1.71.22-2.53.29-1.4.11-2.68.15-3.62.14a6.25,6.25,0,0,1-2-.28,2.18,2.18,0,0,1-.55-.29,6.24,6.24,0,0,1-.79-.62A1,1,0,0,1,395,242a1.69,1.69,0,0,1,.06-.52l-1.26,0Z" transform="translate(-325.88 -188.7)"/><path class="cls-27" d="M393.78,241.47l0,0,1.26,0v0l-1.28,0Z" transform="translate(-325.88 -188.7)"/><path class="cls-47" d="M417.28,248.94a30.74,30.74,0,0,1-6.16,1.73c-2.74.54-5.78,1-8.51,1.43-1,.16-1.89.27-2.67.34h0l-.36,0a9.41,9.41,0,0,1-1.22,4.41c2.3-.36,5-.88,7.71-1.53,1.27-.31,2.53-.64,3.73-1l.22-.06a30.82,30.82,0,0,0,4.86-1.78,5.67,5.67,0,0,0,2.52-2.09,3.07,3.07,0,0,0,.38-1.31l-.5-.17Z" transform="translate(-325.88 -188.7)"/><path class="cls-27" d="M406.07,255.35c-2.72.65-5.41,1.17-7.71,1.53l0,.05c2.35-.39,5.07-.94,7.74-1.58Zm11.71-6.24a3.07,3.07,0,0,1-.38,1.31,5.67,5.67,0,0,1-2.52,2.09,30.82,30.82,0,0,1-4.86,1.78l-.22.06.23-.06c5-1.47,7.57-2.75,7.81-5.16l-.06,0Zm-.69-.23a32.42,32.42,0,0,1-6,1.66c-2.73.54-5.77,1-8.5,1.43-1,.16-1.88.27-2.66.34l-.34,0a.66.66,0,0,1,0,.14l.36,0h0c.78-.07,1.67-.18,2.67-.34,2.73-.44,5.77-.89,8.51-1.43a30.74,30.74,0,0,0,6.16-1.73l-.19-.06Z" transform="translate(-325.88 -188.7)"/><path class="cls-48" d="M394.75,234.37c-2.71,1.12.49,4,.49,4a5.9,5.9,0,0,1,0,2.79c-.37,1.09,0,1.31,1,2s.69-5.35.69-5.35-.06-4.31-2.11-3.47Z" transform="translate(-325.88 -188.7)"/><path class="cls-12" d="M394.75,234.37l0-.06a1.93,1.93,0,0,0-.91.68,1.28,1.28,0,0,0-.21.86,3.52,3.52,0,0,0,.84,1.76,8.08,8.08,0,0,0,.76.83l0-.05-.06,0a.28.28,0,0,0,0,.06,5.76,5.76,0,0,1,.12.82,4.71,4.71,0,0,1-.17,1.87,2.05,2.05,0,0,0-.14.81,1,1,0,0,0,.33.65,6.45,6.45,0,0,0,.8.62.35.35,0,0,0,.21.07.27.27,0,0,0,.18-.1,1,1,0,0,0,.21-.44,8,8,0,0,0,.19-1.34c.1-1.57,0-3.59,0-3.59h0s0-.22,0-.54a7.38,7.38,0,0,0-.39-2,2.29,2.29,0,0,0-.51-.83,1,1,0,0,0-.83-.31,1.57,1.57,0,0,0-.44.11l0,.06,0,.07a1.37,1.37,0,0,1,.4-.1.86.86,0,0,1,.72.26,2.86,2.86,0,0,1,.64,1.28,8.92,8.92,0,0,1,.23,1.43c0,.16,0,.29,0,.38v.15h0s0,.08,0,.23c0,.51.06,1.79,0,2.94a11.45,11.45,0,0,1-.16,1.53,1.73,1.73,0,0,1-.15.47.31.31,0,0,1-.09.12.1.1,0,0,1-.08,0,.13.13,0,0,1-.12,0,5.87,5.87,0,0,1-.79-.6.88.88,0,0,1-.29-.57,2.08,2.08,0,0,1,.14-.76,5,5,0,0,0,.18-1.92,7.82,7.82,0,0,0-.14-.91v0h0a8.29,8.29,0,0,1-.8-.89,3.49,3.49,0,0,1-.74-1.6,1.17,1.17,0,0,1,.19-.77,1.78,1.78,0,0,1,.85-.63l0-.07Z" transform="translate(-325.88 -188.7)"/><path class="cls-13" d="M394.41,236.17c.6,1.25,1.43,2.48,1.38,4.11s-1.06,3.41,2.9,3.46,14-.78,13.58-4.7-19.06-5.41-17.86-2.87Z" transform="translate(-325.88 -188.7)"/><path class="cls-12" d="M394.41,236.17l-.06,0a10.25,10.25,0,0,1,1.36,3.59,4,4,0,0,1,0,.49c0,.64-.19,1.31-.14,1.91a1.46,1.46,0,0,0,1.09,1.35,6.25,6.25,0,0,0,2,.28c.94,0,2.22,0,3.62-.14a28.29,28.29,0,0,0,6.78-1.29A7.29,7.29,0,0,0,411.5,241a2.33,2.33,0,0,0,.84-2V239a1.8,1.8,0,0,0-.57-1.06,7.45,7.45,0,0,0-2.7-1.49,34.56,34.56,0,0,0-12.23-1.57,7,7,0,0,0-1.85.34,1.49,1.49,0,0,0-.52.31.51.51,0,0,0-.18.42.83.83,0,0,0,.06.21l.06,0,.07,0a.41.41,0,0,1-.05-.17.39.39,0,0,1,.13-.32,1.89,1.89,0,0,1,.83-.38,8.3,8.3,0,0,1,1.46-.23,35.7,35.7,0,0,1,9.4.79,18.69,18.69,0,0,1,4.13,1.35,5.26,5.26,0,0,1,1.29.88,1.63,1.63,0,0,1,.53,1v.05a2.22,2.22,0,0,1-.8,1.85,9.38,9.38,0,0,1-3.94,1.78,32.45,32.45,0,0,1-5.18.81c-1.39.12-2.67.16-3.6.15a4.73,4.73,0,0,1-2.35-.46,1.21,1.21,0,0,1-.46-.47,1.26,1.26,0,0,1-.16-.58,18.73,18.73,0,0,1,.14-1.89,4.43,4.43,0,0,0,0-.52,10.35,10.35,0,0,0-1.36-3.62l-.07,0Z" transform="translate(-325.88 -188.7)"/><path class="cls-14" d="M396.52,240.93s-.94,2.73,3.41,1.88C399.93,242.81,396.63,243.35,396.52,240.93Z" transform="translate(-325.88 -188.7)"/><path class="cls-4" d="M386.76,230.63a202.82,202.82,0,0,0,24.69,13.92c9.25,4.21,19,6.3,24.7,3.54,2.1-1,1.56-2.89.26-4.8-.6-.65-1.33-1.35-2.19-2.12-5.24-4.69-17.06-13-20.34-14.42s-10.86-1.45-14.7-1.67a54.4,54.4,0,0,0-12.85.45c-.21.06-5.22,1.41.43,5.1Z" transform="translate(-325.88 -188.7)"/><path d="M386.76,230.63l0,.06a203.4,203.4,0,0,0,24.69,13.92c7.06,3.22,14.41,5.2,20,4.73a13.48,13.48,0,0,0,4.72-1.19,2.72,2.72,0,0,0,1.17-1,2,2,0,0,0,.27-1.25,6,6,0,0,0-1.15-2.66h0c-.6-.65-1.33-1.35-2.19-2.12a134.84,134.84,0,0,0-10.92-8.44c-2-1.42-4-2.74-5.61-3.79a31.67,31.67,0,0,0-3.84-2.2,25.69,25.69,0,0,0-7.16-1.29c-2.79-.21-5.64-.28-7.56-.39a70,70,0,0,0-9.58,0,31.24,31.24,0,0,0-3.28.44h0a5.14,5.14,0,0,0-1.24.52,2.7,2.7,0,0,0-.77.66,1.47,1.47,0,0,0-.29,1,2.44,2.44,0,0,0,.66,1.35,9.28,9.28,0,0,0,2.05,1.7l0-.06,0-.06a9,9,0,0,1-2-1.67,2.3,2.3,0,0,1-.63-1.27,1.34,1.34,0,0,1,.27-.9,2.92,2.92,0,0,1,1.14-.84,4.3,4.3,0,0,1,.79-.29l0-.07v.07a31.07,31.07,0,0,1,3.28-.43,69.56,69.56,0,0,1,9.55,0c1.93.1,4.78.17,7.56.39a25.27,25.27,0,0,1,7.12,1.28,31.75,31.75,0,0,1,3.82,2.18,157,157,0,0,1,16.51,12.22c.86.77,1.59,1.47,2.19,2.11l0,0-.05,0a5.86,5.86,0,0,1,1.12,2.6,1.92,1.92,0,0,1-.25,1.18,2.58,2.58,0,0,1-1.11.93,13.36,13.36,0,0,1-4.67,1.18c-5.59.46-12.93-1.51-20-4.72a201.85,201.85,0,0,1-24.68-13.92l0,.06Z" transform="translate(-325.88 -188.7)"/><path class="cls-14" d="M411.21,244.47a181.84,181.84,0,0,1-18.42-10A2,2,0,0,0,392,237c6.19,3,13.74,6.76,18.69,9.16h0s-.24-1.17.54-1.69Z" transform="translate(-325.88 -188.7)"/><path class="cls-12" d="M411.21,244.47l0-.06a183.64,183.64,0,0,1-18.41-10l0,0,0,0a1.91,1.91,0,0,0-1,1.88,2.59,2.59,0,0,0,.11.52l0,.15,0,0v0h0v0h0c6.19,3,13.73,6.76,18.69,9.16l.11.05v-.12h0s0-.09,0-.18a2.31,2.31,0,0,1,.05-.71,1.22,1.22,0,0,1,.48-.72l.1-.06-.1-.05,0,.06,0-.06a1.36,1.36,0,0,0-.54.8,2.31,2.31,0,0,0-.05.76c0,.12,0,.2,0,.2h.07l0-.06c-5-2.4-12.5-6.15-18.69-9.16l0,.06.06,0-.05,0,.05,0h0l-.05,0,.05,0h0a2.44,2.44,0,0,1-.16-.68,1.79,1.79,0,0,1,.13-.89,2,2,0,0,1,.82-.87l0-.06,0,.06a183.84,183.84,0,0,0,18.42,10l0-.06,0-.06,0,.06Z" transform="translate(-325.88 -188.7)"/><path class="cls-11" d="M392.79,234.47c-2.28-1.4-4.34-2.71-6.06-3.83-5.65-3.68-.64-5-.43-5.09-5.85,1.12-6.5,3.62-4.29,5.83,1.18,1.17,5.14,3.27,10,5.62a2,2,0,0,1,.81-2.53Z" transform="translate(-325.88 -188.7)"/><path class="cls-12" d="M392.79,234.47l0-.05c-2.29-1.4-4.35-2.71-6.06-3.83a9.28,9.28,0,0,1-2-1.67,2.32,2.32,0,0,1-.63-1.28,1.26,1.26,0,0,1,.27-.89,3.05,3.05,0,0,1,1.14-.85,7.05,7.05,0,0,1,.79-.29l0-.13a11,11,0,0,0-4.31,1.59,3.33,3.33,0,0,0-1,1.05,2,2,0,0,0-.24,1.15,3.54,3.54,0,0,0,1.18,2.15,18.68,18.68,0,0,0,3.63,2.38c1.75,1,4,2.08,6.36,3.26l.18.08-.08-.17h0a2.14,2.14,0,0,1-.16-.67,1.79,1.79,0,0,1,.13-.89,2,2,0,0,1,.82-.87l.09-.06-.09-.05,0,.05,0-.05a1.91,1.91,0,0,0-1,1.88,2.67,2.67,0,0,0,.18.73l.06,0,0-.06c-2.41-1.17-4.61-2.29-6.35-3.25a19.31,19.31,0,0,1-3.6-2.36,3.49,3.49,0,0,1-1.15-2.07,1.89,1.89,0,0,1,.23-1.08,3.79,3.79,0,0,1,1.67-1.46,13.12,13.12,0,0,1,3.5-1.11v-.06l0-.07a4.92,4.92,0,0,0-1.23.53,2.44,2.44,0,0,0-.77.66,1.44,1.44,0,0,0-.29,1,2.46,2.46,0,0,0,.65,1.34,9.34,9.34,0,0,0,2.06,1.7c1.71,1.12,3.77,2.43,6.06,3.83l0-.06,0-.05,0,.05Z" transform="translate(-325.88 -188.7)"/><path class="cls-13" d="M436.12,248.1c-5.71,2.77-15.45.68-24.7-3.54l-.21-.09c-.78.52-.54,1.69-.54,1.69h0l.12.06c8.78,4.25,19.19,6.34,24.17,4.14,3.82-1.7,4-3.48,1.42-7.06,1.3,1.92,1.84,3.78-.26,4.8Z" transform="translate(-325.88 -188.7)"/><path class="cls-12" d="M436.12,248.1l0-.06a13.2,13.2,0,0,1-4.67,1.18c-5.6.47-12.93-1.5-20-4.72l-.21-.09,0,0,0,0a1.36,1.36,0,0,0-.54.8,2.31,2.31,0,0,0-.05.76c0,.12,0,.2,0,.2h0v0l0,0,.12.06c7,3.41,15.11,5.42,20.62,5a11.22,11.22,0,0,0,3.6-.82,7.32,7.32,0,0,0,2.48-1.6,2.44,2.44,0,0,0,.69-1.95,8.13,8.13,0,0,0-1.71-3.61l-.11.08a5.88,5.88,0,0,1,1.12,2.6,1.89,1.89,0,0,1-.25,1.17,2.57,2.57,0,0,1-1.11.93l0,.06,0,.06a2.66,2.66,0,0,0,1.17-1,2,2,0,0,0,.28-1.25,6.1,6.1,0,0,0-1.15-2.67l-.06,0-.05,0a8,8,0,0,1,1.68,3.55,2.28,2.28,0,0,1-.65,1.84,7.22,7.22,0,0,1-2.43,1.57,11.24,11.24,0,0,1-3.56.81c-5.47.46-13.53-1.55-20.55-5l-.12-.06,0,.06h.06s0-.09,0-.18a2.31,2.31,0,0,1,.05-.71,1.22,1.22,0,0,1,.48-.72l0-.05,0,.06.21.1c7.06,3.21,14.41,5.19,20,4.73a13.37,13.37,0,0,0,4.71-1.2l0-.06Z" transform="translate(-325.88 -188.7)"/><path class="cls-4" d="M465.39,231.84c-2-1.56-4-2.87-4.54-3.26s-1.11-.79-1.78-1.27h0c-7.23-1.09-18,0-18,0,3.77,1.75,7.5,3.81,11.13,5.63,0,0,7.93-1.63,13.2-1.1Z" transform="translate(-325.88 -188.7)"/><path class="cls-5" d="M465.39,231.84c-2-1.56-4-2.87-4.54-3.26s-1.11-.79-1.78-1.27h0c-7.23-1.09-18,0-18,0,3.77,1.75,7.5,3.81,11.13,5.63,0,0,7.93-1.63,13.2-1.1Z" transform="translate(-325.88 -188.7)"/><g class="cls-49"><path class="cls-50" d="M434.75,241.56l-.35-.32c-2.42-2.16-6.24-5.1-10-7.78-9.63-3.22-29.7.07-31.42,1.06a180.58,180.58,0,0,0,18.41,10s12.89-3.87,23.34-3Z" transform="translate(-325.88 -188.7)"/></g><path class="cls-16" d="M434.57,241.49l.05-.05-.35-.32c-2.43-2.17-6.25-5.11-10-7.78h0c-4.81-1.61-12.18-1.6-18.6-1.06-3.24.27-6.24.67-8.54,1.07-1.15.2-2.12.4-2.86.58-.37.09-.68.18-.93.26a2.93,2.93,0,0,0-.55.22l-.1,0,.1.06a181.65,181.65,0,0,0,18.41,10h.05a87.33,87.33,0,0,1,15.55-2.9,48.06,48.06,0,0,1,7.77-.06l.2,0-.15-.13-.05.05v-.07a46.11,46.11,0,0,0-7.79.06,87.78,87.78,0,0,0-15.58,2.9l0,.07,0-.06a183.44,183.44,0,0,1-18.4-10l0,0,0,.06a2.56,2.56,0,0,1,.52-.2,34.64,34.64,0,0,1,4.67-1c2.15-.35,4.8-.69,7.64-.93,6.4-.53,13.76-.54,18.53,1.06l0-.07,0,.06c3.73,2.67,7.55,5.61,10,7.77l.35.32,0,0v0Z" transform="translate(-325.88 -188.7)"/><path class="cls-4" d="M459.13,227.36h0c-1.95-1.43-4.38-3.2-5.78-3.55a33.64,33.64,0,0,0-4.59-.72c-2.18-.28-7.95-1.05-10.09-1.45a15.84,15.84,0,0,0-3-.22c-1.4.09-4.24,1.45,5.43,5.94,0,0,10.75-1.08,18,0Z" transform="translate(-325.88 -188.7)"/><path class="cls-4" d="M424.42,233.4a81.24,81.24,0,0,0-10.36-6.64c-3.29-1.41-10.86-1.46-14.7-1.67a54.4,54.4,0,0,0-12.85.45c-.21.05-5.22,1.41.43,5.1,1.72,1.11,3.78,2.42,6.06,3.82,1.72-1,21.79-4.28,31.42-1.06Z" transform="translate(-325.88 -188.7)"/><path class="cls-3" d="M424.24,233.39l0,0c-2.18-1.56-4.33-3-6.15-4.21a35,35,0,0,0-4.23-2.44,25.69,25.69,0,0,0-7.16-1.29c-2.79-.21-5.64-.28-7.56-.39a70,70,0,0,0-9.58,0,31.24,31.24,0,0,0-3.28.44h0a5.14,5.14,0,0,0-1.24.52,2.7,2.7,0,0,0-.77.66,1.47,1.47,0,0,0-.29,1,2.44,2.44,0,0,0,.66,1.35,9.28,9.28,0,0,0,2.05,1.7c1.71,1.11,3.77,2.42,6.06,3.82l0,0,0,0a2.56,2.56,0,0,1,.52-.2,34.64,34.64,0,0,1,4.67-1c2.15-.35,4.8-.69,7.64-.93,6.4-.53,13.76-.54,18.53,1.06l.06-.12,0,0,0-.06c-4.81-1.61-12.18-1.6-18.6-1.06-3.24.27-6.24.67-8.54,1.07-1.15.2-2.12.4-2.86.58-.37.09-.68.18-.93.26a2.93,2.93,0,0,0-.55.22l0,0,0,0c-2.29-1.4-4.35-2.71-6.06-3.83a9,9,0,0,1-2-1.67,2.3,2.3,0,0,1-.63-1.27,1.34,1.34,0,0,1,.27-.9,2.92,2.92,0,0,1,1.14-.84,4.3,4.3,0,0,1,.79-.29l0-.07v.07a31.07,31.07,0,0,1,3.28-.43,69.56,69.56,0,0,1,9.55,0c1.93.1,4.78.17,7.56.39a25.27,25.27,0,0,1,7.12,1.28,33.8,33.8,0,0,1,4.2,2.42c1.83,1.18,4,2.65,6.16,4.21l0-.06,0-.06,0,.06Z" transform="translate(-325.88 -188.7)"/><path class="cls-51" d="M434.57,241.49v-.07a46.11,46.11,0,0,0-7.79.06,87.78,87.78,0,0,0-15.58,2.9l-.17.06.16.07.22.1c7.06,3.22,14.41,5.2,20,4.73a13.48,13.48,0,0,0,4.72-1.19,2.72,2.72,0,0,0,1.17-1,2,2,0,0,0,.27-1.25,6,6,0,0,0-1.15-2.66h0c-.51-.56-1.13-1.16-1.84-1.8l0,0h0v.07l0,0c.71.64,1.32,1.24,1.84,1.79l0,0-.05,0a5.86,5.86,0,0,1,1.12,2.6,1.92,1.92,0,0,1-.25,1.18,2.58,2.58,0,0,1-1.11.93,13.36,13.36,0,0,1-4.67,1.18c-5.59.46-12.93-1.51-20-4.72l-.22-.1,0,.06,0,.06a87.33,87.33,0,0,1,15.55-2.9,48.06,48.06,0,0,1,7.77-.06v-.06l0,0,0,0Z" transform="translate(-325.88 -188.7)"/><g class="cls-52"><rect class="cls-47" x="437.49" y="245.18" width="0.09" height="0.44" transform="matrix(1, -0.08, 0.08, 1, -344.74, -151.53)"/></g><path class="cls-27" d="M437,244.18a6,6,0,0,1,.43,1l0,.07a5.75,5.75,0,0,0-.46-1.07Z" transform="translate(-325.88 -188.7)"/><path class="cls-31" d="M406.78,232.32c6.13-.45,12.93-.37,17.43,1.13,3.74,2.68,7.55,5.61,10,7.77l.2.18.18,0-.26-.23c-2.42-2.17-6.26-5.12-10-7.8l0,0,0,.09c-4.5-1.51-11.31-1.59-17.44-1.14Zm-.24,0h0Zm-.84.07h0c-1.77.15-3.47.34-5,.54h0c1.55-.2,3.25-.39,5-.54Z" transform="translate(-325.88 -188.7)"/><path class="cls-53" d="M431.25,241.42a45.43,45.43,0,0,1,6.16,4.05,6.92,6.92,0,0,0-1.05-2.14c-.51-.55-1.11-1.14-1.81-1.78-1.08-.09-2.19-.13-3.3-.13Z" transform="translate(-325.88 -188.7)"/><path class="cls-28" d="M431,241.28l.24.14c1.11,0,2.22,0,3.3.13.7.64,1.3,1.23,1.81,1.78a6.92,6.92,0,0,1,1.05,2.14l.16.13a3.63,3.63,0,0,0-.1-.42,6,6,0,0,0-.43-1q-.24-.44-.54-.87c-.51-.56-1.13-1.16-1.84-1.81l-.08-.07v.06l0,0,0,0v-.06h0l-.18,0c-1.1-.09-2.23-.12-3.37-.12Z" transform="translate(-325.88 -188.7)"/><path class="cls-30" d="M392.79,234.55a1.88,1.88,0,0,0-.78.85,1.79,1.79,0,0,0-.13.89h0a2.43,2.43,0,0,0,.14.58.08.08,0,0,0,0,0l3.51,1.72c2.26.61,4.67,1.17,7.13,1.59-3.52-1.91-6.9-3.88-9.89-5.71Z" transform="translate(-325.88 -188.7)"/><path class="cls-27" d="M392,237h0l.06.14,2.87,1.4.57.16L392,237Zm-.16-.63a2.43,2.43,0,0,0,.14.58,2.43,2.43,0,0,1-.14-.58Zm0,0h0Zm0,0Zm0,0h0Zm0,0Zm0,0Zm0,0Zm0,0Zm.94-1.75a1.92,1.92,0,0,0-.81.86,1.79,1.79,0,0,0-.13.89h0a1.79,1.79,0,0,1,.13-.89,1.88,1.88,0,0,1,.78-.85c3,1.83,6.37,3.8,9.89,5.71h.08c-3.54-1.91-6.94-3.9-9.94-5.73Z" transform="translate(-325.88 -188.7)"/><path class="cls-29" d="M385.42,225.81a11,11,0,0,0-2.61.91,3.79,3.79,0,0,0-1.67,1.46,1.89,1.89,0,0,0-.23,1.08,3.49,3.49,0,0,0,1.15,2.07,19.31,19.31,0,0,0,3.6,2.36c1.7.94,3.85,2,6.2,3.18a2.78,2.78,0,0,1-.12-.57,2,2,0,0,1,.15-1,2.05,2.05,0,0,1,.78-.88c-2.26-1.38-4.28-2.67-6-3.77a9.34,9.34,0,0,1-2.06-1.7,2.46,2.46,0,0,1-.65-1.34,1.44,1.44,0,0,1,.29-1,2.44,2.44,0,0,1,.77-.66,3.24,3.24,0,0,1,.36-.2Z" transform="translate(-325.88 -188.7)"/><path class="cls-27" d="M385.5,225.77c-5.1,1.19-5.59,3.56-3.49,5.65,1.18,1.18,5.15,3.28,10,5.63l.12.06-.06-.14h0a.08.08,0,0,1,0,0,2.43,2.43,0,0,1-.14-.58h0a1.79,1.79,0,0,1,.13-.89,1.92,1.92,0,0,1,.81-.86l0,0c-2.29-1.4-4.35-2.71-6.06-3.83a11.39,11.39,0,0,1-1-.71,7,7,0,0,1-1.06-1,3,3,0,0,1-.59-1,1.62,1.62,0,0,1,.9-1.95l.09-.06a2.68,2.68,0,0,1,.33-.18,3.24,3.24,0,0,0-.36.2,2.44,2.44,0,0,0-.77.66,1.44,1.44,0,0,0-.29,1,2.46,2.46,0,0,0,.65,1.34,9.34,9.34,0,0,0,2.06,1.7c1.69,1.1,3.71,2.39,6,3.77a2.05,2.05,0,0,0-.78.88,2,2,0,0,0-.15,1,2.78,2.78,0,0,0,.12.57c-2.35-1.15-4.5-2.24-6.2-3.18a19.31,19.31,0,0,1-3.6-2.36,3.49,3.49,0,0,1-1.15-2.07,1.89,1.89,0,0,1,.23-1.08,3.79,3.79,0,0,1,1.67-1.46,11,11,0,0,1,2.61-.91.2.2,0,0,1,.08,0Z" transform="translate(-325.88 -188.7)"/><path class="cls-26" d="M384.09,228a3,3,0,0,0,.59,1,7,7,0,0,0,1.06,1,5.49,5.49,0,0,1-1.43-1.52,2.13,2.13,0,0,1-.22-.46Zm1.44-2.24h0a.2.2,0,0,0-.08,0h0a2.68,2.68,0,0,0-.33.18l-.09.06a4.11,4.11,0,0,1,.54-.29Z" transform="translate(-325.88 -188.7)"/><path class="cls-33" d="M385,226.05a1.62,1.62,0,0,0-.9,1.95,1.53,1.53,0,0,1-.07-.36,1.47,1.47,0,0,1,.29-1,2.45,2.45,0,0,1,.68-.6Z" transform="translate(-325.88 -188.7)"/><path class="cls-34" d="M386.3,225.6l-.77.16a4.11,4.11,0,0,0-.54.29,2.45,2.45,0,0,0-.68.6,1.47,1.47,0,0,0-.29,1,1.53,1.53,0,0,0,.07.36,2.13,2.13,0,0,0,.22.46c-1.13-2,1.84-2.82,2-2.86Z" transform="translate(-325.88 -188.7)"/></g></g></svg>