<svg xmlns="http://www.w3.org/2000/svg" xmlns:xlink="http://www.w3.org/1999/xlink" viewBox="0 0 121.66 86.72"><defs><style>.cls-1{isolation:isolate;}.cls-2{fill:url(#radial-gradient);}.cls-3{fill:#00255b;}.cls-17,.cls-4,.cls-5,.cls-50,.cls-52,.cls-53,.cls-55,.cls-56,.cls-58,.cls-59{opacity:0.5;}.cls-4,.cls-40,.cls-41,.cls-42,.cls-47,.cls-48,.cls-52,.cls-55,.cls-58,.cls-60,.cls-8{mix-blend-mode:multiply;}.cls-17,.cls-43,.cls-5,.cls-50,.cls-53,.cls-56,.cls-59,.cls-6{mix-blend-mode:screen;}.cls-5{fill:url(#radial-gradient-3);}.cls-6{fill:#e9fbff;opacity:0.7;}.cls-7{fill:#1d1d1b;}.cls-9{fill:#d9b8b8;}.cls-10{fill:url(#radial-gradient-4);}.cls-11{fill:url(#radial-gradient-5);}.cls-12{fill:#bc6600;}.cls-13{fill:url(#radial-gradient-6);}.cls-14{fill:url(#radial-gradient-7);}.cls-15{fill:url(#radial-gradient-8);}.cls-16{fill:url(#radial-gradient-9);}.cls-18{fill:url(#radial-gradient-10);}.cls-19{fill:url(#radial-gradient-11);}.cls-20{fill:url(#radial-gradient-12);}.cls-21{fill:url(#radial-gradient-13);}.cls-22{fill:url(#radial-gradient-14);}.cls-23{fill:url(#radial-gradient-15);}.cls-24{fill:url(#radial-gradient-16);}.cls-25{fill:url(#radial-gradient-17);}.cls-26{fill:url(#radial-gradient-18);}.cls-27{fill:url(#radial-gradient-19);}.cls-28{fill:url(#radial-gradient-20);}.cls-29{fill:url(#radial-gradient-21);}.cls-30{fill:url(#radial-gradient-22);}.cls-31{fill:url(#radial-gradient-23);}.cls-32{fill:url(#radial-gradient-24);}.cls-33{fill:url(#radial-gradient-25);}.cls-34{fill:url(#radial-gradient-26);}.cls-35{fill:url(#radial-gradient-27);}.cls-36{fill:url(#radial-gradient-28);}.cls-37{fill:url(#radial-gradient-29);}.cls-38{fill:url(#radial-gradient-30);}.cls-39{fill:url(#radial-gradient-31);}.cls-40,.cls-47,.cls-48{opacity:0.4;}.cls-40{fill:url(#radial-gradient-33);}.cls-41{fill:url(#radial-gradient-34);}.cls-42{fill:url(#radial-gradient-35);}.cls-43{fill:#f9ffae;}.cls-44,.cls-46{fill:#fff;mix-blend-mode:overlay;}.cls-44{opacity:0.1;}.cls-45{fill:url(#radial-gradient-36);}.cls-46{opacity:0.3;}.cls-47{fill:url(#radial-gradient-37);}.cls-48{fill:url(#radial-gradient-38);}.cls-49{fill:url(#radial-gradient-39);}.cls-50{fill:url(#radial-gradient-40);}.cls-51,.cls-54,.cls-57{stroke:#00255b;stroke-miterlimit:10;stroke-width:0.19px;}.cls-51{fill:url(#radial-gradient-41);}.cls-52{fill:url(#radial-gradient-42);}.cls-53{fill:url(#radial-gradient-43);}.cls-54{fill:url(#radial-gradient-44);}.cls-55{fill:url(#radial-gradient-45);}.cls-56{fill:url(#radial-gradient-46);}.cls-57{fill:url(#radial-gradient-47);}.cls-58{fill:url(#radial-gradient-48);}.cls-59{fill:url(#radial-gradient-49);}.cls-60{fill:none;stroke-linecap:round;stroke-linejoin:round;stroke:url(#radial-gradient-50);}</style><radialGradient id="radial-gradient" cx="1465.92" cy="197.69" r="29.71" gradientTransform="matrix(-1, 0, 0, 1, 1912.42, 0)" gradientUnits="userSpaceOnUse"><stop offset="0" stop-color="#00cbff"/><stop offset="0.09" stop-color="#00c3fa"/><stop offset="0.23" stop-color="#00aced"/><stop offset="0.4" stop-color="#0086d7"/><stop offset="0.57" stop-color="#005cbf"/><stop offset="1" stop-color="#002479"/></radialGradient><radialGradient id="radial-gradient-3" cx="1464.2" cy="154.71" r="24.76" gradientTransform="matrix(-1, 0.03, 0.03, 0.92, 1905.17, 12.16)" xlink:href="#radial-gradient"/><radialGradient id="radial-gradient-4" cx="1509.03" cy="247.27" r="19.42" xlink:href="#radial-gradient"/><radialGradient id="radial-gradient-5" cx="1508.66" cy="247.36" r="18.83" gradientTransform="matrix(-1, 0, 0, 1, 1912.42, 0)" gradientUnits="userSpaceOnUse"><stop offset="0" stop-color="#edff6a"/><stop offset="0.11" stop-color="#effc62"/><stop offset="0.28" stop-color="#f4f54b"/><stop offset="0.49" stop-color="#fcea25"/><stop offset="0.57" stop-color="#ffe515"/><stop offset="1" stop-color="#ff9415"/></radialGradient><radialGradient id="radial-gradient-6" cx="1508.68" cy="248.65" r="16.23" gradientTransform="matrix(-1, 0, 0, 1, 1912.42, 0)" gradientUnits="userSpaceOnUse"><stop offset="0" stop-color="#edff6a"/><stop offset="0.11" stop-color="#effc62"/><stop offset="0.28" stop-color="#f4f54b"/><stop offset="0.49" stop-color="#fcea25"/><stop offset="0.57" stop-color="#ffe515"/><stop offset="1" stop-color="#ffa415"/></radialGradient><radialGradient id="radial-gradient-7" cx="1508.72" cy="256.62" r="6.54" xlink:href="#radial-gradient-6"/><radialGradient id="radial-gradient-8" cx="1510.2" cy="255.04" r="8.06" gradientTransform="matrix(-1, 0, 0, 1, 1912.42, 0)" gradientUnits="userSpaceOnUse"><stop offset="0" stop-color="#d5ffff"/><stop offset="0.17" stop-color="#cafaff"/><stop offset="0.46" stop-color="#acebff"/><stop offset="0.85" stop-color="#7dd3ff"/><stop offset="1" stop-color="#68c9ff"/></radialGradient><radialGradient id="radial-gradient-9" cx="1510.21" cy="255.44" r="7.64" xlink:href="#radial-gradient-8"/><radialGradient id="radial-gradient-10" cx="1508.12" cy="257.23" r="4.96" xlink:href="#radial-gradient-8"/><radialGradient id="radial-gradient-11" cx="1510.38" cy="254.92" r="6.57" xlink:href="#radial-gradient-8"/><radialGradient id="radial-gradient-12" cx="1511.64" cy="253.75" r="3.88" xlink:href="#radial-gradient-8"/><radialGradient id="radial-gradient-13" cx="1525.56" cy="249.31" r="19.43" xlink:href="#radial-gradient"/><radialGradient id="radial-gradient-14" cx="1525.18" cy="249.41" r="18.82" xlink:href="#radial-gradient-5"/><radialGradient id="radial-gradient-15" cx="1525.2" cy="250.7" r="16.23" xlink:href="#radial-gradient-6"/><radialGradient id="radial-gradient-16" cx="1525.25" cy="258.66" r="6.54" xlink:href="#radial-gradient-6"/><radialGradient id="radial-gradient-17" cx="1526.73" cy="257.09" r="8.06" xlink:href="#radial-gradient-8"/><radialGradient id="radial-gradient-18" cx="1526.73" cy="257.49" r="7.64" xlink:href="#radial-gradient-8"/><radialGradient id="radial-gradient-19" cx="1524.64" cy="259.28" r="4.96" xlink:href="#radial-gradient-8"/><radialGradient id="radial-gradient-20" cx="1526.9" cy="256.96" r="6.57" xlink:href="#radial-gradient-8"/><radialGradient id="radial-gradient-21" cx="1528.16" cy="255.8" r="3.88" xlink:href="#radial-gradient-8"/><radialGradient id="radial-gradient-22" cx="1541.4" cy="246.65" r="19.43" xlink:href="#radial-gradient"/><radialGradient id="radial-gradient-23" cx="1541.02" cy="246.74" r="18.82" xlink:href="#radial-gradient-5"/><radialGradient id="radial-gradient-24" cx="1541.04" cy="248.03" r="16.23" xlink:href="#radial-gradient-6"/><radialGradient id="radial-gradient-25" cx="1541.09" cy="255.99" r="6.54" xlink:href="#radial-gradient-6"/><radialGradient id="radial-gradient-26" cx="1542.57" cy="254.42" r="8.06" xlink:href="#radial-gradient-8"/><radialGradient id="radial-gradient-27" cx="1542.57" cy="254.82" r="7.64" xlink:href="#radial-gradient-8"/><radialGradient id="radial-gradient-28" cx="1540.48" cy="256.61" r="4.96" xlink:href="#radial-gradient-8"/><radialGradient id="radial-gradient-29" cx="1542.74" cy="254.3" r="6.57" xlink:href="#radial-gradient-8"/><radialGradient id="radial-gradient-30" cx="1544.01" cy="253.13" r="3.88" xlink:href="#radial-gradient-8"/><radialGradient id="radial-gradient-31" cx="1583.59" cy="207.84" r="30.51" xlink:href="#radial-gradient"/><radialGradient id="radial-gradient-33" cx="1571.46" cy="216.3" r="10.31" xlink:href="#radial-gradient"/><radialGradient id="radial-gradient-34" cx="1520.84" cy="198.89" r="34.73" xlink:href="#radial-gradient-6"/><radialGradient id="radial-gradient-35" cx="1520.1" cy="123.87" r="33.9" gradientTransform="translate(1912.42 353.94) rotate(180)" xlink:href="#radial-gradient-6"/><radialGradient id="radial-gradient-36" cx="1558.09" cy="217.8" r="15.05" xlink:href="#radial-gradient"/><radialGradient id="radial-gradient-37" cx="1520.05" cy="202.68" r="34.3" xlink:href="#radial-gradient"/><radialGradient id="radial-gradient-38" cx="1519.59" cy="226.46" r="33.71" xlink:href="#radial-gradient"/><radialGradient id="radial-gradient-39" cx="1579.68" cy="207.84" r="30.32" xlink:href="#radial-gradient"/><radialGradient id="radial-gradient-40" cx="749.48" cy="732.08" r="9.99" gradientTransform="matrix(-0.39, -1.03, -2.03, -0.04, 2112.05, 1012.37)" xlink:href="#radial-gradient"/><radialGradient id="radial-gradient-41" cx="1463.7" cy="211.38" r="16.68" xlink:href="#radial-gradient"/><radialGradient id="radial-gradient-42" cx="1463.71" cy="212.59" r="16.06" xlink:href="#radial-gradient"/><radialGradient id="radial-gradient-43" cx="1468.29" cy="212.78" r="10.42" xlink:href="#radial-gradient"/><radialGradient id="radial-gradient-44" cx="1469.95" cy="185.27" r="21.87" xlink:href="#radial-gradient"/><radialGradient id="radial-gradient-45" cx="1469.95" cy="185.69" r="21.57" xlink:href="#radial-gradient"/><radialGradient id="radial-gradient-46" cx="1537.73" cy="182.46" r="12.77" gradientTransform="matrix(-0.95, 0, 0, 1, 1902.58, -1.07)" xlink:href="#radial-gradient"/><radialGradient id="radial-gradient-47" cx="1471.69" cy="467" r="23.07" gradientTransform="translate(1912.42 713.42) rotate(180)" xlink:href="#radial-gradient"/><radialGradient id="radial-gradient-48" cx="1472.91" cy="224.82" r="22.28" xlink:href="#radial-gradient"/><radialGradient id="radial-gradient-49" cx="1446.57" cy="709.93" r="10.24" gradientTransform="matrix(-0.87, -0.39, -0.53, 1.07, 2077.13, 36.35)" xlink:href="#radial-gradient"/><radialGradient id="radial-gradient-50" cx="358.17" cy="239.39" r="34.3" gradientTransform="translate(50.36) scale(0.94 1)" xlink:href="#radial-gradient-6"/></defs><title>dirijabl 4erniy</title><g class="cls-1"><g id="Слой_1" data-name="Слой 1"><path class="cls-2" d="M437.61,227.49h9.7s2.71-2.4,2.71-11.43-2.71-11.42-2.71-11.42h-9.7Z" transform="translate(-332.87 -178.23)"/><path class="cls-3" d="M437.59,227.53c2.93,0,6.21.43,9.1,0,1.28-.2,1.55-1.06,2.07-2.37,1.94-4.89,1.87-11.22.61-16.25-.27-1.11-.86-3.74-2.07-4.31s-3.79,0-5.06,0h-4.61s-.11,0-.11.05V227.5c0,.05.19,0,.19,0V207.75c0-.7-.17-2.9.08-3.07.42-.3,2.27,0,2.75,0h4.23c1.46,0,2.3-.41,3.07.8,1.68,2.63,2,6.23,2.06,9.25.12,3.67,0,7.86-1.67,11.23-.92,1.86-1.36,1.49-3.41,1.49h-7.19C437.55,227.45,437.46,227.53,437.59,227.53Z" transform="translate(-332.87 -178.23)"/><g class="cls-4"><path class="cls-2" d="M440,204.64c2.61,6.75.6,15.81.23,18.44-.4,2.87,6.56,3.63,7.79-.34,2.88-9.3.25-16.06-.74-18.1h.05S450,207,450,216.06s-2.71,11.43-2.71,11.43h-9.7V204.64Z" transform="translate(-332.87 -178.23)"/></g><path class="cls-5" d="M448.05,208.78c-.86-3.51-2.21-4-4.38-3.77s-2.49,1-1.63,4.18,0,9.78-.38,12,5.42,2.8,6.25-1.55A25.9,25.9,0,0,0,448.05,208.78Z" transform="translate(-332.87 -178.23)"/><path class="cls-6" d="M445.61,205.71c-.69.27-.62,1.22-.21,2.24s1,1.75,1.7,1.48.63-1.21.22-2.24S446.3,205.43,445.61,205.71Z" transform="translate(-332.87 -178.23)"/><path class="cls-6" d="M447,210.06c-.55.06-.72.49-.67,1s.32.89.85.84.72-.48.67-1S447.58,210,447,210.06Z" transform="translate(-332.87 -178.23)"/><path class="cls-7" d="M364.76,260.16s3.93,4.78,23.25,4.78,23.25-4.78,23.25-4.78a29.38,29.38,0,0,0,5.67-14.44c.59-5.5-58.27-5.81-57.84,0A29,29,0,0,0,364.76,260.16Z" transform="translate(-332.87 -178.23)"/><g class="cls-8"><path class="cls-9" d="M411.38,243.1c3.52.67,5.66,1.54,5.55,2.62a29.38,29.38,0,0,1-5.67,14.44s-3.93,4.78-23.25,4.78c-16.5,0-21.77-3.49-23-4.51,18.71,5.28,34.32.5,40.46-7.22C407.93,250.17,413.68,244.91,411.38,243.1Z" transform="translate(-332.87 -178.23)"/></g><path class="cls-7" d="M363.16,257.8a28,28,0,0,1-4.07-12.08c-.29-4,27.67-5.11,44.82-3.59C397.54,249.83,385.08,259.44,363.16,257.8Z" transform="translate(-332.87 -178.23)"/><g class="cls-4"><path class="cls-10" d="M397.49,256.92a5.73,5.73,0,1,0,5.73-5.73A5.73,5.73,0,0,0,397.49,256.92Z" transform="translate(-332.87 -178.23)"/></g><path class="cls-11" d="M398.05,256.71a5.55,5.55,0,1,0,5.55-5.55A5.55,5.55,0,0,0,398.05,256.71Z" transform="translate(-332.87 -178.23)"/><path class="cls-12" d="M398,256.7c.39,7.17,11.27,7.35,11.3,0s-10.91-7.23-11.3,0c0,.05.19.08.19,0a5.69,5.69,0,0,1,3.25-5l1.08-.36,3.86.61a4.78,4.78,0,0,1,1.64,1.52,5.48,5.48,0,0,1,1.09,3.25,5.61,5.61,0,0,1-3,4.91,6.89,6.89,0,0,1-5.2-.12,4.81,4.81,0,0,1-1.31-1.07,5.81,5.81,0,0,1-1.42-3.7C398.14,256.66,398,256.65,398,256.7Z" transform="translate(-332.87 -178.23)"/><g class="cls-8"><path class="cls-13" d="M398.82,256.71a4.79,4.79,0,1,0,4.78-4.79A4.79,4.79,0,0,0,398.82,256.71Z" transform="translate(-332.87 -178.23)"/></g><g class="cls-8"><path class="cls-14" d="M398.05,256.71a5.55,5.55,0,1,0,5.55-5.55A5.55,5.55,0,0,0,398.05,256.71Zm.36,0a5.19,5.19,0,1,1,5.19,5.19A5.19,5.19,0,0,1,398.41,256.71Z" transform="translate(-332.87 -178.23)"/></g><path class="cls-15" d="M399.1,256.71a4.5,4.5,0,1,0,4.5-4.5A4.49,4.49,0,0,0,399.1,256.71Z" transform="translate(-332.87 -178.23)"/><path class="cls-12" d="M399,256.69c.31,5.8,9.15,6,9.18,0s-8.86-5.92-9.18-.05c0,.06.17.1.17.06a4.63,4.63,0,0,1,2.23-3.88,4.45,4.45,0,0,1,6.58,3.83,4.39,4.39,0,0,1-2.62,4.06,4.46,4.46,0,0,1-6.19-4C399.18,256.68,399,256.64,399,256.69Z" transform="translate(-332.87 -178.23)"/><g class="cls-8"><path class="cls-16" d="M401.39,252.79a3.93,3.93,0,1,0,6.71,4.09,4.5,4.5,0,1,1-6.71-4.09Z" transform="translate(-332.87 -178.23)"/></g><g class="cls-17"><path class="cls-18" d="M407.92,256.71V257L403.86,261h-.26a4.49,4.49,0,0,1-1.22-.17l5.37-5.37A4.49,4.49,0,0,1,407.92,256.71Z" transform="translate(-332.87 -178.23)"/></g><g class="cls-17"><path class="cls-19" d="M406.84,253.86l-6.09,6.1a4.27,4.27,0,0,1-1.25-1.89l5.46-5.46A4.24,4.24,0,0,1,406.84,253.86Z" transform="translate(-332.87 -178.23)"/></g><g class="cls-17"><path class="cls-20" d="M399.28,256.71a4.4,4.4,0,0,1,.14-1.09l3.09-3.09a4.34,4.34,0,0,1,1.09-.14h0l-4.34,4.34Z" transform="translate(-332.87 -178.23)"/></g><g class="cls-4"><path class="cls-21" d="M381,259a5.73,5.73,0,1,0,5.73-5.72A5.73,5.73,0,0,0,381,259Z" transform="translate(-332.87 -178.23)"/></g><path class="cls-22" d="M381.52,258.76a5.56,5.56,0,1,0,5.55-5.55A5.56,5.56,0,0,0,381.52,258.76Z" transform="translate(-332.87 -178.23)"/><path class="cls-12" d="M381.43,258.75c.38,7.2,11.26,7.32,11.29,0s-10.91-7.21-11.29,0c0,.06.19.07.19,0,.12-2.21,1.43-4.67,3.77-5.25l3.91.2,1,.57a5.57,5.57,0,0,1,1.35,1.43,5.72,5.72,0,0,1,.91,3,5.52,5.52,0,0,1-3.25,5c-4,1.78-7.46-1.28-7.66-5C381.62,258.71,381.42,258.7,381.43,258.75Z" transform="translate(-332.87 -178.23)"/><g class="cls-8"><path class="cls-23" d="M382.29,258.76a4.79,4.79,0,1,0,4.78-4.79A4.79,4.79,0,0,0,382.29,258.76Z" transform="translate(-332.87 -178.23)"/></g><g class="cls-8"><path class="cls-24" d="M381.52,258.76a5.56,5.56,0,1,0,5.55-5.55A5.56,5.56,0,0,0,381.52,258.76Zm.36,0a5.2,5.2,0,1,1,5.19,5.19A5.19,5.19,0,0,1,381.88,258.76Z" transform="translate(-332.87 -178.23)"/></g><path class="cls-25" d="M382.57,258.76a4.51,4.51,0,1,0,4.5-4.5A4.5,4.5,0,0,0,382.57,258.76Z" transform="translate(-332.87 -178.23)"/><path class="cls-12" d="M382.48,258.74c.32,5.81,9.18,6,9.18,0s-8.86-5.9-9.18,0c0,.05.18.08.18,0a4.59,4.59,0,0,1,2.63-4.09,4.43,4.43,0,0,1,4,7.9c-3,1.76-6.43-.61-6.6-3.81C382.66,258.72,382.48,258.7,382.48,258.74Z" transform="translate(-332.87 -178.23)"/><g class="cls-8"><path class="cls-26" d="M384.86,254.84a3.89,3.89,0,0,0-.6,2.08,3.93,3.93,0,0,0,7.31,2,4.5,4.5,0,1,1-6.71-4.09Z" transform="translate(-332.87 -178.23)"/></g><g class="cls-17"><path class="cls-27" d="M391.4,258.76c0,.09,0,.17,0,.26l-4.06,4.05h-.26a4.37,4.37,0,0,1-1.21-.17l5.36-5.37A4.09,4.09,0,0,1,391.4,258.76Z" transform="translate(-332.87 -178.23)"/></g><g class="cls-17"><path class="cls-28" d="M390.32,255.9l-6.1,6.1a4.33,4.33,0,0,1-1.25-1.88l5.47-5.46A4.37,4.37,0,0,1,390.32,255.9Z" transform="translate(-332.87 -178.23)"/></g><g class="cls-17"><path class="cls-29" d="M382.75,258.76a4.34,4.34,0,0,1,.14-1.09l3.1-3.09a4.32,4.32,0,0,1,1.08-.14h0l-4.34,4.33Z" transform="translate(-332.87 -178.23)"/></g><g class="cls-4"><path class="cls-30" d="M365.12,256.3a5.73,5.73,0,1,0,5.73-5.73A5.74,5.74,0,0,0,365.12,256.3Z" transform="translate(-332.87 -178.23)"/></g><path class="cls-31" d="M365.68,256.09a5.56,5.56,0,1,0,5.55-5.55A5.55,5.55,0,0,0,365.68,256.09Z" transform="translate(-332.87 -178.23)"/><path class="cls-12" d="M365.59,256.08c.38,7.2,11.26,7.32,11.29,0s-10.91-7.2-11.29,0c0,.06.19.07.19,0,.12-2.21,1.43-4.67,3.76-5.25l3.92.21,1,.56a5.57,5.57,0,0,1,1.35,1.43,5.72,5.72,0,0,1,.91,3,5.52,5.52,0,0,1-3.25,5c-4,1.78-7.46-1.28-7.66-5C365.78,256,365.58,256,365.59,256.08Z" transform="translate(-332.87 -178.23)"/><g class="cls-8"><path class="cls-32" d="M366.45,256.09a4.79,4.79,0,1,0,4.78-4.79A4.79,4.79,0,0,0,366.45,256.09Z" transform="translate(-332.87 -178.23)"/></g><g class="cls-8"><path class="cls-33" d="M365.68,256.09a5.56,5.56,0,1,0,5.55-5.55A5.55,5.55,0,0,0,365.68,256.09Zm.36,0a5.2,5.2,0,1,1,5.19,5.19A5.19,5.19,0,0,1,366,256.09Z" transform="translate(-332.87 -178.23)"/></g><path class="cls-34" d="M366.73,256.09a4.51,4.51,0,1,0,4.5-4.5A4.5,4.5,0,0,0,366.73,256.09Z" transform="translate(-332.87 -178.23)"/><path class="cls-12" d="M366.65,256.07c.31,5.81,9.15,6,9.17,0s-8.86-5.91-9.17-.05c0,.06.17.1.17.06a4.6,4.6,0,0,1,2.22-3.88,4.45,4.45,0,0,1,6.58,3.83,4.4,4.4,0,0,1-2.61,4.06,4.46,4.46,0,0,1-6.19-4C366.82,256.06,366.64,256,366.65,256.07Z" transform="translate(-332.87 -178.23)"/><g class="cls-8"><path class="cls-35" d="M369,252.17a3.93,3.93,0,1,0,6.71,4.09,4.5,4.5,0,1,1-6.71-4.09Z" transform="translate(-332.87 -178.23)"/></g><g class="cls-17"><path class="cls-36" d="M375.56,256.09c0,.09,0,.17,0,.26l-4.06,4.06h-.26a4.37,4.37,0,0,1-1.21-.17l5.36-5.37A4.14,4.14,0,0,1,375.56,256.09Z" transform="translate(-332.87 -178.23)"/></g><g class="cls-17"><path class="cls-37" d="M374.48,253.24l-6.1,6.09a4.33,4.33,0,0,1-1.25-1.88L372.6,252A4.3,4.3,0,0,1,374.48,253.24Z" transform="translate(-332.87 -178.23)"/></g><g class="cls-17"><path class="cls-38" d="M366.91,256.09a4.4,4.4,0,0,1,.14-1.09l3.1-3.09a4.26,4.26,0,0,1,1.08-.14h0l-4.34,4.34Z" transform="translate(-332.87 -178.23)"/></g><path class="cls-7" d="M439.27,204s-12.51-25.77-49-25.77-57.3,24-57.3,39.05,22.51,34.33,57.35,34.33,48.19-25.4,48.19-25.4S442.72,215.36,439.27,204Z" transform="translate(-332.87 -178.23)"/><g class="cls-8"><path class="cls-9" d="M439,203.89s-12.47-25.66-48.87-25.66S333,202.11,333,217.11s22.45,34.17,57.2,34.17,48-25.28,48-25.28S442.42,215.2,439,203.89Z" transform="translate(-332.87 -178.23)"/></g><path class="cls-7" d="M439.94,220.79a33.07,33.07,0,0,1-1.44,5.42s-13.35,25.4-48.19,25.4c-23,0-40.95-8.17-50.3-18.82a16.45,16.45,0,0,0,5.69-8c9,4.6,24.08,10,45.07,10C418.44,234.73,434,225.4,439.94,220.79Z" transform="translate(-332.87 -178.23)"/><path class="cls-7" d="M344.17,203.8a12.38,12.38,0,0,0-3.76-4.23c9.06-11.22,26.14-21.34,49.85-21.34,36.5,0,49,25.77,49,25.77a30.22,30.22,0,0,1,.94,4.13c-6.29-4.39-23.88-14.46-52.63-14.46C366.35,193.67,352.27,199.16,344.17,203.8Z" transform="translate(-332.87 -178.23)"/><path class="cls-39" d="M339.23,201.1c.91.73,6,5.19,6,15.08a22.8,22.8,0,0,1-6.23,15.5c-3.72-4.24-6-9.71-6-14.4C333,212.44,335.11,206.69,339.23,201.1Z" transform="translate(-332.87 -178.23)"/><path class="cls-3" d="M339.16,201.11c8,6.44,7.3,19.83,2,27.65-.23.35-1.69,2.83-2.3,2.87s-3.23-4.84-3.37-5.12a23.37,23.37,0,0,1-1.89-4.84c-1.9-7.37,1.42-14.63,5.66-20.53,0,0-.14-.11-.17-.07-3.31,4.6-6.15,10-6.26,15.85-.1,5.46,2.56,10.67,6,14.75,0,0,.13.08.17,0,7.69-7.42,9.08-23.47.23-30.61C339.26,201.07,339.08,201.05,339.16,201.11Z" transform="translate(-332.87 -178.23)"/><g class="cls-4"><path class="cls-39" d="M339.23,201.1c.91.73,6,5.19,6,15.08a22.8,22.8,0,0,1-6.23,15.5c-3.72-4.24-6-9.71-6-14.4C333,212.44,335.11,206.69,339.23,201.1Z" transform="translate(-332.87 -178.23)"/></g><path class="cls-7" d="M345.21,216.18c0-9.89-5.07-14.35-6-15.08.38-.51.77-1,1.18-1.53.09.06,6.66,4.05,6.66,16.38s-7,16.8-7.06,16.84c-.35-.36-.69-.73-1-1.11A22.8,22.8,0,0,0,345.21,216.18Z" transform="translate(-332.87 -178.23)"/><path class="cls-12" d="M439.88,206.72s-.33-.25-.94-.66a.11.11,0,0,1,0-.14.09.09,0,0,1,.13,0c.62.42.95.66.95.66a.11.11,0,0,1,0,.14.12.12,0,0,1-.08,0Zm-1.9-1.3-1-.61a.1.1,0,0,1,0-.13.09.09,0,0,1,.13,0l1,.61a.11.11,0,0,1,0,.13.11.11,0,0,1-.09.05Zm-2-1.21-1-.58a.1.1,0,0,1,0-.13.1.1,0,0,1,.13,0l1,.59a.09.09,0,0,1,0,.13.09.09,0,0,1-.08,0Zm-2-1.15-1-.55a.09.09,0,0,1,0-.13.09.09,0,0,1,.13,0l1,.55a.1.1,0,0,1,0,.13.08.08,0,0,1-.08,0Zm-90.57-.2s0,0-.05-.07a.1.1,0,0,1,0-.09s.16-.13.43-.32a.09.09,0,0,1,.13,0,.08.08,0,0,1,0,.13l-.42.31-.07,0ZM432,202l-1-.53a.1.1,0,0,1,.09-.17l1,.53a.1.1,0,0,1,0,.18Zm-87.2-.1a.09.09,0,0,1,0-.13c.31-.2.64-.41,1-.61a.1.1,0,0,1,.13,0,.1.1,0,0,1,0,.13c-.34.2-.67.41-1,.61h-.05A.09.09,0,0,1,344.82,201.87Zm85.15-.94-1-.5a.09.09,0,0,1,0-.13.08.08,0,0,1,.12,0c.36.16.7.33,1,.5a.08.08,0,0,1,0,.12.08.08,0,0,1-.08.06Zm-83.19-.25a.1.1,0,0,1,0-.13l1-.56a.1.1,0,1,1,.09.17l-1,.55-.05,0A.12.12,0,0,1,346.78,200.68Zm81.12-.74-1-.47a.1.1,0,0,1-.05-.13.09.09,0,0,1,.12-.05l1.05.48a.09.09,0,0,1,0,.12.1.1,0,0,1-.09.06Zm-79.09-.35a.09.09,0,0,1,0-.13l1-.51a.09.09,0,0,1,.13,0,.11.11,0,0,1,0,.13c-.36.17-.71.34-1,.51h-.05A.09.09,0,0,1,348.81,199.59Zm77-.59-1.06-.44a.1.1,0,0,1-.05-.13.09.09,0,0,1,.12-.05l1.06.45a.09.09,0,0,1,.05.12.09.09,0,0,1-.09.06Zm-74.94-.42a.09.09,0,0,1,.05-.12L352,198a.11.11,0,0,1,.13.05.1.1,0,0,1-.05.13l-1.05.47h0A.11.11,0,0,1,350.87,198.58Zm72.82-.46-1.07-.42a.1.1,0,0,1-.05-.13.09.09,0,0,1,.12,0l1.07.42a.1.1,0,0,1,.05.13.1.1,0,0,1-.09.06ZM353,197.66a.1.1,0,0,1,0-.13l1.06-.43a.1.1,0,1,1,.08.18l-1.07.43h0A.1.1,0,0,1,353,197.66Zm68.57-.37-1.08-.4a.1.1,0,0,1-.06-.12.1.1,0,0,1,.13-.06l1.08.4a.09.09,0,0,1,0,.18Zm-66.44-.49a.1.1,0,0,1,.06-.12l1.08-.4a.09.09,0,1,1,.06.18l-1.08.4h0A.11.11,0,0,1,355.11,196.8Zm64.28-.3-1.08-.37a.09.09,0,0,1-.06-.12.09.09,0,0,1,.12-.06l1.08.37a.09.09,0,0,1,.06.12.1.1,0,0,1-.09.07ZM357.27,196a.09.09,0,0,1,.06-.12l1.09-.37a.11.11,0,0,1,.12.07.09.09,0,0,1-.06.12l-1.09.36h0A.1.1,0,0,1,357.27,196Zm60-.25-1.1-.34a.09.09,0,0,1-.06-.12.1.1,0,0,1,.12-.07l1.09.35a.1.1,0,0,1,0,.19Zm-57.77-.47a.09.09,0,0,1,.07-.11l1.1-.34a.09.09,0,0,1,.11.07.09.09,0,0,1-.06.12l-1.1.33h0A.1.1,0,0,1,359.45,195.3Zm55.57-.21-1.1-.32a.09.09,0,0,1-.07-.11.11.11,0,0,1,.12-.07l1.11.32a.09.09,0,0,1,.06.12.1.1,0,0,1-.09.07Zm-53.36-.44a.09.09,0,0,1,.06-.12l1.11-.3a.1.1,0,1,1,.05.19l-1.11.3h0A.1.1,0,0,1,361.66,194.65Zm51.15-.18-1.11-.3a.08.08,0,0,1-.06-.11.09.09,0,0,1,.11-.07l1.11.29a.1.1,0,0,1,.07.12.1.1,0,0,1-.09.07Zm-48.93-.41a.09.09,0,0,1,.06-.12l1.12-.27a.1.1,0,1,1,.05.19l-1.12.27h0A.1.1,0,0,1,363.88,194.06Zm46.71-.16-1.12-.27a.1.1,0,0,1-.07-.12.11.11,0,0,1,.12-.07l1.12.27a.1.1,0,0,1,.07.12.11.11,0,0,1-.1.07Zm-44.48-.37a.11.11,0,0,1,.07-.12l1.13-.24a.1.1,0,0,1,0,.19l-1.13.24h0A.1.1,0,0,1,366.11,193.53Zm42.25-.15-1.13-.24a.1.1,0,0,1,0-.19l1.13.24a.09.09,0,0,1,.07.11.09.09,0,0,1-.09.08Zm-40-.32a.1.1,0,0,1,.07-.12l1.13-.21a.11.11,0,0,1,.12.08.11.11,0,0,1-.08.11l-1.13.21h0A.1.1,0,0,1,368.36,193.06Zm37.75-.15L405,192.7a.1.1,0,0,1-.08-.11.11.11,0,0,1,.11-.08l1.13.22a.09.09,0,0,1,.08.11.11.11,0,0,1-.09.08Zm-35.49-.27a.09.09,0,0,1,.07-.11l1.14-.19a.1.1,0,0,1,0,.19l-1.13.19h0A.1.1,0,0,1,370.62,192.64Zm33.23-.13-1.13-.19c-.06,0-.09,0-.08-.11a.1.1,0,0,1,.11-.08l1.13.19a.1.1,0,0,1,.08.11.11.11,0,0,1-.09.08Zm-31-.24a.09.09,0,0,1,.09-.1l1.13-.16a.09.09,0,0,1,.11.08.1.1,0,0,1-.08.11l-1.14.16h0A.11.11,0,0,1,372.88,192.27Zm28.7-.12-1.14-.15a.1.1,0,1,1,0-.19l1.14.15a.1.1,0,0,1,.08.11.1.1,0,0,1-.1.08ZM375.16,192a.09.09,0,0,1,.08-.11l1.15-.14a.1.1,0,0,1,.1.09.08.08,0,0,1-.08.1l-1.14.14h0A.11.11,0,0,1,375.16,192Zm24.15-.11-1.14-.13a.09.09,0,0,1-.09-.1.1.1,0,0,1,.11-.09l1.14.13a.09.09,0,0,1,.08.1.1.1,0,0,1-.09.09Zm-21.87-.15a.11.11,0,0,1,.09-.11l1.14-.11a.11.11,0,0,1,.11.09.1.1,0,0,1-.09.1l-1.14.11h0A.1.1,0,0,1,377.44,191.71Zm19.58-.09-1.14-.1a.1.1,0,0,1-.09-.1.11.11,0,0,1,.1-.09l1.15.1a.1.1,0,1,1,0,.19Zm-17.29-.12a.1.1,0,0,1,.09-.1l1.14-.09a.11.11,0,0,1,.11.09.1.1,0,0,1-.09.1l-1.15.09h0A.1.1,0,0,1,379.73,191.5Zm15-.06-1.15-.07a.1.1,0,0,1,0-.19l1.15.07a.1.1,0,0,1,.09.1.11.11,0,0,1-.1.09Zm-12.72-.1a.1.1,0,0,1,.09-.1l1.15-.06a.1.1,0,1,1,0,.19l-1.15.06h0A.11.11,0,0,1,382,191.34Zm2.3-.11a.09.09,0,0,1,.09-.1l1.15,0h0a.09.09,0,0,1,.09.1c0,.05,0,.09-.09.1l-1.14,0h0A.09.09,0,0,1,384.32,191.23Zm8.12.09-1.14,0a.1.1,0,0,1-.1-.1.12.12,0,0,1,.1-.09l1.15,0a.08.08,0,0,1,.09.1.09.09,0,0,1-.09.09Zm-5.83-.15a.09.09,0,0,1,.1-.1l1.15,0h0a.1.1,0,0,1,0,.2h-1.15A.1.1,0,0,1,386.61,191.17Zm3.54.08H389a.09.09,0,0,1-.1-.09.09.09,0,0,1,.1-.1h1.14a.1.1,0,0,1,.1.1.09.09,0,0,1-.1.09Z" transform="translate(-332.87 -178.23)"/><path class="cls-12" d="M390.75,237.18a.1.1,0,0,1,0-.19h1.14a.1.1,0,1,1,0,.2h-1.15Zm2.21-.1a.11.11,0,0,1,.09-.1l1.15,0a.11.11,0,0,1,.1.1.09.09,0,0,1-.1.09l-1.15,0h0A.1.1,0,0,1,393,237.08Zm-3.35.09-1.15,0a.09.09,0,0,1-.1-.1.1.1,0,0,1,.1-.09h0l1.15,0a.09.09,0,0,1,.09.09.09.09,0,0,1-.09.1Zm5.64-.14a.09.09,0,0,1,.09-.1l1.15-.05a.08.08,0,0,1,.1.09.11.11,0,0,1-.09.1l-1.15.05h0A.11.11,0,0,1,395.25,237Zm-7.94.08-1.15-.05a.1.1,0,0,1-.09-.1.09.09,0,0,1,.1-.09l1.14,0a.09.09,0,0,1,.1.09.11.11,0,0,1-.1.1Zm10.24-.2a.09.09,0,0,1,.09-.1l1.14-.08a.09.09,0,0,1,.1.09.08.08,0,0,1-.08.1l-1.15.08h0A.09.09,0,0,1,397.55,236.91ZM385,237l-1.15-.07a.1.1,0,0,1-.09-.1.12.12,0,0,1,.11-.09l1.14.07a.1.1,0,0,1,.09.1.09.09,0,0,1-.1.09Zm-2.29-.15-1.15-.09a.1.1,0,0,1-.09-.1.12.12,0,0,1,.11-.09l1.14.09a.11.11,0,0,1,.09.1.09.09,0,0,1-.1.09Zm17.12-.1a.09.09,0,0,1,.09-.11l1.14-.11a.1.1,0,0,1,0,.2l-1.15.1h0A.09.09,0,0,1,399.84,236.75Zm-19.41-.09-1.15-.12a.08.08,0,0,1-.08-.1.1.1,0,0,1,.1-.09l1.15.12a.08.08,0,0,1,.08.1.1.1,0,0,1-.1.09Zm21.69-.14a.12.12,0,0,1,.09-.11l1.14-.13a.08.08,0,0,1,.1.08.09.09,0,0,1-.08.11l-1.14.14h0A.11.11,0,0,1,402.12,236.52Zm-24-.1-1.14-.14a.1.1,0,0,1-.08-.11.08.08,0,0,1,.1-.08l1.14.14a.1.1,0,0,1,.09.1.11.11,0,0,1-.1.09Zm26.26-.18a.11.11,0,0,1,.09-.11l1.13-.16a.09.09,0,0,1,.11.08.1.1,0,0,1-.08.11l-1.14.16h0A.1.1,0,0,1,404.4,236.24Zm-28.54-.11-1.14-.16a.1.1,0,0,1,0-.19l1.13.16a.1.1,0,1,1,0,.19Zm30.82-.23a.09.09,0,0,1,.07-.11l1.13-.2a.1.1,0,0,1,.12.08.1.1,0,0,1-.08.11l-1.14.2h0A.09.09,0,0,1,406.68,235.9Zm-33.1-.11-1.13-.18a.1.1,0,0,1-.08-.12.09.09,0,0,1,.11-.07l1.14.18a.09.09,0,0,1,.07.11.08.08,0,0,1-.09.08Zm35.36-.29a.09.09,0,0,1,.07-.11l1.13-.22a.09.09,0,0,1,.11.07.09.09,0,0,1-.07.11l-1.13.23h0A.11.11,0,0,1,408.94,235.5Zm-37.62-.09-1.13-.22a.1.1,0,0,1-.08-.11.11.11,0,0,1,.11-.08l1.13.22a.1.1,0,0,1,.08.11.11.11,0,0,1-.09.08Zm39.87-.37a.09.09,0,0,1,.07-.11l1.12-.25a.11.11,0,0,1,.12.07.1.1,0,0,1-.08.11l-1.12.25h0A.09.09,0,0,1,411.19,235ZM369.06,235l-1.12-.24a.1.1,0,0,1-.08-.11.1.1,0,0,1,.12-.08l1.12.24a.09.09,0,0,1,.07.11.09.09,0,0,1-.09.08Zm44.37-.44a.09.09,0,0,1,.07-.12l1.11-.28a.1.1,0,0,1,.12.07.09.09,0,0,1-.07.11l-1.12.29h0A.1.1,0,0,1,413.43,234.53Zm-46.62-.05-1.11-.27a.09.09,0,0,1-.08-.11.11.11,0,0,1,.12-.07l1.12.26a.1.1,0,0,1,.07.12.1.1,0,0,1-.09.07Zm48.84-.53a.11.11,0,0,1,.07-.12l1.1-.31a.1.1,0,0,1,.12.07.09.09,0,0,1-.07.12l-1.1.31h0A.1.1,0,0,1,415.65,234Zm-51.07,0-1.11-.3a.09.09,0,0,1-.07-.11.1.1,0,0,1,.12-.07l1.11.29a.1.1,0,0,1,.07.12.1.1,0,0,1-.1.07Zm53.28-.63a.08.08,0,0,1,.06-.11l1.1-.35a.11.11,0,0,1,.12.07.1.1,0,0,1-.06.12l-1.1.34h0A.09.09,0,0,1,417.86,233.31Zm-55.5,0-1.11-.32a.1.1,0,0,1-.06-.12.09.09,0,0,1,.12-.06l1.1.31a.11.11,0,0,1,.07.12.09.09,0,0,1-.1.07Zm-2.21-.65-1.09-.35a.09.09,0,0,1-.06-.12.1.1,0,0,1,.12-.07l1.09.35a.09.09,0,0,1,.06.12.1.1,0,0,1-.09.07Zm59.9-.07a.09.09,0,0,1,.06-.12l1.08-.37a.1.1,0,0,1,.13.06.11.11,0,0,1-.06.12l-1.09.37h0A.09.09,0,0,1,420.05,232.62ZM358,232l-1.09-.38a.09.09,0,0,1-.06-.12.09.09,0,0,1,.12-.05l1.09.37a.09.09,0,0,1,.06.12.11.11,0,0,1-.09.07Zm64.25-.11a.09.09,0,0,1,0-.12l1.08-.4a.09.09,0,0,1,.12,0,.1.1,0,0,1-.05.13l-1.08.4h0A.1.1,0,0,1,422.22,231.86Zm-66.42-.66-1.08-.41a.1.1,0,0,1-.05-.12.09.09,0,0,1,.12-.06c.35.14.71.28,1.08.41a.1.1,0,0,1,.05.13.1.1,0,0,1-.09.06Zm68.56-.15a.11.11,0,0,1,.06-.13l1.06-.43a.1.1,0,0,1,.13,0,.1.1,0,0,1-.06.13l-1.06.43h0A.11.11,0,0,1,424.36,231.05Zm-70.7-.68-1.07-.45a.1.1,0,0,1,0-.12.1.1,0,0,1,.13-.05l1.06.44a.09.09,0,0,1,0,.18Zm72.83-.2a.1.1,0,0,1,.05-.13l1-.46a.09.09,0,0,1,.12,0,.09.09,0,0,1,0,.12l-1.06.47h0A.09.09,0,0,1,426.49,230.17Zm-74.95-.71-1.05-.48a.08.08,0,0,1,0-.12.09.09,0,0,1,.12-.05l1.05.48a.09.09,0,0,1,.05.12.11.11,0,0,1-.09.06Zm77-.23a.1.1,0,0,1,.05-.13l1-.5a.09.09,0,0,1,.12.05.09.09,0,0,1,0,.12l-1,.5h0A.11.11,0,0,1,428.58,229.23Zm-79.12-.74-1-.52a.09.09,0,0,1,0-.13.08.08,0,0,1,.12,0l1,.51a.09.09,0,0,1,0,.13.08.08,0,0,1-.08.06Zm81.19-.27a.1.1,0,0,1,0-.13l1-.53a.11.11,0,0,1,.13,0,.09.09,0,0,1,0,.13l-1,.53h0A.11.11,0,0,1,430.65,228.22Zm-83.24-.79c-.35-.19-.69-.38-1-.57a.09.09,0,0,1,0-.13.1.1,0,0,1,.13,0l1,.57a.09.09,0,0,1,0,.13.1.1,0,0,1-.08.05Zm85.27-.28a.11.11,0,0,1,0-.13l1-.56a.09.09,0,0,1,.1.16l-1,.57h0A.11.11,0,0,1,432.68,227.15Zm-87.26-.89-.26-.17a.11.11,0,0,1,0-.14.09.09,0,0,1,.13,0l.26.17a.09.09,0,0,1,0,.13.08.08,0,0,1-.08,0Zm89.26-.25a.1.1,0,0,1,0-.13l1-.6a.11.11,0,0,1,.14,0,.1.1,0,0,1,0,.13q-.46.3-1,.6l-.05,0A.1.1,0,0,1,434.68,226Zm1.95-1.21a.11.11,0,0,1,0-.14l.95-.63a.11.11,0,0,1,.14,0,.09.09,0,0,1,0,.13l-1,.64-.05,0A.09.09,0,0,1,436.63,224.8Zm1.9-1.3a.11.11,0,0,1,0-.14c.6-.43.91-.69.92-.69a.09.09,0,0,1,.13,0,.09.09,0,0,1,0,.13s-.32.27-.92.71l-.06,0A.12.12,0,0,1,438.53,223.5Z" transform="translate(-332.87 -178.23)"/><path class="cls-3" d="M337.6,229.78a8.45,8.45,0,0,0,.92-.68l.12.15a8.39,8.39,0,0,1-.93.69Zm1.77-1.44q.4-.41.78-.84l.14.13c-.25.29-.52.58-.79.84Zm1.49-1.73c.22-.3.44-.62.63-.94l.17.1c-.21.32-.42.65-.65.95Zm1.2-1.94c.18-.33.34-.68.49-1l.18.08c-.16.35-.32.7-.5,1Zm.91-2.09c.12-.35.24-.72.34-1.09l.18,0c-.1.37-.22.74-.34,1.11Zm.61-2.2c.07-.37.14-.75.19-1.12l.19,0c0,.39-.12.77-.2,1.14Zm.32-2.26c0-.37.05-.76.06-1.14h.19c0,.38,0,.77-.06,1.15Zm0-3.42.19,0c0,.38,0,.77.06,1.15H344C344,215.46,343.94,215.07,343.91,214.7Zm-.29-2.27.19,0c.07.37.13.75.17,1.14l-.18,0C343.75,213.18,343.69,212.8,343.62,212.43Zm-.55-2.21.18-.06c.12.36.22.74.32,1.11l-.19,0C343.29,210.94,343.18,210.58,343.07,210.22Zm-.82-2.13.17-.08c.16.34.31.7.45,1.06l-.18.07C342.56,208.78,342.41,208.43,342.25,208.09Zm-1.11-2,.16-.1q.31.48.6,1l-.17.09C341.54,206.73,341.35,206.41,341.14,206.09Zm-1.38-1.81.14-.13c.25.28.5.58.74.89l-.16.12C340.25,204.85,340,204.56,339.76,204.28Zm-1.68-1.54.11-.16a10.46,10.46,0,0,1,.9.74l-.13.14A7,7,0,0,0,338.08,202.74Z" transform="translate(-332.87 -178.23)"/><path class="cls-40" d="M337.85,230.41c.28-.16,6.79-4,6.79-14s-5.94-14-6.19-14.21l-.63,1,.32-.48-.32.48c.05,0,5.67,3.91,5.67,13.25a16.41,16.41,0,0,1-3.1,10,11.94,11.94,0,0,1-3.11,3Z" transform="translate(-332.87 -178.23)"/><path class="cls-41" d="M439.94,207.22a4.19,4.19,0,0,0,0-1.31A80.29,80.29,0,0,0,426,198.37a95.07,95.07,0,0,0-37.26-7.8c-15.84,0-27.38,3.19-34.26,5.86-7.5,2.9-11.19,5.77-11.34,5.9.27.3.36.45.71.9a47.15,47.15,0,0,1,11.1-5.76c6.79-2.62,18.16-5.75,33.79-5.75a94,94,0,0,1,36.8,7.7,75.91,75.91,0,0,1,14,7.68A.54.54,0,0,0,439.94,207.22Z" transform="translate(-332.87 -178.23)"/><path class="cls-42" d="M439.17,224A87.18,87.18,0,0,1,427.52,230a95.22,95.22,0,0,1-37.25,7.79c-15.85,0-27.38-3.18-34.27-5.85-7.49-2.91-10.83-5.52-11-5.64.27-.3,0-.71.35-1.16a47.22,47.22,0,0,0,11.1,5.75c6.79,2.62,18.16,5.75,33.8,5.75a93.94,93.94,0,0,0,36.79-7.7,83.25,83.25,0,0,0,12.56-6.66C439.53,222.74,439.33,223.5,439.17,224Z" transform="translate(-332.87 -178.23)"/><path class="cls-43" d="M418.06,190.53c-.69,1.59.23,2.71,1.7,3.34s2.95.46,3.61-1.07-.23-2.71-1.7-3.34S418.74,188.94,418.06,190.53Z" transform="translate(-332.87 -178.23)"/><path class="cls-44" d="M397.49,184.19c-.86,3.22,2.85,5.52,7.84,6.83s9.39,1,10.22-2.1-2.85-5.52-7.84-6.83S398.35,181,397.49,184.19Z" transform="translate(-332.87 -178.23)"/><g class="cls-4"><path class="cls-45" d="M347.12,215.72c2.93,5.78,8.19,11.08,15.08,15.33a86.68,86.68,0,0,1-16.5-6.3A31.24,31.24,0,0,0,347.12,215.72Z" transform="translate(-332.87 -178.23)"/></g><path class="cls-7" d="M345.21,216.18c0-9.89-5.07-14.35-6-15.08A50.92,50.92,0,0,1,351,189.77a22.71,22.71,0,0,0-6.4,12.91,22.34,22.34,0,0,0,2.48,13,31.24,31.24,0,0,1-1.42,9,86.68,86.68,0,0,0,16.5,6.3,70.36,70.36,0,0,0,28,9.46c20.27,2.52,38.67-3.1,47.72-13.31-2.89,4.67-16.91,24.41-47.62,24.41-24.16,0-42.38-9.27-51.29-20A22.79,22.79,0,0,0,345.21,216.18Z" transform="translate(-332.87 -178.23)"/><path class="cls-3" d="M440.57,209.57s-.34-.21-1-.58a.1.1,0,0,1,0-.13.11.11,0,0,1,.14,0c.65.36,1,.58,1,.58a.11.11,0,0,1,0,.13.1.1,0,0,1-.08.05Zm-2-1.13-1-.53a.11.11,0,0,1-.05-.13.09.09,0,0,1,.13,0l1,.53a.09.09,0,0,1,0,.13.1.1,0,0,1-.08,0Zm-2-1.05-1-.51a.09.09,0,0,1-.05-.12.1.1,0,0,1,.13,0l1,.51a.1.1,0,0,1-.05.18Zm-2.07-1-1-.48a.09.09,0,0,1-.05-.12.1.1,0,0,1,.13,0l1,.48a.1.1,0,0,1,0,.13.11.11,0,0,1-.09.05Zm-2.09-.94-1.06-.46a.09.09,0,0,1-.05-.12.1.1,0,0,1,.13-.05l1.05.45a.1.1,0,0,1,.05.13.08.08,0,0,1-.08.06Zm-87.83-.77a.11.11,0,0,1,0-.13l.59-.24a.1.1,0,0,1,.13.05.1.1,0,0,1-.05.13l-.59.24h0A.1.1,0,0,1,344.54,204.68Zm85.71-.13-1.06-.43a.09.09,0,0,1-.06-.12.1.1,0,0,1,.13-.06l1.07.44a.09.09,0,0,1,0,.18ZM346.19,204a.1.1,0,0,1,.06-.13l1.07-.42a.09.09,0,0,1,.12.05.11.11,0,0,1-.05.13l-1.07.42h0A.1.1,0,0,1,346.19,204Zm81.93-.3-1.07-.41a.09.09,0,0,1-.06-.12.1.1,0,0,1,.12-.06l1.08.41a.1.1,0,0,1,.05.13.09.09,0,0,1-.09.06Zm-79.79-.54a.09.09,0,0,1,.06-.12l1.07-.41a.11.11,0,0,1,.13.06.09.09,0,0,1-.06.12l-1.07.41h0A.1.1,0,0,1,348.33,203.16ZM426,202.9l-1.08-.39a.09.09,0,0,1,.06-.18l1.08.39a.09.09,0,0,1,.06.12.09.09,0,0,1-.09.06Zm-75.48-.54a.1.1,0,0,1,.06-.12l1.08-.38a.09.09,0,0,1,.12.06.09.09,0,0,1-.06.12l-1.08.38h0A.1.1,0,0,1,350.49,202.36Zm73.31-.22-1.09-.37a.1.1,0,0,1-.06-.12.09.09,0,0,1,.12-.06l1.09.36a.1.1,0,0,1,.06.13.09.09,0,0,1-.09.06Zm-71.14-.53a.09.09,0,0,1,.06-.12l1.09-.36a.1.1,0,0,1,.12.07.09.09,0,0,1-.06.12l-1.09.35h0A.1.1,0,0,1,352.66,201.61Zm69-.19-1.09-.34a.1.1,0,0,1,.05-.19l1.1.35a.09.09,0,0,1,.06.12.09.09,0,0,1-.09.06Zm-66.78-.51a.1.1,0,0,1,.07-.12l1.1-.34a.1.1,0,0,1,.12.07.09.09,0,0,1-.07.11L355,201h0A.1.1,0,0,1,354.84,200.91Zm64.59-.16-1.11-.33a.08.08,0,0,1-.06-.11.1.1,0,0,1,.12-.07l1.1.32a.1.1,0,0,1,0,.19ZM357,200.24a.09.09,0,0,1,.07-.11l1.11-.32a.1.1,0,0,1,0,.19l-1.1.31h0A.1.1,0,0,1,357,200.24Zm60.18-.12-1.11-.3a.1.1,0,1,1,.05-.19l1.11.3a.11.11,0,0,1,.07.12.1.1,0,0,1-.1.07Zm-58-.49a.09.09,0,0,1,.06-.12l1.12-.29a.1.1,0,0,1,0,.19l-1.11.29h0A.1.1,0,0,1,359.26,199.63Zm55.74-.1-1.11-.28a.09.09,0,0,1-.08-.11.1.1,0,0,1,.12-.07l1.12.27a.09.09,0,0,1,.06.12.1.1,0,0,1-.09.07Zm-53.52-.47a.11.11,0,0,1,.07-.12l1.12-.26a.11.11,0,0,1,.12.07.1.1,0,0,1-.08.11l-1.11.27h0A.1.1,0,0,1,361.48,199.06Zm51.29-.07-1.12-.26a.09.09,0,0,1-.07-.11.09.09,0,0,1,.11-.07l1.12.25a.1.1,0,0,1,.07.12.1.1,0,0,1-.09.07Zm-49-.45a.1.1,0,0,1,.07-.12l1.12-.24a.1.1,0,1,1,0,.19l-1.13.24h0A.1.1,0,0,1,363.72,198.54Zm46.81,0-1.13-.23a.09.09,0,0,1-.07-.11.1.1,0,0,1,.11-.08l1.13.23a.1.1,0,0,1,.07.12.1.1,0,0,1-.09.07ZM366,198.06A.09.09,0,0,1,366,198l1.13-.22a.1.1,0,0,1,0,.19l-1.13.22h0A.09.09,0,0,1,366,198.06Zm42.31,0-1.13-.21a.09.09,0,0,1-.08-.11.1.1,0,0,1,.11-.08l1.13.21a.1.1,0,0,1,.08.11.09.09,0,0,1-.09.08Zm-40.06-.41a.1.1,0,0,1,.08-.11l1.13-.19a.1.1,0,0,1,0,.19l-1.14.19h0A.1.1,0,0,1,368.22,197.63Zm37.8,0-1.13-.18a.09.09,0,0,1-.08-.11.08.08,0,0,1,.1-.08l1.14.18a.1.1,0,0,1,.08.11.1.1,0,0,1-.1.08Zm-35.53-.38a.1.1,0,0,1,.08-.11l1.13-.17a.09.09,0,0,1,.11.08.09.09,0,0,1-.08.11l-1.13.17h0A.09.09,0,0,1,370.49,197.25Zm33.26,0-1.14-.16a.11.11,0,0,1-.08-.11.1.1,0,0,1,.11-.08l1.14.16a.1.1,0,0,1,.08.11.1.1,0,0,1-.1.08Zm-31-.35a.1.1,0,0,1,.08-.11l1.14-.14a.09.09,0,0,1,.11.08.1.1,0,0,1-.08.11l-1.14.14h0A.09.09,0,0,1,372.76,196.92Zm28.72,0-1.14-.14a.08.08,0,0,1-.08-.1.1.1,0,0,1,.1-.09l1.14.14a.1.1,0,0,1,.08.11.09.09,0,0,1-.09.09ZM375,196.64a.1.1,0,0,1,.09-.11l1.14-.12a.09.09,0,0,1,.1.09.09.09,0,0,1-.08.1l-1.14.12h0A.1.1,0,0,1,375,196.64Zm24.16.05c-.38-.05-.76-.08-1.15-.12a.1.1,0,0,1-.08-.11.08.08,0,0,1,.1-.08l1.15.11a.1.1,0,0,1,.08.11.09.09,0,0,1-.09.09Zm-21.87-.29a.08.08,0,0,1,.08-.1l1.15-.1a.1.1,0,0,1,.1.09.09.09,0,0,1-.09.1l-1.14.1h0A.09.09,0,0,1,377.33,196.4Zm19.58.06-1.14-.09a.11.11,0,0,1-.09-.1.09.09,0,0,1,.1-.09l1.15.09a.11.11,0,0,1,.09.11.11.11,0,0,1-.1.08Zm-17.29-.24a.09.09,0,0,1,.08-.11l1.15-.07a.1.1,0,0,1,.1.09.09.09,0,0,1-.09.1l-1.14.08h0A.09.09,0,0,1,379.62,196.22Zm15,.07-1.14-.07a.11.11,0,0,1-.09-.11.1.1,0,0,1,.1-.09l1.15.08a.09.09,0,0,1,.09.1.11.11,0,0,1-.1.09Zm-12.71-.21a.1.1,0,0,1,.09-.1l1.15,0a.09.09,0,0,1,.1.09.1.1,0,0,1-.09.1l-1.15,0h0A.09.09,0,0,1,381.91,196.08Zm10.42.08-1.14,0a.1.1,0,0,1-.1-.1s.05-.1.1-.09l1.15.05a.09.09,0,0,1,.09.1.09.09,0,0,1-.09.09ZM384.2,196a.1.1,0,0,1,.1-.1l1.15,0a.1.1,0,0,1,.09.09.1.1,0,0,1-.09.1l-1.15,0h0A.1.1,0,0,1,384.2,196Zm5.84.09-1.15,0a.09.09,0,0,1-.09-.09c0-.06,0-.1.09-.1l1.15,0a.1.1,0,0,1,0,.2ZM386.5,196a.1.1,0,0,1,.1-.1h1.14a.09.09,0,0,1,.1.1.09.09,0,0,1-.1.09H386.6A.09.09,0,0,1,386.5,196Z" transform="translate(-332.87 -178.23)"/><path class="cls-46" d="M353.9,197.71c-2.26,13.68,14.67,27.87,37.82,31.7s43.74-4.15,46-17.83-14.66-27.88-37.81-31.71S356.17,184,353.9,197.71Z" transform="translate(-332.87 -178.23)"/><path class="cls-44" d="M373.72,191.45c-1.82,9,9,18.75,24.2,21.82s29-1.71,30.79-10.68-9-18.74-24.2-21.82S375.54,182.48,373.72,191.45Z" transform="translate(-332.87 -178.23)"/><path class="cls-47" d="M440.32,210l0-1.35c-.11-.07-10.52-6.46-27.84-10.4a112.81,112.81,0,0,0-30.7-2.72,110.7,110.7,0,0,0-37.34,8.6l.44,1.06a109.47,109.47,0,0,1,37-8.51,111.23,111.23,0,0,1,30.38,2.69C429.34,203.25,440.22,209.91,440.32,210Z" transform="translate(-332.87 -178.23)"/><path class="cls-3" d="M390.65,233.15a.09.09,0,0,1,.09-.09h1.15a.1.1,0,0,1,.1.1.09.09,0,0,1-.1.09h-1.15A.09.09,0,0,1,390.65,233.15Zm-1.06.09-1.15,0a.1.1,0,0,1,0-.19l1.14,0a.09.09,0,0,1,.1.1.09.09,0,0,1-.1.09Zm3.35-.11a.1.1,0,0,1,.1-.1l1.15,0a.09.09,0,0,1,.09.1c0,.05,0,.09-.09.09-.38,0-.76,0-1.15,0h0A.11.11,0,0,1,392.94,233.13Zm-5.64.06-1.15-.05a.1.1,0,0,1,0-.19l1.14.05a.09.09,0,0,1,.09.1.09.09,0,0,1-.09.09Zm7.94-.13a.1.1,0,0,1,.09-.1l1.15-.06a.09.09,0,0,1,.1.09.1.1,0,0,1-.09.1l-1.15.06h0A.09.09,0,0,1,395.24,233.06Zm-10.24,0-1.15-.07a.11.11,0,0,1-.09-.11.08.08,0,0,1,.1-.08l1.15.07a.09.09,0,0,1,.09.1.1.1,0,0,1-.1.09Zm12.53-.16a.1.1,0,0,1,.09-.1l1.15-.08a.09.09,0,0,1,.1.09.11.11,0,0,1-.09.1l-1.14.08h0A.11.11,0,0,1,397.53,232.93Zm-14.83,0-1.14-.09a.1.1,0,0,1-.09-.1.09.09,0,0,1,.11-.09l1.14.09a.11.11,0,0,1,.09.11.1.1,0,0,1-.1.08Zm17.12-.17a.11.11,0,0,1,.09-.11l1.14-.11a.12.12,0,0,1,.11.09.09.09,0,0,1-.09.1l-1.14.11h0A.1.1,0,0,1,399.82,232.76Zm-19.41,0-1.14-.12a.08.08,0,0,1-.08-.1.09.09,0,0,1,.1-.09l1.14.12a.11.11,0,0,1,.09.11.1.1,0,0,1-.1.08Zm21.7-.2a.09.09,0,0,1,.08-.11l1.14-.13a.09.09,0,0,1,.11.08.1.1,0,0,1-.08.11l-1.14.13h0A.09.09,0,0,1,402.11,232.53Zm-24-.05-1.14-.14a.09.09,0,0,1-.08-.11.08.08,0,0,1,.1-.08l1.14.14a.1.1,0,0,1,.08.11.08.08,0,0,1-.09.08Zm26.26-.23a.09.09,0,0,1,.08-.11l1.14-.16a.09.09,0,0,1,.11.08.09.09,0,0,1-.08.1l-1.14.17h0A.1.1,0,0,1,404.39,232.25Zm-28.54-.07-1.14-.16a.1.1,0,0,1-.08-.11.09.09,0,0,1,.11-.08l1.14.16a.1.1,0,0,1,.08.11.1.1,0,0,1-.1.08Zm30.81-.27a.1.1,0,0,1,.08-.11l1.13-.19a.09.09,0,0,1,.11.08.09.09,0,0,1-.07.11l-1.14.19h0A.1.1,0,0,1,406.66,231.91Zm-33.08-.07-1.14-.19a.1.1,0,0,1-.08-.11.09.09,0,0,1,.11-.08l1.14.19a.1.1,0,0,1,0,.19Zm35.35-.32a.09.09,0,0,1,.07-.11l1.13-.21a.09.09,0,0,1,.11.07.09.09,0,0,1-.07.11l-1.13.22h0A.09.09,0,0,1,408.93,231.52Zm-37.62-.08-1.13-.21a.1.1,0,0,1-.08-.11.12.12,0,0,1,.12-.08l1.12.22a.09.09,0,0,1,.08.11.11.11,0,0,1-.09.08Zm39.87-.36a.09.09,0,0,1,.08-.11l1.12-.24a.09.09,0,0,1,0,.18l-1.13.25h0A.09.09,0,0,1,411.18,231.08ZM369.05,231l-1.12-.24a.09.09,0,0,1-.07-.11.1.1,0,0,1,.11-.08l1.12.24a.1.1,0,0,1,.08.11.1.1,0,0,1-.1.08Zm44.37-.42a.1.1,0,0,1,.07-.12c.38-.09.75-.17,1.12-.27a.11.11,0,0,1,.12.07.1.1,0,0,1-.07.12l-1.12.27h0A.1.1,0,0,1,413.42,230.59Zm-46.61-.07-1.13-.25a.12.12,0,0,1-.07-.12.11.11,0,0,1,.12-.07l1.12.26a.09.09,0,0,1,.07.11.09.09,0,0,1-.09.08Zm48.84-.48a.11.11,0,0,1,.07-.12l1.11-.29a.1.1,0,0,1,.12.07.09.09,0,0,1-.07.11l-1.11.3h0A.11.11,0,0,1,415.65,230Zm-51.08,0-1.12-.28a.1.1,0,1,1,.05-.19l1.11.28a.09.09,0,0,1,.07.12.1.1,0,0,1-.09.07Zm53.3-.56a.11.11,0,0,1,.07-.12L419,229a.1.1,0,0,1,.12.06c0,.06,0,.11-.07.12l-1.1.33h0A.11.11,0,0,1,417.87,229.44Zm-55.53,0-1.11-.3a.09.09,0,0,1-.06-.12.09.09,0,0,1,.11-.07l1.11.3a.11.11,0,0,1,.07.12.1.1,0,0,1-.09.07Zm57.74-.64a.09.09,0,0,1,.06-.12l1.09-.35a.09.09,0,0,1,.12.06.09.09,0,0,1-.06.12l-1.09.35h0A.09.09,0,0,1,420.08,228.79Zm-59.95,0-1.11-.33a.08.08,0,0,1-.06-.11.09.09,0,0,1,.12-.07l1.1.32a.09.09,0,0,1,.06.12.1.1,0,0,1-.09.07Zm-2.21-.66-1.1-.34a.09.09,0,0,1-.06-.12.09.09,0,0,1,.12-.06l1.1.34a.09.09,0,0,1,.06.12.1.1,0,0,1-.09.07Zm64.34-.08a.09.09,0,0,1,.06-.12l1.08-.38a.1.1,0,0,1,.13.06.09.09,0,0,1-.06.12l-1.09.38h0A.09.09,0,0,1,422.26,228.08Zm-66.53-.61-1.09-.36a.09.09,0,0,1-.06-.12.09.09,0,0,1,.12-.06l1.09.36a.09.09,0,0,1,.06.12.09.09,0,0,1-.09.06Zm68.7-.16a.09.09,0,0,1,.05-.12l1.08-.4a.09.09,0,0,1,.12.06.09.09,0,0,1-.05.12l-1.08.4h0A.1.1,0,0,1,424.43,227.31Zm-70.88-.57-1.08-.38a.1.1,0,0,1-.06-.13.1.1,0,0,1,.12-.06l1.08.39a.09.09,0,0,1,.06.12.09.09,0,0,1-.09.06Zm73-.24a.1.1,0,0,1,.05-.13c.36-.14.72-.28,1.06-.43a.1.1,0,0,1,.13.06.09.09,0,0,1-.05.12l-1.07.43h0A.09.09,0,0,1,426.58,226.5ZM351.39,226l-1.08-.4a.1.1,0,0,1-.06-.13.09.09,0,0,1,.12-.05l1.08.4a.09.09,0,0,1,.06.12.1.1,0,0,1-.09.06Zm77.31-.34a.1.1,0,0,1,.05-.13l1.05-.46a.1.1,0,1,1,.08.18l-1.05.46h0A.11.11,0,0,1,428.7,225.63Zm-79.47-.47-1.07-.42a.1.1,0,0,1-.05-.13.09.09,0,0,1,.12-.05l1.07.42a.09.09,0,0,1,.06.12.1.1,0,0,1-.09.06Zm81.57-.46a.1.1,0,0,1,.05-.13l1-.49a.1.1,0,0,1,.13,0,.1.1,0,0,1,0,.13l-1,.48h0A.12.12,0,0,1,430.8,224.7Zm-83.7-.39-1.07-.43a.11.11,0,0,1,0-.13.1.1,0,0,1,.13-.05l1.06.43a.1.1,0,0,1,.05.13.1.1,0,0,1-.09.06Zm85.78-.6a.1.1,0,0,1,0-.13c.36-.17.7-.35,1-.52a.11.11,0,0,1,.13.05.1.1,0,0,1,0,.12l-1,.52h0A.11.11,0,0,1,432.88,223.71Zm2.05-1.05a.1.1,0,0,1,0-.13c.36-.19.7-.37,1-.55a.1.1,0,0,1,.13,0,.09.09,0,0,1,0,.13l-1,.55H435A.09.09,0,0,1,434.93,222.66Zm2-1.12a.1.1,0,0,1,0-.13l1-.58a.09.09,0,0,1,.13,0,.1.1,0,0,1,0,.13l-1,.59H437A.09.09,0,0,1,436.94,221.54Zm2-1.19a.1.1,0,0,1,0-.13c.62-.4.95-.64,1-.64a.09.09,0,0,1,.13,0,.09.09,0,0,1,0,.13l-1,.65H439A.09.09,0,0,1,438.9,220.35Z" transform="translate(-332.87 -178.23)"/><path class="cls-48" d="M390.81,233.73A100,100,0,0,0,414.12,231a90.44,90.44,0,0,0,19.28-6.92,33.71,33.71,0,0,0,6.54-4l-.34-.86a51.65,51.65,0,0,1-6.75,3.89,90.33,90.33,0,0,1-19.05,6.83,99.71,99.71,0,0,1-29.5,2.46,118.84,118.84,0,0,1-38.16-9.17l-.44,1.06a120,120,0,0,0,38.57,9.26Q387.55,233.73,390.81,233.73Z" transform="translate(-332.87 -178.23)"/><g class="cls-4"><path class="cls-49" d="M343,212.78c0-3.8-1.19-8.76-3.92-11.49a1.27,1.27,0,0,1,.13-.19c.91.73,6,5.19,6,15.08a22.8,22.8,0,0,1-6.23,15.5,26.73,26.73,0,0,1-3.09-4.36C340.81,225.89,343,218.73,343,212.78Z" transform="translate(-332.87 -178.23)"/></g><path class="cls-50" d="M338.8,201.79c2.21,2.7,2.78,6.51,2.2,10.62-.7,5-3.06,9.08-7.21,10.58a18.15,18.15,0,0,1-.92-5.49C332.87,212.8,334.9,207.23,338.8,201.79Z" transform="translate(-332.87 -178.23)"/><path class="cls-6" d="M338.21,205.34c1,.49.92,1.94.32,3.48s-1.52,2.59-2.49,2.11-.92-1.94-.32-3.48S337.2,204.84,338.21,205.34Z" transform="translate(-332.87 -178.23)"/><path class="cls-6" d="M335.41,211.91c.8.14,1,.82,1,1.6s-.47,1.35-1.24,1.22-1-.82-1-1.6S334.61,211.78,335.41,211.91Z" transform="translate(-332.87 -178.23)"/><path class="cls-51" d="M446,213.73c-4-.23-9.86.1-11.48,1.73s5.26,4.46,11.2,5.33,11.15.51,7.51-2.75S446.86,213.78,446,213.73Z" transform="translate(-332.87 -178.23)"/><path class="cls-52" d="M434.52,215.46a4.05,4.05,0,0,1,1.54-.87c-.48,2.2,6.12,4.34,13.77,4.89,2.55.18,3.75-.13,4.14-.67,2,2.54-2.83,2.76-8.25,2C439.78,219.92,432.89,217.08,434.52,215.46Z" transform="translate(-332.87 -178.23)"/><path class="cls-53" d="M450.52,216.45c-1.85-1.17-3-2.19-4.49-2.44a33.61,33.61,0,0,0-7.69.39c-1.69.36,3.51,2.83,6.44,3.3S453.83,218.53,450.52,216.45Z" transform="translate(-332.87 -178.23)"/><path class="cls-54" d="M427.18,190.08s7.55,6,11.13,12.23c0,0,5.72-3.6,8.74-6.11C450.69,193.18,448.79,187,427.18,190.08Z" transform="translate(-332.87 -178.23)"/><path class="cls-55" d="M431.44,189.57c-1.33,4.68,4.67,8,9.81,7.45,6.18-.66,6.83-3.4,6.46-5.32,1.41,1.45.85,3.25-.66,4.5-3,2.51-8.74,6.11-8.74,6.11-3.58-6.22-11.13-12.23-11.13-12.23C428.7,189.87,430.11,189.7,431.44,189.57Z" transform="translate(-332.87 -178.23)"/><path class="cls-56" d="M433.25,191.66c-.17,2,2.68,3.36,6.34,3.67s6.73-.68,6.9-2.56-2.73-3-6.38-3.26S433.42,189.71,433.25,191.66Z" transform="translate(-332.87 -178.23)"/><path class="cls-6" d="M437.09,190.5c0,.61,1,.86,2.24.89s2.21-.22,2.19-.81-1-.86-2.24-.88S437.07,189.89,437.09,190.5Z" transform="translate(-332.87 -178.23)"/><path class="cls-6" d="M442.15,190.84c-.16.43.22.7.77.83s1.05.05,1.2-.37-.23-.69-.77-.82S442.3,190.41,442.15,190.84Z" transform="translate(-332.87 -178.23)"/><path class="cls-57" d="M424.1,241.47s9-6.34,12.62-12.56c0,0,3.89,2,9.25,5.34C450.5,237.09,443.74,244.91,424.1,241.47Z" transform="translate(-332.87 -178.23)"/><path class="cls-58" d="M436.72,228.91l1.3.69a8,8,0,0,0-4.46,7.15c.1,3.82,6.45,4.44,12.05,2.49-3,2.42-10.08,4.23-21.51,2.23C424.1,241.47,433.14,235.13,436.72,228.91Z" transform="translate(-332.87 -178.23)"/><path class="cls-59" d="M436.89,231.37c-.93,1.58-1.05,4.24,2.27,5.68,2.49,1.45,5.86,1.1,6.76-.43s-1.21-2.83-3.7-4.28S437.83,229.78,436.89,231.37Z" transform="translate(-332.87 -178.23)"/><path class="cls-6" d="M438.89,231.69c-.24.56.56,1.21,1.66,1.75s2.1.73,2.33.19-.57-1.21-1.67-1.75S439.12,231.13,438.89,231.69Z" transform="translate(-332.87 -178.23)"/><path class="cls-6" d="M443.23,234.06c-.26.37,0,.73.54,1s1,.31,1.25-.05,0-.73-.53-1S443.49,233.68,443.23,234.06Z" transform="translate(-332.87 -178.23)"/><path class="cls-60" d="M432.56,233.28a81.28,81.28,0,0,1-11,6.07,85.65,85.65,0,0,1-35.16,7.79c-15,0-25.84-3.18-32.34-5.85-7.07-2.91-10.21-5.51-10.36-5.64.25-.3,0-.71.34-1.16a43.42,43.42,0,0,0,10.47,5.75c6.41,2.63,17.14,5.76,31.89,5.76a84.28,84.28,0,0,0,34.72-7.71A76.88,76.88,0,0,0,433,231.63C432.89,232.05,432.71,232.81,432.56,233.28Z" transform="translate(-332.87 -178.23)"/><path class="cls-12" d="M386.09,246.65a.09.09,0,0,1-.09-.09.09.09,0,0,1,.09-.1h1.08a.1.1,0,0,1,0,.2h-1.08Zm2.07-.1a.09.09,0,0,1,.09-.09l1.09,0a.1.1,0,0,1,.09.1.09.09,0,0,1-.09.09l-1.08,0h0A.11.11,0,0,1,388.16,246.55Zm-3.16.09-1.08,0a.09.09,0,0,1-.09-.1.09.09,0,0,1,.09-.09h0l1.09,0a.09.09,0,0,1,.09.09.11.11,0,0,1-.1.1Zm5.33-.14a.09.09,0,0,1,.09-.1l1.08-.05c.05,0,.09,0,.09.09a.08.08,0,0,1-.08.1l-1.08.05h0A.09.09,0,0,1,390.33,246.5Zm-7.5.08-1.08-.05a.1.1,0,0,1-.09-.1c0-.05,0-.1.1-.09l1.08,0a.09.09,0,0,1,.09.1.09.09,0,0,1-.09.09Zm9.67-.2a.09.09,0,0,1,.08-.1l1.08-.07a.09.09,0,0,1,.1.08.1.1,0,0,1-.09.11l-1.08.07h0A.08.08,0,0,1,392.5,246.38Zm-11.83.09-1.08-.07c-.06,0-.09,0-.09-.1a.1.1,0,0,1,.1-.09l1.08.07a.08.08,0,0,1,.08.1.09.09,0,0,1-.09.09Zm-2.17-.15q-.54,0-1.08-.09a.09.09,0,0,1-.08-.1.1.1,0,0,1,.1-.09c.35,0,.71.07,1.08.09a.1.1,0,0,1,.08.11.08.08,0,0,1-.09.08Zm16.16-.1a.09.09,0,0,1,.08-.11l1.08-.1a.09.09,0,0,1,.1.08.11.11,0,0,1-.08.11l-1.08.1h0A.08.08,0,0,1,394.66,246.22Zm-18.32-.09-1.08-.11a.11.11,0,0,1-.08-.11.11.11,0,0,1,.1-.09l1.08.12a.09.09,0,0,1,.08.1.09.09,0,0,1-.09.09Zm20.48-.14a.08.08,0,0,1,.07-.1l1.08-.14a.09.09,0,0,1,.1.08.09.09,0,0,1-.08.11l-1.08.14h0A.09.09,0,0,1,396.82,246Zm-22.64-.1-1.07-.14a.09.09,0,0,1-.08-.11.08.08,0,0,1,.1-.08l1.07.14a.08.08,0,0,1,.08.1.09.09,0,0,1-.09.09Zm24.79-.18a.09.09,0,0,1,.08-.11l1.07-.16a.1.1,0,0,1,.1.08.11.11,0,0,1-.08.11l-1.07.16h0A.08.08,0,0,1,399,245.71ZM372,245.6l-1.07-.16a.1.1,0,0,1-.08-.11.1.1,0,0,1,.1-.08l1.07.16a.09.09,0,0,1,.08.11.08.08,0,0,1-.09.08Zm29.08-.23a.1.1,0,0,1,.08-.11l1.06-.19a.09.09,0,0,1,.11.07.09.09,0,0,1-.08.11l-1.07.2h0A.09.09,0,0,1,401.11,245.37Zm-31.23-.11-1.07-.18a.1.1,0,0,1-.07-.11.09.09,0,0,1,.1-.08l1.07.18a.1.1,0,0,1,.08.11.09.09,0,0,1-.09.08Zm33.37-.29a.09.09,0,0,1,.07-.11l1.06-.22a.09.09,0,0,1,.11.07.1.1,0,0,1-.07.11l-1.07.23h0A.08.08,0,0,1,403.25,245Zm-35.5-.09-1.07-.22a.09.09,0,0,1-.07-.11.09.09,0,0,1,.1-.07l1.07.21a.09.09,0,0,1,.07.11.09.09,0,0,1-.09.08Zm37.62-.37a.09.09,0,0,1,.07-.11l1.05-.25a.09.09,0,1,1,0,.18l-1,.26h0A.09.09,0,0,1,405.37,244.51Zm-39.75-.07-1.06-.24a.1.1,0,0,1-.08-.11c0-.05.06-.09.11-.08l1.06.24a.09.09,0,0,1,.07.11s0,.08-.08.08Zm41.86-.44a.1.1,0,0,1,.07-.12l1.05-.28a.1.1,0,0,1,.11.07.11.11,0,0,1-.07.12l-1.05.28h0A.1.1,0,0,1,407.48,244Zm-44-.05-1.06-.26a.11.11,0,0,1-.07-.12.1.1,0,0,1,.11-.07l1.06.26a.1.1,0,0,1,.06.12.08.08,0,0,1-.08.07Zm46.08-.53a.1.1,0,0,1,.06-.12l1.05-.31a.1.1,0,0,1,.11.07.11.11,0,0,1-.07.12l-1,.31h0A.1.1,0,0,1,409.58,243.42Zm-48.19,0-1.05-.29a.11.11,0,0,1-.07-.12.1.1,0,0,1,.11-.07l1.05.29a.11.11,0,0,1,.07.12.1.1,0,0,1-.09.07Zm50.27-.62a.11.11,0,0,1,.06-.12l1-.34a.08.08,0,0,1,.11.06.1.1,0,0,1-.06.12l-1,.34h0A.1.1,0,0,1,411.66,242.79Zm-52.37,0-1-.32a.09.09,0,0,1-.06-.12.08.08,0,0,1,.11-.06l1,.32a.08.08,0,0,1,.06.11.08.08,0,0,1-.08.07Zm-2.08-.65-1-.35a.09.09,0,0,1-.06-.12.08.08,0,0,1,.11-.06l1,.34a.09.09,0,0,1,.06.12.08.08,0,0,1-.08.07Zm56.52-.07a.09.09,0,0,1,.06-.12l1-.37a.09.09,0,0,1,.12.06.1.1,0,0,1-.06.12l-1,.37h0A.09.09,0,0,1,413.73,242.09Zm-58.58-.65-1-.37a.11.11,0,0,1-.05-.13.08.08,0,0,1,.11-.05l1,.37a.1.1,0,0,1,.05.12.09.09,0,0,1-.08.07Zm60.63-.11a.09.09,0,0,1,.05-.12l1-.4a.09.09,0,0,1,.12.05.1.1,0,0,1,0,.13l-1,.4h0A.09.09,0,0,1,415.78,241.33Zm-62.68-.66-1-.41a.09.09,0,0,1,0-.12.08.08,0,0,1,.11,0l1,.4a.11.11,0,0,1,.05.13.11.11,0,0,1-.09.06Zm64.7-.15a.12.12,0,0,1,.05-.13l1-.43a.09.09,0,0,1,.12,0,.12.12,0,0,1-.05.13l-1,.43h0A.11.11,0,0,1,417.8,240.52Zm-66.72-.68-1-.45a.09.09,0,1,1,.07-.17l1,.44a.1.1,0,0,1,.05.12.1.1,0,0,1-.09.06Zm68.73-.2a.11.11,0,0,1,0-.13l1-.46a.09.09,0,0,1,.12,0,.1.1,0,0,1,0,.12l-1,.47h0A.09.09,0,0,1,419.81,239.64Zm-70.73-.71-1-.47a.11.11,0,0,1,0-.13.09.09,0,0,1,.12-.05l1,.48a.11.11,0,0,1,0,.13.09.09,0,0,1-.08.05Zm72.7-.23a.1.1,0,0,1,.05-.13c.33-.17.66-.33,1-.5a.09.09,0,0,1,.12.05.09.09,0,0,1,0,.13l-1,.49h0A.11.11,0,0,1,421.78,238.7ZM347.12,238l-1-.52a.09.09,0,0,1,0-.13.09.09,0,0,1,.12,0l1,.52a.1.1,0,0,1,0,.12.09.09,0,0,1-.08.06Zm76.61-.27a.11.11,0,0,1,0-.13l1-.52s.09,0,.12,0a.1.1,0,0,1,0,.12c-.31.18-.63.36-1,.53h-.05A.08.08,0,0,1,423.73,237.69Zm-78.54-.79-.95-.57a.1.1,0,0,1,0-.13.08.08,0,0,1,.12,0l.94.56a.1.1,0,0,1,0,.13.1.1,0,0,1-.08,0Zm80.46-.28a.1.1,0,0,1,0-.13l.94-.56a.1.1,0,0,1,.13,0,.11.11,0,0,1,0,.14l-.94.56h0A.1.1,0,0,1,425.65,236.62Zm-82.34-.89-.25-.17a.11.11,0,0,1,0-.14.09.09,0,0,1,.13,0l.24.17a.09.09,0,0,1,0,.13.07.07,0,0,1-.07,0Zm84.23-.25a.09.09,0,0,1,0-.13c.32-.21.63-.4.92-.6a.1.1,0,0,1,.13,0,.12.12,0,0,1,0,.14l-.93.59,0,0A.08.08,0,0,1,427.54,235.48Zm1.84-1.21a.09.09,0,0,1,0-.13l.9-.64a.08.08,0,0,1,.12,0,.09.09,0,0,1,0,.13l-.91.65h0A.09.09,0,0,1,429.38,234.27Zm1.79-1.3a.11.11,0,0,1,0-.14c.56-.43.86-.69.86-.69a.09.09,0,0,1,.13,0,.09.09,0,0,1,0,.13s-.3.27-.87.71l-.05,0A.12.12,0,0,1,431.17,233Z" transform="translate(-332.87 -178.23)"/></g></g></svg>