<svg xmlns="http://www.w3.org/2000/svg" xmlns:xlink="http://www.w3.org/1999/xlink" viewBox="0 0 121.66 87.02"><defs><style>.cls-1{isolation:isolate;}.cls-2{fill:url(#radial-gradient);}.cls-3{fill:#00255b;}.cls-19,.cls-4,.cls-5,.cls-56,.cls-59,.cls-60,.cls-62,.cls-63,.cls-65,.cls-66{opacity:0.5;}.cls-14,.cls-4,.cls-46,.cls-47,.cls-53,.cls-54,.cls-57,.cls-59,.cls-62,.cls-65{mix-blend-mode:multiply;}.cls-19,.cls-5,.cls-50,.cls-56,.cls-6,.cls-60,.cls-63,.cls-66,.cls-9{mix-blend-mode:screen;}.cls-5{fill:url(#radial-gradient-3);}.cls-6{fill:#e9fbff;}.cls-6,.cls-9{opacity:0.7;}.cls-7{fill:url(#radial-gradient-4);}.cls-8{fill:url(#radial-gradient-5);}.cls-10{fill:url(#radial-gradient-6);}.cls-11{fill:url(#radial-gradient-7);}.cls-12{fill:url(#radial-gradient-8);}.cls-13{fill:#bc6600;}.cls-15{fill:url(#radial-gradient-9);}.cls-16{fill:url(#radial-gradient-10);}.cls-17{fill:url(#radial-gradient-11);}.cls-18{fill:url(#radial-gradient-12);}.cls-20{fill:url(#radial-gradient-13);}.cls-21{fill:url(#radial-gradient-14);}.cls-22{fill:url(#radial-gradient-15);}.cls-23{fill:url(#radial-gradient-16);}.cls-24{fill:url(#radial-gradient-17);}.cls-25{fill:url(#radial-gradient-18);}.cls-26{fill:url(#radial-gradient-19);}.cls-27{fill:url(#radial-gradient-20);}.cls-28{fill:url(#radial-gradient-21);}.cls-29{fill:url(#radial-gradient-22);}.cls-30{fill:url(#radial-gradient-23);}.cls-31{fill:url(#radial-gradient-24);}.cls-32{fill:url(#radial-gradient-25);}.cls-33{fill:url(#radial-gradient-26);}.cls-34{fill:url(#radial-gradient-27);}.cls-35{fill:url(#radial-gradient-28);}.cls-36{fill:url(#radial-gradient-29);}.cls-37{fill:url(#radial-gradient-30);}.cls-38{fill:url(#radial-gradient-31);}.cls-39{fill:url(#radial-gradient-32);}.cls-40{fill:url(#radial-gradient-33);}.cls-41{fill:url(#radial-gradient-34);}.cls-42{fill:url(#radial-gradient-35);}.cls-43{fill:url(#radial-gradient-36);}.cls-44{fill:url(#radial-gradient-37);}.cls-45{fill:url(#radial-gradient-39);}.cls-46,.cls-53,.cls-54{opacity:0.4;}.cls-46{fill:url(#radial-gradient-40);}.cls-47{fill:url(#radial-gradient-41);}.cls-48,.cls-49{fill:#fff;mix-blend-mode:overlay;}.cls-48{opacity:0.3;}.cls-49{opacity:0.1;}.cls-50{fill:#f9ffae;}.cls-51{fill:url(#radial-gradient-42);}.cls-52{fill:url(#radial-gradient-43);}.cls-53{fill:url(#radial-gradient-44);}.cls-54{fill:url(#radial-gradient-45);}.cls-55{fill:url(#radial-gradient-46);}.cls-56{fill:url(#radial-gradient-47);}.cls-57{fill:url(#radial-gradient-48);}.cls-58,.cls-61,.cls-64{stroke:#00255b;stroke-miterlimit:10;stroke-width:0.19px;}.cls-58{fill:url(#radial-gradient-49);}.cls-59{fill:url(#radial-gradient-50);}.cls-60{fill:url(#radial-gradient-51);}.cls-61{fill:url(#radial-gradient-52);}.cls-62{fill:url(#radial-gradient-53);}.cls-63{fill:url(#radial-gradient-54);}.cls-64{fill:url(#radial-gradient-55);}.cls-65{fill:url(#radial-gradient-56);}.cls-66{fill:url(#radial-gradient-57);}</style><radialGradient id="radial-gradient" cx="1465.91" cy="197.1" r="29.71" gradientTransform="matrix(-1, 0, 0, 1, 1912.42, 0)" gradientUnits="userSpaceOnUse"><stop offset="0" stop-color="#00cbff"/><stop offset="0.09" stop-color="#00c3fa"/><stop offset="0.23" stop-color="#00aced"/><stop offset="0.4" stop-color="#0086d7"/><stop offset="0.57" stop-color="#005cbf"/><stop offset="1" stop-color="#002479"/></radialGradient><radialGradient id="radial-gradient-3" cx="1464.17" cy="154.08" r="24.76" gradientTransform="matrix(-1, 0.03, 0.03, 0.92, 1905.17, 12.16)" xlink:href="#radial-gradient"/><radialGradient id="radial-gradient-4" cx="1523.56" cy="232.86" r="51.11" gradientTransform="matrix(-1, 0, 0, 1, 1912.42, 0)" gradientUnits="userSpaceOnUse"><stop offset="0" stop-color="#00cbff"/><stop offset="0.11" stop-color="#00c3fa"/><stop offset="0.27" stop-color="#00aced"/><stop offset="0.48" stop-color="#0086d7"/><stop offset="0.68" stop-color="#005cbf"/><stop offset="1" stop-color="#002479"/></radialGradient><radialGradient id="radial-gradient-5" cx="1520.67" cy="235.04" r="46.76" xlink:href="#radial-gradient"/><radialGradient id="radial-gradient-6" cx="1530.26" cy="235.24" r="37.72" xlink:href="#radial-gradient"/><radialGradient id="radial-gradient-7" cx="1509.02" cy="246.68" r="19.42" xlink:href="#radial-gradient"/><radialGradient id="radial-gradient-8" cx="1508.64" cy="246.78" r="18.83" gradientTransform="matrix(-1, 0, 0, 1, 1912.42, 0)" gradientUnits="userSpaceOnUse"><stop offset="0" stop-color="#edff6a"/><stop offset="0.11" stop-color="#effc62"/><stop offset="0.28" stop-color="#f4f54b"/><stop offset="0.49" stop-color="#fcea25"/><stop offset="0.57" stop-color="#ffe515"/><stop offset="1" stop-color="#ff9415"/></radialGradient><radialGradient id="radial-gradient-9" cx="1508.67" cy="248.07" r="16.23" gradientTransform="matrix(-1, 0, 0, 1, 1912.42, 0)" gradientUnits="userSpaceOnUse"><stop offset="0" stop-color="#edff6a"/><stop offset="0.11" stop-color="#effc62"/><stop offset="0.28" stop-color="#f4f54b"/><stop offset="0.49" stop-color="#fcea25"/><stop offset="0.57" stop-color="#ffe515"/><stop offset="1" stop-color="#ffa415"/></radialGradient><radialGradient id="radial-gradient-10" cx="1508.71" cy="256.03" r="6.54" xlink:href="#radial-gradient-9"/><radialGradient id="radial-gradient-11" cx="1510.19" cy="254.45" r="8.06" gradientTransform="matrix(-1, 0, 0, 1, 1912.42, 0)" gradientUnits="userSpaceOnUse"><stop offset="0" stop-color="#d5ffff"/><stop offset="0.17" stop-color="#cafaff"/><stop offset="0.46" stop-color="#acebff"/><stop offset="0.85" stop-color="#7dd3ff"/><stop offset="1" stop-color="#68c9ff"/></radialGradient><radialGradient id="radial-gradient-12" cx="1510.2" cy="254.86" r="7.64" xlink:href="#radial-gradient-11"/><radialGradient id="radial-gradient-13" cx="1508.11" cy="256.65" r="4.96" xlink:href="#radial-gradient-11"/><radialGradient id="radial-gradient-14" cx="1510.37" cy="254.33" r="6.57" xlink:href="#radial-gradient-11"/><radialGradient id="radial-gradient-15" cx="1511.63" cy="253.17" r="3.88" xlink:href="#radial-gradient-11"/><radialGradient id="radial-gradient-16" cx="1525.55" cy="248.73" r="19.43" xlink:href="#radial-gradient"/><radialGradient id="radial-gradient-17" cx="1525.17" cy="248.83" r="18.82" xlink:href="#radial-gradient-8"/><radialGradient id="radial-gradient-18" cx="1525.19" cy="250.11" r="16.23" xlink:href="#radial-gradient-9"/><radialGradient id="radial-gradient-19" cx="1525.23" cy="258.08" r="6.54" xlink:href="#radial-gradient-9"/><radialGradient id="radial-gradient-20" cx="1526.72" cy="256.5" r="8.06" xlink:href="#radial-gradient-11"/><radialGradient id="radial-gradient-21" cx="1526.72" cy="256.9" r="7.64" xlink:href="#radial-gradient-11"/><radialGradient id="radial-gradient-22" cx="1524.63" cy="258.7" r="4.96" xlink:href="#radial-gradient-11"/><radialGradient id="radial-gradient-23" cx="1526.89" cy="256.38" r="6.57" xlink:href="#radial-gradient-11"/><radialGradient id="radial-gradient-24" cx="1528.15" cy="255.22" r="3.88" xlink:href="#radial-gradient-11"/><radialGradient id="radial-gradient-25" cx="1541.39" cy="246.06" r="19.43" xlink:href="#radial-gradient"/><radialGradient id="radial-gradient-26" cx="1541.01" cy="246.16" r="18.82" xlink:href="#radial-gradient-8"/><radialGradient id="radial-gradient-27" cx="1541.03" cy="247.45" r="16.23" xlink:href="#radial-gradient-9"/><radialGradient id="radial-gradient-28" cx="1541.07" cy="255.41" r="6.54" xlink:href="#radial-gradient-9"/><radialGradient id="radial-gradient-29" cx="1542.56" cy="253.83" r="8.06" xlink:href="#radial-gradient-11"/><radialGradient id="radial-gradient-30" cx="1542.56" cy="254.23" r="7.64" xlink:href="#radial-gradient-11"/><radialGradient id="radial-gradient-31" cx="1540.47" cy="256.03" r="4.96" xlink:href="#radial-gradient-11"/><radialGradient id="radial-gradient-32" cx="1542.73" cy="253.71" r="6.57" xlink:href="#radial-gradient-11"/><radialGradient id="radial-gradient-33" cx="1543.99" cy="252.55" r="3.88" xlink:href="#radial-gradient-11"/><radialGradient id="radial-gradient-34" cx="1517.44" cy="174.36" r="90.26" gradientTransform="matrix(-1, 0, 0, 1, 1912.42, 0)" gradientUnits="userSpaceOnUse"><stop offset="0" stop-color="#00cbff"/><stop offset="0.13" stop-color="#00b7f3"/><stop offset="0.41" stop-color="#0083d5"/><stop offset="0.59" stop-color="#005cbf"/><stop offset="1" stop-color="#002479"/></radialGradient><radialGradient id="radial-gradient-35" cx="1523.71" cy="192.24" r="66.57" xlink:href="#radial-gradient-34"/><radialGradient id="radial-gradient-36" cx="1520.37" cy="162.54" r="62.71" xlink:href="#radial-gradient-34"/><radialGradient id="radial-gradient-37" cx="1583.58" cy="207.26" r="30.51" xlink:href="#radial-gradient"/><radialGradient id="radial-gradient-39" cx="1580.35" cy="215.53" r="20.29" xlink:href="#radial-gradient-34"/><radialGradient id="radial-gradient-40" cx="1571.44" cy="215.72" r="10.31" xlink:href="#radial-gradient"/><radialGradient id="radial-gradient-41" cx="1520.83" cy="198.31" r="34.73" xlink:href="#radial-gradient-9"/><radialGradient id="radial-gradient-42" cx="1558.08" cy="217.21" r="15.05" xlink:href="#radial-gradient"/><radialGradient id="radial-gradient-43" cx="1521.7" cy="197.55" r="70.78" xlink:href="#radial-gradient-34"/><radialGradient id="radial-gradient-44" cx="1520.04" cy="202.09" r="34.3" xlink:href="#radial-gradient"/><radialGradient id="radial-gradient-45" cx="1519.58" cy="225.88" r="33.71" xlink:href="#radial-gradient"/><radialGradient id="radial-gradient-46" cx="1579.67" cy="207.26" r="30.32" xlink:href="#radial-gradient"/><radialGradient id="radial-gradient-47" cx="750.05" cy="731.97" r="9.99" gradientTransform="matrix(-0.39, -1.03, -2.03, -0.04, 2112.05, 1012.37)" xlink:href="#radial-gradient"/><radialGradient id="radial-gradient-48" cx="1520.08" cy="124.45" r="33.9" gradientTransform="translate(1912.42 353.94) rotate(180)" xlink:href="#radial-gradient-9"/><radialGradient id="radial-gradient-49" cx="1463.69" cy="210.8" r="16.68" xlink:href="#radial-gradient"/><radialGradient id="radial-gradient-50" cx="1463.69" cy="212" r="16.06" xlink:href="#radial-gradient"/><radialGradient id="radial-gradient-51" cx="1468.28" cy="212.19" r="10.42" xlink:href="#radial-gradient"/><radialGradient id="radial-gradient-52" cx="1469.94" cy="184.69" r="21.87" xlink:href="#radial-gradient"/><radialGradient id="radial-gradient-53" cx="1469.94" cy="185.11" r="21.57" xlink:href="#radial-gradient"/><radialGradient id="radial-gradient-54" cx="1537.72" cy="181.87" r="12.77" gradientTransform="matrix(-0.95, 0, 0, 1, 1902.58, -1.07)" xlink:href="#radial-gradient"/><radialGradient id="radial-gradient-55" cx="1471.68" cy="467.58" r="23.07" gradientTransform="translate(1912.42 713.42) rotate(180)" xlink:href="#radial-gradient"/><radialGradient id="radial-gradient-56" cx="1472.9" cy="224.24" r="22.28" xlink:href="#radial-gradient"/><radialGradient id="radial-gradient-57" cx="1446.83" cy="709.49" r="10.24" gradientTransform="matrix(-0.87, -0.39, -0.53, 1.07, 2077.13, 36.35)" xlink:href="#radial-gradient"/></defs><title>dirijabl sini</title><g class="cls-1"><g id="Слой_1" data-name="Слой 1"><path class="cls-2" d="M437.62,226.9h9.7s2.71-2.39,2.71-11.42-2.71-11.42-2.71-11.42h-9.7Z" transform="translate(-332.88 -177.49)"/><path class="cls-3" d="M437.6,226.94c2.94,0,6.21.44,9.11,0,1.27-.19,1.54-1.06,2.06-2.36,1.94-4.89,1.87-11.22.61-16.25-.27-1.11-.86-3.75-2.07-4.31s-3.79,0-5.06,0h-4.61s-.11,0-.11,0v22.84c0,.05.19,0,.19,0V207.17c0-.7-.17-2.9.08-3.07.42-.3,2.27,0,2.76,0h4.23c1.45,0,2.29-.41,3.06.8,1.68,2.63,2,6.23,2.06,9.25.12,3.67,0,7.85-1.67,11.22-.92,1.86-1.36,1.5-3.41,1.5h-7.19C437.56,226.87,437.47,226.94,437.6,226.94Z" transform="translate(-332.88 -177.49)"/><g class="cls-4"><path class="cls-2" d="M440,204.06c2.61,6.75.6,15.81.23,18.44-.4,2.87,6.56,3.63,7.79-.34,2.88-9.3.25-16.06-.74-18.1h.05s2.71,2.39,2.71,11.42-2.71,11.42-2.71,11.42h-9.7V204.06Z" transform="translate(-332.88 -177.49)"/></g><path class="cls-5" d="M448.06,208.2c-.86-3.51-2.21-4-4.38-3.77s-2.49.95-1.63,4.18,0,9.78-.38,12,5.42,2.8,6.25-1.55A25.9,25.9,0,0,0,448.06,208.2Z" transform="translate(-332.88 -177.49)"/><path class="cls-6" d="M445.62,205.12c-.69.28-.62,1.22-.21,2.25s1,1.75,1.71,1.48.62-1.22.21-2.25S446.31,204.85,445.62,205.12Z" transform="translate(-332.88 -177.49)"/><path class="cls-6" d="M447,209.48c-.54.06-.71.49-.67,1s.33.89.85.84.72-.49.67-1S447.59,209.43,447,209.48Z" transform="translate(-332.88 -177.49)"/><path class="cls-7" d="M364.77,259.57s3.93,4.79,23.25,4.79,23.25-4.79,23.25-4.79a29.32,29.32,0,0,0,5.67-14.44c.59-5.5-58.27-5.81-57.83,0A28.85,28.85,0,0,0,364.77,259.57Z" transform="translate(-332.88 -177.49)"/><path class="cls-3" d="M364.68,259.58c1.39,1.65,4.16,2.4,6.12,2.95,7.83,2.21,16.51,2.22,24.56,1.61,4.84-.37,10.55-.94,14.78-3.61,2.42-1.51,3.7-4.62,4.74-7.11a29.62,29.62,0,0,0,1.76-5.75c.18-.87.71-2.14.3-3s-1.36-1.05-2-1.3c-3.56-1.33-7.62-1.58-11.36-1.91a176.92,176.92,0,0,0-33.82.2,49.81,49.81,0,0,0-6.67,1.07c-1.08.27-2.76.58-3.57,1.45a1.62,1.62,0,0,0-.47.74c-.48,1.76.73,4.75,1.31,6.45a27.75,27.75,0,0,0,4.35,8.2s.22,0,.19,0a26.7,26.7,0,0,1-3.17-5.28,27.8,27.8,0,0,1-2-5.88c-.22-1-.88-2.78-.36-3.78,1-2,5.67-2.24,7.52-2.51,10-1.48,20.36-1.43,30.43-1a104,104,0,0,1,13.53,1.3c2.13.38,6.3.67,5.93,3.54-.56,4.44-2.35,10.34-5.62,13.65-2.09,2.1-5.77,2.88-8.52,3.44a74.94,74.94,0,0,1-28.63.11c-2.74-.53-7.13-1.29-9.09-3.62C364.83,259.53,364.65,259.55,364.68,259.58Z" transform="translate(-332.88 -177.49)"/><g class="cls-4"><path class="cls-8" d="M411.4,242.52c3.51.67,5.65,1.54,5.54,2.61a29.32,29.32,0,0,1-5.67,14.44s-3.92,4.79-23.25,4.79c-16.5,0-21.77-3.49-23-4.51,18.71,5.28,34.32.5,40.47-7.22C407.94,249.59,413.69,244.32,411.4,242.52Z" transform="translate(-332.88 -177.49)"/></g><g class="cls-9"><path class="cls-10" d="M363.17,257.21a27.93,27.93,0,0,1-4.06-12.08c-.3-4,27.67-5.1,44.81-3.58C397.55,249.25,385.09,258.86,363.17,257.21Z" transform="translate(-332.88 -177.49)"/></g><g class="cls-4"><path class="cls-11" d="M397.5,256.33a5.73,5.73,0,1,0,5.73-5.72A5.73,5.73,0,0,0,397.5,256.33Z" transform="translate(-332.88 -177.49)"/></g><path class="cls-12" d="M398.06,256.13a5.55,5.55,0,1,0,5.55-5.55A5.56,5.56,0,0,0,398.06,256.13Z" transform="translate(-332.88 -177.49)"/><path class="cls-13" d="M398,256.11c.38,7.18,11.26,7.36,11.29,0s-10.91-7.23-11.29,0c0,.06.18.08.19,0a5.65,5.65,0,0,1,3.24-5l1.08-.36,3.86.61a4.78,4.78,0,0,1,1.64,1.52,5.47,5.47,0,0,1,1.09,3.24,5.59,5.59,0,0,1-3,4.91,6.89,6.89,0,0,1-5.2-.11,4.92,4.92,0,0,1-1.3-1.07,5.71,5.71,0,0,1-1.42-3.7C398.15,256.08,398,256.07,398,256.11Z" transform="translate(-332.88 -177.49)"/><g class="cls-14"><path class="cls-15" d="M398.83,256.13a4.79,4.79,0,1,0,4.78-4.79A4.78,4.78,0,0,0,398.83,256.13Z" transform="translate(-332.88 -177.49)"/></g><g class="cls-14"><path class="cls-16" d="M398.06,256.13a5.55,5.55,0,1,0,5.55-5.55A5.56,5.56,0,0,0,398.06,256.13Zm.36,0a5.2,5.2,0,1,1,5.19,5.19A5.19,5.19,0,0,1,398.42,256.13Z" transform="translate(-332.88 -177.49)"/></g><path class="cls-17" d="M399.11,256.13a4.51,4.51,0,1,0,4.5-4.5A4.5,4.5,0,0,0,399.11,256.13Z" transform="translate(-332.88 -177.49)"/><path class="cls-13" d="M399,256.11c.32,5.79,9.16,6,9.18,0s-8.86-5.93-9.18,0c0,.06.17.1.18.06a4.6,4.6,0,0,1,2.22-3.88,4.42,4.42,0,1,1-2.23,3.87S399,256.05,399,256.11Z" transform="translate(-332.88 -177.49)"/><g class="cls-14"><path class="cls-18" d="M401.4,252.21a3.89,3.89,0,0,0-.6,2.08,3.93,3.93,0,0,0,7.31,2,4.5,4.5,0,1,1-6.71-4.09Z" transform="translate(-332.88 -177.49)"/></g><g class="cls-19"><path class="cls-20" d="M407.94,256.13c0,.09,0,.17,0,.26l-4.06,4.05h-.26a4.49,4.49,0,0,1-1.22-.17l5.37-5.37A4.5,4.5,0,0,1,407.94,256.13Z" transform="translate(-332.88 -177.49)"/></g><g class="cls-19"><path class="cls-21" d="M406.86,253.27l-6.1,6.1a4.24,4.24,0,0,1-1.25-1.88L405,252A4.37,4.37,0,0,1,406.86,253.27Z" transform="translate(-332.88 -177.49)"/></g><g class="cls-19"><path class="cls-22" d="M399.29,256.13a4.34,4.34,0,0,1,.14-1.09l3.1-3.1a4.26,4.26,0,0,1,1.08-.13h0l-4.34,4.33Z" transform="translate(-332.88 -177.49)"/></g><g class="cls-4"><path class="cls-23" d="M381,258.38a5.73,5.73,0,1,0,5.73-5.73A5.73,5.73,0,0,0,381,258.38Z" transform="translate(-332.88 -177.49)"/></g><path class="cls-24" d="M381.53,258.18a5.56,5.56,0,1,0,5.55-5.55A5.56,5.56,0,0,0,381.53,258.18Z" transform="translate(-332.88 -177.49)"/><path class="cls-13" d="M381.44,258.17c.39,7.19,11.26,7.32,11.29,0s-10.9-7.2-11.29,0c0,.05.19.07.19,0,.12-2.2,1.43-4.66,3.77-5.24l3.91.2,1,.57a5.57,5.57,0,0,1,1.35,1.43,5.72,5.72,0,0,1,.91,3,5.52,5.52,0,0,1-3.25,5c-4,1.78-7.46-1.28-7.66-5C381.63,258.13,381.44,258.12,381.44,258.17Z" transform="translate(-332.88 -177.49)"/><g class="cls-14"><path class="cls-25" d="M382.3,258.18a4.79,4.79,0,1,0,4.78-4.79A4.78,4.78,0,0,0,382.3,258.18Z" transform="translate(-332.88 -177.49)"/></g><g class="cls-14"><path class="cls-26" d="M381.53,258.18a5.56,5.56,0,1,0,5.55-5.55A5.56,5.56,0,0,0,381.53,258.18Zm.36,0a5.2,5.2,0,1,1,5.19,5.19A5.19,5.19,0,0,1,381.89,258.18Z" transform="translate(-332.88 -177.49)"/></g><path class="cls-27" d="M382.58,258.18a4.51,4.51,0,1,0,4.5-4.51A4.51,4.51,0,0,0,382.58,258.18Z" transform="translate(-332.88 -177.49)"/><path class="cls-13" d="M382.5,258.16c.31,5.81,9.17,6,9.18,0s-8.87-5.9-9.18,0c0,0,.17.08.17,0a4.59,4.59,0,0,1,2.63-4.09,4.43,4.43,0,0,1,4,7.9c-3,1.76-6.43-.61-6.6-3.81C382.67,258.14,382.49,258.12,382.5,258.16Z" transform="translate(-332.88 -177.49)"/><g class="cls-14"><path class="cls-28" d="M384.87,254.26a3.89,3.89,0,0,0-.6,2.08,3.93,3.93,0,0,0,7.31,2,4.5,4.5,0,1,1-6.71-4.09Z" transform="translate(-332.88 -177.49)"/></g><g class="cls-19"><path class="cls-29" d="M391.41,258.18a2.35,2.35,0,0,1,0,.26l-4.06,4.05h-.26a4.37,4.37,0,0,1-1.21-.17l5.36-5.37A4.09,4.09,0,0,1,391.41,258.18Z" transform="translate(-332.88 -177.49)"/></g><g class="cls-19"><path class="cls-30" d="M390.33,255.32l-6.1,6.1a4.39,4.39,0,0,1-1.25-1.88l5.47-5.46A4.28,4.28,0,0,1,390.33,255.32Z" transform="translate(-332.88 -177.49)"/></g><g class="cls-19"><path class="cls-31" d="M382.76,258.18a4.34,4.34,0,0,1,.14-1.09L386,254a4.32,4.32,0,0,1,1.08-.14h0l-4.34,4.33Z" transform="translate(-332.88 -177.49)"/></g><g class="cls-4"><path class="cls-32" d="M365.13,255.71a5.73,5.73,0,1,0,5.73-5.72A5.73,5.73,0,0,0,365.13,255.71Z" transform="translate(-332.88 -177.49)"/></g><path class="cls-33" d="M365.69,255.51a5.56,5.56,0,1,0,5.55-5.55A5.56,5.56,0,0,0,365.69,255.51Z" transform="translate(-332.88 -177.49)"/><path class="cls-13" d="M365.6,255.5c.39,7.2,11.26,7.32,11.29,0s-10.9-7.2-11.29,0c0,.06.19.07.19,0,.12-2.2,1.43-4.66,3.77-5.24l3.91.2,1,.57a5.57,5.57,0,0,1,1.35,1.43,5.72,5.72,0,0,1,.91,3,5.52,5.52,0,0,1-3.25,5c-4,1.78-7.46-1.28-7.66-5C365.79,255.46,365.6,255.45,365.6,255.5Z" transform="translate(-332.88 -177.49)"/><g class="cls-14"><path class="cls-34" d="M366.46,255.51a4.79,4.79,0,1,0,4.78-4.79A4.78,4.78,0,0,0,366.46,255.51Z" transform="translate(-332.88 -177.49)"/></g><g class="cls-14"><path class="cls-35" d="M365.69,255.51a5.56,5.56,0,1,0,5.55-5.55A5.56,5.56,0,0,0,365.69,255.51Zm.36,0a5.2,5.2,0,1,1,5.19,5.19A5.19,5.19,0,0,1,366.05,255.51Z" transform="translate(-332.88 -177.49)"/></g><path class="cls-36" d="M366.74,255.51a4.51,4.51,0,1,0,4.5-4.5A4.5,4.5,0,0,0,366.74,255.51Z" transform="translate(-332.88 -177.49)"/><path class="cls-13" d="M366.66,255.49c.31,5.8,9.15,6,9.17,0s-8.86-5.92-9.17-.05c0,.06.17.1.17.05a4.64,4.64,0,0,1,2.22-3.88,4.47,4.47,0,0,1,6.59,3.84,4.41,4.41,0,0,1-2.62,4.06,4.46,4.46,0,0,1-6.19-4S366.65,255.43,366.66,255.49Z" transform="translate(-332.88 -177.49)"/><g class="cls-14"><path class="cls-37" d="M369,251.59a3.89,3.89,0,0,0-.6,2.08,3.93,3.93,0,0,0,7.31,2,4.5,4.5,0,1,1-6.71-4.09Z" transform="translate(-332.88 -177.49)"/></g><g class="cls-19"><path class="cls-38" d="M375.57,255.51c0,.09,0,.17,0,.26l-4.06,4h-.26a4.37,4.37,0,0,1-1.21-.17l5.36-5.37A4.09,4.09,0,0,1,375.57,255.51Z" transform="translate(-332.88 -177.49)"/></g><g class="cls-19"><path class="cls-39" d="M374.49,252.65l-6.1,6.1a4.33,4.33,0,0,1-1.25-1.88l5.47-5.46A4.37,4.37,0,0,1,374.49,252.65Z" transform="translate(-332.88 -177.49)"/></g><g class="cls-19"><path class="cls-40" d="M366.92,255.51a4.34,4.34,0,0,1,.14-1.09l3.1-3.1a4.26,4.26,0,0,1,1.08-.13h0l-4.34,4.33Z" transform="translate(-332.88 -177.49)"/></g><path class="cls-41" d="M439.28,203.42s-12.5-25.78-49-25.78S333,201.64,333,216.69,355.48,251,390.32,251s48.19-25.39,48.19-25.39S442.73,214.78,439.28,203.42Z" transform="translate(-332.88 -177.49)"/><path class="cls-42" d="M440,220.2a33,33,0,0,1-1.44,5.43S425.16,251,390.32,251c-23,0-40.95-8.16-50.29-18.81a16.59,16.59,0,0,0,5.69-8c9,4.6,24.07,10,45.07,10C418.45,234.14,434,224.82,440,220.2Z" transform="translate(-332.88 -177.49)"/><path class="cls-43" d="M344.18,203.22a12.38,12.38,0,0,0-3.76-4.23c9.06-11.22,26.15-21.35,49.86-21.35,36.5,0,49,25.78,49,25.78a30.43,30.43,0,0,1,.94,4.12c-6.29-4.38-23.88-14.46-52.62-14.46C366.36,193.08,352.28,198.58,344.18,203.22Z" transform="translate(-332.88 -177.49)"/><path class="cls-3" d="M344.27,203.23a16.28,16.28,0,0,0-1.9-2.61c-.38-.41-1.23-.87-1.44-1.34s-.39-.3.28-1.11,1.25-1.42,1.9-2.1a53.7,53.7,0,0,1,8.9-7.45,65.27,65.27,0,0,1,26.35-10c17.5-2.72,36.4.43,50.19,12.09a47.84,47.84,0,0,1,8.92,9.87,19.36,19.36,0,0,1,1.55,2.54c.05.11.12.21.17.32a8.79,8.79,0,0,1,.8,3.31c-.07.93-.18.47-.95,0-11.22-7.37-24.65-11.3-37.88-12.86-19.13-2.26-40.05-.3-57.06,9.35-.06,0,.11.1.16.07,11.72-6.65,25.3-9.5,38.67-10,15.42-.61,31.2,1.64,45.4,7.84a70,70,0,0,1,11.82,6.5s.18.06.17,0a19.07,19.07,0,0,0-4.36-9.34,51,51,0,0,0-13.24-11.92c-16.53-10.34-38.46-11.06-56.59-4.8A57.52,57.52,0,0,0,340.33,199a0,0,0,0,0,0,0,12.91,12.91,0,0,1,3.74,4.21S344.3,203.26,344.27,203.23Z" transform="translate(-332.88 -177.49)"/><path class="cls-44" d="M339.24,200.52c.91.72,6,5.18,6,15.08A22.79,22.79,0,0,1,339,231.1c-3.72-4.24-6-9.71-6-14.41S335.12,206.11,339.24,200.52Z" transform="translate(-332.88 -177.49)"/><path class="cls-3" d="M339.17,200.53c8,6.44,7.3,19.83,2.06,27.65-.24.35-1.7,2.83-2.31,2.87s-3.22-4.84-3.37-5.12a23.37,23.37,0,0,1-1.89-4.84c-1.9-7.37,1.42-14.64,5.66-20.53,0-.05-.14-.12-.17-.08-3.31,4.61-6.15,10.05-6.26,15.85-.1,5.47,2.56,10.68,6,14.76,0,0,.13.08.17,0,7.69-7.42,9.08-23.48.23-30.62C339.27,200.48,339.09,200.47,339.17,200.53Z" transform="translate(-332.88 -177.49)"/><g class="cls-4"><path class="cls-44" d="M339.24,200.52c.91.72,6,5.18,6,15.08A22.79,22.79,0,0,1,339,231.1c-3.72-4.24-6-9.71-6-14.41S335.12,206.11,339.24,200.52Z" transform="translate(-332.88 -177.49)"/></g><path class="cls-45" d="M345.23,215.6c0-9.9-5.08-14.36-6-15.08.38-.51.77-1,1.18-1.53.09.06,6.66,4,6.66,16.38s-7,16.8-7.05,16.84c-.36-.36-.7-.73-1-1.11A22.79,22.79,0,0,0,345.23,215.6Z" transform="translate(-332.88 -177.49)"/><path class="cls-13" d="M439.89,206.14s-.32-.25-.94-.67a.09.09,0,0,1,0-.13.09.09,0,0,1,.13,0c.62.41.95.66.95.66a.11.11,0,0,1,0,.14.11.11,0,0,1-.08,0Zm-1.9-1.3-1-.61a.12.12,0,0,1,0-.14.11.11,0,0,1,.13,0l1,.62a.1.1,0,0,1,0,.13.1.1,0,0,1-.08.05ZM436,203.63l-1-.58a.1.1,0,0,1,0-.13.09.09,0,0,1,.13,0l1,.58a.1.1,0,0,1,0,.14s-.05,0-.08,0Zm-2-1.15-1-.55a.09.09,0,0,1,0-.13.09.09,0,0,1,.13,0l1,.55a.1.1,0,0,1,0,.13.09.09,0,0,1-.08.05Zm-90.56-.2a.1.1,0,0,1-.06-.08.12.12,0,0,1,0-.08s.16-.13.43-.32a.11.11,0,0,1,.14,0,.1.1,0,0,1,0,.14l-.42.31-.06,0Zm88.54-.89-1-.53a.11.11,0,0,1,0-.13.09.09,0,0,1,.13,0l1,.53a.1.1,0,0,1,0,.18Zm-87.2-.1a.09.09,0,0,1,0-.13c.31-.2.64-.41,1-.61a.09.09,0,0,1,.13,0,.1.1,0,0,1,0,.13c-.34.2-.67.41-1,.61h0A.09.09,0,0,1,344.83,201.29Zm85.16-.94-1-.5a.1.1,0,0,1,.09-.18l1,.5a.1.1,0,0,1,0,.19Zm-83.19-.25a.11.11,0,0,1,0-.14l1-.55a.09.09,0,0,1,.13,0,.09.09,0,0,1,0,.13l-1,.55h-.05A.09.09,0,0,1,346.8,200.1Zm81.11-.74-1-.48a.09.09,0,0,1-.05-.12.1.1,0,0,1,.13,0l1,.48a.09.09,0,0,1,0,.18ZM348.82,199a.09.09,0,0,1,0-.12l1-.52a.1.1,0,0,1,.13,0,.11.11,0,0,1,0,.13l-1,.51h-.05A.09.09,0,0,1,348.82,199Zm77-.58-1.06-.45a.09.09,0,0,1-.05-.12.09.09,0,0,1,.12,0l1.06.45a.09.09,0,0,1,0,.18ZM350.89,198a.11.11,0,0,1,0-.13l1.05-.47a.1.1,0,0,1,.08.18l-1.05.47h0A.08.08,0,0,1,350.89,198Zm72.81-.46-1.07-.43a.09.09,0,0,1,.07-.17l1.07.42a.09.09,0,0,1,.05.12.09.09,0,0,1-.09.06ZM353,197.08A.1.1,0,0,1,353,197l1.07-.43a.09.09,0,0,1,.07.17l-1.06.44h0A.09.09,0,0,1,353,197.08Zm68.57-.38-1.08-.39a.11.11,0,0,1-.06-.13.1.1,0,0,1,.13-.05l1.08.39a.1.1,0,0,1,.05.13.09.09,0,0,1-.09.06Zm-66.44-.48a.09.09,0,0,1,.06-.12l1.08-.4a.09.09,0,1,1,.06.18l-1.07.4h0A.1.1,0,0,1,355.12,196.22Zm64.28-.3-1.08-.37a.09.09,0,0,1-.06-.12.09.09,0,0,1,.12-.06l1.09.37a.09.09,0,0,1,0,.12.1.1,0,0,1-.09.07Zm-62.12-.48a.1.1,0,0,1,.06-.12l1.09-.37a.1.1,0,0,1,.12.06.09.09,0,0,1-.06.12l-1.09.37h0A.1.1,0,0,1,357.28,195.44Zm60-.25-1.1-.35a.09.09,0,0,1-.06-.12.1.1,0,0,1,.12-.06l1.09.35a.1.1,0,0,1,.07.12.1.1,0,0,1-.09.06Zm-57.77-.47a.11.11,0,0,1,.07-.12l1.1-.33a.09.09,0,0,1,.12.06.1.1,0,0,1-.07.12l-1.1.34h0A.11.11,0,0,1,359.46,194.72Zm55.57-.21-1.1-.32a.09.09,0,0,1-.06-.12A.08.08,0,0,1,414,194l1.11.32a.09.09,0,0,1,.06.12.1.1,0,0,1-.09.07Zm-53.36-.44a.09.09,0,0,1,.06-.12l1.11-.3a.1.1,0,0,1,.12.07.09.09,0,0,1-.07.11l-1.1.31h0A.1.1,0,0,1,361.67,194.07Zm51.16-.18-1.11-.3a.08.08,0,0,1-.07-.11.09.09,0,0,1,.11-.07l1.11.29a.09.09,0,0,1,.07.12.1.1,0,0,1-.09.07Zm-48.94-.41a.09.09,0,0,1,.07-.12l1.11-.27a.1.1,0,0,1,.12.07.11.11,0,0,1-.07.12l-1.12.27h0A.1.1,0,0,1,363.89,193.48Zm46.71-.17-1.12-.26a.1.1,0,0,1-.07-.12.11.11,0,0,1,.12-.07l1.12.27a.09.09,0,0,1,.07.11.1.1,0,0,1-.1.08ZM366.12,193a.1.1,0,0,1,.08-.12l1.12-.24a.09.09,0,0,1,.11.07.1.1,0,0,1-.07.12l-1.12.24h0A.1.1,0,0,1,366.12,193Zm42.25-.15c-.37-.09-.75-.17-1.13-.24a.1.1,0,0,1-.07-.12.09.09,0,0,1,.11-.07l1.13.24a.09.09,0,0,1,.07.11.09.09,0,0,1-.09.08Zm-40-.33a.09.09,0,0,1,.07-.11l1.13-.21a.1.1,0,0,1,.12.07.1.1,0,0,1-.08.11l-1.13.22h0A.09.09,0,0,1,368.37,192.47Zm37.75-.14-1.13-.21a.1.1,0,0,1-.08-.11.1.1,0,0,1,.12-.08l1.13.21a.1.1,0,0,1,.07.12.1.1,0,0,1-.09.07Zm-35.49-.27c0-.06,0-.11.08-.11l1.13-.19a.1.1,0,0,1,0,.19l-1.13.18h0A.1.1,0,0,1,370.63,192.06Zm33.23-.14-1.13-.18a.1.1,0,1,1,0-.19l1.13.18a.1.1,0,0,1,.08.12.11.11,0,0,1-.09.08Zm-31-.23a.09.09,0,0,1,.08-.11l1.14-.16a.09.09,0,0,1,.1.09.08.08,0,0,1-.08.1l-1.13.16h0A.08.08,0,0,1,372.9,191.69Zm28.69-.12-1.13-.15a.11.11,0,0,1-.09-.11.1.1,0,0,1,.11-.08l1.14.15a.1.1,0,0,1,.08.11.09.09,0,0,1-.09.08Zm-26.42-.19a.09.09,0,0,1,.09-.1l1.14-.14a.09.09,0,0,1,.1.09.08.08,0,0,1-.08.1l-1.14.14h0A.11.11,0,0,1,375.17,191.38Zm24.15-.1-1.14-.13c-.06,0-.1-.05-.09-.1a.09.09,0,0,1,.11-.09l1.14.13a.08.08,0,0,1,.08.1.1.1,0,0,1-.09.09Zm-21.86-.16a.09.09,0,0,1,.08-.1l1.14-.11a.11.11,0,0,1,.11.09.1.1,0,0,1-.09.1l-1.14.11h0A.09.09,0,0,1,377.46,191.12ZM397,191l-1.14-.1a.1.1,0,0,1-.09-.1.11.11,0,0,1,.11-.09l1.14.1a.09.09,0,0,1,.09.1.11.11,0,0,1-.1.09Zm-17.29-.12a.12.12,0,0,1,.09-.11l1.15-.08a.1.1,0,0,1,0,.19l-1.14.09h0A.11.11,0,0,1,379.74,190.92Zm15-.06-1.15-.07a.1.1,0,0,1-.09-.1.11.11,0,0,1,.1-.09l1.15.07a.1.1,0,0,1,.09.1.11.11,0,0,1-.1.09Zm-12.72-.1a.1.1,0,0,1,.09-.1l1.15-.06a.09.09,0,0,1,.1.09.1.1,0,0,1-.09.1l-1.15.06h0A.11.11,0,0,1,382,190.76Zm2.3-.11a.1.1,0,0,1,.09-.1l1.15,0h0a.1.1,0,0,1,.1.09.09.09,0,0,1-.09.1l-1.15,0h0A.09.09,0,0,1,384.33,190.65Zm8.13.09-1.15,0c-.05,0-.1,0-.09-.1a.1.1,0,0,1,.09-.1l1.15,0a.11.11,0,0,1,.1.1.12.12,0,0,1-.1.1Zm-5.84-.16a.09.09,0,0,1,.1-.09l1.15,0h0a.09.09,0,0,1,.09.1.09.09,0,0,1-.09.09l-1.15,0h0A.11.11,0,0,1,386.62,190.58Zm3.54.09H389a.09.09,0,0,1-.1-.1.09.09,0,0,1,.1-.09h1.14a.09.09,0,0,1,.1.1.09.09,0,0,1-.1.09Z" transform="translate(-332.88 -177.49)"/><path class="cls-3" d="M337.62,229.2a9.92,9.92,0,0,0,.91-.68l.13.15a9.72,9.72,0,0,1-.94.69Zm1.76-1.44q.4-.4.78-.84l.14.13c-.25.29-.52.57-.79.84Zm1.49-1.73c.22-.31.44-.62.64-.95l.16.1c-.2.33-.42.65-.65,1Zm1.2-1.94c.18-.33.34-.68.49-1l.18.08c-.15.35-.32.7-.5,1ZM343,222c.13-.36.24-.72.34-1.09l.18.05c-.1.37-.21.74-.34,1.1Zm.61-2.2c.07-.37.14-.75.19-1.12l.19,0c-.05.38-.12.77-.19,1.14Zm.32-2.26c0-.37,0-.76.06-1.14h.19c0,.38,0,.77-.06,1.15Zm0-3.42.19,0c0,.38.05.77.06,1.15H344Q344,214.68,343.92,214.12Zm-.29-2.27.19,0q.1.57.18,1.14l-.19,0C343.76,212.6,343.7,212.22,343.63,211.85Zm-.55-2.22.18,0c.12.36.22.73.32,1.11l-.19,0C343.3,210.36,343.19,210,343.08,209.63Zm-.82-2.13.17-.08c.16.35.31.71.45,1.07l-.17.07C342.57,208.2,342.42,207.85,342.26,207.5Zm-1.11-2,.16-.11c.21.32.41.66.6,1l-.17.1A10.6,10.6,0,0,0,341.15,205.51Zm-1.38-1.81.14-.13c.25.28.5.58.74.89l-.16.12C340.26,204.27,340,204,339.77,203.7Zm-1.68-1.54.11-.16a8.49,8.49,0,0,1,.9.74l-.13.14A7,7,0,0,0,338.09,202.16Z" transform="translate(-332.88 -177.49)"/><path class="cls-46" d="M337.86,229.83c.28-.16,6.79-4,6.79-14s-5.93-14-6.19-14.21l-.63,1,.32-.48-.32.48c.05,0,5.67,3.91,5.67,13.25a16.41,16.41,0,0,1-3.1,10,11.77,11.77,0,0,1-3.11,3Z" transform="translate(-332.88 -177.49)"/><path class="cls-47" d="M440,206.63a4.13,4.13,0,0,0,0-1.3A80.34,80.34,0,0,0,426,197.78,95.22,95.22,0,0,0,388.78,190c-15.85,0-27.39,3.18-34.27,5.85a47.44,47.44,0,0,0-11.34,5.9c.27.31.36.45.71.9a47.88,47.88,0,0,1,11.1-5.75c6.79-2.62,18.16-5.75,33.8-5.75a93.94,93.94,0,0,1,36.79,7.7,75.47,75.47,0,0,1,14,7.68A.53.53,0,0,0,440,206.63Z" transform="translate(-332.88 -177.49)"/><path class="cls-48" d="M353.91,197.13c-2.26,13.68,14.67,27.87,37.82,31.7s43.74-4.15,46-17.84-14.66-27.87-37.81-31.7S356.18,183.44,353.91,197.13Z" transform="translate(-332.88 -177.49)"/><path class="cls-49" d="M373.73,190.87c-1.82,9,9,18.74,24.21,21.82s29-1.71,30.78-10.68-9-18.74-24.2-21.82S375.55,181.9,373.73,190.87Z" transform="translate(-332.88 -177.49)"/><path class="cls-50" d="M418.07,190c-.69,1.59.23,2.71,1.7,3.34s3,.46,3.61-1.07-.23-2.71-1.7-3.34S418.75,188.36,418.07,190Z" transform="translate(-332.88 -177.49)"/><path class="cls-50" d="M397.5,183.61c-.86,3.22,2.85,5.52,7.84,6.83s9.39,1,10.22-2.1-2.85-5.52-7.84-6.83S398.36,180.39,397.5,183.61Z" transform="translate(-332.88 -177.49)"/><g class="cls-4"><path class="cls-51" d="M347.13,215.14c2.93,5.78,8.19,11.08,15.08,15.33a87,87,0,0,1-16.49-6.3A31.44,31.44,0,0,0,347.13,215.14Z" transform="translate(-332.88 -177.49)"/></g><path class="cls-52" d="M345.23,215.6c0-9.89-5.08-14.36-6-15.08a50.51,50.51,0,0,1,11.81-11.33,22.71,22.71,0,0,0-6.4,12.91,22.45,22.45,0,0,0,2.48,13,31.44,31.44,0,0,1-1.41,9,87,87,0,0,0,16.49,6.3,70.36,70.36,0,0,0,28,9.46c20.28,2.52,38.67-3.11,47.72-13.31-2.89,4.67-16.9,24.4-47.62,24.4-24.15,0-42.38-9.26-51.29-20A22.78,22.78,0,0,0,345.23,215.6Z" transform="translate(-332.88 -177.49)"/><path class="cls-3" d="M440.59,209l-1-.58a.09.09,0,0,1,0-.13.11.11,0,0,1,.13,0c.65.37,1,.59,1,.59a.09.09,0,0,1,0,.13.09.09,0,0,1-.08,0Zm-2-1.13-1-.53a.09.09,0,0,1,0-.13.09.09,0,0,1,.13,0l1,.53a.09.09,0,0,1,0,.13.09.09,0,0,1-.08.05Zm-2-1.05c-.32-.17-.67-.33-1-.51a.09.09,0,0,1,0-.13.09.09,0,0,1,.12,0c.37.17.71.34,1,.51a.1.1,0,0,1,0,.12.09.09,0,0,1-.08.06Zm-2.07-1-1-.48a.09.09,0,0,1-.05-.12.1.1,0,0,1,.13-.05l1,.48a.09.09,0,0,1,.05.12.1.1,0,0,1-.09.06Zm-2.09-.94-1.06-.46a.09.09,0,0,1-.05-.12.1.1,0,0,1,.13,0l1.05.45a.1.1,0,0,1,.05.13.09.09,0,0,1-.08.05Zm-87.83-.77a.11.11,0,0,1,.05-.13l.59-.24a.1.1,0,0,1,.13.05.09.09,0,0,1-.05.12l-.59.25h0A.11.11,0,0,1,344.55,204.1Zm85.71-.13-1.06-.43a.09.09,0,0,1-.05-.12.09.09,0,0,1,.12-.06l1.07.43a.11.11,0,0,1,.05.13.1.1,0,0,1-.09.06Zm-84.05-.55a.1.1,0,0,1,.05-.13l1.07-.42a.09.09,0,0,1,.12,0,.1.1,0,0,1-.05.13c-.36.13-.71.28-1.07.42h0A.1.1,0,0,1,346.21,203.42Zm81.92-.3-1.07-.41a.09.09,0,0,1-.06-.12.1.1,0,0,1,.12-.06l1.08.41a.09.09,0,0,1,.05.12.1.1,0,0,1-.09.07Zm-79.79-.54a.11.11,0,0,1,.06-.13l1.08-.4a.09.09,0,1,1,.06.18l-1.07.4h0A.11.11,0,0,1,348.34,202.58Zm77.64-.26-1.08-.39a.09.09,0,0,1,.06-.18l1.09.39a.09.09,0,0,1,.05.12.09.09,0,0,1-.09.06Zm-75.48-.54a.09.09,0,0,1,.06-.12l1.08-.38a.09.09,0,0,1,.12.06.1.1,0,0,1-.05.12l-1.09.38h0A.1.1,0,0,1,350.5,201.78Zm73.31-.23-1.09-.36a.1.1,0,0,1-.06-.12.1.1,0,0,1,.13-.06l1.08.36a.1.1,0,0,1,0,.19ZM352.67,201a.09.09,0,0,1,.06-.12l1.09-.36a.1.1,0,0,1,.12.06.09.09,0,0,1-.06.12l-1.09.36h0A.1.1,0,0,1,352.67,201Zm69-.19-1.09-.35a.1.1,0,0,1-.07-.12.1.1,0,0,1,.12-.06l1.1.34a.09.09,0,0,1,.06.12.1.1,0,0,1-.09.07Zm-66.77-.52a.09.09,0,0,1,.06-.12l1.1-.33a.09.09,0,0,1,.12.06.1.1,0,0,1-.07.12l-1.09.34h0A.09.09,0,0,1,354.86,200.32Zm64.58-.16-1.1-.32a.09.09,0,0,1-.07-.12.09.09,0,0,1,.12-.06l1.1.32a.1.1,0,0,1,.07.12.11.11,0,0,1-.09.07Zm-62.38-.5a.09.09,0,0,1,.06-.12l1.11-.31a.1.1,0,1,1,0,.19l-1.11.31h0A.09.09,0,0,1,357.06,199.66Zm60.17-.13-1.11-.3a.09.09,0,0,1-.07-.11.11.11,0,0,1,.12-.07l1.11.3a.1.1,0,0,1,.07.12.1.1,0,0,1-.09.07Zm-58-.48a.09.09,0,0,1,.07-.12l1.11-.29a.09.09,0,0,1,.11.07.09.09,0,0,1-.06.12l-1.11.28h0A.1.1,0,0,1,359.27,199.05ZM415,199l-1.11-.28a.09.09,0,1,1,0-.18l1.12.27a.11.11,0,0,1,.07.12.1.1,0,0,1-.09.07Zm-53.52-.47a.1.1,0,0,1,.07-.12l1.12-.26a.09.09,0,1,1,.05.18l-1.12.27h0A.1.1,0,0,1,361.49,198.48Zm51.29-.07-1.12-.26a.09.09,0,0,1-.07-.11.09.09,0,0,1,.11-.07l1.12.25a.1.1,0,0,1,.08.11.11.11,0,0,1-.1.08Zm-49-.45a.1.1,0,0,1,.07-.12l1.13-.24a.09.09,0,1,1,0,.18l-1.13.25h0A.1.1,0,0,1,363.73,198Zm46.81-.05-1.13-.23a.1.1,0,0,1,0-.19l1.13.23a.1.1,0,0,1,.07.12.1.1,0,0,1-.09.07ZM366,197.48a.09.09,0,0,1,.07-.11l1.13-.22a.09.09,0,0,1,.11.07c0,.06,0,.11-.07.11l-1.13.22h0A.11.11,0,0,1,366,197.48Zm42.31,0-1.13-.21a.1.1,0,0,1-.08-.11.09.09,0,0,1,.11-.08l1.13.21a.09.09,0,0,1,.08.11.09.09,0,0,1-.09.08Zm-40.06-.41a.1.1,0,0,1,.08-.11l1.14-.19a.1.1,0,0,1,.11.07c0,.05,0,.11-.08.11l-1.14.2h0A.1.1,0,0,1,368.23,197.05Zm37.8,0-1.13-.19c-.06,0-.09-.05-.08-.11a.1.1,0,0,1,.11-.08l1.13.19a.1.1,0,0,1,.08.11.1.1,0,0,1-.1.08Zm-35.53-.38a.1.1,0,0,1,.08-.11l1.14-.17a.08.08,0,0,1,.1.08.09.09,0,0,1-.08.11l-1.13.17h0A.09.09,0,0,1,370.5,196.67Zm33.26,0-1.13-.17a.09.09,0,0,1-.09-.1.11.11,0,0,1,.11-.09l1.14.17a.1.1,0,0,1,.08.11.09.09,0,0,1-.09.08Zm-31-.35a.1.1,0,0,1,.08-.11l1.14-.14a.09.09,0,0,1,.11.08.08.08,0,0,1-.08.1l-1.14.15h0A.1.1,0,0,1,372.77,196.34Zm28.72,0-1.14-.14a.08.08,0,0,1-.08-.1.09.09,0,0,1,.1-.09l1.14.14a.12.12,0,0,1,.09.11.1.1,0,0,1-.1.08Zm-26.44-.31a.1.1,0,0,1,.09-.11l1.14-.12a.1.1,0,0,1,.11.08.11.11,0,0,1-.09.11l-1.14.12h0A.11.11,0,0,1,375.05,196.06Zm24.16,0-1.14-.11a.1.1,0,0,1,0-.2l1.15.12a.12.12,0,0,1,.09.11.1.1,0,0,1-.1.08Zm-21.87-.28a.08.08,0,0,1,.08-.1l1.15-.1a.1.1,0,1,1,0,.19l-1.14.1h0A.09.09,0,0,1,377.34,195.82Zm19.58.06-1.14-.09a.11.11,0,0,1-.09-.11.09.09,0,0,1,.11-.08l1.14.09a.1.1,0,0,1,.09.1.11.11,0,0,1-.1.09Zm-17.29-.24a.09.09,0,0,1,.08-.11l1.15-.07a.1.1,0,0,1,0,.19l-1.14.07h0A.08.08,0,0,1,379.63,195.64Zm15,.06-1.15-.07a.09.09,0,0,1-.09-.1.1.1,0,0,1,.1-.09l1.15.07a.11.11,0,0,1,.09.1.09.09,0,0,1-.1.09Zm-12.72-.2a.09.09,0,0,1,.09-.1l1.15-.05a.09.09,0,0,1,.1.09.1.1,0,0,1-.09.1l-1.15.05h0A.09.09,0,0,1,381.92,195.5Zm10.42.08-1.14-.05a.09.09,0,0,1-.09-.1c0-.05,0-.1.09-.09l1.15,0c.06,0,.1.05.09.1a.09.09,0,0,1-.09.1Zm-8.12-.17a.09.09,0,0,1,.09-.1l1.15,0a.1.1,0,0,1,.09.1c0,.05,0,.09-.09.1l-1.15,0h0A.09.09,0,0,1,384.22,195.41Zm5.83.08-1.15,0a.09.09,0,0,1-.09-.1.09.09,0,0,1,.1-.09l1.14,0a.1.1,0,0,1,.1.1.1.1,0,0,1-.1.09Zm-3.54-.12a.09.09,0,0,1,.1-.1h1.15a.09.09,0,0,1,.09.1.09.09,0,0,1-.09.09h-1.15A.09.09,0,0,1,386.51,195.37Z" transform="translate(-332.88 -177.49)"/><path class="cls-53" d="M440.33,209.4l0-1.36c-.11-.06-10.51-6.45-27.84-10.4a112.73,112.73,0,0,0-30.69-2.71,110.7,110.7,0,0,0-37.35,8.6l.45,1.06a109.36,109.36,0,0,1,36.95-8.51,111.23,111.23,0,0,1,30.38,2.69C429.35,202.67,440.23,209.33,440.33,209.4Z" transform="translate(-332.88 -177.49)"/><path class="cls-3" d="M390.66,232.57a.09.09,0,0,1,.09-.09h1.15a.09.09,0,0,1,.1.09.09.09,0,0,1-.1.1h-1.15A.1.1,0,0,1,390.66,232.57Zm-1.06.09-1.14,0a.09.09,0,0,1-.1-.1.09.09,0,0,1,.1-.09l1.15,0a.09.09,0,0,1,.09.09.09.09,0,0,1-.09.1Zm3.36-.11a.1.1,0,0,1,.09-.1l1.15,0a.09.09,0,0,1,.09.09.09.09,0,0,1-.09.1l-1.15,0h0A.09.09,0,0,1,393,232.55Zm-5.65.06-1.15-.05a.08.08,0,0,1-.09-.1.09.09,0,0,1,.1-.09l1.14,0c.06,0,.1,0,.09.09a.09.09,0,0,1-.09.1Zm7.94-.13a.09.09,0,0,1,.09-.1l1.15-.06a.09.09,0,0,1,.1.09.1.1,0,0,1-.09.1l-1.15.06h0A.1.1,0,0,1,395.25,232.48Zm-10.24,0-1.15-.07a.1.1,0,0,1-.09-.1.11.11,0,0,1,.11-.09l1.14.07a.11.11,0,0,1,.09.1.09.09,0,0,1-.09.09Zm12.53-.15a.1.1,0,0,1,.09-.1l1.15-.08a.08.08,0,0,1,.1.08.1.1,0,0,1-.09.11l-1.14.08h0A.11.11,0,0,1,397.54,232.35Zm-14.83,0-1.14-.09a.11.11,0,0,1-.09-.11.09.09,0,0,1,.11-.08l1.14.09a.1.1,0,0,1,.09.1.11.11,0,0,1-.1.09Zm17.12-.18a.11.11,0,0,1,.09-.1l1.14-.11a.1.1,0,0,1,.11.09.09.09,0,0,1-.09.1l-1.14.11h0A.11.11,0,0,1,399.83,232.17Zm-19.4,0-1.15-.12a.09.09,0,0,1-.08-.11.08.08,0,0,1,.1-.08l1.14.12a.09.09,0,0,1,.09.1.1.1,0,0,1-.1.09Zm21.69-.21a.09.09,0,0,1,.08-.1l1.14-.14a.1.1,0,0,1,.11.09.08.08,0,0,1-.08.1l-1.14.14h0A.11.11,0,0,1,402.12,231.94Zm-24,0-1.14-.14a.1.1,0,0,1-.08-.11.09.09,0,0,1,.11-.08l1.13.14a.1.1,0,0,1,.09.11.11.11,0,0,1-.1.08Zm26.26-.24a.1.1,0,0,1,.08-.11l1.14-.16a.11.11,0,0,1,.11.08.09.09,0,0,1-.08.11l-1.14.16h0A.11.11,0,0,1,404.4,231.66Zm-28.54-.06-1.14-.17a.09.09,0,0,1-.08-.11.11.11,0,0,1,.11-.08l1.14.17a.1.1,0,0,1,.08.11.1.1,0,0,1-.1.08Zm30.81-.27a.1.1,0,0,1,.08-.11l1.14-.19a.1.1,0,0,1,.11.08.11.11,0,0,1-.08.11l-1.14.19h0A.11.11,0,0,1,406.67,231.33Zm-33.08-.08-1.14-.19c-.05,0-.08-.05-.07-.11a.09.09,0,0,1,.11-.08l1.13.2a.09.09,0,0,1,.08.11.11.11,0,0,1-.1.08Zm35.35-.31a.09.09,0,0,1,.08-.11l1.12-.22a.1.1,0,0,1,.11.08.09.09,0,0,1-.07.11l-1.13.22h0A.09.09,0,0,1,408.94,230.94Zm-37.62-.08-1.13-.21a.1.1,0,0,1,0-.19c.38.07.75.15,1.13.21a.1.1,0,0,1,.07.12.09.09,0,0,1-.09.07Zm39.87-.36a.09.09,0,0,1,.08-.11l1.12-.25a.1.1,0,0,1,.11.08.09.09,0,0,1-.07.11l-1.13.24h0A.11.11,0,0,1,411.19,230.5Zm-42.12-.08-1.13-.23a.1.1,0,0,1,0-.19l1.12.24a.09.09,0,0,1,.08.11.1.1,0,0,1-.1.08Zm44.37-.41a.09.09,0,0,1,.07-.12l1.11-.27a.1.1,0,1,1,.05.19l-1.12.27h0A.1.1,0,0,1,413.44,230Zm-46.62-.07-1.12-.26a.09.09,0,1,1,0-.18l1.12.25a.11.11,0,0,1,.07.12.1.1,0,0,1-.09.07Zm48.85-.48a.09.09,0,0,1,.07-.12l1.1-.29a.09.09,0,1,1,.05.18l-1.11.3h0A.1.1,0,0,1,415.67,229.46Zm-51.09,0-1.11-.28a.11.11,0,0,1-.08-.12.11.11,0,0,1,.12-.07l1.11.28a.1.1,0,0,1,.08.12.11.11,0,0,1-.1.07Zm53.3-.56a.1.1,0,0,1,.07-.12l1.1-.32a.09.09,0,1,1,.06.18l-1.11.32s0,0,0,0A.11.11,0,0,1,417.88,228.86Zm-55.53,0-1.11-.31a.08.08,0,0,1-.06-.11.09.09,0,0,1,.11-.07l1.11.3a.1.1,0,0,1,.07.12.1.1,0,0,1-.09.07Zm57.74-.65a.09.09,0,0,1,.06-.12l1.09-.34a.09.09,0,0,1,.12.06.09.09,0,0,1-.06.12l-1.09.35h0A.09.09,0,0,1,420.09,228.2Zm-59.95,0-1.11-.32a.09.09,0,0,1-.06-.12.09.09,0,0,1,.12-.06l1.1.32a.1.1,0,0,1,.07.12.12.12,0,0,1-.1.07Zm-2.21-.65-1.1-.34a.11.11,0,0,1-.06-.12.09.09,0,0,1,.12-.06l1.1.34a.09.09,0,0,1,.06.12.09.09,0,0,1-.09.06Zm64.34-.08a.1.1,0,0,1,.06-.13l1.09-.37a.09.09,0,0,1,.06.18l-1.09.38h0A.1.1,0,0,1,422.27,227.5Zm-66.53-.61-1.09-.36a.1.1,0,0,1-.06-.13.1.1,0,0,1,.12-.06l1.09.36a.1.1,0,0,1,.06.13.09.09,0,0,1-.09.06Zm68.7-.16a.09.09,0,0,1,.06-.12l1.07-.4a.1.1,0,0,1,.13,0,.11.11,0,0,1-.06.13l-1.08.4h0A.11.11,0,0,1,424.44,226.73Zm-70.88-.58-1.08-.38a.09.09,0,0,1-.06-.12.09.09,0,0,1,.12-.06l1.08.38a.1.1,0,0,1,.06.13.1.1,0,0,1-.09.06Zm73-.23a.1.1,0,0,1,.05-.13l1.07-.43a.1.1,0,0,1,.12,0,.1.1,0,0,1-.05.13l-1.07.43h0A.1.1,0,0,1,426.59,225.92Zm-75.19-.54-1.08-.4a.09.09,0,0,1-.06-.12.11.11,0,0,1,.13-.06l1.07.4a.1.1,0,0,1,.06.13.11.11,0,0,1-.09.06Zm77.31-.34a.09.09,0,0,1,.05-.12l1.06-.46a.09.09,0,0,1,.12,0,.1.1,0,0,1-.05.13l-1.05.45h0A.1.1,0,0,1,428.71,225Zm-79.46-.47-1.07-.41a.1.1,0,0,1-.06-.13.1.1,0,0,1,.13-.05l1.06.42a.09.09,0,0,1,.06.12.09.09,0,0,1-.09.06Zm81.57-.45a.1.1,0,0,1,0-.13l1-.49a.1.1,0,0,1,.13.05.09.09,0,0,1,0,.12l-1,.49h0A.09.09,0,0,1,430.82,224.12Zm-83.71-.39-1.07-.44a.1.1,0,0,1-.05-.12.1.1,0,0,1,.13,0l1.06.43a.1.1,0,0,1,.05.13.1.1,0,0,1-.09.06Zm85.78-.6a.11.11,0,0,1,0-.13l1-.52a.11.11,0,0,1,.13,0,.11.11,0,0,1,0,.13l-1,.52h0A.11.11,0,0,1,432.89,223.13Zm2.05-1a.09.09,0,0,1,0-.13l1-.55a.09.09,0,0,1,.13,0,.1.1,0,0,1,0,.13l-1,.55H435A.1.1,0,0,1,434.94,222.08Zm2-1.12a.1.1,0,0,1,0-.13l1-.59a.1.1,0,0,1,.13,0,.1.1,0,0,1,0,.13l-1,.59H437A.1.1,0,0,1,437,221Zm2-1.19a.11.11,0,0,1,0-.14c.63-.4.95-.63,1-.64a.09.09,0,0,1,.13,0,.09.09,0,0,1,0,.13l-1,.65H439A.1.1,0,0,1,438.91,219.77Z" transform="translate(-332.88 -177.49)"/><path class="cls-54" d="M390.82,233.15a100,100,0,0,0,23.31-2.72,91,91,0,0,0,19.28-6.92,33.71,33.71,0,0,0,6.54-4l-.33-.86a54.79,54.79,0,0,1-6.76,3.89,90.12,90.12,0,0,1-19.05,6.83,100.35,100.35,0,0,1-29.5,2.46,118.48,118.48,0,0,1-38.15-9.18l-.44,1.06a119.63,119.63,0,0,0,38.56,9.27Q387.57,233.15,390.82,233.15Z" transform="translate(-332.88 -177.49)"/><g class="cls-4"><path class="cls-55" d="M343,212.2c0-3.81-1.19-8.76-3.92-11.5l.13-.18c.91.72,6,5.18,6,15.08A22.79,22.79,0,0,1,339,231.1a26.73,26.73,0,0,1-3.09-4.36C340.83,225.31,343,218.15,343,212.2Z" transform="translate(-332.88 -177.49)"/></g><path class="cls-56" d="M338.81,201.21c2.21,2.69,2.78,6.51,2.2,10.62-.7,5-3.06,9.07-7.21,10.58a18.15,18.15,0,0,1-.92-5.49C332.88,212.22,334.91,206.65,338.81,201.21Z" transform="translate(-332.88 -177.49)"/><path class="cls-6" d="M338.23,204.75c1,.5.91,1.94.31,3.49s-1.51,2.59-2.49,2.11-.92-1.94-.32-3.48S337.21,204.26,338.23,204.75Z" transform="translate(-332.88 -177.49)"/><path class="cls-13" d="M390.77,236.6a.09.09,0,0,1-.1-.1.09.09,0,0,1,.1-.09h1.15a.09.09,0,0,1,.09.1.09.09,0,0,1-.09.09h-1.15Zm2.2-.1a.1.1,0,0,1,.09-.1l1.15,0a.1.1,0,0,1,.1.09.09.09,0,0,1-.1.1l-1.14,0h0A.09.09,0,0,1,393,236.5Zm-3.35.09-1.15,0a.1.1,0,0,1-.1-.1.1.1,0,0,1,.1-.09h0l1.15,0a.1.1,0,0,1,0,.2Zm5.64-.15a.11.11,0,0,1,.1-.1l1.14-.05a.09.09,0,0,1,.1.09.08.08,0,0,1-.09.1l-1.15.06h0A.11.11,0,0,1,395.26,236.44Zm-7.94.08-1.15,0a.1.1,0,0,1-.09-.1.09.09,0,0,1,.1-.09l1.15,0a.1.1,0,0,1,.09.1.11.11,0,0,1-.1.09Zm10.24-.19a.09.09,0,0,1,.09-.1l1.14-.08a.11.11,0,0,1,.11.09.1.1,0,0,1-.09.1l-1.15.08h0A.09.09,0,0,1,397.56,236.33Zm-12.54.09-1.14-.07a.09.09,0,0,1-.09-.1.1.1,0,0,1,.1-.09l1.14.07a.09.09,0,0,1,.09.1.09.09,0,0,1-.09.09Zm-2.29-.15-1.15-.09a.09.09,0,0,1-.08-.1.09.09,0,0,1,.1-.09l1.14.09a.09.09,0,0,1,.09.1.09.09,0,0,1-.09.09Zm17.12-.11a.09.09,0,0,1,.09-.1l1.14-.11a.1.1,0,0,1,.1.09.08.08,0,0,1-.08.1l-1.15.11h0A.09.09,0,0,1,399.85,236.16Zm-19.41-.08-1.15-.12a.08.08,0,0,1-.08-.1.09.09,0,0,1,.1-.09l1.15.12a.08.08,0,0,1,.08.1.09.09,0,0,1-.09.09Zm21.7-.14a.1.1,0,0,1,.08-.11l1.14-.13a.08.08,0,0,1,.1.08.1.1,0,0,1-.08.11l-1.14.13h0A.08.08,0,0,1,402.14,235.94Zm-24-.1L377,235.7a.1.1,0,0,1-.08-.11.09.09,0,0,1,.1-.08l1.14.14a.09.09,0,0,1,.09.1.11.11,0,0,1-.1.09Zm26.26-.18a.1.1,0,0,1,.09-.11l1.13-.17a.11.11,0,0,1,.11.08.09.09,0,0,1-.08.11l-1.14.17h0A.11.11,0,0,1,404.41,235.66Zm-28.54-.11-1.14-.16a.1.1,0,0,1-.08-.11.09.09,0,0,1,.11-.08l1.14.16c.05,0,.08,0,.08.11a.11.11,0,0,1-.1.08Zm30.82-.23c0-.06,0-.11.08-.11l1.13-.2a.1.1,0,0,1,0,.19l-1.14.19h0A.1.1,0,0,1,406.69,235.32Zm-33.09-.11-1.14-.19a.1.1,0,1,1,0-.19l1.14.19a.11.11,0,0,1,.08.11.1.1,0,0,1-.1.08Zm35.35-.29c0-.06,0-.11.07-.11l1.13-.23a.1.1,0,0,1,.11.08.09.09,0,0,1-.07.11l-1.13.22h0A.1.1,0,0,1,409,234.92Zm-37.62-.1-1.13-.21a.1.1,0,0,1-.08-.11.1.1,0,0,1,.12-.08c.37.08.74.15,1.12.21a.1.1,0,0,1,.08.12.1.1,0,0,1-.09.07Zm39.87-.36a.09.09,0,0,1,.07-.11l1.12-.26a.1.1,0,0,1,.12.08.09.09,0,0,1-.08.11l-1.12.25h0A.11.11,0,0,1,411.2,234.46Zm-42.13-.07-1.12-.24a.1.1,0,0,1-.08-.12A.11.11,0,0,1,368,234l1.12.24a.09.09,0,0,1,.07.11.08.08,0,0,1-.09.08Zm44.37-.45a.09.09,0,0,1,.07-.11l1.11-.28a.09.09,0,1,1,.05.18l-1.12.28s0,0,0,0A.09.09,0,0,1,413.44,233.94Zm-46.61,0-1.12-.27a.09.09,0,1,1,0-.18l1.12.26a.09.09,0,0,1,.07.11.09.09,0,0,1-.09.08Zm48.83-.53a.1.1,0,0,1,.07-.12l1.1-.31a.09.09,0,0,1,.12.06.09.09,0,0,1-.06.12l-1.11.31h0A.1.1,0,0,1,415.66,233.37Zm-51.07,0-1.11-.29a.1.1,0,0,1-.07-.12.09.09,0,0,1,.12-.06l1.11.29a.1.1,0,0,1,.07.12.1.1,0,0,1-.1.07Zm53.28-.62a.09.09,0,0,1,.06-.12l1.1-.34a.1.1,0,0,1,.12.06.1.1,0,0,1-.06.12l-1.1.35h0A.1.1,0,0,1,417.87,232.73Zm-55.5,0-1.1-.32a.1.1,0,0,1-.07-.12.11.11,0,0,1,.12-.07l1.1.32a.11.11,0,0,1,.07.12.1.1,0,0,1-.09.07Zm-2.21-.66-1.09-.35a.09.09,0,0,1-.06-.12.1.1,0,0,1,.12-.06l1.09.35a.11.11,0,0,1,.07.12.12.12,0,0,1-.1.07Zm59.9-.06a.09.09,0,0,1,.06-.12l1.08-.38a.11.11,0,0,1,.13.06.09.09,0,0,1-.06.12l-1.09.38h0A.09.09,0,0,1,420.06,232ZM358,231.39l-1.09-.38a.1.1,0,0,1-.06-.12.1.1,0,0,1,.13-.06l1.08.38a.09.09,0,0,1,.06.12.1.1,0,0,1-.09.07Zm64.25-.11a.09.09,0,0,1,.06-.12l1.07-.4a.09.09,0,0,1,.12.05.1.1,0,0,1-.05.13l-1.08.4h0A.09.09,0,0,1,422.23,231.28Zm-66.42-.66-1.07-.41a.09.09,0,0,1-.06-.12.1.1,0,0,1,.13-.06l1.07.41a.09.09,0,0,1,.05.12.1.1,0,0,1-.09.07Zm68.57-.16a.09.09,0,0,1,.05-.12l1.06-.43a.1.1,0,0,1,.13.05.1.1,0,0,1-.05.12l-1.07.44h0A.08.08,0,0,1,424.38,230.46Zm-70.71-.68c-.37-.14-.72-.29-1.06-.44a.1.1,0,0,1-.06-.12c0-.05.08-.08.13-.05l1.06.44a.09.09,0,0,1,0,.18Zm72.83-.2a.09.09,0,0,1,.05-.12l1.05-.46a.08.08,0,0,1,.12,0,.1.1,0,0,1,0,.13l-1.06.46h0A.09.09,0,0,1,426.5,229.58Zm-74.95-.7-1.05-.48a.1.1,0,0,1,0-.12.09.09,0,0,1,.12-.05l1.05.48a.09.09,0,0,1,.05.12.1.1,0,0,1-.09.06Zm77-.24a.09.09,0,0,1,.05-.12l1-.5a.1.1,0,0,1,.12,0,.09.09,0,0,1,0,.13l-1,.5h0A.1.1,0,0,1,428.59,228.64Zm-79.12-.74c-.37-.17-.71-.35-1-.51a.09.09,0,0,1,0-.13.09.09,0,0,1,.13,0l1,.51a.09.09,0,0,1,0,.13.08.08,0,0,1-.08.06Zm81.19-.26a.11.11,0,0,1,0-.13l1-.53a.11.11,0,0,1,.13,0,.09.09,0,0,1,0,.13l-1,.53h0A.11.11,0,0,1,430.66,227.64Zm-83.24-.79-1-.57a.1.1,0,0,1,0-.13.11.11,0,0,1,.14,0c.31.19.65.38,1,.57a.09.09,0,0,1,0,.13.1.1,0,0,1-.08.05Zm85.28-.28a.09.09,0,0,1,0-.13l1-.56a.09.09,0,0,1,.1.16l-1,.57h-.05A.09.09,0,0,1,432.7,226.57Zm-87.27-.89-.26-.18a.09.09,0,1,1,.11-.15l.26.17a.09.09,0,0,1,0,.13s0,0-.08,0Zm89.26-.25a.09.09,0,0,1,0-.13l1-.6a.09.09,0,0,1,.13,0,.11.11,0,0,1,0,.13c-.31.2-.64.39-1,.6l-.05,0A.1.1,0,0,1,434.69,225.43Zm2-1.22a.09.09,0,0,1,0-.13l1-.64a.09.09,0,0,1,.13,0,.09.09,0,0,1,0,.13c-.31.21-.63.43-1,.64l-.06,0A.08.08,0,0,1,436.65,224.21Zm1.89-1.3a.09.09,0,0,1,0-.13c.6-.44.91-.69.92-.7a.09.09,0,0,1,.13,0,.09.09,0,0,1,0,.13s-.32.27-.92.71h-.06A.09.09,0,0,1,438.54,222.91Z" transform="translate(-332.88 -177.49)"/><path class="cls-57" d="M439.18,223.39a86.55,86.55,0,0,1-11.65,6.07,95.22,95.22,0,0,1-37.25,7.79c-15.85,0-27.38-3.18-34.27-5.85-7.49-2.91-10.83-5.52-11-5.64.27-.31,0-.72.36-1.17a46.92,46.92,0,0,0,11.09,5.76c6.79,2.62,18.16,5.75,33.8,5.75a94,94,0,0,0,36.8-7.7,83.31,83.31,0,0,0,12.55-6.67A14.78,14.78,0,0,1,439.18,223.39Z" transform="translate(-332.88 -177.49)"/><path class="cls-6" d="M335.42,211.33c.8.14,1.05.82,1,1.6s-.47,1.34-1.24,1.21-1.05-.82-1-1.59S334.62,211.19,335.42,211.33Z" transform="translate(-332.88 -177.49)"/><path class="cls-58" d="M446,213.15c-4-.23-9.85.1-11.48,1.73s5.26,4.46,11.2,5.32,11.15.51,7.52-2.74S446.87,213.2,446,213.15Z" transform="translate(-332.88 -177.49)"/><path class="cls-59" d="M434.53,214.88a4.13,4.13,0,0,1,1.54-.87c-.48,2.2,6.12,4.34,13.77,4.89,2.55.18,3.75-.13,4.15-.67,2,2.53-2.83,2.76-8.26,2C439.79,219.34,432.9,216.5,434.53,214.88Z" transform="translate(-332.88 -177.49)"/><path class="cls-60" d="M450.54,215.86c-1.86-1.17-3-2.18-4.5-2.43a33.06,33.06,0,0,0-7.69.39c-1.69.36,3.51,2.83,6.44,3.3S453.84,218,450.54,215.86Z" transform="translate(-332.88 -177.49)"/><path class="cls-61" d="M427.2,189.5s7.55,6,11.12,12.23c0,0,5.72-3.6,8.75-6.11C450.7,192.59,448.8,186.43,427.2,189.5Z" transform="translate(-332.88 -177.49)"/><path class="cls-62" d="M431.45,189c-1.32,4.68,4.67,8,9.81,7.45,6.18-.66,6.83-3.4,6.47-5.32,1.4,1.45.84,3.24-.66,4.5-3,2.51-8.75,6.11-8.75,6.11-3.57-6.22-11.12-12.23-11.12-12.23C428.71,189.29,430.12,189.12,431.45,189Z" transform="translate(-332.88 -177.49)"/><path class="cls-63" d="M433.26,191.08c-.17,1.95,2.69,3.36,6.34,3.66s6.73-.67,6.9-2.55-2.72-3-6.38-3.27S433.43,189.13,433.26,191.08Z" transform="translate(-332.88 -177.49)"/><path class="cls-6" d="M437.1,189.92c0,.61,1,.86,2.24.89s2.21-.22,2.2-.81-1-.86-2.25-.89S437.08,189.31,437.1,189.92Z" transform="translate(-332.88 -177.49)"/><path class="cls-6" d="M442.16,190.26c-.16.43.22.7.77.83s1.05,0,1.2-.37-.22-.7-.77-.82S442.31,189.83,442.16,190.26Z" transform="translate(-332.88 -177.49)"/><path class="cls-64" d="M424.11,240.89s9-6.34,12.62-12.57c0,0,3.89,2,9.25,5.35C450.51,236.51,443.75,244.32,424.11,240.89Z" transform="translate(-332.88 -177.49)"/><path class="cls-65" d="M436.73,228.32l1.3.69a8,8,0,0,0-4.46,7.16c.1,3.82,6.45,4.44,12.05,2.48-3,2.43-10.08,4.24-21.51,2.24C424.11,240.89,433.15,234.55,436.73,228.32Z" transform="translate(-332.88 -177.49)"/><path class="cls-66" d="M436.9,230.78c-.93,1.59-1,4.25,2.27,5.69,2.5,1.45,5.86,1.1,6.76-.43s-1.21-2.83-3.7-4.28S437.84,229.19,436.9,230.78Z" transform="translate(-332.88 -177.49)"/><path class="cls-6" d="M438.9,231.11c-.24.56.56,1.21,1.66,1.75s2.1.73,2.33.19-.57-1.21-1.67-1.75S439.14,230.54,438.9,231.11Z" transform="translate(-332.88 -177.49)"/><path class="cls-6" d="M443.25,233.48c-.26.37,0,.73.53,1s1,.31,1.26-.05-.05-.73-.54-1S443.5,233.1,443.25,233.48Z" transform="translate(-332.88 -177.49)"/></g></g></svg>