<svg xmlns="http://www.w3.org/2000/svg" xmlns:xlink="http://www.w3.org/1999/xlink" viewBox="0 0 121.66 86.72"><defs><style>.cls-1{isolation:isolate;}.cls-2{fill:url(#radial-gradient);}.cls-3{fill:#00255b;}.cls-18,.cls-4,.cls-5,.cls-54,.cls-56,.cls-57,.cls-59,.cls-60,.cls-62,.cls-63{opacity:0.5;}.cls-13,.cls-4,.cls-44,.cls-45,.cls-50,.cls-51,.cls-52,.cls-56,.cls-59,.cls-62{mix-blend-mode:multiply;}.cls-18,.cls-48,.cls-5,.cls-54,.cls-57,.cls-6,.cls-60,.cls-63{mix-blend-mode:screen;}.cls-5{fill:url(#radial-gradient-3);}.cls-6{fill:#e9fbff;opacity:0.7;}.cls-7{fill:url(#Безымянный_градиент_170);}.cls-8{fill:url(#radial-gradient-4);}.cls-9{fill:url(#Безымянный_градиент_170-2);}.cls-10{fill:url(#radial-gradient-5);}.cls-11{fill:url(#radial-gradient-6);}.cls-12{fill:#bc6600;}.cls-14{fill:url(#radial-gradient-7);}.cls-15{fill:url(#radial-gradient-8);}.cls-16{fill:url(#radial-gradient-9);}.cls-17{fill:url(#radial-gradient-10);}.cls-19{fill:url(#radial-gradient-11);}.cls-20{fill:url(#radial-gradient-12);}.cls-21{fill:url(#radial-gradient-13);}.cls-22{fill:url(#radial-gradient-14);}.cls-23{fill:url(#radial-gradient-15);}.cls-24{fill:url(#radial-gradient-16);}.cls-25{fill:url(#radial-gradient-17);}.cls-26{fill:url(#radial-gradient-18);}.cls-27{fill:url(#radial-gradient-19);}.cls-28{fill:url(#radial-gradient-20);}.cls-29{fill:url(#radial-gradient-21);}.cls-30{fill:url(#radial-gradient-22);}.cls-31{fill:url(#radial-gradient-23);}.cls-32{fill:url(#radial-gradient-24);}.cls-33{fill:url(#radial-gradient-25);}.cls-34{fill:url(#radial-gradient-26);}.cls-35{fill:url(#radial-gradient-27);}.cls-36{fill:url(#radial-gradient-28);}.cls-37{fill:url(#radial-gradient-29);}.cls-38{fill:url(#radial-gradient-30);}.cls-39{fill:url(#radial-gradient-31);}.cls-40{fill:url(#Безымянный_градиент_170-3);}.cls-41{fill:url(#Безымянный_градиент_170-4);}.cls-42{fill:url(#Безымянный_градиент_170-5);}.cls-43{fill:url(#radial-gradient-32);}.cls-44,.cls-50,.cls-51{opacity:0.4;}.cls-44{fill:url(#radial-gradient-34);}.cls-45{fill:url(#radial-gradient-35);}.cls-46,.cls-47{fill:#fff;mix-blend-mode:overlay;}.cls-46{opacity:0.3;}.cls-47{opacity:0.1;}.cls-48{fill:#f9ffae;}.cls-49{fill:url(#Безымянный_градиент_170-6);}.cls-50{fill:url(#radial-gradient-36);}.cls-51{fill:url(#radial-gradient-37);}.cls-52{fill:url(#radial-gradient-38);}.cls-53{fill:url(#radial-gradient-39);}.cls-54{fill:url(#radial-gradient-40);}.cls-55,.cls-58,.cls-61{stroke:#00255b;stroke-miterlimit:10;stroke-width:0.19px;}.cls-55{fill:url(#radial-gradient-41);}.cls-56{fill:url(#radial-gradient-42);}.cls-57{fill:url(#radial-gradient-43);}.cls-58{fill:url(#radial-gradient-44);}.cls-59{fill:url(#radial-gradient-45);}.cls-60{fill:url(#radial-gradient-46);}.cls-61{fill:url(#radial-gradient-47);}.cls-62{fill:url(#radial-gradient-48);}.cls-63{fill:url(#radial-gradient-49);}</style><radialGradient id="radial-gradient" cx="1466.51" cy="197.69" r="29.71" gradientTransform="matrix(-1, 0, 0, 1, 1912.42, 0)" gradientUnits="userSpaceOnUse"><stop offset="0" stop-color="#00cbff"/><stop offset="0.09" stop-color="#00c3fa"/><stop offset="0.23" stop-color="#00aced"/><stop offset="0.4" stop-color="#0086d7"/><stop offset="0.57" stop-color="#005cbf"/><stop offset="1" stop-color="#002479"/></radialGradient><radialGradient id="radial-gradient-3" cx="1464.79" cy="154.69" r="24.76" gradientTransform="matrix(-1, 0.03, 0.03, 0.92, 1905.17, 12.16)" xlink:href="#radial-gradient"/><linearGradient id="Безымянный_градиент_170" x1="1496.07" y1="253.21" x2="1553.91" y2="253.21" gradientTransform="matrix(-1, 0, 0, 1, 1912.42, 0)" gradientUnits="userSpaceOnUse"><stop offset="0" stop-color="#00f2a0"/><stop offset="1" stop-color="#168c62"/></linearGradient><radialGradient id="radial-gradient-4" cx="1521.27" cy="235.62" r="46.76" xlink:href="#radial-gradient"/><linearGradient id="Безымянный_градиент_170-2" x1="1509.09" y1="249.73" x2="1553.91" y2="249.73" xlink:href="#Безымянный_градиент_170"/><radialGradient id="radial-gradient-5" cx="1509.62" cy="247.27" r="19.42" xlink:href="#radial-gradient"/><radialGradient id="radial-gradient-6" cx="1509.24" cy="247.36" r="18.83" gradientTransform="matrix(-1, 0, 0, 1, 1912.42, 0)" gradientUnits="userSpaceOnUse"><stop offset="0" stop-color="#edff6a"/><stop offset="0.11" stop-color="#effc62"/><stop offset="0.28" stop-color="#f4f54b"/><stop offset="0.49" stop-color="#fcea25"/><stop offset="0.57" stop-color="#ffe515"/><stop offset="1" stop-color="#ff9415"/></radialGradient><radialGradient id="radial-gradient-7" cx="1509.27" cy="248.65" r="16.23" gradientTransform="matrix(-1, 0, 0, 1, 1912.42, 0)" gradientUnits="userSpaceOnUse"><stop offset="0" stop-color="#edff6a"/><stop offset="0.11" stop-color="#effc62"/><stop offset="0.28" stop-color="#f4f54b"/><stop offset="0.49" stop-color="#fcea25"/><stop offset="0.57" stop-color="#ffe515"/><stop offset="1" stop-color="#ffa415"/></radialGradient><radialGradient id="radial-gradient-8" cx="1509.31" cy="256.61" r="6.54" xlink:href="#radial-gradient-7"/><radialGradient id="radial-gradient-9" cx="1510.79" cy="255.04" r="8.06" gradientTransform="matrix(-1, 0, 0, 1, 1912.42, 0)" gradientUnits="userSpaceOnUse"><stop offset="0" stop-color="#d5ffff"/><stop offset="0.17" stop-color="#cafaff"/><stop offset="0.46" stop-color="#acebff"/><stop offset="0.85" stop-color="#7dd3ff"/><stop offset="1" stop-color="#68c9ff"/></radialGradient><radialGradient id="radial-gradient-10" cx="1510.8" cy="255.44" r="7.64" xlink:href="#radial-gradient-9"/><radialGradient id="radial-gradient-11" cx="1508.71" cy="257.23" r="4.96" xlink:href="#radial-gradient-9"/><radialGradient id="radial-gradient-12" cx="1510.97" cy="254.92" r="6.57" xlink:href="#radial-gradient-9"/><radialGradient id="radial-gradient-13" cx="1512.23" cy="253.75" r="3.88" xlink:href="#radial-gradient-9"/><radialGradient id="radial-gradient-14" cx="1526.15" cy="249.31" r="19.43" xlink:href="#radial-gradient"/><radialGradient id="radial-gradient-15" cx="1525.77" cy="249.41" r="18.82" xlink:href="#radial-gradient-6"/><radialGradient id="radial-gradient-16" cx="1525.79" cy="250.7" r="16.23" xlink:href="#radial-gradient-7"/><radialGradient id="radial-gradient-17" cx="1525.83" cy="258.66" r="6.54" xlink:href="#radial-gradient-7"/><radialGradient id="radial-gradient-18" cx="1527.32" cy="257.08" r="8.06" xlink:href="#radial-gradient-9"/><radialGradient id="radial-gradient-19" cx="1527.32" cy="257.48" r="7.64" xlink:href="#radial-gradient-9"/><radialGradient id="radial-gradient-20" cx="1525.23" cy="259.28" r="4.96" xlink:href="#radial-gradient-9"/><radialGradient id="radial-gradient-21" cx="1527.49" cy="256.96" r="6.57" xlink:href="#radial-gradient-9"/><radialGradient id="radial-gradient-22" cx="1528.75" cy="255.8" r="3.88" xlink:href="#radial-gradient-9"/><radialGradient id="radial-gradient-23" cx="1541.99" cy="246.64" r="19.43" xlink:href="#radial-gradient"/><radialGradient id="radial-gradient-24" cx="1541.61" cy="246.74" r="18.82" xlink:href="#radial-gradient-6"/><radialGradient id="radial-gradient-25" cx="1541.63" cy="248.03" r="16.23" xlink:href="#radial-gradient-7"/><radialGradient id="radial-gradient-26" cx="1541.67" cy="255.99" r="6.54" xlink:href="#radial-gradient-7"/><radialGradient id="radial-gradient-27" cx="1543.16" cy="254.42" r="8.06" xlink:href="#radial-gradient-9"/><radialGradient id="radial-gradient-28" cx="1543.16" cy="254.82" r="7.64" xlink:href="#radial-gradient-9"/><radialGradient id="radial-gradient-29" cx="1541.07" cy="256.61" r="4.96" xlink:href="#radial-gradient-9"/><radialGradient id="radial-gradient-30" cx="1543.33" cy="254.3" r="6.57" xlink:href="#radial-gradient-9"/><radialGradient id="radial-gradient-31" cx="1544.6" cy="253.13" r="3.88" xlink:href="#radial-gradient-9"/><linearGradient id="Безымянный_градиент_170-3" x1="1472.38" y1="214.91" x2="1580.04" y2="214.91" xlink:href="#Безымянный_градиент_170"/><linearGradient id="Безымянный_градиент_170-4" x1="1473.06" y1="236.19" x2="1572.99" y2="236.19" xlink:href="#Безымянный_градиент_170"/><linearGradient id="Безымянный_градиент_170-5" x1="1472.79" y1="193.17" x2="1572.59" y2="193.17" xlink:href="#Безымянный_градиент_170"/><radialGradient id="radial-gradient-32" cx="1584.18" cy="207.84" r="30.51" xlink:href="#radial-gradient"/><radialGradient id="radial-gradient-34" cx="1572.04" cy="216.3" r="10.31" xlink:href="#radial-gradient"/><radialGradient id="radial-gradient-35" cx="1521.43" cy="198.89" r="34.73" xlink:href="#radial-gradient-7"/><linearGradient id="Безымянный_градиент_170-6" x1="1475.08" y1="220.69" x2="1573.98" y2="220.69" xlink:href="#Безымянный_градиент_170"/><radialGradient id="radial-gradient-36" cx="1520.64" cy="202.67" r="34.3" xlink:href="#radial-gradient"/><radialGradient id="radial-gradient-37" cx="1520.18" cy="226.46" r="33.71" xlink:href="#radial-gradient"/><radialGradient id="radial-gradient-38" cx="1520.68" cy="123.87" r="33.9" gradientTransform="translate(1912.42 353.94) rotate(180)" xlink:href="#radial-gradient-7"/><radialGradient id="radial-gradient-39" cx="1580.27" cy="207.84" r="30.32" xlink:href="#radial-gradient"/><radialGradient id="radial-gradient-40" cx="749.47" cy="732.37" r="9.99" gradientTransform="matrix(-0.39, -1.03, -2.03, -0.04, 2112.05, 1012.37)" xlink:href="#radial-gradient"/><radialGradient id="radial-gradient-41" cx="1464.29" cy="211.38" r="16.68" xlink:href="#radial-gradient"/><radialGradient id="radial-gradient-42" cx="1464.29" cy="212.59" r="16.06" xlink:href="#radial-gradient"/><radialGradient id="radial-gradient-43" cx="1468.88" cy="212.78" r="10.42" xlink:href="#radial-gradient"/><radialGradient id="radial-gradient-44" cx="1470.54" cy="185.27" r="21.87" xlink:href="#radial-gradient"/><radialGradient id="radial-gradient-45" cx="1470.54" cy="185.69" r="21.57" xlink:href="#radial-gradient"/><radialGradient id="radial-gradient-46" cx="1538.35" cy="182.45" r="12.77" gradientTransform="matrix(-0.95, 0, 0, 1, 1902.58, -1.07)" xlink:href="#radial-gradient"/><radialGradient id="radial-gradient-47" cx="1472.28" cy="467" r="23.07" gradientTransform="translate(1912.42 713.42) rotate(180)" xlink:href="#radial-gradient"/><radialGradient id="radial-gradient-48" cx="1473.5" cy="224.82" r="22.28" xlink:href="#radial-gradient"/><radialGradient id="radial-gradient-49" cx="1447.12" cy="710.14" r="10.24" gradientTransform="matrix(-0.87, -0.39, -0.53, 1.07, 2077.13, 36.35)" xlink:href="#radial-gradient"/></defs><title>dirijabl zeleniy</title><g class="cls-1"><g id="Слой_1" data-name="Слой 1"><path class="cls-2" d="M437,227.49h9.7s2.71-2.4,2.71-11.43-2.71-11.42-2.71-11.42H437Z" transform="translate(-332.28 -178.22)"/><path class="cls-3" d="M437,227.52c2.94,0,6.21.44,9.1,0,1.28-.19,1.55-1.06,2.07-2.36,1.94-4.89,1.87-11.22.61-16.25-.27-1.11-.86-3.74-2.07-4.31s-3.79,0-5.06,0H437s-.11,0-.11.05v22.84s.19,0,.19,0V207.75c0-.7-.17-2.9.08-3.07.42-.3,2.27,0,2.76,0h4.22c1.46,0,2.3-.41,3.07.8,1.68,2.63,2,6.23,2.06,9.25.12,3.67,0,7.85-1.67,11.22-.92,1.87-1.36,1.5-3.41,1.5H437C437,227.45,436.87,227.52,437,227.52Z" transform="translate(-332.28 -178.22)"/><g class="cls-4"><path class="cls-2" d="M439.39,204.64c2.61,6.75.6,15.81.23,18.44-.4,2.87,6.56,3.63,7.79-.34,2.88-9.3.25-16.06-.74-18.1h.05s2.71,2.39,2.71,11.42-2.71,11.43-2.71,11.43H437V204.64Z" transform="translate(-332.28 -178.22)"/></g><path class="cls-5" d="M447.46,208.78c-.86-3.51-2.21-4-4.38-3.77s-2.49,1-1.63,4.18,0,9.78-.38,12,5.42,2.8,6.25-1.55A25.9,25.9,0,0,0,447.46,208.78Z" transform="translate(-332.28 -178.22)"/><path class="cls-6" d="M445,205.71c-.69.27-.62,1.21-.21,2.24s1,1.75,1.71,1.48.62-1.22.21-2.25S445.71,205.43,445,205.71Z" transform="translate(-332.28 -178.22)"/><path class="cls-6" d="M446.44,210.06c-.55.06-.72.49-.67,1s.32.89.85.84.72-.49.67-1S447,210,446.44,210.06Z" transform="translate(-332.28 -178.22)"/><path class="cls-7" d="M364.17,260.15s3.93,4.79,23.25,4.79,23.25-4.79,23.25-4.79a29.32,29.32,0,0,0,5.67-14.44c.59-5.49-58.27-5.81-57.84,0A28.92,28.92,0,0,0,364.17,260.15Z" transform="translate(-332.28 -178.22)"/><g class="cls-4"><path class="cls-8" d="M410.79,243.1c3.52.67,5.66,1.54,5.55,2.61a29.32,29.32,0,0,1-5.67,14.44s-3.93,4.79-23.25,4.79c-16.5,0-21.77-3.49-23-4.51,18.71,5.28,34.32.5,40.46-7.22C407.34,250.17,413.09,244.9,410.79,243.1Z" transform="translate(-332.28 -178.22)"/></g><path class="cls-9" d="M362.57,257.8a28,28,0,0,1-4.07-12.09c-.29-4,27.67-5.1,44.82-3.58C397,249.83,384.49,259.44,362.57,257.8Z" transform="translate(-332.28 -178.22)"/><g class="cls-4"><path class="cls-10" d="M396.9,256.91a5.73,5.73,0,1,0,5.73-5.72A5.72,5.72,0,0,0,396.9,256.91Z" transform="translate(-332.28 -178.22)"/></g><path class="cls-11" d="M397.46,256.71a5.55,5.55,0,1,0,5.55-5.55A5.55,5.55,0,0,0,397.46,256.71Z" transform="translate(-332.28 -178.22)"/><path class="cls-12" d="M397.36,256.7c.39,7.17,11.27,7.35,11.3,0s-10.91-7.23-11.3,0c0,.05.19.07.19,0a5.67,5.67,0,0,1,3.25-5l1.08-.36,3.86.61a4.78,4.78,0,0,1,1.64,1.52,5.48,5.48,0,0,1,1.09,3.25,5.58,5.58,0,0,1-3,4.9,6.84,6.84,0,0,1-5.2-.11,5,5,0,0,1-1.31-1.07,5.81,5.81,0,0,1-1.42-3.7C397.55,256.66,397.36,256.65,397.36,256.7Z" transform="translate(-332.28 -178.22)"/><g class="cls-13"><path class="cls-14" d="M398.23,256.71a4.79,4.79,0,1,0,4.78-4.79A4.78,4.78,0,0,0,398.23,256.71Z" transform="translate(-332.28 -178.22)"/></g><g class="cls-13"><path class="cls-15" d="M397.46,256.71a5.55,5.55,0,1,0,5.55-5.55A5.55,5.55,0,0,0,397.46,256.71Zm.36,0A5.19,5.19,0,1,1,403,261.9,5.19,5.19,0,0,1,397.82,256.71Z" transform="translate(-332.28 -178.22)"/></g><path class="cls-16" d="M398.51,256.71a4.51,4.51,0,1,0,4.5-4.5A4.5,4.5,0,0,0,398.51,256.71Z" transform="translate(-332.28 -178.22)"/><path class="cls-12" d="M398.42,256.69c.31,5.8,9.16,6,9.18,0s-8.86-5.93-9.18-.05c0,.06.17.1.17.06a4.63,4.63,0,0,1,2.23-3.88,4.42,4.42,0,1,1-2.23,3.87C398.59,256.68,398.42,256.63,398.42,256.69Z" transform="translate(-332.28 -178.22)"/><g class="cls-13"><path class="cls-17" d="M400.8,252.79a3.93,3.93,0,1,0,6.71,4.09,4.5,4.5,0,1,1-6.71-4.09Z" transform="translate(-332.28 -178.22)"/></g><g class="cls-18"><path class="cls-19" d="M407.33,256.71V257l-4.06,4H403a4.49,4.49,0,0,1-1.22-.17l5.37-5.37A4.49,4.49,0,0,1,407.33,256.71Z" transform="translate(-332.28 -178.22)"/></g><g class="cls-18"><path class="cls-20" d="M406.25,253.86,400.16,260a4.24,4.24,0,0,1-1.25-1.88l5.46-5.46A4.19,4.19,0,0,1,406.25,253.86Z" transform="translate(-332.28 -178.22)"/></g><g class="cls-18"><path class="cls-21" d="M398.69,256.71a4.34,4.34,0,0,1,.14-1.09l3.1-3.09a4.26,4.26,0,0,1,1.08-.14h0l-4.34,4.34Z" transform="translate(-332.28 -178.22)"/></g><g class="cls-4"><path class="cls-22" d="M380.37,259a5.73,5.73,0,1,0,5.73-5.72A5.73,5.73,0,0,0,380.37,259Z" transform="translate(-332.28 -178.22)"/></g><path class="cls-23" d="M380.93,258.76a5.56,5.56,0,1,0,5.55-5.55A5.56,5.56,0,0,0,380.93,258.76Z" transform="translate(-332.28 -178.22)"/><path class="cls-12" d="M380.84,258.75c.39,7.19,11.26,7.32,11.29,0s-10.9-7.2-11.29,0c0,.06.19.07.19,0,.12-2.2,1.43-4.66,3.77-5.24l3.91.2,1,.57a5.57,5.57,0,0,1,1.35,1.43,5.72,5.72,0,0,1,.91,3,5.52,5.52,0,0,1-3.25,5c-4,1.78-7.46-1.28-7.66-5C381,258.71,380.84,258.7,380.84,258.75Z" transform="translate(-332.28 -178.22)"/><g class="cls-13"><path class="cls-24" d="M381.7,258.76a4.79,4.79,0,1,0,4.78-4.79A4.78,4.78,0,0,0,381.7,258.76Z" transform="translate(-332.28 -178.22)"/></g><g class="cls-13"><path class="cls-25" d="M380.93,258.76a5.56,5.56,0,1,0,5.55-5.55A5.56,5.56,0,0,0,380.93,258.76Zm.36,0a5.2,5.2,0,1,1,5.19,5.19A5.19,5.19,0,0,1,381.29,258.76Z" transform="translate(-332.28 -178.22)"/></g><path class="cls-26" d="M382,258.76a4.51,4.51,0,1,0,4.5-4.5A4.51,4.51,0,0,0,382,258.76Z" transform="translate(-332.28 -178.22)"/><path class="cls-12" d="M381.9,258.74c.31,5.81,9.17,6,9.17,0s-8.86-5.9-9.17,0c0,.05.17.08.17,0a4.59,4.59,0,0,1,2.63-4.09,4.43,4.43,0,0,1,4,7.9c-3,1.76-6.43-.61-6.6-3.81C382.07,258.72,381.89,258.7,381.9,258.74Z" transform="translate(-332.28 -178.22)"/><g class="cls-13"><path class="cls-27" d="M384.27,254.84a3.89,3.89,0,0,0-.6,2.08,3.93,3.93,0,0,0,7.31,2,4.5,4.5,0,1,1-6.71-4.09Z" transform="translate(-332.28 -178.22)"/></g><g class="cls-18"><path class="cls-28" d="M390.81,258.76c0,.08,0,.17,0,.26l-4.06,4.05h-.26a4.37,4.37,0,0,1-1.21-.17l5.36-5.37A4.09,4.09,0,0,1,390.81,258.76Z" transform="translate(-332.28 -178.22)"/></g><g class="cls-18"><path class="cls-29" d="M389.73,255.9l-6.1,6.1a4.33,4.33,0,0,1-1.25-1.88l5.47-5.46A4.28,4.28,0,0,1,389.73,255.9Z" transform="translate(-332.28 -178.22)"/></g><g class="cls-18"><path class="cls-30" d="M382.16,258.76a4.34,4.34,0,0,1,.14-1.09l3.1-3.1a4.32,4.32,0,0,1,1.08-.13h0l-4.34,4.33Z" transform="translate(-332.28 -178.22)"/></g><g class="cls-4"><path class="cls-31" d="M364.53,256.29a5.73,5.73,0,1,0,5.73-5.72A5.73,5.73,0,0,0,364.53,256.29Z" transform="translate(-332.28 -178.22)"/></g><path class="cls-32" d="M365.09,256.09a5.56,5.56,0,1,0,5.55-5.55A5.56,5.56,0,0,0,365.09,256.09Z" transform="translate(-332.28 -178.22)"/><path class="cls-12" d="M365,256.08c.39,7.2,11.26,7.32,11.29,0s-10.91-7.2-11.29,0c0,.06.19.07.19,0,.12-2.2,1.43-4.66,3.76-5.24l3.92.2,1,.57a5.57,5.57,0,0,1,1.35,1.43,5.72,5.72,0,0,1,.91,3,5.52,5.52,0,0,1-3.25,5c-4,1.78-7.46-1.28-7.66-5C365.19,256,365,256,365,256.08Z" transform="translate(-332.28 -178.22)"/><g class="cls-13"><path class="cls-33" d="M365.86,256.09a4.79,4.79,0,1,0,4.78-4.79A4.78,4.78,0,0,0,365.86,256.09Z" transform="translate(-332.28 -178.22)"/></g><g class="cls-13"><path class="cls-34" d="M365.09,256.09a5.56,5.56,0,1,0,5.55-5.55A5.56,5.56,0,0,0,365.09,256.09Zm.36,0a5.2,5.2,0,1,1,5.19,5.19A5.19,5.19,0,0,1,365.45,256.09Z" transform="translate(-332.28 -178.22)"/></g><path class="cls-35" d="M366.14,256.09a4.51,4.51,0,1,0,4.5-4.5A4.5,4.5,0,0,0,366.14,256.09Z" transform="translate(-332.28 -178.22)"/><path class="cls-12" d="M366.06,256.07c.31,5.8,9.15,6,9.17,0s-8.86-5.92-9.17-.05c0,.06.17.1.17.05a4.58,4.58,0,0,1,2.22-3.87,4.45,4.45,0,0,1,6.58,3.83,4.38,4.38,0,0,1-2.61,4.06,4.46,4.46,0,0,1-6.19-4S366.05,256,366.06,256.07Z" transform="translate(-332.28 -178.22)"/><g class="cls-13"><path class="cls-36" d="M368.43,252.17a3.93,3.93,0,1,0,6.71,4.09,4.5,4.5,0,1,1-6.71-4.09Z" transform="translate(-332.28 -178.22)"/></g><g class="cls-18"><path class="cls-37" d="M375,256.09c0,.09,0,.17,0,.26l-4.06,4h-.26a4.37,4.37,0,0,1-1.21-.17l5.36-5.37A4.14,4.14,0,0,1,375,256.09Z" transform="translate(-332.28 -178.22)"/></g><g class="cls-18"><path class="cls-38" d="M373.89,253.23l-6.1,6.1a4.33,4.33,0,0,1-1.25-1.88L372,252A4.37,4.37,0,0,1,373.89,253.23Z" transform="translate(-332.28 -178.22)"/></g><g class="cls-18"><path class="cls-39" d="M366.32,256.09a4.34,4.34,0,0,1,.14-1.09l3.1-3.1a4.77,4.77,0,0,1,1.08-.13h0l-4.34,4.34Z" transform="translate(-332.28 -178.22)"/></g><path class="cls-40" d="M438.68,204s-12.51-25.78-49-25.78-57.3,24-57.3,39.06,22.51,34.33,57.35,34.33,48.19-25.4,48.19-25.4S442.13,215.36,438.68,204Z" transform="translate(-332.28 -178.22)"/><path class="cls-41" d="M439.35,220.78a33,33,0,0,1-1.44,5.43s-13.35,25.4-48.19,25.4c-23,0-41-8.17-50.29-18.82a16.54,16.54,0,0,0,5.68-8c9.05,4.6,24.08,10,45.08,10C417.85,234.72,433.37,225.4,439.35,220.78Z" transform="translate(-332.28 -178.22)"/><path class="cls-42" d="M343.58,203.8a12.38,12.38,0,0,0-3.76-4.23c9.06-11.22,26.15-21.35,49.85-21.35,36.5,0,49,25.78,49,25.78a30.43,30.43,0,0,1,.94,4.12c-6.29-4.38-23.88-14.45-52.63-14.45C365.76,193.67,351.68,199.16,343.58,203.8Z" transform="translate(-332.28 -178.22)"/><path class="cls-43" d="M338.64,201.1c.91.72,6,5.18,6,15.08a22.8,22.8,0,0,1-6.23,15.5c-3.72-4.24-6-9.71-6-14.4C332.37,212.44,334.52,206.69,338.64,201.1Z" transform="translate(-332.28 -178.22)"/><path class="cls-3" d="M338.57,201.11c8,6.44,7.3,19.83,2.05,27.65-.23.35-1.69,2.83-2.3,2.87s-3.23-4.84-3.37-5.12a23.37,23.37,0,0,1-1.89-4.84c-1.9-7.37,1.42-14.64,5.66-20.53,0,0-.14-.12-.17-.07-3.31,4.6-6.15,10-6.26,15.85-.1,5.46,2.56,10.67,6,14.75,0,0,.13.08.17,0,7.69-7.42,9.08-23.47.23-30.61C338.67,201.06,338.49,201.05,338.57,201.11Z" transform="translate(-332.28 -178.22)"/><g class="cls-4"><path class="cls-43" d="M338.64,201.1c.91.72,6,5.18,6,15.08a22.8,22.8,0,0,1-6.23,15.5c-3.72-4.24-6-9.71-6-14.4C332.37,212.44,334.52,206.69,338.64,201.1Z" transform="translate(-332.28 -178.22)"/></g><path class="cls-12" d="M439.29,206.72s-.32-.25-.94-.66a.11.11,0,0,1,0-.14.09.09,0,0,1,.13,0c.62.42,1,.66,1,.66a.11.11,0,0,1,0,.14.12.12,0,0,1-.08,0Zm-1.9-1.3-1-.61a.11.11,0,0,1,0-.14.11.11,0,0,1,.13,0l1,.62a.1.1,0,0,1,0,.13.1.1,0,0,1-.08.05Zm-1.95-1.21-1-.58a.1.1,0,0,1,0-.13.09.09,0,0,1,.13,0l1,.58a.1.1,0,0,1,0,.14.09.09,0,0,1-.08,0Zm-2-1.15-1-.55a.09.09,0,0,1,0-.13.09.09,0,0,1,.13,0l1,.55a.1.1,0,0,1,0,.13.09.09,0,0,1-.08,0Zm-90.57-.2a.09.09,0,0,1,0-.16s.16-.13.43-.32a.11.11,0,0,1,.14,0,.1.1,0,0,1,0,.14l-.42.31-.06,0Zm88.55-.89-1-.53a.11.11,0,0,1,0-.13.1.1,0,0,1,.13,0l1,.53a.1.1,0,0,1,0,.18Zm-87.2-.1a.09.09,0,0,1,0-.13c.31-.2.64-.41,1-.61a.09.09,0,0,1,.13,0,.1.1,0,0,1,0,.13c-.34.2-.67.41-1,.61h-.05A.09.09,0,0,1,344.23,201.87Zm85.16-.94-1-.5a.09.09,0,0,1,0-.13.09.09,0,0,1,.12-.05l1,.51a.08.08,0,0,1,0,.12.08.08,0,0,1-.08.06Zm-83.19-.25a.09.09,0,0,1,0-.13l1-.56a.09.09,0,0,1,.13,0,.1.1,0,0,1,0,.13l-1,.55h-.05S346.21,200.71,346.2,200.68Zm81.11-.74-1-.47a.1.1,0,0,1,0-.13.09.09,0,0,1,.12-.05l1.05.48a.09.09,0,0,1,.05.12.1.1,0,0,1-.09.06Zm-79.09-.35a.09.09,0,0,1,0-.13l1-.51a.09.09,0,0,1,.13,0,.11.11,0,0,1,0,.13l-1,.51h-.05A.1.1,0,0,1,348.22,199.59Zm77-.59-1.06-.45a.09.09,0,0,1,.07-.17l1.06.45a.09.09,0,0,1,0,.18Zm-74.94-.42a.1.1,0,0,1,.05-.13l1.05-.47a.1.1,0,1,1,.08.18l-1,.47h0A.11.11,0,0,1,350.28,198.58Zm72.82-.46L422,197.7a.1.1,0,0,1,0-.13.09.09,0,0,1,.12,0l1.07.42a.1.1,0,0,1,.05.13.09.09,0,0,1-.09.05Zm-70.71-.46a.1.1,0,0,1,.05-.13l1.06-.43a.1.1,0,0,1,.13.05.09.09,0,0,1-.05.12l-1.07.44h0A.09.09,0,0,1,352.39,197.66Zm68.57-.38-1.08-.39a.11.11,0,0,1-.06-.13.1.1,0,0,1,.13,0l1.08.4a.09.09,0,0,1,.05.12.09.09,0,0,1-.09.06Zm-66.44-.48a.09.09,0,0,1,.06-.12l1.08-.4a.09.09,0,0,1,.06.18l-1.07.4h0A.1.1,0,0,1,354.52,196.8Zm64.28-.3-1.08-.37a.09.09,0,0,1-.06-.12.09.09,0,0,1,.12-.06l1.08.37a.09.09,0,0,1,.06.12.1.1,0,0,1-.09.07ZM356.68,196a.09.09,0,0,1,.06-.12l1.09-.37a.1.1,0,0,1,.12.06.09.09,0,0,1-.06.12l-1.09.37h0A.1.1,0,0,1,356.68,196Zm59.95-.25-1.1-.34a.09.09,0,0,1-.06-.12.09.09,0,0,1,.12-.07l1.09.35a.1.1,0,0,1,.07.12.11.11,0,0,1-.09.07Zm-57.77-.47a.11.11,0,0,1,.07-.12l1.1-.33a.1.1,0,0,1,.12.06.1.1,0,0,1-.07.12l-1.1.34h0A.11.11,0,0,1,358.86,195.3Zm55.57-.21-1.1-.32a.1.1,0,0,1-.07-.12.09.09,0,0,1,.12-.06l1.11.32a.09.09,0,0,1,.06.12.1.1,0,0,1-.09.07Zm-53.36-.44a.09.09,0,0,1,.06-.12l1.11-.3a.1.1,0,0,1,.12.07.11.11,0,0,1-.07.12l-1.11.3h0A.1.1,0,0,1,361.07,194.65Zm51.15-.18-1.11-.3a.08.08,0,0,1-.06-.11.09.09,0,0,1,.11-.07l1.11.29a.09.09,0,0,1,.07.12.1.1,0,0,1-.09.07Zm-48.93-.41a.1.1,0,0,1,.07-.12l1.11-.27a.1.1,0,0,1,.12.07.11.11,0,0,1-.07.12l-1.12.27h0A.1.1,0,0,1,363.29,194.06Zm46.71-.17-1.12-.26a.1.1,0,0,1-.07-.12.11.11,0,0,1,.12-.07l1.12.27a.09.09,0,0,1,.07.11.1.1,0,0,1-.1.08Zm-44.48-.36a.1.1,0,0,1,.07-.12l1.13-.24a.09.09,0,0,1,.11.07.1.1,0,0,1-.07.12l-1.12.24h0A.1.1,0,0,1,365.52,193.53Zm42.25-.15-1.13-.24a.1.1,0,0,1,0-.19l1.13.24a.09.09,0,0,1,.07.11.09.09,0,0,1-.09.08Zm-40-.33a.09.09,0,0,1,.07-.11l1.13-.21a.1.1,0,0,1,.12.07c0,.06,0,.11-.08.11l-1.13.22h0A.09.09,0,0,1,367.77,193.05Zm37.75-.14-1.13-.21a.1.1,0,1,1,0-.19l1.13.22a.09.09,0,0,1,.08.11.1.1,0,0,1-.09.07ZM370,192.64c0-.06,0-.11.08-.11l1.13-.19a.1.1,0,0,1,0,.19l-1.13.18h0A.1.1,0,0,1,370,192.64Zm33.23-.13-1.13-.19a.09.09,0,0,1-.08-.11.1.1,0,0,1,.11-.08l1.13.19a.09.09,0,0,1,.08.11.11.11,0,0,1-.09.08Zm-31-.24a.11.11,0,0,1,.09-.11l1.13-.16c.06,0,.11,0,.11.09a.08.08,0,0,1-.08.1l-1.13.16h0A.11.11,0,0,1,372.29,192.27Zm28.7-.12-1.14-.15a.11.11,0,0,1-.08-.11.1.1,0,0,1,.11-.08L401,192a.1.1,0,0,1,.08.11.09.09,0,0,1-.09.08ZM374.57,192a.09.09,0,0,1,.09-.1l1.14-.14a.09.09,0,0,1,.1.09.08.08,0,0,1-.08.1l-1.14.14h0A.11.11,0,0,1,374.57,192Zm24.15-.1-1.14-.13a.09.09,0,0,1-.09-.1.09.09,0,0,1,.11-.09l1.14.13a.08.08,0,0,1,.08.1.1.1,0,0,1-.09.09Zm-21.87-.15a.11.11,0,0,1,.09-.11l1.14-.11a.11.11,0,0,1,.11.09.1.1,0,0,1-.09.1l-1.14.11h0A.1.1,0,0,1,376.85,191.71Zm19.58-.09-1.14-.1a.1.1,0,0,1-.09-.1.11.11,0,0,1,.11-.09l1.14.1a.1.1,0,0,1,.09.1.11.11,0,0,1-.1.09Zm-17.29-.12a.12.12,0,0,1,.09-.11l1.14-.08a.11.11,0,0,1,.11.09.1.1,0,0,1-.09.1l-1.15.09h0A.11.11,0,0,1,379.14,191.5Zm15-.06-1.15-.07a.1.1,0,0,1,0-.19l1.15.07a.1.1,0,0,1,.09.1.11.11,0,0,1-.1.09Zm-12.72-.1a.1.1,0,0,1,.09-.1l1.15-.06a.1.1,0,0,1,0,.19l-1.15.06h0A.11.11,0,0,1,381.43,191.34Zm2.3-.11a.1.1,0,0,1,.09-.1l1.15,0h0a.1.1,0,0,1,.1.1.09.09,0,0,1-.1.09l-1.14,0h0A.09.09,0,0,1,383.73,191.23Zm8.13.09-1.15,0a.1.1,0,1,1,0-.2l1.15,0c.06,0,.1,0,.09.1a.09.09,0,0,1-.09.1Zm-5.84-.16a.09.09,0,0,1,.1-.09l1.15,0h0a.1.1,0,0,1,.09.1.09.09,0,0,1-.09.09l-1.15,0h0A.11.11,0,0,1,386,191.16Zm3.54.09h-1.14a.09.09,0,0,1-.1-.09.09.09,0,0,1,.1-.1h1.14a.09.09,0,0,1,.1.1.09.09,0,0,1-.1.09Z" transform="translate(-332.28 -178.22)"/><path class="cls-3" d="M337,229.78a8.45,8.45,0,0,0,.92-.68l.13.15a11.2,11.2,0,0,1-.94.69Zm1.77-1.44q.41-.41.78-.84l.14.13c-.25.29-.52.58-.79.84Zm1.49-1.73c.22-.31.44-.62.64-1l.16.1c-.21.33-.42.65-.65,1Zm1.2-1.94c.18-.33.34-.68.49-1l.18.08c-.15.35-.32.7-.5,1Zm.91-2.09c.12-.36.24-.72.34-1.09l.18,0c-.1.37-.21.74-.34,1.1Zm.61-2.2c.07-.37.14-.75.19-1.12l.19,0c-.05.38-.12.77-.19,1.14Zm.32-2.26c0-.37.05-.76.06-1.14h.19c0,.38,0,.77-.06,1.15Zm0-3.42.19,0c0,.38.05.77.06,1.15h-.2C343.37,215.45,343.35,215.07,343.32,214.7Zm-.29-2.27.19,0c.07.37.13.75.18,1.13l-.19,0C343.16,213.18,343.1,212.8,343,212.43Zm-.55-2.22.18-.05c.12.36.22.73.32,1.11l-.19,0C342.7,210.94,342.59,210.57,342.48,210.21Zm-.82-2.12.17-.09c.16.35.31.71.45,1.07l-.17.07Q341.9,208.6,341.66,208.09Zm-1.11-2,.16-.11c.21.32.41.66.6,1l-.17.09C341,206.73,340.76,206.4,340.55,206.09Zm-1.38-1.81.14-.13c.25.28.5.58.74.89l-.16.12C339.66,204.85,339.42,204.56,339.17,204.28Zm-1.68-1.54.11-.16a8.49,8.49,0,0,1,.9.74l-.13.14A7,7,0,0,0,337.49,202.74Z" transform="translate(-332.28 -178.22)"/><path class="cls-44" d="M337.26,230.41c.28-.16,6.79-4,6.79-14s-5.94-14-6.19-14.21l-.63,1,.32-.48-.32.48s5.67,3.91,5.67,13.25a16.41,16.41,0,0,1-3.1,10,11.94,11.94,0,0,1-3.11,3Z" transform="translate(-332.28 -178.22)"/><path class="cls-45" d="M439.35,207.21a4.13,4.13,0,0,0,0-1.3,79.87,79.87,0,0,0-13.89-7.54,95.07,95.07,0,0,0-37.26-7.8c-15.84,0-27.38,3.18-34.26,5.85-7.5,2.91-11.19,5.78-11.34,5.9.27.31.36.46.71.91a47.15,47.15,0,0,1,11.1-5.76c6.79-2.62,18.16-5.75,33.79-5.75a94,94,0,0,1,36.8,7.7,75.91,75.91,0,0,1,14,7.68A.53.53,0,0,0,439.35,207.21Z" transform="translate(-332.28 -178.22)"/><path class="cls-46" d="M353.31,197.71c-2.26,13.68,14.67,27.87,37.82,31.7s43.74-4.15,46-17.83-14.66-27.88-37.81-31.71S355.58,184,353.31,197.71Z" transform="translate(-332.28 -178.22)"/><path class="cls-47" d="M373.13,191.45c-1.82,9,9,18.74,24.2,21.82s29-1.71,30.79-10.68-9-18.74-24.2-21.82S375,182.48,373.13,191.45Z" transform="translate(-332.28 -178.22)"/><path class="cls-48" d="M417.47,190.53c-.69,1.59.23,2.71,1.7,3.34s2.95.46,3.61-1.07-.23-2.71-1.7-3.34S418.15,188.94,417.47,190.53Z" transform="translate(-332.28 -178.22)"/><path class="cls-48" d="M396.9,184.19c-.86,3.22,2.85,5.52,7.84,6.83s9.39,1,10.22-2.1-2.85-5.52-7.84-6.83S397.76,181,396.9,184.19Z" transform="translate(-332.28 -178.22)"/><path class="cls-49" d="M344.62,216.18c0-9.89-5.07-14.35-6-15.08a50.92,50.92,0,0,1,11.81-11.33,22.71,22.71,0,0,0-6.4,12.91,22.36,22.36,0,0,0,2.48,13,31.24,31.24,0,0,1-1.42,9,87.36,87.36,0,0,0,16.5,6.3,70.36,70.36,0,0,0,28,9.46c20.28,2.52,38.67-3.11,47.72-13.31-2.89,4.67-16.9,24.41-47.62,24.41-24.15,0-42.38-9.27-51.29-20A22.79,22.79,0,0,0,344.62,216.18Z" transform="translate(-332.28 -178.22)"/><path class="cls-3" d="M440,209.57l-1-.58a.11.11,0,0,1,0-.13.11.11,0,0,1,.14,0c.65.36,1,.58,1,.58a.1.1,0,0,1,0,.13.09.09,0,0,1-.08,0Zm-2-1.13-1-.53a.09.09,0,0,1,0-.13.08.08,0,0,1,.12,0l1,.53a.09.09,0,0,1,0,.13.09.09,0,0,1-.08,0Zm-2-1.05-1-.51a.09.09,0,0,1-.05-.12.1.1,0,0,1,.13,0c.37.17.71.34,1,.51a.1.1,0,0,1,0,.12.09.09,0,0,1-.08.06Zm-2.07-1-1-.48a.09.09,0,0,1-.05-.12.1.1,0,0,1,.13,0l1,.48a.1.1,0,0,1,.05.13.11.11,0,0,1-.09.05Zm-2.09-.94-1.06-.46a.09.09,0,0,1-.05-.12.1.1,0,0,1,.13-.05l1.05.45a.1.1,0,0,1,0,.19ZM344,204.68a.11.11,0,0,1,.05-.13l.59-.24a.1.1,0,0,1,.13.05.09.09,0,0,1-.05.12l-.59.25h0A.11.11,0,0,1,344,204.68Zm85.71-.13-1.06-.43a.1.1,0,1,1,.07-.18l1.07.43a.11.11,0,0,1,.05.13.1.1,0,0,1-.09.06ZM345.61,204a.09.09,0,0,1,.05-.13l1.07-.42a.09.09,0,0,1,.12.05.1.1,0,0,1-.05.13l-1.07.42h0A.1.1,0,0,1,345.61,204Zm81.92-.3-1.07-.41a.09.09,0,0,1-.06-.12.1.1,0,0,1,.12-.06l1.08.41a.1.1,0,0,1,0,.13.1.1,0,0,1-.09.06Zm-79.79-.54a.09.09,0,0,1,.06-.12l1.07-.41a.1.1,0,0,1,.13.06.09.09,0,0,1-.06.12l-1.07.4h0A.1.1,0,0,1,347.74,203.16Zm77.64-.26-1.08-.39a.09.09,0,0,1,.06-.18l1.09.39a.09.09,0,0,1,.05.12.09.09,0,0,1-.09.06Zm-75.48-.54a.09.09,0,0,1,.06-.12l1.08-.38a.09.09,0,0,1,.12.06.09.09,0,0,1-.06.12l-1.08.38h0A.1.1,0,0,1,349.9,202.36Zm73.31-.23-1.09-.36a.1.1,0,0,1-.06-.12.09.09,0,0,1,.12-.06l1.09.36a.09.09,0,0,1,.06.12.1.1,0,0,1-.09.07Zm-71.14-.52a.09.09,0,0,1,.06-.12l1.09-.36a.1.1,0,0,1,.12.06.09.09,0,0,1-.06.12l-1.09.36h0A.1.1,0,0,1,352.07,201.61Zm69-.19-1.09-.35a.09.09,0,0,1-.07-.11.1.1,0,0,1,.12-.07l1.1.34a.09.09,0,0,1,.06.12.09.09,0,0,1-.09.07Zm-66.78-.51a.1.1,0,0,1,.07-.12l1.1-.34a.09.09,0,0,1,.12.06.1.1,0,0,1-.07.12l-1.09.34h0A.1.1,0,0,1,354.25,200.91Zm64.59-.17-1.1-.32a.09.09,0,0,1-.07-.11.09.09,0,0,1,.12-.07l1.1.32a.1.1,0,0,1,.07.12.11.11,0,0,1-.1.07Zm-62.39-.5a.11.11,0,0,1,.07-.12l1.11-.31a.09.09,0,0,1,.11.07.09.09,0,0,1-.06.12l-1.11.31h0A.1.1,0,0,1,356.45,200.24Zm60.18-.13-1.11-.29a.1.1,0,1,1,.05-.19l1.11.3a.1.1,0,0,1,.07.12.1.1,0,0,1-.09.07Zm-58-.48a.09.09,0,0,1,.07-.12l1.11-.29a.1.1,0,0,1,0,.19l-1.11.29h0A.1.1,0,0,1,358.67,199.63Zm55.74-.1-1.11-.28a.08.08,0,0,1-.07-.11.09.09,0,0,1,.11-.07l1.12.27a.11.11,0,0,1,.07.12.1.1,0,0,1-.1.07Zm-53.52-.47a.1.1,0,0,1,.07-.12l1.12-.26a.1.1,0,0,1,.12.07.09.09,0,0,1-.08.11l-1.11.27h0A.1.1,0,0,1,360.89,199.06Zm51.29-.07-1.12-.26a.09.09,0,0,1-.07-.11.09.09,0,0,1,.11-.07l1.12.25a.09.09,0,0,1,.07.12.1.1,0,0,1-.09.07Zm-49.05-.45a.1.1,0,0,1,.07-.12l1.12-.24a.1.1,0,0,1,.12.07.11.11,0,0,1-.07.12c-.38.07-.75.15-1.13.24h0A.1.1,0,0,1,363.13,198.54Zm46.81,0-1.13-.23a.1.1,0,0,1,0-.19l1.13.23a.1.1,0,0,1,.07.12.1.1,0,0,1-.09.07Zm-44.56-.43a.09.09,0,0,1,.07-.11l1.13-.22a.09.09,0,0,1,.11.07.1.1,0,0,1-.07.12l-1.13.22h0A.09.09,0,0,1,365.38,198.06Zm42.31,0-1.13-.21a.1.1,0,1,1,0-.19l1.13.21a.09.09,0,0,1,.08.11.09.09,0,0,1-.09.08Zm-40.06-.41a.1.1,0,0,1,.08-.11l1.13-.19a.09.09,0,0,1,.11.07c0,.06,0,.11-.07.11l-1.14.2h0A.1.1,0,0,1,367.63,197.63Zm37.8,0-1.13-.19a.08.08,0,0,1-.08-.1c0-.06,0-.09.1-.08l1.14.18a.1.1,0,0,1,.08.11.1.1,0,0,1-.1.08Zm-35.53-.38a.1.1,0,0,1,.08-.11l1.13-.17a.09.09,0,0,1,.11.08.09.09,0,0,1-.08.11l-1.13.17h0A.09.09,0,0,1,369.9,197.25Zm33.26,0-1.13-.16a.11.11,0,0,1-.09-.11.1.1,0,0,1,.11-.08l1.14.16a.1.1,0,0,1,.08.11.09.09,0,0,1-.09.08Zm-31-.35a.1.1,0,0,1,.08-.11l1.14-.14a.09.09,0,0,1,.11.08.1.1,0,0,1-.08.11l-1.14.14h0A.1.1,0,0,1,372.17,196.92Zm28.72,0-1.14-.14a.08.08,0,0,1-.08-.1.09.09,0,0,1,.1-.09l1.14.14a.1.1,0,0,1,.08.11.08.08,0,0,1-.09.08Zm-26.44-.31a.1.1,0,0,1,.09-.11l1.14-.12a.08.08,0,0,1,.1.08.09.09,0,0,1-.08.11l-1.14.12h0A.1.1,0,0,1,374.45,196.64Zm24.16,0-1.14-.11a.11.11,0,0,1-.09-.11.08.08,0,0,1,.1-.08l1.15.11a.1.1,0,0,1,.08.11.08.08,0,0,1-.09.08Zm-21.87-.28a.08.08,0,0,1,.08-.1l1.15-.1a.09.09,0,0,1,.1.09.09.09,0,0,1-.09.1l-1.14.1h0A.09.09,0,0,1,376.74,196.4Zm19.58.06-1.14-.09a.11.11,0,0,1-.09-.11.09.09,0,0,1,.11-.08l1.14.09a.1.1,0,0,1,.09.1.11.11,0,0,1-.1.09ZM379,196.22a.09.09,0,0,1,.08-.11l1.15-.07a.1.1,0,1,1,0,.19l-1.14.07h0A.08.08,0,0,1,379,196.22Zm15,.06-1.14-.07a.09.09,0,0,1-.09-.1.1.1,0,0,1,.1-.09l1.15.07a.11.11,0,0,1,.09.11.1.1,0,0,1-.1.08Zm-12.71-.2a.1.1,0,0,1,.09-.1l1.15,0a.09.09,0,0,1,.1.09.1.1,0,0,1-.09.1l-1.15,0h0A.09.09,0,0,1,381.32,196.08Zm10.42.08-1.14,0a.09.09,0,0,1-.09-.1s0-.1.09-.09l1.15,0c.06,0,.1,0,.09.1a.09.09,0,0,1-.09.1Zm-8.13-.17a.11.11,0,0,1,.1-.1l1.15,0a.1.1,0,0,1,0,.2l-1.15,0h0A.1.1,0,0,1,383.61,196Zm5.84.08-1.15,0a.09.09,0,0,1-.09-.1.09.09,0,0,1,.1-.09l1.14,0a.1.1,0,0,1,.1.1.1.1,0,0,1-.1.09Zm-3.54-.12a.09.09,0,0,1,.1-.1h1.15a.09.09,0,0,1,.09.1.09.09,0,0,1-.09.09H386A.09.09,0,0,1,385.91,196Z" transform="translate(-332.28 -178.22)"/><path class="cls-50" d="M439.73,210l0-1.36c-.11-.06-10.52-6.45-27.84-10.39a112.38,112.38,0,0,0-30.7-2.72,110.7,110.7,0,0,0-37.34,8.6l.45,1.06a109.36,109.36,0,0,1,37-8.51,111.23,111.23,0,0,1,30.38,2.69C428.75,203.25,439.63,209.91,439.73,210Z" transform="translate(-332.28 -178.22)"/><path class="cls-3" d="M390.06,233.15a.09.09,0,0,1,.09-.09h1.15a.09.09,0,0,1,.1.1.09.09,0,0,1-.1.09h-1.15A.1.1,0,0,1,390.06,233.15Zm-1.06.09-1.14,0a.09.09,0,0,1-.1-.1.09.09,0,0,1,.1-.09l1.15,0a.09.09,0,0,1,.09.1.09.09,0,0,1-.09.09Zm3.35-.11a.11.11,0,0,1,.1-.1l1.15,0a.09.09,0,0,1,.09.09.09.09,0,0,1-.09.1c-.38,0-.76,0-1.15,0h0A.11.11,0,0,1,392.35,233.13Zm-5.64.06-1.15-.05a.08.08,0,0,1-.09-.1.09.09,0,0,1,.1-.09l1.14.05a.09.09,0,0,1,.09.1.09.09,0,0,1-.09.09Zm7.94-.13a.09.09,0,0,1,.09-.1l1.15-.06a.09.09,0,0,1,.1.09.1.1,0,0,1-.09.1l-1.15.06h0A.1.1,0,0,1,394.65,233.06Zm-10.24,0-1.15-.07a.09.09,0,0,1-.09-.1.11.11,0,0,1,.11-.09l1.14.07a.11.11,0,0,1,.09.1.09.09,0,0,1-.1.09Zm12.53-.15a.1.1,0,0,1,.09-.1l1.15-.08a.08.08,0,0,1,.1.08.11.11,0,0,1-.09.11l-1.14.08h0A.11.11,0,0,1,396.94,232.93Zm-14.83,0-1.14-.09a.1.1,0,0,1-.09-.11.09.09,0,0,1,.11-.08l1.14.09a.1.1,0,1,1,0,.19Zm17.12-.17a.11.11,0,0,1,.09-.11l1.14-.11a.1.1,0,0,1,.11.09.09.09,0,0,1-.09.1l-1.14.11h0A.11.11,0,0,1,399.23,232.76Zm-19.41,0-1.14-.12a.08.08,0,0,1-.08-.1.09.09,0,0,1,.1-.09l1.14.12a.1.1,0,0,1,.09.1.11.11,0,0,1-.1.09Zm21.7-.2a.09.09,0,0,1,.08-.11l1.14-.14a.1.1,0,0,1,.11.09.08.08,0,0,1-.08.1l-1.14.14h0A.11.11,0,0,1,401.52,232.53Zm-24-.05-1.14-.14a.1.1,0,0,1-.08-.11.08.08,0,0,1,.1-.08l1.14.14a.11.11,0,0,1,.09.11.11.11,0,0,1-.1.08Zm26.26-.24a.08.08,0,0,1,.08-.1L405,232a.11.11,0,0,1,.11.08c0,.06,0,.11-.08.11l-1.14.17h0A.11.11,0,0,1,403.8,232.24Zm-28.54-.06-1.14-.17a.09.09,0,0,1-.08-.11.11.11,0,0,1,.11-.08l1.14.17a.1.1,0,0,1,.08.11.1.1,0,0,1-.1.08Zm30.81-.27a.1.1,0,0,1,.08-.11l1.13-.19a.09.09,0,0,1,.11.08.09.09,0,0,1-.07.11l-1.14.19h0A.1.1,0,0,1,406.07,231.91ZM373,231.84l-1.14-.2c-.05,0-.08,0-.07-.11s.05-.08.11-.07l1.13.19a.09.09,0,0,1,.08.11.11.11,0,0,1-.1.08Zm35.35-.32a.09.09,0,0,1,.07-.11l1.13-.22a.1.1,0,0,1,.11.08.09.09,0,0,1-.07.11l-1.13.22h0A.09.09,0,0,1,408.34,231.52Zm-37.62-.08-1.13-.21a.09.09,0,0,1-.07-.11.1.1,0,0,1,.11-.08l1.13.22c.05,0,.08.05.07.11a.11.11,0,0,1-.09.08Zm39.87-.36a.09.09,0,0,1,.08-.11l1.12-.24a.09.09,0,0,1,.11.07.09.09,0,0,1-.07.11c-.37.08-.75.17-1.13.24h0A.11.11,0,0,1,410.59,231.08ZM368.46,231l-1.12-.24a.1.1,0,0,1,0-.19l1.12.24a.1.1,0,0,1,.08.11.1.1,0,0,1-.1.08Zm44.37-.42a.1.1,0,0,1,.08-.12l1.11-.27a.11.11,0,0,1,.12.07.1.1,0,0,1-.07.12l-1.12.27h0A.11.11,0,0,1,412.83,230.59Zm-46.61-.07-1.12-.26a.09.09,0,1,1,0-.18l1.12.26a.09.09,0,0,1,.07.11.1.1,0,0,1-.09.07Zm48.85-.48a.09.09,0,0,1,.06-.12l1.11-.29a.09.09,0,0,1,.12.07.08.08,0,0,1-.07.11l-1.11.3h0A.09.09,0,0,1,415.07,230ZM364,230l-1.12-.28a.1.1,0,1,1,.05-.19l1.11.28a.09.09,0,0,1,.07.12.1.1,0,0,1-.09.07Zm53.3-.56a.1.1,0,0,1,.07-.12l1.1-.32a.09.09,0,0,1,.12.06.1.1,0,0,1-.06.12l-1.11.32h0A.11.11,0,0,1,417.28,229.44Zm-55.53,0-1.11-.3a.09.09,0,0,1-.06-.12.09.09,0,0,1,.11-.07l1.11.3a.1.1,0,0,1,.07.12.1.1,0,0,1-.09.07Zm57.74-.65a.09.09,0,0,1,.06-.12l1.09-.34a.09.09,0,0,1,.12.06.09.09,0,0,1-.06.12l-1.09.35h0A.09.09,0,0,1,419.49,228.78Zm-59.95,0-1.11-.32a.09.09,0,0,1-.06-.12.09.09,0,0,1,.12-.06l1.1.32a.11.11,0,0,1,.07.12.12.12,0,0,1-.1.07Zm-2.21-.65-1.1-.34a.1.1,0,0,1-.06-.12.09.09,0,0,1,.12-.06l1.1.34a.09.09,0,0,1,.06.12.1.1,0,0,1-.09.07Zm64.34-.08a.1.1,0,0,1,.06-.13l1.09-.37a.09.09,0,1,1,.06.18l-1.09.38h0A.1.1,0,0,1,421.67,228.08Zm-66.53-.61-1.09-.36A.09.09,0,0,1,354,227a.09.09,0,0,1,.12-.06l1.09.36a.09.09,0,0,1,.06.12.09.09,0,0,1-.09.06Zm68.7-.16a.09.09,0,0,1,.06-.12l1.07-.4a.09.09,0,0,1,.12.05.1.1,0,0,1,0,.13l-1.08.4h0A.1.1,0,0,1,423.84,227.31ZM353,226.74l-1.08-.39a.09.09,0,0,1-.06-.12.1.1,0,0,1,.12-.06l1.08.38a.1.1,0,0,1,.06.13.09.09,0,0,1-.09.06Zm73-.24a.1.1,0,0,1,.05-.13l1.07-.43a.1.1,0,0,1,.12.05.1.1,0,0,1-.05.13l-1.07.43h0A.1.1,0,0,1,426,226.5ZM350.8,226l-1.08-.4a.09.09,0,0,1-.06-.12.11.11,0,0,1,.12-.06l1.08.4a.1.1,0,0,1,.06.13.1.1,0,0,1-.09.06Zm77.31-.34a.09.09,0,0,1,.05-.12l1.06-.46a.09.09,0,0,1,.12.05.1.1,0,0,1,0,.13l-1.05.45h0A.1.1,0,0,1,428.11,225.62Zm-79.47-.47-1.07-.41a.11.11,0,0,1-.05-.13.1.1,0,0,1,.13-.05l1.06.42a.09.09,0,0,1,.06.12.1.1,0,0,1-.09.06Zm81.57-.45a.1.1,0,0,1,.05-.13l1-.49a.1.1,0,0,1,.13,0,.09.09,0,0,1-.05.12c-.33.17-.68.33-1,.49h0A.12.12,0,0,1,430.21,224.7Zm-83.7-.39-1.07-.44a.1.1,0,0,1-.05-.12.1.1,0,0,1,.13-.05l1.06.43a.1.1,0,0,1,.05.13.1.1,0,0,1-.09.06Zm85.78-.6a.1.1,0,0,1,0-.13l1-.52a.11.11,0,0,1,.13,0,.11.11,0,0,1,0,.13l-1,.52h0A.11.11,0,0,1,432.29,223.71Zm2-1.05a.09.09,0,0,1,0-.13c.36-.19.7-.37,1-.55a.09.09,0,0,1,.13,0,.1.1,0,0,1,0,.13l-1,.55h-.05A.09.09,0,0,1,434.34,222.66Zm2-1.12a.1.1,0,0,1,0-.13c.36-.21.69-.4,1-.59a.1.1,0,0,1,.13,0,.1.1,0,0,1,0,.13l-1,.59h-.05A.09.09,0,0,1,436.35,221.54Zm2-1.19a.09.09,0,0,1,0-.13c.63-.41,1-.64,1-.65a.09.09,0,0,1,.13,0,.09.09,0,0,1,0,.13l-1,.65h-.06A.09.09,0,0,1,438.31,220.35Z" transform="translate(-332.28 -178.22)"/><path class="cls-51" d="M390.22,233.73A100,100,0,0,0,413.53,231a91,91,0,0,0,19.28-6.92,33.71,33.71,0,0,0,6.54-4l-.33-.86a54.79,54.79,0,0,1-6.76,3.89,90.12,90.12,0,0,1-19.05,6.83,100.35,100.35,0,0,1-29.5,2.46,118.72,118.72,0,0,1-38.15-9.17l-.45,1.06a120,120,0,0,0,38.57,9.26Q387,233.73,390.22,233.73Z" transform="translate(-332.28 -178.22)"/><path class="cls-12" d="M390.16,237.18a.1.1,0,0,1,0-.19h1.15a.1.1,0,0,1,.09.1.09.09,0,0,1-.09.09h-1.16Zm2.21-.1a.1.1,0,0,1,.09-.1l1.15,0a.1.1,0,0,1,.1.09.09.09,0,0,1-.1.1l-1.15,0h0A.1.1,0,0,1,392.37,237.08Zm-3.35.09-1.15,0a.09.09,0,0,1-.1-.1.1.1,0,0,1,.1-.09h0l1.15,0a.11.11,0,0,1,.09.1.1.1,0,0,1-.09.1Zm5.64-.15a.09.09,0,0,1,.1-.09l1.14-.06a.09.09,0,0,1,.1.1c0,.05,0,.09-.09.1l-1.15.05h0A.11.11,0,0,1,394.66,237Zm-7.94.09-1.15-.05a.1.1,0,0,1-.09-.1.09.09,0,0,1,.1-.09l1.15,0a.11.11,0,0,1,.09.1.12.12,0,0,1-.1.1Zm10.24-.2a.09.09,0,0,1,.09-.1l1.14-.08a.09.09,0,0,1,.1.09.08.08,0,0,1-.08.1l-1.15.08h0A.09.09,0,0,1,397,236.91Zm-12.54.09-1.14-.07a.09.09,0,0,1-.09-.1.1.1,0,0,1,.1-.09l1.14.07a.09.09,0,0,1,.09.1.09.09,0,0,1-.09.09Zm-2.29-.15-1.15-.09a.1.1,0,1,1,0-.19l1.14.09a.09.09,0,0,1,.09.1.1.1,0,0,1-.1.09Zm17.12-.11a.09.09,0,0,1,.09-.1l1.14-.11a.1.1,0,0,1,.1.09.08.08,0,0,1-.08.1l-1.15.11h0A.09.09,0,0,1,399.25,236.74Zm-19.41-.08-1.15-.12a.08.08,0,0,1-.08-.1.09.09,0,0,1,.1-.09l1.15.12a.08.08,0,0,1,.08.1.09.09,0,0,1-.09.09Zm21.69-.14a.12.12,0,0,1,.09-.11l1.14-.13a.08.08,0,0,1,.1.08.1.1,0,0,1-.08.11l-1.14.13h0A.1.1,0,0,1,401.53,236.52Zm-24-.1-1.14-.14a.1.1,0,0,1-.08-.11.08.08,0,0,1,.1-.08l1.14.14a.1.1,0,0,1,.09.1.11.11,0,0,1-.1.09Zm26.26-.18a.1.1,0,0,1,.09-.11L405,236a.09.09,0,0,1,.11.07.09.09,0,0,1-.08.11l-1.14.17h0A.11.11,0,0,1,403.81,236.24Zm-28.54-.11-1.14-.16a.1.1,0,0,1-.08-.11.09.09,0,0,1,.11-.08l1.13.16a.1.1,0,0,1,.09.11.11.11,0,0,1-.1.08Zm30.82-.23a.09.09,0,0,1,.07-.11l1.13-.2a.1.1,0,0,1,.12.08.1.1,0,0,1-.08.11l-1.14.2h0A.09.09,0,0,1,406.09,235.9Zm-33.1-.11-1.13-.19a.1.1,0,0,1-.08-.11.11.11,0,0,1,.11-.08l1.14.19a.11.11,0,0,1,.08.11.1.1,0,0,1-.1.08Zm35.36-.29a.09.09,0,0,1,.07-.11l1.13-.23a.1.1,0,0,1,.11.08.09.09,0,0,1-.07.11l-1.13.22h0A.11.11,0,0,1,408.35,235.5Zm-37.62-.1c-.38-.06-.76-.14-1.13-.21a.1.1,0,0,1,0-.19l1.13.22a.1.1,0,0,1,.08.11.11.11,0,0,1-.09.08ZM410.6,235a.09.09,0,0,1,.07-.11l1.12-.25a.1.1,0,0,1,.12.07.09.09,0,0,1-.08.11l-1.12.25h0A.09.09,0,0,1,410.6,235ZM368.47,235l-1.12-.24a.1.1,0,0,1-.08-.12.1.1,0,0,1,.12-.07l1.12.24a.09.09,0,0,1,.07.11.09.09,0,0,1-.09.08Zm44.37-.45a.09.09,0,0,1,.07-.11l1.11-.28a.09.09,0,1,1,.05.18l-1.12.28h0A.09.09,0,0,1,412.84,234.52Zm-46.61,0-1.12-.27a.09.09,0,0,1-.08-.11.11.11,0,0,1,.12-.07l1.12.26a.1.1,0,0,1,.07.12.1.1,0,0,1-.09.07Zm48.83-.53a.11.11,0,0,1,.07-.12l1.1-.31a.09.09,0,0,1,.12.07.08.08,0,0,1-.07.11l-1.1.32h0A.1.1,0,0,1,415.06,234Zm-51.07,0-1.11-.29a.09.09,0,0,1-.07-.11c0-.06.06-.08.12-.07l1.11.29a.1.1,0,0,1,.07.12.1.1,0,0,1-.1.07Zm53.28-.62a.09.09,0,0,1,.06-.12l1.1-.34a.1.1,0,0,1,.12.06c0,.06,0,.11-.06.12l-1.1.35h0A.1.1,0,0,1,417.27,233.31Zm-55.5,0-1.11-.32a.1.1,0,0,1,.06-.19l1.1.32a.11.11,0,0,1,.07.12.1.1,0,0,1-.1.07Zm-2.21-.66-1.09-.34a.1.1,0,0,1-.06-.13.1.1,0,0,1,.12-.06l1.09.35a.09.09,0,0,1,.06.12.1.1,0,0,1-.09.07Zm59.9-.06a.09.09,0,0,1,.06-.12l1.08-.37a.1.1,0,0,1,.13.05.11.11,0,0,1-.06.13l-1.09.37h0A.09.09,0,0,1,419.46,232.62ZM357.38,232l-1.09-.38a.1.1,0,0,1-.06-.12.11.11,0,0,1,.13-.06c.35.13.71.26,1.08.38a.09.09,0,0,1,.06.12.1.1,0,0,1-.09.07Zm64.25-.11a.09.09,0,0,1,.06-.12l1.07-.4a.09.09,0,0,1,.12,0,.1.1,0,0,1-.05.13l-1.08.4h0A.09.09,0,0,1,421.63,231.86Zm-66.42-.66-1.08-.41a.1.1,0,0,1,.07-.18l1.08.41a.09.09,0,0,1,.05.12.1.1,0,0,1-.09.07Zm68.57-.16a.09.09,0,0,1,.05-.12l1.06-.43a.1.1,0,0,1,.13,0,.1.1,0,0,1,0,.12l-1.07.44h0A.08.08,0,0,1,423.78,231Zm-70.71-.68c-.37-.14-.72-.29-1.06-.44a.1.1,0,0,1-.06-.12.1.1,0,0,1,.13-.05l1.06.44a.09.09,0,0,1,0,.18Zm72.83-.2A.09.09,0,0,1,426,230l1.05-.46a.08.08,0,0,1,.12,0,.1.1,0,0,1,0,.13l-1.06.46h0A.09.09,0,0,1,425.9,230.16Zm-74.95-.7L349.9,229a.09.09,0,0,1,0-.12.09.09,0,0,1,.12-.05l1,.48a.09.09,0,0,1,.05.12.1.1,0,0,1-.09.06Zm77-.24a.09.09,0,0,1,.05-.12l1-.5a.09.09,0,0,1,.12.05.08.08,0,0,1,0,.12l-1,.5h0A.1.1,0,0,1,428,229.22Zm-79.12-.73-1-.52a.09.09,0,0,1,0-.13.09.09,0,0,1,.13,0l1,.51a.09.09,0,0,1,0,.13.08.08,0,0,1-.08.06Zm81.19-.27a.1.1,0,0,1,0-.13l1-.53a.11.11,0,0,1,.13,0,.09.09,0,0,1,0,.13l-1,.53h0A.11.11,0,0,1,430.06,228.22Zm-83.24-.79-1-.57a.1.1,0,1,1,.09-.17l1,.57a.09.09,0,0,1,0,.13.1.1,0,0,1-.08.05Zm85.27-.28a.11.11,0,0,1,0-.13l1-.56a.09.09,0,0,1,.1.16l-1,.57h-.05A.11.11,0,0,1,432.09,227.15Zm-87.26-.89-.26-.18a.09.09,0,0,1,.11-.15l.26.17a.09.09,0,0,1,0,.13s0,0-.08,0Zm89.26-.25a.09.09,0,0,1,0-.13l1-.6a.11.11,0,0,1,.14,0,.1.1,0,0,1,0,.13q-.46.3-1,.6l-.05,0A.1.1,0,0,1,434.09,226Zm2-1.21a.12.12,0,0,1,0-.14l1-.63a.09.09,0,0,1,.13,0,.09.09,0,0,1,0,.13c-.31.21-.63.43-1,.64l-.06,0A.12.12,0,0,1,436,224.8Zm1.9-1.3a.11.11,0,0,1,0-.14c.6-.44.91-.69.92-.7a.09.09,0,0,1,.13,0,.09.09,0,0,1,0,.13s-.32.27-.92.71H438A.11.11,0,0,1,437.94,223.5Z" transform="translate(-332.28 -178.22)"/><path class="cls-52" d="M438.58,224A86.55,86.55,0,0,1,426.93,230a95.22,95.22,0,0,1-37.25,7.79c-15.85,0-27.38-3.18-34.27-5.85-7.49-2.91-10.83-5.52-11-5.64.27-.31,0-.71.35-1.17a47.43,47.43,0,0,0,11.1,5.76c6.79,2.62,18.16,5.75,33.8,5.75a94,94,0,0,0,36.8-7.7A83.52,83.52,0,0,0,439,222.32C438.94,222.74,438.74,223.5,438.58,224Z" transform="translate(-332.28 -178.22)"/><g class="cls-4"><path class="cls-53" d="M342.43,212.78c0-3.8-1.19-8.76-3.92-11.5l.13-.18c.91.72,6,5.18,6,15.08a22.8,22.8,0,0,1-6.23,15.5,26.73,26.73,0,0,1-3.09-4.36C340.23,225.89,342.43,218.73,342.43,212.78Z" transform="translate(-332.28 -178.22)"/></g><path class="cls-54" d="M338.21,201.79c2.21,2.7,2.78,6.51,2.2,10.62-.7,5-3.06,9.07-7.21,10.58a18.15,18.15,0,0,1-.92-5.49C332.28,212.8,334.31,207.23,338.21,201.79Z" transform="translate(-332.28 -178.22)"/><path class="cls-6" d="M337.62,205.34c1,.49.92,1.94.32,3.48s-1.52,2.59-2.49,2.11-.92-1.94-.32-3.48S336.61,204.84,337.62,205.34Z" transform="translate(-332.28 -178.22)"/><path class="cls-6" d="M334.82,211.91c.8.14,1.05.82,1,1.6s-.47,1.35-1.24,1.21-1.05-.82-1-1.59S334,211.77,334.82,211.91Z" transform="translate(-332.28 -178.22)"/><path class="cls-55" d="M445.41,213.73c-4-.23-9.86.1-11.48,1.73s5.26,4.46,11.2,5.32,11.15.52,7.52-2.74S446.27,213.78,445.41,213.73Z" transform="translate(-332.28 -178.22)"/><path class="cls-56" d="M433.93,215.46a4.05,4.05,0,0,1,1.54-.87c-.48,2.2,6.12,4.34,13.77,4.89,2.55.18,3.75-.13,4.14-.67,2,2.54-2.82,2.76-8.25,2C439.19,219.92,432.3,217.08,433.93,215.46Z" transform="translate(-332.28 -178.22)"/><path class="cls-57" d="M449.94,216.45c-1.86-1.18-3-2.19-4.5-2.44a33.61,33.61,0,0,0-7.69.39c-1.69.36,3.51,2.83,6.44,3.3S453.24,218.53,449.94,216.45Z" transform="translate(-332.28 -178.22)"/><path class="cls-58" d="M426.6,190.08s7.54,6,11.12,12.23c0,0,5.72-3.6,8.75-6.11C450.1,193.17,448.2,187,426.6,190.08Z" transform="translate(-332.28 -178.22)"/><path class="cls-59" d="M430.85,189.57c-1.32,4.68,4.67,8,9.81,7.45,6.18-.66,6.83-3.4,6.46-5.32,1.41,1.45.85,3.24-.65,4.5-3,2.51-8.75,6.11-8.75,6.11-3.58-6.22-11.12-12.23-11.12-12.23C428.11,189.87,429.52,189.7,430.85,189.57Z" transform="translate(-332.28 -178.22)"/><path class="cls-60" d="M432.66,191.66c-.17,2,2.68,3.36,6.34,3.66s6.73-.67,6.9-2.55-2.72-3-6.38-3.27S432.83,189.71,432.66,191.66Z" transform="translate(-332.28 -178.22)"/><path class="cls-6" d="M436.5,190.5c0,.61,1,.86,2.24.89s2.21-.22,2.19-.81-1-.86-2.24-.89S436.48,189.89,436.5,190.5Z" transform="translate(-332.28 -178.22)"/><path class="cls-6" d="M441.56,190.84c-.16.43.22.7.77.83s1.05.05,1.2-.37-.23-.7-.77-.82S441.71,190.41,441.56,190.84Z" transform="translate(-332.28 -178.22)"/><path class="cls-61" d="M423.51,241.47s9-6.34,12.62-12.56c0,0,3.89,2,9.25,5.34C449.91,237.09,443.15,244.9,423.51,241.47Z" transform="translate(-332.28 -178.22)"/><path class="cls-62" d="M436.13,228.91s.46.23,1.3.68a8,8,0,0,0-4.46,7.16c.1,3.82,6.45,4.44,12,2.48-3,2.43-10.08,4.24-21.51,2.24C423.51,241.47,432.55,235.13,436.13,228.91Z" transform="translate(-332.28 -178.22)"/><path class="cls-63" d="M436.3,231.36c-.93,1.59-1.05,4.25,2.27,5.69,2.5,1.45,5.86,1.1,6.76-.43s-1.21-2.83-3.7-4.28S437.24,229.78,436.3,231.36Z" transform="translate(-332.28 -178.22)"/><path class="cls-6" d="M438.3,231.69c-.24.56.56,1.21,1.66,1.75s2.1.73,2.33.19-.57-1.21-1.67-1.75S438.53,231.13,438.3,231.69Z" transform="translate(-332.28 -178.22)"/><path class="cls-6" d="M442.64,234.06c-.26.37.05.73.54,1s1,.31,1.25-.05,0-.73-.53-1S442.9,233.68,442.64,234.06Z" transform="translate(-332.28 -178.22)"/></g></g></svg>