<svg xmlns="http://www.w3.org/2000/svg" xmlns:xlink="http://www.w3.org/1999/xlink" viewBox="0 0 144.53 94.32"><defs><style>.cls-1{isolation:isolate;}.cls-2{fill:#4e511a;}.cls-3{fill:#3517ca;}.cls-4{fill:url(#radial-gradient);}.cls-5{fill:url(#radial-gradient-2);}.cls-11,.cls-6{fill:#fff;}.cls-6{opacity:0.1;}.cls-11,.cls-16,.cls-21,.cls-22,.cls-27,.cls-28,.cls-6{mix-blend-mode:overlay;}.cls-7{fill:url(#radial-gradient-3);}.cls-8{fill:url(#radial-gradient-4);}.cls-9{fill:url(#radial-gradient-5);}.cls-10{fill:url(#radial-gradient-6);}.cls-11{opacity:0.3;}.cls-12,.cls-15{fill:#85afaf;}.cls-12{mix-blend-mode:multiply;}.cls-13{fill:url(#radial-gradient-7);}.cls-14{opacity:0.5;mix-blend-mode:screen;fill:url(#radial-gradient-8);}.cls-16{fill:url(#linear-gradient);}.cls-17{fill:url(#radial-gradient-9);}.cls-18{fill:url(#radial-gradient-10);}.cls-19{fill:#273141;}.cls-20{fill:url(#radial-gradient-11);}.cls-21{fill:url(#linear-gradient-2);}.cls-22{fill:url(#linear-gradient-3);}.cls-23{fill:url(#radial-gradient-12);}.cls-24{fill:#6d2616;}.cls-25{fill:#8c050c;}.cls-26{fill:#a2e4ff;opacity:0.17;}.cls-27{fill:url(#linear-gradient-4);}.cls-28{fill:url(#linear-gradient-5);}</style><radialGradient id="radial-gradient" cx="290" cy="389.05" r="20.79" gradientUnits="userSpaceOnUse"><stop offset="0" stop-color="#00cbff"/><stop offset="0.13" stop-color="#00b7f3"/><stop offset="0.41" stop-color="#0083d5"/><stop offset="0.59" stop-color="#005cbf"/><stop offset="1" stop-color="#002479"/></radialGradient><radialGradient id="radial-gradient-2" cx="304.37" cy="421.76" r="48.34" xlink:href="#radial-gradient"/><radialGradient id="radial-gradient-3" cx="288.21" cy="404.4" r="33.62" xlink:href="#radial-gradient"/><radialGradient id="radial-gradient-4" cx="350.87" cy="399.33" r="17.16" xlink:href="#radial-gradient"/><radialGradient id="radial-gradient-5" cx="305.09" cy="431.49" r="45.53" xlink:href="#radial-gradient"/><radialGradient id="radial-gradient-6" cx="304.58" cy="431.46" r="45.87" xlink:href="#radial-gradient"/><radialGradient id="radial-gradient-7" cx="242.81" cy="420.34" r="14.26" xlink:href="#radial-gradient"/><radialGradient id="radial-gradient-8" cx="241.04" cy="420.34" r="13.52" gradientUnits="userSpaceOnUse"><stop offset="0" stop-color="#00cbff"/><stop offset="0.09" stop-color="#00c3fa"/><stop offset="0.23" stop-color="#00aced"/><stop offset="0.4" stop-color="#0086d7"/><stop offset="0.57" stop-color="#005cbf"/><stop offset="1" stop-color="#002479"/></radialGradient><linearGradient id="linear-gradient" x1="265.04" y1="402.12" x2="318.47" y2="402.12" gradientUnits="userSpaceOnUse"><stop offset="0" stop-color="#fff" stop-opacity="0"/><stop offset="1" stop-color="#00c9f1"/></linearGradient><radialGradient id="radial-gradient-9" cx="310.83" cy="444.4" r="30.32" xlink:href="#radial-gradient"/><radialGradient id="radial-gradient-10" cx="314.15" cy="440.58" r="26.97" xlink:href="#radial-gradient"/><radialGradient id="radial-gradient-11" cx="292.6" cy="458.96" r="5.66" xlink:href="#radial-gradient"/><linearGradient id="linear-gradient-2" x1="242.95" y1="399.92" x2="252.08" y2="399.92" xlink:href="#linear-gradient"/><linearGradient id="linear-gradient-3" x1="227.01" y1="440.66" x2="239.27" y2="440.66" xlink:href="#linear-gradient"/><radialGradient id="radial-gradient-12" cx="240.2" cy="419.73" r="8.39" xlink:href="#radial-gradient"/><linearGradient id="linear-gradient-4" x1="298.06" y1="433.01" x2="331" y2="433.01" xlink:href="#linear-gradient"/><linearGradient id="linear-gradient-5" x1="323.5" y1="443.92" x2="338.97" y2="443.92" xlink:href="#linear-gradient"/></defs><title>Безымянный-2</title><g class="cls-1"><g id="Слой_1" data-name="Слой 1"><polygon class="cls-2" points="68.48 84.79 66.27 84.36 69.58 68.21 71.78 68.64 68.48 84.79"/><path class="cls-3" d="M264.51,402.81s19-26.25,40.67-28.32,2.54,29.21,2.54,29.21Z" transform="translate(-225.23 -374.39)"/><path class="cls-4" d="M264.51,402.81s19-26.25,40.67-28.32,2.54,29.21,2.54,29.21Z" transform="translate(-225.23 -374.39)"/><path class="cls-5" d="M241.74,398.63c6.21-.24,11.57,9.3,12,21.3s-4.32,21.91-10.53,22.15c20,7.56,33.4,10,69.56,2.59,12-2.48,24.09-5.93,35.2-11.27,6.21-3,19.35-9.22,19.06-17.76-.14-4.36-5.26-5.83-8.74-6.64-8-1.87-17.91,2.5-25.16-1.25-10.67-5.51-16.85-8.39-23.59-10.42a64.89,64.89,0,0,0-38.79,0C253.74,402.74,247.78,398.05,241.74,398.63Z" transform="translate(-225.23 -374.39)"/><path class="cls-6" d="M238.69,396.54c6.21-.23,11.56,9.3,12,21.3s-4.32,21.91-10.53,22.15c20,7.56,33.39,10,69.56,2.6,12.05-2.48,24.08-5.93,35.2-11.28,6.2-3,19.34-9.22,19.06-17.76-.14-4.36-5.26-5.83-8.75-6.64-8-1.87-17.91,2.5-25.15-1.24-10.68-5.52-16.85-8.4-23.59-10.43a65,65,0,0,0-38.79,0C250.68,400.66,244.72,396,238.69,396.54Z" transform="translate(-225.23 -374.39)"/><path class="cls-7" d="M334.68,408.43a12.26,12.26,0,0,1-1.59-.68c-10.67-5.51-16.85-8.39-23.59-10.42a64.89,64.89,0,0,0-38.79,0c-17,5.42-22.93.73-29,1.31,4.19-.16,8,4.13,10.14,10.61,10,3.2,24.31,5.2,40.21,5.2C309.3,414.44,324.65,412.1,334.68,408.43Z" transform="translate(-225.23 -374.39)"/><path class="cls-8" d="M333.23,408.86c1.45-1.26,15.77-10,21.44-19.12,6.12-9.86,13.51-4.42,14.83-1.46s-3,25.93-3,25.93S324.28,416.62,333.23,408.86Z" transform="translate(-225.23 -374.39)"/><path class="cls-6" d="M333.23,408.86c1.45-1.26,15.77-10,21.44-19.12,6.12-9.86,13.51-4.42,14.83-1.46s-3,25.93-3,25.93S324.28,416.62,333.23,408.86Z" transform="translate(-225.23 -374.39)"/><path class="cls-9" d="M367,415.64a6.13,6.13,0,0,0-.39-1.81c-20.94,21.13-86.53,19.74-113.34,13.59-1.3,8.38-5.24,14.47-10.09,14.66,20,7.56,33.4,10,69.56,2.59,12-2.48,24.09-5.93,35.2-11.27C354.14,430.42,367.28,424.18,367,415.64Z" transform="translate(-225.23 -374.39)"/><path class="cls-10" d="M347.93,428.94c-11.11,5.35-23.15,8.8-35.2,11.28-33,6.8-47.07,5.31-64.49-.75a9.51,9.51,0,0,1-6.09,2.45c20,7.56,34.42,10.2,70.58,2.75,12-2.48,24.09-5.93,35.2-11.27,6.21-3,19.35-9.22,19.06-17.76a4.35,4.35,0,0,0-.39-1.81C364.93,420.07,353.38,426.32,347.93,428.94Z" transform="translate(-225.23 -374.39)"/><path class="cls-11" d="M347.73,428.48c-11.12,5.34-23.15,8.79-35.2,11.27-33,6.8-47.07,5.32-64.49-.74a9.62,9.62,0,0,1-6.09,2.45c20,7.55,34.41,10.19,70.58,2.75,12.05-2.48,24.08-5.93,35.2-11.28,6.2-3,19.34-9.22,19.06-17.76a4.69,4.69,0,0,0-.39-1.81C364.73,419.6,353.17,425.86,347.73,428.48Z" transform="translate(-225.23 -374.39)"/><path class="cls-12" d="M253.7,419.93c-.39-12-5.55-21.54-11.51-21.32l-.64.07c-5.65.88-9.83,10.5-9.45,22.07s5.19,20.85,10.88,21.3h.64C249.58,441.84,254.1,431.93,253.7,419.93Z" transform="translate(-225.23 -374.39)"/><path class="cls-13" d="M251.79,420c-.33-10-4.61-17.88-9.58-17.7l-.53.05c-4.7.74-8.18,8.73-7.86,18.33s4.31,17.31,9.05,17.69h.53C248.36,438.19,252.12,430,251.79,420Z" transform="translate(-225.23 -374.39)"/><path class="cls-14" d="M241.45,438c4.16-1.67,7.1-9.16,6.81-18-.29-8.63-3.54-15.72-7.63-17.35-4.16,1.67-7.1,9.16-6.81,18C234.1,429.31,237.36,436.41,241.45,438Z" transform="translate(-225.23 -374.39)"/><path class="cls-3" d="M292.34,385.15c-14.76-.4-27,7.31-27.3,17.21.15-4.71,12.24-8.22,27-7.82s26.59,4.54,26.44,9.26C318.79,393.89,307.09,385.55,292.34,385.15Z" transform="translate(-225.23 -374.39)"/><path class="cls-15" d="M292.34,385.19c-14.76-.39-27,7.31-27.3,17.22.15-4.72,12.24-8.22,27-7.83s26.59,4.54,26.44,9.26C318.79,393.94,307.09,385.59,292.34,385.19Z" transform="translate(-225.23 -374.39)"/><path class="cls-15" d="M292,394.54c-14.75-.4-26.84,3.11-27,7.82s11.68,8.86,26.44,9.26,26.84-3.11,27-7.82S306.79,394.94,292,394.54Z" transform="translate(-225.23 -374.39)"/><path class="cls-16" d="M292,393.58c-14.75-.4-26.84,3.11-27,7.82s11.68,8.87,26.44,9.26,26.84-3.1,27-7.82S306.79,394,292,393.58Z" transform="translate(-225.23 -374.39)"/><path class="cls-17" d="M273.78,430.36s39.12,32.27,63.31,34.9a10,10,0,0,0,10.44-13.66c-2.63-6.59-8.4-15.55-20.88-25.49C326.65,426.11,268.22,417.93,273.78,430.36Z" transform="translate(-225.23 -374.39)"/><path class="cls-18" d="M326.65,426.11s-32.3-4.52-46.58-1.73c8.38,6.63,40.36,31,61.24,33.24a9.91,9.91,0,0,0,6.92-1.8,10,10,0,0,0-.7-4.22C344.9,445,339.13,436.05,326.65,426.11Z" transform="translate(-225.23 -374.39)"/><path class="cls-19" d="M300.18,458.63c.45,5.11-3,9.61-7.78,10.05s-9-3.36-9.41-8.47,3-9.61,7.78-10S299.73,453.51,300.18,458.63Z" transform="translate(-225.23 -374.39)"/><path class="cls-20" d="M298,458.46a5.69,5.69,0,0,1-4.91,6.35,5.63,5.63,0,0,1-5.94-5.34,5.69,5.69,0,0,1,4.91-6.35A5.63,5.63,0,0,1,298,458.46Z" transform="translate(-225.23 -374.39)"/><path class="cls-12" d="M250.7,388.46c4.5,1.62,6.81,6.19,5.16,10.2s-10,19.21-14.47,17.58-3.49-19.46-1.84-23.47S246.19,386.83,250.7,388.46Z" transform="translate(-225.23 -374.39)"/><path class="cls-21" d="M243.63,390.39s7.09-.15,8.32,5.7-7.23,13.36-7.23,13.36,5.26-8.76,3.21-12.87S241.21,390.84,243.63,390.39Z" transform="translate(-225.23 -374.39)"/><path class="cls-15" d="M232,452.94a8,8,0,0,0,9.54-6.11c.78-4.23,2.11-21.31-2.37-22.17s-13.07,14.81-13.86,19A8.12,8.12,0,0,0,232,452.94Z" transform="translate(-225.23 -374.39)"/><path class="cls-22" d="M227.37,447.77s5.64,3.66,9.71-.7,1.22-15,1.22-15-.39,10.07-4.2,12.54S225.67,446.18,227.37,447.77Z" transform="translate(-225.23 -374.39)"/><path class="cls-3" d="M245.62,420.27c.67-5.78-1.22-10.73-4.21-11.06l-.32,0c-2.88,0-5.66,4.32-6.31,9.88s1.09,10.38,3.9,11l.32.06C242,430.46,245,426.05,245.62,420.27Z" transform="translate(-225.23 -374.39)"/><path class="cls-23" d="M245.62,420.33c.67-5.78-1.22-10.73-4.21-11.06l-.32,0c-2.88,0-5.66,4.32-6.31,9.88s1.09,10.37,3.9,11l.32.05C242,430.52,245,426.11,245.62,420.33Z" transform="translate(-225.23 -374.39)"/><path class="cls-24" d="M238.68,430.08a3.65,3.65,0,0,0,2.81-1.14,9.43,9.43,0,0,0,1.76-2.55,20.89,20.89,0,0,0,1.54-12.28c-.44-2.11-1.33-4.31-3.38-4.9,2.29.06,3.72,2.46,4.37,4.64a15.61,15.61,0,0,1,.58,3.32,22.12,22.12,0,0,1-.11,3.36,16.44,16.44,0,0,1-2.11,6.36,8.8,8.8,0,0,1-2.25,2.54C240.8,430.06,239.89,430.52,238.68,430.08Z" transform="translate(-225.23 -374.39)"/><path class="cls-25" d="M243.31,420c.38-3.3-.7-6.14-2.41-6.33h-.19c-1.65,0-3.24,2.47-3.61,5.66s.62,5.94,2.23,6.3l.18,0C241.23,425.85,242.92,423.32,243.31,420Z" transform="translate(-225.23 -374.39)"/><path class="cls-26" d="M282.63,386.9c-.72.2-1.35.4-1.84.59a20.26,20.26,0,0,0-10.51,8.89c-2.07,3.66-2.76,9.39,1.74,10.46,6.44,1.53,6.21-7.52,11.94-10.36s12.3-5.76,10.53-8.6S286.39,385.85,282.63,386.9Z" transform="translate(-225.23 -374.39)"/><path class="cls-27" d="M331,433c0,2.77-7.37,5-16.47,5s-16.47-2.25-16.47-5,7.37-5,16.47-5S331,430.24,331,433Z" transform="translate(-225.23 -374.39)"/><path class="cls-28" d="M339,443.92c0,1.8-3.46,3.27-7.73,3.27s-7.74-1.47-7.74-3.27,3.46-3.27,7.74-3.27S339,442.12,339,443.92Z" transform="translate(-225.23 -374.39)"/></g></g></svg>