<svg xmlns="http://www.w3.org/2000/svg" xmlns:xlink="http://www.w3.org/1999/xlink" viewBox="0 0 144.53 94.32"><defs><style>.cls-1{isolation:isolate;}.cls-2{fill:#4e511a;}.cls-3{fill:url(#radial-gradient);}.cls-4{fill:#b8d9b8;mix-blend-mode:multiply;}.cls-5{fill:url(#radial-gradient-2);}.cls-6{fill:url(#radial-gradient-3);}.cls-7{fill:url(#radial-gradient-4);}.cls-12,.cls-16,.cls-17,.cls-18,.cls-22,.cls-23,.cls-8{mix-blend-mode:overlay;}.cls-8{fill:url(#linear-gradient);}.cls-9{fill:url(#radial-gradient-5);}.cls-10{fill:#3517ca;}.cls-11{fill:#85afaf;}.cls-12{fill:url(#linear-gradient-2);}.cls-13{fill:url(#radial-gradient-6);}.cls-14{fill:#273141;}.cls-15{fill:#3d3a84;}.cls-16{fill:url(#linear-gradient-3);}.cls-17{fill:url(#linear-gradient-4);}.cls-18{fill:url(#linear-gradient-5);}.cls-19{fill:#6d2616;}.cls-20{fill:#8c050c;}.cls-21{fill:#a2e4ff;opacity:0.17;}.cls-22{fill:url(#linear-gradient-6);}.cls-23{fill:url(#linear-gradient-7);}</style><radialGradient id="radial-gradient" cx="390.51" cy="191.35" r="20.79" gradientUnits="userSpaceOnUse"><stop offset="0" stop-color="#67e667"/><stop offset="1" stop-color="#50b360"/></radialGradient><radialGradient id="radial-gradient-2" cx="404.88" cy="224.07" r="48.34" xlink:href="#radial-gradient"/><radialGradient id="radial-gradient-3" cx="401.82" cy="221.98" r="48.34" xlink:href="#radial-gradient"/><radialGradient id="radial-gradient-4" cx="451.38" cy="201.63" r="17.16" xlink:href="#radial-gradient"/><linearGradient id="linear-gradient" x1="342.45" y1="234.41" x2="467.3" y2="234.41" gradientUnits="userSpaceOnUse"><stop offset="0" stop-color="#fff" stop-opacity="0"/><stop offset="1" stop-color="#00c9f1"/></linearGradient><radialGradient id="radial-gradient-5" cx="343.41" cy="222.64" r="17.16" xlink:href="#radial-gradient"/><linearGradient id="linear-gradient-2" x1="365.54" y1="204.43" x2="418.97" y2="204.43" xlink:href="#linear-gradient"/><radialGradient id="radial-gradient-6" cx="411.33" cy="246.7" r="30.32" xlink:href="#radial-gradient"/><linearGradient id="linear-gradient-3" x1="343.45" y1="202.22" x2="352.58" y2="202.22" xlink:href="#linear-gradient"/><linearGradient id="linear-gradient-4" x1="327.51" y1="242.96" x2="339.78" y2="242.96" xlink:href="#linear-gradient"/><linearGradient id="linear-gradient-5" x1="335.15" y1="222.04" x2="346.26" y2="222.04" gradientUnits="userSpaceOnUse"><stop offset="0" stop-color="#fff" stop-opacity="0"/><stop offset="1" stop-color="#ff2088"/></linearGradient><linearGradient id="linear-gradient-6" x1="398.56" y1="235.32" x2="431.51" y2="235.32" xlink:href="#linear-gradient"/><linearGradient id="linear-gradient-7" x1="424" y1="246.23" x2="439.48" y2="246.23" xlink:href="#linear-gradient"/></defs><title>zeleniy</title><g class="cls-1"><g id="Слой_1" data-name="Слой 1"><polygon class="cls-2" points="68.48 84.79 66.27 84.36 69.58 68.21 71.78 68.64 68.48 84.79"/><path class="cls-3" d="M365,205.12s19-26.25,40.66-28.32,2.54,29.2,2.54,29.2Z" transform="translate(-325.73 -176.7)"/><path class="cls-4" d="M365,205.12s19-26.25,40.66-28.32,2.54,29.2,2.54,29.2Z" transform="translate(-325.73 -176.7)"/><path class="cls-5" d="M342.25,200.93c6.21-.23,11.56,9.31,12,21.3s-4.32,21.92-10.53,22.16c20,7.55,33.39,10,69.56,2.59,12-2.48,24.08-5.93,35.2-11.28,6.2-3,19.34-9.21,19.06-17.76-.14-4.35-5.26-5.82-8.75-6.64-8-1.86-17.91,2.5-25.15-1.24-10.68-5.52-16.85-8.39-23.59-10.43a65,65,0,0,0-38.79,0C354.24,205.05,348.28,200.36,342.25,200.93Z" transform="translate(-325.73 -176.7)"/><path class="cls-6" d="M339.2,198.85c6.2-.24,11.56,9.3,11.95,21.3s-4.32,21.91-10.53,22.15c20,7.55,33.4,10,69.56,2.59,12.05-2.48,24.09-5.93,35.2-11.27,6.21-3,19.35-9.22,19.07-17.77-.15-4.35-5.27-5.82-8.75-6.64-8-1.86-17.91,2.5-25.16-1.24-10.67-5.52-16.85-8.39-23.59-10.42a64.89,64.89,0,0,0-38.79,0C351.19,203,345.23,198.27,339.2,198.85Z" transform="translate(-325.73 -176.7)"/><path class="cls-4" d="M432.13,208.63a13.74,13.74,0,0,1-1.59-.67c-10.67-5.52-16.85-8.4-23.59-10.43a65,65,0,0,0-38.79,0c-17,5.43-22.93.73-29,1.31,4.18-.16,8,4.13,10.13,10.62,10,3.19,24.31,5.2,40.21,5.2C406.75,214.65,422.1,212.3,432.13,208.63Z" transform="translate(-325.73 -176.7)"/><path class="cls-7" d="M433.74,211.16c1.45-1.25,15.77-10,21.44-19.12,6.11-9.86,13.5-4.42,14.83-1.45s-3,25.93-3,25.93S424.79,218.93,433.74,211.16Z" transform="translate(-325.73 -176.7)"/><path class="cls-4" d="M433.74,210.83c1.45-1.26,15.77-10,21.44-19.12,6.11-9.86,13.5-4.42,14.83-1.45s-3,25.93-3,25.93S424.79,218.6,433.74,210.83Z" transform="translate(-325.73 -176.7)"/><path class="cls-8" d="M448.23,231.89c-11.11,5.34-23.15,8.79-35.2,11.27-33,6.8-47.07,5.32-64.48-.75a9.62,9.62,0,0,1-6.1,2.46c20,7.55,34.42,10.19,70.58,2.75,12.05-2.48,24.09-5.93,35.2-11.28,6.21-3,19.35-9.22,19.07-17.76a4.52,4.52,0,0,0-.4-1.81C465.23,223,453.68,229.27,448.23,231.89Z" transform="translate(-325.73 -176.7)"/><path class="cls-9" d="M354.21,222.23c-.4-12-5.55-21.54-11.52-21.31l-.64.06c-5.64.88-9.82,10.51-9.44,22.07s5.18,20.85,10.87,21.31h.65C350.09,244.14,354.6,234.23,354.21,222.23Z" transform="translate(-325.73 -176.7)"/><path class="cls-4" d="M467.5,217.94a6.93,6.93,0,0,0-.39-1.81c-20.95,21.14-86.54,19.75-113.34,13.6-1.3,8.38-5.24,14.47-10.09,14.66,20,7.55,33.39,10,69.56,2.59,12-2.48,24.08-5.93,35.2-11.28C454.64,232.72,467.78,226.49,467.5,217.94Z" transform="translate(-325.73 -176.7)"/><path class="cls-4" d="M352.3,222.31c-.33-10-4.62-17.89-9.58-17.7l-.54,0c-4.69.74-8.17,8.73-7.86,18.33s4.32,17.31,9.05,17.68l.54,0C348.87,240.5,352.63,232.27,352.3,222.31Z" transform="translate(-325.73 -176.7)"/><path class="cls-4" d="M342,240.34c4.15-1.68,7.1-9.17,6.8-18-.28-8.63-3.54-15.73-7.63-17.35-4.15,1.67-7.1,9.16-6.81,18C334.61,231.62,337.87,238.71,342,240.34Z" transform="translate(-325.73 -176.7)"/><path class="cls-10" d="M392.84,187.45c-14.75-.39-27,7.32-27.3,17.22.16-4.72,12.24-8.22,27-7.82s26.59,4.54,26.43,9.25C419.3,196.2,407.6,187.85,392.84,187.45Z" transform="translate(-325.73 -176.7)"/><path class="cls-11" d="M392.84,187.5c-14.75-.4-27,7.31-27.29,17.21.15-4.72,12.23-8.22,27-7.82s26.59,4.54,26.44,9.26C419.3,196.24,407.6,187.89,392.84,187.5Z" transform="translate(-325.73 -176.7)"/><path class="cls-11" d="M392.54,196.85c-14.76-.4-26.84,3.1-27,7.82s11.69,8.86,26.44,9.26,26.84-3.11,27-7.83S407.29,197.24,392.54,196.85Z" transform="translate(-325.73 -176.7)"/><path class="cls-12" d="M392.54,195.89c-14.76-.4-26.84,3.1-27,7.82S377.23,212.57,392,213s26.84-3.11,27-7.83S407.29,196.28,392.54,195.89Z" transform="translate(-325.73 -176.7)"/><path class="cls-13" d="M374.28,232.66s39.12,32.27,63.32,34.91A10,10,0,0,0,448,253.9c-2.63-6.58-8.39-15.55-20.88-25.48C427.15,228.42,368.73,220.24,374.28,232.66Z" transform="translate(-325.73 -176.7)"/><path class="cls-4" d="M427.15,228.42s-32.3-4.52-46.58-1.73c8.38,6.63,40.37,31,61.24,33.24a9.93,9.93,0,0,0,6.92-1.8,9.92,9.92,0,0,0-.7-4.23C445.4,247.32,439.64,238.35,427.15,228.42Z" transform="translate(-325.73 -176.7)"/><path class="cls-14" d="M400.69,260.93c.45,5.11-3,9.61-7.78,10.05s-9-3.35-9.41-8.46,3-9.61,7.78-10S400.24,255.82,400.69,260.93Z" transform="translate(-325.73 -176.7)"/><path class="cls-15" d="M398.54,260.77a5.71,5.71,0,0,1-4.92,6.35,5.64,5.64,0,0,1-5.94-5.35,5.47,5.47,0,1,1,10.86-1Z" transform="translate(-325.73 -176.7)"/><path class="cls-11" d="M351.2,190.76c4.51,1.63,6.82,6.2,5.17,10.21s-10,19.2-14.47,17.58-3.49-19.46-1.84-23.47S346.7,189.14,351.2,190.76Z" transform="translate(-325.73 -176.7)"/><path class="cls-16" d="M344.13,192.69s7.1-.14,8.33,5.71-7.23,13.35-7.23,13.35,5.25-8.75,3.2-12.86S341.71,193.15,344.13,192.69Z" transform="translate(-325.73 -176.7)"/><path class="cls-11" d="M332.55,255.24a8,8,0,0,0,9.53-6.1c.79-4.24,2.11-21.31-2.37-22.17S326.64,241.78,325.86,246A8.09,8.09,0,0,0,332.55,255.24Z" transform="translate(-325.73 -176.7)"/><path class="cls-17" d="M327.88,250.08s5.63,3.66,9.7-.7,1.23-15,1.23-15-.39,10.07-4.2,12.54S326.17,248.48,327.88,250.08Z" transform="translate(-325.73 -176.7)"/><path class="cls-10" d="M346.13,222.58c.66-5.78-1.22-10.73-4.21-11.06l-.33,0c-2.88,0-5.66,4.31-6.3,9.88s1.09,10.37,3.89,11l.32.05C342.49,232.77,345.46,228.35,346.13,222.58Z" transform="translate(-325.73 -176.7)"/><path class="cls-18" d="M346.13,222.64c.66-5.78-1.22-10.73-4.21-11.06l-.33,0c-2.88,0-5.66,4.31-6.3,9.88s1.09,10.37,3.89,11l.32.05C342.49,232.83,345.46,228.41,346.13,222.64Z" transform="translate(-325.73 -176.7)"/><path class="cls-19" d="M339.18,232.39a3.61,3.61,0,0,0,2.81-1.15,9,9,0,0,0,1.76-2.54,20.91,20.91,0,0,0,1.54-12.29c-.44-2.1-1.32-4.3-3.37-4.89,2.28,0,3.71,2.46,4.36,4.64a15,15,0,0,1,.58,3.32,19.87,19.87,0,0,1-.11,3.36,16.17,16.17,0,0,1-2.11,6.35,8.54,8.54,0,0,1-2.24,2.55C341.31,232.36,340.39,232.83,339.18,232.39Z" transform="translate(-325.73 -176.7)"/><path class="cls-20" d="M343.81,222.32c.38-3.31-.7-6.14-2.41-6.33h-.19c-1.65,0-3.24,2.47-3.6,5.66s.62,5.93,2.22,6.3l.19,0C341.73,228.16,343.43,225.63,343.81,222.32Z" transform="translate(-325.73 -176.7)"/><path class="cls-21" d="M383.14,189.2c-.73.21-1.35.41-1.84.59a20.32,20.32,0,0,0-10.52,8.89c-2.07,3.66-2.76,9.4,1.75,10.47,6.43,1.53,6.21-7.52,11.94-10.36s12.29-5.77,10.53-8.6S386.89,188.16,383.14,189.2Z" transform="translate(-325.73 -176.7)"/><path class="cls-22" d="M431.51,235.32c0,2.77-7.38,5-16.47,5s-16.48-2.25-16.48-5,7.38-5,16.48-5S431.51,232.55,431.51,235.32Z" transform="translate(-325.73 -176.7)"/><path class="cls-23" d="M439.48,246.23c0,1.8-3.47,3.26-7.74,3.26S424,248,424,246.23s3.47-3.27,7.74-3.27S439.48,244.42,439.48,246.23Z" transform="translate(-325.73 -176.7)"/></g></g></svg>