<svg xmlns="http://www.w3.org/2000/svg" xmlns:xlink="http://www.w3.org/1999/xlink" viewBox="0 0 144.53 94.32"><defs><style>.cls-1{isolation:isolate;}.cls-2{fill:#4e511a;}.cls-3{fill:url(#Безымянный_градиент_167);}.cls-4{fill:url(#Безымянный_градиент_167-2);}.cls-5{fill:url(#Безымянный_градиент_167-3);}.cls-6{fill:url(#Безымянный_градиент_167-4);}.cls-7{fill:url(#Безымянный_градиент_167-5);}.cls-8{fill:url(#Безымянный_градиент_166);}.cls-12,.cls-9{fill:#85afaf;}.cls-9{mix-blend-mode:multiply;}.cls-10{fill:url(#Безымянный_градиент_166-2);}.cls-11{fill:url(#Безымянный_градиент_166-3);}.cls-13{fill:url(#Безымянный_градиент_167-6);}.cls-14{fill:url(#Безымянный_градиент_167-7);}.cls-15{fill:url(#Безымянный_градиент_167-8);}.cls-16,.cls-17,.cls-18,.cls-27{mix-blend-mode:screen;}.cls-16{fill:url(#Безымянный_градиент_165);}.cls-17{fill:url(#Безымянный_градиент_165-2);}.cls-18{fill:url(#Безымянный_градиент_165-3);}.cls-19{fill:#273141;}.cls-20,.cls-21,.cls-22,.cls-26{mix-blend-mode:overlay;}.cls-20{fill:url(#linear-gradient);}.cls-21{fill:url(#linear-gradient-2);}.cls-22{fill:url(#linear-gradient-3);}.cls-23{fill:#e04613;}.cls-24{fill:#6d2616;}.cls-25{fill:#8c050c;}.cls-26{fill:url(#linear-gradient-4);}.cls-27{fill:#fede00;opacity:0.4;}</style><radialGradient id="Безымянный_градиент_167" cx="390.42" cy="190.94" r="20.79" gradientUnits="userSpaceOnUse"><stop offset="0" stop-color="#ffe45e"/><stop offset="1" stop-color="#f2710b"/></radialGradient><radialGradient id="Безымянный_градиент_167-2" cx="404.79" cy="223.66" r="48.34" xlink:href="#Безымянный_градиент_167"/><radialGradient id="Безымянный_градиент_167-3" cx="388.63" cy="206.3" r="33.62" xlink:href="#Безымянный_градиент_167"/><radialGradient id="Безымянный_градиент_167-4" cx="451.29" cy="201.23" r="17.16" xlink:href="#Безымянный_градиент_167"/><radialGradient id="Безымянный_градиент_167-5" cx="405.51" cy="233.39" r="45.53" xlink:href="#Безымянный_градиент_167"/><linearGradient id="Безымянный_градиент_166" x1="342.57" y1="233.36" x2="467.42" y2="233.36" gradientUnits="userSpaceOnUse"><stop offset="0" stop-color="#ff7a25"/><stop offset="0.29" stop-color="#da562c"/><stop offset="0.77" stop-color="#a42235"/><stop offset="1" stop-color="#8f0d39"/></linearGradient><linearGradient id="Безымянный_градиент_166-2" x1="334.22" y1="222.24" x2="352.23" y2="222.24" xlink:href="#Безымянный_градиент_166"/><linearGradient id="Безымянный_градиент_166-3" x1="334.22" y1="222.24" x2="348.7" y2="222.24" xlink:href="#Безымянный_градиент_166"/><radialGradient id="Безымянный_градиент_167-6" cx="392.17" cy="204.98" r="19.84" xlink:href="#Безымянный_градиент_167"/><radialGradient id="Безымянный_градиент_167-7" cx="411.25" cy="246.29" r="30.32" xlink:href="#Безымянный_градиент_167"/><radialGradient id="Безымянный_градиент_167-8" cx="414.57" cy="242.48" r="26.97" xlink:href="#Безымянный_градиент_167"/><linearGradient id="Безымянный_градиент_165" x1="342.17" y1="206.3" x2="435.1" y2="206.3" gradientUnits="userSpaceOnUse"><stop offset="0" stop-color="#635d20"/><stop offset="0.62" stop-color="#22200b"/><stop offset="1"/></linearGradient><linearGradient id="Безымянный_градиент_165-2" x1="344.31" y1="233.04" x2="468.13" y2="233.04" xlink:href="#Безымянный_градиент_165"/><linearGradient id="Безымянный_градиент_165-3" x1="380.49" y1="242.48" x2="448.66" y2="242.48" xlink:href="#Безымянный_градиент_165"/><linearGradient id="linear-gradient" x1="387.57" y1="260.86" x2="398.48" y2="260.86" gradientUnits="userSpaceOnUse"><stop offset="0" stop-color="#fff" stop-opacity="0"/><stop offset="1" stop-color="#00c9f1"/></linearGradient><linearGradient id="linear-gradient-2" x1="343.37" y1="201.82" x2="352.5" y2="201.82" xlink:href="#linear-gradient"/><linearGradient id="linear-gradient-3" x1="327.43" y1="242.55" x2="339.69" y2="242.55" xlink:href="#linear-gradient"/><linearGradient id="linear-gradient-4" x1="369.09" y1="198.35" x2="395.2" y2="198.35" xlink:href="#linear-gradient"/></defs><title>oranjeviy</title><g class="cls-1"><g id="Слой_1" data-name="Слой 1"><polygon class="cls-2" points="68.48 84.79 66.27 84.36 69.58 68.21 71.78 68.64 68.48 84.79"/><path class="cls-3" d="M364.93,204.71s19-26.25,40.67-28.32,2.54,29.21,2.54,29.21Z" transform="translate(-325.65 -176.29)"/><path class="cls-4" d="M342.17,200.53c6.2-.24,11.56,9.3,11.95,21.3S349.8,243.74,343.59,244c20,7.55,33.4,10,69.56,2.59,12.05-2.48,24.09-5.93,35.2-11.27,6.21-3,19.35-9.22,19.07-17.76-.15-4.36-5.27-5.83-8.75-6.64-8-1.87-17.91,2.5-25.16-1.25-10.67-5.52-16.85-8.39-23.59-10.42a64.89,64.89,0,0,0-38.79,0C354.16,204.64,348.2,200,342.17,200.53Z" transform="translate(-325.65 -176.29)"/><path class="cls-5" d="M435.1,210.33a12.26,12.26,0,0,1-1.59-.68c-10.67-5.52-16.85-8.39-23.59-10.42a64.89,64.89,0,0,0-38.79,0c-17,5.42-22.93.73-29,1.31,4.18-.16,8,4.13,10.13,10.61,10,3.2,24.31,5.2,40.21,5.2C409.72,216.34,425.07,214,435.1,210.33Z" transform="translate(-325.65 -176.29)"/><path class="cls-6" d="M433.65,210.76c1.45-1.26,15.77-10,21.44-19.12,6.12-9.87,13.51-4.43,14.83-1.46s-3,25.93-3,25.93S424.7,218.52,433.65,210.76Z" transform="translate(-325.65 -176.29)"/><path class="cls-7" d="M467.42,217.54a6.47,6.47,0,0,0-.4-1.81c-20.94,21.13-86.53,19.74-113.33,13.59-1.31,8.38-5.25,14.47-10.1,14.66,20,7.55,33.4,10,69.56,2.59,12.05-2.48,24.09-5.93,35.2-11.27C454.56,232.32,467.7,226.08,467.42,217.54Z" transform="translate(-325.65 -176.29)"/><path class="cls-8" d="M448.35,230.84c-11.11,5.35-23.15,8.8-35.2,11.28-33,6.8-47.07,5.31-64.48-.75a9.55,9.55,0,0,1-6.1,2.45c20,7.55,34.42,10.2,70.58,2.75,12.05-2.48,24.09-5.93,35.2-11.27,6.21-3,19.35-9.22,19.07-17.76a4.52,4.52,0,0,0-.4-1.81C465.35,222,453.8,228.22,448.35,230.84Z" transform="translate(-325.65 -176.29)"/><path class="cls-9" d="M354.12,221.83c-.39-12-5.55-21.54-11.51-21.32l-.64.06c-5.65.89-9.83,10.51-9.45,22.08s5.19,20.85,10.88,21.3H344C350,243.73,354.52,233.82,354.12,221.83Z" transform="translate(-325.65 -176.29)"/><path class="cls-10" d="M352.21,221.9c-.33-10-4.61-17.88-9.58-17.7l-.53.05c-4.7.74-8.18,8.73-7.86,18.33s4.31,17.31,9.05,17.69h.53C348.79,240.09,352.54,231.86,352.21,221.9Z" transform="translate(-325.65 -176.29)"/><path class="cls-11" d="M341.87,239.93c4.16-1.67,7.1-9.16,6.81-18-.29-8.63-3.54-15.73-7.63-17.35-4.16,1.67-7.1,9.16-6.81,18C334.52,231.21,337.78,238.31,341.87,239.93Z" transform="translate(-325.65 -176.29)"/><path class="cls-12" d="M392.76,187.05c-14.76-.4-27,7.31-27.3,17.21.15-4.72,12.24-8.22,27-7.82S419,201,418.89,205.7C419.21,195.79,407.51,187.44,392.76,187.05Z" transform="translate(-325.65 -176.29)"/><path class="cls-13" d="M392.45,196.44c-14.75-.4-26.84,3.1-27,7.82s11.68,8.86,26.44,9.26,26.84-3.11,27-7.82S407.21,196.83,392.45,196.44Z" transform="translate(-325.65 -176.29)"/><path class="cls-14" d="M374.2,232.26s39.12,32.26,63.31,34.9A10,10,0,0,0,448,253.5c-2.63-6.59-8.4-15.55-20.88-25.49C427.07,228,368.64,219.83,374.2,232.26Z" transform="translate(-325.65 -176.29)"/><path class="cls-15" d="M427.07,228s-32.3-4.52-46.58-1.73c8.38,6.63,40.36,31,61.24,33.24a10,10,0,0,0,6.92-1.8,10,10,0,0,0-.7-4.22C445.32,246.91,439.55,238,427.07,228Z" transform="translate(-325.65 -176.29)"/><path class="cls-16" d="M435.1,210.33a12.26,12.26,0,0,1-1.59-.68c-10.67-5.52-16.85-8.39-23.59-10.42a64.89,64.89,0,0,0-38.79,0c-17,5.42-22.93.73-29,1.31,4.18-.16,8,4.13,10.13,10.61,10,3.2,24.31,5.2,40.21,5.2C409.72,216.34,425.07,214,435.1,210.33Z" transform="translate(-325.65 -176.29)"/><path class="cls-17" d="M468.13,217.19a6.47,6.47,0,0,0-.4-1.81C446.79,236.51,381.2,235.12,354.4,229c-1.3,8.38-5.24,14.47-10.09,14.66,20,7.55,33.39,10,69.56,2.59,12-2.48,24.08-5.93,35.2-11.27C455.27,232,468.41,225.73,468.13,217.19Z" transform="translate(-325.65 -176.29)"/><path class="cls-18" d="M427.07,228s-32.3-4.52-46.58-1.73c8.38,6.63,40.36,31,61.24,33.24a10,10,0,0,0,6.92-1.8,10,10,0,0,0-.7-4.22C445.32,246.91,439.55,238,427.07,228Z" transform="translate(-325.65 -176.29)"/><path class="cls-19" d="M400.6,260.53c.45,5.11-3,9.61-7.78,10s-9-3.35-9.41-8.46,3-9.61,7.78-10.05S400.15,255.41,400.6,260.53Z" transform="translate(-325.65 -176.29)"/><path class="cls-20" d="M398.45,260.36a5.7,5.7,0,0,1-4.91,6.35,5.88,5.88,0,1,1,4.91-6.35Z" transform="translate(-325.65 -176.29)"/><path class="cls-12" d="M351.12,190.36c4.5,1.62,6.81,6.19,5.16,10.2s-10,19.2-14.47,17.58-3.49-19.46-1.84-23.47S346.61,188.73,351.12,190.36Z" transform="translate(-325.65 -176.29)"/><path class="cls-21" d="M344.05,192.29s7.09-.15,8.32,5.7-7.23,13.36-7.23,13.36,5.26-8.76,3.21-12.87S341.63,192.74,344.05,192.29Z" transform="translate(-325.65 -176.29)"/><path class="cls-12" d="M332.46,254.84a8,8,0,0,0,9.54-6.11c.78-4.23,2.11-21.31-2.37-22.17s-13.07,14.81-13.86,19.05A8.12,8.12,0,0,0,332.46,254.84Z" transform="translate(-325.65 -176.29)"/><path class="cls-22" d="M327.79,249.67s5.64,3.66,9.71-.7,1.22-15,1.22-15-.38,10.07-4.2,12.54S326.09,248.08,327.79,249.67Z" transform="translate(-325.65 -176.29)"/><path class="cls-23" d="M346,222.17c.67-5.78-1.22-10.73-4.21-11.06l-.32,0c-2.88,0-5.66,4.32-6.31,9.88s1.09,10.37,3.9,11l.32.05C342.41,232.36,345.38,228,346,222.17Z" transform="translate(-325.65 -176.29)"/><path class="cls-24" d="M339.1,232a3.65,3.65,0,0,0,2.81-1.14,9.43,9.43,0,0,0,1.76-2.55A20.91,20.91,0,0,0,345.21,216c-.44-2.1-1.33-4.3-3.38-4.89,2.29.06,3.72,2.46,4.37,4.64a15.61,15.61,0,0,1,.58,3.32,22.16,22.16,0,0,1-.11,3.36,16.44,16.44,0,0,1-2.11,6.36,8.8,8.8,0,0,1-2.25,2.54C341.23,232,340.31,232.42,339.1,232Z" transform="translate(-325.65 -176.29)"/><path class="cls-25" d="M343.73,221.91c.38-3.3-.7-6.14-2.41-6.33h-.19c-1.65,0-3.24,2.47-3.61,5.66s.62,5.94,2.23,6.3l.18,0C341.65,227.75,343.34,225.22,343.73,221.91Z" transform="translate(-325.65 -176.29)"/><path class="cls-26" d="M383.05,188.8c-.72.2-1.35.4-1.84.58a20.32,20.32,0,0,0-10.51,8.9c-2.07,3.65-2.76,9.39,1.74,10.46,6.44,1.53,6.21-7.52,11.94-10.36s12.3-5.76,10.53-8.6S386.81,187.75,383.05,188.8Z" transform="translate(-325.65 -176.29)"/><path class="cls-27" d="M431.42,234.91c0,2.77-7.37,5-16.47,5s-16.47-2.25-16.47-5,7.37-5,16.47-5S431.42,232.14,431.42,234.91Z" transform="translate(-325.65 -176.29)"/><path class="cls-27" d="M439.39,245.82c0,1.8-3.46,3.27-7.73,3.27s-7.74-1.47-7.74-3.27,3.46-3.27,7.74-3.27S439.39,244,439.39,245.82Z" transform="translate(-325.65 -176.29)"/></g></g></svg>