<svg xmlns="http://www.w3.org/2000/svg" xmlns:xlink="http://www.w3.org/1999/xlink" viewBox="0 0 144.53 94.32"><defs><style>.cls-1{isolation:isolate;}.cls-2{fill:#4e511a;}.cls-3{fill:#c700cd;}.cls-4{fill:#ffdb00;opacity:0.3;}.cls-16,.cls-4{mix-blend-mode:screen;}.cls-5{fill:#752912;}.cls-6{fill:#c05211;}.cls-7{fill:#85afaf;}.cls-8{mix-blend-mode:overlay;fill:url(#linear-gradient);}.cls-9{fill:#273141;}.cls-10{fill:#3d3a84;}.cls-11{fill:#41afde;mix-blend-mode:multiply;}.cls-11,.cls-16{opacity:0.4;}.cls-12{fill:#e04613;}.cls-13{fill:#6d2616;}.cls-14{fill:#8c050c;}.cls-15{fill:#a2e4ff;opacity:0.17;}.cls-16{fill:#fede00;}</style><linearGradient id="linear-gradient" x1="365.29" y1="204.47" x2="418.72" y2="204.47" gradientUnits="userSpaceOnUse"><stop offset="0" stop-color="#fff" stop-opacity="0"/><stop offset="1" stop-color="#00c9f1"/></linearGradient></defs><title>rozoviy</title><g class="cls-1"><g id="Слой_1" data-name="Слой 1"><polygon class="cls-2" points="68.48 84.79 66.27 84.36 69.58 68.21 71.78 68.64 68.48 84.79"/><path class="cls-3" d="M365,204.21s19-26.25,40.66-28.33,2.54,29.21,2.54,29.21Z" transform="translate(-325.73 -175.79)"/><path class="cls-3" d="M342.25,200c6.21-.23,11.56,9.3,12,21.3s-4.32,21.92-10.53,22.15c20,7.56,33.39,10,69.56,2.6,12-2.48,24.08-5.93,35.2-11.28,6.2-3,19.34-9.22,19.06-17.76-.14-4.35-5.26-5.83-8.75-6.64-8-1.87-17.91,2.5-25.15-1.24-10.68-5.52-16.85-8.4-23.59-10.43a65,65,0,0,0-38.79,0C354.24,204.14,348.28,199.45,342.25,200Z" transform="translate(-325.73 -175.79)"/><path class="cls-3" d="M435.19,209.83a13.82,13.82,0,0,1-1.59-.68c-10.68-5.52-16.85-8.4-23.59-10.43a65,65,0,0,0-38.79,0c-17,5.43-22.94.74-29,1.31,4.19-.16,8,4.13,10.13,10.62,10,3.19,24.32,5.2,40.22,5.2C409.8,215.84,425.15,213.49,435.19,209.83Z" transform="translate(-325.73 -175.79)"/><path class="cls-4" d="M435.19,209.9a12.26,12.26,0,0,1-1.59-.68c-10.68-5.51-16.85-8.39-23.59-10.42a65,65,0,0,0-38.79,0c-17,5.42-22.94.73-29,1.31,4.19-.16,8,4.13,10.13,10.61,10,3.2,24.32,5.2,40.22,5.2C409.8,215.91,425.15,213.57,435.19,209.9Z" transform="translate(-325.73 -175.79)"/><path class="cls-3" d="M433.74,210.25c1.45-1.26,15.77-10,21.44-19.12,6.11-9.86,13.5-4.42,14.83-1.45s-3,25.93-3,25.93S424.79,218,433.74,210.25Z" transform="translate(-325.73 -175.79)"/><path class="cls-3" d="M467.5,217a6.84,6.84,0,0,0-.39-1.81c-20.95,21.13-86.54,19.74-113.34,13.59-1.3,8.38-5.24,14.48-10.09,14.66,20,7.56,33.39,10,69.56,2.6,12-2.48,24.08-5.93,35.2-11.28C454.64,231.81,467.78,225.57,467.5,217Z" transform="translate(-325.73 -175.79)"/><path class="cls-4" d="M466.79,213.53a6.55,6.55,0,0,0-.4-1.81c-20.94,21.14-86.53,19.75-113.33,13.6-1.31,8.38-5.24,14.47-10.1,14.66,20,7.55,33.4,10,69.56,2.59,12.05-2.48,24.09-5.93,35.2-11.27C453.93,228.31,467.07,222.08,466.79,213.53Z" transform="translate(-325.73 -175.79)"/><path class="cls-3" d="M448.44,230.34c-11.12,5.34-23.16,8.79-35.2,11.27-33,6.8-47.07,5.32-64.49-.74a9.64,9.64,0,0,1-6.09,2.45c20,7.55,34.41,10.19,70.58,2.75,12-2.48,24.08-5.93,35.2-11.28,6.2-3,19.34-9.22,19.06-17.76a4.69,4.69,0,0,0-.39-1.81C465.44,221.46,453.88,227.72,448.44,230.34Z" transform="translate(-325.73 -175.79)"/><path class="cls-3" d="M354.21,221.32c-.4-12-5.55-21.54-11.52-21.31l-.64.06c-5.64.88-9.82,10.51-9.44,22.07s5.18,20.85,10.87,21.3l.65,0C350.09,243.23,354.6,233.32,354.21,221.32Z" transform="translate(-325.73 -175.79)"/><path class="cls-5" d="M352.3,221.39c-.33-10-4.62-17.88-9.58-17.69l-.54.05c-4.69.73-8.17,8.72-7.86,18.33s4.32,17.31,9.05,17.68l.54,0C348.87,239.58,352.63,231.36,352.3,221.39Z" transform="translate(-325.73 -175.79)"/><path class="cls-6" d="M342,239.42c4.15-1.67,7.1-9.16,6.8-18-.28-8.62-3.54-15.72-7.63-17.34-4.15,1.67-7.1,9.16-6.81,18C334.61,230.71,337.87,237.8,342,239.42Z" transform="translate(-325.73 -175.79)"/><path class="cls-3" d="M392.84,186.54c-14.75-.39-27,7.31-27.3,17.22.16-4.72,12.24-8.22,27-7.83s26.59,4.54,26.43,9.26C419.3,195.29,407.6,186.94,392.84,186.54Z" transform="translate(-325.73 -175.79)"/><path class="cls-7" d="M392.59,186.54c-14.76-.39-27,7.31-27.3,17.22.15-4.72,12.24-8.22,27-7.83s26.59,4.54,26.44,9.26C419,195.29,407.34,186.94,392.59,186.54Z" transform="translate(-325.73 -175.79)"/><path class="cls-7" d="M392.54,195.93c-14.76-.39-26.84,3.11-27,7.83S377.23,212.62,392,213s26.84-3.11,27-7.83S407.29,196.33,392.54,195.93Z" transform="translate(-325.73 -175.79)"/><path class="cls-8" d="M392.28,195.93c-14.75-.39-26.83,3.11-27,7.83S377,212.62,391.73,213s26.84-3.11,27-7.83S407,196.33,392.28,195.93Z" transform="translate(-325.73 -175.79)"/><path class="cls-3" d="M374.28,231.75S413.4,264,437.6,266.65A10,10,0,0,0,448,253c-2.63-6.58-8.39-15.55-20.88-25.48C427.15,227.51,368.73,219.33,374.28,231.75Z" transform="translate(-325.73 -175.79)"/><path class="cls-3" d="M427.15,227.51s-32.3-4.52-46.58-1.73c8.38,6.63,40.37,31,61.24,33.23a9.93,9.93,0,0,0,6.92-1.79A9.87,9.87,0,0,0,448,253C445.4,246.41,439.64,237.44,427.15,227.51Z" transform="translate(-325.73 -175.79)"/><path class="cls-4" d="M427.15,227.58s-32.3-4.51-46.58-1.73c8.38,6.64,40.37,31,61.24,33.24a9.88,9.88,0,0,0,6.92-1.8,9.85,9.85,0,0,0-.7-4.22C445.4,246.48,439.64,237.52,427.15,227.58Z" transform="translate(-325.73 -175.79)"/><path class="cls-9" d="M400.69,260c.45,5.11-3,9.61-7.78,10.05s-9-3.35-9.41-8.46,3-9.61,7.78-10.05S400.24,254.91,400.69,260Z" transform="translate(-325.73 -175.79)"/><path class="cls-10" d="M398.54,259.86a5.71,5.71,0,0,1-4.92,6.35,5.65,5.65,0,0,1-5.94-5.35,5.47,5.47,0,1,1,10.86-1Z" transform="translate(-325.73 -175.79)"/><path class="cls-7" d="M351.2,189.85c4.51,1.63,6.82,6.2,5.17,10.21s-10,19.2-14.47,17.57-3.49-19.45-1.84-23.46S346.7,188.23,351.2,189.85Z" transform="translate(-325.73 -175.79)"/><path class="cls-11" d="M344.13,191.78s7.1-.14,8.33,5.7-7.23,13.36-7.23,13.36,5.25-8.76,3.2-12.86S341.71,192.24,344.13,191.78Z" transform="translate(-325.73 -175.79)"/><path class="cls-7" d="M332.55,254.33a8,8,0,0,0,9.53-6.1c.79-4.24,2.11-21.31-2.37-22.18s-13.07,14.82-13.85,19A8.1,8.1,0,0,0,332.55,254.33Z" transform="translate(-325.73 -175.79)"/><path class="cls-11" d="M327.88,249.16s5.63,3.67,9.7-.7,1.23-15,1.23-15-.39,10.06-4.2,12.54S326.17,247.57,327.88,249.16Z" transform="translate(-325.73 -175.79)"/><path class="cls-12" d="M346.13,221.66c.66-5.77-1.22-10.72-4.21-11.06h-.33c-2.88,0-5.66,4.31-6.3,9.88s1.09,10.37,3.89,11l.32.06C342.49,231.86,345.46,227.44,346.13,221.66Z" transform="translate(-325.73 -175.79)"/><path class="cls-13" d="M339.18,231.47a3.6,3.6,0,0,0,2.81-1.14,9,9,0,0,0,1.76-2.54,20.93,20.93,0,0,0,1.54-12.29c-.44-2.1-1.32-4.3-3.37-4.9,2.28.06,3.71,2.46,4.36,4.65a15,15,0,0,1,.58,3.32,19.72,19.72,0,0,1-.11,3.35,16.22,16.22,0,0,1-2.11,6.36,8.5,8.5,0,0,1-2.24,2.54C341.31,231.45,340.39,231.91,339.18,231.47Z" transform="translate(-325.73 -175.79)"/><path class="cls-14" d="M343.81,221.41c.38-3.31-.7-6.14-2.41-6.33h-.19c-1.65,0-3.24,2.47-3.6,5.65s.62,5.94,2.22,6.31l.19,0C341.73,227.24,343.43,224.72,343.81,221.41Z" transform="translate(-325.73 -175.79)"/><path class="cls-15" d="M383.14,188.29c-.73.2-1.35.41-1.84.59a20.28,20.28,0,0,0-10.52,8.89c-2.07,3.66-2.76,9.4,1.75,10.47,6.43,1.52,6.21-7.53,11.94-10.36s12.29-5.77,10.53-8.6S386.89,187.25,383.14,188.29Z" transform="translate(-325.73 -175.79)"/><path class="cls-16" d="M431.51,234.41c0,2.77-7.38,5-16.47,5s-16.48-2.24-16.48-5,7.38-5,16.48-5S431.51,231.64,431.51,234.41Z" transform="translate(-325.73 -175.79)"/><path class="cls-16" d="M439.48,245.31c0,1.81-3.47,3.27-7.74,3.27s-7.74-1.46-7.74-3.27,3.47-3.26,7.74-3.26S439.48,243.51,439.48,245.31Z" transform="translate(-325.73 -175.79)"/></g></g></svg>