<svg xmlns="http://www.w3.org/2000/svg" xmlns:xlink="http://www.w3.org/1999/xlink" viewBox="0 0 144.53 94.32"><defs><style>.cls-1{isolation:isolate;}.cls-2{fill:#4e511a;}.cls-3{fill:#1d1d1b;}.cls-4{fill:#d9b8b8;}.cls-4,.cls-7{mix-blend-mode:multiply;}.cls-5{fill:url(#radial-gradient);}.cls-6{fill:#fede00;opacity:0.4;mix-blend-mode:screen;}.cls-7,.cls-8{fill:#85afaf;}.cls-9{fill:#273141;}.cls-10,.cls-11,.cls-12,.cls-15{mix-blend-mode:overlay;}.cls-10{fill:url(#linear-gradient);}.cls-11{fill:url(#linear-gradient-2);}.cls-12{fill:url(#linear-gradient-3);}.cls-13{fill:#6d2616;}.cls-14{fill:#8c050c;}.cls-15{fill:url(#linear-gradient-4);}</style><radialGradient id="radial-gradient" cx="404.29" cy="232.65" r="45.87" gradientUnits="userSpaceOnUse"><stop offset="0" stop-color="#b32447"/><stop offset="0.99" stop-color="#400a40"/></radialGradient><linearGradient id="linear-gradient" x1="386.86" y1="260.15" x2="397.77" y2="260.15" gradientUnits="userSpaceOnUse"><stop offset="0" stop-color="#fff" stop-opacity="0"/><stop offset="1" stop-color="#00c9f1"/></linearGradient><linearGradient id="linear-gradient-2" x1="342.66" y1="201.1" x2="351.79" y2="201.1" xlink:href="#linear-gradient"/><linearGradient id="linear-gradient-3" x1="326.72" y1="241.84" x2="338.98" y2="241.84" xlink:href="#linear-gradient"/><linearGradient id="linear-gradient-4" x1="368.38" y1="197.63" x2="394.5" y2="197.63" xlink:href="#linear-gradient"/></defs><title>4erniy</title><g class="cls-1"><g id="Слой_1" data-name="Слой 1"><polygon class="cls-2" points="68.48 84.79 66.27 84.36 69.58 68.21 71.78 68.64 68.48 84.79"/><path class="cls-3" d="M364.22,204s19-26.25,40.67-28.33,2.54,29.21,2.54,29.21Z" transform="translate(-324.94 -175.57)"/><path class="cls-4" d="M364.35,204s19-26.25,40.67-28.33,2.54,29.21,2.54,29.21Z" transform="translate(-324.94 -175.57)"/><path class="cls-3" d="M341.46,199.81c6.2-.23,11.56,9.3,12,21.3s-4.32,21.91-10.53,22.15c20,7.56,33.4,10,69.56,2.6,12.05-2.48,24.09-5.93,35.2-11.28,6.21-3,19.35-9.22,19.07-17.76-.15-4.35-5.27-5.83-8.75-6.64-8-1.87-17.91,2.5-25.15-1.24-10.68-5.52-16.86-8.4-23.6-10.43a65,65,0,0,0-38.79,0C353.45,203.93,347.49,199.23,341.46,199.81Z" transform="translate(-324.94 -175.57)"/><path class="cls-4" d="M341.46,199.81c6.2-.23,11.56,9.3,12,21.3s-4.32,21.91-10.53,22.15c20,7.56,33.4,10,69.56,2.6,12.05-2.48,24.09-5.93,35.2-11.28,6.21-3,19.35-9.22,19.07-17.76-.15-4.35-5.27-5.83-8.75-6.64-8-1.87-17.91,2.5-25.15-1.24-10.68-5.52-16.86-8.4-23.6-10.43a65,65,0,0,0-38.79,0C353.45,203.93,347.49,199.23,341.46,199.81Z" transform="translate(-324.94 -175.57)"/><path class="cls-3" d="M434.39,209.61a11.52,11.52,0,0,1-1.58-.67c-10.68-5.52-16.86-8.4-23.6-10.43a65,65,0,0,0-38.79,0c-17,5.43-22.93.73-29,1.31,4.18-.16,8,4.13,10.13,10.62,10,3.19,24.31,5.2,40.21,5.2C409,215.63,424.36,213.28,434.39,209.61Z" transform="translate(-324.94 -175.57)"/><path class="cls-3" d="M432.94,210c1.45-1.26,15.77-10,21.44-19.12,6.12-9.86,13.51-4.42,14.83-1.46s-3,25.94-3,25.94S424,217.8,432.94,210Z" transform="translate(-324.94 -175.57)"/><path class="cls-4" d="M432.94,210c1.45-1.26,15.77-10,21.44-19.12,6.12-9.86,13.51-4.42,14.83-1.46s-3,25.94-3,25.94S424,217.8,432.94,210Z" transform="translate(-324.94 -175.57)"/><path class="cls-3" d="M466.71,216.82a6.47,6.47,0,0,0-.4-1.81C445.37,236.14,379.78,234.75,353,228.6c-1.31,8.38-5.24,14.48-10.1,14.66,20,7.56,33.4,10,69.56,2.6,12.05-2.48,24.09-5.93,35.2-11.28C453.85,231.6,467,225.36,466.71,216.82Z" transform="translate(-324.94 -175.57)"/><path class="cls-5" d="M447.64,230.13c-11.11,5.34-23.15,8.79-35.2,11.27-33,6.8-47.07,5.32-64.48-.75a9.55,9.55,0,0,1-6.1,2.45c20,7.56,34.42,10.2,70.58,2.76,12.05-2.48,24.09-5.93,35.2-11.28,6.21-3,19.35-9.22,19.07-17.76a4.52,4.52,0,0,0-.4-1.81C464.64,221.25,453.09,227.51,447.64,230.13Z" transform="translate(-324.94 -175.57)"/><path class="cls-6" d="M447.44,230.15c-11.12,5.35-23.15,8.8-35.2,11.28-33,6.8-47.07,5.32-64.49-.75a9.51,9.51,0,0,1-6.09,2.45c20,7.56,34.42,10.2,70.58,2.76,12.05-2.48,24.08-5.93,35.2-11.28,6.2-3,19.34-9.22,19.06-17.76a4.52,4.52,0,0,0-.39-1.81C464.44,221.28,452.89,227.54,447.44,230.15Z" transform="translate(-324.94 -175.57)"/><path class="cls-7" d="M353.41,221.11c-.39-12-5.55-21.54-11.51-21.32l-.64.07c-5.65.88-9.83,10.51-9.45,22.07s5.19,20.85,10.88,21.3l.64,0C349.29,243,353.81,233.11,353.41,221.11Z" transform="translate(-324.94 -175.57)"/><path class="cls-3" d="M351.5,221.18c-.32-10-4.61-17.88-9.58-17.7l-.53.06c-4.7.73-8.18,8.72-7.86,18.33s4.31,17.31,9.05,17.68h.53C348.08,239.37,351.83,231.14,351.5,221.18Z" transform="translate(-324.94 -175.57)"/><path class="cls-3" d="M341.16,239.21c4.16-1.67,7.1-9.16,6.81-18-.29-8.63-3.54-15.72-7.63-17.35-4.15,1.68-7.1,9.17-6.81,18C333.82,230.5,337.07,237.59,341.16,239.21Z" transform="translate(-324.94 -175.57)"/><path class="cls-8" d="M392.05,186.33c-14.76-.4-27,7.31-27.3,17.22.15-4.72,12.24-8.22,27-7.83s26.59,4.54,26.44,9.26C418.5,195.08,406.8,186.73,392.05,186.33Z" transform="translate(-324.94 -175.57)"/><path class="cls-8" d="M391.74,195.72c-14.75-.39-26.84,3.11-27,7.83s11.68,8.86,26.44,9.25,26.84-3.1,27-7.82S406.5,196.12,391.74,195.72Z" transform="translate(-324.94 -175.57)"/><path class="cls-3" d="M373.49,231.54s39.12,32.27,63.31,34.9a10,10,0,0,0,10.44-13.66c-2.63-6.59-8.4-15.55-20.88-25.48C426.36,227.3,367.93,219.12,373.49,231.54Z" transform="translate(-324.94 -175.57)"/><path class="cls-4" d="M373.49,231.54s39.12,32.27,63.31,34.9a10,10,0,0,0,10.44-13.66c-2.63-6.59-8.4-15.55-20.88-25.48C426.36,227.3,367.93,219.12,373.49,231.54Z" transform="translate(-324.94 -175.57)"/><path class="cls-3" d="M426.36,227.3s-32.3-4.52-46.58-1.74c8.38,6.64,40.36,31,61.24,33.24a9.91,9.91,0,0,0,6.92-1.8,10,10,0,0,0-.7-4.22C444.61,246.19,438.84,237.23,426.36,227.3Z" transform="translate(-324.94 -175.57)"/><path class="cls-9" d="M399.89,259.81c.45,5.11-3,9.61-7.78,10.05s-9-3.35-9.4-8.46,3-9.62,7.78-10S399.44,254.7,399.89,259.81Z" transform="translate(-324.94 -175.57)"/><path class="cls-10" d="M397.74,259.65a5.46,5.46,0,1,1-5.94-5.35A5.68,5.68,0,0,1,397.74,259.65Z" transform="translate(-324.94 -175.57)"/><path class="cls-8" d="M350.41,189.64c4.5,1.63,6.82,6.19,5.16,10.2s-10,19.21-14.47,17.58S337.61,198,339.26,194,345.9,188,350.41,189.64Z" transform="translate(-324.94 -175.57)"/><path class="cls-11" d="M343.34,191.57s7.1-.14,8.33,5.7-7.24,13.36-7.24,13.36,5.26-8.76,3.21-12.86S340.92,192,343.34,191.57Z" transform="translate(-324.94 -175.57)"/><path class="cls-8" d="M331.75,254.12a8,8,0,0,0,9.54-6.11c.78-4.23,2.11-21.3-2.37-22.17s-13.07,14.82-13.86,19A8.11,8.11,0,0,0,331.75,254.12Z" transform="translate(-324.94 -175.57)"/><path class="cls-12" d="M327.08,249s5.64,3.66,9.71-.7,1.23-15,1.23-15-.39,10.07-4.21,12.55S325.38,247.36,327.08,249Z" transform="translate(-324.94 -175.57)"/><path class="cls-8" d="M345.33,221.45c.67-5.77-1.22-10.73-4.21-11.06h-.32c-2.88,0-5.66,4.31-6.3,9.88s1.08,10.37,3.89,11l.32.06C341.7,231.65,344.67,227.23,345.33,221.45Z" transform="translate(-324.94 -175.57)"/><path class="cls-13" d="M338.39,231.26a3.65,3.65,0,0,0,2.81-1.14,9.54,9.54,0,0,0,1.76-2.54,20.93,20.93,0,0,0,1.54-12.29c-.44-2.1-1.33-4.3-3.38-4.9,2.29.06,3.72,2.46,4.37,4.65a15.61,15.61,0,0,1,.58,3.32,20.81,20.81,0,0,1-.11,3.35,16.38,16.38,0,0,1-2.11,6.36,8.67,8.67,0,0,1-2.25,2.54C340.52,231.24,339.6,231.7,338.39,231.26Z" transform="translate(-324.94 -175.57)"/><path class="cls-14" d="M343,221.2c.38-3.31-.7-6.14-2.41-6.33h-.19c-1.65,0-3.24,2.47-3.61,5.65s.62,5.94,2.23,6.3l.18,0C340.94,227,342.63,224.51,343,221.2Z" transform="translate(-324.94 -175.57)"/><path class="cls-15" d="M382.34,188.08c-.72.2-1.35.41-1.84.59A20.26,20.26,0,0,0,370,197.56c-2.07,3.66-2.76,9.4,1.75,10.47,6.43,1.52,6.21-7.53,11.93-10.36s12.3-5.77,10.53-8.61S386.1,187,382.34,188.08Z" transform="translate(-324.94 -175.57)"/><path class="cls-8" d="M430.71,234.2c0,2.77-7.37,5-16.47,5s-16.47-2.24-16.47-5,7.37-5,16.47-5S430.71,231.43,430.71,234.2Z" transform="translate(-324.94 -175.57)"/><path class="cls-8" d="M438.68,245.1c0,1.81-3.46,3.27-7.73,3.27s-7.74-1.46-7.74-3.27,3.46-3.26,7.74-3.26S438.68,243.3,438.68,245.1Z" transform="translate(-324.94 -175.57)"/></g></g></svg>