<svg xmlns="http://www.w3.org/2000/svg" xmlns:xlink="http://www.w3.org/1999/xlink" viewBox="0 0 144.75 68.92"><defs><style>.cls-1{fill:none;}.cls-2{isolation:isolate;}.cls-3{fill:#102769;}.cls-4{fill:#0a1239;}.cls-5{fill:url(#Безымянный_градиент_170);}.cls-6{fill:url(#Безымянный_градиент_169);}.cls-7{fill:url(#Безымянный_градиент_169-2);}.cls-8{fill:url(#Безымянный_градиент_169-3);}.cls-9{fill:url(#Безымянный_градиент_169-4);}.cls-10{fill:url(#Безымянный_градиент_169-5);}.cls-11{fill:#003479;}.cls-12{fill:#afb1bc;}.cls-13{fill:#a2a5b2;}.cls-14{fill:url(#Безымянный_градиент_170-2);}.cls-15{fill:url(#Безымянный_градиент_170-3);}.cls-16{fill:url(#Безымянный_градиент_170-4);}.cls-17{fill:#080e2e;}.cls-18{fill:#b8d9b8;mix-blend-mode:multiply;}.cls-19{fill:#8b95a2;}.cls-20{fill:url(#Безымянный_градиент_169-6);}.cls-21{fill:#002861;}.cls-22{fill:#171a49;}.cls-23{fill:#001238;}.cls-24{fill:#0c1035;}.cls-25{fill:#1d215a;}.cls-26{fill:url(#Безымянный_градиент_170-5);}.cls-27{fill:#3b4e84;}.cls-28{fill:url(#Безымянный_градиент_169-7);}.cls-29{fill:url(#Безымянный_градиент_170-6);}.cls-30{fill:#263a77;}.cls-31{fill:#386197;}.cls-32{fill:#0f4181;}.cls-33{fill:#091037;}.cls-34{fill:#90d4e8;}.cls-35{fill:#5dd4e8;}.cls-36{fill:#aedfee;}.cls-37{fill:#8bd4e8;}.cls-38{fill:#00b1d0;}.cls-39{fill:#c0c2cd;}.cls-40{fill:#0c1e54;}.cls-41{fill:#000e2d;}.cls-42{fill:#2c3b6a;}.cls-43{fill:url(#Безымянный_градиент_169-8);}.cls-44{fill:#11143b;}.cls-45{fill:#161948;}.cls-46{fill:#1d2c5f;}.cls-47{fill:#0d0f30;}.cls-48{fill:#000b24;}.cls-49{fill:#091744;}.cls-50{fill:#262a46;}.cls-51{fill:#020720;}.cls-52{fill:#2c2e34;}.cls-53{fill:#5b5d69;}.cls-54{fill:#25272c;}.cls-55{fill:#82848d;}.cls-56{fill:#a0a1a8;}.cls-57{fill:#fff;}.cls-58{fill:#454750;}.cls-59{fill:#3c3e46;}.cls-60{fill:#31333a;}.cls-61{fill:#52545f;}.cls-62{fill:#090c2a;}.cls-63{fill:#0c1014;}.cls-64{fill:url(#Безымянный_градиент_170-7);}.cls-65{fill:url(#Безымянный_градиент_170-8);}.cls-66{fill:url(#Безымянный_градиент_169-9);}.cls-67{fill:url(#Безымянный_градиент_170-9);}.cls-68{clip-path:url(#clip-path);}.cls-69{fill:url(#Безымянный_градиент_169-10);}.cls-70{fill:url(#Безымянный_градиент_169-11);}</style><linearGradient id="Безымянный_градиент_170" x1="325.26" y1="217.99" x2="455.74" y2="217.99" gradientUnits="userSpaceOnUse"><stop offset="0" stop-color="#00f2a0"/><stop offset="1" stop-color="#168c62"/></linearGradient><linearGradient id="Безымянный_градиент_169" x1="351.56" y1="223.5" x2="430.43" y2="223.5" gradientUnits="userSpaceOnUse"><stop offset="0" stop-color="#00f2a0"/><stop offset="0.12" stop-color="#03d48f"/><stop offset="0.29" stop-color="#07b17c"/><stop offset="0.46" stop-color="#0a966c"/><stop offset="0.64" stop-color="#0c8362"/><stop offset="0.81" stop-color="#0e785b"/><stop offset="1" stop-color="#0e7459"/></linearGradient><linearGradient id="Безымянный_градиент_169-2" x1="325.76" y1="219.84" x2="362.36" y2="219.84" xlink:href="#Безымянный_градиент_169"/><linearGradient id="Безымянный_градиент_169-3" x1="441.01" y1="195.1" x2="455.74" y2="195.1" xlink:href="#Безымянный_градиент_169"/><linearGradient id="Безымянный_градиент_169-4" x1="434.91" y1="204.03" x2="455.23" y2="204.03" xlink:href="#Безымянный_градиент_169"/><linearGradient id="Безымянный_градиент_169-5" x1="350.22" y1="211.32" x2="454.12" y2="211.32" xlink:href="#Безымянный_градиент_169"/><linearGradient id="Безымянный_градиент_170-2" x1="421.44" y1="211.61" x2="434.12" y2="211.61" xlink:href="#Безымянный_градиент_170"/><linearGradient id="Безымянный_градиент_170-3" x1="434.88" y1="202.54" x2="441.54" y2="202.54" xlink:href="#Безымянный_градиент_170"/><linearGradient id="Безымянный_градиент_170-4" x1="440.98" y1="194.03" x2="455.61" y2="194.03" xlink:href="#Безымянный_градиент_170"/><linearGradient id="Безымянный_градиент_169-6" x1="333.08" y1="239.35" x2="449.56" y2="239.35" xlink:href="#Безымянный_градиент_169"/><linearGradient id="Безымянный_градиент_170-5" x1="451.58" y1="235.21" x2="469.58" y2="235.21" xlink:href="#Безымянный_градиент_170"/><linearGradient id="Безымянный_градиент_169-7" x1="433.53" y1="224.79" x2="458.46" y2="224.79" xlink:href="#Безымянный_градиент_169"/><linearGradient id="Безымянный_градиент_170-6" x1="440.45" y1="230.34" x2="464.78" y2="230.34" xlink:href="#Безымянный_градиент_170"/><linearGradient id="Безымянный_градиент_169-8" x1="443.81" y1="229.78" x2="464.55" y2="229.78" xlink:href="#Безымянный_градиент_169"/><linearGradient id="Безымянный_градиент_170-7" x1="383.46" y1="237.59" x2="436.94" y2="237.59" xlink:href="#Безымянный_градиент_170"/><linearGradient id="Безымянный_градиент_170-8" x1="392.2" y1="238.69" x2="433.95" y2="238.69" xlink:href="#Безымянный_градиент_170"/><linearGradient id="Безымянный_градиент_169-9" x1="383.08" y1="230.14" x2="423.25" y2="230.14" xlink:href="#Безымянный_градиент_169"/><linearGradient id="Безымянный_градиент_170-9" x1="410.61" y1="245.8" x2="436.94" y2="245.8" xlink:href="#Безымянный_градиент_170"/><clipPath id="clip-path" transform="translate(-325.26 -189.16)"><path class="cls-1" d="M436.85,245.64a3.48,3.48,0,0,1,.1.41l0,0a2.37,2.37,0,0,0-.09-.36l0-.07Z"/></clipPath><linearGradient id="Безымянный_градиент_169-10" x1="400.05" y1="237.2" x2="433.76" y2="237.2" xlink:href="#Безымянный_градиент_169"/><linearGradient id="Безымянный_градиент_169-11" x1="430.63" y1="243.9" x2="436.79" y2="243.9" xlink:href="#Безымянный_градиент_169"/></defs><title>самолет зеленый</title><g class="cls-2"><g id="Слой_1" data-name="Слой 1"><path class="cls-3" d="M450.41,219.46s4,.34,4.56,1.58,1,5.68-1.6,10.33-2.05,6.8-6.26,4.77,3.3-16.68,3.3-16.68Z" transform="translate(-325.26 -189.16)"/><path class="cls-4" d="M447.11,236.18c4.22,2,3.62-.12,6.26-4.77a15.62,15.62,0,0,0,1.64-4.19,27.89,27.89,0,0,1-7.54-.95c-1.51,4.13-2.61,8.82-.36,9.91Z" transform="translate(-325.26 -189.16)"/><path class="cls-5" d="M432.91,207c1.79-2,13-13.49,15.15-15.69s7.56-4.58,7.67,2.85a134.43,134.43,0,0,1-1.32,15.67c-.64,5.15-1.29,9.58-1.12,10.33.33,1.56,1.65,5.81-.06,8,0,0-2.87,2.51-3.19,4.25s-.25,4.58-3.31,5.07a27,27,0,0,1-5.12,0,28.58,28.58,0,0,0-6.84.26c-4.17.84-21.62,7.51-32.77,8.38s-26.66,1.24-41-1.44-22.69-6.11-28.45-8.9-8-6.34-7.14-9.69,8.69-5.75,11.69-7.76a91.84,91.84,0,0,0,12.17-9.18c4.07-3.84,8.33-5.78,16-6.72,8.6-1.06,47.64,8.11,52.49,9,5.53,1.07,6.47.95,8.67.22,3.25-1.08,6.42-4.71,6.42-4.71Z" transform="translate(-325.26 -189.16)"/><path class="cls-6" d="M380.78,212.36c-4,.34-6.66,1.17-7.19,2.69-1.64,4.59-2,10.07-14.09,11.53s-9.2,7,.66,7.88a58.86,58.86,0,0,0,9.64.24c4.42-.37,7.15-1.72,7.31-4.78.22-4,3.1-5.07,10.85-5.77a3.23,3.23,0,0,1,.82-6.26H389l.22,0a3.23,3.23,0,0,1,1.82,6.06l3.11-.21,3-.19a3.23,3.23,0,0,1,2-5.52h.22l.22,0a3.23,3.23,0,0,1,3.49,3,3.18,3.18,0,0,1-.71,2.3l4.22-.26a3.34,3.34,0,0,1-.25-1,3.24,3.24,0,0,1,3-3.49h.22l.22,0a3.23,3.23,0,0,1,3.49,3,3,3,0,0,1-.1,1.13l2.24-.18,1.46-.12a3.22,3.22,0,0,1,2.83-2.32H420l.22,0a3.24,3.24,0,0,1,3.1,1.67c7.2-.95,10.54-2.26,2.4-4.13-13-3-33.91-5.93-44.9-5Z" transform="translate(-325.26 -189.16)"/><path class="cls-7" d="M342.48,214.75c-2,1.47-4.1,2.8-5.53,3.75-2.81,1.88-9.59,4.3-11.19,7.33a62,62,0,0,0,7.86,2.19c15.94,3.76,25.33-8.88,28.74-12.72-4.35-1.59-9.87-2.58-14.7-4.34C346,212.39,344.15,213.56,342.48,214.75Z" transform="translate(-325.26 -189.16)"/><path class="cls-8" d="M455.73,194.2c-.2-7.32-5.44-5.08-7.61-2.88L441,198.64,455.36,201A64.09,64.09,0,0,0,455.73,194.2Z" transform="translate(-325.26 -189.16)"/><path class="cls-9" d="M455.23,202.38l-15.39-2.54L434.91,205l19.68,3.25C454.81,206.29,455,204.3,455.23,202.38Z" transform="translate(-325.26 -189.16)"/><path class="cls-10" d="M454.12,212.12l-22.53-3.73a14.5,14.5,0,0,1-5,3.31c-2.38.75-3.14.85-8.67-.22-4.85-.93-43.86-9.88-52.5-9-10.63,1-15.17,5.95-15.17,5.95,5.69,14,12.16-1.11,39.3,1.23,26.71,2.29,58.59,9.58,61.24,10.19.54.12,1.39.29,2.53.45,0,0,0-.08,0-.12A80.45,80.45,0,0,1,454.12,212.12Z" transform="translate(-325.26 -189.16)"/><path class="cls-3" d="M441.67,235c-3.88-.45-8.81.34-16.4,1.35A298.33,298.33,0,0,1,393.53,239c-34.85,1.11-51-6.33-57.51-10.91a42.68,42.68,0,0,1-6.59-5.74c-2,1.12-3.58,2.37-3.95,3.79-.86,3.35,1.39,6.91,7.15,9.69s14.13,6.22,28.44,8.9,29.82,2.31,41,1.44,28.61-7.54,32.78-8.38a28.56,28.56,0,0,1,6.84-.26,26.87,26.87,0,0,0,5.11,0,3.26,3.26,0,0,0,2.79-2.34,40,40,0,0,1-7.89-.17Z" transform="translate(-325.26 -189.16)"/><path class="cls-11" d="M334.75,219.72c-3.56,1.74-8.58,3.79-9.27,6.44-.87,3.35,1.39,6.92,7.15,9.7l.44.21a16.54,16.54,0,0,0,3-10,17.45,17.45,0,0,0-1.3-6.31Z" transform="translate(-325.26 -189.16)"/><path class="cls-3" d="M448.06,191.35c-2.17,2.2-13.36,13.72-15.15,15.69,0,0-3.17,3.63-6.41,4.71a10,10,0,0,1-5.06.37c5.93,1,6.28,1.32,11.39,2.4.61.13,1,.23,1.29.3-1.06-.39-3.87-1.83-1.65-4.65,3.95-5,11.87-12.91,15.76-16.95s7-4.15,7.38-.14C455,187,450.11,189.27,448.06,191.35Z" transform="translate(-325.26 -189.16)"/><path class="cls-12" d="M388.83,224.08l-.87.07a3.23,3.23,0,0,0,1.36.18l.22,0h.23a3.23,3.23,0,0,0,1.28-.38l-2.22.17Z" transform="translate(-325.26 -189.16)"/><path class="cls-13" d="M389.23,217.85l-.22,0h-.23a3.23,3.23,0,0,0-.82,6.26l.87-.07,2.22-.17a3.23,3.23,0,0,0-1.82-6.06Z" transform="translate(-325.26 -189.16)"/><path class="cls-12" d="M397.21,223.51a3.23,3.23,0,0,0,2.54.92,1.81,1.81,0,0,0,.23,0h.22a3.17,3.17,0,0,0,2.24-1.18l-5.23.3Z" transform="translate(-325.26 -189.16)"/><path class="cls-13" d="M399.66,218l-.22,0h-.22a3.23,3.23,0,0,0-2,5.52l5.23-.3a3.18,3.18,0,0,0,.71-2.3,3.23,3.23,0,0,0-3.49-3Z" transform="translate(-325.26 -189.16)"/><path class="cls-12" d="M406.66,223a3.23,3.23,0,0,0,3.24,2l.23,0h.22a3.22,3.22,0,0,0,2.85-2.36c-2.17.17-4.38.32-6.54.45Z" transform="translate(-325.26 -189.16)"/><path class="cls-13" d="M409.81,218.42l-.22,0h-.22a3.24,3.24,0,0,0-3,3.49,3.34,3.34,0,0,0,.25,1c2.16-.13,4.37-.28,6.54-.45a3,3,0,0,0,.1-1.13,3.23,3.23,0,0,0-3.49-3Z" transform="translate(-325.26 -189.16)"/><path class="cls-12" d="M423.28,221.51c-1.9.26-4.08.48-6.38.69a3,3,0,0,0-.12,1.17,3.23,3.23,0,0,0,3.49,2.95,1.66,1.66,0,0,0,.22,0h.23a3.23,3.23,0,0,0,2.95-3.49,3.3,3.3,0,0,0-.39-1.28Z" transform="translate(-325.26 -189.16)"/><path class="cls-13" d="M420.18,219.84l-.22,0h-.23a3.22,3.22,0,0,0-2.83,2.32c2.3-.21,4.48-.43,6.38-.69a3.24,3.24,0,0,0-3.1-1.67Z" transform="translate(-325.26 -189.16)"/><path class="cls-14" d="M426.5,211.75a10,10,0,0,1-5.06.37c5.93,1,6.28,1.32,11.39,2.4.61.13,1,.23,1.29.3-1.06-.39-3.87-1.83-1.65-4.65.36-.45.75-.93,1.17-1.42l-2.07-.35A15.46,15.46,0,0,1,426.5,211.75Z" transform="translate(-325.26 -189.16)"/><path class="cls-15" d="M434.88,205l1.83.3c1.54-1.69,3.21-3.45,4.83-5.14l-1.72-.29Z" transform="translate(-325.26 -189.16)"/><path class="cls-16" d="M448.06,191.35,441,198.62l1.72.29c2.12-2.2,4.1-4.2,5.53-5.69,3.89-4,7-4.15,7.38-.14C455,187,450.11,189.27,448.06,191.35Z" transform="translate(-325.26 -189.16)"/><path class="cls-17" d="M451.58,233.47a1.64,1.64,0,0,0-1.24,1.7v0l0,.12-.11-.05-.48-.22a4.28,4.28,0,0,1-1,1.78,3,3,0,0,0,1,.12c1.14-.1,1.56-1.24,2.47-3.17l-.59-.3Z" transform="translate(-325.26 -189.16)"/><path class="cls-18" d="M380.34,230.47a68.92,68.92,0,0,0,1.85,7.75c-11.46-.62-20.6-1.48-27.88-2.46,9.09,2.25,21.63,3.8,38.67,3.3-1.33-.91-2.43-1.69-3.34-2.37-1.75-.87-3.34-1.69-4.67-2.43a19.17,19.17,0,0,1-3.63-2.38,4.48,4.48,0,0,1-1-1.41Zm50.4-6.59c-.23,1.7,1.21,6.43,2.86,9.86-2.72.35-5.6.68-8.66,1l2,1.44c3.6-.48,6.57-.9,9.11-1.11a28.94,28.94,0,0,1,5.66,0,39.54,39.54,0,0,0,7.61.19c0-.12.08-.24.11-.36-2.63-1.24-6.54-3-10.1-4.79h0l-.13-.06,0,0h0c-1.65-.84-3.22-1.7-4.55-2.52a16,16,0,0,1-3.1-2.35,2.75,2.75,0,0,1-.75-1.24Z" transform="translate(-325.26 -189.16)"/><path class="cls-19" d="M447.29,237.43c-.16,0-.33.08-.52.11s-.47.07-.73.09l-.29,0,.43,0a5.26,5.26,0,0,0,1.11-.19Zm-6.13.12,1.46.07-1-.05-.5,0Zm-3.91,0c.89,0,2.51,0,3.74,0-1.22,0-2.48-.08-3.74,0Zm12.14-2.67c0,.12-.07.24-.11.36l.25,0h0a3.56,3.56,0,0,1-1,1.57l.16,0a4.28,4.28,0,0,0,1-1.78l-.09,0-.29-.14ZM325.63,225.7a4.59,4.59,0,0,0-.15.44,5.59,5.59,0,0,0-.16,1.86,5.45,5.45,0,0,1,.16-1.84,3.12,3.12,0,0,1,.15-.43v0Z" transform="translate(-325.26 -189.16)"/><path class="cls-20" d="M436,235.05c-2.54.21-5.51.63-9.11,1.11l1.46,1.11h0c.76.58,1.5,1.15,2.19,1.71,1.89-.59,3.36-1,4.24-1.21.59-.11,1.19-.19,1.79-.25h.65c1.26-.07,2.52,0,3.74,0h.17l.5,0,1,.05c1,0,2.18.08,3.13,0l.29,0c.26,0,.5,0,.73-.09s.36-.07.52-.11h0a1.78,1.78,0,0,0,.29-.12,3.17,3.17,0,0,0,.94-.54h0a3.56,3.56,0,0,0,1-1.57h0l-.25,0a39.54,39.54,0,0,1-7.61-.19,28.94,28.94,0,0,0-5.66,0Zm-100.82-3.16a15.72,15.72,0,0,1-2.11,4.17c5.74,2.74,14.05,6.06,28,8.68a141.81,141.81,0,0,0,27.19,2.07,11.27,11.27,0,0,1,.2-1.25,6,6,0,0,1,1.28-2.78,2.41,2.41,0,0,1,.81-.59l.17-.12c2.1-2.14,5.3-1,2.7-2.72l-.44-.29c-17,.5-29.58-1.05-38.67-3.3a119.53,119.53,0,0,1-19.12-3.87Z" transform="translate(-325.26 -189.16)"/><path class="cls-21" d="M325.63,225.73a3.12,3.12,0,0,0-.15.43,5.45,5.45,0,0,0-.16,1.84c.24,2.78,2.6,5.57,7.3,7.84l.46.22a15.72,15.72,0,0,0,2.11-4.17c-9.57-3-9.58-5.86-9.56-6.16Z" transform="translate(-325.26 -189.16)"/><path class="cls-22" d="M440.44,227.77c-9.62-4.47-6.79-5.83-5.39-5.92-2.09,0-4.25.48-4.26,1.81,0,1.59,3.9,4,8.41,6.29,0,0-.32-1.8,1.24-2.18Z" transform="translate(-325.26 -189.16)"/><path class="cls-23" d="M440.44,227.77l0-.06a30.29,30.29,0,0,1-5.37-3,5.55,5.55,0,0,1-1.12-1,1.53,1.53,0,0,1-.35-.75.66.66,0,0,1,.11-.42,1.16,1.16,0,0,1,.55-.4,2.49,2.49,0,0,1,.73-.17h0v-.14c-.32,0-.65,0-1,.05a7,7,0,0,0-2.33.52,2.24,2.24,0,0,0-.75.53,1.27,1.27,0,0,0-.29.78.38.38,0,0,0,0,.1,2.46,2.46,0,0,0,.76,1.36,16,16,0,0,0,3.1,2.35c1.34.83,2.92,1.69,4.57,2.54l.13.06,0-.14s0-.05,0-.14a2.59,2.59,0,0,1,.13-1,1.45,1.45,0,0,1,1.08-.92l.19-.05-.18-.08,0,.06,0-.06a1.6,1.6,0,0,0-1.17,1,2.43,2.43,0,0,0-.14,1.09c0,.09,0,.15,0,.16h.07l0-.06a51.92,51.92,0,0,1-5.81-3.35,11.86,11.86,0,0,1-1.83-1.51,2.4,2.4,0,0,1-.73-1.28v-.09a1,1,0,0,1,.26-.69,2.56,2.56,0,0,1,1.18-.69,9.33,9.33,0,0,1,1.8-.32c.31,0,.63,0,.95,0v-.14h0a2.5,2.5,0,0,0-1,.3,1.24,1.24,0,0,0-.38.34.76.76,0,0,0-.12.5,1.61,1.61,0,0,0,.38.82c.72.94,2.58,2.25,6.54,4.09l0-.06,0-.06,0,.06Z" transform="translate(-325.26 -189.16)"/><path class="cls-24" d="M469.61,237.07c0,.6-.55,1-2.06,1.14-4.84.38-10.28-1.93-16-4.8a1.7,1.7,0,0,0-1.29,1.79c5.82,2.69,13.27,5.21,18.36,4.09C470.07,239,470.21,238.13,469.61,237.07Z" transform="translate(-325.26 -189.16)"/><path class="cls-23" d="M469.61,237.07h-.07a.6.6,0,0,1-.09.37,1.06,1.06,0,0,1-.59.45,4.35,4.35,0,0,1-1.27.25h0c-4.81.37-10.24-1.93-16-4.81h0a1.8,1.8,0,0,0-1.2,1,1.83,1.83,0,0,0-.13.84v.06h0c5.27,2.44,11.87,4.74,16.87,4.32a12.09,12.09,0,0,0,1.52-.22,2.1,2.1,0,0,0,1.08-.52A1,1,0,0,0,470,238a2.63,2.63,0,0,0-.34-1l-.13,0h.07l-.06,0a2.22,2.22,0,0,1,.32.91.88.88,0,0,1-.25.74,2,2,0,0,1-1,.48,13.87,13.87,0,0,1-1.5.22c-4.95.41-11.55-1.87-16.81-4.31l0,.06h.07v0a1.64,1.64,0,0,1,1.24-1.7l0-.06,0,.05c5.71,2.88,11.16,5.2,16,4.82h.05a3.77,3.77,0,0,0,1.6-.41,1,1,0,0,0,.37-.36.85.85,0,0,0,.11-.44h-.07l-.06,0Z" transform="translate(-325.26 -189.16)"/><path class="cls-25" d="M451.56,233.41c-3.61-1.82-7.33-3.87-11.08-5.61l0,0c-1.56.38-1.25,2.16-1.24,2.18,3.71,1.89,7.84,3.73,10.51,5l.56.26a1.7,1.7,0,0,1,1.29-1.79Z" transform="translate(-325.26 -189.16)"/><path class="cls-23" d="M451.56,233.41l0-.07c-3.61-1.81-7.33-3.86-11.08-5.61l-.05,0h0a1.6,1.6,0,0,0-1.17,1,2.43,2.43,0,0,0-.14,1.09c0,.09,0,.15,0,.16v0l0,0c3.73,1.89,7.85,3.73,10.52,5l.57.26.11.05,0-.12v0a1.64,1.64,0,0,1,1.24-1.7l.16-.05-.15-.08,0,.07,0-.07a1.8,1.8,0,0,0-1.2,1,1.83,1.83,0,0,0-.13.84v0h.06l0-.06-.57-.26c-2.66-1.27-6.79-3.1-10.5-5l0,.06.06,0h0l0-.14a2.59,2.59,0,0,1,.13-1,1.45,1.45,0,0,1,1.08-.92v-.07l0,.06,0,0c3.75,1.74,7.47,3.78,11.08,5.6l0-.05,0-.07,0,.07Z" transform="translate(-325.26 -189.16)"/><path class="cls-26" d="M464.78,232.29c-5.27-.52-13.2,1.1-13.2,1.1,5.69,2.87,11.11,5.17,15.94,4.79,1.51-.11,2.08-.54,2.06-1.14-.78-1.4-2.81-3.2-4.8-4.75Z" transform="translate(-325.26 -189.16)"/><path class="cls-27" d="M464.78,232.29v-.06a32,32,0,0,0-5.78.05,70,70,0,0,0-7.45,1.05l-.19,0,.17.08c5.7,2.88,11.13,5.18,16,4.8h.05a3.76,3.76,0,0,0,1.59-.41,1,1,0,0,0,.37-.36.86.86,0,0,0,.11-.45h0v0c-.79-1.41-2.83-3.21-4.82-4.76h0v.06l0,.06c2,1.54,4,3.34,4.78,4.72l.06,0h-.06a.72.72,0,0,1-.1.38,1.06,1.06,0,0,1-.59.44,4.35,4.35,0,0,1-1.27.25h-.05c-4.8.37-10.21-1.92-15.91-4.78l0,0v.07a72.17,72.17,0,0,1,7.43-1.05,33.62,33.62,0,0,1,5.75,0v-.07l0,.06,0-.06Z" transform="translate(-325.26 -189.16)"/><path class="cls-28" d="M458.44,227.76h0c-1.95-1.43-4.37-3.2-5.77-3.55a33.87,33.87,0,0,0-4.59-.72c-2.18-.28-8-1.05-10.1-1.45a15.84,15.84,0,0,0-3-.22c-1.4.09-4.24,1.45,5.43,6,0,0,10.76-1.09,18,0Z" transform="translate(-325.26 -189.16)"/><path class="cls-3" d="M458.44,227.76v.07h.22l-.16-.12c-1-.71-2.07-1.51-3.09-2.18a10.64,10.64,0,0,0-2.71-1.38,35.66,35.66,0,0,0-4.6-.72c-2.17-.27-8-1-10.09-1.45a15.88,15.88,0,0,0-3-.22h0a2.5,2.5,0,0,0-1,.3,1.1,1.1,0,0,0-.37.34.71.71,0,0,0-.13.5,1.67,1.67,0,0,0,.38.83c.73.93,2.59,2.25,6.58,4.11h0l.27,0,.75-.07c2.85-.24,11.07-.79,16.95.09h0v-.14c-5.9-.88-14.13-.32-17-.08l-1,.09v.07l0-.06a31.75,31.75,0,0,1-5.41-3,5.85,5.85,0,0,1-1.12-1.05,1.37,1.37,0,0,1-.35-.75.6.6,0,0,1,.1-.42,1.16,1.16,0,0,1,.55-.4,2.49,2.49,0,0,1,.73-.17h0v0a15.82,15.82,0,0,1,3,.21c2.15.41,7.92,1.18,10.1,1.46a32,32,0,0,1,4.58.72,10,10,0,0,1,2.66,1.36c1,.66,2.12,1.46,3.09,2.17l0-.05v-.07h0v.07Z" transform="translate(-325.26 -189.16)"/><path class="cls-29" d="M464.78,232.29c-2-1.56-4-2.86-4.54-3.25s-1.11-.79-1.78-1.28h0c-7.23-1.08-18,0-18,0,3.77,1.74,7.5,3.8,11.13,5.62,0,0,7.93-1.62,13.2-1.1Z" transform="translate(-325.26 -189.16)"/><path class="cls-30" d="M464.78,232.29l0,0c-2-1.56-4-2.87-4.54-3.26s-1.11-.78-1.78-1.28h-.06v0c-5.9-.88-14.13-.32-17-.08l-1,.09-.25,0,.22.11c3.77,1.74,7.5,3.8,11.12,5.62l0,0h0a72.17,72.17,0,0,1,7.43-1.05,33.62,33.62,0,0,1,5.75,0l.23,0-.18-.15,0,0v-.06a32,32,0,0,0-5.78.05,70,70,0,0,0-7.45,1.05l0,.06,0,0c-3.62-1.83-7.35-3.88-11.12-5.63l0,.06v.06l.27,0,.75-.07c2.85-.24,11.07-.79,16.95.09h0v-.07l0,.05c.67.49,1.29.95,1.78,1.28s2.53,1.7,4.54,3.26l0-.06v0Z" transform="translate(-325.26 -189.16)"/><path class="cls-31" d="M335.59,222.32a18.36,18.36,0,0,0-.84-2.6c-3.34,1.63-8,3.54-9.09,6C325.89,225.4,328.14,222.87,335.59,222.32Z" transform="translate(-325.26 -189.16)"/><path class="cls-32" d="M335.92,224.23a34,34,0,0,0-10.27,1.5h0c.15.13,2.88,2.43,10.29,2.81a18.62,18.62,0,0,0,.13-2.49A18.31,18.31,0,0,0,335.92,224.23Z" transform="translate(-325.26 -189.16)"/><path class="cls-24" d="M391.46,220.22a3.23,3.23,0,1,1-3.48-2.95A3.23,3.23,0,0,1,391.46,220.22Z" transform="translate(-325.26 -189.16)"/><path class="cls-3" d="M391.91,220.18a3.23,3.23,0,1,1-3.49-3A3.23,3.23,0,0,1,391.91,220.18Z" transform="translate(-325.26 -189.16)"/><path class="cls-33" d="M391.23,220.24a2.55,2.55,0,1,1-2.75-2.33A2.54,2.54,0,0,1,391.23,220.24Z" transform="translate(-325.26 -189.16)"/><path class="cls-34" d="M391,220.26a2.28,2.28,0,1,1-2.46-2.08A2.28,2.28,0,0,1,391,220.26Z" transform="translate(-325.26 -189.16)"/><path class="cls-35" d="M390.35,220.31a1.74,1.74,0,1,1-1.87-1.58A1.74,1.74,0,0,1,390.35,220.31Z" transform="translate(-325.26 -189.16)"/><path class="cls-24" d="M401.9,220.32a3.23,3.23,0,1,1-3.49-2.95A3.24,3.24,0,0,1,401.9,220.32Z" transform="translate(-325.26 -189.16)"/><path class="cls-3" d="M402.35,220.28a3.23,3.23,0,1,1-3.49-2.95A3.24,3.24,0,0,1,402.35,220.28Z" transform="translate(-325.26 -189.16)"/><path class="cls-33" d="M401.66,220.34a2.54,2.54,0,1,1-2.75-2.33A2.54,2.54,0,0,1,401.66,220.34Z" transform="translate(-325.26 -189.16)"/><path class="cls-34" d="M401.4,220.36a2.28,2.28,0,1,1-2.46-2.08A2.28,2.28,0,0,1,401.4,220.36Z" transform="translate(-325.26 -189.16)"/><path class="cls-35" d="M400.85,220.41a1.73,1.73,0,1,1-1.87-1.58A1.73,1.73,0,0,1,400.85,220.41Z" transform="translate(-325.26 -189.16)"/><path class="cls-24" d="M412.05,220.79a3.23,3.23,0,1,1-3.49-2.95A3.24,3.24,0,0,1,412.05,220.79Z" transform="translate(-325.26 -189.16)"/><path class="cls-3" d="M412.5,220.75A3.23,3.23,0,1,1,409,217.8,3.24,3.24,0,0,1,412.5,220.75Z" transform="translate(-325.26 -189.16)"/><path class="cls-33" d="M411.81,220.81a2.54,2.54,0,1,1-2.74-2.33A2.54,2.54,0,0,1,411.81,220.81Z" transform="translate(-325.26 -189.16)"/><path class="cls-34" d="M411.55,220.83a2.28,2.28,0,1,1-2.46-2.08A2.28,2.28,0,0,1,411.55,220.83Z" transform="translate(-325.26 -189.16)"/><path class="cls-35" d="M411,221a1.76,1.76,0,1,1-1.89-1.61A1.75,1.75,0,0,1,411,221Z" transform="translate(-325.26 -189.16)"/><path class="cls-24" d="M422.41,222.21a3.23,3.23,0,1,1-3.49-3A3.23,3.23,0,0,1,422.41,222.21Z" transform="translate(-325.26 -189.16)"/><path class="cls-3" d="M422.86,222.18a3.23,3.23,0,1,1-3.49-3A3.23,3.23,0,0,1,422.86,222.18Z" transform="translate(-325.26 -189.16)"/><path class="cls-33" d="M422.18,222.23a2.55,2.55,0,1,1-2.75-2.32A2.54,2.54,0,0,1,422.18,222.23Z" transform="translate(-325.26 -189.16)"/><path class="cls-34" d="M421.91,222.26a2.28,2.28,0,1,1-2.46-2.09A2.28,2.28,0,0,1,421.91,222.26Z" transform="translate(-325.26 -189.16)"/><path class="cls-35" d="M421.4,222.3a1.77,1.77,0,1,1-1.91-1.62A1.77,1.77,0,0,1,421.4,222.3Z" transform="translate(-325.26 -189.16)"/><path class="cls-36" d="M396.84,220.51l2.71,2.29a2.39,2.39,0,0,0,1-.44l-3.4-2.88A2.26,2.26,0,0,0,396.84,220.51Z" transform="translate(-325.26 -189.16)"/><path class="cls-36" d="M401.39,220.37a.68.68,0,0,0,0-.14l-2.3-1.94h-.14a2.31,2.31,0,0,0-.95.3l3.27,2.77A2.17,2.17,0,0,0,401.39,220.37Z" transform="translate(-325.26 -189.16)"/><path class="cls-36" d="M407,221l2.71,2.29a2.39,2.39,0,0,0,1-.44l-3.4-2.88A2.26,2.26,0,0,0,407,221Z" transform="translate(-325.26 -189.16)"/><path class="cls-36" d="M411.54,220.84a.68.68,0,0,0,0-.14l-2.3-1.94h-.14a2.31,2.31,0,0,0-.95.3l3.27,2.77A2.19,2.19,0,0,0,411.54,220.84Z" transform="translate(-325.26 -189.16)"/><path class="cls-36" d="M417.36,222.4l2.7,2.29a2.27,2.27,0,0,0,1-.44l-3.4-2.88A2.25,2.25,0,0,0,417.36,222.4Z" transform="translate(-325.26 -189.16)"/><path class="cls-36" d="M421.91,222.26a.59.59,0,0,1,0-.14l-2.3-1.94h-.14a2.35,2.35,0,0,0-1,.3l3.27,2.77A2.32,2.32,0,0,0,421.91,222.26Z" transform="translate(-325.26 -189.16)"/><path class="cls-36" d="M386.41,220.4l2.71,2.29a2.39,2.39,0,0,0,1-.44l-3.4-2.88A2.26,2.26,0,0,0,386.41,220.4Z" transform="translate(-325.26 -189.16)"/><path class="cls-36" d="M391,220.26a.68.68,0,0,0,0-.14l-2.3-1.94h-.14a2.31,2.31,0,0,0-.95.3l3.27,2.77A2.17,2.17,0,0,0,391,220.26Z" transform="translate(-325.26 -189.16)"/><path class="cls-3" d="M356.27,204.63s-1.16.87,1.57,2c2.14.89,9.57,3.5,11.92,4.18s2.19,3.51.85,5.93-3,6.7-6.95,7.6-22.48-4.5-21.18-9.6c0,0,3.17-2.28,5.17-4.05S351.42,206.63,356.27,204.63Z" transform="translate(-325.26 -189.16)"/><path class="cls-35" d="M345,218.37a42.08,42.08,0,0,0,10.21,4.11c3.39,1,7.62,2.23,10.66-.3a14.23,14.23,0,0,0,3.09-3.77,25.26,25.26,0,0,0,1.24-2.5c1.41-3.08.26-4.47-1.31-5s-7.35-2.49-10.74-3.78-2.92-2.07-1.76-2.6a19.67,19.67,0,0,0-7.2,4.65,72.46,72.46,0,0,1-6.74,5.53C342.45,216.34,343.6,217.49,345,218.37Z" transform="translate(-325.26 -189.16)"/><path class="cls-37" d="M349.59,217.93c10.7,4.91,14,2,15.91-1,3.09-4.95-2.63-5.67-9.63-7.75a6.2,6.2,0,0,1-3.71-2.38,28.4,28.4,0,0,0-2.5,2.12,59.38,59.38,0,0,1-5.23,4.35C344.89,214.79,346.26,216.41,349.59,217.93Z" transform="translate(-325.26 -189.16)"/><path class="cls-36" d="M352.77,206.47a23.84,23.84,0,0,0-3.37,2.73c-.41.39-.83.77-1.26,1.15a23.65,23.65,0,0,0-.1,9.6,44.26,44.26,0,0,0,4.27,1.65C350.53,216.43,351.42,210.81,352.77,206.47Z" transform="translate(-325.26 -189.16)"/><path class="cls-36" d="M363.05,209l-3.34-1.2c-1.28,4.74-1.84,10.68.81,15.88a8.3,8.3,0,0,0,3.65-.43C361.87,218.58,362.07,213.38,363.05,209Z" transform="translate(-325.26 -189.16)"/><path class="cls-38" d="M362.2,223.76a19.94,19.94,0,0,1-6.82-1.1l-.18,0A43.86,43.86,0,0,1,345,218.48c-3.28-2-2.48-3.73-2.48-3.73,0,1.32.93,2.47,2.62,3.5a41.82,41.82,0,0,0,10.18,4.1l.18.05c3.31.94,7.42,2.11,10.35-.33a14.12,14.12,0,0,0,3.07-3.73c.44-.76.81-1.57,1.17-2.36l.06-.12a4.36,4.36,0,0,0,.42-3.45,2.53,2.53,0,0,0-1.65-1.34c-1.65-.52-7.45-2.52-10.75-3.78-1.65-.63-2.53-1.19-2.68-1.72s.8-.93.8-.93-.68.34-.54.85c.08.31.59.82,2.52,1.55,3.29,1.26,9.09,3.26,10.73,3.78a2.81,2.81,0,0,1,1.81,1.48,4.54,4.54,0,0,1-.42,3.67l-.05.12a25.31,25.31,0,0,1-1.19,2.39,14.27,14.27,0,0,1-3.13,3.8A6.53,6.53,0,0,1,362.2,223.76Z" transform="translate(-325.26 -189.16)"/><path class="cls-39" d="M455.3,225.45h0l.11.06c1,.67,2.1,1.46,3.07,2.17h0l.16.12h0c.61.44,1.16.85,1.62,1.16s2.52,1.69,4.52,3.25h0l.18.15h0c.14.1.27.21.4.32h0l-.64-.51c-2-1.56-4-2.87-4.54-3.26s-1.11-.79-1.77-1.28c-1-.72-2.12-1.54-3.16-2.21Z" transform="translate(-325.26 -189.16)"/><path class="cls-40" d="M454.29,224.83v0c.33.18.67.38,1,.61h0c-.34-.23-.68-.44-1-.62Z" transform="translate(-325.26 -189.16)"/><path class="cls-12" d="M435,221.73a2.36,2.36,0,0,0-.44.07h.17l.27,0h0a15.88,15.88,0,0,1,3,.22c2.14.41,7.92,1.18,10.09,1.45a35.66,35.66,0,0,1,4.6.72,6,6,0,0,1,1.18.48h0a5.83,5.83,0,0,0-1.2-.5,35.56,35.56,0,0,0-4.59-.72c-2.18-.27-7.95-1-10.1-1.45a15.84,15.84,0,0,0-3-.22Z" transform="translate(-325.26 -189.16)"/><path class="cls-19" d="M453.88,224.61h0l.41.23v0l-.41-.22Z" transform="translate(-325.26 -189.16)"/><path class="cls-41" d="M434.53,221.8l-.26.08h.1l.33-.08Z" transform="translate(-325.26 -189.16)"/><path class="cls-42" d="M464.46,232.33l.51.2-.22-.17-.29,0Z" transform="translate(-325.26 -189.16)"/><path class="cls-42" d="M464.46,232.33h0l.29,0,.22.17.43.18c-.13-.11-.26-.22-.4-.32l-.23,0-.31,0Zm.34-.1h0Z" transform="translate(-325.26 -189.16)"/><path class="cls-43" d="M443.81,227.57a86.14,86.14,0,0,1,20.21,4.6l.53,0c-1.93-1.5-3.79-2.74-4.35-3.12s-1.1-.78-1.76-1.26h0a77.18,77.18,0,0,0-14.62-.26Z" transform="translate(-325.26 -189.16)"/><path class="cls-44" d="M434.06,222a8.25,8.25,0,0,0-1.76.31,2.56,2.56,0,0,0-1.18.69,1,1,0,0,0-.26.69v.09a2.4,2.4,0,0,0,.73,1.28,11.86,11.86,0,0,0,1.83,1.51,51.53,51.53,0,0,0,5.69,3.29v0a2.43,2.43,0,0,1,.14-1.09,1.58,1.58,0,0,1,1-1c-1.28-.6-2.33-1.14-3.19-1.63-4.38-2.47-4-3.69-3-4.16Z" transform="translate(-325.26 -189.16)"/><path class="cls-41" d="M437.06,226.13c.86.49,1.91,1,3.19,1.63h0l-.07,0h0l-1.23-.59h0c-.71-.36-1.34-.69-1.89-1Zm-3-4.24c-1.74.15-3.29.64-3.3,1.76,0,1.59,3.85,4,8.33,6.25v-.07a51.53,51.53,0,0,1-5.69-3.29,11.86,11.86,0,0,1-1.83-1.51,2.4,2.4,0,0,1-.73-1.28v-.09a1,1,0,0,1,.26-.69,2.56,2.56,0,0,1,1.18-.69,8.25,8.25,0,0,1,1.76-.31l.21-.09Z" transform="translate(-325.26 -189.16)"/><path class="cls-45" d="M440.43,227.84a1.48,1.48,0,0,0-1.06.92,2.59,2.59,0,0,0-.13,1,.75.75,0,0,0,0,.11c2.9,1.48,6.05,2.92,8.55,4.08a12,12,0,0,1-1.3-3.11c-2-1-4-2.07-6.06-3l0,0Z" transform="translate(-325.26 -189.16)"/><path class="cls-41" d="M440.27,227.75h0a1.58,1.58,0,0,0-1,1,2.43,2.43,0,0,0-.14,1.09v.1l.08,0c2.94,1.51,6.14,3,8.67,4.14l-.06-.1c-2.5-1.16-5.65-2.6-8.55-4.08a.75.75,0,0,1,0-.11,2.59,2.59,0,0,1,.13-1,1.48,1.48,0,0,1,1.06-.92l0,0c2,.94,4.06,2,6.06,3v0c-2-1-4-2.08-6.08-3h0l-.15-.08Z" transform="translate(-325.26 -189.16)"/><path class="cls-40" d="M439,227.13l1.23.59h.11l-1.19-.57Z" transform="translate(-325.26 -189.16)"/><path class="cls-46" d="M440.31,227.71h-.11l.07,0,.15.08h0c2,.94,4.07,2,6.08,3l0-.07c-2-1-4-2.05-6-3l0,0-.13-.06Z" transform="translate(-325.26 -189.16)"/><path class="cls-47" d="M434.1,222h0c-1,.47-1.38,1.69,3,4.16a13.26,13.26,0,0,1-2.92-2.07,4.07,4.07,0,0,1-.3-.34,1.67,1.67,0,0,1-.38-.83.71.71,0,0,1,.13-.5,1.1,1.1,0,0,1,.37-.34l.18-.09Z" transform="translate(-325.26 -189.16)"/><path class="cls-48" d="M434.14,224.06a13.26,13.26,0,0,0,2.92,2.07c.55.31,1.18.64,1.89,1h0a19.17,19.17,0,0,1-4.83-3.07Zm.13-2.18-.21.09h.08a1.57,1.57,0,0,1,.23-.09Z" transform="translate(-325.26 -189.16)"/><path class="cls-49" d="M434.37,221.87a1.57,1.57,0,0,0-.23.09l-.18.09a1.1,1.1,0,0,0-.37.34.71.71,0,0,0-.13.5,1.67,1.67,0,0,0,.38.83,4.07,4.07,0,0,0,.3.34,19.17,19.17,0,0,0,4.83,3.07h.15c-7.94-3.93-5.45-5.18-4.11-5.29h0l-.68,0Z" transform="translate(-325.26 -189.16)"/><path class="cls-50" d="M389.64,236.69c.91.68,2,1.46,3.34,2.37l.55,0,.86,0-2.94-1.44-.12,0h0l-1.69-.83Z" transform="translate(-325.26 -189.16)"/><path class="cls-51" d="M393,239.06l.44.29c2.6,1.75-.6.58-2.7,2.72a2.35,2.35,0,0,1,.72-.24h.11a2,2,0,0,1,.42,0h0c.7,0,1.55,0,2.49-.06a1.42,1.42,0,0,1,0-.16,4.85,4.85,0,0,0,.17-1.86c0-.26-.06-.48-.08-.63l-.22-.11-.86,0-.55,0Z" transform="translate(-325.26 -189.16)"/><path class="cls-22" d="M390.19,254.92a2.46,2.46,0,0,0,2.39,1.94c.4,0,.67,1.1.67,1.1a101.65,101.65,0,0,0,16.16-3.27c7-2.07,9.3-3.76,6.91-8.74s-6.71-4.76-9.25-4.73-11.24.65-15.08.68c0,0-2.49,10.7-1.8,13Z" transform="translate(-325.26 -189.16)"/><path class="cls-23" d="M390.19,254.92h-.06a2.33,2.33,0,0,0,.42.95,2.53,2.53,0,0,0,2,1,.21.21,0,0,1,.12.05.77.77,0,0,1,.19.23,2.25,2.25,0,0,1,.22.51,1.3,1.3,0,0,1,.06.19l0,.08,0,0h.05a102.93,102.93,0,0,0,16.18-3.28,22.39,22.39,0,0,0,6.05-2.46,4.53,4.53,0,0,0,1.44-1.54,3.47,3.47,0,0,0,.36-1.95,8.52,8.52,0,0,0-.9-2.88,7.7,7.7,0,0,0-4.61-4.28,13.74,13.74,0,0,0-4.7-.48c-1.27,0-4.08.17-7.06.33s-6.11.33-8,.34h-.05v0s-.54,2.32-1,5c-.26,1.36-.5,2.82-.67,4.13a17.69,17.69,0,0,0-.18,3.28,3.1,3.1,0,0,0,.1.61l.06,0h0l.07,0a2.66,2.66,0,0,1-.1-.58,17.58,17.58,0,0,1,.19-3.25c.24-2,.67-4.26,1-6.06.19-.89.35-1.67.47-2.22.06-.28.11-.49.15-.65l.05-.23H392V242c1.92,0,5.06-.17,8-.33s5.79-.32,7.05-.34a13.7,13.7,0,0,1,4.66.48,7.56,7.56,0,0,1,4.53,4.21,8.29,8.29,0,0,1,.89,2.84,3.3,3.3,0,0,1-.35,1.87,5.42,5.42,0,0,1-2.5,2.13,31,31,0,0,1-4.91,1.81,102.29,102.29,0,0,1-16.15,3.26V258l.06,0a5.43,5.43,0,0,0-.18-.55,2.08,2.08,0,0,0-.22-.39.49.49,0,0,0-.15-.14.29.29,0,0,0-.18-.07,2.43,2.43,0,0,1-2.25-1.61l-.05-.2s0,0,0,0v0h0l-.07,0Z" transform="translate(-325.26 -189.16)"/><path class="cls-24" d="M391.49,249.61c-.28-.29-.67-.74-1.11-1.26-.66,2.9.69,4.45,1,5.55,0,0-1.21,1.94.88,2.06.41,0,1.73,1.94,1.73,1.94a93.33,93.33,0,0,0,15.41-3.09c5.36-1.59,8-3,7.81-5.77-3.12,1.66-9.79,2.57-15.25,3.45-7.82,1.27-8.27-.6-10.49-2.88Z" transform="translate(-325.26 -189.16)"/><path class="cls-23" d="M391.49,249.61l.05-.05c-.28-.29-.67-.73-1.11-1.25l-.09-.11,0,.14a6.73,6.73,0,0,0-.15,2,6.49,6.49,0,0,0,.55,2.1c.25.58.51,1,.63,1.44l.06,0-.06,0a2.46,2.46,0,0,0-.19.4,1.75,1.75,0,0,0-.16.84.91.91,0,0,0,.31.62,1.69,1.69,0,0,0,1,.31.43.43,0,0,1,.15.08,3,3,0,0,1,.46.44c.25.28.52.63.72.9l.25.35.1.13,0,0h0a91.57,91.57,0,0,0,15.42-3.09,22.24,22.24,0,0,0,6-2.43,4.51,4.51,0,0,0,1.46-1.5,3.44,3.44,0,0,0,.41-1.9v-.11l-.09,0a26.37,26.37,0,0,1-6.73,2c-2.74.55-5.77,1-8.5,1.43-1,.17-1.88.28-2.66.34-2.64.22-4.1-.08-5.14-.69a13.35,13.35,0,0,1-2.63-2.51l-.05.05-.05,0a13.21,13.21,0,0,0,2.67,2.54c1.07.62,2.55.93,5.21.71.78-.07,1.67-.18,2.67-.34,2.73-.44,5.76-.89,8.51-1.44a26.46,26.46,0,0,0,6.76-2l0-.06h-.07a3.22,3.22,0,0,1-.39,1.82,5.58,5.58,0,0,1-2.51,2.1,29.94,29.94,0,0,1-4.86,1.77A92.12,92.12,0,0,1,394,257.83v.07l.06,0s-.33-.48-.72-1a6.66,6.66,0,0,0-.58-.67,2.53,2.53,0,0,0-.26-.23.39.39,0,0,0-.22-.1,1.56,1.56,0,0,1-.9-.28.74.74,0,0,1-.27-.53,1.81,1.81,0,0,1,.15-.78,2.33,2.33,0,0,1,.13-.27l0-.08v0h0v-.05a13.91,13.91,0,0,0-.63-1.45,6.64,6.64,0,0,1-.54-2.07,6.43,6.43,0,0,1,.15-2l-.06,0-.05.05c.44.52.83,1,1.11,1.25l.05,0Z" transform="translate(-325.26 -189.16)"/><path class="cls-52" d="M396.41,249.4c.62,4.43-.59,8.27-2.72,8.57s-4.34-3.06-5-7.5.59-8.27,2.72-8.57,4.34,3.06,5,7.5Z" transform="translate(-325.26 -189.16)"/><path class="cls-52" d="M396.41,249.4h-.06c0,.31.08.63.1.94a12.44,12.44,0,0,1-.54,5.19,4.76,4.76,0,0,1-1,1.64,2.07,2.07,0,0,1-1.28.72l-.1,0a2.31,2.31,0,0,1-1.51-.48,6.78,6.78,0,0,1-2-2.66,14.84,14.84,0,0,1-1.25-4.32c0-.31-.08-.63-.1-.94a12.44,12.44,0,0,1,.54-5.19,4.76,4.76,0,0,1,.95-1.64,2.13,2.13,0,0,1,1.28-.73h.1a2.31,2.31,0,0,1,1.51.48,6.87,6.87,0,0,1,2,2.66,15.06,15.06,0,0,1,1.25,4.32h.13a13.75,13.75,0,0,0-1.89-5.48,5.64,5.64,0,0,0-1.44-1.59,2.48,2.48,0,0,0-1.6-.5h-.11a2.25,2.25,0,0,0-1.36.77,6.09,6.09,0,0,0-1.3,2.8,14.41,14.41,0,0,0-.23,4.13c0,.31.06.63.11.95a13.91,13.91,0,0,0,1.88,5.48,5.81,5.81,0,0,0,1.45,1.59,2.48,2.48,0,0,0,1.6.5h.11a2.3,2.3,0,0,0,1.36-.77,6.09,6.09,0,0,0,1.3-2.8,14.41,14.41,0,0,0,.23-4.13c0-.32-.07-.63-.11-1Z" transform="translate(-325.26 -189.16)"/><path class="cls-53" d="M396,249.51c.61,4.39-.59,8.19-2.69,8.48s-4.3-3-4.91-7.42.59-8.18,2.69-8.47,4.3,3,4.91,7.41Z" transform="translate(-325.26 -189.16)"/><path class="cls-54" d="M396,249.51h-.07c.05.32.08.62.11.93a12.55,12.55,0,0,1-.54,5.14,4.9,4.9,0,0,1-.93,1.62,2.13,2.13,0,0,1-1.27.71l-.1,0a2.33,2.33,0,0,1-1.5-.47,6.86,6.86,0,0,1-2-2.63,14.87,14.87,0,0,1-1.24-4.28c0-.31-.08-.62-.1-.93a12.15,12.15,0,0,1,.54-5.13,4.78,4.78,0,0,1,.93-1.63,2.16,2.16,0,0,1,1.27-.71h.1a2.31,2.31,0,0,1,1.49.47,6.7,6.7,0,0,1,2,2.63,14.59,14.59,0,0,1,1.23,4.27h.14a13.72,13.72,0,0,0-1.87-5.42,5.65,5.65,0,0,0-1.43-1.57,2.37,2.37,0,0,0-1.59-.49h-.1a2.3,2.3,0,0,0-1.35.75,6,6,0,0,0-1.28,2.78,14.11,14.11,0,0,0-.23,4.09c0,.3.07.62.11.93a13.56,13.56,0,0,0,1.87,5.43,5.64,5.64,0,0,0,1.43,1.57,2.46,2.46,0,0,0,1.58.49h.11a2.24,2.24,0,0,0,1.34-.76,6,6,0,0,0,1.29-2.77,13.81,13.81,0,0,0,.22-4.09c0-.31-.06-.62-.1-.94Z" transform="translate(-325.26 -189.16)"/><path class="cls-55" d="M391,243l.18,0,.09,0c1.85-.15,3.78,2.8,4.34,6.66s-.5,7.32-2.38,7.57H393c1.83-.15,3-3.77,2.44-7.53s-2.49-6.82-4.31-6.66Zm.35-.61h-.09c-1.87.26-2.91,3.9-2.32,8.13s2.53,7.35,4.38,7.2h.09c1.87-.26,2.91-3.9,2.32-8.13s-2.53-7.36-4.38-7.2Z" transform="translate(-325.26 -189.16)"/><path class="cls-56" d="M391.31,242.92l-.09,0-.18,0h.06c1.82-.16,3.78,3,4.31,6.66s-.61,7.38-2.44,7.53h.3c1.88-.25,2.94-3.64,2.38-7.57s-2.49-6.81-4.34-6.66Z" transform="translate(-325.26 -189.16)"/><path class="cls-57" d="M392.4,243.81h-.22c-1.27.18-1.92,3-1.46,6.25s1.85,5.79,3.12,5.62a1.31,1.31,0,0,0,.83-.6,11.3,11.3,0,0,0,.38-5.4C394.66,246.91,393.59,244.63,392.4,243.81Z" transform="translate(-325.26 -189.16)"/><path d="M392.4,243.81v-.06h-.24a1.28,1.28,0,0,0-.81.53,4.62,4.62,0,0,0-.72,2,12.36,12.36,0,0,0-.08,3c0,.28.05.57.09.86a12.42,12.42,0,0,0,1.25,4.09,4,4,0,0,0,.9,1.19,1.35,1.35,0,0,0,1,.4h.06a1.28,1.28,0,0,0,.87-.62h0a10.69,10.69,0,0,0,.48-4.56c0-.29,0-.57-.09-.87a13.52,13.52,0,0,0-1-3.69,5.33,5.33,0,0,0-1.64-2.23h0v.06l0,.06A5.3,5.3,0,0,1,394,246a13.41,13.41,0,0,1,1,3.66c0,.29.08.58.1.86a10.43,10.43,0,0,1-.48,4.51l.07,0-.06,0a1.16,1.16,0,0,1-.78.57h-.05a1.25,1.25,0,0,1-.89-.37,5.29,5.29,0,0,1-1.27-2,13.52,13.52,0,0,1-.83-3.21c0-.29-.08-.57-.1-.86a10.81,10.81,0,0,1,.25-3.69,3.63,3.63,0,0,1,.53-1.15,1.15,1.15,0,0,1,.72-.48h.21v-.07l0,.06Z" transform="translate(-325.26 -189.16)"/><path class="cls-52" d="M393.17,249.84a10.74,10.74,0,0,0,1.88-.15,14.09,14.09,0,0,0-.83-3.2s-.53,1.53-1.06,3.33Z" transform="translate(-325.26 -189.16)"/><path class="cls-52" d="M393.17,249.84v.07c.41,0,.81,0,1.17,0a6,6,0,0,0,.72-.1h.06v-.07a14.41,14.41,0,0,0-.83-3.22l-.07-.17-.06.17,0,0,0,0h0l0,0,0,0s-.54,1.55-1.07,3.34v0l0,0,0,0h0v-.07l.06,0,0,0,0,0h.06c.27-.89.53-1.72.73-2.33.1-.3.19-.55.24-.72s.06-.16.07-.2a.14.14,0,0,0,0-.06h0l-.07,0-.06,0a13.51,13.51,0,0,1,.82,3.19h.07v-.06a5.94,5.94,0,0,1-.71.09c-.36,0-.76.05-1.16.05v.07l.06,0Z" transform="translate(-325.26 -189.16)"/><polygon class="cls-57" points="67.89 60.69 67.89 60.68 67.89 60.68 67.89 60.69"/><polygon points="67.89 60.69 67.95 60.71 67.96 60.7 67.98 60.62 67.89 60.61 67.81 60.61 67.82 60.7 67.95 60.71 67.89 60.69 67.96 60.68 67.95 60.67 67.89 60.68 67.89 60.75 67.89 60.75 67.89 60.68 67.83 60.66 67.83 60.67 67.89 60.69 67.96 60.68 67.89 60.69"/><polygon class="cls-57" points="67.89 60.68 67.92 60.68 67.9 60.66 67.89 60.68"/><polygon points="67.89 60.68 67.89 60.75 67.92 60.75 68.05 60.75 67.87 60.51 67.8 60.75 67.89 60.75 67.89 60.68 67.96 60.7 67.97 60.68 67.9 60.66 67.85 60.7 67.86 60.72 67.92 60.68 67.92 60.61 67.89 60.61 67.89 60.68 67.96 60.7 67.89 60.68"/><path class="cls-57" d="M393.14,249.79v.05h0v0Z" transform="translate(-325.26 -189.16)"/><path d="M393.14,249.79h-.07v.1h.11l0-.08v0l0-.05-.12.05h.07l-.06,0,0,0,.06,0-.07,0v0l.06,0v-.07h0v.07h.06a.07.07,0,0,0,0-.05h-.06l-.06,0Z" transform="translate(-325.26 -189.16)"/><path class="cls-52" d="M393.15,249.84h0c.34,2.05.66,4.23.8,5.81a1.33,1.33,0,0,0,.72-.57,8.68,8.68,0,0,0,.5-2.58c-.18-.27-1.06-1.44-2-2.67Z" transform="translate(-325.26 -189.16)"/><path class="cls-52" d="M393.15,249.84l-.06,0h0v0c.34,2,.67,4.23.81,5.81v.08l.08,0a1.38,1.38,0,0,0,.75-.6h0a8.5,8.5,0,0,0,.51-2.6v0c-.19-.27-1.07-1.44-2-2.67l0,0h-.11v0l.06,0v.07h0v-.07l-.05,0c.93,1.23,1.81,2.4,2,2.67l.05,0h-.06a8.59,8.59,0,0,1-.51,2.56l.07,0-.06,0a1.27,1.27,0,0,1-.67.55v.06H394c-.14-1.59-.47-3.77-.81-5.82h-.06l.06,0h0l-.07,0v0Z" transform="translate(-325.26 -189.16)"/><path class="cls-52" d="M392.06,243.84h0c-.7.2-1.2,1.23-1.39,2.69l2.47,3.26C392.62,246.67,392.06,243.84,392.06,243.84Z" transform="translate(-325.26 -189.16)"/><path class="cls-52" d="M392.06,243.84l0-.06a1.61,1.61,0,0,0-.92.9,5.93,5.93,0,0,0-.52,1.84v.06s1.28,1.67,2.47,3.25l.12-.05c-.52-3.13-1.07-5.95-1.07-5.95l0-.07-.07,0,0,.06H392s0,.18.09.5c.18.93.59,3.11,1,5.45h.07l.05,0-2.47-3.26-.05,0h.07a5.44,5.44,0,0,1,.5-1.8,1.46,1.46,0,0,1,.84-.83l0-.07h0Z" transform="translate(-325.26 -189.16)"/><path class="cls-52" d="M393.15,249.84c-1.23,0-2.47-.07-2.47-.07s0,.2,0,.3a11.75,11.75,0,0,0,1.41,4.36,24.49,24.49,0,0,1,1-4.58Z" transform="translate(-325.26 -189.16)"/><path class="cls-52" d="M393.15,249.84v-.07c-.61,0-1.22,0-1.69,0l-.55,0h-.29v.08c0,.11,0,.21,0,.31a11.68,11.68,0,0,0,1.42,4.38l.11.18v-.21a26.43,26.43,0,0,1,1-4.56v-.1h-.06v.07h0l-.07,0a26.49,26.49,0,0,0-1,4.59h.07l.05,0a11.54,11.54,0,0,1-1.39-4.33c0-.1,0-.2,0-.3h-.07v.06s1.23.08,2.47.07v-.06h0Z" transform="translate(-325.26 -189.16)"/><path class="cls-58" d="M393.14,249.79l0,0c.53-1.8,1.06-3.33,1.06-3.33a5.92,5.92,0,0,0-1.82-2.68h-.22l-.12,0S392.62,246.67,393.14,249.79Z" transform="translate(-325.26 -189.16)"/><path class="cls-54" d="M393.14,249.79l-.06,0,0,0,.08.1,0-.13c.27-.89.53-1.72.73-2.33.1-.3.19-.55.24-.72s.06-.16.07-.2a.14.14,0,0,0,0-.06h0v0a6,6,0,0,0-1.85-2.7h-.27l-.13,0H392l0,.06s0,.18.09.5c.18.93.59,3.11,1,5.45v0h0l.06,0h.06c-.52-3.13-1.07-5.95-1.07-5.95h-.07l0,.07.11,0h.21v-.07l0,.06a5.81,5.81,0,0,1,1.8,2.64l.06,0-.06,0,0,0,0,0h0l0,0,0,0s-.54,1.55-1.07,3.34l.07,0,0,0,0,0-.05,0h0Z" transform="translate(-325.26 -189.16)"/><path class="cls-58" d="M393.15,249.84v-.05l-2.47-3.26a13,13,0,0,0,0,3.24S391.92,249.85,393.15,249.84Z" transform="translate(-325.26 -189.16)"/><path class="cls-54" d="M393.15,249.84h.06a.07.07,0,0,0,0-.05v0h0l-2.47-3.26-.1-.13,0,.16a13.31,13.31,0,0,0,0,2.7c0,.18,0,.37.05.55v.06h.06s1.23.08,2.47.07h.08l0-.07h-.06v-.07c-.61,0-1.22,0-1.69,0l-.55,0h-.22v.07h.07c0-.19,0-.37-.06-.55a12.27,12.27,0,0,1,.05-2.67h-.07l-.06.05s1.28,1.67,2.47,3.25l.06,0h-.07v0h.07v0Z" transform="translate(-325.26 -189.16)"/><path class="cls-58" d="M393.17,249.84c.94,1.23,1.82,2.4,2,2.67a14.42,14.42,0,0,0-.12-2.82A10.74,10.74,0,0,1,393.17,249.84Z" transform="translate(-325.26 -189.16)"/><path class="cls-54" d="M393.17,249.84l-.05,0c.93,1.23,1.81,2.4,2,2.67l.11.16v-.2a13.09,13.09,0,0,0,0-2c0-.28,0-.57-.09-.86v-.07l-.07,0a5.94,5.94,0,0,1-.71.09c-.36,0-.76.05-1.16.05H393l.08.11.05,0v.07c.41,0,.81,0,1.17,0a6,6,0,0,0,.72-.1v-.07H395c0,.29.07.57.1.85a16.2,16.2,0,0,1,0,2h.06l.06,0c-.19-.27-1.07-1.44-2-2.67l-.06,0v0Z" transform="translate(-325.26 -189.16)"/><path class="cls-58" d="M392.13,254.43c.53.86,1.13,1.34,1.71,1.26l.11,0c-.14-1.58-.46-3.76-.8-5.81A24.49,24.49,0,0,0,392.13,254.43Z" transform="translate(-325.26 -189.16)"/><path class="cls-54" d="M392.13,254.43l-.06,0a3.62,3.62,0,0,0,.83,1,1.29,1.29,0,0,0,.89.32h.06l.12,0,.06,0v-.05c-.14-1.59-.47-3.77-.81-5.82h-.13a26.49,26.49,0,0,0-1,4.59v0l.06,0h.06a26.43,26.43,0,0,1,1-4.56l-.06,0h-.07c.34,2,.67,4.23.81,5.81H394v-.06l-.11,0h-.05a1.17,1.17,0,0,1-.8-.29,3.76,3.76,0,0,1-.8-1l-.05,0h0Z" transform="translate(-325.26 -189.16)"/><path class="cls-59" d="M393.84,255.69c-1.27.17-2.66-2.34-3.12-5.62s.19-6.07,1.46-6.25h.22a1.55,1.55,0,0,0-1.1-.31c-1.56.22-2.41,3.34-1.91,7s2.19,6.41,3.75,6.19c.65-.09,1.17-.67,1.53-1.58A1.31,1.31,0,0,1,393.84,255.69Z" transform="translate(-325.26 -189.16)"/><path class="cls-52" d="M393.84,255.69v-.07h-.05a1.25,1.25,0,0,1-.89-.37,5.29,5.29,0,0,1-1.27-2,13.52,13.52,0,0,1-.83-3.21c0-.29-.08-.57-.1-.86a10.81,10.81,0,0,1,.25-3.69,3.63,3.63,0,0,1,.53-1.15,1.15,1.15,0,0,1,.72-.48h.21l0-.12a1.66,1.66,0,0,0-1.08-.33h-.07a1.59,1.59,0,0,0-1,.6,5,5,0,0,0-.92,2.26,12.31,12.31,0,0,0-.14,3.33c0,.28.06.57.1.86a12.45,12.45,0,0,0,1.46,4.52,4.57,4.57,0,0,0,1.09,1.31,1.7,1.7,0,0,0,1.2.43h.07a1.6,1.6,0,0,0,.91-.5,3.49,3.49,0,0,0,.67-1.13l-.12-.06a1.16,1.16,0,0,1-.78.57v.13a1.28,1.28,0,0,0,.87-.62l-.05,0-.07,0a3.13,3.13,0,0,1-.64,1.07,1.36,1.36,0,0,1-.83.47h-.06a1.59,1.59,0,0,1-1.11-.4,5.8,5.8,0,0,1-1.53-2.19,13.75,13.75,0,0,1-1-3.56c0-.29-.07-.57-.09-.85a11,11,0,0,1,.35-4.18,3.92,3.92,0,0,1,.68-1.31,1.43,1.43,0,0,1,.91-.56h.07a1.48,1.48,0,0,1,1,.31l0-.06v-.06h-.24a1.28,1.28,0,0,0-.81.53,4.62,4.62,0,0,0-.72,2,12.36,12.36,0,0,0-.08,3c0,.28.05.57.09.86a12.42,12.42,0,0,0,1.25,4.09,4,4,0,0,0,.9,1.19,1.35,1.35,0,0,0,1,.4h.06Z" transform="translate(-325.26 -189.16)"/><path class="cls-60" d="M390,250.22c-.43-3.12.13-5.85,1.29-6.71-1.54.27-2.37,3.37-1.87,7s2.19,6.41,3.75,6.19a1.27,1.27,0,0,0,.63-.27h0C392.16,256.63,390.48,253.86,390,250.22Z" transform="translate(-325.26 -189.16)"/><path class="cls-54" d="M390.77,250.43l1.63-.13-.73,3.26A14.71,14.71,0,0,1,390.77,250.43Z" transform="translate(-325.26 -189.16)"/><path class="cls-54" d="M391.71,244l.69,3.9-1.66-1.85A3.57,3.57,0,0,1,391.71,244Z" transform="translate(-325.26 -189.16)"/><path class="cls-54" d="M394.55,247.17l-.93,2.24,1.41-.24A16.8,16.8,0,0,0,394.55,247.17Z" transform="translate(-325.26 -189.16)"/><path class="cls-54" d="M395.2,253.14l-1.44-2.1.63,4.38S394.9,255.27,395.2,253.14Z" transform="translate(-325.26 -189.16)"/><path class="cls-61" d="M392.62,244.7l.61,3.41.59-1.78A3.47,3.47,0,0,0,392.62,244.7Z" transform="translate(-325.26 -189.16)"/><path class="cls-61" d="M391,247.62l1.55,1.88-1.52-.16A1.88,1.88,0,0,1,391,247.62Z" transform="translate(-325.26 -189.16)"/><path class="cls-61" d="M393,251.27l-.49,2.93s.18.91.94.89Z" transform="translate(-325.26 -189.16)"/><path class="cls-61" d="M393.68,250.09h1.08s.47,1,.11,1.36Z" transform="translate(-325.26 -189.16)"/><path class="cls-44" d="M393.18,241.94a12.86,12.86,0,0,1,5.74,9.58c0,.44.05.86.05,1.27l.34,0c.78-.06,1.66-.17,2.66-.34,2.73-.44,5.76-.88,8.5-1.43a31.65,31.65,0,0,0,6-1.66,55,55,0,0,1-6.33-2.6h0l0,0-.06,0h0c-1.69-.81-3.68-1.79-5.81-2.83-.86.12-1.71.22-2.53.28-1.4.12-2.68.16-3.62.15a6.45,6.45,0,0,1-2-.29,2.18,2.18,0,0,1-.55-.29,7.4,7.4,0,0,1-.8-.61,1,1,0,0,1-.32-.65,1.44,1.44,0,0,1,.05-.53l-1.25,0Z" transform="translate(-325.26 -189.16)"/><path class="cls-41" d="M393.15,241.93h0l1.25,0h0l-1.29,0Z" transform="translate(-325.26 -189.16)"/><path class="cls-62" d="M416.66,249.4a31,31,0,0,1-6.16,1.72c-2.75.55-5.78,1-8.51,1.44-1,.16-1.89.27-2.67.34h0l-.36,0a9.45,9.45,0,0,1-1.23,4.42c2.31-.36,5-.88,7.72-1.54,1.27-.31,2.52-.64,3.73-1l.22-.07a29.94,29.94,0,0,0,4.86-1.77,5.58,5.58,0,0,0,2.51-2.1,3,3,0,0,0,.39-1.3l-.5-.17Z" transform="translate(-325.26 -189.16)"/><path class="cls-41" d="M405.45,255.8c-2.73.66-5.41,1.18-7.72,1.54l0,.05c2.36-.4,5.08-.94,7.75-1.59Zm11.71-6.23a3,3,0,0,1-.39,1.3,5.58,5.58,0,0,1-2.51,2.1,29.94,29.94,0,0,1-4.86,1.77l-.22.07.23-.07c5-1.47,7.57-2.75,7.81-5.16Zm-.69-.24a31.65,31.65,0,0,1-6,1.66c-2.74.55-5.77,1-8.5,1.43-1,.17-1.88.28-2.66.34l-.34,0a.57.57,0,0,0,0,.13l.36,0h0c.78-.07,1.67-.18,2.67-.34,2.73-.44,5.76-.89,8.51-1.44a31,31,0,0,0,6.16-1.72l-.19-.07Z" transform="translate(-325.26 -189.16)"/><path class="cls-63" d="M394.13,234.83c-2.71,1.12.49,4,.49,4a5.79,5.79,0,0,1,0,2.78c-.36,1.09,0,1.32,1,2s.68-5.35.68-5.35-.05-4.3-2.1-3.46Z" transform="translate(-325.26 -189.16)"/><path class="cls-23" d="M394.13,234.83l0-.06a2,2,0,0,0-.92.68,1.33,1.33,0,0,0-.2.86,3.52,3.52,0,0,0,.84,1.76,6.91,6.91,0,0,0,.76.83l0-.05h-.06a.42.42,0,0,0,0,.07,5.52,5.52,0,0,1,.12.82,4.85,4.85,0,0,1-.17,1.86,2.12,2.12,0,0,0-.14.82,1,1,0,0,0,.32.65,7.87,7.87,0,0,0,.81.62.34.34,0,0,0,.21.06.26.26,0,0,0,.18-.09,1.06,1.06,0,0,0,.21-.44,8.11,8.11,0,0,0,.19-1.34c.1-1.58,0-3.6,0-3.6h0s0-.21,0-.53a7,7,0,0,0-.4-2,2.2,2.2,0,0,0-.51-.84,1,1,0,0,0-.82-.3,1.24,1.24,0,0,0-.44.11l0,.06,0,.06a1.3,1.3,0,0,1,.4-.1.91.91,0,0,1,.72.27,2.81,2.81,0,0,1,.64,1.28,8.92,8.92,0,0,1,.23,1.43c0,.16,0,.29,0,.38s0,.14,0,.14h0s0,.08,0,.22c0,.52.06,1.79,0,2.95A10.13,10.13,0,0,1,396,243a3.09,3.09,0,0,1-.15.48.62.62,0,0,1-.09.12.12.12,0,0,1-.08,0,.24.24,0,0,1-.12,0,6.74,6.74,0,0,1-.79-.61.85.85,0,0,1-.29-.56,1.93,1.93,0,0,1,.14-.77,4.92,4.92,0,0,0,.17-1.91,6.48,6.48,0,0,0-.13-.91v0h0l0,0a7.34,7.34,0,0,1-.8-.89,3.3,3.3,0,0,1-.74-1.6,1.19,1.19,0,0,1,.19-.77,1.75,1.75,0,0,1,.85-.63l0-.06Z" transform="translate(-325.26 -189.16)"/><path class="cls-24" d="M393.79,236.62c.59,1.25,1.42,2.49,1.38,4.11s-1.07,3.42,2.89,3.47,14-.79,13.59-4.71-19.06-5.41-17.86-2.87Z" transform="translate(-325.26 -189.16)"/><path class="cls-23" d="M393.79,236.62l-.06,0a10.52,10.52,0,0,1,1.36,3.58c0,.16,0,.33,0,.5a18.1,18.1,0,0,0-.14,1.9,1.57,1.57,0,0,0,.18.64,1.55,1.55,0,0,0,.91.71,6.45,6.45,0,0,0,2,.29c.94,0,2.22,0,3.62-.15a27.34,27.34,0,0,0,6.78-1.29,7,7,0,0,0,2.41-1.34,2.33,2.33,0,0,0,.85-2v0a1.8,1.8,0,0,0-.57-1.07,7.46,7.46,0,0,0-2.69-1.48,34.84,34.84,0,0,0-12.23-1.58,7.51,7.51,0,0,0-1.86.35,1.43,1.43,0,0,0-.52.31.52.52,0,0,0-.17.42.83.83,0,0,0,.06.21l.06,0,.06,0a.58.58,0,0,1-.05-.16.43.43,0,0,1,.14-.32,1.94,1.94,0,0,1,.83-.39,8.39,8.39,0,0,1,1.46-.22,35.62,35.62,0,0,1,9.39.79,17.64,17.64,0,0,1,4.14,1.35,5.18,5.18,0,0,1,1.29.88,1.68,1.68,0,0,1,.53,1v.05a2.19,2.19,0,0,1-.8,1.84,9.28,9.28,0,0,1-3.93,1.79,32.63,32.63,0,0,1-5.18.81c-1.4.12-2.67.15-3.61.14a4.57,4.57,0,0,1-2.35-.46,1.23,1.23,0,0,1-.45-.46,1.49,1.49,0,0,1-.17-.59c0-.56.13-1.23.15-1.89,0-.17,0-.34,0-.51a10.41,10.41,0,0,0-1.37-3.63l-.06,0Z" transform="translate(-325.26 -189.16)"/><path class="cls-25" d="M395.9,241.39s-.94,2.73,3.41,1.87C399.31,243.26,396,243.81,395.9,241.39Z" transform="translate(-325.26 -189.16)"/><path class="cls-64" d="M386.14,231.09A202.91,202.91,0,0,0,410.83,245c9.25,4.22,19,6.31,24.69,3.54,2.11-1,1.57-2.88.27-4.8-.6-.64-1.33-1.35-2.19-2.11-5.24-4.69-17.06-13-20.35-14.42s-10.86-1.46-14.69-1.67a54.37,54.37,0,0,0-12.85.45c-.21,0-5.23,1.41.43,5.1Z" transform="translate(-325.26 -189.16)"/><path d="M386.14,231.09l0,0a203,203,0,0,0,24.7,13.93c7.06,3.22,14.4,5.2,20,4.73a13.16,13.16,0,0,0,4.71-1.2,2.66,2.66,0,0,0,1.17-1,2,2,0,0,0,.27-1.25,6.07,6.07,0,0,0-1.14-2.67h0a28.67,28.67,0,0,0-2.2-2.12,136.68,136.68,0,0,0-10.91-8.45c-2-1.42-4-2.74-5.61-3.79a32,32,0,0,0-3.84-2.19,25.4,25.4,0,0,0-7.16-1.29c-2.79-.22-5.64-.28-7.56-.39a70,70,0,0,0-9.58,0,31.07,31.07,0,0,0-3.28.43h0a5.08,5.08,0,0,0-1.24.53,2.66,2.66,0,0,0-.76.66,1.44,1.44,0,0,0-.29,1,2.46,2.46,0,0,0,.65,1.34,9.48,9.48,0,0,0,2.05,1.7l0,0,0-.06a9.28,9.28,0,0,1-2-1.67,2.32,2.32,0,0,1-.63-1.28,1.26,1.26,0,0,1,.27-.89,3,3,0,0,1,1.13-.85,6.87,6.87,0,0,1,.8-.29l0-.06v.06c.95-.18,2-.32,3.27-.43a69.71,69.71,0,0,1,9.56,0c1.92.11,4.77.18,7.56.39a25.63,25.63,0,0,1,7.12,1.28,34.11,34.11,0,0,1,3.82,2.18,157.28,157.28,0,0,1,16.5,12.23,30.36,30.36,0,0,1,2.19,2.11l.05,0-.05,0a5.88,5.88,0,0,1,1.12,2.6,1.88,1.88,0,0,1-.25,1.17,2.61,2.61,0,0,1-1.12.93,12.88,12.88,0,0,1-4.66,1.18c-5.6.47-12.93-1.5-20-4.72A201.93,201.93,0,0,1,386.18,231l0,.06Z" transform="translate(-325.26 -189.16)"/><path class="cls-25" d="M410.58,244.92a182.72,182.72,0,0,1-18.41-10,2,2,0,0,0-.81,2.53c6.19,3,13.73,6.75,18.69,9.15h0a1.77,1.77,0,0,1,.53-1.69Z" transform="translate(-325.26 -189.16)"/><path class="cls-23" d="M410.58,244.92l0-.06a181.45,181.45,0,0,1-18.4-10l0,0,0,0a2,2,0,0,0-.87.94,1.91,1.91,0,0,0-.15.94,2.79,2.79,0,0,0,.1.53l.06.15s0,0,0,0h0v0h0c6.19,3,13.73,6.76,18.69,9.15l.1.06v-.12h0a.62.62,0,0,1,0-.18,2,2,0,0,1,.05-.71,1.19,1.19,0,0,1,.48-.72l.1-.07-.11,0,0,.06,0,0a1.29,1.29,0,0,0-.54.8,2.32,2.32,0,0,0-.06.75,1.74,1.74,0,0,0,0,.21l.07,0h0l0-.06c-4.95-2.39-12.49-6.14-18.68-9.15l0,.06.06,0-.06,0,.06,0h0l-.06,0,.06,0h0a2.28,2.28,0,0,1-.17-.68,1.78,1.78,0,0,1,.14-.88,1.86,1.86,0,0,1,.82-.87l0-.06,0,.06a183.84,183.84,0,0,0,18.42,10l0-.06,0,0,0,0Z" transform="translate(-325.26 -189.16)"/><path class="cls-22" d="M392.17,234.93c-2.29-1.4-4.35-2.71-6.06-3.83-5.66-3.69-.64-5-.43-5.1-5.85,1.13-6.5,3.63-4.29,5.83,1.17,1.17,5.14,3.28,10,5.63a2,2,0,0,1,.81-2.53Z" transform="translate(-325.26 -189.16)"/><path class="cls-23" d="M392.17,234.93l0-.06c-2.29-1.4-4.35-2.71-6.06-3.82a9.63,9.63,0,0,1-2-1.68,2.34,2.34,0,0,1-.62-1.27,1.29,1.29,0,0,1,.27-.9,2.89,2.89,0,0,1,1.13-.84,4.6,4.6,0,0,1,.79-.29l0-.13a10.92,10.92,0,0,0-4.31,1.59,3.09,3.09,0,0,0-1,1,2,2,0,0,0-.24,1.16,3.59,3.59,0,0,0,1.18,2.15,19.17,19.17,0,0,0,3.63,2.38c1.75,1,3.95,2.08,6.36,3.26l.17.08-.08-.17v0a2,2,0,0,1-.17-.67,1.78,1.78,0,0,1,.14-.88,1.86,1.86,0,0,1,.82-.87l.09-.06-.09-.06,0,.06,0-.06a2,2,0,0,0-.87.94,1.91,1.91,0,0,0-.15.94,2.42,2.42,0,0,0,.18.73l.06,0,0-.06c-2.41-1.18-4.61-2.29-6.35-3.26a18.82,18.82,0,0,1-3.61-2.36,3.51,3.51,0,0,1-1.14-2.06,1.89,1.89,0,0,1,.23-1.08,3.73,3.73,0,0,1,1.67-1.46,13,13,0,0,1,3.5-1.11V226l0-.06a5.32,5.32,0,0,0-1.24.52,2.66,2.66,0,0,0-.76.66,1.42,1.42,0,0,0-.29,1,2.48,2.48,0,0,0,.65,1.35,9.78,9.78,0,0,0,2.05,1.7c1.72,1.12,3.78,2.43,6.07,3.83l0-.06,0-.06,0,.06Z" transform="translate(-325.26 -189.16)"/><path class="cls-24" d="M435.49,248.56c-5.7,2.77-15.44.68-24.69-3.54l-.22-.1a1.77,1.77,0,0,0-.53,1.69h0l.12.06c8.78,4.26,19.19,6.34,24.16,4.14,3.83-1.69,4-3.48,1.43-7.05,1.3,1.91,1.84,3.78-.27,4.8Z" transform="translate(-325.26 -189.16)"/><path class="cls-23" d="M435.49,248.56l0-.06a13.3,13.3,0,0,1-4.66,1.18c-5.6.46-12.93-1.51-20-4.72l-.21-.1h0l0,0a1.29,1.29,0,0,0-.54.8,2.32,2.32,0,0,0-.06.75,1.74,1.74,0,0,0,0,.21l.07,0H410v0h0l.12.06c7,3.41,15.1,5.43,20.62,5a11,11,0,0,0,3.6-.83,7.31,7.31,0,0,0,2.48-1.59,2.49,2.49,0,0,0,.68-1.95,7.93,7.93,0,0,0-1.71-3.61l-.11.08a5.88,5.88,0,0,1,1.13,2.59,2,2,0,0,1-.25,1.18,2.68,2.68,0,0,1-1.12.93l0,.06,0,.06a2.66,2.66,0,0,0,1.17-1,2,2,0,0,0,.27-1.26,5.91,5.91,0,0,0-1.15-2.66l-.05,0-.06,0a7.85,7.85,0,0,1,1.69,3.54,2.34,2.34,0,0,1-.65,1.85,7.17,7.17,0,0,1-2.44,1.56,10.91,10.91,0,0,1-3.55.82c-5.48.46-13.54-1.56-20.55-5l-.13-.06,0,.06h.06a.62.62,0,0,1,0-.18,2,2,0,0,1,.05-.71,1.19,1.19,0,0,1,.48-.72l0-.06,0,.06.21.1c7.06,3.22,14.4,5.2,20,4.73a13.37,13.37,0,0,0,4.71-1.19l0-.06Z" transform="translate(-325.26 -189.16)"/><path class="cls-65" d="M434,241.94l-.35-.31c-2.42-2.17-6.24-5.1-10-7.78-9.63-3.22-29.7.07-31.42,1.06a181.64,181.64,0,0,0,18.41,10s12.89-3.86,23.34-3Z" transform="translate(-325.26 -189.16)"/><path class="cls-30" d="M434,241.94l.05-.05-.36-.31c-2.42-2.17-6.24-5.11-10-7.78h0c-4.8-1.61-12.17-1.6-18.59-1.07-3.24.27-6.24.68-8.54,1.08-1.15.2-2.12.4-2.86.58-.37.09-.69.17-.94.25a3.62,3.62,0,0,0-.54.22l-.1.06.09.06a183.84,183.84,0,0,0,18.42,10h.05a85.08,85.08,0,0,1,15.55-2.9A45.86,45.86,0,0,1,434,242l.19,0-.14-.14-.05.05v-.06a47.29,47.29,0,0,0-7.8.05,86,86,0,0,0-15.57,2.91l0,.06,0-.06a182.72,182.72,0,0,1-18.41-10l0,.06,0,.06a3,3,0,0,1,.52-.21,39.06,39.06,0,0,1,4.67-1c2.16-.35,4.81-.69,7.64-.92,6.41-.54,13.77-.54,18.54,1l0-.06,0,.05c3.74,2.68,7.56,5.61,10,7.78l.36.31,0-.05v0Z" transform="translate(-325.26 -189.16)"/><path class="cls-66" d="M423.25,233.84a81.88,81.88,0,0,0-10.37-6.64c-3.29-1.41-10.86-1.46-14.7-1.68a54.83,54.83,0,0,0-12.85.46c-.2.05-5.22,1.41.44,5.1,1.71,1.11,3.77,2.42,6.05,3.82,1.73-1,21.79-4.28,31.43-1.06Z" transform="translate(-325.26 -189.16)"/><path class="cls-3" d="M423.62,233.85l0,0c-2.18-1.56-4.33-3-6.16-4.21a33.73,33.73,0,0,0-4.22-2.44,25.4,25.4,0,0,0-7.16-1.29c-2.79-.22-5.64-.28-7.56-.39a70,70,0,0,0-9.58,0,31.07,31.07,0,0,0-3.28.43h0a5.08,5.08,0,0,0-1.24.53,2.66,2.66,0,0,0-.76.66,1.44,1.44,0,0,0-.29,1,2.46,2.46,0,0,0,.65,1.34,9.48,9.48,0,0,0,2.05,1.7c1.72,1.12,3.78,2.43,6.06,3.83l0,0,0,0a3,3,0,0,1,.52-.21,39.06,39.06,0,0,1,4.67-1c2.16-.35,4.81-.69,7.64-.92,6.41-.54,13.77-.54,18.54,1l.06-.11,0,0,0-.06c-4.8-1.61-12.17-1.6-18.59-1.07-3.24.27-6.24.68-8.54,1.08-1.15.2-2.12.4-2.86.58-.37.09-.69.17-.94.25a3.62,3.62,0,0,0-.54.22l0,.06,0-.06c-2.28-1.39-4.34-2.7-6.05-3.82a9.28,9.28,0,0,1-2-1.67,2.32,2.32,0,0,1-.63-1.28,1.26,1.26,0,0,1,.27-.89,3,3,0,0,1,1.13-.85,6.87,6.87,0,0,1,.8-.29l0-.06v.06c.95-.18,2-.32,3.27-.43a69.71,69.71,0,0,1,9.56,0c1.92.11,4.77.18,7.56.39a25.63,25.63,0,0,1,7.12,1.28,36.43,36.43,0,0,1,4.2,2.43c1.83,1.18,4,2.65,6.15,4.2l0-.05,0-.06,0,.06Z" transform="translate(-325.26 -189.16)"/><path class="cls-67" d="M434,241.94c-10.45-.9-23.3,2.95-23.34,3l.22.1c9.25,4.22,19,6.31,24.69,3.54,2.11-1,1.57-2.88.27-4.8-.52-.55-1.13-1.15-1.84-1.8Z" transform="translate(-325.26 -189.16)"/><path class="cls-27" d="M434,241.94v-.06a47.29,47.29,0,0,0-7.8.05,86,86,0,0,0-15.57,2.91l-.17,0,.16.08.22.1c7.06,3.22,14.4,5.2,20,4.73a13.16,13.16,0,0,0,4.71-1.2,2.66,2.66,0,0,0,1.17-1,2,2,0,0,0,.27-1.25,6.07,6.07,0,0,0-1.14-2.67h0c-.52-.56-1.13-1.16-1.84-1.81h0v.06l0,.05c.7.65,1.32,1.24,1.83,1.8l.05,0-.05,0a5.88,5.88,0,0,1,1.12,2.6,1.88,1.88,0,0,1-.25,1.17,2.61,2.61,0,0,1-1.12.93,12.88,12.88,0,0,1-4.66,1.18c-5.6.47-12.93-1.5-20-4.72l-.22-.1,0,.06,0,.07a85.08,85.08,0,0,1,15.55-2.9A45.86,45.86,0,0,1,434,242v-.07l0,.05,0-.05Z" transform="translate(-325.26 -189.16)"/><g class="cls-68"><rect class="cls-62" x="436.86" y="245.64" width="0.09" height="0.44" transform="translate(-344.16 -152.04) rotate(-4.76)"/></g><path class="cls-41" d="M436.41,244.64a5.76,5.76,0,0,1,.44,1l0,.07a5.82,5.82,0,0,0-.47-1.07Z" transform="translate(-325.26 -189.16)"/><path class="cls-69" d="M405.07,232.86h0c-1.77.14-3.46.33-5,.54,8.4.76,20.23,2.83,30.33,8.34,1.14,0,2.27,0,3.38.12l-.21-.18c-2.41-2.16-6.23-5.1-10-7.77-4.5-1.5-11.3-1.58-17.43-1.14l-.18,0h-.06l-.85.07Z" transform="translate(-325.26 -189.16)"/><path class="cls-46" d="M406.16,232.77c6.13-.44,12.93-.36,17.43,1.14,3.73,2.67,7.55,5.61,10,7.77l.21.18.18,0-.26-.24c-2.43-2.17-6.26-5.11-10-7.8l0,0,0,.09c-4.5-1.5-11.31-1.58-17.44-1.14Zm-.24,0h0Zm-.85.07h0c-1.77.14-3.46.33-5,.54h0c1.55-.21,3.24-.4,5-.54Z" transform="translate(-325.26 -189.16)"/><path class="cls-70" d="M430.63,241.87a45.49,45.49,0,0,1,6.16,4.06,7.32,7.32,0,0,0-1.05-2.15c-.51-.54-1.12-1.13-1.82-1.77-1.08-.09-2.18-.14-3.29-.14Z" transform="translate(-325.26 -189.16)"/><path class="cls-42" d="M430.38,241.74l.25.13c1.11,0,2.21,0,3.29.14.7.64,1.31,1.23,1.82,1.77a7.32,7.32,0,0,1,1.05,2.15l.16.12a3.48,3.48,0,0,0-.1-.41,5.76,5.76,0,0,0-.44-1,8.11,8.11,0,0,0-.53-.87c-.52-.56-1.13-1.16-1.85-1.81l-.07-.07v.05l0,.05,0-.05v-.05h0l-.18,0c-1.11-.09-2.24-.13-3.38-.12Z" transform="translate(-325.26 -189.16)"/><path class="cls-45" d="M392.17,235a1.88,1.88,0,0,0-.78.85,1.78,1.78,0,0,0-.14.88h0a2.19,2.19,0,0,0,.13.59l0,0,3.52,1.71c2.26.62,4.66,1.17,7.13,1.6-3.52-1.91-6.9-3.89-9.89-5.71Z" transform="translate(-325.26 -189.16)"/><path class="cls-41" d="M391.41,237.41h0v0l.07.13,2.87,1.41.57.15-3.52-1.71Zm-.15-.64a2.19,2.19,0,0,0,.13.59,2.19,2.19,0,0,1-.13-.59Zm0,0Zm0,0h0Zm0,0Zm0,0h0Zm0,0Zm0,0Zm0,0h0Zm.95-1.75a1.88,1.88,0,0,0-.81.87,1.78,1.78,0,0,0-.14.88h0a1.78,1.78,0,0,1,.14-.88,1.88,1.88,0,0,1,.78-.85c3,1.82,6.37,3.8,9.89,5.71h.08c-3.54-1.91-6.94-3.9-9.94-5.74Z" transform="translate(-325.26 -189.16)"/><path class="cls-44" d="M384.79,226.26a11.55,11.55,0,0,0-2.6.92,3.73,3.73,0,0,0-1.67,1.46,1.89,1.89,0,0,0-.23,1.08,3.51,3.51,0,0,0,1.14,2.06,18.82,18.82,0,0,0,3.61,2.36c1.7,1,3.84,2,6.2,3.18a2.15,2.15,0,0,1-.12-.57,1.91,1.91,0,0,1,.15-.94,2,2,0,0,1,.77-.88c-2.25-1.38-4.28-2.67-6-3.77a9.78,9.78,0,0,1-2.05-1.7,2.48,2.48,0,0,1-.65-1.35,1.42,1.42,0,0,1,.29-1,2.66,2.66,0,0,1,.76-.66,3.24,3.24,0,0,1,.37-.19Z" transform="translate(-325.26 -189.16)"/><path class="cls-41" d="M384.87,226.22c-5.09,1.2-5.58,3.57-3.48,5.66,1.18,1.17,5.14,3.27,10,5.62l.12.06-.07-.13v0h0l0,0a2.19,2.19,0,0,1-.13-.59h0a1.78,1.78,0,0,1,.14-.88,1.88,1.88,0,0,1,.81-.87h0c-2.28-1.4-4.34-2.71-6.06-3.83a11.74,11.74,0,0,1-1-.71,7.11,7.11,0,0,1-1.07-1,2.79,2.79,0,0,1-.58-1,1.63,1.63,0,0,1,.89-2l.09-.05.34-.18a3.24,3.24,0,0,0-.37.19,2.66,2.66,0,0,0-.76.66,1.42,1.42,0,0,0-.29,1,2.48,2.48,0,0,0,.65,1.35,9.78,9.78,0,0,0,2.05,1.7c1.69,1.1,3.72,2.39,6,3.77a2,2,0,0,0-.77.88,1.91,1.91,0,0,0-.15.94,2.15,2.15,0,0,0,.12.57c-2.36-1.15-4.5-2.23-6.2-3.18a18.82,18.82,0,0,1-3.61-2.36,3.51,3.51,0,0,1-1.14-2.06,1.89,1.89,0,0,1,.23-1.08,3.73,3.73,0,0,1,1.67-1.46,11.55,11.55,0,0,1,2.6-.92.2.2,0,0,0,.08,0Z" transform="translate(-325.26 -189.16)"/><path class="cls-40" d="M383.47,228.46a2.79,2.79,0,0,0,.58,1,7.11,7.11,0,0,0,1.07,1,5.37,5.37,0,0,1-1.43-1.53,2.31,2.31,0,0,1-.22-.45Zm1.44-2.24h0a.2.2,0,0,1-.08,0h0l-.34.18-.09.05a4.08,4.08,0,0,1,.55-.28Z" transform="translate(-325.26 -189.16)"/><path class="cls-48" d="M384.36,226.5a1.63,1.63,0,0,0-.89,2,1.75,1.75,0,0,1-.07-.36,1.44,1.44,0,0,1,.29-1,2.79,2.79,0,0,1,.67-.61Z" transform="translate(-325.26 -189.16)"/><path class="cls-49" d="M385.68,226.05l-.77.17a4.08,4.08,0,0,0-.55.28,2.79,2.79,0,0,0-.67.61,1.44,1.44,0,0,0-.29,1,1.75,1.75,0,0,0,.07.36,2.31,2.31,0,0,0,.22.45c-1.13-2,1.83-2.82,2-2.86Z" transform="translate(-325.26 -189.16)"/></g></g></svg>