<svg xmlns="http://www.w3.org/2000/svg" xmlns:xlink="http://www.w3.org/1999/xlink" viewBox="0 0 270.36 119.37"><defs><style>.cls-1{isolation:isolate;}.cls-2{fill:url(#radial-gradient);}.cls-3{fill:url(#radial-gradient-2);}.cls-4{fill:#f5c8bd;mix-blend-mode:multiply;}.cls-5,.cls-8{stroke:#00255b;stroke-miterlimit:10;stroke-width:0.19px;}.cls-5{fill:url(#radial-gradient-3);}.cls-6{fill:url(#radial-gradient-4);}.cls-7{fill:#ab8531;}.cls-13,.cls-15,.cls-20,.cls-7{mix-blend-mode:screen;}.cls-8{fill:url(#radial-gradient-5);}.cls-9{fill:url(#radial-gradient-6);}.cls-10{fill:url(#radial-gradient-7);}.cls-11{fill:url(#Безымянный_градиент_168);}.cls-12{fill:url(#Безымянный_градиент_167);}.cls-13{fill:url(#Безымянный_градиент_165);}.cls-14{fill:url(#Безымянный_градиент_166);}.cls-15{fill:#663702;}.cls-16{fill:url(#radial-gradient-8);}.cls-17{fill:url(#Безымянный_градиент_166-2);}.cls-18{fill:url(#radial-gradient-9);}.cls-19{fill:url(#Безымянный_градиент_166-3);}.cls-20{fill:url(#Безымянный_градиент_165-2);}</style><radialGradient id="radial-gradient" cx="569.44" cy="201.07" r="43.17" gradientTransform="matrix(-1, -0.1, -0.1, 1, 1045.99, 49.38)" gradientUnits="userSpaceOnUse"><stop offset="0" stop-color="#00cbff"/><stop offset="0.13" stop-color="#00b7f3"/><stop offset="0.41" stop-color="#0083d5"/><stop offset="0.59" stop-color="#005cbf"/><stop offset="1" stop-color="#002479"/></radialGradient><radialGradient id="radial-gradient-2" cx="654.25" cy="258.87" r="77.42" gradientTransform="matrix(-1, -0.06, -0.06, 1, 1039.62, 33.15)" xlink:href="#radial-gradient"/><radialGradient id="radial-gradient-3" cx="653.83" cy="245.46" r="79.57" xlink:href="#radial-gradient"/><radialGradient id="radial-gradient-4" cx="372.05" cy="227.52" r="79.69" gradientTransform="matrix(1, 0, 0, 1, 0, 0)" xlink:href="#radial-gradient"/><radialGradient id="radial-gradient-5" cx="644.49" cy="262.3" r="60.22" xlink:href="#radial-gradient"/><radialGradient id="radial-gradient-6" cx="548.81" cy="203.18" r="42.51" xlink:href="#radial-gradient"/><radialGradient id="radial-gradient-7" cx="492.59" cy="184.51" r="11.36" gradientTransform="matrix(1, 0, 0, 1, 0, 0)" xlink:href="#radial-gradient"/><linearGradient id="Безымянный_градиент_168" x1="644.85" y1="300.93" x2="648.6" y2="268.8" gradientTransform="matrix(-1, -0.1, -0.1, 1, 1045.99, 49.38)" gradientUnits="userSpaceOnUse"><stop offset="0" stop-color="#ff7a25"/><stop offset="0.42" stop-color="#bf422a"/><stop offset="0.81" stop-color="#88122d"/><stop offset="1" stop-color="#73002f"/></linearGradient><radialGradient id="Безымянный_градиент_167" cx="650.36" cy="249.55" r="57.04" gradientTransform="matrix(-1, -0.1, -0.1, 1, 1045.99, 49.38)" gradientUnits="userSpaceOnUse"><stop offset="0" stop-color="#ffe45e"/><stop offset="1" stop-color="#f2710b"/></radialGradient><linearGradient id="Безымянный_градиент_165" x1="646.34" y1="239.43" x2="648.02" y2="205.49" gradientTransform="matrix(-1, -0.1, -0.1, 1, 1045.99, 49.38)" gradientUnits="userSpaceOnUse"><stop offset="0" stop-color="#635d20"/><stop offset="0.62" stop-color="#22200b"/><stop offset="1"/></linearGradient><linearGradient id="Безымянный_градиент_166" x1="575.49" y1="181.47" x2="487.22" y2="182.85" gradientTransform="matrix(-1, -0.1, -0.1, 1, 1045.99, 49.38)" gradientUnits="userSpaceOnUse"><stop offset="0" stop-color="#ff7a25"/><stop offset="0.29" stop-color="#da562c"/><stop offset="0.77" stop-color="#a42235"/><stop offset="1" stop-color="#8f0d39"/></linearGradient><radialGradient id="radial-gradient-8" cx="220.71" cy="41.88" r="7.31" gradientTransform="matrix(1, 0, 0, 1, 0, 0)" xlink:href="#radial-gradient"/><linearGradient id="Безымянный_градиент_166-2" x1="574.12" y1="201.28" x2="519.11" y2="200.9" xlink:href="#Безымянный_градиент_166"/><radialGradient id="radial-gradient-9" cx="208.48" cy="58.41" r="5.6" gradientTransform="matrix(1, 0, 0, 1, 0, 0)" xlink:href="#radial-gradient"/><linearGradient id="Безымянный_градиент_166-3" x1="574" y1="219.22" x2="518.98" y2="218.84" xlink:href="#Безымянный_градиент_166"/><linearGradient id="Безымянный_градиент_165-2" x1="758.92" y1="238.46" x2="678.66" y2="250.21" xlink:href="#Безымянный_градиент_165"/></defs><title>nlo siniy</title><g class="cls-1"><g id="Слой_1" data-name="Слой 1"><path class="cls-2" d="M410.22,229.48l-.35-1.59c13.77-14.39,30.58-31.84,34.07-40.65-4.73-3.06-6.59-4.88-7.3-9.19,30-15.08,51.85-21.14,66.63-19.25a36.08,36.08,0,0,1,6.44,1c-3.19,2.09-5.74,3.87-8,5.5a15,15,0,0,1,6.86,1.07,188.45,188.45,0,0,1-24.14,11l-.25.15c-2,1.79-4,3.68-5.89,5.65-1.1,1.11-2.19,2.26-3.28,3.41a16.11,16.11,0,0,1,7.64.79,128,128,0,0,1-13.76,6l-.24.27-4.29,5c-2,2.36-4,4.73-5.92,7.07l.4-.1c3.42-.82,6.87-.21,10.37.08-4.86,1.87-9.83,3.55-14.88,5h0q-1.54,1.88-3.08,3.69l-.37.44h0c-2.26,2.69-4.48,5.27-6.66,7.68a252.4,252.4,0,0,1-34,7.08Z" transform="translate(-259.75 -158.46)"/><path class="cls-3" d="M265.18,230s2.8,2.5,7.93,6.35c18.47,13.86,67.18,45.29,124.5,41.13,39.09-2.84,63.42-26.48,74-39.52a77.86,77.86,0,0,0,6.16-8.55Z" transform="translate(-259.75 -158.46)"/><path class="cls-4" d="M265.18,230s2.8,2.5,7.93,6.35a187.27,187.27,0,0,0,28.72,7.26,400.07,400.07,0,0,0,116.42,4,138.7,138.7,0,0,1-9.91,24.61,138.85,138.85,0,0,0,27.94-12.76A128.07,128.07,0,0,0,448,250.82a59.5,59.5,0,0,0,8.43-9.38q7.61-1.6,15.14-3.5a77.86,77.86,0,0,0,6.16-8.55Z" transform="translate(-259.75 -158.46)"/><path class="cls-5" d="M483.76,223.48l-1.59,4.11s-38.23,16.66-77,19.53c-70.42,5.21-142.6-17.94-142.6-17.94l-2.22-4.24Z" transform="translate(-259.75 -158.46)"/><path class="cls-6" d="M260.33,224.94s67.32,23.54,145.33,15.92c49.75-4.87,78.1-17.38,78.1-17.38q-8-2.46-15.92-4.46a230.71,230.71,0,0,0-37.59-6.36l-98.69.34h-2.68C303.2,215,280.11,218.84,260.33,224.94Z" transform="translate(-259.75 -158.46)"/><path class="cls-4" d="M259.75,224.94s67.32,23.54,145.34,15.92c49.75-4.87,78.1-17.38,78.1-17.38q-8-2.46-15.93-4.46a230.35,230.35,0,0,0-37.59-6.36L331,213h-2.68C302.63,215,279.53,218.84,259.75,224.94Z" transform="translate(-259.75 -158.46)"/><path class="cls-7" d="M418,232.56l.08,0c14.18-4.71,23.88-10.71,28.85-17.82l-.3-.21c-4.91,7-14.53,13-28.58,17.65l-10.86-6.38-.19.31Z" transform="translate(-259.75 -158.46)"/><path class="cls-4" d="M417.06,232.47l.08,0c14.17-4.71,23.88-10.71,28.85-17.83l-.3-.21c-4.91,7-14.53,13-28.59,17.66l-10.86-6.39-.18.32Z" transform="translate(-259.75 -158.46)"/><polygon class="cls-4" points="44.53 70.12 44.59 70.1 76.1 58.59 75.98 58.25 44.52 69.74 17.65 61.78 17.54 62.13 44.53 70.12"/><polygon class="cls-7" points="44.53 70.51 44.59 70.49 76.11 58.98 75.98 58.64 44.52 70.12 17.65 62.17 17.55 62.52 44.53 70.51"/><path class="cls-4" d="M340.22,235.14c18.25,1.78,38.66,1.83,61.77.17l.4,0-8.66-9-.27.26,8.12,8.44c-32.82,2.33-60.18,1.21-83.61-3.42l25.5-10.65-.14-.34-26.61,11.11.58.12A230.15,230.15,0,0,0,340.22,235.14Z" transform="translate(-259.75 -158.46)"/><path class="cls-7" d="M340.26,235.5c18.25,1.77,38.67,1.82,61.78.16l.39,0-8.66-9-.26.26,8.11,8.45c-32.82,2.32-60.18,1.2-83.61-3.43l25.51-10.64-.15-.34L316.76,232l.59.12A227,227,0,0,0,340.26,235.5Z" transform="translate(-259.75 -158.46)"/><path class="cls-8" d="M328.89,213a25.79,25.79,0,0,0,7.3,5.67c20.37,6.15,43.69,10.67,70.55,7.78a67.76,67.76,0,0,0,23.51-13.79,69.27,69.27,0,0,0-22-21.79c-9.55-5.93-22.1-4.29-33-1.67s-21.1,7.7-31.05,12.87A73.81,73.81,0,0,0,328.89,213Z" transform="translate(-259.75 -158.46)"/><path class="cls-4" d="M332.18,212.65a178.18,178.18,0,0,1,45.86-21c5.13-1.51,10.44-2.81,15.79-2.47,6.94.44,13.48,3.65,19,7.9A111,111,0,0,1,428,212a10.29,10.29,0,0,1-3.51,3.05,85.85,85.85,0,0,0-10.38-13.59c-4.11-4.25-9.19-7.78-14.95-9.12-7.18-1.68-14.71.13-21.68,2.54a128.6,128.6,0,0,0-38.61,21.32C337.18,215.23,333.86,213.65,332.18,212.65Z" transform="translate(-259.75 -158.46)"/><path class="cls-9" d="M465.49,191.46c-4.73-3.06-6.59-4.88-7.3-9.18,32.79-16.52,55.92-22.22,70.64-18.52-11.54,7.58-14.92,11.13-25.53,17.72-14.52,13.11-27.9,31.53-40,44.91-10.15,2.88-18.81,3.92-29.2,5.34l.16.15-2.51,1.82-.35-1.59C445.19,217.72,462,200.28,465.49,191.46Z" transform="translate(-259.75 -158.46)"/><path class="cls-4" d="M429.73,233.58a252.39,252.39,0,0,0,34-7.07c10.43-11.56,21.82-26.87,34.09-39.26,1.93-2,3.9-3.86,5.89-5.65l1.58-1c9.4-6,13-9.54,24-16.73-14.72-3.7-37.85,2-70.65,18.51.71,4.31,2.57,6.13,7.31,9.19C462.39,200.4,443.5,219.2,429.73,233.58Z" transform="translate(-259.75 -158.46)"/><path class="cls-10" d="M477.37,189.66a123.57,123.57,0,0,0,22.47-2.3c1.93-2,3.9-3.85,5.88-5.65.55-.33,1.07-.67,1.58-1a13,13,0,0,0,.5-1.36c-8.07,1.25-16.1,4.75-23.53,8.14C482.07,188.49,479.56,188.66,477.37,189.66Z" transform="translate(-259.75 -158.46)"/><path class="cls-11" d="M329.88,257a11.53,11.53,0,0,1,2.58,5.39c1.15,4.86-7.6,1-9.43.16-2.24-1-5.95-2.54-6.89-5-1-2.73,1.6-3.94,3.85-3.88.26,0,.52,0,.77,0C323.92,253.9,327.54,254.59,329.88,257Zm21.41,13.61c3.13,1.64,6.58,2.34,9.23,1.2a7.73,7.73,0,0,0,4.42-5.16c.42-1.72.28-4.36-1-5.78-.92-1-2.87-1.7-4.12-2.25-5.25-2.3-18.12-4.06-16.61,3.14C343.88,264.93,347.33,268.49,351.29,270.56Zm49-9.29c-.83-1.92-3.32-2.82-5.59-3.24a30.9,30.9,0,0,0-12.6.27c-2.63.62-5.45,1.89-6.09,4.24s1.31,4.85,3.26,6.73a15.55,15.55,0,0,0,6.29,4.17,11.33,11.33,0,0,0,8.58-1.29C398,269.92,402.23,265.73,400.29,261.27Zm25,5.77c3.07-2.1,10.25-7.06,6.77-10.84-1.71-1.86-4.36-1.67-6.78-1.32-6.43.91-14.3,3.25-15.06,9.21-.28,2.23,1.3,6.2,4.69,6.54l.32,0C418.69,270.84,422.94,268.64,425.29,267Z" transform="translate(-259.75 -158.46)"/><path class="cls-12" d="M357.33,270.86a12.78,12.78,0,0,1-4.66-1.53c-3.62-1.95-6.53-5.17-7.06-7.83a2.23,2.23,0,0,1,.35-2.09c.93-1.07,3.42-1.52,6.67-1.21a24.63,24.63,0,0,1,7.09,1.77l.69.3a9.44,9.44,0,0,1,2.81,1.57c.82.94,1,3,.62,4.45a6.26,6.26,0,0,1-3.47,4.17,5.94,5.94,0,0,1-3,.4ZM385.54,272a13.63,13.63,0,0,1-5.47-3.79c-2.25-2.24-3.13-3.91-2.76-5.28s2.14-2.53,4.86-3.2a27.37,27.37,0,0,1,9.17-.65c.81.08,1.63.2,2.43.35,2.36.44,3.9,1.28,4.36,2.36,1.42,3.41-2,7-5.4,9.05a9.69,9.69,0,0,1-5.83,1.42A6.68,6.68,0,0,1,385.54,272ZM325.3,261.33l-.55-.26c-1.89-.88-4.74-2.22-5.36-3.94-.26-.7-.07-1,0-1.08a3,3,0,0,1,2.36-.82l.66,0,.38,0c2.28.22,5.55.76,7.54,2.83a10,10,0,0,1,2.11,4.68,1.74,1.74,0,0,1,.05.53,2.36,2.36,0,0,1-1,.05A23.08,23.08,0,0,1,325.3,261.33ZM413.7,269h0a3.06,3.06,0,0,1-2.15-1.29,5.53,5.53,0,0,1-1.11-3.59c.68-5.3,8.68-7.28,13.38-8a13.19,13.19,0,0,1,3-.19,3.3,3.3,0,0,1,2.27,1,1.75,1.75,0,0,1,.51,1.44c-.29,2.58-5.05,5.95-6.84,7.21-2.34,1.66-6.06,3.54-8.85,3.39Z" transform="translate(-259.75 -158.46)"/><path class="cls-13" d="M340.45,206.15a143.9,143.9,0,0,1,39.73-14.75c6.91-1.45,14.13-2.39,21-.69,7.65,1.9,14.21,7,19.27,13-6,5.46-13.29,10-21.17,12-15,3.89-30.88.72-45.9-3.13A41.17,41.17,0,0,1,340.45,206.15Z" transform="translate(-259.75 -158.46)"/><path class="cls-7" d="M420.32,202.29c1.19,1.36,2.32,2.78,3.4,4.24s3.1,3.45,2.94,5.39a5.44,5.44,0,0,1-4.9,4.61c-4.54.49-7.23-3.55-9.57-6.76a74.6,74.6,0,0,1-5.47-8.65c-1-1.77-4.7-7.55-.66-8.25a5,5,0,0,1,2.83.56,32.51,32.51,0,0,1,10.58,7.92C419.76,201.66,420,202,420.32,202.29Z" transform="translate(-259.75 -158.46)"/><path class="cls-14" d="M477.11,189.51a177.2,177.2,0,0,0,53-18.95,15.15,15.15,0,0,0-7.17-1.05A303.52,303.52,0,0,0,477.11,189.51Z" transform="translate(-259.75 -158.46)"/><path class="cls-15" d="M481.51,188c9.56-2.21,23.28-7.08,32.9-11.31a3.71,3.71,0,0,0,.53-3.53C504.39,176.81,490.39,182.83,481.51,188Z" transform="translate(-259.75 -158.46)"/><polygon class="cls-16" points="230.66 39.08 226.01 44.49 210.75 44.68 230.66 39.08"/><path class="cls-17" d="M493.48,191.46a88.13,88.13,0,0,0-23,11.68,131.69,131.69,0,0,0,33.7-11.58A16.61,16.61,0,0,0,493.48,191.46Z" transform="translate(-259.75 -158.46)"/><polygon class="cls-18" points="216.13 56.34 212.66 60.48 200.83 59.82 216.13 56.34"/><path class="cls-19" d="M480.39,209.75a62.62,62.62,0,0,0-19.81,8.53,158.24,158.24,0,0,0,30.18-8.45C487.25,209.54,483.81,208.93,480.39,209.75Z" transform="translate(-259.75 -158.46)"/><path class="cls-15" d="M491.18,193.05a3.65,3.65,0,0,1,2.1,2.34c-5.37,2.6-12.61,4.86-20.65,7C478.62,198.37,484.73,194.93,491.18,193.05Z" transform="translate(-259.75 -158.46)"/><path class="cls-15" d="M477.89,210.93c1.63.57,1.76,1.38,1.45,2.26-5,1.39-10.66,2.87-16.74,4.4A43.62,43.62,0,0,1,477.89,210.93Z" transform="translate(-259.75 -158.46)"/><path class="cls-20" d="M343.77,223.59c-7.51-2.61-13.8-5.47-18.49-8.68-18.26.79-37.66,4.7-57.61,10.08,12.44,4.86,27,7.83,43.29,9.3Z" transform="translate(-259.75 -158.46)"/><path class="cls-7" d="M327.93,260.93a.53.53,0,0,1-.15.34.87.87,0,0,1-.52.16c-1.61.06-3.63-1.18-5-2a3.87,3.87,0,0,1-1.19-.93,1.54,1.54,0,0,1-.31-1.42,1.72,1.72,0,0,1,1.88-.91,6.17,6.17,0,0,1,5.18,4.18A1.3,1.3,0,0,1,327.93,260.93Z" transform="translate(-259.75 -158.46)"/><path class="cls-7" d="M357.92,268c.14.85.08,1.95-.72,2.28a1.92,1.92,0,0,1-1.29-.07,14.74,14.74,0,0,1-7.68-5.47,3.94,3.94,0,0,1-1-2.6c.27-2.54,3.43-2.67,5.33-2.28s3.14,2.55,4,4.13A13.86,13.86,0,0,1,357.92,268Z" transform="translate(-259.75 -158.46)"/><path class="cls-7" d="M389.66,268.45a3.78,3.78,0,0,1-.86,2.21,2.85,2.85,0,0,1-2.37.75,5.76,5.76,0,0,1-2.37-.92,12.55,12.55,0,0,1-4-4,3.38,3.38,0,0,1-.55-3.19,3.19,3.19,0,0,1,1.84-1.4c1.93-.73,5.13-1.14,7,.1S389.88,266.7,389.66,268.45Z" transform="translate(-259.75 -158.46)"/><path class="cls-7" d="M416.77,267.46c-.79.18-1.67.1-1.86-.82-.26-1.23.51-2.86,1-3.92a10,10,0,0,1,2.61-3.23,8,8,0,0,1,6.78-1.61c1,.25,2,1,1.57,2.15a3.21,3.21,0,0,1-.54.88,18.72,18.72,0,0,1-5,4.38,31.08,31.08,0,0,1-3.87,1.94A4.42,4.42,0,0,1,416.77,267.46Z" transform="translate(-259.75 -158.46)"/></g></g></svg>