<svg xmlns="http://www.w3.org/2000/svg" xmlns:xlink="http://www.w3.org/1999/xlink" viewBox="0 0 270.93 119.37"><defs><style>.cls-1{isolation:isolate;}.cls-2{fill:url(#Безымянный_градиент_169);}.cls-3{fill:url(#Безымянный_градиент_170);}.cls-4{fill:url(#Безымянный_градиент_169-2);}.cls-5{fill:url(#Безымянный_градиент_171);}.cls-6{fill:url(#Безымянный_градиент_169-3);}.cls-7{fill:#ab8531;}.cls-15,.cls-17,.cls-20,.cls-7{mix-blend-mode:screen;}.cls-8{fill:#f5c8bd;mix-blend-mode:multiply;}.cls-9{fill:url(#Безымянный_градиент_170-2);}.cls-10{fill:url(#Безымянный_градиент_170-3);}.cls-11{fill:url(#Безымянный_градиент_169-4);}.cls-12{fill:#0d694f;}.cls-13{fill:url(#Безымянный_градиент_168);}.cls-14{fill:url(#Безымянный_градиент_167);}.cls-15{fill:url(#Безымянный_градиент_165);}.cls-16{fill:url(#Безымянный_градиент_169-5);}.cls-17{fill:#663702;}.cls-18{fill:url(#Безымянный_градиент_169-6);}.cls-19{fill:url(#Безымянный_градиент_169-7);}.cls-20{fill:url(#Безымянный_градиент_165-2);}</style><linearGradient id="Безымянный_градиент_169" x1="599.21" y1="192.76" x2="564.89" y2="204.2" gradientTransform="matrix(-1, -0.1, -0.1, 1, 1045.99, 49.38)" gradientUnits="userSpaceOnUse"><stop offset="0" stop-color="#00f2a0"/><stop offset="0.12" stop-color="#03d48f"/><stop offset="0.29" stop-color="#07b17c"/><stop offset="0.46" stop-color="#0a966c"/><stop offset="0.64" stop-color="#0c8362"/><stop offset="0.81" stop-color="#0e785b"/><stop offset="1" stop-color="#0e7459"/></linearGradient><linearGradient id="Безымянный_градиент_170" x1="657.45" y1="289.59" x2="655.27" y2="218.44" gradientTransform="matrix(-1, -0.06, -0.06, 1, 1039.62, 33.15)" gradientUnits="userSpaceOnUse"><stop offset="0" stop-color="#00f2a0"/><stop offset="1" stop-color="#168c62"/></linearGradient><linearGradient id="Безымянный_градиент_169-2" x1="657.45" y1="289.59" x2="655.27" y2="218.44" gradientTransform="matrix(-1, -0.06, -0.06, 1, 1039.62, 33.15)" xlink:href="#Безымянный_градиент_169"/><linearGradient id="Безымянный_градиент_171" x1="752.34" y1="263.23" x2="545.8" y2="237.48" gradientTransform="matrix(-1, -0.1, -0.1, 1, 1045.99, 49.38)" gradientUnits="userSpaceOnUse"><stop offset="0" stop-color="#00f2a0"/><stop offset="0.68" stop-color="#168c62"/><stop offset="0.77" stop-color="#129565"/><stop offset="0.91" stop-color="#08ac6e"/><stop offset="1" stop-color="#00bf75"/></linearGradient><linearGradient id="Безымянный_градиент_169-3" x1="764.98" y1="253.58" x2="622.7" y2="240.33" xlink:href="#Безымянный_градиент_169"/><linearGradient id="Безымянный_градиент_170-2" x1="598.66" y1="221.55" x2="699.5" y2="221.55" gradientTransform="matrix(-1, -0.1, -0.1, 1, 1045.99, 49.38)" xlink:href="#Безымянный_градиент_170"/><linearGradient id="Безымянный_градиент_170-3" x1="609.57" y1="206.49" x2="497.45" y2="201.84" gradientTransform="matrix(-1, -0.1, -0.1, 1, 1045.99, 49.38)" xlink:href="#Безымянный_градиент_170"/><linearGradient id="Безымянный_градиент_169-4" x1="609.41" y1="206.53" x2="494.88" y2="201.78" xlink:href="#Безымянный_градиент_169"/><linearGradient id="Безымянный_градиент_168" x1="646.48" y1="301.9" x2="650.23" y2="269.77" gradientTransform="matrix(-1, -0.1, -0.1, 1, 1045.99, 49.38)" gradientUnits="userSpaceOnUse"><stop offset="0" stop-color="#ff7a25"/><stop offset="0.42" stop-color="#bf422a"/><stop offset="0.81" stop-color="#88122d"/><stop offset="1" stop-color="#73002f"/></linearGradient><radialGradient id="Безымянный_градиент_167" cx="651.99" cy="250.52" r="57.04" gradientTransform="matrix(-1, -0.1, -0.1, 1, 1045.99, 49.38)" gradientUnits="userSpaceOnUse"><stop offset="0" stop-color="#ffe45e"/><stop offset="1" stop-color="#f2710b"/></radialGradient><linearGradient id="Безымянный_градиент_165" x1="648.55" y1="238.13" x2="650.24" y2="204.18" gradientTransform="matrix(-1, -0.1, -0.1, 1, 1045.99, 49.38)" gradientUnits="userSpaceOnUse"><stop offset="0" stop-color="#635d20"/><stop offset="0.62" stop-color="#22200b"/><stop offset="1"/></linearGradient><linearGradient id="Безымянный_градиент_169-5" x1="577.12" y1="182.45" x2="488.85" y2="183.82" xlink:href="#Безымянный_градиент_169"/><linearGradient id="Безымянный_градиент_169-6" x1="575.75" y1="202.25" x2="520.74" y2="201.87" xlink:href="#Безымянный_градиент_169"/><linearGradient id="Безымянный_градиент_169-7" x1="575.63" y1="220.19" x2="520.61" y2="219.81" xlink:href="#Безымянный_градиент_169"/><linearGradient id="Безымянный_градиент_165-2" x1="760.55" y1="239.43" x2="680.29" y2="251.18" xlink:href="#Безымянный_градиент_165"/></defs><title>nlo zeleniy</title><g class="cls-1"><g id="Слой_1" data-name="Слой 1"><path class="cls-2" d="M408.5,230.29l-.34-1.59c13.77-14.39,30.57-31.84,34.07-40.65-4.74-3.06-6.6-4.88-7.31-9.19,30-15.08,51.85-21.14,66.63-19.25a36.08,36.08,0,0,1,6.44,1c-3.18,2.09-5.74,3.87-8,5.5a15,15,0,0,1,6.86,1.07,188.45,188.45,0,0,1-24.14,11l-.25.15c-2,1.79-3.95,3.68-5.89,5.65-1.1,1.11-2.19,2.26-3.28,3.41a16.17,16.17,0,0,1,7.65.79,129.77,129.77,0,0,1-13.76,6l-.25.27-4.29,5c-2,2.36-4,4.73-5.91,7.07l.39-.11c3.42-.81,6.87-.2,10.37.09-4.85,1.87-9.83,3.55-14.87,5h0l-3.09,3.69-.37.44h0c-2.27,2.69-4.49,5.27-6.67,7.68a252.58,252.58,0,0,1-34,7.08Z" transform="translate(-258.61 -159.27)"/><path class="cls-3" d="M263.46,230.79s2.8,2.5,7.93,6.35c18.47,13.86,67.18,45.29,124.51,41.13,39.08-2.84,63.41-26.48,74-39.52a78.44,78.44,0,0,0,6.15-8.55Z" transform="translate(-258.61 -159.27)"/><path class="cls-4" d="M263.46,230.79s2.8,2.5,7.93,6.35a187.1,187.1,0,0,0,28.73,7.26,400,400,0,0,0,116.41,4A138.7,138.7,0,0,1,406.62,273a138.85,138.85,0,0,0,27.94-12.76,126.72,126.72,0,0,0,11.76-8.63,59.5,59.5,0,0,0,8.43-9.38q7.61-1.6,15.15-3.5a78.44,78.44,0,0,0,6.15-8.55Z" transform="translate(-258.61 -159.27)"/><path class="cls-5" d="M482.05,224.29l-1.6,4.11s-38.23,16.66-77,19.53C333,253.14,260.83,230,260.83,230l-2.22-4.24Z" transform="translate(-258.61 -159.27)"/><path class="cls-6" d="M258.61,225.74s67.32,23.55,145.33,15.93c49.75-4.87,78.11-17.38,78.11-17.38q-8-2.46-15.93-4.46a230.71,230.71,0,0,0-37.59-6.36l-98.69.34h-2.68C301.48,215.83,278.39,219.65,258.61,225.74Z" transform="translate(-258.61 -159.27)"/><path class="cls-7" d="M416.28,233.37l.08,0c14.17-4.71,23.87-10.71,28.84-17.82l-.3-.21c-4.91,7-14.53,13-28.58,17.65l-10.86-6.38-.19.31Z" transform="translate(-258.61 -159.27)"/><path class="cls-8" d="M415.34,233.28l.08,0c14.18-4.71,23.88-10.71,28.85-17.83l-.3-.21c-4.91,7-14.53,13-28.58,17.66l-10.86-6.39-.19.32Z" transform="translate(-258.61 -159.27)"/><polygon class="cls-8" points="43.95 70.12 44.01 70.1 75.53 58.59 75.41 58.25 43.94 69.74 17.07 61.78 16.97 62.13 43.95 70.12"/><polygon class="cls-7" points="43.96 70.51 44.02 70.49 75.54 58.98 75.41 58.64 43.95 70.12 17.08 62.17 16.97 62.52 43.96 70.51"/><path class="cls-8" d="M338.5,236c18.25,1.78,38.66,1.83,61.78.17l.39,0-8.66-9-.26.25,8.11,8.45c-32.82,2.33-60.18,1.21-83.61-3.42l25.5-10.65-.14-.34L315,232.48l.59.12A229.51,229.51,0,0,0,338.5,236Z" transform="translate(-258.61 -159.27)"/><path class="cls-7" d="M338.55,236.31c18.24,1.77,38.66,1.82,61.77.16l.39,0-8.65-9-.27.26,8.11,8.45c-32.82,2.32-60.18,1.2-83.61-3.43l25.51-10.64-.14-.34L315,232.83l.59.12A226.79,226.79,0,0,0,338.55,236.31Z" transform="translate(-258.61 -159.27)"/><path class="cls-8" d="M327.43,214.39c16.77,19.6,92.35,23.25,138.69,5.44a230.71,230.71,0,0,0-37.59-6.36l-98.69.34C329,214,328.23,214.19,327.43,214.39Z" transform="translate(-258.61 -159.27)"/><path class="cls-9" d="M327.17,213.81a25.79,25.79,0,0,0,7.3,5.67c20.37,6.15,43.69,10.67,70.55,7.77a67.74,67.74,0,0,0,23.51-13.78,69.27,69.27,0,0,0-22-21.79c-9.55-5.93-22.09-4.29-33-1.67s-21.1,7.7-31.06,12.87A73.81,73.81,0,0,0,327.17,213.81Z" transform="translate(-258.61 -159.27)"/><path class="cls-8" d="M330.47,213.46a178,178,0,0,1,45.85-21c5.14-1.52,10.45-2.81,15.79-2.47,6.94.44,13.48,3.64,19,7.9a109.9,109.9,0,0,1,15.17,15,10.2,10.2,0,0,1-3.51,3,86.39,86.39,0,0,0-10.37-13.59c-4.12-4.26-9.19-7.78-15-9.12-7.18-1.68-14.71.13-21.68,2.53A129,129,0,0,0,337.13,217C335.46,216,332.14,214.46,330.47,213.46Z" transform="translate(-258.61 -159.27)"/><path class="cls-10" d="M463.77,192.27c-4.73-3.06-6.59-4.88-7.3-9.19,32.79-16.51,55.92-22.21,70.64-18.51-11.54,7.58-14.92,11.13-25.53,17.72-14.52,13.1-27.9,31.53-40,44.91-10.14,2.88-18.81,3.92-29.2,5.34l.17.15-2.52,1.82-.35-1.59C443.47,218.53,460.28,201.09,463.77,192.27Z" transform="translate(-258.61 -159.27)"/><path class="cls-11" d="M430.05,234.51a253.94,253.94,0,0,0,34-7.07c10.43-11.56,21.82-26.87,34.09-39.27,1.93-2,3.9-3.85,5.88-5.65l1.58-1c9.41-6,13-9.54,24-16.72-14.72-3.71-37.85,2-70.65,18.51.71,4.3,2.57,6.12,7.31,9.19C462.71,201.32,443.82,220.13,430.05,234.51Z" transform="translate(-258.61 -159.27)"/><path class="cls-12" d="M475.65,190.47a123.57,123.57,0,0,0,22.47-2.3c1.93-2,3.9-3.85,5.88-5.65l1.58-1c.19-.44.36-.9.51-1.36-8.08,1.25-16.1,4.75-23.54,8.13C480.36,189.3,477.85,189.47,475.65,190.47Z" transform="translate(-258.61 -159.27)"/><path class="cls-13" d="M328.16,257.76a11.53,11.53,0,0,1,2.58,5.39c1.16,4.86-7.6,1-9.43.16-2.23-1-5.95-2.54-6.89-5-1-2.73,1.6-3.94,3.85-3.88.26,0,.52,0,.77,0C322.21,254.71,325.82,255.4,328.16,257.76Zm21.41,13.61c3.13,1.64,6.58,2.34,9.23,1.2a7.71,7.71,0,0,0,4.42-5.16c.42-1.72.28-4.36-1-5.78-.92-1-2.87-1.7-4.11-2.25-5.26-2.3-18.13-4.06-16.62,3.14C342.17,265.74,345.61,269.3,349.57,271.37Zm49-9.29c-.83-1.92-3.32-2.82-5.59-3.24a30.85,30.85,0,0,0-12.59.27c-2.64.62-5.46,1.89-6.1,4.24s1.31,4.85,3.26,6.73a15.61,15.61,0,0,0,6.29,4.17,11.32,11.32,0,0,0,8.58-1.29C396.25,270.73,400.51,266.54,398.57,262.08Zm25,5.77c3.07-2.1,10.25-7.06,6.77-10.85-1.71-1.86-4.36-1.66-6.78-1.32-6.43.92-14.3,3.26-15.06,9.22-.28,2.23,1.31,6.2,4.7,6.54l.32,0C417,271.65,421.22,269.45,423.57,267.85Z" transform="translate(-258.61 -159.27)"/><path class="cls-14" d="M355.62,271.67a12.77,12.77,0,0,1-4.67-1.53c-3.62-1.95-6.52-5.17-7.05-7.83-.28-1.37.19-1.92.35-2.09.92-1.07,3.41-1.52,6.66-1.21a24.79,24.79,0,0,1,7.1,1.77l.68.3a9.2,9.2,0,0,1,2.81,1.57c.82.94,1,3,.63,4.45a6.3,6.3,0,0,1-3.48,4.17,5.9,5.9,0,0,1-3,.4Zm28.2,1.12a13.7,13.7,0,0,1-5.47-3.79c-2.25-2.24-3.13-3.92-2.76-5.28s2.14-2.54,4.86-3.2a27.37,27.37,0,0,1,9.17-.65c.81.08,1.63.2,2.43.35,2.36.44,3.91,1.28,4.36,2.36,1.42,3.41-2,7-5.39,9.05a9.72,9.72,0,0,1-5.84,1.42A6.68,6.68,0,0,1,383.82,272.79Zm-60.23-10.65-.56-.26c-1.89-.89-4.74-2.22-5.36-3.94-.25-.7-.07-1,0-1.08A3,3,0,0,1,320,256l.66,0,.38,0c2.29.22,5.56.76,7.54,2.83a10,10,0,0,1,2.11,4.68.57.57,0,1,1-1,.58A22.87,22.87,0,0,1,323.59,262.14Zm88.39,7.7h0a3.08,3.08,0,0,1-2.15-1.29,5.46,5.46,0,0,1-1.1-3.59c.67-5.3,8.67-7.28,13.38-8a12.59,12.59,0,0,1,3-.19,3.25,3.25,0,0,1,2.26,1,1.72,1.72,0,0,1,.51,1.44c-.29,2.58-5,5.94-6.83,7.21-2.34,1.66-6.07,3.54-8.86,3.39Z" transform="translate(-258.61 -159.27)"/><path class="cls-15" d="M338.37,204.64a144,144,0,0,1,39.73-14.75c6.91-1.45,14.13-2.39,21-.69,7.65,1.89,14.21,7,19.28,13-6,5.46-13.3,10-21.18,12-15,3.88-30.88.72-45.9-3.13A41.28,41.28,0,0,1,338.37,204.64Z" transform="translate(-258.61 -159.27)"/><path class="cls-7" d="M413.57,204.31c1.19,1.36,2.32,2.78,3.4,4.24s3.1,3.45,2.94,5.38a5.44,5.44,0,0,1-4.89,4.62c-4.55.48-7.24-3.55-9.58-6.76a74.88,74.88,0,0,1-5.46-8.65c-1-1.78-4.71-7.55-.67-8.26a5.14,5.14,0,0,1,2.83.57,32.37,32.37,0,0,1,10.58,7.92C413,203.68,413.29,204,413.57,204.31Z" transform="translate(-258.61 -159.27)"/><path class="cls-16" d="M475.4,190.32a177.24,177.24,0,0,0,53-18.95,15.13,15.13,0,0,0-7.16-1.05A302.64,302.64,0,0,0,475.4,190.32Z" transform="translate(-258.61 -159.27)"/><path class="cls-17" d="M479.79,188.83c9.56-2.2,23.28-7.08,32.9-11.3a3.69,3.69,0,0,0,.53-3.54C502.67,177.62,488.67,183.64,479.79,188.83Z" transform="translate(-258.61 -159.27)"/><polygon class="cls-12" points="230.09 39.08 225.43 44.49 210.18 44.68 230.09 39.08"/><path class="cls-18" d="M491.76,192.27a87.92,87.92,0,0,0-23,11.68,131.75,131.75,0,0,0,33.69-11.58A16.61,16.61,0,0,0,491.76,192.27Z" transform="translate(-258.61 -159.27)"/><polygon class="cls-12" points="215.56 56.34 212.09 60.48 200.26 59.82 215.56 56.34"/><path class="cls-19" d="M478.67,210.56a62.72,62.72,0,0,0-19.81,8.53A158.24,158.24,0,0,0,489,210.64C485.53,210.35,482.09,209.74,478.67,210.56Z" transform="translate(-258.61 -159.27)"/><path class="cls-17" d="M489.46,193.86a3.65,3.65,0,0,1,2.1,2.34c-5.36,2.6-12.61,4.86-20.65,7C476.9,199.18,483,195.74,489.46,193.86Z" transform="translate(-258.61 -159.27)"/><path class="cls-17" d="M476.17,211.74c1.63.56,1.76,1.38,1.45,2.26-5,1.39-10.65,2.87-16.73,4.4A43.56,43.56,0,0,1,476.17,211.74Z" transform="translate(-258.61 -159.27)"/><path class="cls-20" d="M342.06,224.4c-7.52-2.61-13.81-5.47-18.5-8.68-18.26.79-37.66,4.7-57.61,10.08,12.44,4.86,27,7.83,43.29,9.3Z" transform="translate(-258.61 -159.27)"/><path class="cls-7" d="M326.21,261.74a.53.53,0,0,1-.15.34.85.85,0,0,1-.52.16c-1.61.06-3.63-1.18-5-2a3.87,3.87,0,0,1-1.19-.93,1.54,1.54,0,0,1-.31-1.42,1.71,1.71,0,0,1,1.88-.91,6.17,6.17,0,0,1,5.18,4.18A1.3,1.3,0,0,1,326.21,261.74Z" transform="translate(-258.61 -159.27)"/><path class="cls-7" d="M356.2,268.78c.15.85.08,1.94-.71,2.28a2,2,0,0,1-1.3-.07,14.74,14.74,0,0,1-7.68-5.47,4,4,0,0,1-.95-2.6c.27-2.54,3.43-2.67,5.33-2.28s3.14,2.55,4,4.13A13.86,13.86,0,0,1,356.2,268.78Z" transform="translate(-258.61 -159.27)"/><path class="cls-7" d="M387.94,269.26a3.78,3.78,0,0,1-.86,2.21,2.83,2.83,0,0,1-2.37.75,5.76,5.76,0,0,1-2.37-.92,12.55,12.55,0,0,1-4-4,3.38,3.38,0,0,1-.55-3.19,3.22,3.22,0,0,1,1.84-1.4c1.94-.73,5.14-1.14,7,.1S388.16,267.51,387.94,269.26Z" transform="translate(-258.61 -159.27)"/><path class="cls-7" d="M415.05,268.27c-.79.18-1.66.1-1.86-.83-.26-1.22.51-2.85,1.05-3.91a10,10,0,0,1,2.61-3.23,8,8,0,0,1,6.78-1.61c1,.25,2,1,1.57,2.15a3.44,3.44,0,0,1-.53.88,18.87,18.87,0,0,1-5,4.38,31.91,31.91,0,0,1-3.88,1.94A4.42,4.42,0,0,1,415.05,268.27Z" transform="translate(-258.61 -159.27)"/></g></g></svg>