<svg xmlns="http://www.w3.org/2000/svg" xmlns:xlink="http://www.w3.org/1999/xlink" viewBox="0 0 269.79 119.37"><defs><style>.cls-1{isolation:isolate;}.cls-2{fill:url(#Безымянный_градиент_167);}.cls-3{fill:url(#Безымянный_градиент_167-2);}.cls-4{fill:#663702;}.cls-13,.cls-20,.cls-4,.cls-8{mix-blend-mode:screen;}.cls-5{fill:url(#Безымянный_градиент_167-3);}.cls-6{fill:#f5c8bd;mix-blend-mode:multiply;}.cls-7{fill:url(#Безымянный_градиент_167-4);}.cls-8{fill:#ab8531;}.cls-9{fill:url(#Безымянный_градиент_167-5);}.cls-10{fill:url(#Безымянный_градиент_167-6);}.cls-11{fill:url(#Безымянный_градиент_168);}.cls-12{fill:url(#Безымянный_градиент_167-7);}.cls-13{fill:url(#Безымянный_градиент_165);}.cls-14{fill:url(#Безымянный_градиент_166);}.cls-15{fill:url(#Безымянный_градиент_166-2);}.cls-16{fill:url(#Безымянный_градиент_166-3);}.cls-17{fill:url(#Безымянный_градиент_166-4);}.cls-18{fill:url(#Безымянный_градиент_166-5);}.cls-19{fill:url(#Безымянный_градиент_166-6);}.cls-20{fill:url(#Безымянный_градиент_165-2);}</style><radialGradient id="Безымянный_градиент_167" cx="567.47" cy="203.38" r="43.17" gradientTransform="matrix(-1, -0.1, -0.1, 1, 1045.99, 49.38)" gradientUnits="userSpaceOnUse"><stop offset="0" stop-color="#ffe45e"/><stop offset="1" stop-color="#f2710b"/></radialGradient><radialGradient id="Безымянный_градиент_167-2" cx="652.36" cy="261.24" r="77.42" gradientTransform="matrix(-1, -0.06, -0.06, 1, 1039.62, 33.15)" xlink:href="#Безымянный_градиент_167"/><radialGradient id="Безымянный_градиент_167-3" cx="373.79" cy="238.17" r="79.47" gradientTransform="matrix(1, 0, 0, 1, 0, 0)" xlink:href="#Безымянный_градиент_167"/><radialGradient id="Безымянный_градиент_167-4" cx="651.86" cy="242.74" r="79.64" xlink:href="#Безымянный_градиент_167"/><radialGradient id="Безымянный_градиент_167-5" cx="642.51" cy="264.61" r="60.22" xlink:href="#Безымянный_градиент_167"/><radialGradient id="Безымянный_градиент_167-6" cx="546.84" cy="205.5" r="42.51" xlink:href="#Безымянный_градиент_167"/><linearGradient id="Безымянный_градиент_168" x1="642.88" y1="303.24" x2="646.63" y2="271.11" gradientTransform="matrix(-1, -0.1, -0.1, 1, 1045.99, 49.38)" gradientUnits="userSpaceOnUse"><stop offset="0" stop-color="#ff7a25"/><stop offset="0.42" stop-color="#bf422a"/><stop offset="0.81" stop-color="#88122d"/><stop offset="1" stop-color="#73002f"/></linearGradient><radialGradient id="Безымянный_градиент_167-7" cx="648.39" cy="251.86" r="57.04" xlink:href="#Безымянный_градиент_167"/><linearGradient id="Безымянный_градиент_165" x1="644.85" y1="240.49" x2="646.54" y2="206.55" gradientTransform="matrix(-1, -0.1, -0.1, 1, 1045.99, 49.38)" gradientUnits="userSpaceOnUse"><stop offset="0" stop-color="#635d20"/><stop offset="0.62" stop-color="#22200b"/><stop offset="1"/></linearGradient><linearGradient id="Безымянный_градиент_166" x1="573.52" y1="183.78" x2="485.25" y2="185.16" gradientTransform="matrix(-1, -0.1, -0.1, 1, 1045.99, 49.38)" gradientUnits="userSpaceOnUse"><stop offset="0" stop-color="#ff7a25"/><stop offset="0.29" stop-color="#da562c"/><stop offset="0.77" stop-color="#a42235"/><stop offset="1" stop-color="#8f0d39"/></linearGradient><linearGradient id="Безымянный_градиент_166-2" x1="572.14" y1="203.59" x2="517.13" y2="203.21" xlink:href="#Безымянный_градиент_166"/><linearGradient id="Безымянный_градиент_166-3" x1="479.11" y1="187" x2="509.54" y2="187" gradientTransform="matrix(1, 0, 0, 1, 0, 0)" xlink:href="#Безымянный_градиент_166"/><linearGradient id="Безымянный_градиент_166-4" x1="210.18" y1="41.88" x2="230.09" y2="41.88" gradientTransform="matrix(1, 0, 0, 1, 0, 0)" xlink:href="#Безымянный_градиент_166"/><linearGradient id="Безымянный_градиент_166-5" x1="200.26" y1="58.41" x2="215.55" y2="58.41" gradientTransform="matrix(1, 0, 0, 1, 0, 0)" xlink:href="#Безымянный_градиент_166"/><linearGradient id="Безымянный_градиент_166-6" x1="572.02" y1="221.53" x2="517.01" y2="221.15" xlink:href="#Безымянный_градиент_166"/><linearGradient id="Безымянный_градиент_165-2" x1="756.95" y1="240.77" x2="676.68" y2="252.52" xlink:href="#Безымянный_градиент_165"/></defs><title>nlo oranjeviy</title><g class="cls-1"><g id="Слой_1" data-name="Слой 1"><path class="cls-2" d="M412,232l-.35-1.59c13.77-14.39,30.58-31.84,34.07-40.65-4.73-3.06-6.59-4.88-7.3-9.19,30-15.08,51.85-21.14,66.63-19.25a36.08,36.08,0,0,1,6.44,1c-3.19,2.09-5.74,3.87-8,5.5a15,15,0,0,1,6.86,1.07,188.45,188.45,0,0,1-24.14,11l-.25.15c-2,1.79-4,3.68-5.89,5.65-1.1,1.11-2.19,2.26-3.28,3.41a16.11,16.11,0,0,1,7.64.79,128,128,0,0,1-13.76,6l-.24.27-4.29,5c-2,2.35-4,4.72-5.92,7.06l.4-.1c3.42-.82,6.87-.21,10.37.08-4.86,1.87-9.83,3.55-14.88,5h0q-1.55,1.88-3.08,3.69l-.37.45h0c-2.26,2.68-4.48,5.26-6.66,7.67A252.4,252.4,0,0,1,412,232Z" transform="translate(-262.07 -160.95)"/><path class="cls-3" d="M266.92,232.47s2.8,2.5,7.93,6.35C293.32,252.68,342,284.11,399.35,280c39.09-2.84,63.42-26.48,74-39.52a77.86,77.86,0,0,0,6.16-8.55Z" transform="translate(-262.07 -160.95)"/><path class="cls-4" d="M266.92,232.47s2.8,2.5,7.93,6.35a186.12,186.12,0,0,0,28.72,7.26,400.07,400.07,0,0,0,116.42,4,138.7,138.7,0,0,1-9.91,24.61A138.85,138.85,0,0,0,438,261.94a128.07,128.07,0,0,0,11.76-8.63,59.5,59.5,0,0,0,8.43-9.38q7.6-1.6,15.14-3.5a77.86,77.86,0,0,0,6.16-8.55Z" transform="translate(-262.07 -160.95)"/><path class="cls-5" d="M485.5,226l-1.59,4.11s-38.23,16.66-77,19.53c-70.42,5.21-142.6-17.94-142.6-17.94l-2.22-4.24Z" transform="translate(-262.07 -160.95)"/><path class="cls-6" d="M485.5,226l-1.59,4.11s-38.23,16.66-77,19.53c-70.42,5.21-142.6-17.94-142.6-17.94l-2.22-4.24Z" transform="translate(-262.07 -160.95)"/><path class="cls-7" d="M262.07,227.43S329.39,251,407.4,243.35c49.75-4.87,78.1-17.37,78.1-17.37q-8-2.47-15.92-4.47A230.68,230.68,0,0,0,432,215.16l-98.69.33h-2.68C304.94,217.51,281.85,221.33,262.07,227.43Z" transform="translate(-262.07 -160.95)"/><path class="cls-8" d="M419.73,235.06l.08,0c14.18-4.71,23.88-10.71,28.85-17.82l-.3-.21c-4.91,7-14.53,13-28.58,17.65l-10.86-6.38-.19.31Z" transform="translate(-262.07 -160.95)"/><path class="cls-6" d="M418.8,235l.08,0c14.17-4.71,23.88-10.71,28.85-17.83l-.3-.21c-4.92,7-14.53,13-28.59,17.66L408,228.18l-.18.31Z" transform="translate(-262.07 -160.95)"/><polygon class="cls-6" points="43.95 70.12 44.01 70.1 75.53 58.59 75.41 58.25 43.94 69.74 17.07 61.78 16.97 62.13 43.95 70.12"/><polygon class="cls-8" points="43.96 70.51 44.02 70.49 75.54 58.98 75.41 58.64 43.95 70.12 17.08 62.17 16.97 62.52 43.96 70.51"/><path class="cls-6" d="M342,237.64c18.25,1.77,38.66,1.82,61.77.16l.4,0-8.66-9-.27.26,8.12,8.44c-32.82,2.33-60.18,1.21-83.61-3.42l25.5-10.65-.14-.34-26.61,11.11.58.12A230.09,230.09,0,0,0,342,237.64Z" transform="translate(-262.07 -160.95)"/><path class="cls-8" d="M342,238c18.25,1.77,38.67,1.82,61.78.17l.39,0-8.66-9-.26.25,8.11,8.45c-32.82,2.32-60.18,1.2-83.61-3.43l25.51-10.64-.15-.34L318.5,234.52l.59.11A227,227,0,0,0,342,238Z" transform="translate(-262.07 -160.95)"/><path class="cls-6" d="M330.89,216.07c16.77,19.6,92.35,23.25,138.69,5.44A230.68,230.68,0,0,0,432,215.16l-98.69.33Z" transform="translate(-262.07 -160.95)"/><path class="cls-9" d="M330.63,215.49a25.61,25.61,0,0,0,7.3,5.67c20.37,6.15,43.69,10.67,70.55,7.78A67.76,67.76,0,0,0,432,215.15a69.37,69.37,0,0,0-22-21.79c-9.55-5.93-22.1-4.29-33-1.67s-21.1,7.7-31.05,12.88A73.39,73.39,0,0,0,330.63,215.49Z" transform="translate(-262.07 -160.95)"/><path class="cls-6" d="M333.92,215.14a178.52,178.52,0,0,1,45.86-21c5.13-1.51,10.44-2.81,15.79-2.47,6.94.44,13.48,3.65,19,7.91a110.38,110.38,0,0,1,15.17,14.94,10.29,10.29,0,0,1-3.51,3A86.31,86.31,0,0,0,415.83,204c-4.11-4.25-9.19-7.78-14.95-9.12-7.18-1.68-14.71.13-21.68,2.54a128.6,128.6,0,0,0-38.61,21.32C338.92,217.72,335.6,216.14,333.92,215.14Z" transform="translate(-262.07 -160.95)"/><path class="cls-10" d="M467.23,194c-4.73-3.06-6.59-4.88-7.3-9.18,32.79-16.52,55.92-22.22,70.64-18.52C519,173.83,515.65,177.38,505,184c-14.52,13.11-27.9,31.53-40,44.91-10.15,2.89-18.81,3.92-29.2,5.35l.16.15-2.51,1.81-.35-1.59C446.93,220.21,463.74,202.77,467.23,194Z" transform="translate(-262.07 -160.95)"/><path class="cls-6" d="M431.47,235.59a253.94,253.94,0,0,0,34-7.07c10.43-11.56,21.82-26.87,34.09-39.27,1.93-2,3.9-3.85,5.89-5.65l1.58-1c9.4-6,13-9.54,24-16.72-14.72-3.71-37.85,2-70.65,18.51.71,4.3,2.57,6.12,7.31,9.19C464.13,202.4,445.24,221.21,431.47,235.59Z" transform="translate(-262.07 -160.95)"/><path class="cls-11" d="M331.62,259.44a11.53,11.53,0,0,1,2.58,5.39c1.15,4.86-7.6,1-9.43.16-2.24-1-5.95-2.54-6.89-5-1-2.73,1.6-3.94,3.85-3.88l.77,0C325.66,256.39,329.28,257.09,331.62,259.44ZM353,273.05c3.13,1.64,6.58,2.34,9.23,1.2a7.74,7.74,0,0,0,4.42-5.15c.42-1.73.28-4.37-1-5.79-.92-1-2.87-1.7-4.12-2.24-5.25-2.31-18.12-4.07-16.61,3.13C345.62,267.42,349.07,271,353,273.05Zm49-9.29c-.83-1.92-3.33-2.82-5.59-3.24a30.9,30.9,0,0,0-12.6.27c-2.63.62-5.45,1.89-6.09,4.24s1.31,4.85,3.26,6.73a15.55,15.55,0,0,0,6.29,4.17,11.28,11.28,0,0,0,8.58-1.29C399.71,272.41,404,268.22,402,263.76Zm25,5.77c3.07-2.1,10.25-7.06,6.77-10.84-1.71-1.86-4.36-1.67-6.78-1.32-6.43.91-14.3,3.25-15.06,9.21-.28,2.23,1.3,6.2,4.69,6.54l.32,0C420.43,273.33,424.68,271.13,427,269.53Z" transform="translate(-262.07 -160.95)"/><path class="cls-12" d="M359.07,273.36a13,13,0,0,1-4.66-1.54c-3.62-1.95-6.53-5.17-7.06-7.83a2.23,2.23,0,0,1,.35-2.09c.93-1.07,3.42-1.52,6.67-1.2a24.64,24.64,0,0,1,7.09,1.76l.69.3a9.24,9.24,0,0,1,2.81,1.58c.82.93,1,3,.62,4.44a6.26,6.26,0,0,1-3.47,4.17,6,6,0,0,1-3,.41Zm28.21,1.11a13.63,13.63,0,0,1-5.47-3.79c-2.25-2.24-3.13-3.91-2.76-5.27s2.14-2.54,4.86-3.21a27.37,27.37,0,0,1,9.17-.65c.81.08,1.63.2,2.43.35,2.36.44,3.9,1.28,4.36,2.36,1.42,3.41-2,7-5.4,9.05a9.69,9.69,0,0,1-5.83,1.42A6.68,6.68,0,0,1,387.28,274.47ZM327,263.82l-.55-.26c-1.89-.88-4.74-2.22-5.36-3.93-.26-.71-.07-1,0-1.09a3,3,0,0,1,2.36-.82l.66,0,.38,0c2.28.22,5.55.76,7.54,2.83a10,10,0,0,1,2.11,4.68,1.79,1.79,0,0,1,.05.54,2.77,2.77,0,0,1-1,.05A23.41,23.41,0,0,1,327,263.82Zm88.4,7.71h0a3,3,0,0,1-2.15-1.29,5.53,5.53,0,0,1-1.11-3.59c.68-5.3,8.68-7.28,13.38-8a13.19,13.19,0,0,1,3-.19,3.3,3.3,0,0,1,2.27,1,1.76,1.76,0,0,1,.51,1.44c-.29,2.58-5.05,5.95-6.84,7.21-2.34,1.66-6.06,3.54-8.85,3.39Z" transform="translate(-262.07 -160.95)"/><path class="cls-13" d="M341.83,207.35a144.22,144.22,0,0,1,39.73-14.75c6.91-1.45,14.13-2.39,21-.69,7.65,1.9,14.2,7,19.27,13-6,5.46-13.29,10-21.17,12-15,3.89-30.88.72-45.91-3.13A41.23,41.23,0,0,1,341.83,207.35Z" transform="translate(-262.07 -160.95)"/><path class="cls-8" d="M374.06,204.86c1.67-2.33,3.6-4.92,3.46-7.87-.12-2.47-2.09-3.35-4.26-2.88a40.4,40.4,0,0,0-5.94,1.94c-10.26,4-20.46,8.44-29.27,15a7.11,7.11,0,0,0-2.3,2.36c-1.29,2.7,3.82,5,5.58,5.9a37.7,37.7,0,0,0,9.34,3.16c3.14.71,6.45,1.15,9.43-.39,3.37-1.75,5.32-5.8,7.64-8.66,2.08-2.57,4-5.27,5.88-8Z" transform="translate(-262.07 -160.95)"/><path class="cls-8" d="M422.06,204.78c1.19,1.36,2.32,2.78,3.4,4.24s3.1,3.45,2.94,5.39a5.43,5.43,0,0,1-4.9,4.61c-4.54.49-7.23-3.55-9.57-6.76a74.6,74.6,0,0,1-5.47-8.65c-1-1.77-4.7-7.55-.66-8.25a5,5,0,0,1,2.83.57,32.34,32.34,0,0,1,10.58,7.91C421.5,204.15,421.78,204.46,422.06,204.78Z" transform="translate(-262.07 -160.95)"/><path class="cls-14" d="M478.85,192a177.5,177.5,0,0,0,53-19,15.15,15.15,0,0,0-7.17-1.05A302.57,302.57,0,0,0,478.85,192Z" transform="translate(-262.07 -160.95)"/><path class="cls-4" d="M483.25,190.52c9.56-2.21,23.28-7.08,32.9-11.31a3.7,3.7,0,0,0,.53-3.53C506.13,179.3,492.13,185.32,483.25,190.52Z" transform="translate(-262.07 -160.95)"/><path class="cls-15" d="M495.22,194a88.13,88.13,0,0,0-23,11.68,131.69,131.69,0,0,0,33.7-11.58A16.61,16.61,0,0,0,495.22,194Z" transform="translate(-262.07 -160.95)"/><path class="cls-16" d="M479.11,192.15a123.57,123.57,0,0,0,22.47-2.3c1.93-2,3.9-3.85,5.88-5.65.55-.33,1.07-.67,1.58-1a13,13,0,0,0,.5-1.36c-8.07,1.25-16.1,4.75-23.53,8.14C483.81,191,481.3,191.15,479.11,192.15Z" transform="translate(-262.07 -160.95)"/><polygon class="cls-17" points="230.09 39.08 225.43 44.49 210.18 44.68 230.09 39.08"/><polygon class="cls-18" points="215.56 56.34 212.09 60.48 200.26 59.82 215.56 56.34"/><path class="cls-19" d="M482.13,212.24a62.65,62.65,0,0,0-19.81,8.54,159,159,0,0,0,30.18-8.46C489,212,485.55,211.42,482.13,212.24Z" transform="translate(-262.07 -160.95)"/><path class="cls-4" d="M492.92,195.54a3.68,3.68,0,0,1,2.1,2.34c-5.37,2.6-12.62,4.86-20.65,7C480.36,200.86,486.47,197.42,492.92,195.54Z" transform="translate(-262.07 -160.95)"/><path class="cls-4" d="M479.63,213.43c1.63.56,1.76,1.37,1.45,2.25-5,1.4-10.66,2.87-16.74,4.4A43.43,43.43,0,0,1,479.63,213.43Z" transform="translate(-262.07 -160.95)"/><path class="cls-20" d="M345.51,226.08c-7.51-2.61-13.8-5.47-18.49-8.68-18.26.79-37.66,4.7-57.61,10.08,12.44,4.86,27,7.83,43.29,9.3Z" transform="translate(-262.07 -160.95)"/><path class="cls-8" d="M329.67,263.42a.53.53,0,0,1-.15.34.87.87,0,0,1-.52.16c-1.61.06-3.63-1.18-5-2a4.06,4.06,0,0,1-1.19-.94,1.54,1.54,0,0,1-.31-1.42,1.72,1.72,0,0,1,1.88-.91,6.17,6.17,0,0,1,5.18,4.18A1.3,1.3,0,0,1,329.67,263.42Z" transform="translate(-262.07 -160.95)"/><path class="cls-8" d="M359.66,270.46c.14.85.08,2-.72,2.28a2,2,0,0,1-1.29-.06A14.81,14.81,0,0,1,350,267.2a3.94,3.94,0,0,1-1-2.6c.27-2.54,3.43-2.67,5.33-2.28s3.14,2.56,4,4.13A14,14,0,0,1,359.66,270.46Z" transform="translate(-262.07 -160.95)"/><path class="cls-8" d="M391.4,270.94a3.84,3.84,0,0,1-.86,2.22,2.87,2.87,0,0,1-2.37.74,5.76,5.76,0,0,1-2.37-.92,12.55,12.55,0,0,1-4-4,3.37,3.37,0,0,1-.55-3.19,3.19,3.19,0,0,1,1.84-1.4c1.93-.73,5.13-1.14,7,.1S391.62,269.2,391.4,270.94Z" transform="translate(-262.07 -160.95)"/><path class="cls-8" d="M418.51,270c-.79.18-1.67.11-1.86-.82-.26-1.23.51-2.86,1.05-3.92a10,10,0,0,1,2.61-3.23,8,8,0,0,1,6.78-1.61c1,.25,2,1,1.57,2.15a3.21,3.21,0,0,1-.54.88,18.72,18.72,0,0,1-5,4.38,31.08,31.08,0,0,1-3.87,1.94A3.59,3.59,0,0,1,418.51,270Z" transform="translate(-262.07 -160.95)"/></g></g></svg>