<svg xmlns="http://www.w3.org/2000/svg" xmlns:xlink="http://www.w3.org/1999/xlink" viewBox="0 0 269.79 119.37"><defs><style>.cls-1{isolation:isolate;}.cls-2{fill:#c700cd;}.cls-3{fill:#f5c8bd;mix-blend-mode:multiply;}.cls-4{fill:url(#Безымянный_градиент_167);}.cls-5{fill:#ffdb00;opacity:0.3;}.cls-11,.cls-17,.cls-5,.cls-6,.cls-9{mix-blend-mode:screen;}.cls-6{fill:#ab8531;}.cls-7{fill:url(#Безымянный_градиент_168);}.cls-8{fill:url(#Безымянный_градиент_167-2);}.cls-9{fill:url(#Безымянный_градиент_165);}.cls-10{fill:url(#Безымянный_градиент_166);}.cls-11{fill:#663702;}.cls-12{fill:url(#Безымянный_градиент_166-2);}.cls-13{fill:url(#Безымянный_градиент_166-3);}.cls-14{fill:url(#Безымянный_градиент_166-4);}.cls-15{fill:url(#Безымянный_градиент_166-5);}.cls-16{fill:url(#Безымянный_градиент_166-6);}.cls-17{fill:url(#Безымянный_градиент_165-2);}</style><radialGradient id="Безымянный_градиент_167" cx="371.79" cy="236.17" r="79.47" gradientUnits="userSpaceOnUse"><stop offset="0" stop-color="#ffe45e"/><stop offset="1" stop-color="#f2710b"/></radialGradient><linearGradient id="Безымянный_градиент_168" x1="645.06" y1="301.44" x2="648.81" y2="269.31" gradientTransform="matrix(-1, -0.1, -0.1, 1, 1045.99, 49.38)" gradientUnits="userSpaceOnUse"><stop offset="0" stop-color="#ff7a25"/><stop offset="0.42" stop-color="#bf422a"/><stop offset="0.81" stop-color="#88122d"/><stop offset="1" stop-color="#73002f"/></linearGradient><radialGradient id="Безымянный_градиент_167-2" cx="650.57" cy="250.06" r="57.04" gradientTransform="matrix(-1, -0.1, -0.1, 1, 1045.99, 49.38)" xlink:href="#Безымянный_градиент_167"/><linearGradient id="Безымянный_градиент_165" x1="647.04" y1="238.62" x2="648.73" y2="204.67" gradientTransform="matrix(-1, -0.1, -0.1, 1, 1045.99, 49.38)" gradientUnits="userSpaceOnUse"><stop offset="0" stop-color="#635d20"/><stop offset="0.62" stop-color="#22200b"/><stop offset="1"/></linearGradient><linearGradient id="Безымянный_градиент_166" x1="575.7" y1="181.99" x2="487.43" y2="183.36" gradientTransform="matrix(-1, -0.1, -0.1, 1, 1045.99, 49.38)" gradientUnits="userSpaceOnUse"><stop offset="0" stop-color="#ff7a25"/><stop offset="0.29" stop-color="#da562c"/><stop offset="0.77" stop-color="#a42235"/><stop offset="1" stop-color="#8f0d39"/></linearGradient><linearGradient id="Безымянный_градиент_166-2" x1="574.33" y1="201.79" x2="519.32" y2="201.42" xlink:href="#Безымянный_градиент_166"/><linearGradient id="Безымянный_градиент_166-3" x1="477.11" y1="185" x2="507.54" y2="185" gradientTransform="matrix(1, 0, 0, 1, 0, 0)" xlink:href="#Безымянный_градиент_166"/><linearGradient id="Безымянный_градиент_166-4" x1="210.18" y1="41.88" x2="230.09" y2="41.88" gradientTransform="matrix(1, 0, 0, 1, 0, 0)" xlink:href="#Безымянный_градиент_166"/><linearGradient id="Безымянный_градиент_166-5" x1="200.26" y1="58.41" x2="215.55" y2="58.41" gradientTransform="matrix(1, 0, 0, 1, 0, 0)" xlink:href="#Безымянный_градиент_166"/><linearGradient id="Безымянный_градиент_166-6" x1="574.21" y1="219.73" x2="519.19" y2="219.36" xlink:href="#Безымянный_градиент_166"/><linearGradient id="Безымянный_градиент_165-2" x1="759.13" y1="238.97" x2="678.87" y2="250.72" xlink:href="#Безымянный_градиент_165"/></defs><title>nlo rozovi</title><g class="cls-1"><g id="Слой_1" data-name="Слой 1"><path class="cls-2" d="M410,230l-.35-1.59c13.77-14.39,30.58-31.84,34.07-40.65-4.73-3.06-6.59-4.88-7.3-9.19,30-15.08,51.85-21.14,66.63-19.25a36.08,36.08,0,0,1,6.44,1c-3.19,2.09-5.74,3.87-8,5.5a15,15,0,0,1,6.86,1.07,188.45,188.45,0,0,1-24.14,11l-.25.15c-2,1.79-4,3.68-5.89,5.65-1.1,1.11-2.19,2.26-3.28,3.41a16.11,16.11,0,0,1,7.64.79,128,128,0,0,1-13.76,6l-.24.27-4.29,5c-2,2.35-4,4.72-5.92,7.06l.4-.1c3.42-.82,6.87-.21,10.37.08-4.86,1.87-9.83,3.55-14.88,5h0q-1.55,1.88-3.08,3.69l-.37.45h0c-2.26,2.68-4.48,5.26-6.66,7.67A252.4,252.4,0,0,1,410,230Z" transform="translate(-260.07 -158.95)"/><path class="cls-2" d="M264.92,230.47s2.8,2.5,7.93,6.35C291.32,250.68,340,282.11,397.35,278c39.09-2.84,63.42-26.48,74-39.52a77.86,77.86,0,0,0,6.16-8.55Z" transform="translate(-260.07 -158.95)"/><path class="cls-2" d="M264.92,230.47s2.8,2.5,7.93,6.35a186.12,186.12,0,0,0,28.72,7.26,400.07,400.07,0,0,0,116.42,4,138.7,138.7,0,0,1-9.91,24.61A138.85,138.85,0,0,0,436,259.94a128.07,128.07,0,0,0,11.76-8.63,59.5,59.5,0,0,0,8.43-9.38q7.6-1.6,15.14-3.5a77.86,77.86,0,0,0,6.16-8.55Z" transform="translate(-260.07 -158.95)"/><path class="cls-3" d="M264.92,230.47s2.8,2.5,7.93,6.35a186.12,186.12,0,0,0,28.72,7.26,400.07,400.07,0,0,0,116.42,4,138.7,138.7,0,0,1-9.91,24.61A138.85,138.85,0,0,0,436,259.94a128.07,128.07,0,0,0,11.76-8.63,59.5,59.5,0,0,0,8.43-9.38q7.6-1.6,15.14-3.5a77.86,77.86,0,0,0,6.16-8.55Z" transform="translate(-260.07 -158.95)"/><path class="cls-4" d="M483.5,224l-1.59,4.11s-38.23,16.66-77,19.53c-70.42,5.21-142.6-17.94-142.6-17.94l-2.22-4.24Z" transform="translate(-260.07 -158.95)"/><path class="cls-2" d="M483.5,224l-1.59,4.11s-38.23,16.66-77,19.53c-70.42,5.21-142.6-17.94-142.6-17.94l-2.22-4.24Z" transform="translate(-260.07 -158.95)"/><path class="cls-2" d="M260.07,225.43S327.39,249,405.4,241.35c49.75-4.87,78.1-17.37,78.1-17.37q-8-2.47-15.92-4.47A230.68,230.68,0,0,0,430,213.16l-98.69.33h-2.68C302.94,215.51,279.85,219.33,260.07,225.43Z" transform="translate(-260.07 -158.95)"/><path class="cls-5" d="M260.07,225.19s67.32,23.55,145.33,15.92c49.75-4.87,78.11-17.37,78.11-17.37q-8-2.48-15.93-4.47A230.68,230.68,0,0,0,430,212.92l-98.69.33h-2.68C302.94,215.28,279.85,219.09,260.07,225.19Z" transform="translate(-260.07 -158.95)"/><path class="cls-6" d="M417.73,233.06l.08,0c14.18-4.71,23.88-10.71,28.85-17.82l-.3-.21c-4.91,7-14.53,13-28.58,17.65l-10.86-6.38-.19.31Z" transform="translate(-260.07 -158.95)"/><path class="cls-3" d="M416.8,233l.08,0c14.17-4.71,23.88-10.71,28.85-17.83l-.3-.21c-4.92,7-14.53,13-28.59,17.66L406,226.18l-.18.31Z" transform="translate(-260.07 -158.95)"/><polygon class="cls-3" points="43.95 70.12 44.01 70.1 75.53 58.59 75.41 58.25 43.94 69.74 17.07 61.78 16.97 62.13 43.95 70.12"/><polygon class="cls-6" points="43.96 70.51 44.02 70.49 75.54 58.98 75.41 58.64 43.95 70.12 17.08 62.17 16.97 62.52 43.96 70.51"/><path class="cls-3" d="M340,235.64c18.25,1.77,38.66,1.82,61.77.16l.4,0-8.66-9-.27.26,8.12,8.44c-32.82,2.33-60.18,1.21-83.61-3.42l25.5-10.65-.14-.34-26.61,11.11.58.12A230.09,230.09,0,0,0,340,235.64Z" transform="translate(-260.07 -158.95)"/><path class="cls-6" d="M340,236c18.25,1.77,38.67,1.82,61.78.17l.39,0-8.66-9-.26.25,8.11,8.45c-32.82,2.32-60.18,1.2-83.61-3.43l25.51-10.64-.15-.34L316.5,232.52l.59.11A227,227,0,0,0,340,236Z" transform="translate(-260.07 -158.95)"/><path class="cls-3" d="M328.89,214.07c16.77,19.6,92.35,23.25,138.69,5.44A230.68,230.68,0,0,0,430,213.16l-98.69.33Z" transform="translate(-260.07 -158.95)"/><path class="cls-2" d="M328.63,213.49a25.61,25.61,0,0,0,7.3,5.67c20.37,6.15,43.69,10.67,70.55,7.78A67.76,67.76,0,0,0,430,213.15a69.37,69.37,0,0,0-22-21.79c-9.55-5.93-22.1-4.29-33-1.67s-21.1,7.7-31.05,12.88A73.39,73.39,0,0,0,328.63,213.49Z" transform="translate(-260.07 -158.95)"/><path class="cls-3" d="M331.92,213.14a178.52,178.52,0,0,1,45.86-21c5.13-1.51,10.44-2.81,15.79-2.47,6.94.44,13.48,3.65,19,7.91a110.38,110.38,0,0,1,15.17,14.94,10.29,10.29,0,0,1-3.51,3A86.31,86.31,0,0,0,413.83,202c-4.11-4.25-9.19-7.78-14.95-9.12-7.18-1.68-14.71.13-21.68,2.54a128.6,128.6,0,0,0-38.61,21.32C336.92,215.72,333.6,214.14,331.92,213.14Z" transform="translate(-260.07 -158.95)"/><path class="cls-2" d="M465.23,192c-4.73-3.06-6.59-4.88-7.3-9.18,32.79-16.52,55.92-22.22,70.64-18.52C517,171.83,513.65,175.38,503,182c-14.52,13.11-27.9,31.53-40,44.91-10.15,2.89-18.81,3.92-29.2,5.35l.16.15-2.51,1.81-.35-1.59C444.93,218.21,461.74,200.77,465.23,192Z" transform="translate(-260.07 -158.95)"/><path class="cls-3" d="M429.08,234.07a252.39,252.39,0,0,0,34-7.07c10.43-11.55,21.82-26.87,34.09-39.26,1.93-2,3.9-3.86,5.88-5.65l1.58-1c9.41-6,13-9.54,24-16.73-14.72-3.7-37.85,2-70.65,18.51.71,4.31,2.57,6.13,7.31,9.19C461.74,200.89,442.85,219.69,429.08,234.07Z" transform="translate(-260.07 -158.95)"/><path class="cls-7" d="M329.62,257.44a11.53,11.53,0,0,1,2.58,5.39c1.15,4.86-7.6,1-9.43.16-2.24-1-5.95-2.54-6.89-5-1-2.73,1.6-3.94,3.85-3.88l.77,0C323.66,254.39,327.28,255.09,329.62,257.44ZM351,271.05c3.13,1.64,6.58,2.34,9.23,1.2a7.74,7.74,0,0,0,4.42-5.15c.42-1.73.28-4.37-1-5.79-.92-1-2.87-1.7-4.12-2.24-5.25-2.31-18.12-4.07-16.61,3.13C343.62,265.42,347.07,269,351,271.05Zm49-9.29c-.83-1.92-3.33-2.82-5.59-3.24a30.9,30.9,0,0,0-12.6.27c-2.63.62-5.45,1.89-6.09,4.24s1.31,4.85,3.26,6.73a15.55,15.55,0,0,0,6.29,4.17,11.28,11.28,0,0,0,8.58-1.29C397.71,270.41,402,266.22,400,261.76Zm25,5.77c3.07-2.1,10.25-7.06,6.77-10.84-1.71-1.86-4.36-1.67-6.78-1.32-6.43.91-14.3,3.25-15.06,9.21-.28,2.23,1.3,6.2,4.69,6.54l.32,0C418.43,271.33,422.68,269.13,425,267.53Z" transform="translate(-260.07 -158.95)"/><path class="cls-8" d="M357.07,271.36a13,13,0,0,1-4.66-1.54c-3.62-1.95-6.53-5.17-7.06-7.83a2.23,2.23,0,0,1,.35-2.09c.93-1.07,3.42-1.52,6.67-1.2a24.64,24.64,0,0,1,7.09,1.76l.69.3a9.24,9.24,0,0,1,2.81,1.58c.82.93,1,3,.62,4.44a6.26,6.26,0,0,1-3.47,4.17,6,6,0,0,1-3,.41Zm28.21,1.11a13.63,13.63,0,0,1-5.47-3.79c-2.25-2.24-3.13-3.91-2.76-5.27s2.14-2.54,4.86-3.21a27.37,27.37,0,0,1,9.17-.65c.81.08,1.63.2,2.43.35,2.36.44,3.9,1.28,4.36,2.36,1.42,3.41-2,7-5.4,9.05a9.69,9.69,0,0,1-5.83,1.42A6.68,6.68,0,0,1,385.28,272.47ZM325,261.82l-.55-.26c-1.89-.88-4.74-2.22-5.36-3.93-.26-.71-.07-1,0-1.09a3,3,0,0,1,2.36-.82l.66,0,.38,0c2.28.22,5.55.76,7.54,2.83a10,10,0,0,1,2.11,4.68,1.79,1.79,0,0,1,.05.54,2.77,2.77,0,0,1-1,.05A23.41,23.41,0,0,1,325,261.82Zm88.4,7.71h0a3,3,0,0,1-2.15-1.29,5.53,5.53,0,0,1-1.11-3.59c.68-5.3,8.68-7.28,13.38-8a13.19,13.19,0,0,1,3-.19,3.3,3.3,0,0,1,2.27,1,1.76,1.76,0,0,1,.51,1.44c-.29,2.58-5.05,5.95-6.84,7.21-2.34,1.66-6.06,3.54-8.85,3.39Z" transform="translate(-260.07 -158.95)"/><path class="cls-9" d="M339.83,205.27a144.22,144.22,0,0,1,39.73-14.75c6.91-1.45,14.13-2.39,21-.69,7.65,1.9,14.2,7,19.27,13-6,5.46-13.29,10-21.17,12-15,3.89-30.88.72-45.91-3.13A41.23,41.23,0,0,1,339.83,205.27Z" transform="translate(-260.07 -158.95)"/><path class="cls-6" d="M411.6,201.23c1.2,1.36,2.32,2.78,3.4,4.23s3.11,3.46,2.94,5.39a5.45,5.45,0,0,1-4.89,4.62c-4.54.48-7.24-3.55-9.58-6.76a76.26,76.26,0,0,1-5.46-8.65c-1-1.78-4.71-7.56-.67-8.26a5,5,0,0,1,2.83.57,32.37,32.37,0,0,1,10.58,7.91C411,200.59,411.32,200.91,411.6,201.23Z" transform="translate(-260.07 -158.95)"/><path class="cls-10" d="M476.85,190a177.5,177.5,0,0,0,53-19,15.15,15.15,0,0,0-7.17-1.05A302.57,302.57,0,0,0,476.85,190Z" transform="translate(-260.07 -158.95)"/><path class="cls-11" d="M481.25,188.52c9.56-2.21,23.28-7.08,32.9-11.31a3.7,3.7,0,0,0,.53-3.53C504.13,177.3,490.13,183.32,481.25,188.52Z" transform="translate(-260.07 -158.95)"/><path class="cls-12" d="M493.22,192a88.13,88.13,0,0,0-23,11.68,131.69,131.69,0,0,0,33.7-11.58A16.61,16.61,0,0,0,493.22,192Z" transform="translate(-260.07 -158.95)"/><path class="cls-13" d="M477.11,190.15a123.57,123.57,0,0,0,22.47-2.3c1.93-2,3.9-3.85,5.88-5.65.55-.33,1.07-.67,1.58-1a13,13,0,0,0,.5-1.36c-8.07,1.25-16.1,4.75-23.53,8.14C481.81,189,479.3,189.15,477.11,190.15Z" transform="translate(-260.07 -158.95)"/><polygon class="cls-14" points="230.09 39.08 225.43 44.49 210.18 44.68 230.09 39.08"/><polygon class="cls-15" points="215.56 56.34 212.09 60.48 200.26 59.82 215.56 56.34"/><path class="cls-16" d="M480.13,210.24a62.65,62.65,0,0,0-19.81,8.54,159,159,0,0,0,30.18-8.46C487,210,483.55,209.42,480.13,210.24Z" transform="translate(-260.07 -158.95)"/><path class="cls-11" d="M490.92,193.54a3.68,3.68,0,0,1,2.1,2.34c-5.37,2.6-12.62,4.86-20.65,7C478.36,198.86,484.47,195.42,490.92,193.54Z" transform="translate(-260.07 -158.95)"/><path class="cls-11" d="M477.63,211.43c1.63.56,1.76,1.37,1.45,2.25-5,1.4-10.66,2.87-16.74,4.4A43.43,43.43,0,0,1,477.63,211.43Z" transform="translate(-260.07 -158.95)"/><path class="cls-17" d="M343.51,224.08c-7.51-2.61-13.8-5.47-18.49-8.68-18.26.79-37.66,4.7-57.61,10.08,12.44,4.86,27,7.83,43.29,9.3Z" transform="translate(-260.07 -158.95)"/><path class="cls-6" d="M327.67,261.42a.53.53,0,0,1-.15.34.87.87,0,0,1-.52.16c-1.61.06-3.63-1.18-5-2a4.06,4.06,0,0,1-1.19-.94,1.54,1.54,0,0,1-.31-1.42,1.72,1.72,0,0,1,1.88-.91,6.17,6.17,0,0,1,5.18,4.18A1.3,1.3,0,0,1,327.67,261.42Z" transform="translate(-260.07 -158.95)"/><path class="cls-6" d="M357.66,268.46c.14.85.08,2-.72,2.28a2,2,0,0,1-1.29-.06A14.81,14.81,0,0,1,348,265.2a3.94,3.94,0,0,1-1-2.6c.27-2.54,3.43-2.67,5.33-2.28s3.14,2.56,4,4.13A14,14,0,0,1,357.66,268.46Z" transform="translate(-260.07 -158.95)"/><path class="cls-6" d="M389.4,268.94a3.84,3.84,0,0,1-.86,2.22,2.87,2.87,0,0,1-2.37.74,5.76,5.76,0,0,1-2.37-.92,12.55,12.55,0,0,1-4-4,3.37,3.37,0,0,1-.55-3.19,3.19,3.19,0,0,1,1.84-1.4c1.93-.73,5.13-1.14,7,.1S389.62,267.2,389.4,268.94Z" transform="translate(-260.07 -158.95)"/><path class="cls-6" d="M416.51,268c-.79.18-1.67.11-1.86-.82-.26-1.23.51-2.86,1.05-3.92a10,10,0,0,1,2.61-3.23,8,8,0,0,1,6.78-1.61c1,.25,2,1,1.57,2.15a3.21,3.21,0,0,1-.54.88,18.72,18.72,0,0,1-5,4.38,31.08,31.08,0,0,1-3.87,1.94A3.59,3.59,0,0,1,416.51,268Z" transform="translate(-260.07 -158.95)"/></g></g></svg>