<svg xmlns="http://www.w3.org/2000/svg" xmlns:xlink="http://www.w3.org/1999/xlink" viewBox="0 0 325.98 138.86"><defs><style>.cls-1{isolation:isolate;}.cls-2{fill:url(#Безымянный_градиент_170);}.cls-3,.cls-4{fill:url(#Безымянный_градиент_170-2);}.cls-4{opacity:0.34;}.cls-5{fill:url(#Безымянный_градиент_170-4);}.cls-6{fill:url(#Безымянный_градиент_170-5);}.cls-7{fill:url(#Безымянный_градиент_170-6);}.cls-8{fill:url(#Безымянный_градиент_169);}.cls-9{fill:url(#radial-gradient);}.cls-10{fill:#fff;}.cls-11{fill:#1c103f;}.cls-12{opacity:0.1;mix-blend-mode:overlay;}.cls-13{fill:#005456;}.cls-14{fill:url(#Безымянный_градиент_169-2);}.cls-15{fill:url(#Безымянный_градиент_170-7);}.cls-16{fill:#f5c8bd;mix-blend-mode:multiply;}.cls-17{fill:url(#Безымянный_градиент_170-8);}.cls-18{fill:url(#Безымянный_градиент_170-9);}.cls-19{fill:url(#Безымянный_градиент_170-10);}.cls-20{fill:url(#Безымянный_градиент_170-11);}.cls-21{fill:url(#Безымянный_градиент_170-12);}.cls-22{fill:url(#Безымянный_градиент_169-3);}.cls-23{fill:url(#Безымянный_градиент_166);}.cls-24{fill:#7adfff;}.cls-25{fill:url(#Безымянный_градиент_166-2);}.cls-26{fill:url(#Безымянный_градиент_166-3);}.cls-27{fill:url(#Безымянный_градиент_166-4);}.cls-28{fill:url(#Безымянный_градиент_166-5);}.cls-29{fill:url(#Безымянный_градиент_166-6);}</style><linearGradient id="Безымянный_градиент_170" x1="264.76" y1="214.46" x2="526.05" y2="214.46" gradientUnits="userSpaceOnUse"><stop offset="0" stop-color="#00f2a0"/><stop offset="1" stop-color="#168c62"/></linearGradient><linearGradient id="Безымянный_градиент_170-2" x1="263.2" y1="39.83" x2="305.86" y2="39.83" xlink:href="#Безымянный_градиент_170"/><linearGradient id="Безымянный_градиент_170-4" x1="294.59" y1="15.56" x2="325.98" y2="15.56" xlink:href="#Безымянный_градиент_170"/><linearGradient id="Безымянный_градиент_170-5" x1="301.03" y1="9.58" x2="310.69" y2="9.58" xlink:href="#Безымянный_градиент_170"/><linearGradient id="Безымянный_градиент_170-6" x1="530.22" y1="172.9" x2="561.06" y2="172.9" xlink:href="#Безымянный_градиент_170"/><linearGradient id="Безымянный_градиент_169" x1="436.24" y1="209.88" x2="526.05" y2="209.88" gradientUnits="userSpaceOnUse"><stop offset="0" stop-color="#00f2a0"/><stop offset="0.12" stop-color="#03d48f"/><stop offset="0.29" stop-color="#07b17c"/><stop offset="0.46" stop-color="#0a966c"/><stop offset="0.64" stop-color="#0c8362"/><stop offset="0.81" stop-color="#0e785b"/><stop offset="1" stop-color="#0e7459"/></linearGradient><radialGradient id="radial-gradient" cx="162.68" cy="72.53" r="44.61" gradientUnits="userSpaceOnUse"><stop offset="0" stop-color="#00cbff"/><stop offset="0.13" stop-color="#00b7f3"/><stop offset="0.41" stop-color="#0083d5"/><stop offset="0.59" stop-color="#005cbf"/><stop offset="1" stop-color="#002479"/></radialGradient><linearGradient id="Безымянный_градиент_169-2" x1="241.12" y1="247.93" x2="558.65" y2="247.93" xlink:href="#Безымянный_градиент_169"/><linearGradient id="Безымянный_градиент_170-7" x1="15.7" y1="114.81" x2="311.5" y2="114.81" xlink:href="#Безымянный_градиент_170"/><linearGradient id="Безымянный_градиент_170-8" x1="261.94" y1="267.96" x2="535.41" y2="267.96" xlink:href="#Безымянный_градиент_170"/><linearGradient id="Безымянный_градиент_170-9" x1="20.12" y1="39.83" x2="62.78" y2="39.83" xlink:href="#Безымянный_градиент_170"/><linearGradient id="Безымянный_градиент_170-10" x1="0" y1="15.56" x2="31.39" y2="15.56" xlink:href="#Безымянный_градиент_170"/><linearGradient id="Безымянный_градиент_170-11" x1="15.29" y1="9.58" x2="24.95" y2="9.58" xlink:href="#Безымянный_градиент_170"/><linearGradient id="Безымянный_градиент_170-12" x1="235.08" y1="171.99" x2="266.09" y2="171.99" xlink:href="#Безымянный_градиент_170"/><linearGradient id="Безымянный_градиент_169-3" x1="101.42" y1="117.7" x2="226.98" y2="117.7" xlink:href="#Безымянный_градиент_169"/><linearGradient id="Безымянный_градиент_166" x1="23.95" y1="94.79" x2="33.51" y2="94.79" gradientUnits="userSpaceOnUse"><stop offset="0" stop-color="#ff7a25"/><stop offset="0.29" stop-color="#da562c"/><stop offset="0.77" stop-color="#a42235"/><stop offset="1" stop-color="#8f0d39"/></linearGradient><linearGradient id="Безымянный_градиент_166-2" x1="306.11" y1="238.62" x2="315.68" y2="238.62" xlink:href="#Безымянный_градиент_166"/><linearGradient id="Безымянный_градиент_166-3" x1="527.57" y1="247.93" x2="537.14" y2="247.93" xlink:href="#Безымянный_градиент_166"/><linearGradient id="Безымянный_градиент_166-4" x1="480.49" y1="238.62" x2="490.05" y2="238.62" xlink:href="#Безымянный_градиент_166"/><linearGradient id="Безымянный_градиент_166-5" x1="362.77" y1="234.62" x2="372.34" y2="234.62" xlink:href="#Безымянный_градиент_166"/><linearGradient id="Безымянный_градиент_166-6" x1="425.48" y1="234.62" x2="435.05" y2="234.62" xlink:href="#Безымянный_градиент_166"/></defs><title>тарелка зеленая</title><g class="cls-1"><g id="Слой_1" data-name="Слой 1"><path class="cls-2" d="M264.76,240s28.45-72,133.26-72,128,75.85,128,75.85L398,260.85Z" transform="translate(-235.08 -153.14)"/><polygon class="cls-3" points="263.2 56.66 299.42 18.36 305.86 24.85 269.64 61.31 263.2 56.66"/><polygon class="cls-4" points="263.2 56.66 299.42 18.36 305.86 24.85 269.64 61.31 263.2 56.66"/><ellipse class="cls-5" cx="310.29" cy="15.56" rx="15.7" ry="15.56"/><ellipse class="cls-6" cx="305.86" cy="9.58" rx="4.83" ry="4.79"/><path class="cls-7" d="M561.06,168.71a15.31,15.31,0,0,0-1.77-7.17c-2.34,1.47-3.67,4.27-5.39,6.54a18.29,18.29,0,0,1-11.82,7,18.47,18.47,0,0,1-11.86-2.33,15.7,15.7,0,0,0,30.84-4Z" transform="translate(-235.08 -153.14)"/><path class="cls-8" d="M436.24,171.86c13.2,10.82,22.35,26.62,24,43.56.89,9.31-.56,19.4-6.76,26.45q21.06,4,42.43,6l30.16-4S508.69,187.22,436.24,171.86Z" transform="translate(-235.08 -153.14)"/><ellipse class="cls-9" cx="162.68" cy="72.53" rx="44.8" ry="44.42"/><ellipse class="cls-10" cx="147.6" cy="52.03" rx="12.3" ry="12.19"/><ellipse class="cls-11" cx="152.6" cy="52.03" rx="5" ry="4.96"/><ellipse class="cls-10" cx="177.77" cy="52.03" rx="12.3" ry="12.19"/><g class="cls-12"><path class="cls-10" d="M410.62,183.12a26.74,26.74,0,0,1,4.73,12.19c1.28,11-4.52,22.31-13.85,28.4-4.12,2.7-9,4.55-12.14,8.31q24.63,3.18,49.49,4c.82,0,1.65,0,2.47,0a44,44,0,0,0,1.25-10.39A44.49,44.49,0,0,0,410.62,183.12Z" transform="translate(-235.08 -153.14)"/></g><path class="cls-11" d="M412.85,205.17a5,5,0,1,1-5-5A5,5,0,0,1,412.85,205.17Z" transform="translate(-235.08 -153.14)"/><path class="cls-13" d="M359.12,212.42a6.08,6.08,0,0,0,1.74-11.93,44.06,44.06,0,0,0-5.44,10.68A6.15,6.15,0,0,0,359.12,212.42Z" transform="translate(-235.08 -153.14)"/><path class="cls-13" d="M386.8,187.18a2.94,2.94,0,1,0,2.94-2.91A2.93,2.93,0,0,0,386.8,187.18Z" transform="translate(-235.08 -153.14)"/><path class="cls-13" d="M435.44,220.38a5.13,5.13,0,1,0-5.17-5.12A5.14,5.14,0,0,0,435.44,220.38Z" transform="translate(-235.08 -153.14)"/><path class="cls-13" d="M371.45,219.12a3.9,3.9,0,1,0-3.9,3.85A3.88,3.88,0,0,0,371.45,219.12Z" transform="translate(-235.08 -153.14)"/><ellipse class="cls-13" cx="160.78" cy="73.35" rx="7.45" ry="7.38"/><path class="cls-13" d="M421.17,217.37a2,2,0,1,0,2,1.95A2,2,0,0,0,421.17,217.37Z" transform="translate(-235.08 -153.14)"/><path class="cls-13" d="M412,186.79a5.58,5.58,0,0,0,10.78,2,44.57,44.57,0,0,0-9.91-4.95A5.41,5.41,0,0,0,412,186.79Z" transform="translate(-235.08 -153.14)"/><path class="cls-14" d="M251.41,270.19l-10.29-21.48s19.89-23,162.67-23,154.86,26.85,154.86,26.85l-12.71,17.67Z" transform="translate(-235.08 -153.14)"/><path class="cls-10" d="M288.42,258.82l1.05-.19L285,233.76l-1.19.21,4.47,24.87Z" transform="translate(-235.08 -153.14)"/><path class="cls-10" d="M343.72,252.42l1.06-.06-1.47-25.05-1.21.08,1.47,25Z" transform="translate(-235.08 -153.14)"/><path class="cls-10" d="M455,252.34l2.88-25.14-1.21-.08-2.92,25.5,1.2.14Z" transform="translate(-235.08 -153.14)"/><path class="cls-10" d="M510.88,233.26l-2.94,25.67,1.2.14.05-.42,2.88-25.17Z" transform="translate(-235.08 -153.14)"/><path class="cls-10" d="M398.88,250.19l1.07,0-.69-24.48h-1.21l.69,24.5Z" transform="translate(-235.08 -153.14)"/><ellipse class="cls-15" cx="163.6" cy="114.81" rx="147.9" ry="24.05"/><ellipse class="cls-16" cx="163.34" cy="114.81" rx="147.9" ry="24.05"/><path class="cls-17" d="M398.67,284.82c-36.12,0-70.78-2.15-97.58-6.05-21.26-3.1-32.28-6.49-37.89-8.9a2.08,2.08,0,0,1,0-3.83c5.61-2.41,16.63-5.8,37.89-8.9,26.8-3.9,61.46-6,97.58-6s70.79,2.15,97.6,6c21.25,3.1,32.27,6.49,37.88,8.9a2.08,2.08,0,0,1,0,3.83c-5.61,2.41-16.63,5.8-37.89,8.9C469.46,282.67,434.8,284.82,398.67,284.82Z" transform="translate(-235.08 -153.14)"/><polygon class="cls-18" points="62.78 56.66 26.56 18.36 20.12 24.85 56.34 61.31 62.78 56.66"/><ellipse class="cls-19" cx="15.7" cy="15.56" rx="15.7" ry="15.56"/><ellipse class="cls-20" cx="20.12" cy="9.58" rx="4.83" ry="4.79"/><path class="cls-21" d="M266.09,172.06a9.8,9.8,0,0,0-4-.34c-3,.35-5.75,1.63-8.72,2a14.28,14.28,0,0,1-14.63-8.87,13.09,13.09,0,0,1-.78-5.11,15.45,15.45,0,0,0-2.89,9,15.7,15.7,0,0,0,31,3.35Z" transform="translate(-235.08 -153.14)"/><ellipse class="cls-22" cx="164.2" cy="117.7" rx="62.78" ry="9.99"/><ellipse class="cls-10" cx="162.68" cy="120.57" rx="36.16" ry="5.75"/><ellipse class="cls-23" cx="28.73" cy="94.79" rx="4.78" ry="4.74"/><path class="cls-24" d="M266.66,247.34a3.45,3.45,0,1,1-3.44-3.42A3.43,3.43,0,0,1,266.66,247.34Z" transform="translate(-235.08 -153.14)"/><ellipse class="cls-10" cx="26.12" cy="93.04" rx="1.17" ry="1.16"/><path class="cls-25" d="M315.68,238.62a4.79,4.79,0,1,1-4.79-4.74A4.76,4.76,0,0,1,315.68,238.62Z" transform="translate(-235.08 -153.14)"/><path class="cls-24" d="M313.75,238a3.45,3.45,0,1,1-3.45-3.42A3.43,3.43,0,0,1,313.75,238Z" transform="translate(-235.08 -153.14)"/><path class="cls-10" d="M309.45,236.88a1.17,1.17,0,1,1-1.16-1.16A1.16,1.16,0,0,1,309.45,236.88Z" transform="translate(-235.08 -153.14)"/><path class="cls-26" d="M527.57,247.93a4.79,4.79,0,1,0,4.78-4.74A4.76,4.76,0,0,0,527.57,247.93Z" transform="translate(-235.08 -153.14)"/><path class="cls-24" d="M529.5,247.34a3.45,3.45,0,1,0,3.45-3.42A3.43,3.43,0,0,0,529.5,247.34Z" transform="translate(-235.08 -153.14)"/><path class="cls-10" d="M533.8,246.19A1.17,1.17,0,1,0,535,245,1.16,1.16,0,0,0,533.8,246.19Z" transform="translate(-235.08 -153.14)"/><path class="cls-27" d="M480.49,238.62a4.78,4.78,0,1,0,4.78-4.74A4.76,4.76,0,0,0,480.49,238.62Z" transform="translate(-235.08 -153.14)"/><path class="cls-24" d="M482.41,238a3.45,3.45,0,1,0,3.45-3.42A3.44,3.44,0,0,0,482.41,238Z" transform="translate(-235.08 -153.14)"/><path class="cls-10" d="M486.71,236.88a1.17,1.17,0,1,0,1.17-1.16A1.16,1.16,0,0,0,486.71,236.88Z" transform="translate(-235.08 -153.14)"/><path class="cls-28" d="M372.34,234.62a4.79,4.79,0,1,1-4.79-4.75A4.76,4.76,0,0,1,372.34,234.62Z" transform="translate(-235.08 -153.14)"/><path class="cls-24" d="M370.41,234a3.45,3.45,0,1,1-3.45-3.42A3.43,3.43,0,0,1,370.41,234Z" transform="translate(-235.08 -153.14)"/><path class="cls-10" d="M366.11,232.87a1.17,1.17,0,1,1-1.17-1.16A1.16,1.16,0,0,1,366.11,232.87Z" transform="translate(-235.08 -153.14)"/><path class="cls-29" d="M435.05,234.62a4.79,4.79,0,1,1-4.78-4.75A4.76,4.76,0,0,1,435.05,234.62Z" transform="translate(-235.08 -153.14)"/><path class="cls-24" d="M433.12,234a3.45,3.45,0,1,1-3.44-3.42A3.43,3.43,0,0,1,433.12,234Z" transform="translate(-235.08 -153.14)"/><path class="cls-10" d="M428.83,232.87a1.17,1.17,0,1,1-1.17-1.16A1.17,1.17,0,0,1,428.83,232.87Z" transform="translate(-235.08 -153.14)"/><path class="cls-16" d="M294.43,213.73A101,101,0,0,1,334,189c2.16-.73,5.07-1.15,6.28.77.89,1.4.28,3.24-.43,4.74a53,53,0,0,1-36.61,28.8c-3.85.81-8.94.54-10.33-3.11-1.17-3,1.17-6.23,3.46-8.56" transform="translate(-235.08 -153.14)"/></g></g></svg>