<svg xmlns="http://www.w3.org/2000/svg" xmlns:xlink="http://www.w3.org/1999/xlink" viewBox="0 0 325.98 138.86"><defs><style>.cls-1{isolation:isolate;}.cls-2{fill:url(#Безымянный_градиент_167);}.cls-3,.cls-4{fill:url(#Безымянный_градиент_167-2);}.cls-4{opacity:0.34;}.cls-5{fill:url(#Безымянный_градиент_167-4);}.cls-6{fill:url(#Безымянный_градиент_167-5);}.cls-7{fill:url(#Безымянный_градиент_167-6);}.cls-8{fill:url(#Безымянный_градиент_166);}.cls-9{fill:url(#Безымянный_градиент_170);}.cls-10{fill:#fff;}.cls-11{fill:#1c103f;}.cls-12,.cls-30{mix-blend-mode:multiply;}.cls-13,.cls-30{fill:#f5c8bd;}.cls-14{fill:#005456;}.cls-15{fill:url(#Безымянный_градиент_167-7);}.cls-16{fill:url(#Безымянный_градиент_166-2);}.cls-17{fill:url(#Безымянный_градиент_167-8);}.cls-18{fill:url(#Безымянный_градиент_167-9);}.cls-19{fill:url(#Безымянный_градиент_167-10);}.cls-20{fill:url(#Безымянный_градиент_167-11);}.cls-21{fill:url(#Безымянный_градиент_167-12);}.cls-22{fill:url(#Безымянный_градиент_167-13);}.cls-23{fill:url(#Безымянный_градиент_166-3);}.cls-24{fill:#7adfff;}.cls-25{fill:url(#Безымянный_градиент_166-4);}.cls-26{fill:url(#Безымянный_градиент_166-5);}.cls-27{fill:url(#Безымянный_градиент_166-6);}.cls-28{fill:url(#Безымянный_градиент_166-7);}.cls-29{fill:url(#Безымянный_градиент_166-8);}</style><radialGradient id="Безымянный_градиент_167" cx="395.47" cy="214.47" r="98.03" gradientUnits="userSpaceOnUse"><stop offset="0" stop-color="#ffe45e"/><stop offset="1" stop-color="#f2710b"/></radialGradient><radialGradient id="Безымянный_градиент_167-2" cx="284.53" cy="39.83" r="21.4" xlink:href="#Безымянный_градиент_167"/><radialGradient id="Безымянный_градиент_167-4" cx="310.29" cy="15.56" r="15.63" xlink:href="#Безымянный_градиент_167"/><radialGradient id="Безымянный_градиент_167-5" cx="305.86" cy="9.58" r="4.81" xlink:href="#Безымянный_градиент_167"/><radialGradient id="Безымянный_градиент_167-6" cx="545.71" cy="172.92" r="13.55" xlink:href="#Безымянный_градиент_167"/><linearGradient id="Безымянный_градиент_166" x1="436.31" y1="209.89" x2="526.12" y2="209.89" gradientUnits="userSpaceOnUse"><stop offset="0" stop-color="#ff7a25"/><stop offset="0.29" stop-color="#da562c"/><stop offset="0.77" stop-color="#a42235"/><stop offset="1" stop-color="#8f0d39"/></linearGradient><linearGradient id="Безымянный_градиент_170" x1="117.88" y1="72.53" x2="207.49" y2="72.53" gradientUnits="userSpaceOnUse"><stop offset="0" stop-color="#00f2a0"/><stop offset="1" stop-color="#168c62"/></linearGradient><radialGradient id="Безымянный_градиент_167-7" cx="399.95" cy="247.94" r="113.36" xlink:href="#Безымянный_градиент_167"/><linearGradient id="Безымянный_градиент_166-2" x1="15.7" y1="114.81" x2="311.5" y2="114.81" xlink:href="#Безымянный_градиент_166"/><radialGradient id="Безымянный_градиент_167-8" cx="398.74" cy="267.97" r="97.42" xlink:href="#Безымянный_градиент_167"/><radialGradient id="Безымянный_градиент_167-9" cx="41.45" cy="39.83" r="21.4" xlink:href="#Безымянный_градиент_167"/><radialGradient id="Безымянный_градиент_167-10" cx="15.7" cy="15.56" r="15.63" xlink:href="#Безымянный_градиент_167"/><radialGradient id="Безымянный_градиент_167-11" cx="20.12" cy="9.58" r="4.81" xlink:href="#Безымянный_градиент_167"/><radialGradient id="Безымянный_градиент_167-12" cx="250.66" cy="172.01" r="13.98" xlink:href="#Безымянный_градиент_167"/><radialGradient id="Безымянный_градиент_167-13" cx="164.2" cy="117.7" r="44.95" xlink:href="#Безымянный_градиент_167"/><linearGradient id="Безымянный_градиент_166-3" x1="23.95" y1="94.79" x2="33.51" y2="94.79" xlink:href="#Безымянный_градиент_166"/><linearGradient id="Безымянный_градиент_166-4" x1="306.18" y1="238.63" x2="315.75" y2="238.63" xlink:href="#Безымянный_градиент_166"/><linearGradient id="Безымянный_градиент_166-5" x1="527.64" y1="247.94" x2="537.21" y2="247.94" xlink:href="#Безымянный_градиент_166"/><linearGradient id="Безымянный_градиент_166-6" x1="480.55" y1="238.63" x2="490.12" y2="238.63" xlink:href="#Безымянный_градиент_166"/><linearGradient id="Безымянный_градиент_166-7" x1="362.84" y1="234.63" x2="372.41" y2="234.63" xlink:href="#Безымянный_градиент_166"/><linearGradient id="Безымянный_градиент_166-8" x1="425.55" y1="234.63" x2="435.12" y2="234.63" xlink:href="#Безымянный_градиент_166"/></defs><title>тарелка оранжевая</title><g class="cls-1"><g id="Слой_1" data-name="Слой 1"><path class="cls-2" d="M264.83,240s28.44-72,133.26-72,128,75.85,128,75.85l-128,17Z" transform="translate(-235.15 -153.16)"/><polygon class="cls-3" points="263.2 56.66 299.42 18.36 305.86 24.85 269.64 61.31 263.2 56.66"/><polygon class="cls-4" points="263.2 56.66 299.42 18.36 305.86 24.85 269.64 61.31 263.2 56.66"/><ellipse class="cls-5" cx="310.29" cy="15.56" rx="15.7" ry="15.56"/><ellipse class="cls-6" cx="305.86" cy="9.58" rx="4.83" ry="4.79"/><path class="cls-7" d="M561.13,168.72a15.34,15.34,0,0,0-1.77-7.17c-2.34,1.48-3.68,4.28-5.39,6.54a18.16,18.16,0,0,1-23.68,4.64,15.7,15.7,0,0,0,30.84-4Z" transform="translate(-235.15 -153.16)"/><path class="cls-8" d="M436.31,171.88c13.2,10.81,22.35,26.61,24,43.55.89,9.31-.56,19.41-6.76,26.45q21.06,4,42.43,6l30.16-4S508.75,187.23,436.31,171.88Z" transform="translate(-235.15 -153.16)"/><ellipse class="cls-9" cx="162.68" cy="72.53" rx="44.8" ry="44.42"/><ellipse class="cls-10" cx="147.6" cy="52.03" rx="12.3" ry="12.19"/><ellipse class="cls-11" cx="152.6" cy="52.03" rx="5" ry="4.96"/><ellipse class="cls-10" cx="177.77" cy="52.03" rx="12.3" ry="12.19"/><g class="cls-12"><path class="cls-13" d="M410.69,183.13a26.86,26.86,0,0,1,4.73,12.19c1.28,11-4.52,22.32-13.85,28.4-4.13,2.7-9,4.55-12.14,8.32q24.63,3.17,49.49,4c.82,0,1.65.05,2.47,0a43.9,43.9,0,0,0,1.24-10.38A44.48,44.48,0,0,0,410.69,183.13Z" transform="translate(-235.15 -153.16)"/></g><path class="cls-11" d="M412.92,205.19a5,5,0,1,1-5-5A5,5,0,0,1,412.92,205.19Z" transform="translate(-235.15 -153.16)"/><path class="cls-14" d="M359.19,212.43a6.08,6.08,0,0,0,1.74-11.93,44.25,44.25,0,0,0-5.44,10.68A6.15,6.15,0,0,0,359.19,212.43Z" transform="translate(-235.15 -153.16)"/><path class="cls-14" d="M386.87,187.19a2.94,2.94,0,1,0,2.94-2.91A2.93,2.93,0,0,0,386.87,187.19Z" transform="translate(-235.15 -153.16)"/><path class="cls-14" d="M435.5,220.39a5.12,5.12,0,1,0-5.16-5.12A5.14,5.14,0,0,0,435.5,220.39Z" transform="translate(-235.15 -153.16)"/><path class="cls-14" d="M371.51,219.13a3.89,3.89,0,1,0-3.89,3.86A3.88,3.88,0,0,0,371.51,219.13Z" transform="translate(-235.15 -153.16)"/><ellipse class="cls-14" cx="160.78" cy="73.35" rx="7.45" ry="7.38"/><path class="cls-14" d="M421.24,217.38a2,2,0,1,0,2,2A2,2,0,0,0,421.24,217.38Z" transform="translate(-235.15 -153.16)"/><path class="cls-14" d="M412,186.81a5.59,5.59,0,0,0,10.79,2,44.61,44.61,0,0,0-9.91-5A5.47,5.47,0,0,0,412,186.81Z" transform="translate(-235.15 -153.16)"/><path class="cls-15" d="M251.48,270.2l-10.3-21.47s19.89-23,162.68-23,154.86,26.84,154.86,26.84L546,270.2Z" transform="translate(-235.15 -153.16)"/><path class="cls-10" d="M288.49,258.83l1.05-.18-4.47-24.88-1.19.22,4.47,24.86Z" transform="translate(-235.15 -153.16)"/><path class="cls-10" d="M343.79,252.43l1.06-.06-1.47-25-1.21.07,1.47,25Z" transform="translate(-235.15 -153.16)"/><path class="cls-10" d="M455.1,252.35,458,227.21l-1.21-.07-2.92,25.5,1.2.13Z" transform="translate(-235.15 -153.16)"/><path class="cls-10" d="M511,233.28,508,259l1.2.13,0-.42,2.89-25.16Z" transform="translate(-235.15 -153.16)"/><path class="cls-10" d="M399,250.2l1.07,0-.69-24.47h-1.21l.69,24.51Z" transform="translate(-235.15 -153.16)"/><ellipse class="cls-16" cx="163.6" cy="114.81" rx="147.9" ry="24.05"/><path class="cls-17" d="M398.74,284.84c-36.13,0-70.78-2.15-97.59-6.06-21.25-3.09-32.27-6.48-37.88-8.89a2.09,2.09,0,0,1,0-3.84c5.61-2.41,16.63-5.8,37.88-8.89,26.81-3.91,61.46-6.06,97.59-6.06s70.79,2.15,97.59,6.06c21.26,3.09,32.28,6.48,37.89,8.89a2.09,2.09,0,0,1,0,3.84c-5.61,2.41-16.63,5.8-37.89,8.89C469.53,282.69,434.87,284.84,398.74,284.84Z" transform="translate(-235.15 -153.16)"/><polygon class="cls-18" points="62.78 56.66 26.56 18.36 20.12 24.85 56.34 61.31 62.78 56.66"/><ellipse class="cls-19" cx="15.7" cy="15.56" rx="15.7" ry="15.56"/><ellipse class="cls-20" cx="20.12" cy="9.58" rx="4.83" ry="4.79"/><path class="cls-21" d="M266.16,172.08a9.68,9.68,0,0,0-4-.35c-3,.35-5.74,1.64-8.71,2a14.29,14.29,0,0,1-14.63-8.88,13.06,13.06,0,0,1-.78-5.11,15.45,15.45,0,0,0-2.89,9,15.7,15.7,0,0,0,31,3.36Z" transform="translate(-235.15 -153.16)"/><ellipse class="cls-22" cx="164.2" cy="117.7" rx="62.78" ry="9.99"/><ellipse class="cls-10" cx="162.68" cy="120.57" rx="36.16" ry="5.75"/><ellipse class="cls-23" cx="28.73" cy="94.79" rx="4.78" ry="4.74"/><path class="cls-24" d="M266.73,247.36a3.45,3.45,0,1,1-3.45-3.42A3.44,3.44,0,0,1,266.73,247.36Z" transform="translate(-235.15 -153.16)"/><ellipse class="cls-10" cx="26.12" cy="93.04" rx="1.17" ry="1.16"/><path class="cls-25" d="M315.75,238.63a4.79,4.79,0,1,1-4.79-4.74A4.78,4.78,0,0,1,315.75,238.63Z" transform="translate(-235.15 -153.16)"/><path class="cls-24" d="M313.82,238.05a3.45,3.45,0,1,1-3.45-3.42A3.43,3.43,0,0,1,313.82,238.05Z" transform="translate(-235.15 -153.16)"/><path class="cls-10" d="M309.52,236.89a1.17,1.17,0,1,1-1.17-1.16A1.16,1.16,0,0,1,309.52,236.89Z" transform="translate(-235.15 -153.16)"/><path class="cls-26" d="M527.64,247.94a4.79,4.79,0,1,0,4.78-4.74A4.77,4.77,0,0,0,527.64,247.94Z" transform="translate(-235.15 -153.16)"/><path class="cls-24" d="M529.57,247.36a3.45,3.45,0,1,0,3.44-3.42A3.44,3.44,0,0,0,529.57,247.36Z" transform="translate(-235.15 -153.16)"/><path class="cls-10" d="M533.86,246.2A1.17,1.17,0,1,0,535,245,1.17,1.17,0,0,0,533.86,246.2Z" transform="translate(-235.15 -153.16)"/><path class="cls-27" d="M480.55,238.63a4.79,4.79,0,1,0,4.79-4.74A4.78,4.78,0,0,0,480.55,238.63Z" transform="translate(-235.15 -153.16)"/><path class="cls-24" d="M482.48,238.05a3.45,3.45,0,1,0,3.45-3.42A3.43,3.43,0,0,0,482.48,238.05Z" transform="translate(-235.15 -153.16)"/><path class="cls-10" d="M486.78,236.89a1.17,1.17,0,1,0,1.17-1.16A1.16,1.16,0,0,0,486.78,236.89Z" transform="translate(-235.15 -153.16)"/><path class="cls-28" d="M372.41,234.63a4.79,4.79,0,1,1-4.79-4.74A4.77,4.77,0,0,1,372.41,234.63Z" transform="translate(-235.15 -153.16)"/><path class="cls-24" d="M370.48,234a3.45,3.45,0,1,1-3.45-3.42A3.44,3.44,0,0,1,370.48,234Z" transform="translate(-235.15 -153.16)"/><path class="cls-10" d="M366.18,232.89a1.17,1.17,0,1,1-1.17-1.16A1.16,1.16,0,0,1,366.18,232.89Z" transform="translate(-235.15 -153.16)"/><path class="cls-29" d="M435.12,234.63a4.79,4.79,0,1,1-4.78-4.74A4.76,4.76,0,0,1,435.12,234.63Z" transform="translate(-235.15 -153.16)"/><path class="cls-24" d="M433.19,234a3.45,3.45,0,1,1-3.45-3.42A3.43,3.43,0,0,1,433.19,234Z" transform="translate(-235.15 -153.16)"/><path class="cls-10" d="M428.89,232.89a1.17,1.17,0,1,1-1.16-1.16A1.16,1.16,0,0,1,428.89,232.89Z" transform="translate(-235.15 -153.16)"/><path class="cls-30" d="M294.5,213.75A100.93,100.93,0,0,1,334.1,189c2.16-.73,5.06-1.14,6.28.77.89,1.41.28,3.24-.43,4.74a53.08,53.08,0,0,1-36.61,28.81c-3.85.8-8.94.53-10.34-3.12-1.16-3,1.18-6.22,3.47-8.56" transform="translate(-235.15 -153.16)"/></g></g></svg>