<svg xmlns="http://www.w3.org/2000/svg" xmlns:xlink="http://www.w3.org/1999/xlink" viewBox="0 0 328.8 139.36"><defs><style>.cls-1{isolation:isolate;}.cls-2,.cls-4,.cls-5{fill:#c700cd;}.cls-3{fill:#ffdb00;opacity:0.3;mix-blend-mode:screen;}.cls-4,.cls-5{stroke:#ac08b5;stroke-miterlimit:10;}.cls-5{opacity:0.34;}.cls-6{fill:#ac08b5;}.cls-7{fill:url(#radial-gradient);}.cls-8{fill:#fff;}.cls-9{fill:#1c103f;}.cls-10,.cls-14{mix-blend-mode:multiply;}.cls-11,.cls-14{fill:#f5c8bd;}.cls-12{fill:#005456;}.cls-13{fill:#3517ca;}.cls-15{fill:url(#Безымянный_градиент_166);}.cls-16{fill:#7adfff;}.cls-17{fill:url(#Безымянный_градиент_166-2);}.cls-18{fill:url(#Безымянный_градиент_166-3);}.cls-19{fill:url(#Безымянный_градиент_166-4);}.cls-20{fill:url(#Безымянный_градиент_166-5);}.cls-21{fill:url(#Безымянный_градиент_166-6);}</style><radialGradient id="radial-gradient" cx="164" cy="73.03" r="44.61" gradientUnits="userSpaceOnUse"><stop offset="0" stop-color="#edff6a"/><stop offset="0.11" stop-color="#effc62"/><stop offset="0.28" stop-color="#f4f54b"/><stop offset="0.49" stop-color="#fcea25"/><stop offset="0.57" stop-color="#ffe515"/><stop offset="1" stop-color="#ffa415"/></radialGradient><linearGradient id="Безымянный_градиент_166" x1="25.26" y1="95.29" x2="34.83" y2="95.29" gradientUnits="userSpaceOnUse"><stop offset="0" stop-color="#ff7a25"/><stop offset="0.29" stop-color="#da562c"/><stop offset="0.77" stop-color="#a42235"/><stop offset="1" stop-color="#8f0d39"/></linearGradient><linearGradient id="Безымянный_градиент_166-2" x1="306.2" y1="238.6" x2="315.77" y2="238.6" xlink:href="#Безымянный_градиент_166"/><linearGradient id="Безымянный_градиент_166-3" x1="527.66" y1="247.91" x2="537.23" y2="247.91" xlink:href="#Безымянный_градиент_166"/><linearGradient id="Безымянный_градиент_166-4" x1="480.58" y1="238.6" x2="490.14" y2="238.6" xlink:href="#Безымянный_градиент_166"/><linearGradient id="Безымянный_градиент_166-5" x1="362.86" y1="234.6" x2="372.43" y2="234.6" xlink:href="#Безымянный_градиент_166"/><linearGradient id="Безымянный_градиент_166-6" x1="425.58" y1="234.6" x2="435.14" y2="234.6" xlink:href="#Безымянный_градиент_166"/></defs><title>тарелка розовая</title><g class="cls-1"><g id="Слой_1" data-name="Слой 1"><path class="cls-2" d="M264.85,240s28.45-72,133.26-72,128,75.85,128,75.85l-128,16.94Z" transform="translate(-233.86 -152.63)"/><path class="cls-3" d="M265.3,240s28.45-72,133.27-72,128,75.85,128,75.85l-128,16.94Z" transform="translate(-233.86 -152.63)"/><polygon class="cls-4" points="264.52 57.16 300.74 18.86 307.18 25.35 270.96 61.81 264.52 57.16"/><polygon class="cls-5" points="264.52 57.16 300.74 18.86 307.18 25.35 270.96 61.81 264.52 57.16"/><ellipse class="cls-4" cx="311.6" cy="16.06" rx="15.7" ry="15.56"/><ellipse class="cls-4" cx="307.18" cy="10.08" rx="4.83" ry="4.79"/><path class="cls-2" d="M561.15,168.69a15.34,15.34,0,0,0-1.77-7.17c-2.34,1.48-3.67,4.28-5.39,6.54a18.29,18.29,0,0,1-11.81,7,18.49,18.49,0,0,1-11.87-2.33,15.7,15.7,0,0,0,30.84-4Z" transform="translate(-233.86 -152.63)"/><path class="cls-6" d="M562.65,168.69a20.37,20.37,0,0,0-2-7.93,1.51,1.51,0,0,0-2.06-.54c-3.6,2.78-5.27,7.14-8.86,9.92-5.54,4.29-12.6,4.49-18.69,1.27a1.52,1.52,0,0,0-2.21,1.69c5.9,18.58,33,15.09,33.79-4.41.09-1.93-2.91-1.93-3,0-.69,16.09-23,19-27.89,3.61l-2.21,1.7a20.24,20.24,0,0,0,16.8,1.47,19.85,19.85,0,0,0,6.61-4.05c2.77-2.56,4.18-6.3,7.18-8.61l-2-.53a15.29,15.29,0,0,1,1.56,6.41C559.75,170.61,562.75,170.62,562.65,168.69Z" transform="translate(-233.86 -152.63)"/><path class="cls-2" d="M436.33,171.85c13.2,10.81,22.35,26.61,24,43.55.89,9.31-.56,19.4-6.76,26.45q21.06,4,42.43,6l30.16-4S508.78,187.2,436.33,171.85Z" transform="translate(-233.86 -152.63)"/><ellipse class="cls-7" cx="164" cy="73.03" rx="44.8" ry="44.42"/><ellipse class="cls-8" cx="148.91" cy="52.53" rx="12.3" ry="12.19"/><ellipse class="cls-9" cx="153.91" cy="52.53" rx="5" ry="4.96"/><ellipse class="cls-8" cx="179.09" cy="52.53" rx="12.3" ry="12.19"/><g class="cls-10"><path class="cls-11" d="M410.71,183.1a26.74,26.74,0,0,1,4.73,12.19c1.28,11-4.52,22.31-13.84,28.4-4.13,2.7-9,4.55-12.14,8.32q24.62,3.17,49.48,4c.82,0,1.65.05,2.47,0a43.9,43.9,0,0,0,1.25-10.38A44.48,44.48,0,0,0,410.71,183.1Z" transform="translate(-233.86 -152.63)"/></g><path class="cls-9" d="M412.94,205.15a5,5,0,1,1-5-5A5,5,0,0,1,412.94,205.15Z" transform="translate(-233.86 -152.63)"/><path class="cls-12" d="M359.21,212.4A6.08,6.08,0,0,0,361,200.47a44.25,44.25,0,0,0-5.44,10.68A6.15,6.15,0,0,0,359.21,212.4Z" transform="translate(-233.86 -152.63)"/><path class="cls-12" d="M386.89,187.16a2.94,2.94,0,1,0,2.94-2.91A2.93,2.93,0,0,0,386.89,187.16Z" transform="translate(-233.86 -152.63)"/><path class="cls-12" d="M435.53,220.36a5.13,5.13,0,1,0-5.17-5.12A5.14,5.14,0,0,0,435.53,220.36Z" transform="translate(-233.86 -152.63)"/><path class="cls-12" d="M371.54,219.1a3.9,3.9,0,1,0-3.89,3.86A3.88,3.88,0,0,0,371.54,219.1Z" transform="translate(-233.86 -152.63)"/><ellipse class="cls-12" cx="162.09" cy="73.85" rx="7.45" ry="7.38"/><path class="cls-12" d="M421.26,217.35a2,2,0,1,0,2,2A2,2,0,0,0,421.26,217.35Z" transform="translate(-233.86 -152.63)"/><path class="cls-12" d="M412.05,186.78a5.59,5.59,0,0,0,10.79,2,45,45,0,0,0-9.91-5A5.42,5.42,0,0,0,412.05,186.78Z" transform="translate(-233.86 -152.63)"/><path class="cls-13" d="M251.5,270.17,241.21,248.7s19.89-23,162.67-23S558.74,252.5,558.74,252.5L546,270.17Z" transform="translate(-233.86 -152.63)"/><path class="cls-2" d="M251.57,270.17,241.28,248.7s19.89-23,162.67-23S558.81,252.5,558.81,252.5L546.1,270.17Z" transform="translate(-233.86 -152.63)"/><path class="cls-14" d="M251.5,270.17,241.21,248.7s19.89-23,162.67-23S558.74,252.5,558.74,252.5L546,270.17Z" transform="translate(-233.86 -152.63)"/><path class="cls-8" d="M288.51,258.8l1.05-.19-4.47-24.87-1.18.22,4.46,24.86Z" transform="translate(-233.86 -152.63)"/><path class="cls-8" d="M343.81,252.4l1.06-.06-1.47-25-1.21.07,1.48,25Z" transform="translate(-233.86 -152.63)"/><path class="cls-8" d="M455.12,252.32,458,227.18l-1.21-.08-2.92,25.51,1.2.13Z" transform="translate(-233.86 -152.63)"/><path class="cls-8" d="M511,233.24,508,258.92l1.2.13,0-.42,2.88-25.16Z" transform="translate(-233.86 -152.63)"/><path class="cls-8" d="M399,250.17l1.06,0-.69-24.47h-1.21l.69,24.51Z" transform="translate(-233.86 -152.63)"/><ellipse class="cls-2" cx="164.91" cy="115.31" rx="147.9" ry="24.05"/><ellipse class="cls-2" cx="164.91" cy="115.31" rx="147.9" ry="24.05"/><path class="cls-2" d="M398.77,284.8c-36.13,0-70.79-2.15-97.59-6.05-21.26-3.1-32.28-6.48-37.89-8.9a2.09,2.09,0,0,1,0-3.83c5.61-2.41,16.63-5.8,37.89-8.89,26.8-3.91,61.46-6.06,97.59-6.06s70.78,2.15,97.59,6.06c21.25,3.09,32.27,6.48,37.88,8.89a2.08,2.08,0,0,1,0,3.83c-5.61,2.42-16.63,5.8-37.88,8.9C469.55,282.65,434.89,284.8,398.77,284.8Z" transform="translate(-233.86 -152.63)"/><path class="cls-3" d="M399.09,284.72c-36.13,0-70.79-2.15-97.59-6.05-21.26-3.1-32.28-6.49-37.88-8.9a2.08,2.08,0,0,1,0-3.83c5.6-2.41,16.62-5.8,37.88-8.9,26.8-3.9,61.46-6.05,97.59-6.05s70.79,2.15,97.59,6.05c21.26,3.1,32.28,6.49,37.88,8.9a2.08,2.08,0,0,1,0,3.83c-5.6,2.41-16.62,5.8-37.88,8.9C469.88,282.57,435.22,284.72,399.09,284.72Z" transform="translate(-233.86 -152.63)"/><polygon class="cls-4" points="64.1 57.16 27.88 18.86 21.44 25.35 57.66 61.81 64.1 57.16"/><ellipse class="cls-4" cx="17.01" cy="16.06" rx="15.7" ry="15.56"/><ellipse class="cls-4" cx="21.44" cy="10.08" rx="4.83" ry="4.79"/><path class="cls-2" d="M266.19,172.05a9.69,9.69,0,0,0-4-.35c-3,.35-5.75,1.64-8.71,2a14.29,14.29,0,0,1-14.64-8.88,13.06,13.06,0,0,1-.78-5.11,15.45,15.45,0,0,0-2.89,9,15.71,15.71,0,0,0,31,3.36Z" transform="translate(-233.86 -152.63)"/><path class="cls-6" d="M266.58,170.6c-4.72-1.09-8.49,1.05-13.13,1.5a12.45,12.45,0,0,1-13.89-12.4,1.51,1.51,0,0,0-2.79-.75c-5.78,9-2.77,21.06,7.29,25.4s20.85-1.75,23.57-11.91a1.5,1.5,0,0,0-2.89-.79c-2.18,8.12-10.5,13.2-18.68,10.28-9-3.23-11.69-13.7-6.7-21.47l-2.8-.76a15.2,15.2,0,0,0,8.6,13.93,15.43,15.43,0,0,0,7.61,1.6c4.47-.23,8.47-2.78,13-1.74C267.67,173.92,268.47,171,266.58,170.6Z" transform="translate(-233.86 -152.63)"/><ellipse class="cls-2" cx="165.51" cy="118.2" rx="62.78" ry="9.99"/><ellipse class="cls-8" cx="164" cy="121.07" rx="36.16" ry="5.75"/><ellipse class="cls-15" cx="30.04" cy="95.29" rx="4.78" ry="4.74"/><path class="cls-16" d="M266.76,247.33a3.45,3.45,0,1,1-3.45-3.42A3.44,3.44,0,0,1,266.76,247.33Z" transform="translate(-233.86 -152.63)"/><ellipse class="cls-8" cx="27.43" cy="93.54" rx="1.17" ry="1.16"/><path class="cls-17" d="M315.77,238.6a4.79,4.79,0,1,1-4.78-4.74A4.77,4.77,0,0,1,315.77,238.6Z" transform="translate(-233.86 -152.63)"/><path class="cls-16" d="M313.84,238a3.45,3.45,0,1,1-3.45-3.42A3.43,3.43,0,0,1,313.84,238Z" transform="translate(-233.86 -152.63)"/><path class="cls-8" d="M309.54,236.86a1.17,1.17,0,1,1-1.16-1.16A1.16,1.16,0,0,1,309.54,236.86Z" transform="translate(-233.86 -152.63)"/><path class="cls-18" d="M527.66,247.91a4.79,4.79,0,1,0,4.79-4.74A4.76,4.76,0,0,0,527.66,247.91Z" transform="translate(-233.86 -152.63)"/><path class="cls-16" d="M529.59,247.33a3.45,3.45,0,1,0,3.45-3.42A3.43,3.43,0,0,0,529.59,247.33Z" transform="translate(-233.86 -152.63)"/><path class="cls-8" d="M533.89,246.17a1.17,1.17,0,1,0,1.17-1.16A1.16,1.16,0,0,0,533.89,246.17Z" transform="translate(-233.86 -152.63)"/><path class="cls-19" d="M480.58,238.6a4.78,4.78,0,1,0,4.78-4.74A4.77,4.77,0,0,0,480.58,238.6Z" transform="translate(-233.86 -152.63)"/><path class="cls-16" d="M482.5,238A3.45,3.45,0,1,0,486,234.6,3.44,3.44,0,0,0,482.5,238Z" transform="translate(-233.86 -152.63)"/><path class="cls-8" d="M486.8,236.86A1.17,1.17,0,1,0,488,235.7,1.16,1.16,0,0,0,486.8,236.86Z" transform="translate(-233.86 -152.63)"/><path class="cls-20" d="M372.43,234.6a4.79,4.79,0,1,1-4.78-4.74A4.76,4.76,0,0,1,372.43,234.6Z" transform="translate(-233.86 -152.63)"/><path class="cls-16" d="M370.5,234a3.45,3.45,0,1,1-3.45-3.42A3.43,3.43,0,0,1,370.5,234Z" transform="translate(-233.86 -152.63)"/><path class="cls-8" d="M366.2,232.85A1.17,1.17,0,1,1,365,231.7,1.16,1.16,0,0,1,366.2,232.85Z" transform="translate(-233.86 -152.63)"/><path class="cls-21" d="M435.14,234.6a4.78,4.78,0,1,1-4.78-4.74A4.76,4.76,0,0,1,435.14,234.6Z" transform="translate(-233.86 -152.63)"/><path class="cls-16" d="M433.22,234a3.45,3.45,0,1,1-3.45-3.42A3.44,3.44,0,0,1,433.22,234Z" transform="translate(-233.86 -152.63)"/><path class="cls-8" d="M428.92,232.85a1.17,1.17,0,0,1-2.34,0,1.17,1.17,0,0,1,2.34,0Z" transform="translate(-233.86 -152.63)"/><path class="cls-14" d="M294.52,213.71A101,101,0,0,1,334.12,189c2.17-.73,5.07-1.15,6.29.77.89,1.4.27,3.24-.44,4.74a53.06,53.06,0,0,1-36.61,28.81c-3.85.8-8.94.53-10.33-3.12-1.17-3,1.17-6.23,3.46-8.56" transform="translate(-233.86 -152.63)"/></g></g></svg>